%TF.GenerationSoftware,KiCad,Pcbnew,9.0.5*%
%TF.CreationDate,2025-10-30T23:19:20-07:00*%
%TF.ProjectId,temporal,74656d70-6f72-4616-9c2e-6b696361645f,1*%
%TF.SameCoordinates,Original*%
%TF.FileFunction,Profile,NP*%
%FSLAX46Y46*%
G04 Gerber Fmt 4.6, Leading zero omitted, Abs format (unit mm)*
G04 Created by KiCad (PCBNEW 9.0.5) date 2025-10-30 23:19:20*
%MOMM*%
%LPD*%
G01*
G04 APERTURE LIST*
%TA.AperFunction,Profile*%
%ADD10C,0.200000*%
%TD*%
G04 APERTURE END LIST*
D10*
X54558581Y-76032316D02*
G75*
G02*
X54106896Y-75691866I-55581J396116D01*
G01*
X54855786Y-75990547D02*
X54558706Y-76032299D01*
X55196224Y-75538770D02*
G75*
G02*
X54855782Y-75990517I-396124J-55630D01*
G01*
X54709118Y-72072832D02*
X55196205Y-75538630D01*
X54257467Y-71732376D02*
G75*
G02*
X54709105Y-72072834I55533J-396124D01*
G01*
X53960261Y-71774146D02*
X54257342Y-71732394D01*
X53619823Y-72225922D02*
G75*
G02*
X53960272Y-71774224I396077J55622D01*
G01*
X54106929Y-75691861D02*
X53619843Y-72226062D01*
X53375609Y-67615038D02*
G75*
G02*
X52923986Y-67274578I-55509J396138D01*
G01*
X53672815Y-67573268D02*
X53375734Y-67615020D01*
X54013253Y-67121492D02*
G75*
G02*
X53672827Y-67573350I-396153J-55708D01*
G01*
X53526147Y-63655553D02*
X54013233Y-67121352D01*
X53074496Y-63315098D02*
G75*
G02*
X53526083Y-63655562I55504J-396102D01*
G01*
X52777290Y-63356867D02*
X53074371Y-63315116D01*
X52436852Y-63808644D02*
G75*
G02*
X52777289Y-63356861I396148J55644D01*
G01*
X52923958Y-67274582D02*
X52436872Y-63808784D01*
X55741552Y-84449595D02*
G75*
G02*
X55289917Y-84109137I-55552J396095D01*
G01*
X56038758Y-84407825D02*
X55741677Y-84449577D01*
X56379196Y-83956049D02*
G75*
G02*
X56038754Y-84407796I-396096J-55651D01*
G01*
X55892090Y-80490111D02*
X56379176Y-83955909D01*
X55440438Y-80149655D02*
G75*
G02*
X55892126Y-80490106I55562J-396145D01*
G01*
X55143233Y-80191425D02*
X55440313Y-80149673D01*
X54802795Y-80643201D02*
G75*
G02*
X55143228Y-80191391I396105J55701D01*
G01*
X55289901Y-84109139D02*
X54802814Y-80643341D01*
X40057707Y-93924574D02*
G75*
G02*
X38815321Y-92988370I-153107J1089274D01*
G01*
X34083436Y-59319255D02*
X38815321Y-92988370D01*
X34083436Y-59319255D02*
G75*
G02*
X35019502Y-58076956I1089264J153055D01*
G01*
X50167201Y-55948019D02*
X35019640Y-58076870D01*
X50167201Y-55948019D02*
G75*
G02*
X51301792Y-56540665I153099J-1089281D01*
G01*
X51301791Y-56540666D02*
G75*
G02*
X51507577Y-57196550I-1873791J-948134D01*
G01*
X51740987Y-58857304D02*
X51507583Y-57196549D01*
X52192638Y-59197759D02*
G75*
G02*
X51740965Y-58857307I-55538J396159D01*
G01*
X52489844Y-59155990D02*
X52192763Y-59197742D01*
X52830299Y-58704338D02*
G75*
G02*
X52489843Y-59155988I-396099J-55562D01*
G01*
X52498397Y-56342736D02*
X52830281Y-58704213D01*
X51926368Y-55230479D02*
G75*
G02*
X52498422Y-56342732I-1309468J-1376721D01*
G01*
X51926368Y-55230479D02*
G75*
G02*
X51595167Y-54586544I758132J797079D01*
G01*
X50725290Y-48396861D02*
X51595192Y-54586541D01*
X50725290Y-48396861D02*
G75*
G02*
X51661497Y-47154496I1089310J153061D01*
G01*
X51661494Y-47154476D02*
X70643762Y-44486692D01*
X71416314Y-43532670D02*
G75*
G02*
X70643770Y-44486749I-897814J-62830D01*
G01*
X71093686Y-38918876D02*
X71416304Y-43532529D01*
X71093676Y-38918728D02*
G75*
G02*
X72114124Y-37744793I1097324J76628D01*
G01*
X72114275Y-37744824D02*
X91354843Y-36399392D01*
X92192203Y-35501575D02*
G75*
G02*
X91354986Y-36399410I-900003J-25D01*
G01*
X92192203Y-35501575D02*
X92192203Y-32580666D01*
X92192203Y-32580666D02*
G75*
G02*
X93292203Y-31480703I1099997J-34D01*
G01*
X111292203Y-31480666D02*
X93292203Y-31480666D01*
X111292203Y-31480666D02*
G75*
G02*
X112392234Y-32580666I-3J-1100034D01*
G01*
X112392203Y-33980666D02*
X112392203Y-32580666D01*
X113292203Y-34880666D02*
G75*
G02*
X112392234Y-33980666I-3J899966D01*
G01*
X129292203Y-34880666D02*
X113292203Y-34880666D01*
X129292203Y-34880666D02*
G75*
G02*
X130392234Y-35980666I-3J-1100034D01*
G01*
X130392203Y-36530666D02*
X130392203Y-35980666D01*
X131292203Y-37430666D02*
G75*
G02*
X130392234Y-36530666I-3J899966D01*
G01*
X147292203Y-37430666D02*
X131292203Y-37430666D01*
X147292203Y-37430666D02*
G75*
G02*
X148392234Y-38530666I-3J-1100034D01*
G01*
X148392203Y-42030666D02*
X148392203Y-38530666D01*
X149292203Y-42930666D02*
G75*
G02*
X148392234Y-42030666I-3J899966D01*
G01*
X167792203Y-42930666D02*
X149292203Y-42930666D01*
X167792203Y-42930666D02*
G75*
G02*
X168892234Y-44030666I-3J-1100034D01*
G01*
X168892203Y-101092132D02*
X168892203Y-44030666D01*
X169383612Y-101894038D02*
G75*
G02*
X168892173Y-101092132I408588J801938D01*
G01*
X169383612Y-101894038D02*
X177644956Y-106103403D01*
X177644956Y-106103403D02*
G75*
G02*
X178125674Y-107582900I-499356J-980097D01*
G01*
X170404612Y-122736337D02*
X178125674Y-107582900D01*
X170404612Y-122736337D02*
G75*
G02*
X168932118Y-123220575I-980112J499437D01*
G01*
X168932111Y-123220588D02*
X152169931Y-114829723D01*
X152045179Y-114778569D02*
G75*
G02*
X152169934Y-114829717I-277979J-855731D01*
G01*
X136080374Y-109591289D02*
X152045179Y-114778569D01*
X135943049Y-109558320D02*
G75*
G02*
X136080372Y-109591295I-140849J-888980D01*
G01*
X118475591Y-106791747D02*
X135943049Y-109558321D01*
X118334800Y-106780666D02*
G75*
G02*
X118475591Y-106791745I0J-900134D01*
G01*
X100492203Y-106780666D02*
X118334800Y-106780666D01*
X100492203Y-106780666D02*
G75*
G02*
X99392234Y-105680666I-3J1099966D01*
G01*
X99392203Y-90132406D02*
X99392203Y-105680666D01*
X98429422Y-89234599D02*
G75*
G02*
X99392193Y-90132406I62778J-897801D01*
G01*
X78035979Y-90660647D02*
X98429281Y-89234608D01*
X77207378Y-91683720D02*
G75*
G02*
X78035842Y-90660715I891222J125220D01*
G01*
X77826533Y-96089236D02*
X77207378Y-91683720D01*
X77826533Y-96089236D02*
G75*
G02*
X76890328Y-97331624I-1089333J-153064D01*
G01*
X59065503Y-99836737D02*
X76890328Y-97331621D01*
X59065503Y-99836737D02*
G75*
G02*
X57823068Y-98900540I-153103J1089337D01*
G01*
X56953215Y-92710853D02*
X57823118Y-98900533D01*
X56953215Y-92710853D02*
G75*
G02*
X57094089Y-92000589I1089285J153053D01*
G01*
X57337359Y-90773733D02*
G75*
G02*
X57094095Y-92000592I-1881559J-264467D01*
G01*
X57075061Y-88907389D02*
X57337359Y-90773733D01*
X56623410Y-88566934D02*
G75*
G02*
X57075147Y-88907377I55590J-396166D01*
G01*
X56326204Y-88608703D02*
X56623285Y-88566951D01*
X55985766Y-89060480D02*
G75*
G02*
X56326199Y-88608669I396134J55680D01*
G01*
X56149583Y-90226100D02*
X55985766Y-89060480D01*
X56149583Y-90226100D02*
G75*
G02*
X56132588Y-90913159I-2079583J-292300D01*
G01*
X56132550Y-90913299D02*
G75*
G02*
X55205408Y-91795661I-1080350J206899D01*
G01*
X40057707Y-93924574D02*
X55205268Y-91795723D01*
M02*
