%TF.GenerationSoftware,KiCad,Pcbnew,9.0.5*%
%TF.CreationDate,2025-10-26T15:06:24-07:00*%
%TF.ProjectId,temporal,74656d70-6f72-4616-9c2e-6b696361645f,1*%
%TF.SameCoordinates,Original*%
%TF.FileFunction,Soldermask,Bot*%
%TF.FilePolarity,Negative*%
%FSLAX46Y46*%
G04 Gerber Fmt 4.6, Leading zero omitted, Abs format (unit mm)*
G04 Created by KiCad (PCBNEW 9.0.5) date 2025-10-26 15:06:24*
%MOMM*%
%LPD*%
G01*
G04 APERTURE LIST*
G04 Aperture macros list*
%AMRoundRect*
0 Rectangle with rounded corners*
0 $1 Rounding radius*
0 $2 $3 $4 $5 $6 $7 $8 $9 X,Y pos of 4 corners*
0 Add a 4 corners polygon primitive as box body*
4,1,4,$2,$3,$4,$5,$6,$7,$8,$9,$2,$3,0*
0 Add four circle primitives for the rounded corners*
1,1,$1+$1,$2,$3*
1,1,$1+$1,$4,$5*
1,1,$1+$1,$6,$7*
1,1,$1+$1,$8,$9*
0 Add four rect primitives between the rounded corners*
20,1,$1+$1,$2,$3,$4,$5,0*
20,1,$1+$1,$4,$5,$6,$7,0*
20,1,$1+$1,$6,$7,$8,$9,0*
20,1,$1+$1,$8,$9,$2,$3,0*%
%AMFreePoly0*
4,1,16,0.635355,0.285355,0.650000,0.250000,0.650000,-1.000000,0.635355,-1.035355,0.600000,-1.050000,0.564645,-1.035355,0.000000,-0.470710,-0.564645,-1.035355,-0.600000,-1.050000,-0.635355,-1.035355,-0.650000,-1.000000,-0.650000,0.250000,-0.635355,0.285355,-0.600000,0.300000,0.600000,0.300000,0.635355,0.285355,0.635355,0.285355,$1*%
%AMFreePoly1*
4,1,14,0.035355,0.435355,0.635355,-0.164645,0.650000,-0.200000,0.650000,-0.400000,0.635355,-0.435355,0.600000,-0.450000,-0.600000,-0.450000,-0.635355,-0.435355,-0.650000,-0.400000,-0.650000,-0.200000,-0.635355,-0.164645,-0.035355,0.435355,0.000000,0.450000,0.035355,0.435355,0.035355,0.435355,$1*%
%AMFreePoly2*
4,1,15,0.835355,1.035355,0.850000,1.000000,0.850000,-0.680000,0.835355,-0.715355,0.515355,-1.035355,0.480000,-1.050000,-0.480000,-1.050000,-0.515355,-1.035355,-0.835355,-0.715355,-0.850000,-0.680000,-0.850000,1.000000,-0.835355,1.035355,-0.800000,1.050000,0.800000,1.050000,0.835355,1.035355,0.835355,1.035355,$1*%
%AMFreePoly3*
4,1,16,-0.214645,0.660355,-0.210957,0.656235,0.289043,0.031235,0.299694,-0.005522,0.289043,-0.031235,-0.210957,-0.656235,-0.244478,-0.674694,-0.250000,-0.675000,-0.500000,-0.675000,-0.535355,-0.660355,-0.550000,-0.625000,-0.550000,0.625000,-0.535355,0.660355,-0.500000,0.675000,-0.250000,0.675000,-0.214645,0.660355,-0.214645,0.660355,$1*%
%AMFreePoly4*
4,1,16,0.535355,0.660355,0.550000,0.625000,0.550000,-0.625000,0.535355,-0.660355,0.500000,-0.675000,-0.650000,-0.675000,-0.685355,-0.660355,-0.700000,-0.625000,-0.689043,-0.593765,-0.214031,0.000000,-0.689043,0.593765,-0.699694,0.630522,-0.681235,0.664043,-0.650000,0.675000,0.500000,0.675000,0.535355,0.660355,0.535355,0.660355,$1*%
%AMFreePoly5*
4,1,14,1.335355,1.335355,1.350000,1.300000,1.349999,-1.300000,1.335355,-1.335355,1.300000,-1.350000,-0.117000,-1.350000,-0.152355,-1.335355,-1.335355,-0.152355,-1.350000,-0.117000,-1.349999,1.300000,-1.335355,1.335355,-1.300000,1.350000,1.300000,1.349999,1.335355,1.335355,1.335355,1.335355,$1*%
G04 Aperture macros list end*
%ADD10RoundRect,0.050000X-0.407050X-0.629929X0.490758X-0.567148X0.407050X0.629929X-0.490758X0.567148X0*%
%ADD11C,5.100000*%
%ADD12C,2.100000*%
%ADD13RoundRect,0.050000X-0.362117X-0.656789X0.529124X-0.531533X0.362117X0.656789X-0.529124X0.531533X0*%
%ADD14RoundRect,0.050000X-0.450000X-0.600000X0.450000X-0.600000X0.450000X0.600000X-0.450000X0.600000X0*%
%ADD15RoundRect,0.050000X-0.613386X-0.431576X0.242565X-0.709692X0.613386X0.431576X-0.242565X0.709692X0*%
%ADD16FreePoly0,90.000000*%
%ADD17O,1.850000X1.300000*%
%ADD18FreePoly1,90.000000*%
%ADD19RoundRect,0.050000X-0.400000X0.500000X-0.400000X-0.500000X0.400000X-0.500000X0.400000X0.500000X0*%
%ADD20C,1.000000*%
%ADD21RoundRect,0.050000X-0.750000X0.350000X-0.750000X-0.350000X0.750000X-0.350000X0.750000X0.350000X0*%
%ADD22O,1.800000X1.800000*%
%ADD23C,1.800000*%
%ADD24RoundRect,0.050000X-0.600000X0.300000X-0.600000X-0.300000X0.600000X-0.300000X0.600000X0.300000X0*%
%ADD25RoundRect,0.050000X-0.538320X-0.522217X0.350599X-0.663009X0.538320X0.522217X-0.350599X0.663009X0*%
%ADD26RoundRect,0.050000X-0.673347X-0.330308X0.128559X-0.738900X0.673347X0.330308X-0.128559X0.738900X0*%
%ADD27O,1.600000X2.400000*%
%ADD28O,1.700000X1.200000*%
%ADD29FreePoly2,0.000000*%
%ADD30RoundRect,0.050000X0.500000X-0.775000X0.500000X0.775000X-0.500000X0.775000X-0.500000X-0.775000X0*%
%ADD31FreePoly3,180.000000*%
%ADD32FreePoly3,0.000000*%
%ADD33FreePoly4,0.000000*%
%ADD34C,0.900000*%
%ADD35FreePoly4,180.000000*%
%ADD36C,2.000000*%
%ADD37C,3.100000*%
%ADD38C,3.500000*%
%ADD39FreePoly5,351.000000*%
%ADD40RoundRect,0.050000X-1.487360X-1.080630X1.080630X-1.487360X1.487360X1.080630X-1.080630X1.487360X0*%
%ADD41FreePoly5,0.000000*%
%ADD42RoundRect,0.050000X-1.300000X-1.300000X1.300000X-1.300000X1.300000X1.300000X-1.300000X1.300000X0*%
%ADD43FreePoly5,8.000000*%
%ADD44RoundRect,0.050000X-1.106423X-1.468274X1.468274X-1.106423X1.106423X1.468274X-1.468274X1.106423X0*%
%ADD45FreePoly5,342.000000*%
%ADD46RoundRect,0.050000X-1.638096X-0.834651X0.834651X-1.638096X1.638096X0.834651X-0.834651X1.638096X0*%
%ADD47FreePoly5,333.000000*%
%ADD48RoundRect,0.050000X-1.748496X-0.568121X0.568121X-1.748496X1.748496X0.568121X-0.568121X1.748496X0*%
%ADD49FreePoly5,4.000000*%
%ADD50RoundRect,0.050000X-1.206150X-1.387517X1.387517X-1.206150X1.206150X1.387517X-1.387517X1.206150X0*%
G04 APERTURE END LIST*
D10*
%TO.C,D7*%
X81650675Y-68755138D03*
X84942637Y-68524942D03*
%TD*%
D11*
%TO.C,MH3*%
X156432380Y-106635751D03*
%TD*%
D12*
%TO.C,MH7*%
X165292203Y-96030666D03*
%TD*%
D11*
%TO.C,MH2*%
X128932203Y-52980666D03*
%TD*%
%TO.C,MH4*%
X119792203Y-88680666D03*
%TD*%
D13*
%TO.C,D2*%
X44330038Y-71511862D03*
X47597922Y-71052590D03*
%TD*%
D14*
%TO.C,D16*%
X136642203Y-69030666D03*
X139942203Y-69030666D03*
%TD*%
D13*
%TO.C,D3*%
X65703777Y-94258582D03*
X68971661Y-93799310D03*
%TD*%
D15*
%TO.C,D20*%
X144342418Y-107439064D03*
X147480904Y-108458820D03*
%TD*%
D14*
%TO.C,D18*%
X107842203Y-102180666D03*
X111142203Y-102180666D03*
%TD*%
D11*
%TO.C,MH5*%
X73978140Y-73000689D03*
%TD*%
D10*
%TO.C,D8*%
X80464814Y-51796549D03*
X83756776Y-51566353D03*
%TD*%
D13*
%TO.C,D4*%
X63337835Y-77424025D03*
X66605719Y-76964753D03*
%TD*%
D14*
%TO.C,D13*%
X118642203Y-66480666D03*
X121942203Y-66480666D03*
%TD*%
%TO.C,D11*%
X100642203Y-46080666D03*
X103942203Y-46080666D03*
%TD*%
D16*
%TO.C,JST1*%
X158976203Y-86530666D03*
X158976203Y-84530666D03*
D17*
X161792203Y-84530666D03*
X161792203Y-86530666D03*
D18*
X159992203Y-84530666D03*
X159992203Y-86530666D03*
%TD*%
D10*
%TO.C,D6*%
X82836535Y-85713727D03*
X86128497Y-85483531D03*
%TD*%
D19*
%TO.C,PWR1*%
X165107203Y-85880666D03*
X165107203Y-93180666D03*
D20*
X166217203Y-88030666D03*
X166217203Y-91030666D03*
D19*
X167317203Y-85880666D03*
X167317203Y-93180666D03*
D21*
X164457203Y-87280666D03*
X164457203Y-90280666D03*
X164457203Y-91780666D03*
%TD*%
D22*
%TO.C,DISP1*%
X153012203Y-80230666D03*
X155552203Y-80230666D03*
X158092203Y-80230666D03*
X160632203Y-80230666D03*
D23*
X163172203Y-80230666D03*
D24*
X163172203Y-78480666D03*
X160632203Y-78480666D03*
X155552203Y-78480666D03*
X153012203Y-78480666D03*
X163172203Y-77580666D03*
X160632203Y-77580666D03*
X155552203Y-77580666D03*
X153012203Y-77580666D03*
%TD*%
D14*
%TO.C,D9*%
X100642203Y-80080666D03*
X103942203Y-80080666D03*
%TD*%
D12*
%TO.C,MH6*%
X151292203Y-89530666D03*
%TD*%
D25*
%TO.C,D19*%
X126299233Y-103373550D03*
X129558605Y-103889784D03*
%TD*%
D26*
%TO.C,D21*%
X161527475Y-114277100D03*
X164467797Y-115775268D03*
%TD*%
D14*
%TO.C,D12*%
X118642203Y-83480666D03*
X121942203Y-83480666D03*
%TD*%
D27*
%TO.C,RE1*%
X103892203Y-97180666D03*
X115092203Y-97180666D03*
D28*
X106992203Y-104680666D03*
X111992203Y-104680666D03*
X109492203Y-104680666D03*
D29*
X111992203Y-89730666D03*
X106992203Y-89730666D03*
%TD*%
D14*
%TO.C,D10*%
X100642203Y-63080666D03*
X103942203Y-63080666D03*
%TD*%
%TO.C,D17*%
X136642203Y-52030666D03*
X139942203Y-52030666D03*
%TD*%
D30*
%TO.C,RST1*%
X167442203Y-78605666D03*
X165742203Y-78605666D03*
X167442203Y-83855666D03*
X165742203Y-83855666D03*
%TD*%
D11*
%TO.C,MH1*%
X92292203Y-49080666D03*
%TD*%
D31*
%TO.C,MCU1*%
X163592203Y-47530666D03*
D23*
X165712203Y-47530666D03*
D31*
X163592203Y-50070666D03*
D23*
X165712203Y-50070666D03*
D31*
X163592203Y-52610666D03*
D23*
X165712203Y-52610666D03*
D31*
X163592203Y-55150666D03*
D23*
X165712203Y-55150666D03*
D31*
X163592203Y-57690666D03*
D23*
X165712203Y-57690666D03*
D31*
X163592203Y-60230666D03*
D23*
X165712203Y-60230666D03*
D31*
X163592203Y-62770666D03*
D23*
X165712203Y-62770666D03*
D31*
X163592203Y-65310666D03*
D23*
X165712203Y-65310666D03*
D31*
X163592203Y-67850666D03*
D23*
X165712203Y-67850666D03*
D31*
X163592203Y-70390666D03*
D23*
X165712203Y-70390666D03*
D31*
X163592203Y-72930666D03*
D23*
X165712203Y-72930666D03*
D31*
X163592203Y-75470666D03*
D23*
X165712203Y-75470666D03*
X150472203Y-75470666D03*
D32*
X152592203Y-75470666D03*
D23*
X150472203Y-72930666D03*
D32*
X152592203Y-72930666D03*
D23*
X150472203Y-70390666D03*
D32*
X152592203Y-70390666D03*
D23*
X150472203Y-67850666D03*
D32*
X152592203Y-67850666D03*
D23*
X150472203Y-65310666D03*
D32*
X152592203Y-65310666D03*
D23*
X150472203Y-62770666D03*
D32*
X152592203Y-62770666D03*
D23*
X150472203Y-60230666D03*
D32*
X152592203Y-60230666D03*
D23*
X150472203Y-57690666D03*
D32*
X152592203Y-57690666D03*
D23*
X150472203Y-55150666D03*
D32*
X152592203Y-55150666D03*
D23*
X150472203Y-52610666D03*
D32*
X152592203Y-52610666D03*
D23*
X150472203Y-50070666D03*
D32*
X152592203Y-50070666D03*
D23*
X150472203Y-47530666D03*
D32*
X152592203Y-47530666D03*
D33*
X153317203Y-47530666D03*
D34*
X161492203Y-47530666D03*
D33*
X153317203Y-50070666D03*
D34*
X161492203Y-50070666D03*
D33*
X153317203Y-52610666D03*
D34*
X161492203Y-52610666D03*
D33*
X153317203Y-55150666D03*
D34*
X161492203Y-55150666D03*
D33*
X153317203Y-57690666D03*
D34*
X161492203Y-57690666D03*
D33*
X153317203Y-60230666D03*
D34*
X161492203Y-60230666D03*
D33*
X153317203Y-62770666D03*
D34*
X161492203Y-62770666D03*
D33*
X153317203Y-65310666D03*
D34*
X161492203Y-65310666D03*
D33*
X153317203Y-67850666D03*
D34*
X161492203Y-67850666D03*
D33*
X153317203Y-70390666D03*
D34*
X161492203Y-70390666D03*
D33*
X153317203Y-72930666D03*
D34*
X161492203Y-72930666D03*
D33*
X153317203Y-75470666D03*
D34*
X161492203Y-75470666D03*
X154692203Y-75470666D03*
D35*
X162867203Y-75470666D03*
D34*
X154692203Y-72930666D03*
D35*
X162867203Y-72930666D03*
D34*
X154692203Y-70390666D03*
D35*
X162867203Y-70390666D03*
D34*
X154692203Y-67850666D03*
D35*
X162867203Y-67850666D03*
D34*
X154692203Y-65310666D03*
D35*
X162867203Y-65310666D03*
D34*
X154692203Y-62770666D03*
D35*
X162867203Y-62770666D03*
D34*
X154692203Y-60230666D03*
D35*
X162867203Y-60230666D03*
D34*
X154692203Y-57690666D03*
D35*
X162867203Y-57690666D03*
D34*
X154692203Y-55150666D03*
D35*
X162867203Y-55150666D03*
D34*
X154692203Y-52610666D03*
D35*
X162867203Y-52610666D03*
D34*
X154692203Y-50070666D03*
D35*
X162867203Y-50070666D03*
D34*
X154692203Y-47530666D03*
D35*
X162867203Y-47530666D03*
%TD*%
D13*
%TO.C,D1*%
X46695981Y-88346419D03*
X49963865Y-87887147D03*
%TD*%
D14*
%TO.C,D14*%
X118642203Y-49480666D03*
X121942203Y-49480666D03*
%TD*%
D13*
%TO.C,D5*%
X60971892Y-60589467D03*
X64239776Y-60130195D03*
%TD*%
D14*
%TO.C,D15*%
X136642203Y-86030666D03*
X139942203Y-86030666D03*
%TD*%
D36*
%TO.C,S19*%
X123278805Y-97832836D03*
D37*
X124359279Y-94207222D03*
X129641876Y-92816480D03*
D38*
X128711091Y-98693226D03*
D37*
X134236162Y-95771567D03*
D36*
X134143377Y-99553616D03*
D39*
X126407197Y-92304158D03*
D40*
X137470841Y-96283890D03*
%TD*%
D36*
%TO.C,S16*%
X132792203Y-64030666D03*
D37*
X133292203Y-60280666D03*
X138292203Y-58080666D03*
D38*
X138292203Y-64030666D03*
D37*
X143292203Y-60280666D03*
D36*
X143792203Y-64030666D03*
D41*
X135017203Y-58080666D03*
D42*
X146567203Y-60280666D03*
%TD*%
D36*
%TO.C,S4*%
X58829437Y-73008500D03*
D37*
X58802673Y-69225408D03*
X63447831Y-66350953D03*
D38*
X64275911Y-72243048D03*
D37*
X68705352Y-67833677D03*
D36*
X69722385Y-71477596D03*
D43*
X60204703Y-66806745D03*
D44*
X71948480Y-67377885D03*
%TD*%
D36*
%TO.C,S12*%
X114792203Y-78480666D03*
D37*
X115292203Y-74730666D03*
X120292203Y-72530666D03*
D38*
X120292203Y-78480666D03*
D37*
X125292203Y-74730666D03*
D36*
X125792203Y-78480666D03*
D41*
X117017203Y-72530666D03*
D42*
X128567203Y-74730666D03*
%TD*%
D36*
%TO.C,S2*%
X39821641Y-67096338D03*
D37*
X39794877Y-63313246D03*
X44440035Y-60438791D03*
D38*
X45268115Y-66330886D03*
D37*
X49697556Y-61921515D03*
D36*
X50714589Y-65565434D03*
D43*
X41196907Y-60894583D03*
D44*
X52940684Y-61465723D03*
%TD*%
D36*
%TO.C,S14*%
X114792203Y-44480666D03*
D37*
X115292203Y-40730666D03*
X120292203Y-38530666D03*
D38*
X120292203Y-44480666D03*
D37*
X125292203Y-40730666D03*
D36*
X125792203Y-44480666D03*
D41*
X117017203Y-38530666D03*
D42*
X128567203Y-40730666D03*
%TD*%
D36*
%TO.C,S20*%
X142225935Y-101494066D03*
D37*
X143860277Y-98082112D03*
X149295397Y-97534873D03*
D38*
X147456746Y-103193659D03*
D37*
X153370842Y-101172282D03*
D36*
X152687557Y-104893252D03*
D45*
X146180687Y-96522842D03*
D46*
X156485552Y-102184313D03*
%TD*%
D36*
%TO.C,S3*%
X61195380Y-89843058D03*
D37*
X61168616Y-86059966D03*
X65813774Y-83185511D03*
D38*
X66641854Y-89077606D03*
D37*
X71071295Y-84668235D03*
D36*
X72088328Y-88312154D03*
D43*
X62570646Y-83641303D03*
D44*
X74314423Y-84212443D03*
%TD*%
D36*
%TO.C,S21*%
X160367053Y-108074204D03*
D37*
X162515021Y-104959925D03*
X167968832Y-105269663D03*
D38*
X165267589Y-110571152D03*
D37*
X171425086Y-109499830D03*
D36*
X170168125Y-113068100D03*
D47*
X165050786Y-103782844D03*
D48*
X174343132Y-110986649D03*
%TD*%
D36*
%TO.C,S6*%
X78647131Y-80994469D03*
D37*
X78884326Y-77218725D03*
X83718682Y-74675302D03*
D38*
X84133733Y-80610808D03*
D37*
X88859966Y-76521160D03*
D36*
X89620335Y-80227147D03*
D49*
X80451660Y-74903754D03*
D50*
X92126989Y-76292708D03*
%TD*%
D36*
%TO.C,S5*%
X56463495Y-56173943D03*
D37*
X56436731Y-52390851D03*
X61081889Y-49516396D03*
D38*
X61909969Y-55408491D03*
D37*
X66339410Y-50999120D03*
D36*
X67356443Y-54643039D03*
D43*
X57838761Y-49972188D03*
D44*
X69582538Y-50543328D03*
%TD*%
D36*
%TO.C,S10*%
X96792203Y-58080666D03*
D37*
X97292203Y-54330666D03*
X102292203Y-52130666D03*
D38*
X102292203Y-58080666D03*
D37*
X107292203Y-54330666D03*
D36*
X107792203Y-58080666D03*
D41*
X99017203Y-52130666D03*
D42*
X110567203Y-54330666D03*
%TD*%
D36*
%TO.C,S15*%
X132792203Y-81030666D03*
D37*
X133292203Y-77280666D03*
X138292203Y-75080666D03*
D38*
X138292203Y-81030666D03*
D37*
X143292203Y-77280666D03*
D36*
X143792203Y-81030666D03*
D41*
X135017203Y-75080666D03*
D42*
X146567203Y-77280666D03*
%TD*%
D36*
%TO.C,S17*%
X132792203Y-47030666D03*
D37*
X133292203Y-43280666D03*
X138292203Y-41080666D03*
D38*
X138292203Y-47030666D03*
D37*
X143292203Y-43280666D03*
D36*
X143792203Y-47030666D03*
D41*
X135017203Y-41080666D03*
D42*
X146567203Y-43280666D03*
%TD*%
D36*
%TO.C,S13*%
X114792203Y-61480666D03*
D37*
X115292203Y-57730666D03*
X120292203Y-55530666D03*
D38*
X120292203Y-61480666D03*
D37*
X125292203Y-57730666D03*
D36*
X125792203Y-61480666D03*
D41*
X117017203Y-55530666D03*
D42*
X128567203Y-57730666D03*
%TD*%
D36*
%TO.C,S8*%
X76275411Y-47077291D03*
D37*
X76512606Y-43301547D03*
X81346962Y-40758124D03*
D38*
X81762013Y-46693630D03*
D37*
X86488246Y-42603982D03*
D36*
X87248615Y-46309969D03*
D49*
X78079940Y-40986576D03*
D50*
X89755269Y-42375530D03*
%TD*%
D36*
%TO.C,S18*%
X103992203Y-97180666D03*
D37*
X104492203Y-93430666D03*
X109492203Y-91230666D03*
D38*
X109492203Y-97180666D03*
D37*
X114492203Y-93430666D03*
D36*
X114992203Y-97180666D03*
D41*
X106217203Y-91230666D03*
D42*
X117767203Y-93430666D03*
%TD*%
D36*
%TO.C,S7*%
X77461271Y-64035880D03*
D37*
X77698466Y-60260136D03*
X82532822Y-57716713D03*
D38*
X82947873Y-63652219D03*
D37*
X87674106Y-59562571D03*
D36*
X88434475Y-63268558D03*
D49*
X79265800Y-57945165D03*
D50*
X90941129Y-59334119D03*
%TD*%
D36*
%TO.C,S9*%
X96792203Y-75080666D03*
D37*
X97292203Y-71330666D03*
X102292203Y-69130666D03*
D38*
X102292203Y-75080666D03*
D37*
X107292203Y-71330666D03*
D36*
X107792203Y-75080666D03*
D41*
X99017203Y-69130666D03*
D42*
X110567203Y-71330666D03*
%TD*%
D36*
%TO.C,S11*%
X96792203Y-41080666D03*
D37*
X97292203Y-37330666D03*
X102292203Y-35130666D03*
D38*
X102292203Y-41080666D03*
D37*
X107292203Y-37330666D03*
D36*
X107792203Y-41080666D03*
D41*
X99017203Y-35130666D03*
D42*
X110567203Y-37330666D03*
%TD*%
D36*
%TO.C,S1*%
X42187583Y-83930895D03*
D37*
X42160819Y-80147803D03*
X46805977Y-77273348D03*
D38*
X47634057Y-83165443D03*
D37*
X52063498Y-78756072D03*
D36*
X53080531Y-82399991D03*
D43*
X43562849Y-77729140D03*
D44*
X55306626Y-78300280D03*
%TD*%
M02*
