%TF.GenerationSoftware,KiCad,Pcbnew,9.0.5*%
%TF.CreationDate,2025-10-26T15:06:24-07:00*%
%TF.ProjectId,temporal,74656d70-6f72-4616-9c2e-6b696361645f,1*%
%TF.SameCoordinates,Original*%
%TF.FileFunction,Profile,NP*%
%FSLAX46Y46*%
G04 Gerber Fmt 4.6, Leading zero omitted, Abs format (unit mm)*
G04 Created by KiCad (PCBNEW 9.0.5) date 2025-10-26 15:06:24*
%MOMM*%
%LPD*%
G01*
G04 APERTURE LIST*
%TA.AperFunction,Profile*%
%ADD10C,0.200000*%
%TD*%
G04 APERTURE END LIST*
D10*
X54608094Y-76025358D02*
G75*
G02*
X54156359Y-75684914I-55594J396158D01*
G01*
X54806273Y-75997505D02*
X54608219Y-76025340D01*
X55146711Y-75545729D02*
G75*
G02*
X54806274Y-75997511I-396111J-55671D01*
G01*
X54659605Y-72079791D02*
X55146711Y-75545729D01*
X54207954Y-71739335D02*
G75*
G02*
X54659641Y-72079786I55546J-396165D01*
G01*
X54009775Y-71767187D02*
X54207829Y-71739353D01*
X53669337Y-72218964D02*
G75*
G02*
X54009781Y-71767231I396063J55664D01*
G01*
X54156443Y-75684902D02*
X53669356Y-72219104D01*
X53425123Y-67608079D02*
G75*
G02*
X52973534Y-67267615I-55523J396079D01*
G01*
X53623302Y-67580227D02*
X53425248Y-67608061D01*
X53963739Y-67128450D02*
G75*
G02*
X53623302Y-67580232I-396139J-55650D01*
G01*
X53476634Y-63662512D02*
X53963739Y-67128450D01*
X53024982Y-63322056D02*
G75*
G02*
X53476620Y-63662514I55518J-396144D01*
G01*
X52826803Y-63349909D02*
X53024857Y-63322074D01*
X52486365Y-63801685D02*
G75*
G02*
X52826797Y-63349868I396135J55685D01*
G01*
X52973471Y-67267624D02*
X52486385Y-63801825D01*
X55791065Y-84442636D02*
G75*
G02*
X55339381Y-84102186I-55565J396136D01*
G01*
X55989244Y-84414784D02*
X55791191Y-84442619D01*
X56329682Y-83963008D02*
G75*
G02*
X55989245Y-84414789I-396082J-55692D01*
G01*
X55842576Y-80497069D02*
X56329682Y-83963008D01*
X55390925Y-80156614D02*
G75*
G02*
X55842578Y-80497069I55575J-396086D01*
G01*
X55192746Y-80184466D02*
X55390800Y-80156631D01*
X54852308Y-80636242D02*
G75*
G02*
X55192752Y-80184509I396092J55642D01*
G01*
X55339414Y-84102181D02*
X54852328Y-80636382D01*
X40057707Y-93924574D02*
G75*
G02*
X38815321Y-92988370I-153107J1089274D01*
G01*
X34083436Y-59319255D02*
X38815321Y-92988370D01*
X34083436Y-59319255D02*
G75*
G02*
X35019649Y-58076935I1089264J153055D01*
G01*
X50222264Y-55940281D02*
X35019780Y-58076851D01*
X50222264Y-55940281D02*
G75*
G02*
X51365602Y-56550469I153136J-1089319D01*
G01*
X51365547Y-56550495D02*
G75*
G02*
X51554743Y-57172840I-1890347J-914605D01*
G01*
X51790500Y-58850345D02*
X51554742Y-57172840D01*
X52242151Y-59190801D02*
G75*
G02*
X51790512Y-58850343I-55551J396101D01*
G01*
X52440330Y-59162948D02*
X52242276Y-59190783D01*
X52780786Y-58711297D02*
G75*
G02*
X52440319Y-59162870I-396086J-55503D01*
G01*
X52454487Y-56389558D02*
X52780768Y-58711172D01*
X51919527Y-55313538D02*
G75*
G02*
X52454500Y-56389556I-1346527J-1340462D01*
G01*
X51919423Y-55313433D02*
G75*
G02*
X51609818Y-54690578I779677J775933D01*
G01*
X50725290Y-48396861D02*
X51609814Y-54690579D01*
X50725290Y-48396861D02*
G75*
G02*
X51661497Y-47154496I1089310J153061D01*
G01*
X51661494Y-47154476D02*
X70643762Y-44486692D01*
X71416314Y-43532670D02*
G75*
G02*
X70643770Y-44486749I-897814J-62830D01*
G01*
X71093686Y-38918876D02*
X71416304Y-43532529D01*
X71093676Y-38918728D02*
G75*
G02*
X72114124Y-37744793I1097324J76628D01*
G01*
X72114275Y-37744824D02*
X91354843Y-36399392D01*
X92192203Y-35501575D02*
G75*
G02*
X91354986Y-36399410I-900003J-25D01*
G01*
X92192203Y-35501575D02*
X92192203Y-32580666D01*
X92192203Y-32580666D02*
G75*
G02*
X93292203Y-31480703I1099997J-34D01*
G01*
X111292203Y-31480666D02*
X93292203Y-31480666D01*
X111292203Y-31480666D02*
G75*
G02*
X112392234Y-32580666I-3J-1100034D01*
G01*
X112392203Y-33980666D02*
X112392203Y-32580666D01*
X113292203Y-34880666D02*
G75*
G02*
X112392234Y-33980666I-3J899966D01*
G01*
X129292203Y-34880666D02*
X113292203Y-34880666D01*
X129292203Y-34880666D02*
G75*
G02*
X130392234Y-35980666I-3J-1100034D01*
G01*
X130392203Y-36530666D02*
X130392203Y-35980666D01*
X131292203Y-37430666D02*
G75*
G02*
X130392234Y-36530666I-3J899966D01*
G01*
X147292203Y-37430666D02*
X131292203Y-37430666D01*
X147292203Y-37430666D02*
G75*
G02*
X148392234Y-38530666I-3J-1100034D01*
G01*
X148392203Y-42030666D02*
X148392203Y-38530666D01*
X149292203Y-42930666D02*
G75*
G02*
X148392234Y-42030666I-3J899966D01*
G01*
X167792203Y-42930666D02*
X149292203Y-42930666D01*
X167792203Y-42930666D02*
G75*
G02*
X168892234Y-44030666I-3J-1100034D01*
G01*
X168892203Y-101092132D02*
X168892203Y-44030666D01*
X169383612Y-101894038D02*
G75*
G02*
X168892173Y-101092132I408588J801938D01*
G01*
X177644956Y-106103403D02*
X169383612Y-101894038D01*
X177644956Y-106103403D02*
G75*
G02*
X178125674Y-107582900I-499356J-980097D01*
G01*
X170404612Y-122736337D02*
X178125674Y-107582900D01*
X170404612Y-122736337D02*
G75*
G02*
X168932118Y-123220575I-980112J499437D01*
G01*
X168932111Y-123220588D02*
X152169931Y-114829723D01*
X152045179Y-114778569D02*
G75*
G02*
X152169934Y-114829717I-277979J-855731D01*
G01*
X136080374Y-109591289D02*
X152045179Y-114778569D01*
X135943049Y-109558320D02*
G75*
G02*
X136080372Y-109591295I-140849J-888980D01*
G01*
X118475591Y-106791747D02*
X135943049Y-109558321D01*
X118334800Y-106780666D02*
G75*
G02*
X118475591Y-106791745I0J-900134D01*
G01*
X100492203Y-106780666D02*
X118334800Y-106780666D01*
X100492203Y-106780666D02*
G75*
G02*
X99392234Y-105680666I-3J1099966D01*
G01*
X99392203Y-90132406D02*
X99392203Y-105680666D01*
X98429422Y-89234599D02*
G75*
G02*
X99392193Y-90132406I62778J-897801D01*
G01*
X78035979Y-90660647D02*
X98429281Y-89234608D01*
X77207378Y-91683720D02*
G75*
G02*
X78035842Y-90660715I891222J125220D01*
G01*
X77826533Y-96089236D02*
X77207378Y-91683720D01*
X77826533Y-96089236D02*
G75*
G02*
X76890328Y-97331624I-1089333J-153064D01*
G01*
X59065503Y-99836737D02*
X76890328Y-97331621D01*
X59065503Y-99836737D02*
G75*
G02*
X57823068Y-98900540I-153103J1089337D01*
G01*
X56938593Y-92606814D02*
X57823118Y-98900533D01*
X56938573Y-92606667D02*
G75*
G02*
X57064513Y-91922741I1089327J152967D01*
G01*
X57282243Y-90740828D02*
G75*
G02*
X57064625Y-91922634I-1881543J-264472D01*
G01*
X57025548Y-88914348D02*
X57282243Y-90740828D01*
X56573896Y-88573892D02*
G75*
G02*
X57025488Y-88914356I55504J-396108D01*
G01*
X56375718Y-88601745D02*
X56573771Y-88573910D01*
X56035279Y-89053521D02*
G75*
G02*
X56375723Y-88601787I396121J55621D01*
G01*
X56201451Y-90235892D02*
X56035280Y-89053521D01*
X56201451Y-90235892D02*
G75*
G02*
X56191140Y-90886280I-2079551J-292308D01*
G01*
X56191101Y-90886424D02*
G75*
G02*
X55260336Y-91788026I-1083901J187724D01*
G01*
X40057707Y-93924574D02*
X55260330Y-91787985D01*
M02*
