%TF.GenerationSoftware,KiCad,Pcbnew,9.0.5*%
%TF.CreationDate,2025-10-26T22:50:59-07:00*%
%TF.ProjectId,temporal,74656d70-6f72-4616-9c2e-6b696361645f,1*%
%TF.SameCoordinates,Original*%
%TF.FileFunction,Legend,Bot*%
%TF.FilePolarity,Positive*%
%FSLAX46Y46*%
G04 Gerber Fmt 4.6, Leading zero omitted, Abs format (unit mm)*
G04 Created by KiCad (PCBNEW 9.0.5) date 2025-10-26 22:50:59*
%MOMM*%
%LPD*%
G01*
G04 APERTURE LIST*
%ADD10C,0.150000*%
%ADD11C,0.100000*%
%ADD12C,0.120000*%
G04 APERTURE END LIST*
D10*
G36*
X101485871Y-85204981D02*
G01*
X101653051Y-85372161D01*
X101741012Y-85724004D01*
X101741012Y-86372203D01*
X101653051Y-86724045D01*
X101485870Y-86891227D01*
X101322117Y-86973104D01*
X100976574Y-86973104D01*
X100812820Y-86891227D01*
X100645639Y-86724045D01*
X100557679Y-86372203D01*
X100557679Y-85724004D01*
X100645639Y-85372161D01*
X100812820Y-85204981D01*
X100976574Y-85123104D01*
X101322117Y-85123104D01*
X101485871Y-85204981D01*
G37*
G36*
X99550536Y-86020723D02*
G01*
X98881336Y-86020723D01*
X98717582Y-85938846D01*
X98639556Y-85860819D01*
X98557679Y-85697065D01*
X98557679Y-85446761D01*
X98639556Y-85283007D01*
X98717582Y-85204981D01*
X98881336Y-85123104D01*
X99550536Y-85123104D01*
X99550536Y-86020723D01*
G37*
G36*
X97616717Y-86401675D02*
G01*
X96872450Y-86401675D01*
X97244583Y-85285274D01*
X97616717Y-86401675D01*
G37*
G36*
X103645774Y-86020723D02*
G01*
X102976574Y-86020723D01*
X102812820Y-85938846D01*
X102734794Y-85860819D01*
X102652917Y-85697065D01*
X102652917Y-85446761D01*
X102734794Y-85283007D01*
X102812820Y-85204981D01*
X102976574Y-85123104D01*
X103645774Y-85123104D01*
X103645774Y-86020723D01*
G37*
G36*
X109921317Y-87345326D02*
G01*
X94663088Y-87345326D01*
X94663088Y-87033472D01*
X94885310Y-87033472D01*
X94885310Y-87062736D01*
X94896509Y-87089772D01*
X94917201Y-87110464D01*
X94944237Y-87121663D01*
X94958869Y-87123104D01*
X95911250Y-87123104D01*
X95925882Y-87121663D01*
X95952918Y-87110464D01*
X95973610Y-87089772D01*
X95984809Y-87062736D01*
X95986250Y-87048104D01*
X95986250Y-87038724D01*
X96503506Y-87038724D01*
X96505581Y-87067914D01*
X96518667Y-87094087D01*
X96540774Y-87113261D01*
X96568537Y-87122515D01*
X96597727Y-87120440D01*
X96623900Y-87107354D01*
X96643074Y-87085247D01*
X96649068Y-87071821D01*
X96822450Y-86551675D01*
X97666717Y-86551675D01*
X97840099Y-87071821D01*
X97846093Y-87085247D01*
X97865267Y-87107354D01*
X97891440Y-87120441D01*
X97920630Y-87122515D01*
X97948393Y-87113261D01*
X97970500Y-87094087D01*
X97983586Y-87067914D01*
X97985661Y-87038724D01*
X97982401Y-87024387D01*
X97450625Y-85429056D01*
X98407679Y-85429056D01*
X98407679Y-85714770D01*
X98409120Y-85729402D01*
X98410151Y-85731891D01*
X98410342Y-85734579D01*
X98415597Y-85748311D01*
X98510835Y-85938787D01*
X98514797Y-85945081D01*
X98515556Y-85946913D01*
X98517249Y-85948975D01*
X98518668Y-85951230D01*
X98520163Y-85952526D01*
X98524884Y-85958279D01*
X98620122Y-86053518D01*
X98625872Y-86058238D01*
X98627171Y-86059735D01*
X98629425Y-86061154D01*
X98631487Y-86062846D01*
X98633319Y-86063604D01*
X98639614Y-86067567D01*
X98830090Y-86162805D01*
X98843822Y-86168060D01*
X98846509Y-86168250D01*
X98848999Y-86169282D01*
X98863631Y-86170723D01*
X99005297Y-86170723D01*
X98421237Y-87005094D01*
X98414026Y-87017908D01*
X98407697Y-87046479D01*
X98412782Y-87075296D01*
X98428509Y-87099975D01*
X98452483Y-87116757D01*
X98481054Y-87123086D01*
X98509871Y-87118001D01*
X98534550Y-87102274D01*
X98544121Y-87091114D01*
X99188395Y-86170723D01*
X99550536Y-86170723D01*
X99550536Y-87048104D01*
X99551977Y-87062736D01*
X99563176Y-87089772D01*
X99583868Y-87110464D01*
X99610904Y-87121663D01*
X99640168Y-87121663D01*
X99667204Y-87110464D01*
X99687896Y-87089772D01*
X99699095Y-87062736D01*
X99700536Y-87048104D01*
X99700536Y-85714770D01*
X100407679Y-85714770D01*
X100407679Y-86381437D01*
X100407930Y-86383990D01*
X100407768Y-86385083D01*
X100408577Y-86390556D01*
X100409120Y-86396069D01*
X100409542Y-86397090D01*
X100409918Y-86399627D01*
X100505156Y-86780579D01*
X100510103Y-86794424D01*
X100513420Y-86798901D01*
X100515556Y-86804057D01*
X100524884Y-86815422D01*
X100715360Y-87005899D01*
X100721109Y-87010617D01*
X100722409Y-87012116D01*
X100724668Y-87013537D01*
X100726725Y-87015226D01*
X100728552Y-87015983D01*
X100734852Y-87019948D01*
X100925328Y-87115186D01*
X100939060Y-87120441D01*
X100941747Y-87120631D01*
X100944237Y-87121663D01*
X100958869Y-87123104D01*
X101339822Y-87123104D01*
X101354454Y-87121663D01*
X101356943Y-87120631D01*
X101359631Y-87120441D01*
X101373363Y-87115186D01*
X101563839Y-87019948D01*
X101570135Y-87015984D01*
X101571966Y-87015226D01*
X101574027Y-87013534D01*
X101576282Y-87012115D01*
X101577579Y-87010619D01*
X101583331Y-87005899D01*
X101773807Y-86815422D01*
X101783134Y-86804057D01*
X101785267Y-86798905D01*
X101788588Y-86794425D01*
X101793535Y-86780579D01*
X101888773Y-86399627D01*
X101889148Y-86397090D01*
X101889571Y-86396069D01*
X101890113Y-86390556D01*
X101890923Y-86385083D01*
X101890760Y-86383990D01*
X101891012Y-86381437D01*
X101891012Y-85714770D01*
X101890760Y-85712216D01*
X101890923Y-85711124D01*
X101890113Y-85705650D01*
X101889571Y-85700138D01*
X101889148Y-85699116D01*
X101888773Y-85696580D01*
X101821892Y-85429056D01*
X102502917Y-85429056D01*
X102502917Y-85714770D01*
X102504358Y-85729402D01*
X102505389Y-85731891D01*
X102505580Y-85734579D01*
X102510835Y-85748311D01*
X102606073Y-85938787D01*
X102610035Y-85945081D01*
X102610794Y-85946913D01*
X102612487Y-85948975D01*
X102613906Y-85951230D01*
X102615401Y-85952526D01*
X102620122Y-85958279D01*
X102715360Y-86053518D01*
X102721110Y-86058238D01*
X102722409Y-86059735D01*
X102724663Y-86061154D01*
X102726725Y-86062846D01*
X102728557Y-86063604D01*
X102734852Y-86067567D01*
X102925328Y-86162805D01*
X102939060Y-86168060D01*
X102941747Y-86168250D01*
X102944237Y-86169282D01*
X102958869Y-86170723D01*
X103645774Y-86170723D01*
X103645774Y-87048104D01*
X103647215Y-87062736D01*
X103658414Y-87089772D01*
X103679106Y-87110464D01*
X103706142Y-87121663D01*
X103735406Y-87121663D01*
X103762442Y-87110464D01*
X103783134Y-87089772D01*
X103794333Y-87062736D01*
X103795774Y-87048104D01*
X103795774Y-85048104D01*
X104598155Y-85048104D01*
X104598155Y-87048104D01*
X104599596Y-87062736D01*
X104610795Y-87089772D01*
X104631487Y-87110464D01*
X104658523Y-87121663D01*
X104687787Y-87121663D01*
X104714823Y-87110464D01*
X104735515Y-87089772D01*
X104746714Y-87062736D01*
X104748155Y-87048104D01*
X104748155Y-85386171D01*
X105271857Y-86508391D01*
X105275030Y-86513748D01*
X105275691Y-86515564D01*
X105276867Y-86516848D01*
X105279351Y-86521041D01*
X105287756Y-86528739D01*
X105295455Y-86537145D01*
X105298474Y-86538553D01*
X105300932Y-86540805D01*
X105311641Y-86544699D01*
X105321973Y-86549521D01*
X105325304Y-86549667D01*
X105328433Y-86550805D01*
X105339816Y-86550304D01*
X105351209Y-86550805D01*
X105354340Y-86549666D01*
X105357669Y-86549520D01*
X105367995Y-86544701D01*
X105378710Y-86540805D01*
X105381168Y-86538553D01*
X105384187Y-86537145D01*
X105391885Y-86528739D01*
X105400291Y-86521041D01*
X105402774Y-86516848D01*
X105403951Y-86515564D01*
X105404611Y-86513748D01*
X105407785Y-86508391D01*
X105931488Y-85386171D01*
X105931488Y-87048104D01*
X105932929Y-87062736D01*
X105944128Y-87089772D01*
X105964820Y-87110464D01*
X105991856Y-87121663D01*
X106021120Y-87121663D01*
X106048156Y-87110464D01*
X106068848Y-87089772D01*
X106080047Y-87062736D01*
X106081488Y-87048104D01*
X106081488Y-85048104D01*
X106080540Y-85038482D01*
X106080618Y-85036716D01*
X106080273Y-85035767D01*
X106080047Y-85033472D01*
X106790072Y-85033472D01*
X106790072Y-85062736D01*
X106801271Y-85089772D01*
X106821963Y-85110464D01*
X106848999Y-85121663D01*
X106863631Y-85123104D01*
X107741012Y-85123104D01*
X107741012Y-85925485D01*
X107149345Y-85925485D01*
X107134713Y-85926926D01*
X107107677Y-85938125D01*
X107086985Y-85958817D01*
X107075786Y-85985853D01*
X107075786Y-86015117D01*
X107086985Y-86042153D01*
X107107677Y-86062845D01*
X107134713Y-86074044D01*
X107149345Y-86075485D01*
X107741012Y-86075485D01*
X107741012Y-86973104D01*
X106863631Y-86973104D01*
X106848999Y-86974545D01*
X106821963Y-86985744D01*
X106801271Y-87006436D01*
X106790072Y-87033472D01*
X106790072Y-87062736D01*
X106801271Y-87089772D01*
X106821963Y-87110464D01*
X106848999Y-87121663D01*
X106863631Y-87123104D01*
X107816012Y-87123104D01*
X107830644Y-87121663D01*
X107857680Y-87110464D01*
X107878372Y-87089772D01*
X107889571Y-87062736D01*
X107891012Y-87048104D01*
X107891012Y-85048104D01*
X107889571Y-85033472D01*
X108409120Y-85033472D01*
X108409120Y-85062736D01*
X108420319Y-85089772D01*
X108441011Y-85110464D01*
X108468047Y-85121663D01*
X108482679Y-85123104D01*
X108979108Y-85123104D01*
X108979108Y-87048104D01*
X108980549Y-87062736D01*
X108991748Y-87089772D01*
X109012440Y-87110464D01*
X109039476Y-87121663D01*
X109068740Y-87121663D01*
X109095776Y-87110464D01*
X109116468Y-87089772D01*
X109127667Y-87062736D01*
X109129108Y-87048104D01*
X109129108Y-85123104D01*
X109625536Y-85123104D01*
X109640168Y-85121663D01*
X109667204Y-85110464D01*
X109687896Y-85089772D01*
X109699095Y-85062736D01*
X109699095Y-85033472D01*
X109687896Y-85006436D01*
X109667204Y-84985744D01*
X109640168Y-84974545D01*
X109625536Y-84973104D01*
X108482679Y-84973104D01*
X108468047Y-84974545D01*
X108441011Y-84985744D01*
X108420319Y-85006436D01*
X108409120Y-85033472D01*
X107889571Y-85033472D01*
X107878372Y-85006436D01*
X107857680Y-84985744D01*
X107830644Y-84974545D01*
X107816012Y-84973104D01*
X106863631Y-84973104D01*
X106848999Y-84974545D01*
X106821963Y-84985744D01*
X106801271Y-85006436D01*
X106790072Y-85033472D01*
X106080047Y-85033472D01*
X106075065Y-85021445D01*
X106070618Y-85009215D01*
X106069488Y-85007981D01*
X106068848Y-85006436D01*
X106059642Y-84997230D01*
X106050854Y-84987634D01*
X106049338Y-84986926D01*
X106048156Y-84985744D01*
X106036134Y-84980764D01*
X106024336Y-84975258D01*
X106022663Y-84975184D01*
X106021120Y-84974545D01*
X106008114Y-84974545D01*
X105995100Y-84973973D01*
X105993527Y-84974545D01*
X105991856Y-84974545D01*
X105979837Y-84979523D01*
X105967599Y-84983974D01*
X105966365Y-84985104D01*
X105964820Y-84985744D01*
X105955621Y-84994942D01*
X105946018Y-85003737D01*
X105944842Y-85005721D01*
X105944128Y-85006436D01*
X105943451Y-85008069D01*
X105938524Y-85016387D01*
X105339821Y-86299321D01*
X104741119Y-85016388D01*
X104736193Y-85008072D01*
X104735515Y-85006436D01*
X104734799Y-85005720D01*
X104733625Y-85003738D01*
X104724028Y-84994949D01*
X104714823Y-84985744D01*
X104713277Y-84985103D01*
X104712044Y-84983974D01*
X104699813Y-84979526D01*
X104687787Y-84974545D01*
X104686113Y-84974545D01*
X104684543Y-84973974D01*
X104671542Y-84974545D01*
X104658523Y-84974545D01*
X104656978Y-84975184D01*
X104655307Y-84975258D01*
X104643508Y-84980764D01*
X104631487Y-84985744D01*
X104630304Y-84986926D01*
X104628789Y-84987634D01*
X104620000Y-84997230D01*
X104610795Y-85006436D01*
X104610154Y-85007981D01*
X104609025Y-85009215D01*
X104604577Y-85021445D01*
X104599596Y-85033472D01*
X104599369Y-85035767D01*
X104599025Y-85036716D01*
X104599102Y-85038482D01*
X104598155Y-85048104D01*
X103795774Y-85048104D01*
X103794333Y-85033472D01*
X103783134Y-85006436D01*
X103762442Y-84985744D01*
X103735406Y-84974545D01*
X103720774Y-84973104D01*
X102958869Y-84973104D01*
X102944237Y-84974545D01*
X102941747Y-84975576D01*
X102939060Y-84975767D01*
X102925328Y-84981022D01*
X102734852Y-85076260D01*
X102728557Y-85080222D01*
X102726725Y-85080981D01*
X102724663Y-85082672D01*
X102722409Y-85084092D01*
X102721110Y-85085588D01*
X102715360Y-85090309D01*
X102620122Y-85185547D01*
X102615401Y-85191298D01*
X102613906Y-85192596D01*
X102612486Y-85194850D01*
X102610795Y-85196912D01*
X102610036Y-85198742D01*
X102606073Y-85205039D01*
X102510835Y-85395515D01*
X102505580Y-85409247D01*
X102505389Y-85411934D01*
X102504358Y-85414424D01*
X102502917Y-85429056D01*
X101821892Y-85429056D01*
X101793535Y-85315628D01*
X101788588Y-85301782D01*
X101785268Y-85297302D01*
X101783135Y-85292151D01*
X101773807Y-85280785D01*
X101583331Y-85090309D01*
X101577579Y-85085588D01*
X101576282Y-85084093D01*
X101574027Y-85082673D01*
X101571966Y-85080982D01*
X101570135Y-85080223D01*
X101563839Y-85076260D01*
X101373363Y-84981022D01*
X101359631Y-84975767D01*
X101356943Y-84975576D01*
X101354454Y-84974545D01*
X101339822Y-84973104D01*
X100958869Y-84973104D01*
X100944237Y-84974545D01*
X100941747Y-84975576D01*
X100939060Y-84975767D01*
X100925328Y-84981022D01*
X100734852Y-85076260D01*
X100728555Y-85080223D01*
X100726726Y-85080981D01*
X100724667Y-85082670D01*
X100722409Y-85084092D01*
X100721109Y-85085590D01*
X100715360Y-85090309D01*
X100524884Y-85280785D01*
X100515557Y-85292150D01*
X100513422Y-85297302D01*
X100510103Y-85301783D01*
X100505156Y-85315628D01*
X100409918Y-85696580D01*
X100409542Y-85699116D01*
X100409120Y-85700138D01*
X100408577Y-85705650D01*
X100407768Y-85711124D01*
X100407930Y-85712216D01*
X100407679Y-85714770D01*
X99700536Y-85714770D01*
X99700536Y-85048104D01*
X99699095Y-85033472D01*
X99687896Y-85006436D01*
X99667204Y-84985744D01*
X99640168Y-84974545D01*
X99625536Y-84973104D01*
X98863631Y-84973104D01*
X98848999Y-84974545D01*
X98846509Y-84975576D01*
X98843822Y-84975767D01*
X98830090Y-84981022D01*
X98639614Y-85076260D01*
X98633319Y-85080222D01*
X98631487Y-85080981D01*
X98629425Y-85082672D01*
X98627171Y-85084092D01*
X98625872Y-85085588D01*
X98620122Y-85090309D01*
X98524884Y-85185547D01*
X98520163Y-85191298D01*
X98518668Y-85192596D01*
X98517248Y-85194850D01*
X98515557Y-85196912D01*
X98514798Y-85198742D01*
X98510835Y-85205039D01*
X98415597Y-85395515D01*
X98410342Y-85409247D01*
X98410151Y-85411934D01*
X98409120Y-85414424D01*
X98407679Y-85429056D01*
X97450625Y-85429056D01*
X97315735Y-85024387D01*
X97309741Y-85010961D01*
X97306229Y-85006912D01*
X97303834Y-85002121D01*
X97296730Y-84995959D01*
X97290567Y-84988854D01*
X97285773Y-84986457D01*
X97281726Y-84982947D01*
X97272804Y-84979973D01*
X97264394Y-84975768D01*
X97259049Y-84975388D01*
X97253964Y-84973693D01*
X97244584Y-84974359D01*
X97235204Y-84973693D01*
X97230118Y-84975388D01*
X97224774Y-84975768D01*
X97216364Y-84979972D01*
X97207441Y-84982947D01*
X97203392Y-84986458D01*
X97198601Y-84988854D01*
X97192439Y-84995957D01*
X97185334Y-85002121D01*
X97182937Y-85006914D01*
X97179427Y-85010962D01*
X97173433Y-85024387D01*
X96506766Y-87024387D01*
X96503506Y-87038724D01*
X95986250Y-87038724D01*
X95986250Y-85048104D01*
X95984809Y-85033472D01*
X95973610Y-85006436D01*
X95952918Y-84985744D01*
X95925882Y-84974545D01*
X95896618Y-84974545D01*
X95869582Y-84985744D01*
X95848890Y-85006436D01*
X95837691Y-85033472D01*
X95836250Y-85048104D01*
X95836250Y-86973104D01*
X94958869Y-86973104D01*
X94944237Y-86974545D01*
X94917201Y-86985744D01*
X94896509Y-87006436D01*
X94885310Y-87033472D01*
X94663088Y-87033472D01*
X94663088Y-84750882D01*
X109921317Y-84750882D01*
X109921317Y-87345326D01*
G37*
X166669155Y-115162719D02*
X167123146Y-114271713D01*
X166950197Y-114611144D02*
X166886958Y-114525478D01*
X166886958Y-114525478D02*
X166717242Y-114439003D01*
X166717242Y-114439003D02*
X166610766Y-114438195D01*
X166610766Y-114438195D02*
X166546718Y-114459005D01*
X166546718Y-114459005D02*
X166461052Y-114522244D01*
X166461052Y-114522244D02*
X166331341Y-114776818D01*
X166331341Y-114776818D02*
X166330532Y-114883294D01*
X166330532Y-114883294D02*
X166351343Y-114947341D01*
X166351343Y-114947341D02*
X166414582Y-115033008D01*
X166414582Y-115033008D02*
X166584297Y-115119482D01*
X166584297Y-115119482D02*
X166690774Y-115120290D01*
X166250524Y-114201199D02*
X165735720Y-114687110D01*
X165826236Y-113985013D02*
X165735720Y-114687110D01*
X165735720Y-114687110D02*
X165712484Y-114942492D01*
X165712484Y-114942492D02*
X165733295Y-115006539D01*
X165733295Y-115006539D02*
X165796534Y-115092205D01*
X164145040Y-113823174D02*
X164208279Y-113908840D01*
X164208279Y-113908840D02*
X164377995Y-113995315D01*
X164377995Y-113995315D02*
X164484471Y-113996123D01*
X164484471Y-113996123D02*
X164548519Y-113975313D01*
X164548519Y-113975313D02*
X164634185Y-113912074D01*
X164634185Y-113912074D02*
X164763896Y-113657500D01*
X164763896Y-113657500D02*
X164764705Y-113551024D01*
X164764705Y-113551024D02*
X164743894Y-113486976D01*
X164743894Y-113486976D02*
X164680655Y-113401310D01*
X164680655Y-113401310D02*
X164510940Y-113314836D01*
X164510940Y-113314836D02*
X164404463Y-113314028D01*
X163662362Y-112882464D02*
X163359702Y-113476468D01*
X164044222Y-113077031D02*
X163806417Y-113543749D01*
X163806417Y-113543749D02*
X163720751Y-113606988D01*
X163720751Y-113606988D02*
X163614275Y-113606180D01*
X163614275Y-113606180D02*
X163486988Y-113541324D01*
X163486988Y-113541324D02*
X163423749Y-113455658D01*
X163423749Y-113455658D02*
X163402939Y-113391611D01*
X162935413Y-113260282D02*
X163238073Y-112666278D01*
X163151599Y-112835994D02*
X163152407Y-112729517D01*
X163152407Y-112729517D02*
X163131597Y-112665470D01*
X163131597Y-112665470D02*
X163068358Y-112579804D01*
X163068358Y-112579804D02*
X162983500Y-112536566D01*
X162383837Y-112979240D02*
X162837827Y-112088234D01*
X162664879Y-112427665D02*
X162601640Y-112341999D01*
X162601640Y-112341999D02*
X162431924Y-112255525D01*
X162431924Y-112255525D02*
X162325448Y-112254716D01*
X162325448Y-112254716D02*
X162261400Y-112275526D01*
X162261400Y-112275526D02*
X162175734Y-112338766D01*
X162175734Y-112338766D02*
X162046023Y-112593339D01*
X162046023Y-112593339D02*
X162045214Y-112699815D01*
X162045214Y-112699815D02*
X162066024Y-112763863D01*
X162066024Y-112763863D02*
X162129264Y-112849529D01*
X162129264Y-112849529D02*
X162298979Y-112936003D01*
X162298979Y-112936003D02*
X162405456Y-112936812D01*
X161450401Y-112503631D02*
X161556878Y-112504440D01*
X161556878Y-112504440D02*
X161620925Y-112483629D01*
X161620925Y-112483629D02*
X161706591Y-112420390D01*
X161706591Y-112420390D02*
X161836303Y-112165817D01*
X161836303Y-112165817D02*
X161837111Y-112059341D01*
X161837111Y-112059341D02*
X161816301Y-111995293D01*
X161816301Y-111995293D02*
X161753062Y-111909627D01*
X161753062Y-111909627D02*
X161625775Y-111844771D01*
X161625775Y-111844771D02*
X161519299Y-111843963D01*
X161519299Y-111843963D02*
X161455251Y-111864773D01*
X161455251Y-111864773D02*
X161369585Y-111928012D01*
X161369585Y-111928012D02*
X161239874Y-112182586D01*
X161239874Y-112182586D02*
X161239065Y-112289062D01*
X161239065Y-112289062D02*
X161259876Y-112353109D01*
X161259876Y-112353109D02*
X161323115Y-112438776D01*
X161323115Y-112438776D02*
X161450401Y-112503631D01*
X160644253Y-112092878D02*
X160750729Y-112093686D01*
X160750729Y-112093686D02*
X160836395Y-112030447D01*
X160836395Y-112030447D02*
X161225530Y-111266727D01*
X166573154Y-85404532D02*
X165811250Y-85404532D01*
X166192202Y-85785485D02*
X166192202Y-85023580D01*
X166573154Y-93804532D02*
X165811250Y-93804532D01*
X166235061Y-45440485D02*
X166711251Y-45440485D01*
X166711251Y-45440485D02*
X166711251Y-44440485D01*
X165139822Y-45440485D02*
X165139822Y-44440485D01*
X164711251Y-45440485D02*
X164711251Y-44916675D01*
X164711251Y-44916675D02*
X164758870Y-44821437D01*
X164758870Y-44821437D02*
X164854108Y-44773818D01*
X164854108Y-44773818D02*
X164996965Y-44773818D01*
X164996965Y-44773818D02*
X165092203Y-44821437D01*
X165092203Y-44821437D02*
X165139822Y-44869056D01*
X163806489Y-45440485D02*
X163806489Y-44916675D01*
X163806489Y-44916675D02*
X163854108Y-44821437D01*
X163854108Y-44821437D02*
X163949346Y-44773818D01*
X163949346Y-44773818D02*
X164139822Y-44773818D01*
X164139822Y-44773818D02*
X164235060Y-44821437D01*
X163806489Y-45392866D02*
X163901727Y-45440485D01*
X163901727Y-45440485D02*
X164139822Y-45440485D01*
X164139822Y-45440485D02*
X164235060Y-45392866D01*
X164235060Y-45392866D02*
X164282679Y-45297627D01*
X164282679Y-45297627D02*
X164282679Y-45202389D01*
X164282679Y-45202389D02*
X164235060Y-45107151D01*
X164235060Y-45107151D02*
X164139822Y-45059532D01*
X164139822Y-45059532D02*
X163901727Y-45059532D01*
X163901727Y-45059532D02*
X163806489Y-45011913D01*
X163330298Y-44773818D02*
X163330298Y-45440485D01*
X163330298Y-44869056D02*
X163282679Y-44821437D01*
X163282679Y-44821437D02*
X163187441Y-44773818D01*
X163187441Y-44773818D02*
X163044584Y-44773818D01*
X163044584Y-44773818D02*
X162949346Y-44821437D01*
X162949346Y-44821437D02*
X162901727Y-44916675D01*
X162901727Y-44916675D02*
X162901727Y-45440485D01*
X161996965Y-45440485D02*
X161996965Y-44440485D01*
X161996965Y-45392866D02*
X162092203Y-45440485D01*
X162092203Y-45440485D02*
X162282679Y-45440485D01*
X162282679Y-45440485D02*
X162377917Y-45392866D01*
X162377917Y-45392866D02*
X162425536Y-45345246D01*
X162425536Y-45345246D02*
X162473155Y-45250008D01*
X162473155Y-45250008D02*
X162473155Y-44964294D01*
X162473155Y-44964294D02*
X162425536Y-44869056D01*
X162425536Y-44869056D02*
X162377917Y-44821437D01*
X162377917Y-44821437D02*
X162282679Y-44773818D01*
X162282679Y-44773818D02*
X162092203Y-44773818D01*
X162092203Y-44773818D02*
X161996965Y-44821437D01*
X160758869Y-45440485D02*
X160758869Y-44440485D01*
X160758869Y-44821437D02*
X160663631Y-44773818D01*
X160663631Y-44773818D02*
X160473155Y-44773818D01*
X160473155Y-44773818D02*
X160377917Y-44821437D01*
X160377917Y-44821437D02*
X160330298Y-44869056D01*
X160330298Y-44869056D02*
X160282679Y-44964294D01*
X160282679Y-44964294D02*
X160282679Y-45250008D01*
X160282679Y-45250008D02*
X160330298Y-45345246D01*
X160330298Y-45345246D02*
X160377917Y-45392866D01*
X160377917Y-45392866D02*
X160473155Y-45440485D01*
X160473155Y-45440485D02*
X160663631Y-45440485D01*
X160663631Y-45440485D02*
X160758869Y-45392866D01*
X159425536Y-45440485D02*
X159425536Y-44916675D01*
X159425536Y-44916675D02*
X159473155Y-44821437D01*
X159473155Y-44821437D02*
X159568393Y-44773818D01*
X159568393Y-44773818D02*
X159758869Y-44773818D01*
X159758869Y-44773818D02*
X159854107Y-44821437D01*
X159425536Y-45392866D02*
X159520774Y-45440485D01*
X159520774Y-45440485D02*
X159758869Y-45440485D01*
X159758869Y-45440485D02*
X159854107Y-45392866D01*
X159854107Y-45392866D02*
X159901726Y-45297627D01*
X159901726Y-45297627D02*
X159901726Y-45202389D01*
X159901726Y-45202389D02*
X159854107Y-45107151D01*
X159854107Y-45107151D02*
X159758869Y-45059532D01*
X159758869Y-45059532D02*
X159520774Y-45059532D01*
X159520774Y-45059532D02*
X159425536Y-45011913D01*
X158520774Y-45392866D02*
X158616012Y-45440485D01*
X158616012Y-45440485D02*
X158806488Y-45440485D01*
X158806488Y-45440485D02*
X158901726Y-45392866D01*
X158901726Y-45392866D02*
X158949345Y-45345246D01*
X158949345Y-45345246D02*
X158996964Y-45250008D01*
X158996964Y-45250008D02*
X158996964Y-44964294D01*
X158996964Y-44964294D02*
X158949345Y-44869056D01*
X158949345Y-44869056D02*
X158901726Y-44821437D01*
X158901726Y-44821437D02*
X158806488Y-44773818D01*
X158806488Y-44773818D02*
X158616012Y-44773818D01*
X158616012Y-44773818D02*
X158520774Y-44821437D01*
X158092202Y-45440485D02*
X158092202Y-44440485D01*
X157996964Y-45059532D02*
X157711250Y-45440485D01*
X157711250Y-44773818D02*
X158092202Y-45154770D01*
X156568392Y-45392866D02*
X156473154Y-45440485D01*
X156473154Y-45440485D02*
X156282678Y-45440485D01*
X156282678Y-45440485D02*
X156187440Y-45392866D01*
X156187440Y-45392866D02*
X156139821Y-45297627D01*
X156139821Y-45297627D02*
X156139821Y-45250008D01*
X156139821Y-45250008D02*
X156187440Y-45154770D01*
X156187440Y-45154770D02*
X156282678Y-45107151D01*
X156282678Y-45107151D02*
X156425535Y-45107151D01*
X156425535Y-45107151D02*
X156520773Y-45059532D01*
X156520773Y-45059532D02*
X156568392Y-44964294D01*
X156568392Y-44964294D02*
X156568392Y-44916675D01*
X156568392Y-44916675D02*
X156520773Y-44821437D01*
X156520773Y-44821437D02*
X156425535Y-44773818D01*
X156425535Y-44773818D02*
X156282678Y-44773818D01*
X156282678Y-44773818D02*
X156187440Y-44821437D01*
X155711249Y-45440485D02*
X155711249Y-44773818D01*
X155711249Y-44440485D02*
X155758868Y-44488104D01*
X155758868Y-44488104D02*
X155711249Y-44535723D01*
X155711249Y-44535723D02*
X155663630Y-44488104D01*
X155663630Y-44488104D02*
X155711249Y-44440485D01*
X155711249Y-44440485D02*
X155711249Y-44535723D01*
X154806488Y-45440485D02*
X154806488Y-44440485D01*
X154806488Y-45392866D02*
X154901726Y-45440485D01*
X154901726Y-45440485D02*
X155092202Y-45440485D01*
X155092202Y-45440485D02*
X155187440Y-45392866D01*
X155187440Y-45392866D02*
X155235059Y-45345246D01*
X155235059Y-45345246D02*
X155282678Y-45250008D01*
X155282678Y-45250008D02*
X155282678Y-44964294D01*
X155282678Y-44964294D02*
X155235059Y-44869056D01*
X155235059Y-44869056D02*
X155187440Y-44821437D01*
X155187440Y-44821437D02*
X155092202Y-44773818D01*
X155092202Y-44773818D02*
X154901726Y-44773818D01*
X154901726Y-44773818D02*
X154806488Y-44821437D01*
X153949345Y-45392866D02*
X154044583Y-45440485D01*
X154044583Y-45440485D02*
X154235059Y-45440485D01*
X154235059Y-45440485D02*
X154330297Y-45392866D01*
X154330297Y-45392866D02*
X154377916Y-45297627D01*
X154377916Y-45297627D02*
X154377916Y-44916675D01*
X154377916Y-44916675D02*
X154330297Y-44821437D01*
X154330297Y-44821437D02*
X154235059Y-44773818D01*
X154235059Y-44773818D02*
X154044583Y-44773818D01*
X154044583Y-44773818D02*
X153949345Y-44821437D01*
X153949345Y-44821437D02*
X153901726Y-44916675D01*
X153901726Y-44916675D02*
X153901726Y-45011913D01*
X153901726Y-45011913D02*
X154377916Y-45107151D01*
X152425535Y-45821437D02*
X152473154Y-45773818D01*
X152473154Y-45773818D02*
X152568392Y-45630961D01*
X152568392Y-45630961D02*
X152616011Y-45535723D01*
X152616011Y-45535723D02*
X152663630Y-45392866D01*
X152663630Y-45392866D02*
X152711249Y-45154770D01*
X152711249Y-45154770D02*
X152711249Y-44964294D01*
X152711249Y-44964294D02*
X152663630Y-44726199D01*
X152663630Y-44726199D02*
X152616011Y-44583342D01*
X152616011Y-44583342D02*
X152568392Y-44488104D01*
X152568392Y-44488104D02*
X152473154Y-44345246D01*
X152473154Y-44345246D02*
X152425535Y-44297627D01*
X152044582Y-45440485D02*
X152044582Y-44440485D01*
X152044582Y-44440485D02*
X151711249Y-45154770D01*
X151711249Y-45154770D02*
X151377916Y-44440485D01*
X151377916Y-44440485D02*
X151377916Y-45440485D01*
X150520773Y-44678580D02*
X150520773Y-45440485D01*
X150330297Y-45250008D02*
X150520773Y-45440485D01*
X150520773Y-45440485D02*
X150711249Y-45250008D01*
X149758868Y-45821437D02*
X149711249Y-45773818D01*
X149711249Y-45773818D02*
X149616011Y-45630961D01*
X149616011Y-45630961D02*
X149568392Y-45535723D01*
X149568392Y-45535723D02*
X149520773Y-45392866D01*
X149520773Y-45392866D02*
X149473154Y-45154770D01*
X149473154Y-45154770D02*
X149473154Y-44964294D01*
X149473154Y-44964294D02*
X149520773Y-44726199D01*
X149520773Y-44726199D02*
X149568392Y-44583342D01*
X149568392Y-44583342D02*
X149616011Y-44488104D01*
X149616011Y-44488104D02*
X149711249Y-44345246D01*
X149711249Y-44345246D02*
X149758868Y-44297627D01*
D11*
%TO.C,D7*%
X82548483Y-68692357D02*
X82947509Y-68664455D01*
X82947509Y-68664455D02*
X82909143Y-68115795D01*
X82947509Y-68664455D02*
X82985875Y-69213115D01*
X82947509Y-68664455D02*
X83518144Y-68223575D01*
X83518144Y-68223575D02*
X83573950Y-69021627D01*
X83546047Y-68622601D02*
X84044829Y-68587723D01*
X83573950Y-69021627D02*
X82947509Y-68664455D01*
%TO.C,D2*%
X45221279Y-71386606D02*
X45617386Y-71330937D01*
X45617386Y-71330937D02*
X45540841Y-70786289D01*
X45617386Y-71330937D02*
X45693931Y-71875584D01*
X45617386Y-71330937D02*
X46155878Y-70851325D01*
X46155878Y-70851325D02*
X46267216Y-71643540D01*
X46211547Y-71247433D02*
X46706681Y-71177846D01*
X46267216Y-71643540D02*
X45617386Y-71330937D01*
%TO.C,D16*%
X137542203Y-69030666D02*
X137942203Y-69030666D01*
X137942203Y-69030666D02*
X137942203Y-68480666D01*
X137942203Y-69030666D02*
X137942203Y-69580666D01*
X137942203Y-69030666D02*
X138542203Y-68630666D01*
X138542203Y-68630666D02*
X138542203Y-69430666D01*
X138542203Y-69030666D02*
X139042203Y-69030666D01*
X138542203Y-69430666D02*
X137942203Y-69030666D01*
%TO.C,D3*%
X66595018Y-94133326D02*
X66991125Y-94077657D01*
X66991125Y-94077657D02*
X66914580Y-93533009D01*
X66991125Y-94077657D02*
X67067670Y-94622304D01*
X66991125Y-94077657D02*
X67529617Y-93598045D01*
X67529617Y-93598045D02*
X67640955Y-94390260D01*
X67585286Y-93994153D02*
X68080420Y-93924566D01*
X67640955Y-94390260D02*
X66991125Y-94077657D01*
%TO.C,D20*%
X145198369Y-107717179D02*
X145578791Y-107840786D01*
X145578791Y-107840786D02*
X145408832Y-108363867D01*
X145578791Y-107840786D02*
X145748751Y-107317705D01*
X145578791Y-107840786D02*
X146273032Y-107645774D01*
X146025818Y-108406619D02*
X145578791Y-107840786D01*
X146149425Y-108026196D02*
X146624953Y-108180705D01*
X146273032Y-107645774D02*
X146025818Y-108406619D01*
%TO.C,D18*%
X108742203Y-102180666D02*
X109142203Y-102180666D01*
X109142203Y-102180666D02*
X109142203Y-101630666D01*
X109142203Y-102180666D02*
X109142203Y-102730666D01*
X109142203Y-102180666D02*
X109742203Y-101780666D01*
X109742203Y-101780666D02*
X109742203Y-102580666D01*
X109742203Y-102180666D02*
X110242203Y-102180666D01*
X109742203Y-102580666D02*
X109142203Y-102180666D01*
%TO.C,D8*%
X81362622Y-51733768D02*
X81761648Y-51705866D01*
X81761648Y-51705866D02*
X81723282Y-51157206D01*
X81761648Y-51705866D02*
X81800014Y-52254526D01*
X81761648Y-51705866D02*
X82332283Y-51264986D01*
X82332283Y-51264986D02*
X82388089Y-52063038D01*
X82360186Y-51664012D02*
X82858968Y-51629134D01*
X82388089Y-52063038D02*
X81761648Y-51705866D01*
%TO.C,D4*%
X64229076Y-77298769D02*
X64625183Y-77243100D01*
X64625183Y-77243100D02*
X64548638Y-76698452D01*
X64625183Y-77243100D02*
X64701728Y-77787747D01*
X64625183Y-77243100D02*
X65163675Y-76763488D01*
X65163675Y-76763488D02*
X65275013Y-77555703D01*
X65219344Y-77159596D02*
X65714478Y-77090009D01*
X65275013Y-77555703D02*
X64625183Y-77243100D01*
%TO.C,D13*%
X119542203Y-66480666D02*
X119942203Y-66480666D01*
X119942203Y-66480666D02*
X119942203Y-65930666D01*
X119942203Y-66480666D02*
X119942203Y-67030666D01*
X119942203Y-66480666D02*
X120542203Y-66080666D01*
X120542203Y-66080666D02*
X120542203Y-66880666D01*
X120542203Y-66480666D02*
X121042203Y-66480666D01*
X120542203Y-66880666D02*
X119942203Y-66480666D01*
%TO.C,D11*%
X101542203Y-46080666D02*
X101942203Y-46080666D01*
X101942203Y-46080666D02*
X101942203Y-45530666D01*
X101942203Y-46080666D02*
X101942203Y-46630666D01*
X101942203Y-46080666D02*
X102542203Y-45680666D01*
X102542203Y-45680666D02*
X102542203Y-46480666D01*
X102542203Y-46080666D02*
X103042203Y-46080666D01*
X102542203Y-46480666D02*
X101942203Y-46080666D01*
%TO.C,JST1*%
X154392203Y-84030666D02*
X154392203Y-85030666D01*
X154392203Y-87030666D02*
X154392203Y-86030666D01*
X154892203Y-84530666D02*
X153892203Y-84530666D01*
D12*
X155432203Y-82470666D02*
X156432203Y-82470666D01*
X155432203Y-83390666D02*
X155432203Y-82470666D01*
X155432203Y-87670666D02*
X155432203Y-88590666D01*
X155432203Y-88590666D02*
X156432203Y-88590666D01*
X163252203Y-82470666D02*
X162252203Y-82470666D01*
X163252203Y-83470666D02*
X163252203Y-82470666D01*
X163252203Y-87670666D02*
X163252203Y-88590666D01*
X163252203Y-88590666D02*
X162252203Y-88590666D01*
D11*
%TO.C,D6*%
X83734343Y-85650946D02*
X84133369Y-85623044D01*
X84133369Y-85623044D02*
X84095003Y-85074384D01*
X84133369Y-85623044D02*
X84171735Y-86171704D01*
X84133369Y-85623044D02*
X84704004Y-85182164D01*
X84704004Y-85182164D02*
X84759810Y-85980216D01*
X84731907Y-85581190D02*
X85230689Y-85546312D01*
X84759810Y-85980216D02*
X84133369Y-85623044D01*
D12*
%TO.C,PWR1*%
X164767203Y-87930666D02*
X164767203Y-89630666D01*
X164767203Y-90930666D02*
X164767203Y-91130666D01*
X165817203Y-86080666D02*
X166607203Y-86080666D01*
X166607203Y-92980666D02*
X165817203Y-92980666D01*
X167617203Y-86680666D02*
X167617203Y-92380666D01*
%TO.C,DISP1*%
X151682203Y-78900666D02*
X151682203Y-81560666D01*
X164502203Y-78900666D02*
X151682203Y-78900666D01*
X164502203Y-78900666D02*
X164502203Y-81560666D01*
X164502203Y-81560666D02*
X151682203Y-81560666D01*
D11*
%TO.C,D9*%
X101542203Y-80080666D02*
X101942203Y-80080666D01*
X101942203Y-80080666D02*
X101942203Y-79530666D01*
X101942203Y-80080666D02*
X101942203Y-80630666D01*
X101942203Y-80080666D02*
X102542203Y-79680666D01*
X102542203Y-79680666D02*
X102542203Y-80480666D01*
X102542203Y-80080666D02*
X103042203Y-80080666D01*
X102542203Y-80480666D02*
X101942203Y-80080666D01*
%TO.C,D19*%
X127188153Y-103514341D02*
X127583228Y-103576915D01*
X127583228Y-103576915D02*
X127497189Y-104120144D01*
X127583228Y-103576915D02*
X127669267Y-103033686D01*
X127583228Y-103576915D02*
X128238415Y-103275700D01*
X128113267Y-104065851D02*
X127583228Y-103576915D01*
X128175841Y-103670776D02*
X128669685Y-103748993D01*
X128238415Y-103275700D02*
X128113267Y-104065851D01*
%TO.C,D21*%
X162329381Y-114685691D02*
X162685784Y-114867287D01*
X162685784Y-114867287D02*
X162436089Y-115357341D01*
X162685784Y-114867287D02*
X162935478Y-114377234D01*
X162685784Y-114867287D02*
X163401984Y-114783279D01*
X163038791Y-115496084D02*
X162685784Y-114867287D01*
X163220388Y-115139682D02*
X163665891Y-115366677D01*
X163401984Y-114783279D02*
X163038791Y-115496084D01*
%TO.C,D12*%
X119542203Y-83480666D02*
X119942203Y-83480666D01*
X119942203Y-83480666D02*
X119942203Y-82930666D01*
X119942203Y-83480666D02*
X119942203Y-84030666D01*
X119942203Y-83480666D02*
X120542203Y-83080666D01*
X120542203Y-83080666D02*
X120542203Y-83880666D01*
X120542203Y-83480666D02*
X121042203Y-83480666D01*
X120542203Y-83880666D02*
X119942203Y-83480666D01*
%TO.C,D10*%
X101542203Y-63080666D02*
X101942203Y-63080666D01*
X101942203Y-63080666D02*
X101942203Y-62530666D01*
X101942203Y-63080666D02*
X101942203Y-63630666D01*
X101942203Y-63080666D02*
X102542203Y-62680666D01*
X102542203Y-62680666D02*
X102542203Y-63480666D01*
X102542203Y-63080666D02*
X103042203Y-63080666D01*
X102542203Y-63480666D02*
X101942203Y-63080666D01*
%TO.C,D17*%
X137542203Y-52030666D02*
X137942203Y-52030666D01*
X137942203Y-52030666D02*
X137942203Y-51480666D01*
X137942203Y-52030666D02*
X137942203Y-52580666D01*
X137942203Y-52030666D02*
X138542203Y-51630666D01*
X138542203Y-51630666D02*
X138542203Y-52430666D01*
X138542203Y-52030666D02*
X139042203Y-52030666D01*
X138542203Y-52430666D02*
X137942203Y-52030666D01*
%TO.C,RST1*%
X164842203Y-79130666D02*
X164842203Y-78880666D01*
X164842203Y-83330666D02*
X164842203Y-83580666D01*
X165092203Y-78880666D02*
X164842203Y-78880666D01*
X165092203Y-83580666D02*
X164842203Y-83580666D01*
X168092203Y-78880666D02*
X168342203Y-78880666D01*
X168092203Y-83580666D02*
X168342203Y-83580666D01*
X168342203Y-79130666D02*
X168342203Y-78880666D01*
X168342203Y-83330666D02*
X168342203Y-83580666D01*
%TO.C,D1*%
X47587222Y-88221163D02*
X47983329Y-88165494D01*
X47983329Y-88165494D02*
X47906784Y-87620846D01*
X47983329Y-88165494D02*
X48059874Y-88710141D01*
X47983329Y-88165494D02*
X48521821Y-87685882D01*
X48521821Y-87685882D02*
X48633159Y-88478097D01*
X48577490Y-88081990D02*
X49072624Y-88012403D01*
X48633159Y-88478097D02*
X47983329Y-88165494D01*
%TO.C,D14*%
X119542203Y-49480666D02*
X119942203Y-49480666D01*
X119942203Y-49480666D02*
X119942203Y-48930666D01*
X119942203Y-49480666D02*
X119942203Y-50030666D01*
X119942203Y-49480666D02*
X120542203Y-49080666D01*
X120542203Y-49080666D02*
X120542203Y-49880666D01*
X120542203Y-49480666D02*
X121042203Y-49480666D01*
X120542203Y-49880666D02*
X119942203Y-49480666D01*
%TO.C,D5*%
X61863133Y-60464211D02*
X62259240Y-60408542D01*
X62259240Y-60408542D02*
X62182695Y-59863894D01*
X62259240Y-60408542D02*
X62335785Y-60953189D01*
X62259240Y-60408542D02*
X62797732Y-59928930D01*
X62797732Y-59928930D02*
X62909070Y-60721145D01*
X62853401Y-60325038D02*
X63348535Y-60255451D01*
X62909070Y-60721145D02*
X62259240Y-60408542D01*
%TO.C,D15*%
X137542203Y-86030666D02*
X137942203Y-86030666D01*
X137942203Y-86030666D02*
X137942203Y-85480666D01*
X137942203Y-86030666D02*
X137942203Y-86580666D01*
X137942203Y-86030666D02*
X138542203Y-85630666D01*
X138542203Y-85630666D02*
X138542203Y-86430666D01*
X138542203Y-86030666D02*
X139042203Y-86030666D01*
X138542203Y-86430666D02*
X137942203Y-86030666D01*
D10*
%TO.C,S19*%
X127808366Y-94804127D02*
X127392739Y-94232066D01*
X128512321Y-90359530D02*
X127940260Y-90775157D01*
X130080049Y-95163927D02*
X127808366Y-94804127D01*
X131414964Y-97602780D02*
X131524468Y-96911398D01*
X131475386Y-90828833D02*
X128512321Y-90359530D01*
X131891013Y-91400895D02*
X131475386Y-90828833D01*
X131891013Y-91400895D02*
X131747093Y-92309568D01*
X132169959Y-92963773D02*
X136594803Y-93664600D01*
X135859561Y-98306735D02*
X131414964Y-97602780D01*
X135937778Y-97812891D02*
X135859561Y-98306735D01*
X136594803Y-93664600D02*
X136500942Y-94257214D01*
X130080049Y-95163927D02*
G75*
G02*
X131527596Y-96891644I-140085J-1587632D01*
G01*
X132169959Y-92963773D02*
G75*
G02*
X131747094Y-92309568I115670J538535D01*
G01*
%TO.C,S16*%
X136792203Y-55830666D02*
X136292203Y-56330666D01*
X136792203Y-60330666D02*
X136292203Y-59830666D01*
X139092203Y-60330666D02*
X136792203Y-60330666D01*
X139792203Y-55830666D02*
X136792203Y-55830666D01*
X140292203Y-56330666D02*
X139792203Y-55830666D01*
X140292203Y-56330666D02*
X140292203Y-57250666D01*
X140792203Y-62530666D02*
X140792203Y-61830666D01*
X140812203Y-57830666D02*
X145292203Y-57830666D01*
X145292203Y-57830666D02*
X145292203Y-58430666D01*
X145292203Y-62030666D02*
X145292203Y-62530666D01*
X145292203Y-62530666D02*
X140792203Y-62530666D01*
X139092203Y-60330666D02*
G75*
G02*
X140792203Y-61810666I110000J-1590000D01*
G01*
X140812203Y-57830666D02*
G75*
G02*
X140292203Y-57250666I30000J550000D01*
G01*
%TO.C,S4*%
X61649289Y-64331608D02*
X61223742Y-64896330D01*
X62275568Y-68787816D02*
X61710848Y-68362268D01*
X64553185Y-68467718D02*
X62275568Y-68787816D01*
X64620094Y-63914090D02*
X61649289Y-64331608D01*
X65184814Y-64339638D02*
X64620094Y-63914090D01*
X65184814Y-64339638D02*
X65312855Y-65250684D01*
X65908513Y-65752670D02*
X70344914Y-65129174D01*
X66542822Y-70409713D02*
X66445400Y-69716525D01*
X70344914Y-65129174D02*
X70428418Y-65723335D01*
X70929441Y-69288300D02*
X70999028Y-69783434D01*
X70999028Y-69783434D02*
X66542822Y-70409713D01*
X64553185Y-68467718D02*
G75*
G02*
X66442617Y-69696720I330215J-1559217D01*
G01*
X65908513Y-65752670D02*
G75*
G02*
X65312853Y-65250684I-46837J548823D01*
G01*
%TO.C,S12*%
X118792203Y-70280666D02*
X118292203Y-70780666D01*
X118792203Y-74780666D02*
X118292203Y-74280666D01*
X121092203Y-74780666D02*
X118792203Y-74780666D01*
X121792203Y-70280666D02*
X118792203Y-70280666D01*
X122292203Y-70780666D02*
X121792203Y-70280666D01*
X122292203Y-70780666D02*
X122292203Y-71700666D01*
X122792203Y-76980666D02*
X122792203Y-76280666D01*
X122812203Y-72280666D02*
X127292203Y-72280666D01*
X127292203Y-72280666D02*
X127292203Y-72880666D01*
X127292203Y-76480666D02*
X127292203Y-76980666D01*
X127292203Y-76980666D02*
X122792203Y-76980666D01*
X121092203Y-74780666D02*
G75*
G02*
X122792203Y-76260666I110000J-1590000D01*
G01*
X122812203Y-72280666D02*
G75*
G02*
X122292203Y-71700666I30000J550000D01*
G01*
%TO.C,S2*%
X42641493Y-58419446D02*
X42215946Y-58984168D01*
X43267772Y-62875654D02*
X42703052Y-62450106D01*
X45545389Y-62555556D02*
X43267772Y-62875654D01*
X45612298Y-58001928D02*
X42641493Y-58419446D01*
X46177018Y-58427476D02*
X45612298Y-58001928D01*
X46177018Y-58427476D02*
X46305059Y-59338522D01*
X46900717Y-59840508D02*
X51337118Y-59217012D01*
X47535026Y-64497551D02*
X47437604Y-63804363D01*
X51337118Y-59217012D02*
X51420622Y-59811173D01*
X51921645Y-63376138D02*
X51991232Y-63871272D01*
X51991232Y-63871272D02*
X47535026Y-64497551D01*
X45545389Y-62555556D02*
G75*
G02*
X47434821Y-63784558I330215J-1559217D01*
G01*
X46900717Y-59840508D02*
G75*
G02*
X46305057Y-59338522I-46837J548823D01*
G01*
%TO.C,S14*%
X118792203Y-36280666D02*
X118292203Y-36780666D01*
X118792203Y-40780666D02*
X118292203Y-40280666D01*
X121092203Y-40780666D02*
X118792203Y-40780666D01*
X121792203Y-36280666D02*
X118792203Y-36280666D01*
X122292203Y-36780666D02*
X121792203Y-36280666D01*
X122292203Y-36780666D02*
X122292203Y-37700666D01*
X122792203Y-42980666D02*
X122792203Y-42280666D01*
X122812203Y-38280666D02*
X127292203Y-38280666D01*
X127292203Y-38280666D02*
X127292203Y-38880666D01*
X127292203Y-42480666D02*
X127292203Y-42980666D01*
X127292203Y-42980666D02*
X122792203Y-42980666D01*
X121092203Y-40780666D02*
G75*
G02*
X122792203Y-42260666I110000J-1590000D01*
G01*
X122812203Y-38280666D02*
G75*
G02*
X122292203Y-37700666I30000J550000D01*
G01*
%TO.C,S20*%
X147173524Y-99211224D02*
X146852504Y-98581188D01*
X148564101Y-94931470D02*
X147934064Y-95252490D01*
X149360954Y-99921963D02*
X147173524Y-99211224D01*
X150297913Y-102539617D02*
X150514225Y-101873877D01*
X151417270Y-95858521D02*
X148564101Y-94931470D01*
X151738290Y-96488558D02*
X151417270Y-95858521D01*
X151738290Y-96488558D02*
X151453994Y-97363530D01*
X151769314Y-98075831D02*
X156030047Y-99460228D01*
X154577667Y-103930193D02*
X150297913Y-102539617D01*
X154732176Y-103454665D02*
X154577667Y-103930193D01*
X156030047Y-99460228D02*
X155844637Y-100030861D01*
X149360954Y-99921963D02*
G75*
G02*
X150520405Y-101854856I-386721J-1546172D01*
G01*
X151769314Y-98075831D02*
G75*
G02*
X151453995Y-97363530I198491J513810D01*
G01*
%TO.C,S3*%
X64015232Y-81166166D02*
X63589685Y-81730888D01*
X64641511Y-85622374D02*
X64076791Y-85196826D01*
X66919128Y-85302276D02*
X64641511Y-85622374D01*
X66986037Y-80748648D02*
X64015232Y-81166166D01*
X67550757Y-81174196D02*
X66986037Y-80748648D01*
X67550757Y-81174196D02*
X67678798Y-82085242D01*
X68274456Y-82587228D02*
X72710857Y-81963732D01*
X68908765Y-87244271D02*
X68811343Y-86551083D01*
X72710857Y-81963732D02*
X72794361Y-82557893D01*
X73295384Y-86122858D02*
X73364971Y-86617992D01*
X73364971Y-86617992D02*
X68908765Y-87244271D01*
X66919128Y-85302276D02*
G75*
G02*
X68808560Y-86531278I330215J-1559217D01*
G01*
X68274456Y-82587228D02*
G75*
G02*
X67678796Y-82085242I-46837J548823D01*
G01*
%TO.C,S21*%
X165610844Y-106593442D02*
X165392336Y-105920944D01*
X167653801Y-102583913D02*
X166981303Y-102802421D01*
X167660159Y-107637620D02*
X165610844Y-106593442D01*
X168176091Y-110369618D02*
X168493884Y-109745914D01*
X170326821Y-103945884D02*
X167653801Y-102583913D01*
X170327667Y-106190968D02*
X174319376Y-108224845D01*
X170545329Y-104618383D02*
X170127658Y-105438109D01*
X170545329Y-104618383D02*
X170326821Y-103945884D01*
X172185620Y-112412576D02*
X168176091Y-110369618D01*
X172412616Y-111967072D02*
X172185620Y-112412576D01*
X174319376Y-108224845D02*
X174046981Y-108759449D01*
X167660159Y-107637620D02*
G75*
G02*
X168502965Y-109728094I-623834J-1466640D01*
G01*
X170327667Y-106190968D02*
G75*
G02*
X170127658Y-105438109I276425J476434D01*
G01*
%TO.C,S6*%
X82065384Y-72535417D02*
X81601480Y-73069078D01*
X82379288Y-77024456D02*
X81845628Y-76560552D01*
X84673685Y-76864016D02*
X82379288Y-77024456D01*
X85058076Y-72326148D02*
X82065384Y-72535417D01*
X85591736Y-72790052D02*
X85058076Y-72326148D01*
X85591736Y-72790052D02*
X85655912Y-73707811D01*
X86215104Y-74250125D02*
X90684191Y-73937616D01*
X86523008Y-78940071D02*
X86474179Y-78241776D01*
X90684191Y-73937616D02*
X90726045Y-74536154D01*
X90977168Y-78127385D02*
X91012047Y-78626167D01*
X91012047Y-78626167D02*
X86523008Y-78940071D01*
X84673685Y-76864016D02*
G75*
G02*
X86472783Y-78221825I220645J-1578453D01*
G01*
X86215104Y-74250125D02*
G75*
G02*
X85655912Y-73707811I-8439J550753D01*
G01*
%TO.C,S5*%
X59283347Y-47497051D02*
X58857800Y-48061773D01*
X59909626Y-51953259D02*
X59344906Y-51527711D01*
X62187243Y-51633161D02*
X59909626Y-51953259D01*
X62254152Y-47079533D02*
X59283347Y-47497051D01*
X62818872Y-47505081D02*
X62254152Y-47079533D01*
X62818872Y-47505081D02*
X62946913Y-48416127D01*
X63542571Y-48918113D02*
X67978972Y-48294617D01*
X64176880Y-53575156D02*
X64079458Y-52881968D01*
X67978972Y-48294617D02*
X68062476Y-48888778D01*
X68563499Y-52453743D02*
X68633086Y-52948877D01*
X68633086Y-52948877D02*
X64176880Y-53575156D01*
X62187243Y-51633161D02*
G75*
G02*
X64076675Y-52862163I330215J-1559217D01*
G01*
X63542571Y-48918113D02*
G75*
G02*
X62946911Y-48416127I-46837J548823D01*
G01*
%TO.C,S10*%
X100792203Y-49880666D02*
X100292203Y-50380666D01*
X100792203Y-54380666D02*
X100292203Y-53880666D01*
X103092203Y-54380666D02*
X100792203Y-54380666D01*
X103792203Y-49880666D02*
X100792203Y-49880666D01*
X104292203Y-50380666D02*
X103792203Y-49880666D01*
X104292203Y-50380666D02*
X104292203Y-51300666D01*
X104792203Y-56580666D02*
X104792203Y-55880666D01*
X104812203Y-51880666D02*
X109292203Y-51880666D01*
X109292203Y-51880666D02*
X109292203Y-52480666D01*
X109292203Y-56080666D02*
X109292203Y-56580666D01*
X109292203Y-56580666D02*
X104792203Y-56580666D01*
X103092203Y-54380666D02*
G75*
G02*
X104792203Y-55860666I110000J-1590000D01*
G01*
X104812203Y-51880666D02*
G75*
G02*
X104292203Y-51300666I30000J550000D01*
G01*
%TO.C,S15*%
X136792203Y-72830666D02*
X136292203Y-73330666D01*
X136792203Y-77330666D02*
X136292203Y-76830666D01*
X139092203Y-77330666D02*
X136792203Y-77330666D01*
X139792203Y-72830666D02*
X136792203Y-72830666D01*
X140292203Y-73330666D02*
X139792203Y-72830666D01*
X140292203Y-73330666D02*
X140292203Y-74250666D01*
X140792203Y-79530666D02*
X140792203Y-78830666D01*
X140812203Y-74830666D02*
X145292203Y-74830666D01*
X145292203Y-74830666D02*
X145292203Y-75430666D01*
X145292203Y-79030666D02*
X145292203Y-79530666D01*
X145292203Y-79530666D02*
X140792203Y-79530666D01*
X139092203Y-77330666D02*
G75*
G02*
X140792203Y-78810666I110000J-1590000D01*
G01*
X140812203Y-74830666D02*
G75*
G02*
X140292203Y-74250666I30000J550000D01*
G01*
%TO.C,S17*%
X136792203Y-38830666D02*
X136292203Y-39330666D01*
X136792203Y-43330666D02*
X136292203Y-42830666D01*
X139092203Y-43330666D02*
X136792203Y-43330666D01*
X139792203Y-38830666D02*
X136792203Y-38830666D01*
X140292203Y-39330666D02*
X139792203Y-38830666D01*
X140292203Y-39330666D02*
X140292203Y-40250666D01*
X140792203Y-45530666D02*
X140792203Y-44830666D01*
X140812203Y-40830666D02*
X145292203Y-40830666D01*
X145292203Y-40830666D02*
X145292203Y-41430666D01*
X145292203Y-45030666D02*
X145292203Y-45530666D01*
X145292203Y-45530666D02*
X140792203Y-45530666D01*
X139092203Y-43330666D02*
G75*
G02*
X140792203Y-44810666I110000J-1590000D01*
G01*
X140812203Y-40830666D02*
G75*
G02*
X140292203Y-40250666I30000J550000D01*
G01*
%TO.C,S13*%
X118792203Y-53280666D02*
X118292203Y-53780666D01*
X118792203Y-57780666D02*
X118292203Y-57280666D01*
X121092203Y-57780666D02*
X118792203Y-57780666D01*
X121792203Y-53280666D02*
X118792203Y-53280666D01*
X122292203Y-53780666D02*
X121792203Y-53280666D01*
X122292203Y-53780666D02*
X122292203Y-54700666D01*
X122792203Y-59980666D02*
X122792203Y-59280666D01*
X122812203Y-55280666D02*
X127292203Y-55280666D01*
X127292203Y-55280666D02*
X127292203Y-55880666D01*
X127292203Y-59480666D02*
X127292203Y-59980666D01*
X127292203Y-59980666D02*
X122792203Y-59980666D01*
X121092203Y-57780666D02*
G75*
G02*
X122792203Y-59260666I110000J-1590000D01*
G01*
X122812203Y-55280666D02*
G75*
G02*
X122292203Y-54700666I30000J550000D01*
G01*
%TO.C,S8*%
X79693664Y-38618239D02*
X79229760Y-39151900D01*
X80007568Y-43107278D02*
X79473908Y-42643374D01*
X82301965Y-42946838D02*
X80007568Y-43107278D01*
X82686356Y-38408970D02*
X79693664Y-38618239D01*
X83220016Y-38872874D02*
X82686356Y-38408970D01*
X83220016Y-38872874D02*
X83284192Y-39790633D01*
X83843384Y-40332947D02*
X88312471Y-40020438D01*
X84151288Y-45022893D02*
X84102459Y-44324598D01*
X88312471Y-40020438D02*
X88354325Y-40618976D01*
X88605448Y-44210207D02*
X88640327Y-44708989D01*
X88640327Y-44708989D02*
X84151288Y-45022893D01*
X82301965Y-42946838D02*
G75*
G02*
X84101063Y-44304647I220645J-1578453D01*
G01*
X83843384Y-40332947D02*
G75*
G02*
X83284192Y-39790633I-8439J550753D01*
G01*
%TO.C,S18*%
X107992203Y-88980666D02*
X107492203Y-89480666D01*
X107992203Y-93480666D02*
X107492203Y-92980666D01*
X110292203Y-93480666D02*
X107992203Y-93480666D01*
X110992203Y-88980666D02*
X107992203Y-88980666D01*
X111492203Y-89480666D02*
X110992203Y-88980666D01*
X111492203Y-89480666D02*
X111492203Y-90400666D01*
X111992203Y-95680666D02*
X111992203Y-94980666D01*
X112012203Y-90980666D02*
X116492203Y-90980666D01*
X116492203Y-90980666D02*
X116492203Y-91580666D01*
X116492203Y-95180666D02*
X116492203Y-95680666D01*
X116492203Y-95680666D02*
X111992203Y-95680666D01*
X110292203Y-93480666D02*
G75*
G02*
X111992203Y-94960666I110000J-1590000D01*
G01*
X112012203Y-90980666D02*
G75*
G02*
X111492203Y-90400666I30000J550000D01*
G01*
%TO.C,S7*%
X80879524Y-55576828D02*
X80415620Y-56110489D01*
X81193428Y-60065867D02*
X80659768Y-59601963D01*
X83487825Y-59905427D02*
X81193428Y-60065867D01*
X83872216Y-55367559D02*
X80879524Y-55576828D01*
X84405876Y-55831463D02*
X83872216Y-55367559D01*
X84405876Y-55831463D02*
X84470052Y-56749222D01*
X85029244Y-57291536D02*
X89498331Y-56979027D01*
X85337148Y-61981482D02*
X85288319Y-61283187D01*
X89498331Y-56979027D02*
X89540185Y-57577565D01*
X89791308Y-61168796D02*
X89826187Y-61667578D01*
X89826187Y-61667578D02*
X85337148Y-61981482D01*
X83487825Y-59905427D02*
G75*
G02*
X85286923Y-61263236I220645J-1578453D01*
G01*
X85029244Y-57291536D02*
G75*
G02*
X84470052Y-56749222I-8439J550753D01*
G01*
%TO.C,S9*%
X100792203Y-66880666D02*
X100292203Y-67380666D01*
X100792203Y-71380666D02*
X100292203Y-70880666D01*
X103092203Y-71380666D02*
X100792203Y-71380666D01*
X103792203Y-66880666D02*
X100792203Y-66880666D01*
X104292203Y-67380666D02*
X103792203Y-66880666D01*
X104292203Y-67380666D02*
X104292203Y-68300666D01*
X104792203Y-73580666D02*
X104792203Y-72880666D01*
X104812203Y-68880666D02*
X109292203Y-68880666D01*
X109292203Y-68880666D02*
X109292203Y-69480666D01*
X109292203Y-73080666D02*
X109292203Y-73580666D01*
X109292203Y-73580666D02*
X104792203Y-73580666D01*
X103092203Y-71380666D02*
G75*
G02*
X104792203Y-72860666I110000J-1590000D01*
G01*
X104812203Y-68880666D02*
G75*
G02*
X104292203Y-68300666I30000J550000D01*
G01*
%TO.C,S11*%
X100792203Y-32880666D02*
X100292203Y-33380666D01*
X100792203Y-37380666D02*
X100292203Y-36880666D01*
X103092203Y-37380666D02*
X100792203Y-37380666D01*
X103792203Y-32880666D02*
X100792203Y-32880666D01*
X104292203Y-33380666D02*
X103792203Y-32880666D01*
X104292203Y-33380666D02*
X104292203Y-34300666D01*
X104792203Y-39580666D02*
X104792203Y-38880666D01*
X104812203Y-34880666D02*
X109292203Y-34880666D01*
X109292203Y-34880666D02*
X109292203Y-35480666D01*
X109292203Y-39080666D02*
X109292203Y-39580666D01*
X109292203Y-39580666D02*
X104792203Y-39580666D01*
X103092203Y-37380666D02*
G75*
G02*
X104792203Y-38860666I110000J-1590000D01*
G01*
X104812203Y-34880666D02*
G75*
G02*
X104292203Y-34300666I30000J550000D01*
G01*
%TO.C,S1*%
X45007435Y-75254003D02*
X44581888Y-75818725D01*
X45633714Y-79710211D02*
X45068994Y-79284663D01*
X47911331Y-79390113D02*
X45633714Y-79710211D01*
X47978240Y-74836485D02*
X45007435Y-75254003D01*
X48542960Y-75262033D02*
X47978240Y-74836485D01*
X48542960Y-75262033D02*
X48671001Y-76173079D01*
X49266659Y-76675065D02*
X53703060Y-76051569D01*
X49900968Y-81332108D02*
X49803546Y-80638920D01*
X53703060Y-76051569D02*
X53786564Y-76645730D01*
X54287587Y-80210695D02*
X54357174Y-80705829D01*
X54357174Y-80705829D02*
X49900968Y-81332108D01*
X47911331Y-79390113D02*
G75*
G02*
X49800763Y-80619115I330215J-1559217D01*
G01*
X49266659Y-76675065D02*
G75*
G02*
X48670999Y-76173079I-46837J548823D01*
G01*
%TD*%
M02*
