M48
; DRILL file {KiCad 9.0.5} date 2025-10-30T23:19:28-0700
; FORMAT={-:-/ absolute / metric / decimal}
; #@! TF.CreationDate,2025-10-30T23:19:28-07:00
; #@! TF.GenerationSoftware,Kicad,Pcbnew,9.0.5
; #@! TF.FileFunction,MixedPlating,1,2
FMAT,2
METRIC
; #@! TA.AperFunction,Plated,PTH,ViaDrill
T1C0.400
; #@! TA.AperFunction,Plated,PTH,ComponentDrill
T2C0.400
; #@! TA.AperFunction,Plated,PTH,ComponentDrill
T3C0.500
; #@! TA.AperFunction,Plated,PTH,ComponentDrill
T4C0.750
; #@! TA.AperFunction,Plated,PTH,ComponentDrill
T5C0.850
; #@! TA.AperFunction,NonPlated,NPTH,ComponentDrill
T6C0.900
; #@! TA.AperFunction,NonPlated,NPTH,ComponentDrill
T7C1.500
; #@! TA.AperFunction,NonPlated,NPTH,ComponentDrill
T8C1.900
; #@! TA.AperFunction,NonPlated,NPTH,ComponentDrill
T9C2.000
; #@! TA.AperFunction,NonPlated,NPTH,ComponentDrill
T10C3.000
; #@! TA.AperFunction,NonPlated,NPTH,ComponentDrill
T11C3.400
; #@! TA.AperFunction,NonPlated,NPTH,ComponentDrill
T12C5.000
%
G90
G05
T1
X37.4Y-66.7
X40.0Y-69.703
X40.0Y-89.703
X43.142Y-71.679
X44.767Y-62.766
X44.906Y-63.756
X45.508Y-88.513
X47.133Y-79.6
X47.272Y-80.591
X48.786Y-70.886
X50.0Y-59.703
X50.0Y-89.703
X51.152Y-87.72
X59.784Y-60.756
X61.409Y-51.844
X61.548Y-52.834
X62.15Y-77.591
X63.775Y-68.678
X63.914Y-69.668
X64.515Y-94.426
X65.428Y-59.963
X66.141Y-85.513
X66.28Y-86.503
X67.794Y-76.798
X70.0Y-79.703
X70.16Y-93.632
X79.268Y-51.88
X80.454Y-68.839
X81.511Y-43.102
X81.581Y-44.1
X81.639Y-85.797
X82.697Y-60.061
X82.767Y-61.059
X83.883Y-77.02
X83.952Y-78.017
X84.954Y-51.483
X86.14Y-68.441
X87.326Y-85.4
X90.0Y-39.703
X90.0Y-69.703
X99.442Y-46.081
X99.442Y-63.081
X99.442Y-80.081
X100.0Y-49.703
X100.0Y-59.703
X102.292Y-37.481
X102.292Y-38.481
X102.292Y-54.481
X102.292Y-55.481
X102.292Y-71.481
X102.292Y-72.481
X105.142Y-46.081
X105.142Y-63.081
X105.142Y-80.081
X106.642Y-102.181
X106.8Y-93.5
X109.492Y-93.581
X109.492Y-94.581
X110.0Y-39.703
X110.0Y-59.703
X110.0Y-79.703
X110.0Y-99.703
X112.1Y-93.55
X112.342Y-102.181
X117.442Y-49.481
X117.442Y-66.481
X117.442Y-83.481
X120.0Y-99.703
X120.292Y-40.881
X120.292Y-41.881
X120.292Y-57.881
X120.292Y-58.881
X120.292Y-74.881
X120.292Y-75.881
X123.142Y-49.481
X123.142Y-66.481
X123.142Y-83.481
X125.114Y-103.186
X129.118Y-96.125
X129.274Y-95.138
X130.0Y-79.703
X130.0Y-89.703
X130.744Y-104.078
X135.442Y-52.031
X135.442Y-69.031
X135.442Y-86.031
X138.292Y-43.431
X138.292Y-44.431
X138.292Y-60.431
X138.292Y-61.431
X138.292Y-77.431
X138.292Y-78.431
X140.0Y-89.703
X141.142Y-52.031
X141.142Y-69.031
X141.142Y-86.031
X143.1Y-89.7
X143.201Y-107.068
X145.0Y-89.7
X148.26Y-100.721
X148.569Y-99.77
X148.622Y-108.83
X156.292Y-85.531
X157.296Y-77.626
X157.792Y-85.531
X158.0Y-66.55
X158.0Y-74.2
X158.001Y-71.65
X158.001Y-69.149
X158.001Y-64.049
X158.002Y-61.498
X158.003Y-56.547
X158.003Y-58.948
X158.05Y-95.9
X158.902Y-76.863
X158.902Y-78.318
X160.0Y-89.703
X160.458Y-113.732
X161.903Y-77.698
X165.537Y-116.32
X165.742Y-81.231
X166.192Y-86.881
X166.192Y-89.531
X166.448Y-108.255
X166.902Y-107.364
X167.442Y-81.231
X169.2Y-108.55
X170.0Y-119.703
T2
X154.692Y-47.531
X154.692Y-50.071
X154.692Y-52.611
X154.692Y-55.151
X154.692Y-57.691
X154.692Y-60.231
X154.692Y-62.771
X154.692Y-65.311
X154.692Y-67.851
X154.692Y-70.391
X154.692Y-72.931
X154.692Y-75.471
X161.492Y-47.531
X161.492Y-50.071
X161.492Y-52.611
X161.492Y-55.151
X161.492Y-57.691
X161.492Y-60.231
X161.492Y-62.771
X161.492Y-65.311
X161.492Y-67.851
X161.492Y-70.391
X161.492Y-72.931
X161.492Y-75.471
T4
X161.792Y-84.531
X161.792Y-86.531
T5
X150.472Y-47.531
X150.472Y-50.071
X150.472Y-52.611
X150.472Y-55.151
X150.472Y-57.691
X150.472Y-60.231
X150.472Y-62.771
X150.472Y-65.311
X150.472Y-67.851
X150.472Y-70.391
X150.472Y-72.931
X150.472Y-75.471
X153.012Y-80.231
X155.552Y-80.231
X158.092Y-80.231
X160.632Y-80.231
X163.172Y-80.231
X165.712Y-47.531
X165.712Y-50.071
X165.712Y-52.611
X165.712Y-55.151
X165.712Y-57.691
X165.712Y-60.231
X165.712Y-62.771
X165.712Y-65.311
X165.712Y-67.851
X165.712Y-70.391
X165.712Y-72.931
X165.712Y-75.471
T6
X166.217Y-88.031
X166.217Y-91.031
T8
X39.822Y-67.096
X42.188Y-83.931
X50.715Y-65.565
X53.081Y-82.4
X56.463Y-56.174
X58.829Y-73.008
X61.195Y-89.843
X67.356Y-54.643
X69.722Y-71.478
X72.088Y-88.312
X76.275Y-47.077
X77.461Y-64.036
X78.647Y-80.994
X87.249Y-46.31
X88.434Y-63.269
X89.62Y-80.227
X96.792Y-41.081
X96.792Y-58.081
X96.792Y-75.081
X103.992Y-97.181
X107.792Y-41.081
X107.792Y-58.081
X107.792Y-75.081
X114.792Y-44.481
X114.792Y-61.481
X114.792Y-78.481
X114.992Y-97.181
X123.279Y-97.833
X125.792Y-44.481
X125.792Y-61.481
X125.792Y-78.481
X132.792Y-47.031
X132.792Y-64.031
X132.792Y-81.031
X134.143Y-99.554
X142.226Y-101.494
X143.792Y-47.031
X143.792Y-64.031
X143.792Y-81.031
X152.688Y-104.893
X160.367Y-108.074
X170.168Y-113.068
T9
X151.292Y-89.531
X165.292Y-96.031
T10
X39.795Y-63.313
X42.161Y-80.148
X44.44Y-60.439
X46.806Y-77.273
X49.698Y-61.922
X52.063Y-78.756
X56.437Y-52.391
X58.803Y-69.225
X61.082Y-49.516
X61.169Y-86.06
X63.448Y-66.351
X65.814Y-83.186
X66.339Y-50.999
X68.705Y-67.834
X71.071Y-84.668
X76.513Y-43.302
X77.698Y-60.26
X78.884Y-77.219
X81.347Y-40.758
X82.533Y-57.717
X83.719Y-74.675
X86.488Y-42.604
X87.674Y-59.563
X88.86Y-76.521
X97.292Y-37.331
X97.292Y-54.331
X97.292Y-71.331
X102.292Y-35.131
X102.292Y-52.131
X102.292Y-69.131
X104.492Y-93.431
X107.292Y-37.331
X107.292Y-54.331
X107.292Y-71.331
X109.492Y-91.231
X114.492Y-93.431
X115.292Y-40.731
X115.292Y-57.731
X115.292Y-74.731
X120.292Y-38.531
X120.292Y-55.531
X120.292Y-72.531
X124.359Y-94.207
X125.292Y-40.731
X125.292Y-57.731
X125.292Y-74.731
X129.642Y-92.816
X133.292Y-43.281
X133.292Y-60.281
X133.292Y-77.281
X134.236Y-95.772
X138.292Y-41.081
X138.292Y-58.081
X138.292Y-75.081
X143.292Y-43.281
X143.292Y-60.281
X143.292Y-77.281
X143.86Y-98.082
X149.295Y-97.535
X153.371Y-101.172
X162.515Y-104.96
X167.969Y-105.27
X171.425Y-109.5
T11
X45.268Y-66.331
X47.634Y-83.165
X61.91Y-55.408
X64.276Y-72.243
X66.642Y-89.078
X81.762Y-46.694
X82.948Y-63.652
X84.134Y-80.611
X102.292Y-41.081
X102.292Y-58.081
X102.292Y-75.081
X109.492Y-97.181
X120.292Y-44.481
X120.292Y-61.481
X120.292Y-78.481
X128.711Y-98.693
X138.292Y-47.031
X138.292Y-64.031
X138.292Y-81.031
X147.457Y-103.194
X165.268Y-110.571
T12
X73.978Y-73.001
X92.292Y-49.081
X119.792Y-88.681
X128.932Y-52.981
X156.432Y-106.636
T3
G00X106.742Y-104.681
M15
G01X107.242Y-104.681
M16
G05
G00X109.242Y-104.681
M15
G01X109.742Y-104.681
M16
G05
G00X111.742Y-104.681
M15
G01X112.242Y-104.681
M16
G05
T7
G00X103.892Y-96.781
M15
G01X103.892Y-97.581
M16
G05
G00X115.092Y-96.781
M15
G01X115.092Y-97.581
M16
G05
M30
