%TF.GenerationSoftware,KiCad,Pcbnew,9.0.5*%
%TF.CreationDate,2025-10-30T23:19:20-07:00*%
%TF.ProjectId,temporal,74656d70-6f72-4616-9c2e-6b696361645f,1*%
%TF.SameCoordinates,Original*%
%TF.FileFunction,Paste,Bot*%
%TF.FilePolarity,Positive*%
%FSLAX46Y46*%
G04 Gerber Fmt 4.6, Leading zero omitted, Abs format (unit mm)*
G04 Created by KiCad (PCBNEW 9.0.5) date 2025-10-30 23:19:20*
%MOMM*%
%LPD*%
G01*
G04 APERTURE LIST*
G04 Aperture macros list*
%AMRotRect*
0 Rectangle, with rotation*
0 The origin of the aperture is its center*
0 $1 length*
0 $2 width*
0 $3 Rotation angle, in degrees counterclockwise*
0 Add horizontal line*
21,1,$1,$2,0,0,$3*%
%AMOutline5P*
0 Free polygon, 5 corners , with rotation*
0 The origin of the aperture is its center*
0 number of corners: always 5*
0 $1 to $10 corner X, Y*
0 $11 Rotation angle, in degrees counterclockwise*
0 create outline with 5 corners*
4,1,5,$1,$2,$3,$4,$5,$6,$7,$8,$9,$10,$1,$2,$11*%
%AMOutline6P*
0 Free polygon, 6 corners , with rotation*
0 The origin of the aperture is its center*
0 number of corners: always 6*
0 $1 to $12 corner X, Y*
0 $13 Rotation angle, in degrees counterclockwise*
0 create outline with 6 corners*
4,1,6,$1,$2,$3,$4,$5,$6,$7,$8,$9,$10,$11,$12,$1,$2,$13*%
%AMOutline7P*
0 Free polygon, 7 corners , with rotation*
0 The origin of the aperture is its center*
0 number of corners: always 7*
0 $1 to $14 corner X, Y*
0 $15 Rotation angle, in degrees counterclockwise*
0 create outline with 7 corners*
4,1,7,$1,$2,$3,$4,$5,$6,$7,$8,$9,$10,$11,$12,$13,$14,$1,$2,$15*%
%AMOutline8P*
0 Free polygon, 8 corners , with rotation*
0 The origin of the aperture is its center*
0 number of corners: always 8*
0 $1 to $16 corner X, Y*
0 $17 Rotation angle, in degrees counterclockwise*
0 create outline with 8 corners*
4,1,8,$1,$2,$3,$4,$5,$6,$7,$8,$9,$10,$11,$12,$13,$14,$15,$16,$1,$2,$17*%
%AMFreePoly0*
4,1,6,0.600000,-1.000000,0.000000,-0.400000,-0.600000,-1.000000,-0.600000,0.250000,0.600000,0.250000,0.600000,-1.000000,0.600000,-1.000000,$1*%
%AMFreePoly1*
4,1,6,0.600000,-0.200000,0.600000,-0.400000,-0.600000,-0.400000,-0.600000,-0.200000,0.000000,0.400000,0.600000,-0.200000,0.600000,-0.200000,$1*%
%AMFreePoly2*
4,1,6,0.250000,0.000000,-0.250000,-0.625000,-0.500000,-0.625000,-0.500000,0.625000,-0.250000,0.625000,0.250000,0.000000,0.250000,0.000000,$1*%
%AMFreePoly3*
4,1,6,0.500000,-0.625000,-0.650000,-0.625000,-0.150000,0.000000,-0.650000,0.625000,0.500000,0.625000,0.500000,-0.625000,0.500000,-0.625000,$1*%
G04 Aperture macros list end*
%ADD10RotRect,0.900000X1.200000X4.000000*%
%ADD11RotRect,0.900000X1.200000X8.000000*%
%ADD12R,0.900000X1.200000*%
%ADD13RotRect,0.900000X1.200000X342.000000*%
%ADD14FreePoly0,90.000000*%
%ADD15FreePoly1,90.000000*%
%ADD16R,0.800000X1.000000*%
%ADD17R,1.500000X0.700000*%
%ADD18R,1.200000X0.600000*%
%ADD19RotRect,0.900000X1.200000X351.000000*%
%ADD20RotRect,0.900000X1.200000X333.000000*%
%ADD21Outline6P,-0.800000X1.000000X0.800000X1.000000X0.800000X-0.680000X0.480000X-1.000000X-0.480000X-1.000000X-0.800000X-0.680000X0.000000*%
%ADD22R,1.000000X1.550000*%
%ADD23FreePoly2,180.000000*%
%ADD24FreePoly2,0.000000*%
%ADD25FreePoly3,0.000000*%
%ADD26FreePoly3,180.000000*%
%ADD27Outline5P,-1.300000X1.300000X1.300000X1.300000X1.300000X-1.300000X-0.117000X-1.300000X-1.300000X-0.117000X351.000000*%
%ADD28RotRect,2.600000X2.600000X351.000000*%
%ADD29Outline5P,-1.300000X1.300000X1.300000X1.300000X1.300000X-1.300000X-0.117000X-1.300000X-1.300000X-0.117000X0.000000*%
%ADD30R,2.600000X2.600000*%
%ADD31Outline5P,-1.300000X1.300000X1.300000X1.300000X1.300000X-1.300000X-0.117000X-1.300000X-1.300000X-0.117000X8.000000*%
%ADD32RotRect,2.600000X2.600000X8.000000*%
%ADD33Outline5P,-1.300000X1.300000X1.300000X1.300000X1.300000X-1.300000X-0.117000X-1.300000X-1.300000X-0.117000X342.000000*%
%ADD34RotRect,2.600000X2.600000X342.000000*%
%ADD35Outline5P,-1.300000X1.300000X1.300000X1.300000X1.300000X-1.300000X-0.117000X-1.300000X-1.300000X-0.117000X333.000000*%
%ADD36RotRect,2.600000X2.600000X333.000000*%
%ADD37Outline5P,-1.300000X1.300000X1.300000X1.300000X1.300000X-1.300000X-0.117000X-1.300000X-1.300000X-0.117000X4.000000*%
%ADD38RotRect,2.600000X2.600000X4.000000*%
G04 APERTURE END LIST*
D10*
%TO.C,D7*%
X81650675Y-68755138D03*
X84942637Y-68524942D03*
%TD*%
D11*
%TO.C,D2*%
X44330038Y-71511862D03*
X47597922Y-71052590D03*
%TD*%
D12*
%TO.C,D16*%
X136642203Y-69030666D03*
X139942203Y-69030666D03*
%TD*%
D11*
%TO.C,D3*%
X65703777Y-94258582D03*
X68971661Y-93799310D03*
%TD*%
D13*
%TO.C,D20*%
X144342418Y-107439064D03*
X147480904Y-108458820D03*
%TD*%
D12*
%TO.C,D18*%
X107842203Y-102180666D03*
X111142203Y-102180666D03*
%TD*%
D10*
%TO.C,D8*%
X80464814Y-51796549D03*
X83756776Y-51566353D03*
%TD*%
D11*
%TO.C,D4*%
X63337835Y-77424025D03*
X66605719Y-76964753D03*
%TD*%
D12*
%TO.C,D13*%
X118642203Y-66480666D03*
X121942203Y-66480666D03*
%TD*%
%TO.C,D11*%
X100642203Y-46080666D03*
X103942203Y-46080666D03*
%TD*%
D14*
%TO.C,JST1*%
X158976203Y-86530666D03*
X158976203Y-84530666D03*
D15*
X159992203Y-84530666D03*
X159992203Y-86530666D03*
%TD*%
D10*
%TO.C,D6*%
X82836535Y-85713727D03*
X86128497Y-85483531D03*
%TD*%
D16*
%TO.C,PWR1*%
X165107203Y-85880666D03*
X165107203Y-93180666D03*
X167317203Y-85880666D03*
X167317203Y-93180666D03*
D17*
X164457203Y-87280666D03*
X164457203Y-90280666D03*
X164457203Y-91780666D03*
%TD*%
D18*
%TO.C,DISP1*%
X163172203Y-78480666D03*
X160632203Y-78480666D03*
X155552203Y-78480666D03*
X153012203Y-78480666D03*
X163172203Y-77580666D03*
X160632203Y-77580666D03*
X155552203Y-77580666D03*
X153012203Y-77580666D03*
%TD*%
D12*
%TO.C,D9*%
X100642203Y-80080666D03*
X103942203Y-80080666D03*
%TD*%
D19*
%TO.C,D19*%
X126299233Y-103373550D03*
X129558605Y-103889784D03*
%TD*%
D20*
%TO.C,D21*%
X161527475Y-114277100D03*
X164467797Y-115775268D03*
%TD*%
D12*
%TO.C,D12*%
X118642203Y-83480666D03*
X121942203Y-83480666D03*
%TD*%
D21*
%TO.C,RE1*%
X111992203Y-89730666D03*
X106992203Y-89730666D03*
%TD*%
D12*
%TO.C,D10*%
X100642203Y-63080666D03*
X103942203Y-63080666D03*
%TD*%
%TO.C,D17*%
X136642203Y-52030666D03*
X139942203Y-52030666D03*
%TD*%
D22*
%TO.C,RST1*%
X167442203Y-78605666D03*
X165742203Y-78605666D03*
X167442203Y-83855666D03*
X165742203Y-83855666D03*
%TD*%
D23*
%TO.C,MCU1*%
X163592203Y-47530666D03*
X163592203Y-50070666D03*
X163592203Y-52610666D03*
X163592203Y-55150666D03*
X163592203Y-57690666D03*
X163592203Y-60230666D03*
X163592203Y-62770666D03*
X163592203Y-65310666D03*
X163592203Y-67850666D03*
X163592203Y-70390666D03*
X163592203Y-72930666D03*
X163592203Y-75470666D03*
D24*
X152592203Y-75470666D03*
X152592203Y-72930666D03*
X152592203Y-70390666D03*
X152592203Y-67850666D03*
X152592203Y-65310666D03*
X152592203Y-62770666D03*
X152592203Y-60230666D03*
X152592203Y-57690666D03*
X152592203Y-55150666D03*
X152592203Y-52610666D03*
X152592203Y-50070666D03*
X152592203Y-47530666D03*
D25*
X153317203Y-47530666D03*
X153317203Y-50070666D03*
X153317203Y-52610666D03*
X153317203Y-55150666D03*
X153317203Y-57690666D03*
X153317203Y-60230666D03*
X153317203Y-62770666D03*
X153317203Y-65310666D03*
X153317203Y-67850666D03*
X153317203Y-70390666D03*
X153317203Y-72930666D03*
X153317203Y-75470666D03*
D26*
X162867203Y-75470666D03*
X162867203Y-72930666D03*
X162867203Y-70390666D03*
X162867203Y-67850666D03*
X162867203Y-65310666D03*
X162867203Y-62770666D03*
X162867203Y-60230666D03*
X162867203Y-57690666D03*
X162867203Y-55150666D03*
X162867203Y-52610666D03*
X162867203Y-50070666D03*
X162867203Y-47530666D03*
%TD*%
D11*
%TO.C,D1*%
X46695981Y-88346419D03*
X49963865Y-87887147D03*
%TD*%
D12*
%TO.C,D14*%
X118642203Y-49480666D03*
X121942203Y-49480666D03*
%TD*%
D11*
%TO.C,D5*%
X60971892Y-60589467D03*
X64239776Y-60130195D03*
%TD*%
D12*
%TO.C,D15*%
X136642203Y-86030666D03*
X139942203Y-86030666D03*
%TD*%
D27*
%TO.C,S19*%
X126407197Y-92304158D03*
D28*
X137470841Y-96283890D03*
%TD*%
D29*
%TO.C,S16*%
X135017203Y-58080666D03*
D30*
X146567203Y-60280666D03*
%TD*%
D31*
%TO.C,S4*%
X60204703Y-66806745D03*
D32*
X71948480Y-67377885D03*
%TD*%
D29*
%TO.C,S12*%
X117017203Y-72530666D03*
D30*
X128567203Y-74730666D03*
%TD*%
D31*
%TO.C,S2*%
X41196907Y-60894583D03*
D32*
X52940684Y-61465723D03*
%TD*%
D29*
%TO.C,S14*%
X117017203Y-38530666D03*
D30*
X128567203Y-40730666D03*
%TD*%
D33*
%TO.C,S20*%
X146180687Y-96522842D03*
D34*
X156485552Y-102184313D03*
%TD*%
D31*
%TO.C,S3*%
X62570646Y-83641303D03*
D32*
X74314423Y-84212443D03*
%TD*%
D31*
%TO.C,S1*%
X43562849Y-77729140D03*
D32*
X55306626Y-78300280D03*
%TD*%
D35*
%TO.C,S21*%
X165050786Y-103782844D03*
D36*
X174343132Y-110986649D03*
%TD*%
D37*
%TO.C,S6*%
X80451660Y-74903754D03*
D38*
X92126989Y-76292708D03*
%TD*%
D31*
%TO.C,S5*%
X57838761Y-49972188D03*
D32*
X69582538Y-50543328D03*
%TD*%
D29*
%TO.C,S10*%
X99017203Y-52130666D03*
D30*
X110567203Y-54330666D03*
%TD*%
D29*
%TO.C,S15*%
X135017203Y-75080666D03*
D30*
X146567203Y-77280666D03*
%TD*%
D29*
%TO.C,S17*%
X135017203Y-41080666D03*
D30*
X146567203Y-43280666D03*
%TD*%
D29*
%TO.C,S13*%
X117017203Y-55530666D03*
D30*
X128567203Y-57730666D03*
%TD*%
D37*
%TO.C,S8*%
X78079940Y-40986576D03*
D38*
X89755269Y-42375530D03*
%TD*%
D29*
%TO.C,S18*%
X106217203Y-91230666D03*
D30*
X117767203Y-93430666D03*
%TD*%
D37*
%TO.C,S7*%
X79265800Y-57945165D03*
D38*
X90941129Y-59334119D03*
%TD*%
D29*
%TO.C,S9*%
X99017203Y-69130666D03*
D30*
X110567203Y-71330666D03*
%TD*%
D29*
%TO.C,S11*%
X99017203Y-35130666D03*
D30*
X110567203Y-37330666D03*
%TD*%
M02*
