%TF.GenerationSoftware,KiCad,Pcbnew,9.0.5*%
%TF.CreationDate,2025-10-31T09:23:30-07:00*%
%TF.ProjectId,temporal_back_plate_small,74656d70-6f72-4616-9c5f-6261636b5f70,1*%
%TF.SameCoordinates,Original*%
%TF.FileFunction,Drillmap*%
%TF.FilePolarity,Positive*%
%FSLAX45Y45*%
G04 Gerber Fmt 4.5, Leading zero omitted, Abs format (unit mm)*
G04 Created by KiCad (PCBNEW 9.0.5) date 2025-10-31 09:23:30*
%MOMM*%
%LPD*%
G01*
G04 APERTURE LIST*
%ADD10C,0.150000*%
%ADD11C,0.200000*%
%ADD12C,0.220000*%
G04 APERTURE END LIST*
D10*
X5906550Y-9983674D02*
X7689033Y-9733162D01*
X7782653Y-9608924D02*
G75*
G02*
X7689033Y-9733162I-108933J-15306D01*
G01*
X7782653Y-9608924D02*
X7720738Y-9168372D01*
X7720738Y-9168372D02*
G75*
G02*
X7803584Y-9066072I89122J12522D01*
G01*
X7803598Y-9066065D02*
X9842928Y-8923461D01*
X9842942Y-8923460D02*
G75*
G02*
X9939219Y-9013241I6278J-89780D01*
G01*
X9939220Y-9013241D02*
X9939220Y-10568067D01*
X10049220Y-10678067D02*
G75*
G02*
X9939223Y-10568067I0J109997D01*
G01*
X10049220Y-10678067D02*
X11833480Y-10678067D01*
X11833480Y-10678067D02*
G75*
G02*
X11847559Y-10679175I0J-90013D01*
G01*
X11847559Y-10679175D02*
X13594305Y-10955832D01*
X13594305Y-10955832D02*
G75*
G02*
X13608037Y-10959130I-14085J-88898D01*
G01*
X13608037Y-10959129D02*
X15204518Y-11477857D01*
X15204518Y-11477857D02*
G75*
G02*
X15216993Y-11482972I-27808J-85583D01*
G01*
X16893211Y-12322059D02*
X15216993Y-11482972D01*
X17040461Y-12273634D02*
G75*
G02*
X16893212Y-12322057I-98011J49944D01*
G01*
X17040461Y-12273634D02*
X17812567Y-10758290D01*
X17764496Y-10610340D02*
G75*
G02*
X17812567Y-10758290I-49936J-98010D01*
G01*
X16938361Y-10189404D02*
X17764496Y-10610340D01*
X16938361Y-10189404D02*
G75*
G02*
X16889217Y-10109213I40859J80194D01*
G01*
X16889220Y-10109213D02*
X16889220Y-4403067D01*
X16779220Y-4293067D02*
G75*
G02*
X16889223Y-4403067I0J-110003D01*
G01*
X16779220Y-4293067D02*
X14929220Y-4293067D01*
X14929220Y-4293067D02*
G75*
G02*
X14839223Y-4203067I0J89997D01*
G01*
X14839220Y-4203067D02*
X14839220Y-3853067D01*
X14729220Y-3743067D02*
G75*
G02*
X14839223Y-3853067I0J-110003D01*
G01*
X14729220Y-3743067D02*
X13129220Y-3743067D01*
X13129220Y-3743067D02*
G75*
G02*
X13039223Y-3653067I0J89997D01*
G01*
X13039220Y-3653067D02*
X13039220Y-3598067D01*
X12929220Y-3488067D02*
G75*
G02*
X13039223Y-3598067I0J-110003D01*
G01*
X12929220Y-3488067D02*
X11329220Y-3488067D01*
X11329220Y-3488067D02*
G75*
G02*
X11239223Y-3398067I0J89997D01*
G01*
X11239220Y-3398067D02*
X11239220Y-3258067D01*
X11129220Y-3148067D02*
G75*
G02*
X11239223Y-3258067I0J-110003D01*
G01*
X11129220Y-3148067D02*
X9329220Y-3148067D01*
X9219220Y-3258067D02*
G75*
G02*
X9329220Y-3148070I110000J-3D01*
G01*
X9219220Y-3550157D02*
X9219220Y-3258067D01*
X9219220Y-3550157D02*
G75*
G02*
X9135499Y-3639941I-90000J-3D01*
G01*
X7211427Y-3774482D02*
X9135484Y-3639939D01*
X7109368Y-3891873D02*
G75*
G02*
X7211412Y-3774479I109732J7663D01*
G01*
X7109369Y-3891888D02*
X7141630Y-4353253D01*
X7141631Y-4353267D02*
G75*
G02*
X7064377Y-4448675I-89781J-6283D01*
G01*
X5166149Y-4715448D02*
X7064376Y-4448669D01*
X5072529Y-4839686D02*
G75*
G02*
X5166150Y-4715450I108931J15306D01*
G01*
X5072529Y-4839686D02*
X5782312Y-9890053D01*
X5906550Y-9983674D02*
G75*
G02*
X5782307Y-9890054I-15310J108934D01*
G01*
X9339220Y-4908067D02*
G75*
G02*
X9119220Y-4908067I-110000J0D01*
G01*
X9119220Y-4908067D02*
G75*
G02*
X9339220Y-4908067I110000J0D01*
G01*
X13003220Y-5298067D02*
G75*
G02*
X12783220Y-5298067I-110000J0D01*
G01*
X12783220Y-5298067D02*
G75*
G02*
X13003220Y-5298067I110000J0D01*
G01*
X15753238Y-10663575D02*
G75*
G02*
X15533238Y-10663575I-110000J0D01*
G01*
X15533238Y-10663575D02*
G75*
G02*
X15753238Y-10663575I110000J0D01*
G01*
X12089220Y-8868067D02*
G75*
G02*
X11869220Y-8868067I-110000J0D01*
G01*
X11869220Y-8868067D02*
G75*
G02*
X12089220Y-8868067I110000J0D01*
G01*
X7507814Y-7300069D02*
G75*
G02*
X7287814Y-7300069I-110000J0D01*
G01*
X7287814Y-7300069D02*
G75*
G02*
X7507814Y-7300069I110000J0D01*
G01*
D11*
D12*
X7287814Y-7190069D02*
X7507814Y-7410069D01*
X7507814Y-7190069D02*
X7287814Y-7410069D01*
X9119220Y-4798067D02*
X9339220Y-5018067D01*
X9339220Y-4798067D02*
X9119220Y-5018067D01*
X11869220Y-8758067D02*
X12089220Y-8978067D01*
X12089220Y-8758067D02*
X11869220Y-8978067D01*
X12783220Y-5188067D02*
X13003220Y-5408067D01*
X13003220Y-5188067D02*
X12783220Y-5408067D01*
X15533238Y-10553575D02*
X15753238Y-10773575D01*
X15753238Y-10553575D02*
X15533238Y-10773575D01*
D11*
X5324736Y-12652676D02*
X5324736Y-12452676D01*
X5324736Y-12452676D02*
X5372355Y-12452676D01*
X5372355Y-12452676D02*
X5400926Y-12462200D01*
X5400926Y-12462200D02*
X5419974Y-12481248D01*
X5419974Y-12481248D02*
X5429498Y-12500295D01*
X5429498Y-12500295D02*
X5439021Y-12538391D01*
X5439021Y-12538391D02*
X5439021Y-12566962D01*
X5439021Y-12566962D02*
X5429498Y-12605057D01*
X5429498Y-12605057D02*
X5419974Y-12624105D01*
X5419974Y-12624105D02*
X5400926Y-12643153D01*
X5400926Y-12643153D02*
X5372355Y-12652676D01*
X5372355Y-12652676D02*
X5324736Y-12652676D01*
X5524736Y-12652676D02*
X5524736Y-12519343D01*
X5524736Y-12557438D02*
X5534260Y-12538391D01*
X5534260Y-12538391D02*
X5543783Y-12528867D01*
X5543783Y-12528867D02*
X5562831Y-12519343D01*
X5562831Y-12519343D02*
X5581879Y-12519343D01*
X5648545Y-12652676D02*
X5648545Y-12519343D01*
X5648545Y-12452676D02*
X5639021Y-12462200D01*
X5639021Y-12462200D02*
X5648545Y-12471724D01*
X5648545Y-12471724D02*
X5658069Y-12462200D01*
X5658069Y-12462200D02*
X5648545Y-12452676D01*
X5648545Y-12452676D02*
X5648545Y-12471724D01*
X5772355Y-12652676D02*
X5753307Y-12643153D01*
X5753307Y-12643153D02*
X5743783Y-12624105D01*
X5743783Y-12624105D02*
X5743783Y-12452676D01*
X5877117Y-12652676D02*
X5858069Y-12643153D01*
X5858069Y-12643153D02*
X5848545Y-12624105D01*
X5848545Y-12624105D02*
X5848545Y-12452676D01*
X6105688Y-12652676D02*
X6105688Y-12452676D01*
X6105688Y-12452676D02*
X6172355Y-12595533D01*
X6172355Y-12595533D02*
X6239021Y-12452676D01*
X6239021Y-12452676D02*
X6239021Y-12652676D01*
X6419974Y-12652676D02*
X6419974Y-12547914D01*
X6419974Y-12547914D02*
X6410450Y-12528867D01*
X6410450Y-12528867D02*
X6391402Y-12519343D01*
X6391402Y-12519343D02*
X6353307Y-12519343D01*
X6353307Y-12519343D02*
X6334259Y-12528867D01*
X6419974Y-12643153D02*
X6400926Y-12652676D01*
X6400926Y-12652676D02*
X6353307Y-12652676D01*
X6353307Y-12652676D02*
X6334259Y-12643153D01*
X6334259Y-12643153D02*
X6324736Y-12624105D01*
X6324736Y-12624105D02*
X6324736Y-12605057D01*
X6324736Y-12605057D02*
X6334259Y-12586010D01*
X6334259Y-12586010D02*
X6353307Y-12576486D01*
X6353307Y-12576486D02*
X6400926Y-12576486D01*
X6400926Y-12576486D02*
X6419974Y-12566962D01*
X6515212Y-12519343D02*
X6515212Y-12719343D01*
X6515212Y-12528867D02*
X6534259Y-12519343D01*
X6534259Y-12519343D02*
X6572355Y-12519343D01*
X6572355Y-12519343D02*
X6591402Y-12528867D01*
X6591402Y-12528867D02*
X6600926Y-12538391D01*
X6600926Y-12538391D02*
X6610450Y-12557438D01*
X6610450Y-12557438D02*
X6610450Y-12614581D01*
X6610450Y-12614581D02*
X6600926Y-12633629D01*
X6600926Y-12633629D02*
X6591402Y-12643153D01*
X6591402Y-12643153D02*
X6572355Y-12652676D01*
X6572355Y-12652676D02*
X6534259Y-12652676D01*
X6534259Y-12652676D02*
X6515212Y-12643153D01*
X6696164Y-12633629D02*
X6705688Y-12643153D01*
X6705688Y-12643153D02*
X6696164Y-12652676D01*
X6696164Y-12652676D02*
X6686640Y-12643153D01*
X6686640Y-12643153D02*
X6696164Y-12633629D01*
X6696164Y-12633629D02*
X6696164Y-12652676D01*
X6696164Y-12528867D02*
X6705688Y-12538391D01*
X6705688Y-12538391D02*
X6696164Y-12547914D01*
X6696164Y-12547914D02*
X6686640Y-12538391D01*
X6686640Y-12538391D02*
X6696164Y-12528867D01*
X6696164Y-12528867D02*
X6696164Y-12547914D01*
X4863959Y-12881193D02*
X5063959Y-13081193D01*
X5063959Y-12881193D02*
X4863959Y-13081193D01*
X5315212Y-12891724D02*
X5324736Y-12882200D01*
X5324736Y-12882200D02*
X5343783Y-12872676D01*
X5343783Y-12872676D02*
X5391402Y-12872676D01*
X5391402Y-12872676D02*
X5410450Y-12882200D01*
X5410450Y-12882200D02*
X5419974Y-12891724D01*
X5419974Y-12891724D02*
X5429498Y-12910772D01*
X5429498Y-12910772D02*
X5429498Y-12929819D01*
X5429498Y-12929819D02*
X5419974Y-12958391D01*
X5419974Y-12958391D02*
X5305688Y-13072676D01*
X5305688Y-13072676D02*
X5429498Y-13072676D01*
X5515212Y-13053629D02*
X5524736Y-13063153D01*
X5524736Y-13063153D02*
X5515212Y-13072676D01*
X5515212Y-13072676D02*
X5505688Y-13063153D01*
X5505688Y-13063153D02*
X5515212Y-13053629D01*
X5515212Y-13053629D02*
X5515212Y-13072676D01*
X5600926Y-12891724D02*
X5610450Y-12882200D01*
X5610450Y-12882200D02*
X5629498Y-12872676D01*
X5629498Y-12872676D02*
X5677117Y-12872676D01*
X5677117Y-12872676D02*
X5696164Y-12882200D01*
X5696164Y-12882200D02*
X5705688Y-12891724D01*
X5705688Y-12891724D02*
X5715212Y-12910772D01*
X5715212Y-12910772D02*
X5715212Y-12929819D01*
X5715212Y-12929819D02*
X5705688Y-12958391D01*
X5705688Y-12958391D02*
X5591402Y-13072676D01*
X5591402Y-13072676D02*
X5715212Y-13072676D01*
X5839021Y-12872676D02*
X5858069Y-12872676D01*
X5858069Y-12872676D02*
X5877117Y-12882200D01*
X5877117Y-12882200D02*
X5886640Y-12891724D01*
X5886640Y-12891724D02*
X5896164Y-12910772D01*
X5896164Y-12910772D02*
X5905688Y-12948867D01*
X5905688Y-12948867D02*
X5905688Y-12996486D01*
X5905688Y-12996486D02*
X5896164Y-13034581D01*
X5896164Y-13034581D02*
X5886640Y-13053629D01*
X5886640Y-13053629D02*
X5877117Y-13063153D01*
X5877117Y-13063153D02*
X5858069Y-13072676D01*
X5858069Y-13072676D02*
X5839021Y-13072676D01*
X5839021Y-13072676D02*
X5819974Y-13063153D01*
X5819974Y-13063153D02*
X5810450Y-13053629D01*
X5810450Y-13053629D02*
X5800926Y-13034581D01*
X5800926Y-13034581D02*
X5791402Y-12996486D01*
X5791402Y-12996486D02*
X5791402Y-12948867D01*
X5791402Y-12948867D02*
X5800926Y-12910772D01*
X5800926Y-12910772D02*
X5810450Y-12891724D01*
X5810450Y-12891724D02*
X5819974Y-12882200D01*
X5819974Y-12882200D02*
X5839021Y-12872676D01*
X6029498Y-12872676D02*
X6048545Y-12872676D01*
X6048545Y-12872676D02*
X6067593Y-12882200D01*
X6067593Y-12882200D02*
X6077117Y-12891724D01*
X6077117Y-12891724D02*
X6086640Y-12910772D01*
X6086640Y-12910772D02*
X6096164Y-12948867D01*
X6096164Y-12948867D02*
X6096164Y-12996486D01*
X6096164Y-12996486D02*
X6086640Y-13034581D01*
X6086640Y-13034581D02*
X6077117Y-13053629D01*
X6077117Y-13053629D02*
X6067593Y-13063153D01*
X6067593Y-13063153D02*
X6048545Y-13072676D01*
X6048545Y-13072676D02*
X6029498Y-13072676D01*
X6029498Y-13072676D02*
X6010450Y-13063153D01*
X6010450Y-13063153D02*
X6000926Y-13053629D01*
X6000926Y-13053629D02*
X5991402Y-13034581D01*
X5991402Y-13034581D02*
X5981879Y-12996486D01*
X5981879Y-12996486D02*
X5981879Y-12948867D01*
X5981879Y-12948867D02*
X5991402Y-12910772D01*
X5991402Y-12910772D02*
X6000926Y-12891724D01*
X6000926Y-12891724D02*
X6010450Y-12882200D01*
X6010450Y-12882200D02*
X6029498Y-12872676D01*
X6181879Y-13072676D02*
X6181879Y-12939343D01*
X6181879Y-12958391D02*
X6191402Y-12948867D01*
X6191402Y-12948867D02*
X6210450Y-12939343D01*
X6210450Y-12939343D02*
X6239021Y-12939343D01*
X6239021Y-12939343D02*
X6258069Y-12948867D01*
X6258069Y-12948867D02*
X6267593Y-12967914D01*
X6267593Y-12967914D02*
X6267593Y-13072676D01*
X6267593Y-12967914D02*
X6277117Y-12948867D01*
X6277117Y-12948867D02*
X6296164Y-12939343D01*
X6296164Y-12939343D02*
X6324736Y-12939343D01*
X6324736Y-12939343D02*
X6343783Y-12948867D01*
X6343783Y-12948867D02*
X6353307Y-12967914D01*
X6353307Y-12967914D02*
X6353307Y-13072676D01*
X6448545Y-13072676D02*
X6448545Y-12939343D01*
X6448545Y-12958391D02*
X6458069Y-12948867D01*
X6458069Y-12948867D02*
X6477117Y-12939343D01*
X6477117Y-12939343D02*
X6505688Y-12939343D01*
X6505688Y-12939343D02*
X6524736Y-12948867D01*
X6524736Y-12948867D02*
X6534260Y-12967914D01*
X6534260Y-12967914D02*
X6534260Y-13072676D01*
X6534260Y-12967914D02*
X6543783Y-12948867D01*
X6543783Y-12948867D02*
X6562831Y-12939343D01*
X6562831Y-12939343D02*
X6591402Y-12939343D01*
X6591402Y-12939343D02*
X6610450Y-12948867D01*
X6610450Y-12948867D02*
X6619974Y-12967914D01*
X6619974Y-12967914D02*
X6619974Y-13072676D01*
X7010450Y-12863153D02*
X6839022Y-13120295D01*
X7267593Y-12872676D02*
X7286641Y-12872676D01*
X7286641Y-12872676D02*
X7305688Y-12882200D01*
X7305688Y-12882200D02*
X7315212Y-12891724D01*
X7315212Y-12891724D02*
X7324736Y-12910772D01*
X7324736Y-12910772D02*
X7334260Y-12948867D01*
X7334260Y-12948867D02*
X7334260Y-12996486D01*
X7334260Y-12996486D02*
X7324736Y-13034581D01*
X7324736Y-13034581D02*
X7315212Y-13053629D01*
X7315212Y-13053629D02*
X7305688Y-13063153D01*
X7305688Y-13063153D02*
X7286641Y-13072676D01*
X7286641Y-13072676D02*
X7267593Y-13072676D01*
X7267593Y-13072676D02*
X7248545Y-13063153D01*
X7248545Y-13063153D02*
X7239022Y-13053629D01*
X7239022Y-13053629D02*
X7229498Y-13034581D01*
X7229498Y-13034581D02*
X7219974Y-12996486D01*
X7219974Y-12996486D02*
X7219974Y-12948867D01*
X7219974Y-12948867D02*
X7229498Y-12910772D01*
X7229498Y-12910772D02*
X7239022Y-12891724D01*
X7239022Y-12891724D02*
X7248545Y-12882200D01*
X7248545Y-12882200D02*
X7267593Y-12872676D01*
X7419974Y-13053629D02*
X7429498Y-13063153D01*
X7429498Y-13063153D02*
X7419974Y-13072676D01*
X7419974Y-13072676D02*
X7410450Y-13063153D01*
X7410450Y-13063153D02*
X7419974Y-13053629D01*
X7419974Y-13053629D02*
X7419974Y-13072676D01*
X7553307Y-12872676D02*
X7572355Y-12872676D01*
X7572355Y-12872676D02*
X7591403Y-12882200D01*
X7591403Y-12882200D02*
X7600926Y-12891724D01*
X7600926Y-12891724D02*
X7610450Y-12910772D01*
X7610450Y-12910772D02*
X7619974Y-12948867D01*
X7619974Y-12948867D02*
X7619974Y-12996486D01*
X7619974Y-12996486D02*
X7610450Y-13034581D01*
X7610450Y-13034581D02*
X7600926Y-13053629D01*
X7600926Y-13053629D02*
X7591403Y-13063153D01*
X7591403Y-13063153D02*
X7572355Y-13072676D01*
X7572355Y-13072676D02*
X7553307Y-13072676D01*
X7553307Y-13072676D02*
X7534260Y-13063153D01*
X7534260Y-13063153D02*
X7524736Y-13053629D01*
X7524736Y-13053629D02*
X7515212Y-13034581D01*
X7515212Y-13034581D02*
X7505688Y-12996486D01*
X7505688Y-12996486D02*
X7505688Y-12948867D01*
X7505688Y-12948867D02*
X7515212Y-12910772D01*
X7515212Y-12910772D02*
X7524736Y-12891724D01*
X7524736Y-12891724D02*
X7534260Y-12882200D01*
X7534260Y-12882200D02*
X7553307Y-12872676D01*
X7734260Y-12958391D02*
X7715212Y-12948867D01*
X7715212Y-12948867D02*
X7705688Y-12939343D01*
X7705688Y-12939343D02*
X7696164Y-12920295D01*
X7696164Y-12920295D02*
X7696164Y-12910772D01*
X7696164Y-12910772D02*
X7705688Y-12891724D01*
X7705688Y-12891724D02*
X7715212Y-12882200D01*
X7715212Y-12882200D02*
X7734260Y-12872676D01*
X7734260Y-12872676D02*
X7772355Y-12872676D01*
X7772355Y-12872676D02*
X7791403Y-12882200D01*
X7791403Y-12882200D02*
X7800926Y-12891724D01*
X7800926Y-12891724D02*
X7810450Y-12910772D01*
X7810450Y-12910772D02*
X7810450Y-12920295D01*
X7810450Y-12920295D02*
X7800926Y-12939343D01*
X7800926Y-12939343D02*
X7791403Y-12948867D01*
X7791403Y-12948867D02*
X7772355Y-12958391D01*
X7772355Y-12958391D02*
X7734260Y-12958391D01*
X7734260Y-12958391D02*
X7715212Y-12967914D01*
X7715212Y-12967914D02*
X7705688Y-12977438D01*
X7705688Y-12977438D02*
X7696164Y-12996486D01*
X7696164Y-12996486D02*
X7696164Y-13034581D01*
X7696164Y-13034581D02*
X7705688Y-13053629D01*
X7705688Y-13053629D02*
X7715212Y-13063153D01*
X7715212Y-13063153D02*
X7734260Y-13072676D01*
X7734260Y-13072676D02*
X7772355Y-13072676D01*
X7772355Y-13072676D02*
X7791403Y-13063153D01*
X7791403Y-13063153D02*
X7800926Y-13053629D01*
X7800926Y-13053629D02*
X7810450Y-13034581D01*
X7810450Y-13034581D02*
X7810450Y-12996486D01*
X7810450Y-12996486D02*
X7800926Y-12977438D01*
X7800926Y-12977438D02*
X7791403Y-12967914D01*
X7791403Y-12967914D02*
X7772355Y-12958391D01*
X7981879Y-12872676D02*
X7943783Y-12872676D01*
X7943783Y-12872676D02*
X7924736Y-12882200D01*
X7924736Y-12882200D02*
X7915212Y-12891724D01*
X7915212Y-12891724D02*
X7896164Y-12920295D01*
X7896164Y-12920295D02*
X7886641Y-12958391D01*
X7886641Y-12958391D02*
X7886641Y-13034581D01*
X7886641Y-13034581D02*
X7896164Y-13053629D01*
X7896164Y-13053629D02*
X7905688Y-13063153D01*
X7905688Y-13063153D02*
X7924736Y-13072676D01*
X7924736Y-13072676D02*
X7962831Y-13072676D01*
X7962831Y-13072676D02*
X7981879Y-13063153D01*
X7981879Y-13063153D02*
X7991403Y-13053629D01*
X7991403Y-13053629D02*
X8000926Y-13034581D01*
X8000926Y-13034581D02*
X8000926Y-12986962D01*
X8000926Y-12986962D02*
X7991403Y-12967914D01*
X7991403Y-12967914D02*
X7981879Y-12958391D01*
X7981879Y-12958391D02*
X7962831Y-12948867D01*
X7962831Y-12948867D02*
X7924736Y-12948867D01*
X7924736Y-12948867D02*
X7905688Y-12958391D01*
X7905688Y-12958391D02*
X7896164Y-12967914D01*
X7896164Y-12967914D02*
X7886641Y-12986962D01*
X8172355Y-12872676D02*
X8134260Y-12872676D01*
X8134260Y-12872676D02*
X8115212Y-12882200D01*
X8115212Y-12882200D02*
X8105688Y-12891724D01*
X8105688Y-12891724D02*
X8086641Y-12920295D01*
X8086641Y-12920295D02*
X8077117Y-12958391D01*
X8077117Y-12958391D02*
X8077117Y-13034581D01*
X8077117Y-13034581D02*
X8086641Y-13053629D01*
X8086641Y-13053629D02*
X8096164Y-13063153D01*
X8096164Y-13063153D02*
X8115212Y-13072676D01*
X8115212Y-13072676D02*
X8153307Y-13072676D01*
X8153307Y-13072676D02*
X8172355Y-13063153D01*
X8172355Y-13063153D02*
X8181879Y-13053629D01*
X8181879Y-13053629D02*
X8191403Y-13034581D01*
X8191403Y-13034581D02*
X8191403Y-12986962D01*
X8191403Y-12986962D02*
X8181879Y-12967914D01*
X8181879Y-12967914D02*
X8172355Y-12958391D01*
X8172355Y-12958391D02*
X8153307Y-12948867D01*
X8153307Y-12948867D02*
X8115212Y-12948867D01*
X8115212Y-12948867D02*
X8096164Y-12958391D01*
X8096164Y-12958391D02*
X8086641Y-12967914D01*
X8086641Y-12967914D02*
X8077117Y-12986962D01*
X8267593Y-12872676D02*
X8267593Y-12910772D01*
X8343784Y-12872676D02*
X8343784Y-12910772D01*
X8639022Y-13148867D02*
X8629498Y-13139343D01*
X8629498Y-13139343D02*
X8610450Y-13110772D01*
X8610450Y-13110772D02*
X8600927Y-13091724D01*
X8600927Y-13091724D02*
X8591403Y-13063153D01*
X8591403Y-13063153D02*
X8581879Y-13015533D01*
X8581879Y-13015533D02*
X8581879Y-12977438D01*
X8581879Y-12977438D02*
X8591403Y-12929819D01*
X8591403Y-12929819D02*
X8600927Y-12901248D01*
X8600927Y-12901248D02*
X8610450Y-12882200D01*
X8610450Y-12882200D02*
X8629498Y-12853629D01*
X8629498Y-12853629D02*
X8639022Y-12844105D01*
X8810450Y-12872676D02*
X8715212Y-12872676D01*
X8715212Y-12872676D02*
X8705688Y-12967914D01*
X8705688Y-12967914D02*
X8715212Y-12958391D01*
X8715212Y-12958391D02*
X8734260Y-12948867D01*
X8734260Y-12948867D02*
X8781879Y-12948867D01*
X8781879Y-12948867D02*
X8800927Y-12958391D01*
X8800927Y-12958391D02*
X8810450Y-12967914D01*
X8810450Y-12967914D02*
X8819974Y-12986962D01*
X8819974Y-12986962D02*
X8819974Y-13034581D01*
X8819974Y-13034581D02*
X8810450Y-13053629D01*
X8810450Y-13053629D02*
X8800927Y-13063153D01*
X8800927Y-13063153D02*
X8781879Y-13072676D01*
X8781879Y-13072676D02*
X8734260Y-13072676D01*
X8734260Y-13072676D02*
X8715212Y-13063153D01*
X8715212Y-13063153D02*
X8705688Y-13053629D01*
X9058069Y-13072676D02*
X9058069Y-12872676D01*
X9143784Y-13072676D02*
X9143784Y-12967914D01*
X9143784Y-12967914D02*
X9134260Y-12948867D01*
X9134260Y-12948867D02*
X9115212Y-12939343D01*
X9115212Y-12939343D02*
X9086641Y-12939343D01*
X9086641Y-12939343D02*
X9067593Y-12948867D01*
X9067593Y-12948867D02*
X9058069Y-12958391D01*
X9267593Y-13072676D02*
X9248546Y-13063153D01*
X9248546Y-13063153D02*
X9239022Y-13053629D01*
X9239022Y-13053629D02*
X9229498Y-13034581D01*
X9229498Y-13034581D02*
X9229498Y-12977438D01*
X9229498Y-12977438D02*
X9239022Y-12958391D01*
X9239022Y-12958391D02*
X9248546Y-12948867D01*
X9248546Y-12948867D02*
X9267593Y-12939343D01*
X9267593Y-12939343D02*
X9296165Y-12939343D01*
X9296165Y-12939343D02*
X9315212Y-12948867D01*
X9315212Y-12948867D02*
X9324736Y-12958391D01*
X9324736Y-12958391D02*
X9334260Y-12977438D01*
X9334260Y-12977438D02*
X9334260Y-13034581D01*
X9334260Y-13034581D02*
X9324736Y-13053629D01*
X9324736Y-13053629D02*
X9315212Y-13063153D01*
X9315212Y-13063153D02*
X9296165Y-13072676D01*
X9296165Y-13072676D02*
X9267593Y-13072676D01*
X9448546Y-13072676D02*
X9429498Y-13063153D01*
X9429498Y-13063153D02*
X9419974Y-13044105D01*
X9419974Y-13044105D02*
X9419974Y-12872676D01*
X9600927Y-13063153D02*
X9581879Y-13072676D01*
X9581879Y-13072676D02*
X9543784Y-13072676D01*
X9543784Y-13072676D02*
X9524736Y-13063153D01*
X9524736Y-13063153D02*
X9515212Y-13044105D01*
X9515212Y-13044105D02*
X9515212Y-12967914D01*
X9515212Y-12967914D02*
X9524736Y-12948867D01*
X9524736Y-12948867D02*
X9543784Y-12939343D01*
X9543784Y-12939343D02*
X9581879Y-12939343D01*
X9581879Y-12939343D02*
X9600927Y-12948867D01*
X9600927Y-12948867D02*
X9610450Y-12967914D01*
X9610450Y-12967914D02*
X9610450Y-12986962D01*
X9610450Y-12986962D02*
X9515212Y-13006010D01*
X9686641Y-13063153D02*
X9705689Y-13072676D01*
X9705689Y-13072676D02*
X9743784Y-13072676D01*
X9743784Y-13072676D02*
X9762831Y-13063153D01*
X9762831Y-13063153D02*
X9772355Y-13044105D01*
X9772355Y-13044105D02*
X9772355Y-13034581D01*
X9772355Y-13034581D02*
X9762831Y-13015533D01*
X9762831Y-13015533D02*
X9743784Y-13006010D01*
X9743784Y-13006010D02*
X9715212Y-13006010D01*
X9715212Y-13006010D02*
X9696165Y-12996486D01*
X9696165Y-12996486D02*
X9686641Y-12977438D01*
X9686641Y-12977438D02*
X9686641Y-12967914D01*
X9686641Y-12967914D02*
X9696165Y-12948867D01*
X9696165Y-12948867D02*
X9715212Y-12939343D01*
X9715212Y-12939343D02*
X9743784Y-12939343D01*
X9743784Y-12939343D02*
X9762831Y-12948867D01*
X9839022Y-13148867D02*
X9848546Y-13139343D01*
X9848546Y-13139343D02*
X9867593Y-13110772D01*
X9867593Y-13110772D02*
X9877117Y-13091724D01*
X9877117Y-13091724D02*
X9886641Y-13063153D01*
X9886641Y-13063153D02*
X9896165Y-13015533D01*
X9896165Y-13015533D02*
X9896165Y-12977438D01*
X9896165Y-12977438D02*
X9886641Y-12929819D01*
X9886641Y-12929819D02*
X9877117Y-12901248D01*
X9877117Y-12901248D02*
X9867593Y-12882200D01*
X9867593Y-12882200D02*
X9848546Y-12853629D01*
X9848546Y-12853629D02*
X9839022Y-12844105D01*
X10200927Y-13148867D02*
X10191403Y-13139343D01*
X10191403Y-13139343D02*
X10172355Y-13110772D01*
X10172355Y-13110772D02*
X10162831Y-13091724D01*
X10162831Y-13091724D02*
X10153308Y-13063153D01*
X10153308Y-13063153D02*
X10143784Y-13015533D01*
X10143784Y-13015533D02*
X10143784Y-12977438D01*
X10143784Y-12977438D02*
X10153308Y-12929819D01*
X10153308Y-12929819D02*
X10162831Y-12901248D01*
X10162831Y-12901248D02*
X10172355Y-12882200D01*
X10172355Y-12882200D02*
X10191403Y-12853629D01*
X10191403Y-12853629D02*
X10200927Y-12844105D01*
X10277117Y-12939343D02*
X10277117Y-13072676D01*
X10277117Y-12958391D02*
X10286641Y-12948867D01*
X10286641Y-12948867D02*
X10305689Y-12939343D01*
X10305689Y-12939343D02*
X10334260Y-12939343D01*
X10334260Y-12939343D02*
X10353308Y-12948867D01*
X10353308Y-12948867D02*
X10362831Y-12967914D01*
X10362831Y-12967914D02*
X10362831Y-13072676D01*
X10486641Y-13072676D02*
X10467593Y-13063153D01*
X10467593Y-13063153D02*
X10458070Y-13053629D01*
X10458070Y-13053629D02*
X10448546Y-13034581D01*
X10448546Y-13034581D02*
X10448546Y-12977438D01*
X10448546Y-12977438D02*
X10458070Y-12958391D01*
X10458070Y-12958391D02*
X10467593Y-12948867D01*
X10467593Y-12948867D02*
X10486641Y-12939343D01*
X10486641Y-12939343D02*
X10515212Y-12939343D01*
X10515212Y-12939343D02*
X10534260Y-12948867D01*
X10534260Y-12948867D02*
X10543784Y-12958391D01*
X10543784Y-12958391D02*
X10553308Y-12977438D01*
X10553308Y-12977438D02*
X10553308Y-13034581D01*
X10553308Y-13034581D02*
X10543784Y-13053629D01*
X10543784Y-13053629D02*
X10534260Y-13063153D01*
X10534260Y-13063153D02*
X10515212Y-13072676D01*
X10515212Y-13072676D02*
X10486641Y-13072676D01*
X10610451Y-12939343D02*
X10686641Y-12939343D01*
X10639022Y-12872676D02*
X10639022Y-13044105D01*
X10639022Y-13044105D02*
X10648546Y-13063153D01*
X10648546Y-13063153D02*
X10667593Y-13072676D01*
X10667593Y-13072676D02*
X10686641Y-13072676D01*
X10905689Y-12939343D02*
X10905689Y-13139343D01*
X10905689Y-12948867D02*
X10924736Y-12939343D01*
X10924736Y-12939343D02*
X10962832Y-12939343D01*
X10962832Y-12939343D02*
X10981879Y-12948867D01*
X10981879Y-12948867D02*
X10991403Y-12958391D01*
X10991403Y-12958391D02*
X11000927Y-12977438D01*
X11000927Y-12977438D02*
X11000927Y-13034581D01*
X11000927Y-13034581D02*
X10991403Y-13053629D01*
X10991403Y-13053629D02*
X10981879Y-13063153D01*
X10981879Y-13063153D02*
X10962832Y-13072676D01*
X10962832Y-13072676D02*
X10924736Y-13072676D01*
X10924736Y-13072676D02*
X10905689Y-13063153D01*
X11115212Y-13072676D02*
X11096165Y-13063153D01*
X11096165Y-13063153D02*
X11086641Y-13044105D01*
X11086641Y-13044105D02*
X11086641Y-12872676D01*
X11277117Y-13072676D02*
X11277117Y-12967914D01*
X11277117Y-12967914D02*
X11267593Y-12948867D01*
X11267593Y-12948867D02*
X11248546Y-12939343D01*
X11248546Y-12939343D02*
X11210450Y-12939343D01*
X11210450Y-12939343D02*
X11191403Y-12948867D01*
X11277117Y-13063153D02*
X11258070Y-13072676D01*
X11258070Y-13072676D02*
X11210450Y-13072676D01*
X11210450Y-13072676D02*
X11191403Y-13063153D01*
X11191403Y-13063153D02*
X11181879Y-13044105D01*
X11181879Y-13044105D02*
X11181879Y-13025057D01*
X11181879Y-13025057D02*
X11191403Y-13006010D01*
X11191403Y-13006010D02*
X11210450Y-12996486D01*
X11210450Y-12996486D02*
X11258070Y-12996486D01*
X11258070Y-12996486D02*
X11277117Y-12986962D01*
X11343784Y-12939343D02*
X11419974Y-12939343D01*
X11372355Y-12872676D02*
X11372355Y-13044105D01*
X11372355Y-13044105D02*
X11381879Y-13063153D01*
X11381879Y-13063153D02*
X11400927Y-13072676D01*
X11400927Y-13072676D02*
X11419974Y-13072676D01*
X11562831Y-13063153D02*
X11543784Y-13072676D01*
X11543784Y-13072676D02*
X11505689Y-13072676D01*
X11505689Y-13072676D02*
X11486641Y-13063153D01*
X11486641Y-13063153D02*
X11477117Y-13044105D01*
X11477117Y-13044105D02*
X11477117Y-12967914D01*
X11477117Y-12967914D02*
X11486641Y-12948867D01*
X11486641Y-12948867D02*
X11505689Y-12939343D01*
X11505689Y-12939343D02*
X11543784Y-12939343D01*
X11543784Y-12939343D02*
X11562831Y-12948867D01*
X11562831Y-12948867D02*
X11572355Y-12967914D01*
X11572355Y-12967914D02*
X11572355Y-12986962D01*
X11572355Y-12986962D02*
X11477117Y-13006010D01*
X11743784Y-13072676D02*
X11743784Y-12872676D01*
X11743784Y-13063153D02*
X11724736Y-13072676D01*
X11724736Y-13072676D02*
X11686641Y-13072676D01*
X11686641Y-13072676D02*
X11667593Y-13063153D01*
X11667593Y-13063153D02*
X11658070Y-13053629D01*
X11658070Y-13053629D02*
X11648546Y-13034581D01*
X11648546Y-13034581D02*
X11648546Y-12977438D01*
X11648546Y-12977438D02*
X11658070Y-12958391D01*
X11658070Y-12958391D02*
X11667593Y-12948867D01*
X11667593Y-12948867D02*
X11686641Y-12939343D01*
X11686641Y-12939343D02*
X11724736Y-12939343D01*
X11724736Y-12939343D02*
X11743784Y-12948867D01*
X11819974Y-13148867D02*
X11829498Y-13139343D01*
X11829498Y-13139343D02*
X11848546Y-13110772D01*
X11848546Y-13110772D02*
X11858070Y-13091724D01*
X11858070Y-13091724D02*
X11867593Y-13063153D01*
X11867593Y-13063153D02*
X11877117Y-13015533D01*
X11877117Y-13015533D02*
X11877117Y-12977438D01*
X11877117Y-12977438D02*
X11867593Y-12929819D01*
X11867593Y-12929819D02*
X11858070Y-12901248D01*
X11858070Y-12901248D02*
X11848546Y-12882200D01*
X11848546Y-12882200D02*
X11829498Y-12853629D01*
X11829498Y-12853629D02*
X11819974Y-12844105D01*
M02*
