%TF.GenerationSoftware,KiCad,Pcbnew,9.0.5*%
%TF.CreationDate,2025-10-31T09:26:48-07:00*%
%TF.ProjectId,temporal_top_plate,74656d70-6f72-4616-9c5f-746f705f706c,1*%
%TF.SameCoordinates,Original*%
%TF.FileFunction,Drillmap*%
%TF.FilePolarity,Positive*%
%FSLAX45Y45*%
G04 Gerber Fmt 4.5, Leading zero omitted, Abs format (unit mm)*
G04 Created by KiCad (PCBNEW 9.0.5) date 2025-10-31 09:26:48*
%MOMM*%
%LPD*%
G01*
G04 APERTURE LIST*
%ADD10C,0.150000*%
%ADD11C,0.200000*%
%ADD12C,0.220000*%
G04 APERTURE END LIST*
D10*
X4005771Y-9392457D02*
X5590200Y-9169780D01*
X5590200Y-9169781D02*
G75*
G02*
X5691851Y-9246379I12530J-89120D01*
G01*
X5691849Y-9246379D02*
X5782312Y-9890053D01*
X5906550Y-9983674D02*
G75*
G02*
X5782307Y-9890054I-15310J108934D01*
G01*
X5906550Y-9983674D02*
X7689033Y-9733162D01*
X7782653Y-9608924D02*
G75*
G02*
X7689033Y-9733162I-108933J-15306D01*
G01*
X7782653Y-9608924D02*
X7720738Y-9168372D01*
X7720738Y-9168372D02*
G75*
G02*
X7803584Y-9066072I89122J12522D01*
G01*
X7803598Y-9066065D02*
X9842928Y-8923461D01*
X9842942Y-8923460D02*
G75*
G02*
X9939219Y-9013241I6278J-89780D01*
G01*
X9939220Y-9013241D02*
X9939220Y-10568067D01*
X10049220Y-10678067D02*
G75*
G02*
X9939223Y-10568067I0J109997D01*
G01*
X10049220Y-10678067D02*
X11833480Y-10678067D01*
X11833480Y-10678067D02*
G75*
G02*
X11847559Y-10679175I0J-90013D01*
G01*
X11847559Y-10679175D02*
X13594305Y-10955832D01*
X13594305Y-10955832D02*
G75*
G02*
X13608037Y-10959130I-14085J-88898D01*
G01*
X13608037Y-10959129D02*
X15204518Y-11477857D01*
X15204518Y-11477857D02*
G75*
G02*
X15216993Y-11482972I-27808J-85583D01*
G01*
X16893211Y-12322059D02*
X15216993Y-11482972D01*
X17040461Y-12273634D02*
G75*
G02*
X16893212Y-12322057I-98011J49944D01*
G01*
X17040461Y-12273634D02*
X17812567Y-10758290D01*
X17764496Y-10610340D02*
G75*
G02*
X17812567Y-10758290I-49936J-98010D01*
G01*
X14888361Y-9144877D02*
X17764496Y-10610340D01*
X14888361Y-9144877D02*
G75*
G02*
X14839224Y-9064686I40859J80187D01*
G01*
X14839220Y-9064686D02*
X14839220Y-3853067D01*
X14729220Y-3743067D02*
G75*
G02*
X14839223Y-3853067I0J-110003D01*
G01*
X14729220Y-3743067D02*
X13129220Y-3743067D01*
X13129220Y-3743067D02*
G75*
G02*
X13039223Y-3653067I0J89997D01*
G01*
X13039220Y-3653067D02*
X13039220Y-3598067D01*
X12929220Y-3488067D02*
G75*
G02*
X13039223Y-3598067I0J-110003D01*
G01*
X12929220Y-3488067D02*
X11329220Y-3488067D01*
X11329220Y-3488067D02*
G75*
G02*
X11239223Y-3398067I0J89997D01*
G01*
X11239220Y-3398067D02*
X11239220Y-3258067D01*
X11129220Y-3148067D02*
G75*
G02*
X11239223Y-3258067I0J-110003D01*
G01*
X11129220Y-3148067D02*
X9329220Y-3148067D01*
X9219220Y-3258067D02*
G75*
G02*
X9329220Y-3148070I110000J-3D01*
G01*
X9219220Y-3550157D02*
X9219220Y-3258067D01*
X9219220Y-3550157D02*
G75*
G02*
X9135499Y-3639941I-90000J-3D01*
G01*
X7211427Y-3774482D02*
X9135484Y-3639939D01*
X7109368Y-3891873D02*
G75*
G02*
X7211412Y-3774479I109732J7663D01*
G01*
X7109369Y-3891888D02*
X7141630Y-4353253D01*
X7141631Y-4353267D02*
G75*
G02*
X7064377Y-4448675I-89781J-6283D01*
G01*
X5166149Y-4715448D02*
X7064376Y-4448669D01*
X5072529Y-4839686D02*
G75*
G02*
X5166150Y-4715450I108931J15306D01*
G01*
X5072529Y-4839686D02*
X5162992Y-5483360D01*
X5162992Y-5483360D02*
G75*
G02*
X5086393Y-5585012I-89122J-12530D01*
G01*
X5086393Y-5585010D02*
X3501964Y-5807687D01*
X3408344Y-5931925D02*
G75*
G02*
X3501965Y-5807693I108926J15306D01*
G01*
X3408344Y-5931925D02*
X3881532Y-9298837D01*
X4005771Y-9392457D02*
G75*
G02*
X3881532Y-9298837I-15311J108927D01*
G01*
X4176150Y-9095859D02*
X5542720Y-8903800D01*
X5542720Y-8903800D02*
X5350661Y-7537230D01*
X5350661Y-7537230D02*
X3984091Y-7729289D01*
X3984091Y-7729289D02*
X4176150Y-9095859D01*
X3939556Y-7412403D02*
X5306126Y-7220344D01*
X5306126Y-7220344D02*
X5114067Y-5853774D01*
X5114067Y-5853774D02*
X3747497Y-6045833D01*
X3747497Y-6045833D02*
X3939556Y-7412403D01*
X6076930Y-9687075D02*
X7443500Y-9495016D01*
X7443500Y-9495016D02*
X7251441Y-8128446D01*
X7251441Y-8128446D02*
X5884871Y-8320505D01*
X5884871Y-8320505D02*
X6076930Y-9687075D01*
X5840336Y-8003619D02*
X7206905Y-7811560D01*
X7206905Y-7811560D02*
X7014847Y-6444990D01*
X7014847Y-6444990D02*
X5648277Y-6637049D01*
X5648277Y-6637049D02*
X5840336Y-8003619D01*
X5603741Y-6320163D02*
X6970311Y-6128105D01*
X6970311Y-6128105D02*
X6778252Y-4761535D01*
X6778252Y-4761535D02*
X5411682Y-4953594D01*
X5411682Y-4953594D02*
X5603741Y-6320163D01*
X7773186Y-8797532D02*
X9149825Y-8701268D01*
X9149825Y-8701268D02*
X9053561Y-7324630D01*
X9053561Y-7324630D02*
X7676922Y-7420894D01*
X7676922Y-7420894D02*
X7773186Y-8797532D01*
X7654600Y-7101673D02*
X9031239Y-7005409D01*
X9031239Y-7005409D02*
X8934975Y-5628771D01*
X8934975Y-5628771D02*
X7558336Y-5725035D01*
X7558336Y-5725035D02*
X7654600Y-7101673D01*
X7536014Y-5405814D02*
X8912653Y-5309550D01*
X8912653Y-5309550D02*
X8816389Y-3932912D01*
X8816389Y-3932912D02*
X7439750Y-4029176D01*
X7439750Y-4029176D02*
X7536014Y-5405814D01*
X9539220Y-8198067D02*
X10919220Y-8198067D01*
X10919220Y-8198067D02*
X10919220Y-6818067D01*
X10919220Y-6818067D02*
X9539220Y-6818067D01*
X9539220Y-6818067D02*
X9539220Y-8198067D01*
X9539220Y-6498067D02*
X10919220Y-6498067D01*
X10919220Y-6498067D02*
X10919220Y-5118067D01*
X10919220Y-5118067D02*
X9539220Y-5118067D01*
X9539220Y-5118067D02*
X9539220Y-6498067D01*
X9539220Y-4798067D02*
X10919220Y-4798067D01*
X10919220Y-4798067D02*
X10919220Y-3418067D01*
X10919220Y-3418067D02*
X9539220Y-3418067D01*
X9539220Y-3418067D02*
X9539220Y-4798067D01*
X11339220Y-8538067D02*
X12719220Y-8538067D01*
X12719220Y-8538067D02*
X12719220Y-7158067D01*
X12719220Y-7158067D02*
X11339220Y-7158067D01*
X11339220Y-7158067D02*
X11339220Y-8538067D01*
X11339220Y-6838067D02*
X12719220Y-6838067D01*
X12719220Y-6838067D02*
X12719220Y-5458067D01*
X12719220Y-5458067D02*
X11339220Y-5458067D01*
X11339220Y-5458067D02*
X11339220Y-6838067D01*
X11339220Y-5138067D02*
X12719220Y-5138067D01*
X12719220Y-5138067D02*
X12719220Y-3758067D01*
X12719220Y-3758067D02*
X11339220Y-3758067D01*
X11339220Y-3758067D02*
X11339220Y-5138067D01*
X13139220Y-8793067D02*
X14519220Y-8793067D01*
X14519220Y-8793067D02*
X14519220Y-7413067D01*
X14519220Y-7413067D02*
X13139220Y-7413067D01*
X13139220Y-7413067D02*
X13139220Y-8793067D01*
X13139220Y-7093067D02*
X14519220Y-7093067D01*
X14519220Y-7093067D02*
X14519220Y-5713067D01*
X14519220Y-5713067D02*
X13139220Y-5713067D01*
X13139220Y-5713067D02*
X13139220Y-7093067D01*
X13139220Y-5393067D02*
X14519220Y-5393067D01*
X14519220Y-5393067D02*
X14519220Y-4013067D01*
X14519220Y-4013067D02*
X13139220Y-4013067D01*
X13139220Y-4013067D02*
X13139220Y-5393067D01*
X10259220Y-10408067D02*
X11639220Y-10408067D01*
X11639220Y-10408067D02*
X11639220Y-9028067D01*
X11639220Y-9028067D02*
X10259220Y-9028067D01*
X10259220Y-9028067D02*
X10259220Y-10408067D01*
X12081664Y-10442888D02*
X13444674Y-10658767D01*
X13444674Y-10658767D02*
X13660554Y-9295757D01*
X13660554Y-9295757D02*
X12297544Y-9079878D01*
X12297544Y-9079878D02*
X12081664Y-10442888D01*
X13876224Y-10762373D02*
X15188682Y-11188817D01*
X15188682Y-11188817D02*
X15615125Y-9876359D01*
X15615125Y-9876359D02*
X14302667Y-9449915D01*
X14302667Y-9449915D02*
X13876224Y-10762373D01*
X15598711Y-11358656D02*
X16828300Y-11985163D01*
X16828300Y-11985163D02*
X17454807Y-10755574D01*
X17454807Y-10755574D02*
X16225218Y-10129067D01*
X16225218Y-10129067D02*
X15598711Y-11358656D01*
X9339220Y-4908067D02*
G75*
G02*
X9119220Y-4908067I-110000J0D01*
G01*
X9119220Y-4908067D02*
G75*
G02*
X9339220Y-4908067I110000J0D01*
G01*
X13003220Y-5298067D02*
G75*
G02*
X12783220Y-5298067I-110000J0D01*
G01*
X12783220Y-5298067D02*
G75*
G02*
X13003220Y-5298067I110000J0D01*
G01*
X15753238Y-10663575D02*
G75*
G02*
X15533238Y-10663575I-110000J0D01*
G01*
X15533238Y-10663575D02*
G75*
G02*
X15753238Y-10663575I110000J0D01*
G01*
X12089220Y-8868067D02*
G75*
G02*
X11869220Y-8868067I-110000J0D01*
G01*
X11869220Y-8868067D02*
G75*
G02*
X12089220Y-8868067I110000J0D01*
G01*
X7507814Y-7300069D02*
G75*
G02*
X7287814Y-7300069I-110000J0D01*
G01*
X7287814Y-7300069D02*
G75*
G02*
X7507814Y-7300069I110000J0D01*
G01*
D11*
D12*
X7287814Y-7190069D02*
X7507814Y-7410069D01*
X7507814Y-7190069D02*
X7287814Y-7410069D01*
X9119220Y-4798067D02*
X9339220Y-5018067D01*
X9339220Y-4798067D02*
X9119220Y-5018067D01*
X11869220Y-8758067D02*
X12089220Y-8978067D01*
X12089220Y-8758067D02*
X11869220Y-8978067D01*
X12783220Y-5188067D02*
X13003220Y-5408067D01*
X13003220Y-5188067D02*
X12783220Y-5408067D01*
X15533238Y-10553575D02*
X15753238Y-10773575D01*
X15753238Y-10553575D02*
X15533238Y-10773575D01*
D11*
X3660550Y-12652676D02*
X3660550Y-12452676D01*
X3660550Y-12452676D02*
X3708169Y-12452676D01*
X3708169Y-12452676D02*
X3736741Y-12462200D01*
X3736741Y-12462200D02*
X3755788Y-12481248D01*
X3755788Y-12481248D02*
X3765312Y-12500295D01*
X3765312Y-12500295D02*
X3774836Y-12538391D01*
X3774836Y-12538391D02*
X3774836Y-12566962D01*
X3774836Y-12566962D02*
X3765312Y-12605057D01*
X3765312Y-12605057D02*
X3755788Y-12624105D01*
X3755788Y-12624105D02*
X3736741Y-12643153D01*
X3736741Y-12643153D02*
X3708169Y-12652676D01*
X3708169Y-12652676D02*
X3660550Y-12652676D01*
X3860550Y-12652676D02*
X3860550Y-12519343D01*
X3860550Y-12557438D02*
X3870074Y-12538391D01*
X3870074Y-12538391D02*
X3879598Y-12528867D01*
X3879598Y-12528867D02*
X3898646Y-12519343D01*
X3898646Y-12519343D02*
X3917693Y-12519343D01*
X3984360Y-12652676D02*
X3984360Y-12519343D01*
X3984360Y-12452676D02*
X3974836Y-12462200D01*
X3974836Y-12462200D02*
X3984360Y-12471724D01*
X3984360Y-12471724D02*
X3993884Y-12462200D01*
X3993884Y-12462200D02*
X3984360Y-12452676D01*
X3984360Y-12452676D02*
X3984360Y-12471724D01*
X4108169Y-12652676D02*
X4089122Y-12643153D01*
X4089122Y-12643153D02*
X4079598Y-12624105D01*
X4079598Y-12624105D02*
X4079598Y-12452676D01*
X4212931Y-12652676D02*
X4193884Y-12643153D01*
X4193884Y-12643153D02*
X4184360Y-12624105D01*
X4184360Y-12624105D02*
X4184360Y-12452676D01*
X4441503Y-12652676D02*
X4441503Y-12452676D01*
X4441503Y-12452676D02*
X4508170Y-12595533D01*
X4508170Y-12595533D02*
X4574836Y-12452676D01*
X4574836Y-12452676D02*
X4574836Y-12652676D01*
X4755789Y-12652676D02*
X4755789Y-12547914D01*
X4755789Y-12547914D02*
X4746265Y-12528867D01*
X4746265Y-12528867D02*
X4727217Y-12519343D01*
X4727217Y-12519343D02*
X4689122Y-12519343D01*
X4689122Y-12519343D02*
X4670074Y-12528867D01*
X4755789Y-12643153D02*
X4736741Y-12652676D01*
X4736741Y-12652676D02*
X4689122Y-12652676D01*
X4689122Y-12652676D02*
X4670074Y-12643153D01*
X4670074Y-12643153D02*
X4660550Y-12624105D01*
X4660550Y-12624105D02*
X4660550Y-12605057D01*
X4660550Y-12605057D02*
X4670074Y-12586010D01*
X4670074Y-12586010D02*
X4689122Y-12576486D01*
X4689122Y-12576486D02*
X4736741Y-12576486D01*
X4736741Y-12576486D02*
X4755789Y-12566962D01*
X4851027Y-12519343D02*
X4851027Y-12719343D01*
X4851027Y-12528867D02*
X4870074Y-12519343D01*
X4870074Y-12519343D02*
X4908170Y-12519343D01*
X4908170Y-12519343D02*
X4927217Y-12528867D01*
X4927217Y-12528867D02*
X4936741Y-12538391D01*
X4936741Y-12538391D02*
X4946265Y-12557438D01*
X4946265Y-12557438D02*
X4946265Y-12614581D01*
X4946265Y-12614581D02*
X4936741Y-12633629D01*
X4936741Y-12633629D02*
X4927217Y-12643153D01*
X4927217Y-12643153D02*
X4908170Y-12652676D01*
X4908170Y-12652676D02*
X4870074Y-12652676D01*
X4870074Y-12652676D02*
X4851027Y-12643153D01*
X5031979Y-12633629D02*
X5041503Y-12643153D01*
X5041503Y-12643153D02*
X5031979Y-12652676D01*
X5031979Y-12652676D02*
X5022455Y-12643153D01*
X5022455Y-12643153D02*
X5031979Y-12633629D01*
X5031979Y-12633629D02*
X5031979Y-12652676D01*
X5031979Y-12528867D02*
X5041503Y-12538391D01*
X5041503Y-12538391D02*
X5031979Y-12547914D01*
X5031979Y-12547914D02*
X5022455Y-12538391D01*
X5022455Y-12538391D02*
X5031979Y-12528867D01*
X5031979Y-12528867D02*
X5031979Y-12547914D01*
X3199774Y-12881193D02*
X3399774Y-13081193D01*
X3399774Y-12881193D02*
X3199774Y-13081193D01*
X3651027Y-12891724D02*
X3660550Y-12882200D01*
X3660550Y-12882200D02*
X3679598Y-12872676D01*
X3679598Y-12872676D02*
X3727217Y-12872676D01*
X3727217Y-12872676D02*
X3746265Y-12882200D01*
X3746265Y-12882200D02*
X3755788Y-12891724D01*
X3755788Y-12891724D02*
X3765312Y-12910772D01*
X3765312Y-12910772D02*
X3765312Y-12929819D01*
X3765312Y-12929819D02*
X3755788Y-12958391D01*
X3755788Y-12958391D02*
X3641503Y-13072676D01*
X3641503Y-13072676D02*
X3765312Y-13072676D01*
X3851027Y-13053629D02*
X3860550Y-13063153D01*
X3860550Y-13063153D02*
X3851027Y-13072676D01*
X3851027Y-13072676D02*
X3841503Y-13063153D01*
X3841503Y-13063153D02*
X3851027Y-13053629D01*
X3851027Y-13053629D02*
X3851027Y-13072676D01*
X3936741Y-12891724D02*
X3946265Y-12882200D01*
X3946265Y-12882200D02*
X3965312Y-12872676D01*
X3965312Y-12872676D02*
X4012931Y-12872676D01*
X4012931Y-12872676D02*
X4031979Y-12882200D01*
X4031979Y-12882200D02*
X4041503Y-12891724D01*
X4041503Y-12891724D02*
X4051027Y-12910772D01*
X4051027Y-12910772D02*
X4051027Y-12929819D01*
X4051027Y-12929819D02*
X4041503Y-12958391D01*
X4041503Y-12958391D02*
X3927217Y-13072676D01*
X3927217Y-13072676D02*
X4051027Y-13072676D01*
X4174836Y-12872676D02*
X4193884Y-12872676D01*
X4193884Y-12872676D02*
X4212931Y-12882200D01*
X4212931Y-12882200D02*
X4222455Y-12891724D01*
X4222455Y-12891724D02*
X4231979Y-12910772D01*
X4231979Y-12910772D02*
X4241503Y-12948867D01*
X4241503Y-12948867D02*
X4241503Y-12996486D01*
X4241503Y-12996486D02*
X4231979Y-13034581D01*
X4231979Y-13034581D02*
X4222455Y-13053629D01*
X4222455Y-13053629D02*
X4212931Y-13063153D01*
X4212931Y-13063153D02*
X4193884Y-13072676D01*
X4193884Y-13072676D02*
X4174836Y-13072676D01*
X4174836Y-13072676D02*
X4155788Y-13063153D01*
X4155788Y-13063153D02*
X4146265Y-13053629D01*
X4146265Y-13053629D02*
X4136741Y-13034581D01*
X4136741Y-13034581D02*
X4127217Y-12996486D01*
X4127217Y-12996486D02*
X4127217Y-12948867D01*
X4127217Y-12948867D02*
X4136741Y-12910772D01*
X4136741Y-12910772D02*
X4146265Y-12891724D01*
X4146265Y-12891724D02*
X4155788Y-12882200D01*
X4155788Y-12882200D02*
X4174836Y-12872676D01*
X4365312Y-12872676D02*
X4384360Y-12872676D01*
X4384360Y-12872676D02*
X4403408Y-12882200D01*
X4403408Y-12882200D02*
X4412931Y-12891724D01*
X4412931Y-12891724D02*
X4422455Y-12910772D01*
X4422455Y-12910772D02*
X4431979Y-12948867D01*
X4431979Y-12948867D02*
X4431979Y-12996486D01*
X4431979Y-12996486D02*
X4422455Y-13034581D01*
X4422455Y-13034581D02*
X4412931Y-13053629D01*
X4412931Y-13053629D02*
X4403408Y-13063153D01*
X4403408Y-13063153D02*
X4384360Y-13072676D01*
X4384360Y-13072676D02*
X4365312Y-13072676D01*
X4365312Y-13072676D02*
X4346265Y-13063153D01*
X4346265Y-13063153D02*
X4336741Y-13053629D01*
X4336741Y-13053629D02*
X4327217Y-13034581D01*
X4327217Y-13034581D02*
X4317693Y-12996486D01*
X4317693Y-12996486D02*
X4317693Y-12948867D01*
X4317693Y-12948867D02*
X4327217Y-12910772D01*
X4327217Y-12910772D02*
X4336741Y-12891724D01*
X4336741Y-12891724D02*
X4346265Y-12882200D01*
X4346265Y-12882200D02*
X4365312Y-12872676D01*
X4517693Y-13072676D02*
X4517693Y-12939343D01*
X4517693Y-12958391D02*
X4527217Y-12948867D01*
X4527217Y-12948867D02*
X4546265Y-12939343D01*
X4546265Y-12939343D02*
X4574836Y-12939343D01*
X4574836Y-12939343D02*
X4593884Y-12948867D01*
X4593884Y-12948867D02*
X4603408Y-12967914D01*
X4603408Y-12967914D02*
X4603408Y-13072676D01*
X4603408Y-12967914D02*
X4612931Y-12948867D01*
X4612931Y-12948867D02*
X4631979Y-12939343D01*
X4631979Y-12939343D02*
X4660550Y-12939343D01*
X4660550Y-12939343D02*
X4679598Y-12948867D01*
X4679598Y-12948867D02*
X4689122Y-12967914D01*
X4689122Y-12967914D02*
X4689122Y-13072676D01*
X4784360Y-13072676D02*
X4784360Y-12939343D01*
X4784360Y-12958391D02*
X4793884Y-12948867D01*
X4793884Y-12948867D02*
X4812931Y-12939343D01*
X4812931Y-12939343D02*
X4841503Y-12939343D01*
X4841503Y-12939343D02*
X4860551Y-12948867D01*
X4860551Y-12948867D02*
X4870074Y-12967914D01*
X4870074Y-12967914D02*
X4870074Y-13072676D01*
X4870074Y-12967914D02*
X4879598Y-12948867D01*
X4879598Y-12948867D02*
X4898646Y-12939343D01*
X4898646Y-12939343D02*
X4927217Y-12939343D01*
X4927217Y-12939343D02*
X4946265Y-12948867D01*
X4946265Y-12948867D02*
X4955789Y-12967914D01*
X4955789Y-12967914D02*
X4955789Y-13072676D01*
X5346265Y-12863153D02*
X5174836Y-13120295D01*
X5603408Y-12872676D02*
X5622455Y-12872676D01*
X5622455Y-12872676D02*
X5641503Y-12882200D01*
X5641503Y-12882200D02*
X5651027Y-12891724D01*
X5651027Y-12891724D02*
X5660551Y-12910772D01*
X5660551Y-12910772D02*
X5670074Y-12948867D01*
X5670074Y-12948867D02*
X5670074Y-12996486D01*
X5670074Y-12996486D02*
X5660551Y-13034581D01*
X5660551Y-13034581D02*
X5651027Y-13053629D01*
X5651027Y-13053629D02*
X5641503Y-13063153D01*
X5641503Y-13063153D02*
X5622455Y-13072676D01*
X5622455Y-13072676D02*
X5603408Y-13072676D01*
X5603408Y-13072676D02*
X5584360Y-13063153D01*
X5584360Y-13063153D02*
X5574836Y-13053629D01*
X5574836Y-13053629D02*
X5565313Y-13034581D01*
X5565313Y-13034581D02*
X5555789Y-12996486D01*
X5555789Y-12996486D02*
X5555789Y-12948867D01*
X5555789Y-12948867D02*
X5565313Y-12910772D01*
X5565313Y-12910772D02*
X5574836Y-12891724D01*
X5574836Y-12891724D02*
X5584360Y-12882200D01*
X5584360Y-12882200D02*
X5603408Y-12872676D01*
X5755789Y-13053629D02*
X5765312Y-13063153D01*
X5765312Y-13063153D02*
X5755789Y-13072676D01*
X5755789Y-13072676D02*
X5746265Y-13063153D01*
X5746265Y-13063153D02*
X5755789Y-13053629D01*
X5755789Y-13053629D02*
X5755789Y-13072676D01*
X5889122Y-12872676D02*
X5908170Y-12872676D01*
X5908170Y-12872676D02*
X5927217Y-12882200D01*
X5927217Y-12882200D02*
X5936741Y-12891724D01*
X5936741Y-12891724D02*
X5946265Y-12910772D01*
X5946265Y-12910772D02*
X5955789Y-12948867D01*
X5955789Y-12948867D02*
X5955789Y-12996486D01*
X5955789Y-12996486D02*
X5946265Y-13034581D01*
X5946265Y-13034581D02*
X5936741Y-13053629D01*
X5936741Y-13053629D02*
X5927217Y-13063153D01*
X5927217Y-13063153D02*
X5908170Y-13072676D01*
X5908170Y-13072676D02*
X5889122Y-13072676D01*
X5889122Y-13072676D02*
X5870074Y-13063153D01*
X5870074Y-13063153D02*
X5860551Y-13053629D01*
X5860551Y-13053629D02*
X5851027Y-13034581D01*
X5851027Y-13034581D02*
X5841503Y-12996486D01*
X5841503Y-12996486D02*
X5841503Y-12948867D01*
X5841503Y-12948867D02*
X5851027Y-12910772D01*
X5851027Y-12910772D02*
X5860551Y-12891724D01*
X5860551Y-12891724D02*
X5870074Y-12882200D01*
X5870074Y-12882200D02*
X5889122Y-12872676D01*
X6070074Y-12958391D02*
X6051027Y-12948867D01*
X6051027Y-12948867D02*
X6041503Y-12939343D01*
X6041503Y-12939343D02*
X6031979Y-12920295D01*
X6031979Y-12920295D02*
X6031979Y-12910772D01*
X6031979Y-12910772D02*
X6041503Y-12891724D01*
X6041503Y-12891724D02*
X6051027Y-12882200D01*
X6051027Y-12882200D02*
X6070074Y-12872676D01*
X6070074Y-12872676D02*
X6108170Y-12872676D01*
X6108170Y-12872676D02*
X6127217Y-12882200D01*
X6127217Y-12882200D02*
X6136741Y-12891724D01*
X6136741Y-12891724D02*
X6146265Y-12910772D01*
X6146265Y-12910772D02*
X6146265Y-12920295D01*
X6146265Y-12920295D02*
X6136741Y-12939343D01*
X6136741Y-12939343D02*
X6127217Y-12948867D01*
X6127217Y-12948867D02*
X6108170Y-12958391D01*
X6108170Y-12958391D02*
X6070074Y-12958391D01*
X6070074Y-12958391D02*
X6051027Y-12967914D01*
X6051027Y-12967914D02*
X6041503Y-12977438D01*
X6041503Y-12977438D02*
X6031979Y-12996486D01*
X6031979Y-12996486D02*
X6031979Y-13034581D01*
X6031979Y-13034581D02*
X6041503Y-13053629D01*
X6041503Y-13053629D02*
X6051027Y-13063153D01*
X6051027Y-13063153D02*
X6070074Y-13072676D01*
X6070074Y-13072676D02*
X6108170Y-13072676D01*
X6108170Y-13072676D02*
X6127217Y-13063153D01*
X6127217Y-13063153D02*
X6136741Y-13053629D01*
X6136741Y-13053629D02*
X6146265Y-13034581D01*
X6146265Y-13034581D02*
X6146265Y-12996486D01*
X6146265Y-12996486D02*
X6136741Y-12977438D01*
X6136741Y-12977438D02*
X6127217Y-12967914D01*
X6127217Y-12967914D02*
X6108170Y-12958391D01*
X6317693Y-12872676D02*
X6279598Y-12872676D01*
X6279598Y-12872676D02*
X6260551Y-12882200D01*
X6260551Y-12882200D02*
X6251027Y-12891724D01*
X6251027Y-12891724D02*
X6231979Y-12920295D01*
X6231979Y-12920295D02*
X6222455Y-12958391D01*
X6222455Y-12958391D02*
X6222455Y-13034581D01*
X6222455Y-13034581D02*
X6231979Y-13053629D01*
X6231979Y-13053629D02*
X6241503Y-13063153D01*
X6241503Y-13063153D02*
X6260551Y-13072676D01*
X6260551Y-13072676D02*
X6298646Y-13072676D01*
X6298646Y-13072676D02*
X6317693Y-13063153D01*
X6317693Y-13063153D02*
X6327217Y-13053629D01*
X6327217Y-13053629D02*
X6336741Y-13034581D01*
X6336741Y-13034581D02*
X6336741Y-12986962D01*
X6336741Y-12986962D02*
X6327217Y-12967914D01*
X6327217Y-12967914D02*
X6317693Y-12958391D01*
X6317693Y-12958391D02*
X6298646Y-12948867D01*
X6298646Y-12948867D02*
X6260551Y-12948867D01*
X6260551Y-12948867D02*
X6241503Y-12958391D01*
X6241503Y-12958391D02*
X6231979Y-12967914D01*
X6231979Y-12967914D02*
X6222455Y-12986962D01*
X6508170Y-12872676D02*
X6470074Y-12872676D01*
X6470074Y-12872676D02*
X6451027Y-12882200D01*
X6451027Y-12882200D02*
X6441503Y-12891724D01*
X6441503Y-12891724D02*
X6422455Y-12920295D01*
X6422455Y-12920295D02*
X6412932Y-12958391D01*
X6412932Y-12958391D02*
X6412932Y-13034581D01*
X6412932Y-13034581D02*
X6422455Y-13053629D01*
X6422455Y-13053629D02*
X6431979Y-13063153D01*
X6431979Y-13063153D02*
X6451027Y-13072676D01*
X6451027Y-13072676D02*
X6489122Y-13072676D01*
X6489122Y-13072676D02*
X6508170Y-13063153D01*
X6508170Y-13063153D02*
X6517693Y-13053629D01*
X6517693Y-13053629D02*
X6527217Y-13034581D01*
X6527217Y-13034581D02*
X6527217Y-12986962D01*
X6527217Y-12986962D02*
X6517693Y-12967914D01*
X6517693Y-12967914D02*
X6508170Y-12958391D01*
X6508170Y-12958391D02*
X6489122Y-12948867D01*
X6489122Y-12948867D02*
X6451027Y-12948867D01*
X6451027Y-12948867D02*
X6431979Y-12958391D01*
X6431979Y-12958391D02*
X6422455Y-12967914D01*
X6422455Y-12967914D02*
X6412932Y-12986962D01*
X6603408Y-12872676D02*
X6603408Y-12910772D01*
X6679598Y-12872676D02*
X6679598Y-12910772D01*
X6974836Y-13148867D02*
X6965313Y-13139343D01*
X6965313Y-13139343D02*
X6946265Y-13110772D01*
X6946265Y-13110772D02*
X6936741Y-13091724D01*
X6936741Y-13091724D02*
X6927217Y-13063153D01*
X6927217Y-13063153D02*
X6917694Y-13015533D01*
X6917694Y-13015533D02*
X6917694Y-12977438D01*
X6917694Y-12977438D02*
X6927217Y-12929819D01*
X6927217Y-12929819D02*
X6936741Y-12901248D01*
X6936741Y-12901248D02*
X6946265Y-12882200D01*
X6946265Y-12882200D02*
X6965313Y-12853629D01*
X6965313Y-12853629D02*
X6974836Y-12844105D01*
X7146265Y-12872676D02*
X7051027Y-12872676D01*
X7051027Y-12872676D02*
X7041503Y-12967914D01*
X7041503Y-12967914D02*
X7051027Y-12958391D01*
X7051027Y-12958391D02*
X7070074Y-12948867D01*
X7070074Y-12948867D02*
X7117694Y-12948867D01*
X7117694Y-12948867D02*
X7136741Y-12958391D01*
X7136741Y-12958391D02*
X7146265Y-12967914D01*
X7146265Y-12967914D02*
X7155789Y-12986962D01*
X7155789Y-12986962D02*
X7155789Y-13034581D01*
X7155789Y-13034581D02*
X7146265Y-13053629D01*
X7146265Y-13053629D02*
X7136741Y-13063153D01*
X7136741Y-13063153D02*
X7117694Y-13072676D01*
X7117694Y-13072676D02*
X7070074Y-13072676D01*
X7070074Y-13072676D02*
X7051027Y-13063153D01*
X7051027Y-13063153D02*
X7041503Y-13053629D01*
X7393884Y-13072676D02*
X7393884Y-12872676D01*
X7479598Y-13072676D02*
X7479598Y-12967914D01*
X7479598Y-12967914D02*
X7470075Y-12948867D01*
X7470075Y-12948867D02*
X7451027Y-12939343D01*
X7451027Y-12939343D02*
X7422455Y-12939343D01*
X7422455Y-12939343D02*
X7403408Y-12948867D01*
X7403408Y-12948867D02*
X7393884Y-12958391D01*
X7603408Y-13072676D02*
X7584360Y-13063153D01*
X7584360Y-13063153D02*
X7574836Y-13053629D01*
X7574836Y-13053629D02*
X7565313Y-13034581D01*
X7565313Y-13034581D02*
X7565313Y-12977438D01*
X7565313Y-12977438D02*
X7574836Y-12958391D01*
X7574836Y-12958391D02*
X7584360Y-12948867D01*
X7584360Y-12948867D02*
X7603408Y-12939343D01*
X7603408Y-12939343D02*
X7631979Y-12939343D01*
X7631979Y-12939343D02*
X7651027Y-12948867D01*
X7651027Y-12948867D02*
X7660551Y-12958391D01*
X7660551Y-12958391D02*
X7670075Y-12977438D01*
X7670075Y-12977438D02*
X7670075Y-13034581D01*
X7670075Y-13034581D02*
X7660551Y-13053629D01*
X7660551Y-13053629D02*
X7651027Y-13063153D01*
X7651027Y-13063153D02*
X7631979Y-13072676D01*
X7631979Y-13072676D02*
X7603408Y-13072676D01*
X7784360Y-13072676D02*
X7765313Y-13063153D01*
X7765313Y-13063153D02*
X7755789Y-13044105D01*
X7755789Y-13044105D02*
X7755789Y-12872676D01*
X7936741Y-13063153D02*
X7917694Y-13072676D01*
X7917694Y-13072676D02*
X7879598Y-13072676D01*
X7879598Y-13072676D02*
X7860551Y-13063153D01*
X7860551Y-13063153D02*
X7851027Y-13044105D01*
X7851027Y-13044105D02*
X7851027Y-12967914D01*
X7851027Y-12967914D02*
X7860551Y-12948867D01*
X7860551Y-12948867D02*
X7879598Y-12939343D01*
X7879598Y-12939343D02*
X7917694Y-12939343D01*
X7917694Y-12939343D02*
X7936741Y-12948867D01*
X7936741Y-12948867D02*
X7946265Y-12967914D01*
X7946265Y-12967914D02*
X7946265Y-12986962D01*
X7946265Y-12986962D02*
X7851027Y-13006010D01*
X8022456Y-13063153D02*
X8041503Y-13072676D01*
X8041503Y-13072676D02*
X8079598Y-13072676D01*
X8079598Y-13072676D02*
X8098646Y-13063153D01*
X8098646Y-13063153D02*
X8108170Y-13044105D01*
X8108170Y-13044105D02*
X8108170Y-13034581D01*
X8108170Y-13034581D02*
X8098646Y-13015533D01*
X8098646Y-13015533D02*
X8079598Y-13006010D01*
X8079598Y-13006010D02*
X8051027Y-13006010D01*
X8051027Y-13006010D02*
X8031979Y-12996486D01*
X8031979Y-12996486D02*
X8022456Y-12977438D01*
X8022456Y-12977438D02*
X8022456Y-12967914D01*
X8022456Y-12967914D02*
X8031979Y-12948867D01*
X8031979Y-12948867D02*
X8051027Y-12939343D01*
X8051027Y-12939343D02*
X8079598Y-12939343D01*
X8079598Y-12939343D02*
X8098646Y-12948867D01*
X8174837Y-13148867D02*
X8184360Y-13139343D01*
X8184360Y-13139343D02*
X8203408Y-13110772D01*
X8203408Y-13110772D02*
X8212932Y-13091724D01*
X8212932Y-13091724D02*
X8222456Y-13063153D01*
X8222456Y-13063153D02*
X8231979Y-13015533D01*
X8231979Y-13015533D02*
X8231979Y-12977438D01*
X8231979Y-12977438D02*
X8222456Y-12929819D01*
X8222456Y-12929819D02*
X8212932Y-12901248D01*
X8212932Y-12901248D02*
X8203408Y-12882200D01*
X8203408Y-12882200D02*
X8184360Y-12853629D01*
X8184360Y-12853629D02*
X8174837Y-12844105D01*
X8536741Y-13148867D02*
X8527218Y-13139343D01*
X8527218Y-13139343D02*
X8508170Y-13110772D01*
X8508170Y-13110772D02*
X8498646Y-13091724D01*
X8498646Y-13091724D02*
X8489122Y-13063153D01*
X8489122Y-13063153D02*
X8479599Y-13015533D01*
X8479599Y-13015533D02*
X8479599Y-12977438D01*
X8479599Y-12977438D02*
X8489122Y-12929819D01*
X8489122Y-12929819D02*
X8498646Y-12901248D01*
X8498646Y-12901248D02*
X8508170Y-12882200D01*
X8508170Y-12882200D02*
X8527218Y-12853629D01*
X8527218Y-12853629D02*
X8536741Y-12844105D01*
X8612932Y-12939343D02*
X8612932Y-13072676D01*
X8612932Y-12958391D02*
X8622456Y-12948867D01*
X8622456Y-12948867D02*
X8641503Y-12939343D01*
X8641503Y-12939343D02*
X8670075Y-12939343D01*
X8670075Y-12939343D02*
X8689122Y-12948867D01*
X8689122Y-12948867D02*
X8698646Y-12967914D01*
X8698646Y-12967914D02*
X8698646Y-13072676D01*
X8822456Y-13072676D02*
X8803408Y-13063153D01*
X8803408Y-13063153D02*
X8793884Y-13053629D01*
X8793884Y-13053629D02*
X8784360Y-13034581D01*
X8784360Y-13034581D02*
X8784360Y-12977438D01*
X8784360Y-12977438D02*
X8793884Y-12958391D01*
X8793884Y-12958391D02*
X8803408Y-12948867D01*
X8803408Y-12948867D02*
X8822456Y-12939343D01*
X8822456Y-12939343D02*
X8851027Y-12939343D01*
X8851027Y-12939343D02*
X8870075Y-12948867D01*
X8870075Y-12948867D02*
X8879599Y-12958391D01*
X8879599Y-12958391D02*
X8889122Y-12977438D01*
X8889122Y-12977438D02*
X8889122Y-13034581D01*
X8889122Y-13034581D02*
X8879599Y-13053629D01*
X8879599Y-13053629D02*
X8870075Y-13063153D01*
X8870075Y-13063153D02*
X8851027Y-13072676D01*
X8851027Y-13072676D02*
X8822456Y-13072676D01*
X8946265Y-12939343D02*
X9022456Y-12939343D01*
X8974837Y-12872676D02*
X8974837Y-13044105D01*
X8974837Y-13044105D02*
X8984360Y-13063153D01*
X8984360Y-13063153D02*
X9003408Y-13072676D01*
X9003408Y-13072676D02*
X9022456Y-13072676D01*
X9241503Y-12939343D02*
X9241503Y-13139343D01*
X9241503Y-12948867D02*
X9260551Y-12939343D01*
X9260551Y-12939343D02*
X9298646Y-12939343D01*
X9298646Y-12939343D02*
X9317694Y-12948867D01*
X9317694Y-12948867D02*
X9327218Y-12958391D01*
X9327218Y-12958391D02*
X9336741Y-12977438D01*
X9336741Y-12977438D02*
X9336741Y-13034581D01*
X9336741Y-13034581D02*
X9327218Y-13053629D01*
X9327218Y-13053629D02*
X9317694Y-13063153D01*
X9317694Y-13063153D02*
X9298646Y-13072676D01*
X9298646Y-13072676D02*
X9260551Y-13072676D01*
X9260551Y-13072676D02*
X9241503Y-13063153D01*
X9451027Y-13072676D02*
X9431980Y-13063153D01*
X9431980Y-13063153D02*
X9422456Y-13044105D01*
X9422456Y-13044105D02*
X9422456Y-12872676D01*
X9612932Y-13072676D02*
X9612932Y-12967914D01*
X9612932Y-12967914D02*
X9603408Y-12948867D01*
X9603408Y-12948867D02*
X9584361Y-12939343D01*
X9584361Y-12939343D02*
X9546265Y-12939343D01*
X9546265Y-12939343D02*
X9527218Y-12948867D01*
X9612932Y-13063153D02*
X9593884Y-13072676D01*
X9593884Y-13072676D02*
X9546265Y-13072676D01*
X9546265Y-13072676D02*
X9527218Y-13063153D01*
X9527218Y-13063153D02*
X9517694Y-13044105D01*
X9517694Y-13044105D02*
X9517694Y-13025057D01*
X9517694Y-13025057D02*
X9527218Y-13006010D01*
X9527218Y-13006010D02*
X9546265Y-12996486D01*
X9546265Y-12996486D02*
X9593884Y-12996486D01*
X9593884Y-12996486D02*
X9612932Y-12986962D01*
X9679599Y-12939343D02*
X9755789Y-12939343D01*
X9708170Y-12872676D02*
X9708170Y-13044105D01*
X9708170Y-13044105D02*
X9717694Y-13063153D01*
X9717694Y-13063153D02*
X9736741Y-13072676D01*
X9736741Y-13072676D02*
X9755789Y-13072676D01*
X9898646Y-13063153D02*
X9879599Y-13072676D01*
X9879599Y-13072676D02*
X9841503Y-13072676D01*
X9841503Y-13072676D02*
X9822456Y-13063153D01*
X9822456Y-13063153D02*
X9812932Y-13044105D01*
X9812932Y-13044105D02*
X9812932Y-12967914D01*
X9812932Y-12967914D02*
X9822456Y-12948867D01*
X9822456Y-12948867D02*
X9841503Y-12939343D01*
X9841503Y-12939343D02*
X9879599Y-12939343D01*
X9879599Y-12939343D02*
X9898646Y-12948867D01*
X9898646Y-12948867D02*
X9908170Y-12967914D01*
X9908170Y-12967914D02*
X9908170Y-12986962D01*
X9908170Y-12986962D02*
X9812932Y-13006010D01*
X10079599Y-13072676D02*
X10079599Y-12872676D01*
X10079599Y-13063153D02*
X10060551Y-13072676D01*
X10060551Y-13072676D02*
X10022456Y-13072676D01*
X10022456Y-13072676D02*
X10003408Y-13063153D01*
X10003408Y-13063153D02*
X9993884Y-13053629D01*
X9993884Y-13053629D02*
X9984361Y-13034581D01*
X9984361Y-13034581D02*
X9984361Y-12977438D01*
X9984361Y-12977438D02*
X9993884Y-12958391D01*
X9993884Y-12958391D02*
X10003408Y-12948867D01*
X10003408Y-12948867D02*
X10022456Y-12939343D01*
X10022456Y-12939343D02*
X10060551Y-12939343D01*
X10060551Y-12939343D02*
X10079599Y-12948867D01*
X10155789Y-13148867D02*
X10165313Y-13139343D01*
X10165313Y-13139343D02*
X10184361Y-13110772D01*
X10184361Y-13110772D02*
X10193884Y-13091724D01*
X10193884Y-13091724D02*
X10203408Y-13063153D01*
X10203408Y-13063153D02*
X10212932Y-13015533D01*
X10212932Y-13015533D02*
X10212932Y-12977438D01*
X10212932Y-12977438D02*
X10203408Y-12929819D01*
X10203408Y-12929819D02*
X10193884Y-12901248D01*
X10193884Y-12901248D02*
X10184361Y-12882200D01*
X10184361Y-12882200D02*
X10165313Y-12853629D01*
X10165313Y-12853629D02*
X10155789Y-12844105D01*
M02*
