<?xml version="1.0" encoding="UTF-8" standalone="no"?>
<svg
   version="1.1"
   x="0px"
   y="0px"
   viewBox="0 0 109.60629 79.370239"
   enable-background="new 0 0 100 100"
   xml:space="preserve"
   id="svg2"
   sodipodi:docname="neuron.svg"
   inkscape:version="1.4.2 (ebf0e940, 2025-05-08)"
   width="109.60629"
   height="79.370239"
   xmlns:inkscape="http://www.inkscape.org/namespaces/inkscape"
   xmlns:sodipodi="http://sodipodi.sourceforge.net/DTD/sodipodi-0.dtd"
   xmlns="http://www.w3.org/2000/svg"
   xmlns:svg="http://www.w3.org/2000/svg"><defs
     id="defs2"><filter
       style="color-interpolation-filters:sRGB"
       inkscape:label="Channel Transparency"
       id="filter968"
       x="-0.011240248"
       y="-0.014875048"
       width="1.0224805"
       height="1.0297501"><feGaussianBlur
         stdDeviation="0.5 0.5"
         result="fbSourceGraphic"
         id="feGaussianBlur968" /><feColorMatrix
         result="fbSourceGraphicAlpha"
         in="fbSourceGraphic"
         values="0 0 0 -1 0 0 0 0 -1 0 0 0 0 -1 0 0 0 0 1 0"
         id="feColorMatrix1049" /><feColorMatrix
         id="feColorMatrix1050"
         values="1 0 0 0 0 0 1 0 0 0 0 0 1 0 0 0 -8 0 10 0 "
         in="fbSourceGraphic"
         result="colormatrix" /><feComposite
         id="feComposite1050"
         in="colormatrix"
         in2="fbSourceGraphic"
         operator="in"
         result="composite1" /></filter></defs><sodipodi:namedview
     id="namedview2"
     pagecolor="#505050"
     bordercolor="#eeeeee"
     borderopacity="1"
     inkscape:showpageshadow="0"
     inkscape:pageopacity="0"
     inkscape:pagecheckerboard="0"
     inkscape:deskcolor="#505050"
     inkscape:zoom="10.543679"
     inkscape:cx="48.038263"
     inkscape:cy="17.972854"
     inkscape:window-width="1912"
     inkscape:window-height="2094"
     inkscape:window-x="1923"
     inkscape:window-y="25"
     inkscape:window-maximized="0"
     inkscape:current-layer="svg2"
     showgrid="true"><inkscape:grid
       id="grid1"
       units="px"
       originx="-6.75073"
       originy="-12.165283"
       spacingx="1"
       spacingy="1"
       empcolor="#0099e5"
       empopacity="0.30196078"
       color="#0099e5"
       opacity="0.14901961"
       empspacing="5"
       enabled="true"
       visible="true" /></sodipodi:namedview><path
     id="path1-1"
     style="display:block;fill:#e2725b;stroke-width:0.033668"
     d="M 79.297472,7.7992371e-5 C 79.246172,0.00102259 79.191955,0.00364799 79.132797,0.00953799 c -0.595225,0.3138585 -0.443328,0.8019372 -0.473441,1.38266841 -0.07179,1.3843237 0.269739,2.7103522 0.926298,3.9235326 0.731473,1.3084704 1.420232,2.4779275 1.7609,3.9706898 0.191413,0.8388152 0.254251,1.6489232 0.381747,2.4993662 0.06918,0.461509 0.236282,1.019552 0.361162,1.480756 C 81.455271,13.079424 80.838484,12.815403 80.212542,12.600688 78.323715,11.952723 76.168425,11.307325 75.14504,9.4128168 74.798669,8.7715788 74.596941,8.0428748 74.484468,7.3246679 74.331185,6.3459433 74.318257,2.3271332 73.374783,2.0146945 c -0.171761,-0.056856 -0.365251,-0.030973 -0.523967,0.052819 -0.163242,0.086226 -0.287608,0.2283839 -0.336835,0.40933 -0.09886,0.3633118 0.159634,0.8708117 0.235785,1.2336485 0.340603,1.622296 0.09636,3.3407434 0.662442,4.9213938 -1.271567,-0.8402351 -2.8236,-1.3911938 -4.376988,-1.275149 -0.583959,0.043606 -0.764443,0.8698113 -0.293796,1.24874 0.366391,0.182941 1.499489,0.257221 1.94616,0.350854 0.467126,0.09596 0.921671,0.244484 1.354827,0.445171 1.797649,0.8325952 2.588363,2.1093042 4.186117,3.1746652 1.35527,0.903683 3.02729,1.2044 4.347047,2.120216 1.217446,0.844799 1.405401,2.482138 0.68677,3.716039 -1.477936,2.606057 -4.725937,2.11924 -6.921968,0.80357 -1.687859,-1.011243 -2.594108,-2.465209 -3.315957,-4.251752 -0.547708,-1.35549 -2.437442,-3.527069 -4.010213,-3.431204 -0.259064,0.0968 -0.317505,0.215957 -0.417302,0.501759 -0.04605,0.131865 -0.03568,0.425066 0.07673,0.5376 0.316861,0.298647 0.898747,0.508678 1.255647,0.754525 0.324273,0.223335 0.624893,0.44247 0.879515,0.713027 0.769099,0.817249 1.108771,1.823668 1.588741,2.810607 0.18125,0.372675 0.406737,0.735098 0.608175,1.097835 -1.540947,0.01197 -2.743225,-0.0032 -4.232899,-0.473465 -0.591771,-0.186827 -1.211815,-0.50445 -1.81891,-0.611166 -0.212137,-0.03729 -0.405722,-0.0032 -0.563264,0.152792 -0.129374,0.128078 -0.230893,0.28899 -0.232043,0.477237 -0.0011,0.181758 0.09783,0.352647 0.224557,0.475351 0.634158,0.613959 3.866284,1.390064 4.820489,1.490188 0.887574,0.09312 2.098546,0.03546 2.906142,0.28672 0.690394,0.214749 1.288264,0.682415 1.906862,1.045017 0.433425,0.254062 0.890926,0.455236 1.352956,0.648892 -2.559974,1.78536 -2.909588,2.751543 -6.433556,2.401278 -0.578996,-0.05753 -1.607092,-0.293865 -2.129549,-0.273516 -0.42858,0.04818 -0.536261,0.741012 -0.232042,1.078972 0.474001,0.526613 1.763345,0.550304 2.44767,0.673414 0.76541,0.108137 2.272944,0.06638 3.033391,-0.122611 -0.454015,1.638081 -1.320227,3.03036 -2.820061,3.876375 -0.347277,0.191662 -0.712672,0.345615 -1.092845,0.456489 -0.555184,0.158871 -1.954546,0.256682 -1.478332,1.252511 0.481479,1.006985 2.82804,-0.16723 3.411394,-0.545144 0.57021,-0.373859 1.096831,-0.810937 1.570027,-1.303443 0.522751,-0.551221 1.242449,-1.495508 1.566285,-2.540864 0.572154,-2.309167 2.897084,-4.151625 5.269603,-4.09896 1.08824,0.01751 2.122868,0.480216 2.864972,1.282693 0.768999,0.832528 1.182912,1.937669 1.150854,3.074692 -0.04751,1.415185 -0.02778,1.764546 -0.81269,2.889836 C 68.022571,49.128479 1.0155591,26.387096 9.162391,64.39722 c 0.195539,0.833969 0.260132,1.555498 0.318462,1.987934 -0.503499,1.785442 -2.4007544,3.007026 -4.231027,2.789858 -0.416204,-0.04947 -0.9580466,-0.06417 -1.3155294,-0.0547 -1.3266315,0.02963 -2.5991365,0.528728 -3.59665379,1.410962 -0.3709835,0.331432 -0.4827206,0.73298 -0.097308,1.112926 0.3954144,0.389638 0.7554741,0.185205 1.13588379,-0.09432 0.5087268,-0.373578 1.0693731,-0.70876 1.6823058,-0.873363 0.8031952,-0.210086 1.6085293,-0.0793 2.4196014,-0.05282 -0.9382266,1.116759 -2.1886093,3.437661 -2.2474411,4.934596 -0.016631,0.424022 0.4255499,0.691246 0.7241962,0.645119 0.5374283,-0.142402 0.6355398,-0.540716 0.7653649,-1.046904 0.5651139,-2.204425 1.8512374,-4.046985 3.7463582,-5.29111 0.83782,-0.55012 1.627954,-1.519589 2.148262,-2.371097 1.079148,1.413369 1.11421,3.629119 0.276953,5.130774 -0.404898,0.726172 -0.837986,1.402728 -1.293073,2.097581 -0.562297,0.94485 -0.936851,2.028421 -1.148984,3.116191 -0.105231,0.538198 -0.195475,1.402042 0.567007,1.526027 0.23187,0.03773 0.4823933,-0.129696 0.602561,-0.305582 0.189252,-0.32864 0.309884,-1.607449 0.501511,-2.163603 0.314228,-0.910301 0.554989,-1.295331 0.999278,-2.108899 0.04784,0.305057 0.111617,0.888559 0.179646,1.160083 0.152891,0.611027 0.67261,2.301281 1.162081,2.638953 0.174728,0.120451 0.390145,0.16434 0.596948,0.120725 0.328057,-0.07193 0.627509,-0.497113 0.512738,-0.788479 -0.347974,-0.882106 -0.818167,-1.665971 -0.97308,-2.629522 -0.11735,-0.728644 -0.17081,-1.542403 -0.06924,-2.278667 0.185919,-1.131679 0.418506,-1.7639 0.278824,-2.93699 1.349478,0.913839 2.488557,1.882056 3.065203,3.463272 0.355732,0.974333 0.842517,1.929396 1.525116,2.70686 0.440755,0.502204 0.963068,0.783881 1.382896,0.09432 0.07282,-0.119179 0.14885,-0.290134 0.08421,-0.426306 -0.251075,-0.552088 -0.760217,-1.000231 -1.055418,-1.565641 -0.451495,-0.8648 -0.711349,-1.648603 -1.178923,-2.512569 1.113529,0.123615 2.092127,0.565054 2.879942,1.36569 0.791704,0.805167 1.826617,-0.291371 1.169568,-0.958247 -0.43502,-0.441824 -1.113617,-0.890294 -1.654245,-1.18838 C 18.008093,70.48326 16.864567,70.499827 15.779666,70.116281 14.3497,69.611202 13.442714,68.69049 12.555402,67.532031 11.917609,66.172297 11.625348,65.546953 11.317718,64.134576 2.9484694,28.331787 69.503801,51.334636 83.788607,30.315061 c 1.044364,-1.565315 1.578939,-2.976578 3.64905,-3.099215 2.406388,-0.161813 4.112601,1.930837 4.401316,4.180072 0.07981,0.622646 0.09848,1.232276 0.224562,1.854246 0.365854,1.803715 1.462353,3.426603 2.930464,4.50829 0.251504,0.185239 0.598761,0.474283 0.920684,0.471579 0.182089,-0.0024 0.355172,-0.07688 0.480923,-0.209381 0.275649,-0.29138 0.282537,-0.822856 -0.04302,-1.086517 -0.301469,-0.244732 -0.647536,-0.423687 -0.931903,-0.690391 -1.121036,-0.986702 -1.972278,-2.347259 -2.129552,-3.861285 -0.01734,-0.166307 -0.02357,-0.381397 -0.01495,-0.54703 0.686438,0.303886 1.21909,0.480817 1.964882,0.631915 0.424203,0.08586 0.919036,0.162588 1.330496,0.269743 1.008698,0.214985 1.991019,0.633138 2.825679,1.244967 0.30281,0.221746 0.682372,0.663584 1.021732,0.777161 0.63513,0.21262 1.23804,-0.578099 0.78969,-1.131788 -0.33601,-0.415436 -0.84406,-0.715704 -1.270612,-1.028041 -1.00434,-0.669632 -2.09832,-1.103152 -3.267315,-1.373236 -0.781674,-0.180507 -1.664531,-0.244497 -2.404623,-0.547031 -1.845032,-0.754477 -1.99465,-3.5126 -1.832011,-5.189249 0.107644,-1.108866 0.661661,-2.244418 1.551314,-2.904924 1.999956,-1.547287 5.221385,-0.800526 6.717997,1.116698 0.52883,0.684978 0.71491,1.51863 0.90571,2.350347 0.34708,1.515411 1.13066,2.818923 2.39153,3.751878 0.51944,0.389746 2.32958,1.543214 2.50194,0.254652 0.0329,-0.471548 -0.21906,-0.675336 -0.62314,-0.81866 -1.39065,-0.492506 -2.35596,-1.737498 -2.82006,-3.110531 -0.15862,-0.469419 -0.2836,-0.970948 -0.41169,-1.450576 l 0.0318,0.0095 c 0.24245,0.07163 0.46946,0.180997 0.70923,0.264084 1.49326,0.518606 3.1086,0.438492 4.624,0.06602 0.67704,-0.166443 1.95761,-0.399374 1.49517,-1.412848 -0.30314,-0.596783 -1.07321,-0.169309 -1.52324,-0.05848 -1.28367,0.31805 -2.67224,0.435785 -3.9653,0.105634 -1.51071,-0.385757 -2.61864,-1.575185 -3.91104,-2.378642 -0.508042,-0.315887 -1.064402,-0.705776 -1.644872,-0.862046 2.653872,-1.391422 3.759962,-2.050544 6.950032,-1.727863 0.43259,0.0075 0.90349,0.165148 1.30992,0.233903 0.45673,0.07724 1.42292,0.503168 1.82265,0.428194 0.64485,-0.120845 0.77928,-1.219839 -0.0337,-1.460007 -1.88359,-0.556495 -3.80603,-0.902814 -5.77111,-0.679073 -0.46948,0.05371 -0.93554,0.113629 -1.3698,0.282947 0.76893,-1.598059 1.6141,-2.431119 3.15129,-3.257664 1.23471,-0.684708 2.35825,-1.598102 3.00344,-2.887947 0.16096,-0.322208 0.39953,-0.639195 0.30128,-1.031813 -0.0747,-0.300203 -0.54792,-0.5555652 -0.82524,-0.4659202 -0.45371,0.146433 -0.62204,0.7631962 -0.86081,1.1242442 -0.17001,0.259469 -0.35847,0.536213 -0.57074,0.758297 -1.15457,1.209192 -2.50901,1.439787 -3.71455,2.633294 -1.924512,1.905663 -1.61149,4.280728 -4.786812,4.787465 -0.8474,0.135211 -1.732356,0.0084 -2.515035,-0.365946 -0.747134,-0.354354 -1.325238,-0.993731 -1.605581,-1.776906 -0.647539,-1.862532 0.587474,-3.628313 1.744056,-4.976096 1.05028,-1.223322 2.336013,-2.4543172 3.83431,-3.0822362 0.59019,-0.211876 1.18324,-0.198529 1.803952,-0.181087 1.10125,0.0309 1.92927,-0.08747 2.95104,-0.5790985 0.67034,-0.3224782 1.38743,-1.0321204 0.38175,-1.5977079 -0.19248,-0.1082364 -0.49522,0.00145 -0.66993,0.090543 -1.12975,0.6455552 -1.83791,0.6644606 -3.126952,0.6545515 0.766922,-0.9552655 1.362092,-2.1414945 1.708502,-3.3161398 0.11267,-0.381633 0.32274,-1.0088245 -0.0599,-1.2921253 -0.39067,-0.2892501 -0.96873,-0.2170047 -1.05167,0.056586 -0.15325,0.5061284 -0.20515,0.8788124 -0.40233,1.399645 -0.929892,2.4559045 -2.475236,3.4760046 -4.489276,4.878007 C 95.423673,8.6028808 95.320092,8.1444636 95.17925,7.694412 94.817755,6.5402521 94.481727,5.4804453 94.327807,4.2726395 c -0.04695,-0.3433683 -0.07962,-0.6893113 -0.09543,-1.0355866 -0.01265,-0.3393796 -0.0136,-0.7446754 -0.0019,-1.0751986 0.02079,-0.5825565 -0.208265,-1.24440751 -0.909457,-0.9525884 -0.469522,0.1953799 -0.442656,0.6332075 -0.439753,1.0714262 -0.08652,1.594543 0.202515,3.0756006 0.615652,4.6120366 0.218305,0.8116715 0.667007,1.8591761 0.699871,2.7106331 0.01571,0.4066132 -0.342994,1.0536742 -0.56701,1.3996452 -0.658585,1.018612 -1.653735,1.900321 -2.74895,2.42014 -1.586486,0.752985 -3.549284,0.418913 -5.16481,-0.08488 -1.023769,-0.344112 -1.985812,-1.22227 -2.38406,-2.229626 C 82.763696,9.6711798 82.388355,7.6593914 82.978283,6.1778171 83.454598,4.9815719 84.553118,3.8432181 85.049821,2.6089119 85.177422,2.2918751 85.362387,2.0391001 85.221981,1.6770727 85.148609,1.4904478 84.999652,1.3448468 84.812165,1.2771737 84.64312,1.2153823 84.456049,1.2234756 84.293812,1.3016952 83.885638,1.4958581 83.874641,1.9090233 83.693122,2.2637154 82.965136,3.6861349 82.014126,4.4827564 81.52802,6.0589783 81.330841,5.5501456 81.067286,5.1657823 80.816922,4.7027185 80.245371,3.6457068 79.940404,2.4594362 80.019745,1.2545374 c 0.01521,-0.2306699 0.03799,-0.55617291 0.02058,-0.78282031 -0.0312,-0.24771454 -0.383858,-0.47819 -0.742908,-0.47157819763 z M 87.241174,17.62202 c 1.469103,-0.05629 2.770389,1.016832 2.977251,2.516343 0.220652,1.599512 -0.888919,3.076376 -2.47574,3.297277 -1.584742,0.220563 -3.046852,-0.894641 -3.267304,-2.491821 -0.220453,-1.597179 0.885722,-3.071548 2.470126,-3.29539 0.09916,-0.01401 0.197727,-0.02266 0.295667,-0.02641 z"
     sodipodi:nodetypes="ccscssccssccsccccccscccccsccsscsssccscscccccccccccccccsccccccccccccccscccccccccccccccccsccccccccccccccccccccccccccccccccccccccccccccsccccccccccccccccccscccsccccccccccscsccscccccccccscscsscs" /></svg>
