<svg width="143.688mm" height="219.642mm" viewBox="0 0 143.688 219.642" xmlns="http://www.w3.org/2000/svg"><g id="svgGroup" stroke-linecap="round" fill-rule="evenodd" font-size="9pt" stroke="#e2725b" stroke-width="0.25mm" fill="none" style="stroke:#e2725b;stroke-width:0.25mm;fill:none"><path d="M 135.595 79.359 L 135.595 22.2 A 2.95 2.95 0 0 0 132.645 19.25 L 119.096 19.25 A 2.95 2.95 0 0 1 116.146 16.3 L 116.146 8.9 A 2.95 2.95 0 0 0 113.196 5.95 L 83.096 5.95 A 2.95 2.95 0 0 1 80.146 3 L 80.146 2.95 A 2.95 2.95 0 0 0 77.196 0 L 60.345 0 A 2.95 2.95 0 0 0 57.395 2.95 L 57.395 4.326 A 2.95 2.95 0 0 1 54.651 7.268 L 39.225 8.347 A 2.95 2.95 0 0 0 36.488 11.496 L 36.984 18.594 A 2.95 2.95 0 0 1 34.503 21.714 L 18.884 24.188 A 2.95 2.95 0 0 0 16.432 27.563 L 16.892 30.467 A 2.95 2.95 0 0 1 14.44 33.842 L 2.489 35.735 A 2.95 2.95 0 0 0 0.036 39.11 L 5.175 71.556 A 2.95 2.95 0 0 0 8.551 74.009 L 20.502 72.116 A 2.95 2.95 0 0 1 23.877 74.568 L 24.23 76.8 A 2.95 2.95 0 0 0 27.605 79.252 L 42.714 76.859 A 2.95 2.95 0 0 1 46.025 79.01 L 46.57 81.044 A 2.95 2.95 0 0 0 50.183 83.13 L 58.33 80.947 A 65.32 65.32 0 0 1 121.424 97.854 L 127.443 103.872 A 2.95 2.95 0 0 0 131.615 103.872 L 142.824 92.663 A 2.95 2.95 0 0 0 142.826 88.492 L 136.824 82.48 A 2.95 2.95 0 0 1 136.618 82.25 A 4.6 4.6 0 0 1 135.595 79.359 Z M 134.395 79.359 L 134.395 23.501 A 3.05 3.05 0 0 0 131.345 20.451 L 117.796 20.451 A 2.85 2.85 0 0 1 114.946 17.601 L 114.946 10.2 A 3.05 3.05 0 0 0 111.896 7.15 L 81.796 7.15 A 2.85 2.85 0 0 1 78.946 4.3 L 78.946 4.25 A 3.05 3.05 0 0 0 75.896 1.2 L 61.645 1.2 A 3.05 3.05 0 0 0 58.595 4.25 L 58.595 5.538 A 2.85 2.85 0 0 1 55.944 8.381 L 40.605 9.454 A 3.05 3.05 0 0 0 37.776 12.709 L 38.264 19.699 A 2.85 2.85 0 0 1 35.867 22.713 L 20.356 25.17 A 3.05 3.05 0 0 0 17.821 28.659 L 18.28 31.563 A 2.85 2.85 0 0 1 15.911 34.824 L 3.96 36.717 A 3.05 3.05 0 0 0 1.425 40.206 L 6.157 70.085 A 3.05 3.05 0 0 0 9.647 72.62 L 21.598 70.727 A 2.85 2.85 0 0 1 24.859 73.096 L 25.212 75.328 A 3.05 3.05 0 0 0 28.702 77.864 L 43.683 75.491 A 2.85 2.85 0 0 1 46.881 77.568 L 47.393 79.478 A 3.05 3.05 0 0 0 51.129 81.635 L 58.019 79.788 A 66.52 66.52 0 0 1 122.273 97.005 L 127.372 102.104 A 3.05 3.05 0 0 0 131.685 102.104 L 141.057 92.732 A 3.05 3.05 0 0 0 141.059 88.421 L 135.934 83.286 A 2.85 2.85 0 0 1 135.782 83.122 A 5.8 5.8 0 0 1 134.395 79.359 Z M 9.621 72.531 L 21.572 70.638 A 2.95 2.95 0 0 1 24.947 73.091 L 25.301 75.323 A 2.95 2.95 0 0 0 28.676 77.775 L 43.657 75.402 A 2.95 2.95 0 0 1 46.968 77.552 L 47.48 79.462 A 2.95 2.95 0 0 0 51.093 81.548 L 57.983 79.702 A 66.62 66.62 0 0 1 122.333 96.944 L 127.433 102.043 A 2.95 2.95 0 0 0 131.605 102.043 L 140.976 92.672 A 2.95 2.95 0 0 0 140.978 88.502 L 135.853 83.367 A 2.95 2.95 0 0 1 135.696 83.197 A 5.9 5.9 0 0 1 134.347 80.217 L 134.305 80.072 A 2.95 2.95 0 0 0 132.946 78.336 L 116.311 68.732 A 2.95 2.95 0 0 1 114.836 66.177 L 114.836 10.21 A 2.95 2.95 0 0 0 111.886 7.26 L 81.786 7.26 A 2.95 2.95 0 0 1 78.836 4.31 L 78.836 4.26 A 2.95 2.95 0 0 0 75.886 1.31 L 61.635 1.31 A 2.95 2.95 0 0 0 58.685 4.26 L 58.685 5.548 A 2.95 2.95 0 0 1 55.941 8.491 L 40.602 9.563 A 2.95 2.95 0 0 0 37.865 12.712 L 38.354 19.702 A 2.95 2.95 0 0 1 35.873 22.822 L 20.362 25.278 A 2.95 2.95 0 0 0 17.909 28.653 L 18.369 31.557 A 2.95 2.95 0 0 1 15.917 34.932 L 3.966 36.825 A 2.95 2.95 0 0 0 1.514 40.2 L 6.246 70.079 A 2.95 2.95 0 0 0 9.621 72.531 Z M 135.595 194.265 L 135.595 137.106 A 2.95 2.95 0 0 0 132.645 134.156 L 119.096 134.156 A 2.95 2.95 0 0 1 116.146 131.206 L 116.146 123.806 A 2.95 2.95 0 0 0 113.196 120.856 L 83.096 120.856 A 2.95 2.95 0 0 1 80.146 117.906 L 80.146 117.856 A 2.95 2.95 0 0 0 77.196 114.906 L 60.345 114.906 A 2.95 2.95 0 0 0 57.395 117.856 L 57.395 119.232 A 2.95 2.95 0 0 1 54.651 122.174 L 39.225 123.253 A 2.95 2.95 0 0 0 36.488 126.402 L 36.984 133.5 A 2.95 2.95 0 0 1 34.503 136.62 L 18.884 139.094 A 2.95 2.95 0 0 0 16.432 142.469 L 24.23 191.706 A 2.95 2.95 0 0 0 27.605 194.158 L 42.714 191.765 A 2.95 2.95 0 0 1 46.025 193.916 L 46.57 195.95 A 2.95 2.95 0 0 0 50.183 198.036 L 58.33 195.853 A 65.32 65.32 0 0 1 121.424 212.76 L 127.443 218.778 A 2.95 2.95 0 0 0 131.615 218.778 L 142.824 207.569 A 2.95 2.95 0 0 0 142.826 203.398 L 136.824 197.386 A 2.95 2.95 0 0 1 136.618 197.156 A 4.6 4.6 0 0 1 135.595 194.265 Z M 134.395 194.265 L 134.395 138.407 A 3.05 3.05 0 0 0 131.345 135.357 L 117.796 135.357 A 2.85 2.85 0 0 1 114.946 132.507 L 114.946 125.106 A 3.05 3.05 0 0 0 111.896 122.056 L 81.796 122.056 A 2.85 2.85 0 0 1 78.946 119.206 L 78.946 119.156 A 3.05 3.05 0 0 0 75.896 116.106 L 61.645 116.106 A 3.05 3.05 0 0 0 58.595 119.156 L 58.595 120.444 A 2.85 2.85 0 0 1 55.944 123.287 L 40.605 124.36 A 3.05 3.05 0 0 0 37.776 127.615 L 38.264 134.605 A 2.85 2.85 0 0 1 35.867 137.619 L 20.356 140.076 A 3.05 3.05 0 0 0 17.821 143.565 L 25.212 190.234 A 3.05 3.05 0 0 0 28.702 192.77 L 43.683 190.397 A 2.85 2.85 0 0 1 46.881 192.474 L 47.393 194.384 A 3.05 3.05 0 0 0 51.129 196.541 L 58.019 194.694 A 66.52 66.52 0 0 1 122.273 211.911 L 127.372 217.01 A 3.05 3.05 0 0 0 131.685 217.01 L 141.057 207.638 A 3.05 3.05 0 0 0 141.059 203.327 L 135.934 198.192 A 2.85 2.85 0 0 1 135.782 198.028 A 5.8 5.8 0 0 1 134.395 194.265 Z M 28.676 192.681 L 43.657 190.308 A 2.95 2.95 0 0 1 46.968 192.458 L 47.48 194.368 A 2.95 2.95 0 0 0 51.093 196.454 L 57.983 194.608 A 66.62 66.62 0 0 1 122.333 211.85 L 127.433 216.949 A 2.95 2.95 0 0 0 131.605 216.949 L 140.976 207.578 A 2.95 2.95 0 0 0 140.978 203.408 L 135.853 198.273 A 2.95 2.95 0 0 1 135.696 198.103 A 5.9 5.9 0 0 1 134.347 195.123 L 134.305 194.978 A 2.95 2.95 0 0 0 132.946 193.242 L 116.311 183.638 A 2.95 2.95 0 0 1 114.836 181.083 L 114.836 125.116 A 2.95 2.95 0 0 0 111.886 122.166 L 81.786 122.166 A 2.95 2.95 0 0 1 78.836 119.216 L 78.836 119.166 A 2.95 2.95 0 0 0 75.886 116.216 L 61.635 116.216 A 2.95 2.95 0 0 0 58.685 119.166 L 58.685 120.454 A 2.95 2.95 0 0 1 55.941 123.397 L 40.602 124.469 A 2.95 2.95 0 0 0 37.865 127.618 L 38.354 134.608 A 2.95 2.95 0 0 1 35.873 137.728 L 20.362 140.184 A 2.95 2.95 0 0 0 17.909 143.559 L 25.301 190.229 A 2.95 2.95 0 0 0 28.676 192.681 Z M 134.305 73.98 L 134.305 23.491 A 2.95 2.95 0 0 0 131.355 20.541 L 117.806 20.541 A 2.95 2.95 0 0 0 114.856 23.491 L 114.856 66.157 A 2.95 2.95 0 0 0 116.331 68.712 L 118.184 69.782 L 129.88 76.534 A 2.95 2.95 0 0 0 134.305 73.98 Z M 134.305 188.886 L 134.305 138.397 A 2.95 2.95 0 0 0 131.355 135.447 L 117.806 135.447 A 2.95 2.95 0 0 0 114.856 138.397 L 114.856 181.063 A 2.95 2.95 0 0 0 116.331 183.618 L 118.184 184.688 L 129.88 191.44 A 2.95 2.95 0 0 0 134.305 188.886 Z M 119.32 169.722 L 129.84 169.722 A 0.39 0.39 0 0 0 130.23 169.332 L 130.23 144.312 A 0.39 0.39 0 0 0 129.84 143.922 L 119.32 143.922 A 0.39 0.39 0 0 0 118.93 144.312 L 118.93 169.332 A 0.39 0.39 0 0 0 119.32 169.722 Z M 119.32 54.816 L 129.84 54.816 A 0.39 0.39 0 0 0 130.23 54.426 L 130.23 29.406 A 0.39 0.39 0 0 0 129.84 29.016 L 119.32 29.016 A 0.39 0.39 0 0 0 118.93 29.406 L 118.93 54.426 A 0.39 0.39 0 0 0 119.32 54.816 Z M 50.859 78.841 L 54.313 77.915 L 54.468 78.495 A 0.325 0.325 0 0 0 54.866 78.725 L 60.179 77.301 A 0.325 0.325 0 0 0 60.408 76.903 L 60.253 76.324 L 63.706 75.398 A 0.25 0.25 0 0 0 63.883 75.092 L 60.441 62.245 A 0.25 0.25 0 0 0 60.135 62.069 L 47.288 65.511 A 0.25 0.25 0 0 0 47.111 65.817 L 50.553 78.664 A 0.25 0.25 0 0 0 50.859 78.841 Z M 50.859 193.747 L 54.313 192.821 L 54.468 193.401 A 0.325 0.325 0 0 0 54.866 193.631 L 60.179 192.207 A 0.325 0.325 0 0 0 60.408 191.809 L 60.253 191.23 L 63.706 190.304 A 0.25 0.25 0 0 0 63.883 189.998 L 60.441 177.151 A 0.25 0.25 0 0 0 60.135 176.975 L 47.288 180.417 A 0.25 0.25 0 0 0 47.111 180.723 L 50.553 193.57 A 0.25 0.25 0 0 0 50.859 193.747 Z M 43.412 42.924 L 56.679 41.996 A 0.25 0.25 0 0 0 56.911 41.729 L 55.984 28.462 A 0.25 0.25 0 0 0 55.717 28.23 L 42.449 29.158 A 0.25 0.25 0 0 0 42.217 29.424 L 43.145 42.692 A 0.25 0.25 0 0 0 43.412 42.924 Z M 43.412 157.83 L 56.679 156.902 A 0.25 0.25 0 0 0 56.911 156.635 L 55.984 143.368 A 0.25 0.25 0 0 0 55.717 143.136 L 42.449 144.064 A 0.25 0.25 0 0 0 42.217 144.33 L 43.145 157.598 A 0.25 0.25 0 0 0 43.412 157.83 Z M 42.226 25.965 L 55.494 25.038 A 0.25 0.25 0 0 0 55.725 24.771 L 54.798 11.503 A 0.25 0.25 0 0 0 54.531 11.271 L 41.263 12.199 A 0.25 0.25 0 0 0 41.031 12.466 L 41.959 25.734 A 0.25 0.25 0 0 0 42.226 25.965 Z M 42.226 140.871 L 55.494 139.944 A 0.25 0.25 0 0 0 55.725 139.677 L 54.798 126.409 A 0.25 0.25 0 0 0 54.531 126.177 L 41.263 127.105 A 0.25 0.25 0 0 0 41.031 127.372 L 41.959 140.64 A 0.25 0.25 0 0 0 42.226 140.871 Z M 44.598 174.789 L 57.865 173.861 A 0.25 0.25 0 0 0 58.097 173.594 L 57.169 160.326 A 0.25 0.25 0 0 0 56.903 160.094 L 43.635 161.022 A 0.25 0.25 0 0 0 43.403 161.289 L 44.331 174.557 A 0.25 0.25 0 0 0 44.598 174.789 Z M 44.598 59.883 L 57.865 58.955 A 0.25 0.25 0 0 0 58.097 58.688 L 57.169 45.42 A 0.25 0.25 0 0 0 56.903 45.188 L 43.635 46.116 A 0.25 0.25 0 0 0 43.403 46.383 L 44.331 59.651 A 0.25 0.25 0 0 0 44.598 59.883 Z M 119.584 205.317 L 128.988 214.721 A 0.25 0.25 0 0 0 129.342 214.721 L 138.746 205.317 A 0.25 0.25 0 0 0 138.746 204.963 L 129.342 195.559 A 0.25 0.25 0 0 0 128.988 195.559 L 119.584 204.963 A 0.25 0.25 0 0 0 119.584 205.317 Z M 119.584 90.411 L 128.988 99.815 A 0.25 0.25 0 0 0 129.342 99.815 L 138.746 90.411 A 0.25 0.25 0 0 0 138.746 90.057 L 129.342 80.653 A 0.25 0.25 0 0 0 128.988 80.653 L 119.584 90.057 A 0.25 0.25 0 0 0 119.584 90.411 Z M 98.11 175.192 L 111.41 175.192 A 0.25 0.25 0 0 0 111.66 174.942 L 111.66 161.642 A 0.25 0.25 0 0 0 111.41 161.392 L 98.11 161.392 A 0.25 0.25 0 0 0 97.86 161.642 L 97.86 174.942 A 0.25 0.25 0 0 0 98.11 175.192 Z M 98.11 141.192 L 111.41 141.192 A 0.25 0.25 0 0 0 111.66 140.942 L 111.66 127.642 A 0.25 0.25 0 0 0 111.41 127.392 L 98.11 127.392 A 0.25 0.25 0 0 0 97.86 127.642 L 97.86 140.942 A 0.25 0.25 0 0 0 98.11 141.192 Z M 98.11 43.286 L 111.41 43.286 A 0.25 0.25 0 0 0 111.66 43.036 L 111.66 29.736 A 0.25 0.25 0 0 0 111.41 29.486 L 98.11 29.486 A 0.25 0.25 0 0 0 97.86 29.736 L 97.86 43.036 A 0.25 0.25 0 0 0 98.11 43.286 Z M 98.11 26.286 L 111.41 26.286 A 0.25 0.25 0 0 0 111.66 26.036 L 111.66 12.736 A 0.25 0.25 0 0 0 111.41 12.486 L 98.11 12.486 A 0.25 0.25 0 0 0 97.86 12.736 L 97.86 26.036 A 0.25 0.25 0 0 0 98.11 26.286 Z M 98.11 60.286 L 111.41 60.286 A 0.25 0.25 0 0 0 111.66 60.036 L 111.66 46.736 A 0.25 0.25 0 0 0 111.41 46.486 L 98.11 46.486 A 0.25 0.25 0 0 0 97.86 46.736 L 97.86 60.036 A 0.25 0.25 0 0 0 98.11 60.286 Z M 62.11 149.692 L 75.41 149.692 A 0.25 0.25 0 0 0 75.66 149.442 L 75.66 136.142 A 0.25 0.25 0 0 0 75.41 135.892 L 62.11 135.892 A 0.25 0.25 0 0 0 61.86 136.142 L 61.86 149.442 A 0.25 0.25 0 0 0 62.11 149.692 Z M 80.11 172.642 L 93.41 172.642 A 0.25 0.25 0 0 0 93.66 172.392 L 93.66 159.092 A 0.25 0.25 0 0 0 93.41 158.842 L 80.11 158.842 A 0.25 0.25 0 0 0 79.86 159.092 L 79.86 172.392 A 0.25 0.25 0 0 0 80.11 172.642 Z M 80.11 155.642 L 93.41 155.642 A 0.25 0.25 0 0 0 93.66 155.392 L 93.66 142.092 A 0.25 0.25 0 0 0 93.41 141.842 L 80.11 141.842 A 0.25 0.25 0 0 0 79.86 142.092 L 79.86 155.392 A 0.25 0.25 0 0 0 80.11 155.642 Z M 98.11 158.192 L 111.41 158.192 A 0.25 0.25 0 0 0 111.66 157.942 L 111.66 144.642 A 0.25 0.25 0 0 0 111.41 144.392 L 98.11 144.392 A 0.25 0.25 0 0 0 97.86 144.642 L 97.86 157.942 A 0.25 0.25 0 0 0 98.11 158.192 Z M 68.59 189.642 L 81.89 189.642 A 0.25 0.25 0 0 0 82.14 189.392 L 82.14 176.092 A 0.25 0.25 0 0 0 81.89 175.842 L 68.59 175.842 A 0.25 0.25 0 0 0 68.34 176.092 L 68.34 189.392 A 0.25 0.25 0 0 0 68.59 189.642 Z M 62.11 51.786 L 75.41 51.786 A 0.25 0.25 0 0 0 75.66 51.536 L 75.66 38.236 A 0.25 0.25 0 0 0 75.41 37.986 L 62.11 37.986 A 0.25 0.25 0 0 0 61.86 38.236 L 61.86 51.536 A 0.25 0.25 0 0 0 62.11 51.786 Z M 62.11 34.786 L 75.41 34.786 A 0.25 0.25 0 0 0 75.66 34.536 L 75.66 21.236 A 0.25 0.25 0 0 0 75.41 20.986 L 62.11 20.986 A 0.25 0.25 0 0 0 61.86 21.236 L 61.86 34.536 A 0.25 0.25 0 0 0 62.11 34.786 Z M 80.11 40.736 L 93.41 40.736 A 0.25 0.25 0 0 0 93.66 40.486 L 93.66 27.186 A 0.25 0.25 0 0 0 93.41 26.936 L 80.11 26.936 A 0.25 0.25 0 0 0 79.86 27.186 L 79.86 40.486 A 0.25 0.25 0 0 0 80.11 40.736 Z M 62.11 17.786 L 75.41 17.786 A 0.25 0.25 0 0 0 75.66 17.536 L 75.66 4.236 A 0.25 0.25 0 0 0 75.41 3.986 L 62.11 3.986 A 0.25 0.25 0 0 0 61.86 4.236 L 61.86 17.536 A 0.25 0.25 0 0 0 62.11 17.786 Z M 80.11 57.736 L 93.41 57.736 A 0.25 0.25 0 0 0 93.66 57.486 L 93.66 44.186 A 0.25 0.25 0 0 0 93.41 43.936 L 80.11 43.936 A 0.25 0.25 0 0 0 79.86 44.186 L 79.86 57.486 A 0.25 0.25 0 0 0 80.11 57.736 Z M 80.11 23.736 L 93.41 23.736 A 0.25 0.25 0 0 0 93.66 23.486 L 93.66 10.186 A 0.25 0.25 0 0 0 93.41 9.936 L 80.11 9.936 A 0.25 0.25 0 0 0 79.86 10.186 L 79.86 23.486 A 0.25 0.25 0 0 0 80.11 23.736 Z M 68.59 74.736 L 81.89 74.736 A 0.25 0.25 0 0 0 82.14 74.486 L 82.14 61.186 A 0.25 0.25 0 0 0 81.89 60.936 L 68.59 60.936 A 0.25 0.25 0 0 0 68.34 61.186 L 68.34 74.486 A 0.25 0.25 0 0 0 68.59 74.736 Z M 62.11 132.692 L 75.41 132.692 A 0.25 0.25 0 0 0 75.66 132.442 L 75.66 119.142 A 0.25 0.25 0 0 0 75.41 118.892 L 62.11 118.892 A 0.25 0.25 0 0 0 61.86 119.142 L 61.86 132.442 A 0.25 0.25 0 0 0 62.11 132.692 Z M 80.11 138.642 L 93.41 138.642 A 0.25 0.25 0 0 0 93.66 138.392 L 93.66 125.092 A 0.25 0.25 0 0 0 93.41 124.842 L 80.11 124.842 A 0.25 0.25 0 0 0 79.86 125.092 L 79.86 138.392 A 0.25 0.25 0 0 0 80.11 138.642 Z M 62.11 166.692 L 75.41 166.692 A 0.25 0.25 0 0 0 75.66 166.442 L 75.66 153.142 A 0.25 0.25 0 0 0 75.41 152.892 L 62.11 152.892 A 0.25 0.25 0 0 0 61.86 153.142 L 61.86 166.442 A 0.25 0.25 0 0 0 62.11 166.692 Z M 9.672 69.814 L 22.809 67.734 A 0.25 0.25 0 0 0 23.016 67.448 L 20.936 54.311 A 0.25 0.25 0 0 0 20.65 54.104 L 7.514 56.184 A 0.25 0.25 0 0 0 7.306 56.47 L 9.386 69.606 A 0.25 0.25 0 0 0 9.672 69.814 Z M 7.013 53.024 L 20.149 50.943 A 0.25 0.25 0 0 0 20.357 50.657 L 18.276 37.521 A 0.25 0.25 0 0 0 17.99 37.313 L 4.854 39.393 A 0.25 0.25 0 0 0 4.646 39.68 L 6.727 52.816 A 0.25 0.25 0 0 0 7.013 53.024 Z M 26.068 173.173 L 39.204 171.093 A 0.25 0.25 0 0 0 39.412 170.807 L 37.331 157.67 A 0.25 0.25 0 0 0 37.045 157.463 L 23.909 159.543 A 0.25 0.25 0 0 0 23.701 159.829 L 25.782 172.965 A 0.25 0.25 0 0 0 26.068 173.173 Z M 26.068 58.267 L 39.204 56.187 A 0.25 0.25 0 0 0 39.412 55.901 L 37.331 42.764 A 0.25 0.25 0 0 0 37.045 42.557 L 23.909 44.637 A 0.25 0.25 0 0 0 23.701 44.923 L 25.782 58.059 A 0.25 0.25 0 0 0 26.068 58.267 Z M 23.408 41.477 L 36.545 39.396 A 0.25 0.25 0 0 0 36.753 39.11 L 34.672 25.974 A 0.25 0.25 0 0 0 34.386 25.766 L 21.25 27.846 A 0.25 0.25 0 0 0 21.042 28.133 L 23.122 41.269 A 0.25 0.25 0 0 0 23.408 41.477 Z M 23.408 156.383 L 36.545 154.302 A 0.25 0.25 0 0 0 36.753 154.016 L 34.672 140.88 A 0.25 0.25 0 0 0 34.386 140.672 L 21.25 142.752 A 0.25 0.25 0 0 0 21.042 143.039 L 23.122 156.175 A 0.25 0.25 0 0 0 23.408 156.383 Z M 28.727 75.058 L 41.864 72.977 A 0.25 0.25 0 0 0 42.071 72.691 L 39.991 59.555 A 0.25 0.25 0 0 0 39.705 59.347 L 26.568 61.428 A 0.25 0.25 0 0 0 26.361 61.714 L 28.441 74.85 A 0.25 0.25 0 0 0 28.727 75.058 Z M 28.727 189.964 L 41.864 187.883 A 0.25 0.25 0 0 0 42.071 187.597 L 39.991 174.461 A 0.25 0.25 0 0 0 39.705 174.253 L 26.568 176.334 A 0.25 0.25 0 0 0 26.361 176.62 L 28.441 189.756 A 0.25 0.25 0 0 0 28.727 189.964 Z M 104.167 80.745 L 115.685 87.395 A 0.25 0.25 0 0 0 116.027 87.303 L 122.677 75.785 A 0.25 0.25 0 0 0 122.585 75.444 L 111.067 68.794 A 0.25 0.25 0 0 0 110.726 68.885 L 104.076 80.403 A 0.25 0.25 0 0 0 104.167 80.745 Z M 104.167 195.651 L 115.685 202.301 A 0.25 0.25 0 0 0 116.027 202.209 L 122.677 190.691 A 0.25 0.25 0 0 0 122.585 190.35 L 111.067 183.7 A 0.25 0.25 0 0 0 110.726 183.791 L 104.076 195.309 A 0.25 0.25 0 0 0 104.167 195.651 Z M 86.774 75.398 L 99.621 78.841 A 0.25 0.25 0 0 0 99.927 78.664 L 103.37 65.817 A 0.25 0.25 0 0 0 103.193 65.511 L 90.346 62.069 A 0.25 0.25 0 0 0 90.04 62.245 L 86.598 75.092 A 0.25 0.25 0 0 0 86.774 75.398 Z M 86.774 190.304 L 99.621 193.747 A 0.25 0.25 0 0 0 99.927 193.57 L 103.37 180.723 A 0.25 0.25 0 0 0 103.193 180.417 L 90.346 176.975 A 0.25 0.25 0 0 0 90.04 177.151 L 86.598 189.998 A 0.25 0.25 0 0 0 86.774 190.304 Z M 58.96 19.386 m -1.1 0 a 1.1 1.1 0 0 1 2.2 0 a 1.1 1.1 0 0 1 -2.2 0 z M 95.41 25.336 m -1.1 0 a 1.1 1.1 0 0 1 2.2 0 a 1.1 1.1 0 0 1 -2.2 0 z M 121.787 83.527 m -1.1 0 a 1.1 1.1 0 0 1 2.2 0 a 1.1 1.1 0 0 1 -2.2 0 z M 65.286 68.349 m -1.1 0 a 1.1 1.1 0 0 1 2.2 0 a 1.1 1.1 0 0 1 -2.2 0 z M 22.375 52.21 m -1.1 0 a 1.1 1.1 0 0 1 2.2 0 a 1.1 1.1 0 0 1 -2.2 0 z M 58.96 134.292 m -1.1 0 a 1.1 1.1 0 0 1 2.2 0 a 1.1 1.1 0 0 1 -2.2 0 z M 95.41 140.242 m -1.1 0 a 1.1 1.1 0 0 1 2.2 0 a 1.1 1.1 0 0 1 -2.2 0 z M 121.787 198.433 m -1.1 0 a 1.1 1.1 0 0 1 2.2 0 a 1.1 1.1 0 0 1 -2.2 0 z M 65.286 183.255 m -1.1 0 a 1.1 1.1 0 0 1 2.2 0 a 1.1 1.1 0 0 1 -2.2 0 z M 39.709 155.421 m -1.1 0 a 1.1 1.1 0 0 1 2.2 0 a 1.1 1.1 0 0 1 -2.2 0 z M 117.78 66.166 m -1 0 a 1 1 0 0 1 2 0 a 1 1 0 0 1 -2 0 z M 131.38 74.02 m -1 0 a 1 1 0 0 1 2 0 a 1 1 0 0 1 -2 0 z M 117.78 181.072 m -1 0 a 1 1 0 0 1 2 0 a 1 1 0 0 1 -2 0 z M 131.38 188.926 m -1 0 a 1 1 0 0 1 2 0 a 1 1 0 0 1 -2 0 z" vector-effect="non-scaling-stroke"/></g></svg>