<svg width="305.134mm" height="219.642mm" viewBox="0 0 305.134 219.642" xmlns="http://www.w3.org/2000/svg"><g id="svgGroup" stroke-linecap="round" fill-rule="evenodd" font-size="9pt" stroke="#e2725b" stroke-width="0.25mm" fill="none" style="stroke:#e2725b;stroke-width:0.25mm;fill:none"><path d="M 135.833 194.265 L 135.833 137.106 A 2.95 2.95 0 0 0 132.883 134.156 L 119.334 134.156 A 2.95 2.95 0 0 1 116.384 131.206 L 116.384 123.806 A 2.95 2.95 0 0 0 113.434 120.856 L 83.334 120.856 A 2.95 2.95 0 0 1 80.384 117.906 L 80.384 117.856 A 2.95 2.95 0 0 0 77.434 114.906 L 60.583 114.906 A 2.95 2.95 0 0 0 57.633 117.856 L 57.633 119.232 A 2.95 2.95 0 0 1 54.888 122.174 L 39.462 123.253 A 2.95 2.95 0 0 0 36.725 126.402 L 37.222 133.5 A 2.95 2.95 0 0 1 34.74 136.62 L 19.122 139.094 A 2.95 2.95 0 0 0 16.67 142.469 L 17.13 145.373 A 2.95 2.95 0 0 1 14.677 148.748 L 2.726 150.641 L 2.489 150.678 A 2.95 2.95 0 0 0 0 153.592 L 0 183.399 A 5.9 5.9 0 0 0 6.823 189.226 L 15.481 187.855 L 20.739 187.022 A 2.95 2.95 0 0 1 24.115 189.474 L 24.468 191.706 A 2.95 2.95 0 0 0 27.843 194.158 L 44.487 191.522 A 2.95 2.95 0 0 0 46.939 188.147 L 45.95 181.902 A 2.95 2.95 0 0 1 48.658 178.497 L 60.957 177.637 A 2.95 2.95 0 0 1 64.113 180.58 L 64.113 190.657 A 2.95 2.95 0 0 0 67.063 193.607 L 75.453 193.607 A 65.32 65.32 0 0 1 91.429 195.591 L 93.285 196.088 A 65.32 65.32 0 0 1 107.278 201.884 L 108.942 202.845 A 65.32 65.32 0 0 1 121.641 212.739 L 127.68 218.778 A 2.95 2.95 0 0 0 131.852 218.778 L 143.062 207.569 A 2.95 2.95 0 0 0 143.064 203.398 L 137.062 197.386 A 2.95 2.95 0 0 1 136.855 197.156 A 4.6 4.6 0 0 1 135.833 194.265 Z M 135.833 79.359 L 135.833 22.2 A 2.95 2.95 0 0 0 132.883 19.25 L 119.334 19.25 A 2.95 2.95 0 0 1 116.384 16.3 L 116.384 8.9 A 2.95 2.95 0 0 0 113.434 5.95 L 83.334 5.95 A 2.95 2.95 0 0 1 80.384 3 L 80.384 2.95 A 2.95 2.95 0 0 0 77.434 0 L 60.583 0 A 2.95 2.95 0 0 0 57.633 2.95 L 57.633 4.326 A 2.95 2.95 0 0 1 54.888 7.268 L 39.462 8.347 A 2.95 2.95 0 0 0 36.725 11.496 L 37.222 18.594 A 2.95 2.95 0 0 1 34.74 21.714 L 19.122 24.188 A 2.95 2.95 0 0 0 16.67 27.563 L 17.13 30.467 A 2.95 2.95 0 0 1 14.677 33.842 L 2.726 35.735 A 2.95 2.95 0 0 0 0.274 39.11 L 5.413 71.556 A 2.95 2.95 0 0 0 8.788 74.009 L 20.739 72.116 A 2.95 2.95 0 0 1 24.115 74.568 L 24.468 76.8 A 2.95 2.95 0 0 0 27.843 79.252 L 44.487 76.616 A 2.95 2.95 0 0 0 46.939 73.241 L 45.95 66.996 A 2.95 2.95 0 0 1 48.658 63.591 L 60.957 62.731 A 2.95 2.95 0 0 1 64.113 65.674 L 64.113 75.751 A 2.95 2.95 0 0 0 67.063 78.701 L 75.453 78.701 A 65.32 65.32 0 0 1 91.429 80.685 L 93.285 81.182 A 65.32 65.32 0 0 1 107.278 86.978 L 108.942 87.939 A 65.32 65.32 0 0 1 121.641 97.833 L 127.68 103.872 A 2.95 2.95 0 0 0 131.852 103.872 L 143.062 92.663 A 2.95 2.95 0 0 0 143.064 88.492 L 137.062 82.48 A 2.95 2.95 0 0 1 136.855 82.25 A 4.6 4.6 0 0 1 135.833 79.359 Z M 134.633 79.359 L 134.633 23.501 A 3.05 3.05 0 0 0 131.583 20.451 L 118.034 20.451 A 2.85 2.85 0 0 1 115.184 17.601 L 115.184 10.2 A 3.05 3.05 0 0 0 112.134 7.15 L 82.034 7.15 A 2.85 2.85 0 0 1 79.184 4.3 L 79.184 4.25 A 3.05 3.05 0 0 0 76.134 1.2 L 61.883 1.2 A 3.05 3.05 0 0 0 58.833 4.25 L 58.833 5.538 A 2.85 2.85 0 0 1 56.182 8.381 L 40.843 9.454 A 3.05 3.05 0 0 0 38.013 12.709 L 38.502 19.699 A 2.85 2.85 0 0 1 36.105 22.713 L 20.594 25.17 A 3.05 3.05 0 0 0 18.058 28.659 L 18.518 31.563 A 2.85 2.85 0 0 1 16.149 34.824 L 4.198 36.717 A 3.05 3.05 0 0 0 1.663 40.206 L 6.395 70.085 A 3.05 3.05 0 0 0 9.885 72.62 L 21.836 70.727 A 2.85 2.85 0 0 1 25.096 73.096 L 25.45 75.328 A 3.05 3.05 0 0 0 28.94 77.864 L 43.015 75.634 A 3.05 3.05 0 0 0 45.55 72.145 L 44.543 65.782 A 2.85 2.85 0 0 1 47.159 62.493 L 62.264 61.437 A 2.85 2.85 0 0 1 65.313 64.28 L 65.313 74.451 A 3.05 3.05 0 0 0 68.363 77.501 L 75.453 77.501 A 66.52 66.52 0 0 1 91.732 79.524 L 93.604 80.025 A 66.52 66.52 0 0 1 107.87 85.934 L 109.549 86.904 A 66.52 66.52 0 0 1 122.49 96.984 L 127.61 102.104 A 3.05 3.05 0 0 0 131.923 102.104 L 141.295 92.732 A 3.05 3.05 0 0 0 141.297 88.421 L 136.171 83.286 A 2.85 2.85 0 0 1 136.02 83.122 A 5.8 5.8 0 0 1 134.633 79.359 Z M 134.633 194.265 L 134.633 138.407 A 3.05 3.05 0 0 0 131.583 135.357 L 118.034 135.357 A 2.85 2.85 0 0 1 115.184 132.507 L 115.184 125.106 A 3.05 3.05 0 0 0 112.134 122.056 L 82.034 122.056 A 2.85 2.85 0 0 1 79.184 119.206 L 79.184 119.156 A 3.05 3.05 0 0 0 76.134 116.106 L 61.883 116.106 A 3.05 3.05 0 0 0 58.833 119.156 L 58.833 120.444 A 2.85 2.85 0 0 1 56.182 123.287 L 40.843 124.36 A 3.05 3.05 0 0 0 38.013 127.615 L 38.502 134.605 A 2.85 2.85 0 0 1 36.105 137.619 L 20.594 140.076 A 3.05 3.05 0 0 0 18.058 143.565 L 18.518 146.469 A 2.85 2.85 0 0 1 16.149 149.73 L 4.198 151.623 A 3.05 3.05 0 0 0 1.663 155.112 L 6.395 184.991 A 3.05 3.05 0 0 0 9.885 187.526 L 21.836 185.633 A 2.85 2.85 0 0 1 25.096 188.002 L 25.45 190.234 A 3.05 3.05 0 0 0 28.94 192.77 L 43.015 190.54 A 3.05 3.05 0 0 0 45.55 187.051 L 44.543 180.688 A 2.85 2.85 0 0 1 47.159 177.399 L 62.264 176.343 A 2.85 2.85 0 0 1 65.313 179.186 L 65.313 189.357 A 3.05 3.05 0 0 0 68.363 192.407 L 75.453 192.407 A 66.52 66.52 0 0 1 91.732 194.43 L 93.604 194.931 A 66.52 66.52 0 0 1 107.87 200.84 L 109.549 201.81 A 66.52 66.52 0 0 1 122.49 211.89 L 127.61 217.01 A 3.05 3.05 0 0 0 131.923 217.01 L 141.295 207.638 A 3.05 3.05 0 0 0 141.297 203.327 L 136.171 198.192 A 2.85 2.85 0 0 1 136.02 198.028 A 5.8 5.8 0 0 1 134.633 194.265 Z M 9.859 72.531 L 21.81 70.638 A 2.95 2.95 0 0 1 25.185 73.091 L 25.539 75.323 A 2.95 2.95 0 0 0 28.914 77.775 L 42.989 75.546 A 2.95 2.95 0 0 0 45.442 72.17 L 44.434 65.808 A 2.95 2.95 0 0 1 47.142 62.403 L 62.247 61.347 A 2.95 2.95 0 0 1 65.403 64.29 L 65.403 74.461 A 2.95 2.95 0 0 0 68.353 77.411 L 75.443 77.411 A 66.62 66.62 0 0 1 91.747 79.437 L 93.621 79.939 A 66.62 66.62 0 0 1 107.909 85.858 L 109.59 86.828 A 66.62 66.62 0 0 1 122.551 96.924 L 127.67 102.043 A 2.95 2.95 0 0 0 131.842 102.043 L 141.214 92.672 A 2.95 2.95 0 0 0 141.216 88.502 L 136.091 83.367 A 2.95 2.95 0 0 1 135.934 83.197 A 5.9 5.9 0 0 1 134.582 80.198 A 2.95 2.95 0 0 0 133.19 78.34 L 116.549 68.732 A 2.95 2.95 0 0 1 115.074 66.177 L 115.074 10.21 A 2.95 2.95 0 0 0 112.124 7.26 L 82.024 7.26 A 2.95 2.95 0 0 1 79.074 4.31 L 79.074 4.26 A 2.95 2.95 0 0 0 76.124 1.31 L 61.873 1.31 A 2.95 2.95 0 0 0 58.923 4.26 L 58.923 5.548 A 2.95 2.95 0 0 1 56.178 8.491 L 40.84 9.563 A 2.95 2.95 0 0 0 38.103 12.712 L 38.592 19.702 A 2.95 2.95 0 0 1 36.111 22.822 L 20.599 25.278 A 2.95 2.95 0 0 0 18.147 28.653 L 18.607 31.557 A 2.95 2.95 0 0 1 16.155 34.932 L 4.204 36.825 A 2.95 2.95 0 0 0 1.752 40.2 L 6.484 70.079 A 2.95 2.95 0 0 0 9.859 72.531 Z M 9.859 187.437 L 21.81 185.544 A 2.95 2.95 0 0 1 25.185 187.997 L 25.539 190.229 A 2.95 2.95 0 0 0 28.914 192.681 L 42.989 190.452 A 2.95 2.95 0 0 0 45.442 187.076 L 44.434 180.714 A 2.95 2.95 0 0 1 47.142 177.309 L 62.247 176.253 A 2.95 2.95 0 0 1 65.403 179.196 L 65.403 189.367 A 2.95 2.95 0 0 0 68.353 192.317 L 75.443 192.317 A 66.62 66.62 0 0 1 91.747 194.343 L 93.621 194.845 A 66.62 66.62 0 0 1 107.909 200.764 L 109.59 201.734 A 66.62 66.62 0 0 1 122.551 211.83 L 127.67 216.949 A 2.95 2.95 0 0 0 131.842 216.949 L 141.214 207.578 A 2.95 2.95 0 0 0 141.216 203.408 L 136.091 198.273 A 2.95 2.95 0 0 1 135.934 198.103 A 5.9 5.9 0 0 1 134.582 195.104 A 2.95 2.95 0 0 0 133.19 193.246 L 116.549 183.638 A 2.95 2.95 0 0 1 115.074 181.083 L 115.074 125.116 A 2.95 2.95 0 0 0 112.124 122.166 L 82.024 122.166 A 2.95 2.95 0 0 1 79.074 119.216 L 79.074 119.166 A 2.95 2.95 0 0 0 76.124 116.216 L 61.873 116.216 A 2.95 2.95 0 0 0 58.923 119.166 L 58.923 120.454 A 2.95 2.95 0 0 1 56.178 123.397 L 40.84 124.469 A 2.95 2.95 0 0 0 38.103 127.618 L 38.592 134.608 A 2.95 2.95 0 0 1 36.111 137.728 L 20.599 140.184 A 2.95 2.95 0 0 0 18.147 143.559 L 18.607 146.463 A 2.95 2.95 0 0 1 16.155 149.838 L 4.204 151.731 A 2.95 2.95 0 0 0 1.752 155.106 L 6.484 184.985 A 2.95 2.95 0 0 0 9.859 187.437 Z M 297.041 194.265 L 297.041 137.106 A 2.95 2.95 0 0 0 294.091 134.156 L 280.542 134.156 A 2.95 2.95 0 0 1 277.592 131.206 L 277.592 123.806 A 2.95 2.95 0 0 0 274.642 120.856 L 244.542 120.856 A 2.95 2.95 0 0 1 241.592 117.906 L 241.592 117.856 A 2.95 2.95 0 0 0 238.642 114.906 L 221.791 114.906 A 2.95 2.95 0 0 0 218.841 117.856 L 218.841 119.232 A 2.95 2.95 0 0 1 216.096 122.174 L 200.67 123.253 A 2.95 2.95 0 0 0 197.933 126.402 L 198.43 133.5 A 2.95 2.95 0 0 1 195.948 136.62 L 180.33 139.094 L 180.092 139.131 A 2.95 2.95 0 0 0 177.604 142.045 L 177.604 189.064 A 5.9 5.9 0 0 0 184.426 194.891 L 195.744 193.098 L 205.695 191.522 A 2.95 2.95 0 0 0 208.147 188.147 L 207.158 181.902 A 2.95 2.95 0 0 1 209.866 178.497 L 222.165 177.637 A 2.95 2.95 0 0 1 225.321 180.58 L 225.321 190.657 A 2.95 2.95 0 0 0 228.271 193.607 L 236.661 193.607 A 65.32 65.32 0 0 1 252.637 195.591 L 254.493 196.088 A 65.32 65.32 0 0 1 268.486 201.884 L 270.15 202.845 A 65.32 65.32 0 0 1 282.849 212.739 L 288.888 218.778 A 2.95 2.95 0 0 0 293.06 218.778 L 304.27 207.569 A 2.95 2.95 0 0 0 304.272 203.398 L 298.27 197.386 A 2.95 2.95 0 0 1 298.063 197.156 A 4.6 4.6 0 0 1 297.041 194.265 Z M 297.041 79.359 L 297.041 22.2 A 2.95 2.95 0 0 0 294.091 19.25 L 280.542 19.25 A 2.95 2.95 0 0 1 277.592 16.3 L 277.592 8.9 A 2.95 2.95 0 0 0 274.642 5.95 L 244.542 5.95 A 2.95 2.95 0 0 1 241.592 3 L 241.592 2.95 A 2.95 2.95 0 0 0 238.642 0 L 221.791 0 A 2.95 2.95 0 0 0 218.841 2.95 L 218.841 4.326 A 2.95 2.95 0 0 1 216.096 7.268 L 200.67 8.347 A 2.95 2.95 0 0 0 197.933 11.496 L 198.43 18.594 A 2.95 2.95 0 0 1 195.948 21.714 L 180.33 24.188 A 2.95 2.95 0 0 0 177.878 27.563 L 185.676 76.8 A 2.95 2.95 0 0 0 189.051 79.252 L 205.695 76.616 A 2.95 2.95 0 0 0 208.147 73.241 L 207.158 66.996 A 2.95 2.95 0 0 1 209.866 63.591 L 222.165 62.731 A 2.95 2.95 0 0 1 225.321 65.674 L 225.321 75.751 A 2.95 2.95 0 0 0 228.271 78.701 L 236.661 78.701 A 65.32 65.32 0 0 1 252.637 80.685 L 254.493 81.182 A 65.32 65.32 0 0 1 268.486 86.978 L 270.15 87.939 A 65.32 65.32 0 0 1 282.849 97.833 L 288.888 103.872 A 2.95 2.95 0 0 0 293.06 103.872 L 304.27 92.663 A 2.95 2.95 0 0 0 304.272 88.492 L 298.27 82.48 A 2.95 2.95 0 0 1 298.063 82.25 A 4.6 4.6 0 0 1 297.041 79.359 Z M 295.841 79.359 L 295.841 23.501 A 3.05 3.05 0 0 0 292.791 20.451 L 279.242 20.451 A 2.85 2.85 0 0 1 276.392 17.601 L 276.392 10.2 A 3.05 3.05 0 0 0 273.342 7.15 L 243.242 7.15 A 2.85 2.85 0 0 1 240.392 4.3 L 240.392 4.25 A 3.05 3.05 0 0 0 237.342 1.2 L 223.091 1.2 A 3.05 3.05 0 0 0 220.041 4.25 L 220.041 5.538 A 2.85 2.85 0 0 1 217.39 8.381 L 202.051 9.454 A 3.05 3.05 0 0 0 199.221 12.709 L 199.71 19.699 A 2.85 2.85 0 0 1 197.313 22.713 L 181.802 25.17 A 3.05 3.05 0 0 0 179.266 28.659 L 186.658 75.328 A 3.05 3.05 0 0 0 190.148 77.864 L 204.223 75.634 A 3.05 3.05 0 0 0 206.758 72.145 L 205.751 65.782 A 2.85 2.85 0 0 1 208.367 62.493 L 223.472 61.437 A 2.85 2.85 0 0 1 226.521 64.28 L 226.521 74.451 A 3.05 3.05 0 0 0 229.571 77.501 L 236.661 77.501 A 66.52 66.52 0 0 1 252.94 79.524 L 254.812 80.025 A 66.52 66.52 0 0 1 269.078 85.934 L 270.757 86.904 A 66.52 66.52 0 0 1 283.698 96.984 L 288.818 102.104 A 3.05 3.05 0 0 0 293.131 102.104 L 302.503 92.732 A 3.05 3.05 0 0 0 302.505 88.421 L 297.379 83.286 A 2.85 2.85 0 0 1 297.228 83.122 A 5.8 5.8 0 0 1 295.841 79.359 Z M 295.841 194.265 L 295.841 138.407 A 3.05 3.05 0 0 0 292.791 135.357 L 279.242 135.357 A 2.85 2.85 0 0 1 276.392 132.507 L 276.392 125.106 A 3.05 3.05 0 0 0 273.342 122.056 L 243.242 122.056 A 2.85 2.85 0 0 1 240.392 119.206 L 240.392 119.156 A 3.05 3.05 0 0 0 237.342 116.106 L 223.091 116.106 A 3.05 3.05 0 0 0 220.041 119.156 L 220.041 120.444 A 2.85 2.85 0 0 1 217.39 123.287 L 202.051 124.36 A 3.05 3.05 0 0 0 199.221 127.615 L 199.71 134.605 A 2.85 2.85 0 0 1 197.313 137.619 L 181.802 140.076 A 3.05 3.05 0 0 0 179.266 143.565 L 186.658 190.234 A 3.05 3.05 0 0 0 190.148 192.77 L 204.223 190.54 A 3.05 3.05 0 0 0 206.758 187.051 L 205.751 180.688 A 2.85 2.85 0 0 1 208.367 177.399 L 223.472 176.343 A 2.85 2.85 0 0 1 226.521 179.186 L 226.521 189.357 A 3.05 3.05 0 0 0 229.571 192.407 L 236.661 192.407 A 66.52 66.52 0 0 1 252.94 194.43 L 254.812 194.931 A 66.52 66.52 0 0 1 269.078 200.84 L 270.757 201.81 A 66.52 66.52 0 0 1 283.698 211.89 L 288.818 217.01 A 3.05 3.05 0 0 0 293.131 217.01 L 302.503 207.638 A 3.05 3.05 0 0 0 302.505 203.327 L 297.379 198.192 A 2.85 2.85 0 0 1 297.228 198.028 A 5.8 5.8 0 0 1 295.841 194.265 Z M 190.122 192.681 L 204.197 190.452 A 2.95 2.95 0 0 0 206.65 187.076 L 205.642 180.714 A 2.95 2.95 0 0 1 208.35 177.309 L 223.455 176.253 A 2.95 2.95 0 0 1 226.611 179.196 L 226.611 189.367 A 2.95 2.95 0 0 0 229.561 192.317 L 236.651 192.317 A 66.62 66.62 0 0 1 252.955 194.343 L 254.829 194.845 A 66.62 66.62 0 0 1 269.117 200.764 L 270.798 201.734 A 66.62 66.62 0 0 1 283.759 211.83 L 288.878 216.949 A 2.95 2.95 0 0 0 293.05 216.949 L 302.422 207.578 A 2.95 2.95 0 0 0 302.424 203.408 L 297.299 198.273 A 2.95 2.95 0 0 1 297.142 198.103 A 5.9 5.9 0 0 1 295.79 195.104 A 2.95 2.95 0 0 0 294.398 193.246 L 277.757 183.638 A 2.95 2.95 0 0 1 276.282 181.083 L 276.282 125.116 A 2.95 2.95 0 0 0 273.332 122.166 L 243.232 122.166 A 2.95 2.95 0 0 1 240.282 119.216 L 240.282 119.166 A 2.95 2.95 0 0 0 237.332 116.216 L 223.081 116.216 A 2.95 2.95 0 0 0 220.131 119.166 L 220.131 120.454 A 2.95 2.95 0 0 1 217.386 123.397 L 202.048 124.469 A 2.95 2.95 0 0 0 199.311 127.618 L 199.8 134.608 A 2.95 2.95 0 0 1 197.319 137.728 L 181.807 140.184 A 2.95 2.95 0 0 0 179.355 143.559 L 186.747 190.229 A 2.95 2.95 0 0 0 190.122 192.681 Z M 190.122 77.775 L 204.197 75.546 A 2.95 2.95 0 0 0 206.65 72.17 L 205.642 65.808 A 2.95 2.95 0 0 1 208.35 62.403 L 223.455 61.347 A 2.95 2.95 0 0 1 226.611 64.29 L 226.611 74.461 A 2.95 2.95 0 0 0 229.561 77.411 L 236.651 77.411 A 66.62 66.62 0 0 1 252.955 79.437 L 254.829 79.939 A 66.62 66.62 0 0 1 269.117 85.858 L 270.798 86.828 A 66.62 66.62 0 0 1 283.759 96.924 L 288.878 102.043 A 2.95 2.95 0 0 0 293.05 102.043 L 302.422 92.672 A 2.95 2.95 0 0 0 302.424 88.502 L 297.299 83.367 A 2.95 2.95 0 0 1 297.142 83.197 A 5.9 5.9 0 0 1 295.79 80.198 A 2.95 2.95 0 0 0 294.398 78.34 L 277.757 68.732 A 2.95 2.95 0 0 1 276.282 66.177 L 276.282 10.21 A 2.95 2.95 0 0 0 273.332 7.26 L 243.232 7.26 A 2.95 2.95 0 0 1 240.282 4.31 L 240.282 4.26 A 2.95 2.95 0 0 0 237.332 1.31 L 223.081 1.31 A 2.95 2.95 0 0 0 220.131 4.26 L 220.131 5.548 A 2.95 2.95 0 0 1 217.386 8.491 L 202.048 9.563 A 2.95 2.95 0 0 0 199.311 12.712 L 199.8 19.702 A 2.95 2.95 0 0 1 197.319 22.822 L 181.807 25.278 A 2.95 2.95 0 0 0 179.355 28.653 L 186.747 75.323 A 2.95 2.95 0 0 0 190.122 77.775 Z M 134.543 73.98 L 134.543 23.491 A 2.95 2.95 0 0 0 131.593 20.541 L 118.044 20.541 A 2.95 2.95 0 0 0 115.094 23.491 L 115.094 66.157 A 2.95 2.95 0 0 0 116.569 68.712 L 118.422 69.782 L 130.118 76.534 A 2.95 2.95 0 0 0 134.543 73.98 Z M 134.543 188.886 L 134.543 138.397 A 2.95 2.95 0 0 0 131.593 135.447 L 118.044 135.447 A 2.95 2.95 0 0 0 115.094 138.397 L 115.094 181.063 A 2.95 2.95 0 0 0 116.569 183.618 L 118.422 184.688 L 130.118 191.44 A 2.95 2.95 0 0 0 134.543 188.886 Z M 295.751 73.98 L 295.751 23.491 A 2.95 2.95 0 0 0 292.801 20.541 L 279.252 20.541 A 2.95 2.95 0 0 0 276.302 23.491 L 276.302 66.157 A 2.95 2.95 0 0 0 277.777 68.712 L 279.63 69.782 L 291.326 76.534 A 2.95 2.95 0 0 0 295.751 73.98 Z M 295.751 188.886 L 295.751 138.397 A 2.95 2.95 0 0 0 292.801 135.447 L 279.252 135.447 A 2.95 2.95 0 0 0 276.302 138.397 L 276.302 181.063 A 2.95 2.95 0 0 0 277.777 183.618 L 279.63 184.688 L 291.326 191.44 A 2.95 2.95 0 0 0 295.751 188.886 Z M 119.338 54.816 L 130.298 54.816 A 0.17 0.17 0 0 0 130.468 54.646 L 130.468 29.186 A 0.17 0.17 0 0 0 130.298 29.016 L 119.338 29.016 A 0.17 0.17 0 0 0 119.168 29.186 L 119.168 54.646 A 0.17 0.17 0 0 0 119.338 54.816 Z M 280.546 54.816 L 291.506 54.816 A 0.17 0.17 0 0 0 291.676 54.646 L 291.676 29.186 A 0.17 0.17 0 0 0 291.506 29.016 L 280.546 29.016 A 0.17 0.17 0 0 0 280.376 29.186 L 280.376 54.646 A 0.17 0.17 0 0 0 280.546 54.816 Z M 119.338 169.722 L 130.298 169.722 A 0.17 0.17 0 0 0 130.468 169.552 L 130.468 144.092 A 0.17 0.17 0 0 0 130.298 143.922 L 119.338 143.922 A 0.17 0.17 0 0 0 119.168 144.092 L 119.168 169.552 A 0.17 0.17 0 0 0 119.338 169.722 Z M 280.546 169.722 L 291.506 169.722 A 0.17 0.17 0 0 0 291.676 169.552 L 291.676 144.092 A 0.17 0.17 0 0 0 291.506 143.922 L 280.546 143.922 A 0.17 0.17 0 0 0 280.376 144.092 L 280.376 169.552 A 0.17 0.17 0 0 0 280.546 169.722 Z M 71.928 74.961 A 0.75 0.75 0 0 0 72.678 75.711 L 78.278 75.711 A 0.75 0.75 0 0 0 79.028 74.961 L 79.028 74.956 A 0.17 0.17 0 0 1 79.198 74.786 L 82.258 74.786 A 0.17 0.17 0 0 0 82.428 74.616 L 82.428 61.056 A 0.17 0.17 0 0 0 82.258 60.886 L 68.698 60.886 A 0.17 0.17 0 0 0 68.528 61.056 L 68.528 74.616 A 0.17 0.17 0 0 0 68.698 74.786 L 71.758 74.786 A 0.17 0.17 0 0 1 71.928 74.956 L 71.928 74.961 Z M 71.928 189.867 A 0.75 0.75 0 0 0 72.678 190.617 L 78.278 190.617 A 0.75 0.75 0 0 0 79.028 189.867 L 79.028 189.862 A 0.17 0.17 0 0 1 79.198 189.692 L 82.258 189.692 A 0.17 0.17 0 0 0 82.428 189.522 L 82.428 175.962 A 0.17 0.17 0 0 0 82.258 175.792 L 68.698 175.792 A 0.17 0.17 0 0 0 68.528 175.962 L 68.528 189.522 A 0.17 0.17 0 0 0 68.698 189.692 L 71.758 189.692 A 0.17 0.17 0 0 1 71.928 189.862 L 71.928 189.867 Z M 233.136 74.961 A 0.75 0.75 0 0 0 233.886 75.711 L 239.486 75.711 A 0.75 0.75 0 0 0 240.236 74.961 L 240.236 74.956 A 0.17 0.17 0 0 1 240.406 74.786 L 243.466 74.786 A 0.17 0.17 0 0 0 243.636 74.616 L 243.636 61.056 A 0.17 0.17 0 0 0 243.466 60.886 L 229.906 60.886 A 0.17 0.17 0 0 0 229.736 61.056 L 229.736 74.616 A 0.17 0.17 0 0 0 229.906 74.786 L 232.966 74.786 A 0.17 0.17 0 0 1 233.136 74.956 L 233.136 74.961 Z M 233.136 189.867 A 0.75 0.75 0 0 0 233.886 190.617 L 239.486 190.617 A 0.75 0.75 0 0 0 240.236 189.867 L 240.236 189.862 A 0.17 0.17 0 0 1 240.406 189.692 L 243.466 189.692 A 0.17 0.17 0 0 0 243.636 189.522 L 243.636 175.962 A 0.17 0.17 0 0 0 243.466 175.792 L 229.906 175.792 A 0.17 0.17 0 0 0 229.736 175.962 L 229.736 189.522 A 0.17 0.17 0 0 0 229.906 189.692 L 232.966 189.692 A 0.17 0.17 0 0 1 233.136 189.862 L 233.136 189.867 Z M 104.267 80.723 L 116.011 87.503 A 0.17 0.17 0 0 0 116.243 87.441 L 123.023 75.698 A 0.17 0.17 0 0 0 122.961 75.465 L 111.217 68.685 A 0.17 0.17 0 0 0 110.985 68.748 L 104.205 80.491 A 0.17 0.17 0 0 0 104.267 80.723 Z M 265.475 80.723 L 277.219 87.503 A 0.17 0.17 0 0 0 277.451 87.441 L 284.231 75.698 A 0.17 0.17 0 0 0 284.169 75.465 L 272.425 68.685 A 0.17 0.17 0 0 0 272.193 68.748 L 265.413 80.491 A 0.17 0.17 0 0 0 265.475 80.723 Z M 265.475 195.629 L 277.219 202.409 A 0.17 0.17 0 0 0 277.451 202.347 L 284.231 190.604 A 0.17 0.17 0 0 0 284.169 190.371 L 272.425 183.591 A 0.17 0.17 0 0 0 272.193 183.654 L 265.413 195.397 A 0.17 0.17 0 0 0 265.475 195.629 Z M 104.267 195.629 L 116.011 202.409 A 0.17 0.17 0 0 0 116.243 202.347 L 123.023 190.604 A 0.17 0.17 0 0 0 122.961 190.371 L 111.217 183.591 A 0.17 0.17 0 0 0 110.985 183.654 L 104.205 195.397 A 0.17 0.17 0 0 0 104.267 195.629 Z M 248.082 190.319 L 261.18 193.829 A 0.17 0.17 0 0 0 261.388 193.708 L 264.897 180.61 A 0.17 0.17 0 0 0 264.777 180.402 L 251.679 176.893 A 0.17 0.17 0 0 0 251.471 177.013 L 247.961 190.111 A 0.17 0.17 0 0 0 248.082 190.319 Z M 248.082 75.413 L 261.18 78.923 A 0.17 0.17 0 0 0 261.388 78.802 L 264.897 65.704 A 0.17 0.17 0 0 0 264.777 65.496 L 251.679 61.987 A 0.17 0.17 0 0 0 251.471 62.107 L 247.961 75.205 A 0.17 0.17 0 0 0 248.082 75.413 Z M 86.874 190.319 L 99.972 193.829 A 0.17 0.17 0 0 0 100.18 193.708 L 103.689 180.61 A 0.17 0.17 0 0 0 103.569 180.402 L 90.471 176.893 A 0.17 0.17 0 0 0 90.263 177.013 L 86.753 190.111 A 0.17 0.17 0 0 0 86.874 190.319 Z M 86.874 75.413 L 99.972 78.923 A 0.17 0.17 0 0 0 100.18 78.802 L 103.689 65.704 A 0.17 0.17 0 0 0 103.569 65.496 L 90.471 61.987 A 0.17 0.17 0 0 0 90.263 62.107 L 86.753 75.205 A 0.17 0.17 0 0 0 86.874 75.413 Z M 98.218 175.242 L 111.778 175.242 A 0.17 0.17 0 0 0 111.948 175.072 L 111.948 161.512 A 0.17 0.17 0 0 0 111.778 161.342 L 98.218 161.342 A 0.17 0.17 0 0 0 98.048 161.512 L 98.048 175.072 A 0.17 0.17 0 0 0 98.218 175.242 Z M 98.218 60.336 L 111.778 60.336 A 0.17 0.17 0 0 0 111.948 60.166 L 111.948 46.606 A 0.17 0.17 0 0 0 111.778 46.436 L 98.218 46.436 A 0.17 0.17 0 0 0 98.048 46.606 L 98.048 60.166 A 0.17 0.17 0 0 0 98.218 60.336 Z M 98.218 43.336 L 111.778 43.336 A 0.17 0.17 0 0 0 111.948 43.166 L 111.948 29.606 A 0.17 0.17 0 0 0 111.778 29.436 L 98.218 29.436 A 0.17 0.17 0 0 0 98.048 29.606 L 98.048 43.166 A 0.17 0.17 0 0 0 98.218 43.336 Z M 98.218 158.242 L 111.778 158.242 A 0.17 0.17 0 0 0 111.948 158.072 L 111.948 144.512 A 0.17 0.17 0 0 0 111.778 144.342 L 98.218 144.342 A 0.17 0.17 0 0 0 98.048 144.512 L 98.048 158.072 A 0.17 0.17 0 0 0 98.218 158.242 Z M 98.218 26.336 L 111.778 26.336 A 0.17 0.17 0 0 0 111.948 26.166 L 111.948 12.606 A 0.17 0.17 0 0 0 111.778 12.436 L 98.218 12.436 A 0.17 0.17 0 0 0 98.048 12.606 L 98.048 26.166 A 0.17 0.17 0 0 0 98.218 26.336 Z M 80.218 172.692 L 93.778 172.692 A 0.17 0.17 0 0 0 93.948 172.522 L 93.948 158.962 A 0.17 0.17 0 0 0 93.778 158.792 L 80.218 158.792 A 0.17 0.17 0 0 0 80.048 158.962 L 80.048 172.522 A 0.17 0.17 0 0 0 80.218 172.692 Z M 98.218 141.242 L 111.778 141.242 A 0.17 0.17 0 0 0 111.948 141.072 L 111.948 127.512 A 0.17 0.17 0 0 0 111.778 127.342 L 98.218 127.342 A 0.17 0.17 0 0 0 98.048 127.512 L 98.048 141.072 A 0.17 0.17 0 0 0 98.218 141.242 Z M 241.426 172.692 L 254.986 172.692 A 0.17 0.17 0 0 0 255.156 172.522 L 255.156 158.962 A 0.17 0.17 0 0 0 254.986 158.792 L 241.426 158.792 A 0.17 0.17 0 0 0 241.256 158.962 L 241.256 172.522 A 0.17 0.17 0 0 0 241.426 172.692 Z M 259.426 175.242 L 272.986 175.242 A 0.17 0.17 0 0 0 273.156 175.072 L 273.156 161.512 A 0.17 0.17 0 0 0 272.986 161.342 L 259.426 161.342 A 0.17 0.17 0 0 0 259.256 161.512 L 259.256 175.072 A 0.17 0.17 0 0 0 259.426 175.242 Z M 62.218 51.836 L 75.778 51.836 A 0.17 0.17 0 0 0 75.948 51.666 L 75.948 38.106 A 0.17 0.17 0 0 0 75.778 37.936 L 62.218 37.936 A 0.17 0.17 0 0 0 62.048 38.106 L 62.048 51.666 A 0.17 0.17 0 0 0 62.218 51.836 Z M 80.218 57.786 L 93.778 57.786 A 0.17 0.17 0 0 0 93.948 57.616 L 93.948 44.056 A 0.17 0.17 0 0 0 93.778 43.886 L 80.218 43.886 A 0.17 0.17 0 0 0 80.048 44.056 L 80.048 57.616 A 0.17 0.17 0 0 0 80.218 57.786 Z M 223.426 51.836 L 236.986 51.836 A 0.17 0.17 0 0 0 237.156 51.666 L 237.156 38.106 A 0.17 0.17 0 0 0 236.986 37.936 L 223.426 37.936 A 0.17 0.17 0 0 0 223.256 38.106 L 223.256 51.666 A 0.17 0.17 0 0 0 223.426 51.836 Z M 241.426 57.786 L 254.986 57.786 A 0.17 0.17 0 0 0 255.156 57.616 L 255.156 44.056 A 0.17 0.17 0 0 0 254.986 43.886 L 241.426 43.886 A 0.17 0.17 0 0 0 241.256 44.056 L 241.256 57.616 A 0.17 0.17 0 0 0 241.426 57.786 Z M 259.426 60.336 L 272.986 60.336 A 0.17 0.17 0 0 0 273.156 60.166 L 273.156 46.606 A 0.17 0.17 0 0 0 272.986 46.436 L 259.426 46.436 A 0.17 0.17 0 0 0 259.256 46.606 L 259.256 60.166 A 0.17 0.17 0 0 0 259.426 60.336 Z M 259.426 43.336 L 272.986 43.336 A 0.17 0.17 0 0 0 273.156 43.166 L 273.156 29.606 A 0.17 0.17 0 0 0 272.986 29.436 L 259.426 29.436 A 0.17 0.17 0 0 0 259.256 29.606 L 259.256 43.166 A 0.17 0.17 0 0 0 259.426 43.336 Z M 259.426 158.242 L 272.986 158.242 A 0.17 0.17 0 0 0 273.156 158.072 L 273.156 144.512 A 0.17 0.17 0 0 0 272.986 144.342 L 259.426 144.342 A 0.17 0.17 0 0 0 259.256 144.512 L 259.256 158.072 A 0.17 0.17 0 0 0 259.426 158.242 Z M 62.218 34.836 L 75.778 34.836 A 0.17 0.17 0 0 0 75.948 34.666 L 75.948 21.106 A 0.17 0.17 0 0 0 75.778 20.936 L 62.218 20.936 A 0.17 0.17 0 0 0 62.048 21.106 L 62.048 34.666 A 0.17 0.17 0 0 0 62.218 34.836 Z M 62.218 17.836 L 75.778 17.836 A 0.17 0.17 0 0 0 75.948 17.666 L 75.948 4.106 A 0.17 0.17 0 0 0 75.778 3.936 L 62.218 3.936 A 0.17 0.17 0 0 0 62.048 4.106 L 62.048 17.666 A 0.17 0.17 0 0 0 62.218 17.836 Z M 80.218 40.786 L 93.778 40.786 A 0.17 0.17 0 0 0 93.948 40.616 L 93.948 27.056 A 0.17 0.17 0 0 0 93.778 26.886 L 80.218 26.886 A 0.17 0.17 0 0 0 80.048 27.056 L 80.048 40.616 A 0.17 0.17 0 0 0 80.218 40.786 Z M 223.426 34.836 L 236.986 34.836 A 0.17 0.17 0 0 0 237.156 34.666 L 237.156 21.106 A 0.17 0.17 0 0 0 236.986 20.936 L 223.426 20.936 A 0.17 0.17 0 0 0 223.256 21.106 L 223.256 34.666 A 0.17 0.17 0 0 0 223.426 34.836 Z M 223.426 17.836 L 236.986 17.836 A 0.17 0.17 0 0 0 237.156 17.666 L 237.156 4.106 A 0.17 0.17 0 0 0 236.986 3.936 L 223.426 3.936 A 0.17 0.17 0 0 0 223.256 4.106 L 223.256 17.666 A 0.17 0.17 0 0 0 223.426 17.836 Z M 241.426 40.786 L 254.986 40.786 A 0.17 0.17 0 0 0 255.156 40.616 L 255.156 27.056 A 0.17 0.17 0 0 0 254.986 26.886 L 241.426 26.886 A 0.17 0.17 0 0 0 241.256 27.056 L 241.256 40.616 A 0.17 0.17 0 0 0 241.426 40.786 Z M 259.426 26.336 L 272.986 26.336 A 0.17 0.17 0 0 0 273.156 26.166 L 273.156 12.606 A 0.17 0.17 0 0 0 272.986 12.436 L 259.426 12.436 A 0.17 0.17 0 0 0 259.256 12.606 L 259.256 26.166 A 0.17 0.17 0 0 0 259.426 26.336 Z M 80.218 23.786 L 93.778 23.786 A 0.17 0.17 0 0 0 93.948 23.616 L 93.948 10.056 A 0.17 0.17 0 0 0 93.778 9.886 L 80.218 9.886 A 0.17 0.17 0 0 0 80.048 10.056 L 80.048 23.616 A 0.17 0.17 0 0 0 80.218 23.786 Z M 241.426 23.786 L 254.986 23.786 A 0.17 0.17 0 0 0 255.156 23.616 L 255.156 10.056 A 0.17 0.17 0 0 0 254.986 9.886 L 241.426 9.886 A 0.17 0.17 0 0 0 241.256 10.056 L 241.256 23.616 A 0.17 0.17 0 0 0 241.426 23.786 Z M 62.218 166.742 L 75.778 166.742 A 0.17 0.17 0 0 0 75.948 166.572 L 75.948 153.012 A 0.17 0.17 0 0 0 75.778 152.842 L 62.218 152.842 A 0.17 0.17 0 0 0 62.048 153.012 L 62.048 166.572 A 0.17 0.17 0 0 0 62.218 166.742 Z M 62.218 149.742 L 75.778 149.742 A 0.17 0.17 0 0 0 75.948 149.572 L 75.948 136.012 A 0.17 0.17 0 0 0 75.778 135.842 L 62.218 135.842 A 0.17 0.17 0 0 0 62.048 136.012 L 62.048 149.572 A 0.17 0.17 0 0 0 62.218 149.742 Z M 62.218 132.742 L 75.778 132.742 A 0.17 0.17 0 0 0 75.948 132.572 L 75.948 119.012 A 0.17 0.17 0 0 0 75.778 118.842 L 62.218 118.842 A 0.17 0.17 0 0 0 62.048 119.012 L 62.048 132.572 A 0.17 0.17 0 0 0 62.218 132.742 Z M 80.218 155.692 L 93.778 155.692 A 0.17 0.17 0 0 0 93.948 155.522 L 93.948 141.962 A 0.17 0.17 0 0 0 93.778 141.792 L 80.218 141.792 A 0.17 0.17 0 0 0 80.048 141.962 L 80.048 155.522 A 0.17 0.17 0 0 0 80.218 155.692 Z M 80.218 138.692 L 93.778 138.692 A 0.17 0.17 0 0 0 93.948 138.522 L 93.948 124.962 A 0.17 0.17 0 0 0 93.778 124.792 L 80.218 124.792 A 0.17 0.17 0 0 0 80.048 124.962 L 80.048 138.522 A 0.17 0.17 0 0 0 80.218 138.692 Z M 223.426 166.742 L 236.986 166.742 A 0.17 0.17 0 0 0 237.156 166.572 L 237.156 153.012 A 0.17 0.17 0 0 0 236.986 152.842 L 223.426 152.842 A 0.17 0.17 0 0 0 223.256 153.012 L 223.256 166.572 A 0.17 0.17 0 0 0 223.426 166.742 Z M 223.426 149.742 L 236.986 149.742 A 0.17 0.17 0 0 0 237.156 149.572 L 237.156 136.012 A 0.17 0.17 0 0 0 236.986 135.842 L 223.426 135.842 A 0.17 0.17 0 0 0 223.256 136.012 L 223.256 149.572 A 0.17 0.17 0 0 0 223.426 149.742 Z M 223.426 132.742 L 236.986 132.742 A 0.17 0.17 0 0 0 237.156 132.572 L 237.156 119.012 A 0.17 0.17 0 0 0 236.986 118.842 L 223.426 118.842 A 0.17 0.17 0 0 0 223.256 119.012 L 223.256 132.572 A 0.17 0.17 0 0 0 223.426 132.742 Z M 241.426 155.692 L 254.986 155.692 A 0.17 0.17 0 0 0 255.156 155.522 L 255.156 141.962 A 0.17 0.17 0 0 0 254.986 141.792 L 241.426 141.792 A 0.17 0.17 0 0 0 241.256 141.962 L 241.256 155.522 A 0.17 0.17 0 0 0 241.426 155.692 Z M 241.426 138.692 L 254.986 138.692 A 0.17 0.17 0 0 0 255.156 138.522 L 255.156 124.962 A 0.17 0.17 0 0 0 254.986 124.792 L 241.426 124.792 A 0.17 0.17 0 0 0 241.256 124.962 L 241.256 138.522 A 0.17 0.17 0 0 0 241.426 138.692 Z M 259.426 141.242 L 272.986 141.242 A 0.17 0.17 0 0 0 273.156 141.072 L 273.156 127.512 A 0.17 0.17 0 0 0 272.986 127.342 L 259.426 127.342 A 0.17 0.17 0 0 0 259.256 127.512 L 259.256 141.072 A 0.17 0.17 0 0 0 259.426 141.242 Z M 9.79 69.884 L 23.183 67.763 A 0.17 0.17 0 0 0 23.324 67.568 L 21.203 54.175 A 0.17 0.17 0 0 0 21.008 54.034 L 7.615 56.155 A 0.17 0.17 0 0 0 7.474 56.35 L 9.595 69.743 A 0.17 0.17 0 0 0 9.79 69.884 Z M 9.79 184.79 L 23.183 182.669 A 0.17 0.17 0 0 0 23.324 182.474 L 21.203 169.081 A 0.17 0.17 0 0 0 21.008 168.94 L 7.615 171.061 A 0.17 0.17 0 0 0 7.474 171.256 L 9.595 184.649 A 0.17 0.17 0 0 0 9.79 184.79 Z M 7.13 167.999 L 20.523 165.878 A 0.17 0.17 0 0 0 20.665 165.684 L 18.543 152.29 A 0.17 0.17 0 0 0 18.349 152.149 L 4.956 154.27 A 0.17 0.17 0 0 0 4.814 154.465 L 6.936 167.858 A 0.17 0.17 0 0 0 7.13 167.999 Z M 23.526 41.546 L 36.919 39.425 A 0.17 0.17 0 0 0 37.06 39.231 L 34.939 25.837 A 0.17 0.17 0 0 0 34.744 25.696 L 21.351 27.817 A 0.17 0.17 0 0 0 21.21 28.012 L 23.331 41.405 A 0.17 0.17 0 0 0 23.526 41.546 Z M 23.526 156.452 L 36.919 154.331 A 0.17 0.17 0 0 0 37.06 154.137 L 34.939 140.743 A 0.17 0.17 0 0 0 34.744 140.602 L 21.351 142.723 A 0.17 0.17 0 0 0 21.21 142.918 L 23.331 156.311 A 0.17 0.17 0 0 0 23.526 156.452 Z M 26.185 173.243 L 39.578 171.122 A 0.17 0.17 0 0 0 39.719 170.927 L 37.598 157.534 A 0.17 0.17 0 0 0 37.404 157.393 L 24.011 159.514 A 0.17 0.17 0 0 0 23.869 159.709 L 25.991 173.102 A 0.17 0.17 0 0 0 26.185 173.243 Z M 7.13 53.093 L 20.523 50.972 A 0.17 0.17 0 0 0 20.665 50.778 L 18.543 37.384 A 0.17 0.17 0 0 0 18.349 37.243 L 4.956 39.364 A 0.17 0.17 0 0 0 4.814 39.559 L 6.936 52.952 A 0.17 0.17 0 0 0 7.13 53.093 Z M 187.393 173.243 L 200.786 171.122 A 0.17 0.17 0 0 0 200.927 170.927 L 198.806 157.534 A 0.17 0.17 0 0 0 198.612 157.393 L 185.219 159.514 A 0.17 0.17 0 0 0 185.077 159.709 L 187.199 173.102 A 0.17 0.17 0 0 0 187.393 173.243 Z M 184.734 41.546 L 198.127 39.425 A 0.17 0.17 0 0 0 198.268 39.231 L 196.147 25.837 A 0.17 0.17 0 0 0 195.952 25.696 L 182.559 27.817 A 0.17 0.17 0 0 0 182.418 28.012 L 184.539 41.405 A 0.17 0.17 0 0 0 184.734 41.546 Z M 184.734 156.452 L 198.127 154.331 A 0.17 0.17 0 0 0 198.268 154.137 L 196.147 140.743 A 0.17 0.17 0 0 0 195.952 140.602 L 182.559 142.723 A 0.17 0.17 0 0 0 182.418 142.918 L 184.539 156.311 A 0.17 0.17 0 0 0 184.734 156.452 Z M 26.185 58.337 L 39.578 56.216 A 0.17 0.17 0 0 0 39.719 56.021 L 37.598 42.628 A 0.17 0.17 0 0 0 37.404 42.487 L 24.011 44.608 A 0.17 0.17 0 0 0 23.869 44.803 L 25.991 58.196 A 0.17 0.17 0 0 0 26.185 58.337 Z M 187.393 58.337 L 200.786 56.216 A 0.17 0.17 0 0 0 200.927 56.021 L 198.806 42.628 A 0.17 0.17 0 0 0 198.612 42.487 L 185.219 44.608 A 0.17 0.17 0 0 0 185.077 44.803 L 187.199 58.196 A 0.17 0.17 0 0 0 187.393 58.337 Z M 28.844 190.034 L 42.238 187.912 A 0.17 0.17 0 0 0 42.379 187.718 L 40.258 174.325 A 0.17 0.17 0 0 0 40.063 174.184 L 26.67 176.305 A 0.17 0.17 0 0 0 26.529 176.499 L 28.65 189.892 A 0.17 0.17 0 0 0 28.844 190.034 Z M 28.844 75.128 L 42.238 73.006 A 0.17 0.17 0 0 0 42.379 72.812 L 40.258 59.419 A 0.17 0.17 0 0 0 40.063 59.278 L 26.67 61.399 A 0.17 0.17 0 0 0 26.529 61.593 L 28.65 74.986 A 0.17 0.17 0 0 0 28.844 75.128 Z M 190.052 190.034 L 203.446 187.912 A 0.17 0.17 0 0 0 203.587 187.718 L 201.466 174.325 A 0.17 0.17 0 0 0 201.271 174.184 L 187.878 176.305 A 0.17 0.17 0 0 0 187.737 176.499 L 189.858 189.892 A 0.17 0.17 0 0 0 190.052 190.034 Z M 190.052 75.128 L 203.446 73.006 A 0.17 0.17 0 0 0 203.587 72.812 L 201.466 59.419 A 0.17 0.17 0 0 0 201.271 59.278 L 187.878 61.399 A 0.17 0.17 0 0 0 187.737 61.593 L 189.858 74.986 A 0.17 0.17 0 0 0 190.052 75.128 Z M 42.338 26.024 L 55.864 25.079 A 0.17 0.17 0 0 0 56.022 24.897 L 55.076 11.37 A 0.17 0.17 0 0 0 54.895 11.212 L 41.368 12.158 A 0.17 0.17 0 0 0 41.21 12.34 L 42.156 25.867 A 0.17 0.17 0 0 0 42.338 26.024 Z M 42.338 140.93 L 55.864 139.985 A 0.17 0.17 0 0 0 56.022 139.803 L 55.076 126.276 A 0.17 0.17 0 0 0 54.895 126.118 L 41.368 127.064 A 0.17 0.17 0 0 0 41.21 127.246 L 42.156 140.773 A 0.17 0.17 0 0 0 42.338 140.93 Z M 203.546 26.024 L 217.072 25.079 A 0.17 0.17 0 0 0 217.23 24.897 L 216.284 11.37 A 0.17 0.17 0 0 0 216.103 11.212 L 202.576 12.158 A 0.17 0.17 0 0 0 202.418 12.34 L 203.364 25.867 A 0.17 0.17 0 0 0 203.546 26.024 Z M 203.546 140.93 L 217.072 139.985 A 0.17 0.17 0 0 0 217.23 139.803 L 216.284 126.276 A 0.17 0.17 0 0 0 216.103 126.118 L 202.576 127.064 A 0.17 0.17 0 0 0 202.418 127.246 L 203.364 140.773 A 0.17 0.17 0 0 0 203.546 140.93 Z M 44.709 174.848 L 58.236 173.902 A 0.17 0.17 0 0 0 58.394 173.72 L 57.448 160.193 A 0.17 0.17 0 0 0 57.267 160.036 L 43.74 160.981 A 0.17 0.17 0 0 0 43.582 161.163 L 44.528 174.69 A 0.17 0.17 0 0 0 44.709 174.848 Z M 205.917 174.848 L 219.444 173.902 A 0.17 0.17 0 0 0 219.602 173.72 L 218.656 160.193 A 0.17 0.17 0 0 0 218.475 160.036 L 204.948 160.981 A 0.17 0.17 0 0 0 204.79 161.163 L 205.736 174.69 A 0.17 0.17 0 0 0 205.917 174.848 Z M 205.917 59.942 L 219.444 58.996 A 0.17 0.17 0 0 0 219.602 58.814 L 218.656 45.287 A 0.17 0.17 0 0 0 218.475 45.13 L 204.948 46.075 A 0.17 0.17 0 0 0 204.79 46.257 L 205.736 59.784 A 0.17 0.17 0 0 0 205.917 59.942 Z M 44.709 59.942 L 58.236 58.996 A 0.17 0.17 0 0 0 58.394 58.814 L 57.448 45.287 A 0.17 0.17 0 0 0 57.267 45.13 L 43.74 46.075 A 0.17 0.17 0 0 0 43.582 46.257 L 44.528 59.784 A 0.17 0.17 0 0 0 44.709 59.942 Z M 204.731 42.983 L 218.258 42.037 A 0.17 0.17 0 0 0 218.416 41.856 L 217.47 28.329 A 0.17 0.17 0 0 0 217.289 28.171 L 203.762 29.117 A 0.17 0.17 0 0 0 203.604 29.298 L 204.55 42.825 A 0.17 0.17 0 0 0 204.731 42.983 Z M 204.731 157.889 L 218.258 156.943 A 0.17 0.17 0 0 0 218.416 156.762 L 217.47 143.235 A 0.17 0.17 0 0 0 217.289 143.077 L 203.762 144.023 A 0.17 0.17 0 0 0 203.604 144.204 L 204.55 157.731 A 0.17 0.17 0 0 0 204.731 157.889 Z M 43.523 42.983 L 57.05 42.037 A 0.17 0.17 0 0 0 57.208 41.856 L 56.262 28.329 A 0.17 0.17 0 0 0 56.081 28.171 L 42.554 29.117 A 0.17 0.17 0 0 0 42.396 29.298 L 43.342 42.825 A 0.17 0.17 0 0 0 43.523 42.983 Z M 43.523 157.889 L 57.05 156.943 A 0.17 0.17 0 0 0 57.208 156.762 L 56.262 143.235 A 0.17 0.17 0 0 0 56.081 143.077 L 42.554 144.023 A 0.17 0.17 0 0 0 42.396 144.204 L 43.342 157.731 A 0.17 0.17 0 0 0 43.523 157.889 Z M 119.694 90.354 L 129.283 99.943 A 0.17 0.17 0 0 0 129.523 99.943 L 139.111 90.354 A 0.17 0.17 0 0 0 139.111 90.114 L 129.523 80.525 A 0.17 0.17 0 0 0 129.283 80.525 L 119.694 90.114 A 0.17 0.17 0 0 0 119.694 90.354 Z M 119.694 205.26 L 129.283 214.849 A 0.17 0.17 0 0 0 129.523 214.849 L 139.111 205.26 A 0.17 0.17 0 0 0 139.111 205.02 L 129.523 195.431 A 0.17 0.17 0 0 0 129.283 195.431 L 119.694 205.02 A 0.17 0.17 0 0 0 119.694 205.26 Z M 280.902 90.354 L 290.491 99.943 A 0.17 0.17 0 0 0 290.731 99.943 L 300.319 90.354 A 0.17 0.17 0 0 0 300.319 90.114 L 290.731 80.525 A 0.17 0.17 0 0 0 290.491 80.525 L 280.902 90.114 A 0.17 0.17 0 0 0 280.902 90.354 Z M 280.902 205.26 L 290.491 214.849 A 0.17 0.17 0 0 0 290.731 214.849 L 300.319 205.26 A 0.17 0.17 0 0 0 300.319 205.02 L 290.731 195.431 A 0.17 0.17 0 0 0 290.491 195.431 L 280.902 205.02 A 0.17 0.17 0 0 0 280.902 205.26 Z M 59.198 19.386 m -1.1 0 a 1.1 1.1 0 0 1 2.2 0 a 1.1 1.1 0 0 1 -2.2 0 z M 95.648 25.336 m -1.1 0 a 1.1 1.1 0 0 1 2.2 0 a 1.1 1.1 0 0 1 -2.2 0 z M 122.024 83.527 m -1.1 0 a 1.1 1.1 0 0 1 2.2 0 a 1.1 1.1 0 0 1 -2.2 0 z M 85.478 68.336 m -1.1 0 a 1.1 1.1 0 0 1 2.2 0 a 1.1 1.1 0 0 1 -2.2 0 z M 22.613 52.21 m -1.1 0 a 1.1 1.1 0 0 1 2.2 0 a 1.1 1.1 0 0 1 -2.2 0 z M 59.198 134.292 m -1.1 0 a 1.1 1.1 0 0 1 2.2 0 a 1.1 1.1 0 0 1 -2.2 0 z M 95.648 140.242 m -1.1 0 a 1.1 1.1 0 0 1 2.2 0 a 1.1 1.1 0 0 1 -2.2 0 z M 122.024 198.433 m -1.1 0 a 1.1 1.1 0 0 1 2.2 0 a 1.1 1.1 0 0 1 -2.2 0 z M 85.478 183.242 m -1.1 0 a 1.1 1.1 0 0 1 2.2 0 a 1.1 1.1 0 0 1 -2.2 0 z M 22.613 167.116 m -1.1 0 a 1.1 1.1 0 0 1 2.2 0 a 1.1 1.1 0 0 1 -2.2 0 z M 220.406 19.386 m -1.1 0 a 1.1 1.1 0 0 1 2.2 0 a 1.1 1.1 0 0 1 -2.2 0 z M 256.856 25.336 m -1.1 0 a 1.1 1.1 0 0 1 2.2 0 a 1.1 1.1 0 0 1 -2.2 0 z M 283.232 83.527 m -1.1 0 a 1.1 1.1 0 0 1 2.2 0 a 1.1 1.1 0 0 1 -2.2 0 z M 246.686 68.336 m -1.1 0 a 1.1 1.1 0 0 1 2.2 0 a 1.1 1.1 0 0 1 -2.2 0 z M 201.155 40.515 m -1.1 0 a 1.1 1.1 0 0 1 2.2 0 a 1.1 1.1 0 0 1 -2.2 0 z M 220.406 134.292 m -1.1 0 a 1.1 1.1 0 0 1 2.2 0 a 1.1 1.1 0 0 1 -2.2 0 z M 256.856 140.242 m -1.1 0 a 1.1 1.1 0 0 1 2.2 0 a 1.1 1.1 0 0 1 -2.2 0 z M 283.232 198.433 m -1.1 0 a 1.1 1.1 0 0 1 2.2 0 a 1.1 1.1 0 0 1 -2.2 0 z M 246.686 183.242 m -1.1 0 a 1.1 1.1 0 0 1 2.2 0 a 1.1 1.1 0 0 1 -2.2 0 z M 201.155 155.421 m -1.1 0 a 1.1 1.1 0 0 1 2.2 0 a 1.1 1.1 0 0 1 -2.2 0 z M 118.018 66.166 m -1 0 a 1 1 0 0 1 2 0 a 1 1 0 0 1 -2 0 z M 131.618 74.02 m -1 0 a 1 1 0 0 1 2 0 a 1 1 0 0 1 -2 0 z M 118.018 181.072 m -1 0 a 1 1 0 0 1 2 0 a 1 1 0 0 1 -2 0 z M 131.618 188.926 m -1 0 a 1 1 0 0 1 2 0 a 1 1 0 0 1 -2 0 z M 279.226 66.166 m -1 0 a 1 1 0 0 1 2 0 a 1 1 0 0 1 -2 0 z M 292.826 74.02 m -1 0 a 1 1 0 0 1 2 0 a 1 1 0 0 1 -2 0 z M 279.226 181.072 m -1 0 a 1 1 0 0 1 2 0 a 1 1 0 0 1 -2 0 z M 292.826 188.926 m -1 0 a 1 1 0 0 1 2 0 a 1 1 0 0 1 -2 0 z" vector-effect="non-scaling-stroke"/></g></svg>