<svg width="304.896mm" height="219.642mm" viewBox="0 0 304.896 219.642" xmlns="http://www.w3.org/2000/svg"><g id="svgGroup" stroke-linecap="round" fill-rule="evenodd" font-size="9pt" stroke="#e2725b" stroke-width="0.25mm" fill="none" style="stroke:#e2725b;stroke-width:0.25mm;fill:none"><path d="M 296.803 79.359 L 296.803 22.2 A 2.95 2.95 0 0 0 293.853 19.25 L 280.304 19.25 A 2.95 2.95 0 0 1 277.354 16.3 L 277.354 8.9 A 2.95 2.95 0 0 0 274.404 5.95 L 244.304 5.95 A 2.95 2.95 0 0 1 241.354 3 L 241.354 2.95 A 2.95 2.95 0 0 0 238.404 0 L 221.553 0 A 2.95 2.95 0 0 0 218.603 2.95 L 218.603 4.326 A 2.95 2.95 0 0 1 215.859 7.268 L 200.433 8.347 A 2.95 2.95 0 0 0 197.696 11.496 L 198.192 18.594 A 2.95 2.95 0 0 1 195.711 21.714 L 180.092 24.188 A 2.95 2.95 0 0 0 177.64 27.563 L 178.1 30.467 A 2.95 2.95 0 0 1 175.648 33.842 L 163.697 35.735 L 163.459 35.772 A 2.95 2.95 0 0 0 160.97 38.686 L 160.97 71.947 A 2.95 2.95 0 0 0 164.382 74.86 L 176.451 72.949 L 181.71 72.116 A 2.95 2.95 0 0 1 185.085 74.568 L 185.438 76.8 A 2.95 2.95 0 0 0 188.813 79.252 L 205.457 76.616 A 2.95 2.95 0 0 0 207.909 73.241 L 206.92 66.996 A 2.95 2.95 0 0 1 209.628 63.591 L 221.927 62.731 A 2.95 2.95 0 0 1 225.083 65.674 L 225.083 75.751 A 2.95 2.95 0 0 0 228.033 78.701 L 236.423 78.701 A 65.32 65.32 0 0 1 252.4 80.685 L 254.256 81.182 A 65.32 65.32 0 0 1 268.248 86.978 L 269.912 87.939 A 65.32 65.32 0 0 1 282.612 97.833 L 288.651 103.872 A 2.95 2.95 0 0 0 292.823 103.872 L 304.032 92.663 A 2.95 2.95 0 0 0 304.034 88.492 L 298.032 82.48 A 2.95 2.95 0 0 1 297.826 82.25 A 4.6 4.6 0 0 1 296.803 79.359 Z M 135.595 79.359 L 135.595 22.2 A 2.95 2.95 0 0 0 132.645 19.25 L 119.096 19.25 A 2.95 2.95 0 0 1 116.146 16.3 L 116.146 8.9 A 2.95 2.95 0 0 0 113.196 5.95 L 83.096 5.95 A 2.95 2.95 0 0 1 80.146 3 L 80.146 2.95 A 2.95 2.95 0 0 0 77.196 0 L 60.345 0 A 2.95 2.95 0 0 0 57.395 2.95 L 57.395 4.326 A 2.95 2.95 0 0 1 54.651 7.268 L 39.225 8.347 A 2.95 2.95 0 0 0 36.488 11.496 L 36.984 18.594 A 2.95 2.95 0 0 1 34.503 21.714 L 18.884 24.188 A 2.95 2.95 0 0 0 16.432 27.563 L 16.892 30.467 A 2.95 2.95 0 0 1 14.44 33.842 L 2.489 35.735 A 2.95 2.95 0 0 0 0.036 39.11 L 5.175 71.556 A 2.95 2.95 0 0 0 8.551 74.009 L 20.502 72.116 A 2.95 2.95 0 0 1 23.877 74.568 L 24.23 76.8 A 2.95 2.95 0 0 0 27.605 79.252 L 44.249 76.616 A 2.95 2.95 0 0 0 46.701 73.241 L 45.712 66.996 A 2.95 2.95 0 0 1 48.42 63.591 L 60.719 62.731 A 2.95 2.95 0 0 1 63.875 65.674 L 63.875 75.751 A 2.95 2.95 0 0 0 66.825 78.701 L 75.215 78.701 A 65.32 65.32 0 0 1 91.192 80.685 L 93.048 81.182 A 65.32 65.32 0 0 1 107.04 86.978 L 108.704 87.939 A 65.32 65.32 0 0 1 121.404 97.833 L 127.443 103.872 A 2.95 2.95 0 0 0 131.615 103.872 L 142.824 92.663 A 2.95 2.95 0 0 0 142.826 88.492 L 136.824 82.48 A 2.95 2.95 0 0 1 136.618 82.25 A 4.6 4.6 0 0 1 135.595 79.359 Z M 295.603 79.359 L 295.603 23.501 A 3.05 3.05 0 0 0 292.553 20.451 L 279.004 20.451 A 2.85 2.85 0 0 1 276.154 17.601 L 276.154 10.2 A 3.05 3.05 0 0 0 273.104 7.15 L 243.004 7.15 A 2.85 2.85 0 0 1 240.154 4.3 L 240.154 4.25 A 3.05 3.05 0 0 0 237.104 1.2 L 222.853 1.2 A 3.05 3.05 0 0 0 219.803 4.25 L 219.803 5.538 A 2.85 2.85 0 0 1 217.152 8.381 L 201.813 9.454 A 3.05 3.05 0 0 0 198.984 12.709 L 199.472 19.699 A 2.85 2.85 0 0 1 197.075 22.713 L 181.564 25.17 A 3.05 3.05 0 0 0 179.029 28.659 L 179.488 31.563 A 2.85 2.85 0 0 1 177.119 34.824 L 165.168 36.717 A 3.05 3.05 0 0 0 162.633 40.206 L 167.365 70.085 A 3.05 3.05 0 0 0 170.855 72.62 L 182.806 70.727 A 2.85 2.85 0 0 1 186.067 73.096 L 186.42 75.328 A 3.05 3.05 0 0 0 189.91 77.864 L 203.985 75.634 A 3.05 3.05 0 0 0 206.521 72.145 L 205.513 65.782 A 2.85 2.85 0 0 1 208.129 62.493 L 223.234 61.437 A 2.85 2.85 0 0 1 226.283 64.28 L 226.283 74.451 A 3.05 3.05 0 0 0 229.333 77.501 L 236.423 77.501 A 66.52 66.52 0 0 1 252.702 79.524 L 254.575 80.025 A 66.52 66.52 0 0 1 268.84 85.934 L 270.519 86.904 A 66.52 66.52 0 0 1 283.46 96.984 L 288.58 102.104 A 3.05 3.05 0 0 0 292.893 102.104 L 302.265 92.732 A 3.05 3.05 0 0 0 302.267 88.421 L 297.142 83.286 A 2.85 2.85 0 0 1 296.99 83.122 A 5.8 5.8 0 0 1 295.603 79.359 Z M 134.395 79.359 L 134.395 23.501 A 3.05 3.05 0 0 0 131.345 20.451 L 117.796 20.451 A 2.85 2.85 0 0 1 114.946 17.601 L 114.946 10.2 A 3.05 3.05 0 0 0 111.896 7.15 L 81.796 7.15 A 2.85 2.85 0 0 1 78.946 4.3 L 78.946 4.25 A 3.05 3.05 0 0 0 75.896 1.2 L 61.645 1.2 A 3.05 3.05 0 0 0 58.595 4.25 L 58.595 5.538 A 2.85 2.85 0 0 1 55.944 8.381 L 40.605 9.454 A 3.05 3.05 0 0 0 37.776 12.709 L 38.264 19.699 A 2.85 2.85 0 0 1 35.867 22.713 L 20.356 25.17 A 3.05 3.05 0 0 0 17.821 28.659 L 18.28 31.563 A 2.85 2.85 0 0 1 15.911 34.824 L 3.96 36.717 A 3.05 3.05 0 0 0 1.425 40.206 L 6.157 70.085 A 3.05 3.05 0 0 0 9.647 72.62 L 21.598 70.727 A 2.85 2.85 0 0 1 24.859 73.096 L 25.212 75.328 A 3.05 3.05 0 0 0 28.702 77.864 L 42.777 75.634 A 3.05 3.05 0 0 0 45.313 72.145 L 44.305 65.782 A 2.85 2.85 0 0 1 46.921 62.493 L 62.026 61.437 A 2.85 2.85 0 0 1 65.075 64.28 L 65.075 74.451 A 3.05 3.05 0 0 0 68.125 77.501 L 75.215 77.501 A 66.52 66.52 0 0 1 91.494 79.524 L 93.367 80.025 A 66.52 66.52 0 0 1 107.632 85.934 L 109.311 86.904 A 66.52 66.52 0 0 1 122.252 96.984 L 127.372 102.104 A 3.05 3.05 0 0 0 131.685 102.104 L 141.057 92.732 A 3.05 3.05 0 0 0 141.059 88.421 L 135.934 83.286 A 2.85 2.85 0 0 1 135.782 83.122 A 5.8 5.8 0 0 1 134.395 79.359 Z M 9.621 72.531 L 21.572 70.638 A 2.95 2.95 0 0 1 24.947 73.091 L 25.301 75.323 A 2.95 2.95 0 0 0 28.676 77.775 L 42.752 75.546 A 2.95 2.95 0 0 0 45.204 72.17 L 44.196 65.808 A 2.95 2.95 0 0 1 46.904 62.403 L 62.009 61.347 A 2.95 2.95 0 0 1 65.165 64.29 L 65.165 74.461 A 2.95 2.95 0 0 0 68.115 77.411 L 75.205 77.411 A 66.62 66.62 0 0 1 91.509 79.437 L 93.383 79.939 A 66.62 66.62 0 0 1 107.672 85.858 L 109.352 86.828 A 66.62 66.62 0 0 1 122.313 96.924 L 127.433 102.043 A 2.95 2.95 0 0 0 131.605 102.043 L 140.976 92.672 A 2.95 2.95 0 0 0 140.978 88.502 L 135.853 83.367 A 2.95 2.95 0 0 1 135.696 83.197 A 5.9 5.9 0 0 1 134.344 80.198 A 2.95 2.95 0 0 0 132.952 78.34 L 116.311 68.732 A 2.95 2.95 0 0 1 114.836 66.177 L 114.836 10.21 A 2.95 2.95 0 0 0 111.886 7.26 L 81.786 7.26 A 2.95 2.95 0 0 1 78.836 4.31 L 78.836 4.26 A 2.95 2.95 0 0 0 75.886 1.31 L 61.635 1.31 A 2.95 2.95 0 0 0 58.685 4.26 L 58.685 5.548 A 2.95 2.95 0 0 1 55.941 8.491 L 40.602 9.563 A 2.95 2.95 0 0 0 37.865 12.712 L 38.354 19.702 A 2.95 2.95 0 0 1 35.873 22.822 L 20.362 25.278 A 2.95 2.95 0 0 0 17.909 28.653 L 18.369 31.557 A 2.95 2.95 0 0 1 15.917 34.932 L 3.966 36.825 A 2.95 2.95 0 0 0 1.514 40.2 L 6.246 70.079 A 2.95 2.95 0 0 0 9.621 72.531 Z M 170.829 72.531 L 182.78 70.638 A 2.95 2.95 0 0 1 186.155 73.091 L 186.509 75.323 A 2.95 2.95 0 0 0 189.884 77.775 L 203.96 75.546 A 2.95 2.95 0 0 0 206.412 72.17 L 205.404 65.808 A 2.95 2.95 0 0 1 208.112 62.403 L 223.217 61.347 A 2.95 2.95 0 0 1 226.373 64.29 L 226.373 74.461 A 2.95 2.95 0 0 0 229.323 77.411 L 236.413 77.411 A 66.62 66.62 0 0 1 252.717 79.437 L 254.591 79.939 A 66.62 66.62 0 0 1 268.88 85.858 L 270.56 86.828 A 66.62 66.62 0 0 1 283.521 96.924 L 288.641 102.043 A 2.95 2.95 0 0 0 292.813 102.043 L 302.184 92.672 A 2.95 2.95 0 0 0 302.186 88.502 L 297.061 83.367 A 2.95 2.95 0 0 1 296.904 83.197 A 5.9 5.9 0 0 1 295.552 80.198 A 2.95 2.95 0 0 0 294.16 78.34 L 277.519 68.732 A 2.95 2.95 0 0 1 276.044 66.177 L 276.044 10.21 A 2.95 2.95 0 0 0 273.094 7.26 L 242.994 7.26 A 2.95 2.95 0 0 1 240.044 4.31 L 240.044 4.26 A 2.95 2.95 0 0 0 237.094 1.31 L 222.843 1.31 A 2.95 2.95 0 0 0 219.893 4.26 L 219.893 5.548 A 2.95 2.95 0 0 1 217.149 8.491 L 201.81 9.563 A 2.95 2.95 0 0 0 199.073 12.712 L 199.562 19.702 A 2.95 2.95 0 0 1 197.081 22.822 L 181.57 25.278 A 2.95 2.95 0 0 0 179.117 28.653 L 179.577 31.557 A 2.95 2.95 0 0 1 177.125 34.932 L 165.174 36.825 A 2.95 2.95 0 0 0 162.722 40.2 L 167.454 70.079 A 2.95 2.95 0 0 0 170.829 72.531 Z M 296.803 194.265 L 296.803 137.106 A 2.95 2.95 0 0 0 293.853 134.156 L 280.304 134.156 A 2.95 2.95 0 0 1 277.354 131.206 L 277.354 123.806 A 2.95 2.95 0 0 0 274.404 120.856 L 244.304 120.856 A 2.95 2.95 0 0 1 241.354 117.906 L 241.354 117.856 A 2.95 2.95 0 0 0 238.404 114.906 L 221.553 114.906 A 2.95 2.95 0 0 0 218.603 117.856 L 218.603 119.232 A 2.95 2.95 0 0 1 215.859 122.174 L 200.433 123.253 A 2.95 2.95 0 0 0 197.696 126.402 L 198.192 133.5 A 2.95 2.95 0 0 1 195.711 136.62 L 180.092 139.094 L 179.854 139.131 A 2.95 2.95 0 0 0 177.366 142.045 L 177.366 192.518 A 2.95 2.95 0 0 0 180.777 195.431 L 195.506 193.098 L 205.457 191.522 A 2.95 2.95 0 0 0 207.909 188.147 L 206.92 181.902 A 2.95 2.95 0 0 1 209.628 178.497 L 221.927 177.637 A 2.95 2.95 0 0 1 225.083 180.58 L 225.083 190.657 A 2.95 2.95 0 0 0 228.033 193.607 L 236.423 193.607 A 65.32 65.32 0 0 1 252.4 195.591 L 254.256 196.088 A 65.32 65.32 0 0 1 268.248 201.884 L 269.912 202.845 A 65.32 65.32 0 0 1 282.612 212.739 L 288.651 218.778 A 2.95 2.95 0 0 0 292.823 218.778 L 304.032 207.569 A 2.95 2.95 0 0 0 304.034 203.398 L 298.032 197.386 A 2.95 2.95 0 0 1 297.826 197.156 A 4.6 4.6 0 0 1 296.803 194.265 Z M 135.595 194.265 L 135.595 137.106 A 2.95 2.95 0 0 0 132.645 134.156 L 119.096 134.156 A 2.95 2.95 0 0 1 116.146 131.206 L 116.146 123.806 A 2.95 2.95 0 0 0 113.196 120.856 L 83.096 120.856 A 2.95 2.95 0 0 1 80.146 117.906 L 80.146 117.856 A 2.95 2.95 0 0 0 77.196 114.906 L 60.345 114.906 A 2.95 2.95 0 0 0 57.395 117.856 L 57.395 119.232 A 2.95 2.95 0 0 1 54.651 122.174 L 39.225 123.253 A 2.95 2.95 0 0 0 36.488 126.402 L 36.984 133.5 A 2.95 2.95 0 0 1 34.503 136.62 L 18.884 139.094 A 2.95 2.95 0 0 0 16.432 142.469 L 24.23 191.706 A 2.95 2.95 0 0 0 27.605 194.158 L 44.249 191.522 A 2.95 2.95 0 0 0 46.701 188.147 L 45.712 181.902 A 2.95 2.95 0 0 1 48.42 178.497 L 60.719 177.637 A 2.95 2.95 0 0 1 63.875 180.58 L 63.875 190.657 A 2.95 2.95 0 0 0 66.825 193.607 L 75.215 193.607 A 65.32 65.32 0 0 1 91.192 195.591 L 93.048 196.088 A 65.32 65.32 0 0 1 107.04 201.884 L 108.704 202.845 A 65.32 65.32 0 0 1 121.404 212.739 L 127.443 218.778 A 2.95 2.95 0 0 0 131.615 218.778 L 142.824 207.569 A 2.95 2.95 0 0 0 142.826 203.398 L 136.824 197.386 A 2.95 2.95 0 0 1 136.618 197.156 A 4.6 4.6 0 0 1 135.595 194.265 Z M 134.395 194.265 L 134.395 138.407 A 3.05 3.05 0 0 0 131.345 135.357 L 117.796 135.357 A 2.85 2.85 0 0 1 114.946 132.507 L 114.946 125.106 A 3.05 3.05 0 0 0 111.896 122.056 L 81.796 122.056 A 2.85 2.85 0 0 1 78.946 119.206 L 78.946 119.156 A 3.05 3.05 0 0 0 75.896 116.106 L 61.645 116.106 A 3.05 3.05 0 0 0 58.595 119.156 L 58.595 120.444 A 2.85 2.85 0 0 1 55.944 123.287 L 40.605 124.36 A 3.05 3.05 0 0 0 37.776 127.615 L 38.264 134.605 A 2.85 2.85 0 0 1 35.867 137.619 L 20.356 140.076 A 3.05 3.05 0 0 0 17.821 143.565 L 25.212 190.234 A 3.05 3.05 0 0 0 28.702 192.77 L 42.777 190.54 A 3.05 3.05 0 0 0 45.313 187.051 L 44.305 180.688 A 2.85 2.85 0 0 1 46.921 177.399 L 62.026 176.343 A 2.85 2.85 0 0 1 65.075 179.186 L 65.075 189.357 A 3.05 3.05 0 0 0 68.125 192.407 L 75.215 192.407 A 66.52 66.52 0 0 1 91.494 194.43 L 93.367 194.931 A 66.52 66.52 0 0 1 107.632 200.84 L 109.311 201.81 A 66.52 66.52 0 0 1 122.252 211.89 L 127.372 217.01 A 3.05 3.05 0 0 0 131.685 217.01 L 141.057 207.638 A 3.05 3.05 0 0 0 141.059 203.327 L 135.934 198.192 A 2.85 2.85 0 0 1 135.782 198.028 A 5.8 5.8 0 0 1 134.395 194.265 Z M 295.603 194.265 L 295.603 138.407 A 3.05 3.05 0 0 0 292.553 135.357 L 279.004 135.357 A 2.85 2.85 0 0 1 276.154 132.507 L 276.154 125.106 A 3.05 3.05 0 0 0 273.104 122.056 L 243.004 122.056 A 2.85 2.85 0 0 1 240.154 119.206 L 240.154 119.156 A 3.05 3.05 0 0 0 237.104 116.106 L 222.853 116.106 A 3.05 3.05 0 0 0 219.803 119.156 L 219.803 120.444 A 2.85 2.85 0 0 1 217.152 123.287 L 201.813 124.36 A 3.05 3.05 0 0 0 198.984 127.615 L 199.472 134.605 A 2.85 2.85 0 0 1 197.075 137.619 L 181.564 140.076 A 3.05 3.05 0 0 0 179.029 143.565 L 186.42 190.234 A 3.05 3.05 0 0 0 189.91 192.77 L 203.985 190.54 A 3.05 3.05 0 0 0 206.521 187.051 L 205.513 180.688 A 2.85 2.85 0 0 1 208.129 177.399 L 223.234 176.343 A 2.85 2.85 0 0 1 226.283 179.186 L 226.283 189.357 A 3.05 3.05 0 0 0 229.333 192.407 L 236.423 192.407 A 66.52 66.52 0 0 1 252.702 194.43 L 254.575 194.931 A 66.52 66.52 0 0 1 268.84 200.84 L 270.519 201.81 A 66.52 66.52 0 0 1 283.46 211.89 L 288.58 217.01 A 3.05 3.05 0 0 0 292.893 217.01 L 302.265 207.638 A 3.05 3.05 0 0 0 302.267 203.327 L 297.142 198.192 A 2.85 2.85 0 0 1 296.99 198.028 A 5.8 5.8 0 0 1 295.603 194.265 Z M 28.676 192.681 L 42.752 190.452 A 2.95 2.95 0 0 0 45.204 187.076 L 44.196 180.714 A 2.95 2.95 0 0 1 46.904 177.309 L 62.009 176.253 A 2.95 2.95 0 0 1 65.165 179.196 L 65.165 189.367 A 2.95 2.95 0 0 0 68.115 192.317 L 75.205 192.317 A 66.62 66.62 0 0 1 91.509 194.343 L 93.383 194.845 A 66.62 66.62 0 0 1 107.672 200.764 L 109.352 201.734 A 66.62 66.62 0 0 1 122.313 211.83 L 127.433 216.949 A 2.95 2.95 0 0 0 131.605 216.949 L 140.976 207.578 A 2.95 2.95 0 0 0 140.978 203.408 L 135.853 198.273 A 2.95 2.95 0 0 1 135.696 198.103 A 5.9 5.9 0 0 1 134.344 195.104 A 2.95 2.95 0 0 0 132.952 193.246 L 116.311 183.638 A 2.95 2.95 0 0 1 114.836 181.083 L 114.836 125.116 A 2.95 2.95 0 0 0 111.886 122.166 L 81.786 122.166 A 2.95 2.95 0 0 1 78.836 119.216 L 78.836 119.166 A 2.95 2.95 0 0 0 75.886 116.216 L 61.635 116.216 A 2.95 2.95 0 0 0 58.685 119.166 L 58.685 120.454 A 2.95 2.95 0 0 1 55.941 123.397 L 40.602 124.469 A 2.95 2.95 0 0 0 37.865 127.618 L 38.354 134.608 A 2.95 2.95 0 0 1 35.873 137.728 L 20.362 140.184 A 2.95 2.95 0 0 0 17.909 143.559 L 25.301 190.229 A 2.95 2.95 0 0 0 28.676 192.681 Z M 189.884 192.681 L 203.96 190.452 A 2.95 2.95 0 0 0 206.412 187.076 L 205.404 180.714 A 2.95 2.95 0 0 1 208.112 177.309 L 223.217 176.253 A 2.95 2.95 0 0 1 226.373 179.196 L 226.373 189.367 A 2.95 2.95 0 0 0 229.323 192.317 L 236.413 192.317 A 66.62 66.62 0 0 1 252.717 194.343 L 254.591 194.845 A 66.62 66.62 0 0 1 268.88 200.764 L 270.56 201.734 A 66.62 66.62 0 0 1 283.521 211.83 L 288.641 216.949 A 2.95 2.95 0 0 0 292.813 216.949 L 302.184 207.578 A 2.95 2.95 0 0 0 302.186 203.408 L 297.061 198.273 A 2.95 2.95 0 0 1 296.904 198.103 A 5.9 5.9 0 0 1 295.552 195.104 A 2.95 2.95 0 0 0 294.16 193.246 L 277.519 183.638 A 2.95 2.95 0 0 1 276.044 181.083 L 276.044 125.116 A 2.95 2.95 0 0 0 273.094 122.166 L 242.994 122.166 A 2.95 2.95 0 0 1 240.044 119.216 L 240.044 119.166 A 2.95 2.95 0 0 0 237.094 116.216 L 222.843 116.216 A 2.95 2.95 0 0 0 219.893 119.166 L 219.893 120.454 A 2.95 2.95 0 0 1 217.149 123.397 L 201.81 124.469 A 2.95 2.95 0 0 0 199.073 127.618 L 199.562 134.608 A 2.95 2.95 0 0 1 197.081 137.728 L 181.57 140.184 A 2.95 2.95 0 0 0 179.117 143.559 L 186.509 190.229 A 2.95 2.95 0 0 0 189.884 192.681 Z M 134.305 73.98 L 134.305 23.491 A 2.95 2.95 0 0 0 131.355 20.541 L 117.806 20.541 A 2.95 2.95 0 0 0 114.856 23.491 L 114.856 66.157 A 2.95 2.95 0 0 0 116.331 68.712 L 118.184 69.782 L 129.88 76.534 A 2.95 2.95 0 0 0 134.305 73.98 Z M 295.513 73.98 L 295.513 23.491 A 2.95 2.95 0 0 0 292.563 20.541 L 279.014 20.541 A 2.95 2.95 0 0 0 276.064 23.491 L 276.064 66.157 A 2.95 2.95 0 0 0 277.539 68.712 L 279.392 69.782 L 291.088 76.534 A 2.95 2.95 0 0 0 295.513 73.98 Z M 134.305 188.886 L 134.305 138.397 A 2.95 2.95 0 0 0 131.355 135.447 L 117.806 135.447 A 2.95 2.95 0 0 0 114.856 138.397 L 114.856 181.063 A 2.95 2.95 0 0 0 116.331 183.618 L 118.184 184.688 L 129.88 191.44 A 2.95 2.95 0 0 0 134.305 188.886 Z M 295.513 188.886 L 295.513 138.397 A 2.95 2.95 0 0 0 292.563 135.447 L 279.014 135.447 A 2.95 2.95 0 0 0 276.064 138.397 L 276.064 181.063 A 2.95 2.95 0 0 0 277.539 183.618 L 279.392 184.688 L 291.088 191.44 A 2.95 2.95 0 0 0 295.513 188.886 Z M 119.32 169.722 L 129.84 169.722 A 0.39 0.39 0 0 0 130.23 169.332 L 130.23 144.312 A 0.39 0.39 0 0 0 129.84 143.922 L 119.32 143.922 A 0.39 0.39 0 0 0 118.93 144.312 L 118.93 169.332 A 0.39 0.39 0 0 0 119.32 169.722 Z M 280.528 169.722 L 291.048 169.722 A 0.39 0.39 0 0 0 291.438 169.332 L 291.438 144.312 A 0.39 0.39 0 0 0 291.048 143.922 L 280.528 143.922 A 0.39 0.39 0 0 0 280.138 144.312 L 280.138 169.332 A 0.39 0.39 0 0 0 280.528 169.722 Z M 119.32 54.816 L 129.84 54.816 A 0.39 0.39 0 0 0 130.23 54.426 L 130.23 29.406 A 0.39 0.39 0 0 0 129.84 29.016 L 119.32 29.016 A 0.39 0.39 0 0 0 118.93 29.406 L 118.93 54.426 A 0.39 0.39 0 0 0 119.32 54.816 Z M 280.528 54.816 L 291.048 54.816 A 0.39 0.39 0 0 0 291.438 54.426 L 291.438 29.406 A 0.39 0.39 0 0 0 291.048 29.016 L 280.528 29.016 A 0.39 0.39 0 0 0 280.138 29.406 L 280.138 54.426 A 0.39 0.39 0 0 0 280.528 54.816 Z M 229.798 74.736 L 233.373 74.736 L 233.373 75.336 A 0.325 0.325 0 0 0 233.698 75.661 L 239.198 75.661 A 0.325 0.325 0 0 0 239.523 75.336 L 239.523 74.736 L 243.098 74.736 A 0.25 0.25 0 0 0 243.348 74.486 L 243.348 61.186 A 0.25 0.25 0 0 0 243.098 60.936 L 229.798 60.936 A 0.25 0.25 0 0 0 229.548 61.186 L 229.548 74.486 A 0.25 0.25 0 0 0 229.798 74.736 Z M 229.798 189.642 L 233.373 189.642 L 233.373 190.242 A 0.325 0.325 0 0 0 233.698 190.567 L 239.198 190.567 A 0.325 0.325 0 0 0 239.523 190.242 L 239.523 189.642 L 243.098 189.642 A 0.25 0.25 0 0 0 243.348 189.392 L 243.348 176.092 A 0.25 0.25 0 0 0 243.098 175.842 L 229.798 175.842 A 0.25 0.25 0 0 0 229.548 176.092 L 229.548 189.392 A 0.25 0.25 0 0 0 229.798 189.642 Z M 68.59 74.736 L 72.165 74.736 L 72.165 75.336 A 0.325 0.325 0 0 0 72.49 75.661 L 77.99 75.661 A 0.325 0.325 0 0 0 78.315 75.336 L 78.315 74.736 L 81.89 74.736 A 0.25 0.25 0 0 0 82.14 74.486 L 82.14 61.186 A 0.25 0.25 0 0 0 81.89 60.936 L 68.59 60.936 A 0.25 0.25 0 0 0 68.34 61.186 L 68.34 74.486 A 0.25 0.25 0 0 0 68.59 74.736 Z M 68.59 189.642 L 72.165 189.642 L 72.165 190.242 A 0.325 0.325 0 0 0 72.49 190.567 L 77.99 190.567 A 0.325 0.325 0 0 0 78.315 190.242 L 78.315 189.642 L 81.89 189.642 A 0.25 0.25 0 0 0 82.14 189.392 L 82.14 176.092 A 0.25 0.25 0 0 0 81.89 175.842 L 68.59 175.842 A 0.25 0.25 0 0 0 68.34 176.092 L 68.34 189.392 A 0.25 0.25 0 0 0 68.59 189.642 Z M 204.62 42.924 L 217.887 41.996 A 0.25 0.25 0 0 0 218.119 41.729 L 217.192 28.462 A 0.25 0.25 0 0 0 216.925 28.23 L 203.657 29.158 A 0.25 0.25 0 0 0 203.425 29.424 L 204.353 42.692 A 0.25 0.25 0 0 0 204.62 42.924 Z M 204.62 157.83 L 217.887 156.902 A 0.25 0.25 0 0 0 218.119 156.635 L 217.192 143.368 A 0.25 0.25 0 0 0 216.925 143.136 L 203.657 144.064 A 0.25 0.25 0 0 0 203.425 144.33 L 204.353 157.598 A 0.25 0.25 0 0 0 204.62 157.83 Z M 43.412 42.924 L 56.679 41.996 A 0.25 0.25 0 0 0 56.911 41.729 L 55.984 28.462 A 0.25 0.25 0 0 0 55.717 28.23 L 42.449 29.158 A 0.25 0.25 0 0 0 42.217 29.424 L 43.145 42.692 A 0.25 0.25 0 0 0 43.412 42.924 Z M 43.412 157.83 L 56.679 156.902 A 0.25 0.25 0 0 0 56.911 156.635 L 55.984 143.368 A 0.25 0.25 0 0 0 55.717 143.136 L 42.449 144.064 A 0.25 0.25 0 0 0 42.217 144.33 L 43.145 157.598 A 0.25 0.25 0 0 0 43.412 157.83 Z M 42.226 25.965 L 55.494 25.038 A 0.25 0.25 0 0 0 55.725 24.771 L 54.798 11.503 A 0.25 0.25 0 0 0 54.531 11.271 L 41.263 12.199 A 0.25 0.25 0 0 0 41.031 12.466 L 41.959 25.734 A 0.25 0.25 0 0 0 42.226 25.965 Z M 42.226 140.871 L 55.494 139.944 A 0.25 0.25 0 0 0 55.725 139.677 L 54.798 126.409 A 0.25 0.25 0 0 0 54.531 126.177 L 41.263 127.105 A 0.25 0.25 0 0 0 41.031 127.372 L 41.959 140.64 A 0.25 0.25 0 0 0 42.226 140.871 Z M 203.434 25.965 L 216.702 25.038 A 0.25 0.25 0 0 0 216.933 24.771 L 216.006 11.503 A 0.25 0.25 0 0 0 215.739 11.271 L 202.471 12.199 A 0.25 0.25 0 0 0 202.239 12.466 L 203.167 25.734 A 0.25 0.25 0 0 0 203.434 25.965 Z M 203.434 140.871 L 216.702 139.944 A 0.25 0.25 0 0 0 216.933 139.677 L 216.006 126.409 A 0.25 0.25 0 0 0 215.739 126.177 L 202.471 127.105 A 0.25 0.25 0 0 0 202.239 127.372 L 203.167 140.64 A 0.25 0.25 0 0 0 203.434 140.871 Z M 205.806 174.789 L 219.073 173.861 A 0.25 0.25 0 0 0 219.305 173.594 L 218.377 160.326 A 0.25 0.25 0 0 0 218.111 160.094 L 204.843 161.022 A 0.25 0.25 0 0 0 204.611 161.289 L 205.539 174.557 A 0.25 0.25 0 0 0 205.806 174.789 Z M 205.806 59.883 L 219.073 58.955 A 0.25 0.25 0 0 0 219.305 58.688 L 218.377 45.42 A 0.25 0.25 0 0 0 218.111 45.188 L 204.843 46.116 A 0.25 0.25 0 0 0 204.611 46.383 L 205.539 59.651 A 0.25 0.25 0 0 0 205.806 59.883 Z M 44.598 174.789 L 57.865 173.861 A 0.25 0.25 0 0 0 58.097 173.594 L 57.169 160.326 A 0.25 0.25 0 0 0 56.903 160.094 L 43.635 161.022 A 0.25 0.25 0 0 0 43.403 161.289 L 44.331 174.557 A 0.25 0.25 0 0 0 44.598 174.789 Z M 44.598 59.883 L 57.865 58.955 A 0.25 0.25 0 0 0 58.097 58.688 L 57.169 45.42 A 0.25 0.25 0 0 0 56.903 45.188 L 43.635 46.116 A 0.25 0.25 0 0 0 43.403 46.383 L 44.331 59.651 A 0.25 0.25 0 0 0 44.598 59.883 Z M 280.792 205.317 L 290.196 214.721 A 0.25 0.25 0 0 0 290.55 214.721 L 299.954 205.317 A 0.25 0.25 0 0 0 299.954 204.963 L 290.55 195.559 A 0.25 0.25 0 0 0 290.196 195.559 L 280.792 204.963 A 0.25 0.25 0 0 0 280.792 205.317 Z M 280.792 90.411 L 290.196 99.815 A 0.25 0.25 0 0 0 290.55 99.815 L 299.954 90.411 A 0.25 0.25 0 0 0 299.954 90.057 L 290.55 80.653 A 0.25 0.25 0 0 0 290.196 80.653 L 280.792 90.057 A 0.25 0.25 0 0 0 280.792 90.411 Z M 119.584 205.317 L 128.988 214.721 A 0.25 0.25 0 0 0 129.342 214.721 L 138.746 205.317 A 0.25 0.25 0 0 0 138.746 204.963 L 129.342 195.559 A 0.25 0.25 0 0 0 128.988 195.559 L 119.584 204.963 A 0.25 0.25 0 0 0 119.584 205.317 Z M 119.584 90.411 L 128.988 99.815 A 0.25 0.25 0 0 0 129.342 99.815 L 138.746 90.411 A 0.25 0.25 0 0 0 138.746 90.057 L 129.342 80.653 A 0.25 0.25 0 0 0 128.988 80.653 L 119.584 90.057 A 0.25 0.25 0 0 0 119.584 90.411 Z M 98.11 175.192 L 111.41 175.192 A 0.25 0.25 0 0 0 111.66 174.942 L 111.66 161.642 A 0.25 0.25 0 0 0 111.41 161.392 L 98.11 161.392 A 0.25 0.25 0 0 0 97.86 161.642 L 97.86 174.942 A 0.25 0.25 0 0 0 98.11 175.192 Z M 98.11 141.192 L 111.41 141.192 A 0.25 0.25 0 0 0 111.66 140.942 L 111.66 127.642 A 0.25 0.25 0 0 0 111.41 127.392 L 98.11 127.392 A 0.25 0.25 0 0 0 97.86 127.642 L 97.86 140.942 A 0.25 0.25 0 0 0 98.11 141.192 Z M 259.318 175.192 L 272.618 175.192 A 0.25 0.25 0 0 0 272.868 174.942 L 272.868 161.642 A 0.25 0.25 0 0 0 272.618 161.392 L 259.318 161.392 A 0.25 0.25 0 0 0 259.068 161.642 L 259.068 174.942 A 0.25 0.25 0 0 0 259.318 175.192 Z M 259.318 141.192 L 272.618 141.192 A 0.25 0.25 0 0 0 272.868 140.942 L 272.868 127.642 A 0.25 0.25 0 0 0 272.618 127.392 L 259.318 127.392 A 0.25 0.25 0 0 0 259.068 127.642 L 259.068 140.942 A 0.25 0.25 0 0 0 259.318 141.192 Z M 98.11 43.286 L 111.41 43.286 A 0.25 0.25 0 0 0 111.66 43.036 L 111.66 29.736 A 0.25 0.25 0 0 0 111.41 29.486 L 98.11 29.486 A 0.25 0.25 0 0 0 97.86 29.736 L 97.86 43.036 A 0.25 0.25 0 0 0 98.11 43.286 Z M 98.11 26.286 L 111.41 26.286 A 0.25 0.25 0 0 0 111.66 26.036 L 111.66 12.736 A 0.25 0.25 0 0 0 111.41 12.486 L 98.11 12.486 A 0.25 0.25 0 0 0 97.86 12.736 L 97.86 26.036 A 0.25 0.25 0 0 0 98.11 26.286 Z M 259.318 43.286 L 272.618 43.286 A 0.25 0.25 0 0 0 272.868 43.036 L 272.868 29.736 A 0.25 0.25 0 0 0 272.618 29.486 L 259.318 29.486 A 0.25 0.25 0 0 0 259.068 29.736 L 259.068 43.036 A 0.25 0.25 0 0 0 259.318 43.286 Z M 259.318 26.286 L 272.618 26.286 A 0.25 0.25 0 0 0 272.868 26.036 L 272.868 12.736 A 0.25 0.25 0 0 0 272.618 12.486 L 259.318 12.486 A 0.25 0.25 0 0 0 259.068 12.736 L 259.068 26.036 A 0.25 0.25 0 0 0 259.318 26.286 Z M 98.11 60.286 L 111.41 60.286 A 0.25 0.25 0 0 0 111.66 60.036 L 111.66 46.736 A 0.25 0.25 0 0 0 111.41 46.486 L 98.11 46.486 A 0.25 0.25 0 0 0 97.86 46.736 L 97.86 60.036 A 0.25 0.25 0 0 0 98.11 60.286 Z M 259.318 60.286 L 272.618 60.286 A 0.25 0.25 0 0 0 272.868 60.036 L 272.868 46.736 A 0.25 0.25 0 0 0 272.618 46.486 L 259.318 46.486 A 0.25 0.25 0 0 0 259.068 46.736 L 259.068 60.036 A 0.25 0.25 0 0 0 259.318 60.286 Z M 62.11 149.692 L 75.41 149.692 A 0.25 0.25 0 0 0 75.66 149.442 L 75.66 136.142 A 0.25 0.25 0 0 0 75.41 135.892 L 62.11 135.892 A 0.25 0.25 0 0 0 61.86 136.142 L 61.86 149.442 A 0.25 0.25 0 0 0 62.11 149.692 Z M 80.11 172.642 L 93.41 172.642 A 0.25 0.25 0 0 0 93.66 172.392 L 93.66 159.092 A 0.25 0.25 0 0 0 93.41 158.842 L 80.11 158.842 A 0.25 0.25 0 0 0 79.86 159.092 L 79.86 172.392 A 0.25 0.25 0 0 0 80.11 172.642 Z M 80.11 155.642 L 93.41 155.642 A 0.25 0.25 0 0 0 93.66 155.392 L 93.66 142.092 A 0.25 0.25 0 0 0 93.41 141.842 L 80.11 141.842 A 0.25 0.25 0 0 0 79.86 142.092 L 79.86 155.392 A 0.25 0.25 0 0 0 80.11 155.642 Z M 98.11 158.192 L 111.41 158.192 A 0.25 0.25 0 0 0 111.66 157.942 L 111.66 144.642 A 0.25 0.25 0 0 0 111.41 144.392 L 98.11 144.392 A 0.25 0.25 0 0 0 97.86 144.642 L 97.86 157.942 A 0.25 0.25 0 0 0 98.11 158.192 Z M 259.318 158.192 L 272.618 158.192 A 0.25 0.25 0 0 0 272.868 157.942 L 272.868 144.642 A 0.25 0.25 0 0 0 272.618 144.392 L 259.318 144.392 A 0.25 0.25 0 0 0 259.068 144.642 L 259.068 157.942 A 0.25 0.25 0 0 0 259.318 158.192 Z M 62.11 51.786 L 75.41 51.786 A 0.25 0.25 0 0 0 75.66 51.536 L 75.66 38.236 A 0.25 0.25 0 0 0 75.41 37.986 L 62.11 37.986 A 0.25 0.25 0 0 0 61.86 38.236 L 61.86 51.536 A 0.25 0.25 0 0 0 62.11 51.786 Z M 62.11 34.786 L 75.41 34.786 A 0.25 0.25 0 0 0 75.66 34.536 L 75.66 21.236 A 0.25 0.25 0 0 0 75.41 20.986 L 62.11 20.986 A 0.25 0.25 0 0 0 61.86 21.236 L 61.86 34.536 A 0.25 0.25 0 0 0 62.11 34.786 Z M 80.11 40.736 L 93.41 40.736 A 0.25 0.25 0 0 0 93.66 40.486 L 93.66 27.186 A 0.25 0.25 0 0 0 93.41 26.936 L 80.11 26.936 A 0.25 0.25 0 0 0 79.86 27.186 L 79.86 40.486 A 0.25 0.25 0 0 0 80.11 40.736 Z M 62.11 17.786 L 75.41 17.786 A 0.25 0.25 0 0 0 75.66 17.536 L 75.66 4.236 A 0.25 0.25 0 0 0 75.41 3.986 L 62.11 3.986 A 0.25 0.25 0 0 0 61.86 4.236 L 61.86 17.536 A 0.25 0.25 0 0 0 62.11 17.786 Z M 80.11 57.736 L 93.41 57.736 A 0.25 0.25 0 0 0 93.66 57.486 L 93.66 44.186 A 0.25 0.25 0 0 0 93.41 43.936 L 80.11 43.936 A 0.25 0.25 0 0 0 79.86 44.186 L 79.86 57.486 A 0.25 0.25 0 0 0 80.11 57.736 Z M 80.11 23.736 L 93.41 23.736 A 0.25 0.25 0 0 0 93.66 23.486 L 93.66 10.186 A 0.25 0.25 0 0 0 93.41 9.936 L 80.11 9.936 A 0.25 0.25 0 0 0 79.86 10.186 L 79.86 23.486 A 0.25 0.25 0 0 0 80.11 23.736 Z M 62.11 132.692 L 75.41 132.692 A 0.25 0.25 0 0 0 75.66 132.442 L 75.66 119.142 A 0.25 0.25 0 0 0 75.41 118.892 L 62.11 118.892 A 0.25 0.25 0 0 0 61.86 119.142 L 61.86 132.442 A 0.25 0.25 0 0 0 62.11 132.692 Z M 80.11 138.642 L 93.41 138.642 A 0.25 0.25 0 0 0 93.66 138.392 L 93.66 125.092 A 0.25 0.25 0 0 0 93.41 124.842 L 80.11 124.842 A 0.25 0.25 0 0 0 79.86 125.092 L 79.86 138.392 A 0.25 0.25 0 0 0 80.11 138.642 Z M 223.318 149.692 L 236.618 149.692 A 0.25 0.25 0 0 0 236.868 149.442 L 236.868 136.142 A 0.25 0.25 0 0 0 236.618 135.892 L 223.318 135.892 A 0.25 0.25 0 0 0 223.068 136.142 L 223.068 149.442 A 0.25 0.25 0 0 0 223.318 149.692 Z M 241.318 172.642 L 254.618 172.642 A 0.25 0.25 0 0 0 254.868 172.392 L 254.868 159.092 A 0.25 0.25 0 0 0 254.618 158.842 L 241.318 158.842 A 0.25 0.25 0 0 0 241.068 159.092 L 241.068 172.392 A 0.25 0.25 0 0 0 241.318 172.642 Z M 241.318 155.642 L 254.618 155.642 A 0.25 0.25 0 0 0 254.868 155.392 L 254.868 142.092 A 0.25 0.25 0 0 0 254.618 141.842 L 241.318 141.842 A 0.25 0.25 0 0 0 241.068 142.092 L 241.068 155.392 A 0.25 0.25 0 0 0 241.318 155.642 Z M 223.318 51.786 L 236.618 51.786 A 0.25 0.25 0 0 0 236.868 51.536 L 236.868 38.236 A 0.25 0.25 0 0 0 236.618 37.986 L 223.318 37.986 A 0.25 0.25 0 0 0 223.068 38.236 L 223.068 51.536 A 0.25 0.25 0 0 0 223.318 51.786 Z M 223.318 34.786 L 236.618 34.786 A 0.25 0.25 0 0 0 236.868 34.536 L 236.868 21.236 A 0.25 0.25 0 0 0 236.618 20.986 L 223.318 20.986 A 0.25 0.25 0 0 0 223.068 21.236 L 223.068 34.536 A 0.25 0.25 0 0 0 223.318 34.786 Z M 241.318 40.736 L 254.618 40.736 A 0.25 0.25 0 0 0 254.868 40.486 L 254.868 27.186 A 0.25 0.25 0 0 0 254.618 26.936 L 241.318 26.936 A 0.25 0.25 0 0 0 241.068 27.186 L 241.068 40.486 A 0.25 0.25 0 0 0 241.318 40.736 Z M 223.318 17.786 L 236.618 17.786 A 0.25 0.25 0 0 0 236.868 17.536 L 236.868 4.236 A 0.25 0.25 0 0 0 236.618 3.986 L 223.318 3.986 A 0.25 0.25 0 0 0 223.068 4.236 L 223.068 17.536 A 0.25 0.25 0 0 0 223.318 17.786 Z M 241.318 57.736 L 254.618 57.736 A 0.25 0.25 0 0 0 254.868 57.486 L 254.868 44.186 A 0.25 0.25 0 0 0 254.618 43.936 L 241.318 43.936 A 0.25 0.25 0 0 0 241.068 44.186 L 241.068 57.486 A 0.25 0.25 0 0 0 241.318 57.736 Z M 241.318 23.736 L 254.618 23.736 A 0.25 0.25 0 0 0 254.868 23.486 L 254.868 10.186 A 0.25 0.25 0 0 0 254.618 9.936 L 241.318 9.936 A 0.25 0.25 0 0 0 241.068 10.186 L 241.068 23.486 A 0.25 0.25 0 0 0 241.318 23.736 Z M 62.11 166.692 L 75.41 166.692 A 0.25 0.25 0 0 0 75.66 166.442 L 75.66 153.142 A 0.25 0.25 0 0 0 75.41 152.892 L 62.11 152.892 A 0.25 0.25 0 0 0 61.86 153.142 L 61.86 166.442 A 0.25 0.25 0 0 0 62.11 166.692 Z M 223.318 132.692 L 236.618 132.692 A 0.25 0.25 0 0 0 236.868 132.442 L 236.868 119.142 A 0.25 0.25 0 0 0 236.618 118.892 L 223.318 118.892 A 0.25 0.25 0 0 0 223.068 119.142 L 223.068 132.442 A 0.25 0.25 0 0 0 223.318 132.692 Z M 241.318 138.642 L 254.618 138.642 A 0.25 0.25 0 0 0 254.868 138.392 L 254.868 125.092 A 0.25 0.25 0 0 0 254.618 124.842 L 241.318 124.842 A 0.25 0.25 0 0 0 241.068 125.092 L 241.068 138.392 A 0.25 0.25 0 0 0 241.318 138.642 Z M 223.318 166.692 L 236.618 166.692 A 0.25 0.25 0 0 0 236.868 166.442 L 236.868 153.142 A 0.25 0.25 0 0 0 236.618 152.892 L 223.318 152.892 A 0.25 0.25 0 0 0 223.068 153.142 L 223.068 166.442 A 0.25 0.25 0 0 0 223.318 166.692 Z M 170.88 69.814 L 184.017 67.734 A 0.25 0.25 0 0 0 184.224 67.448 L 182.144 54.311 A 0.25 0.25 0 0 0 181.858 54.104 L 168.722 56.184 A 0.25 0.25 0 0 0 168.514 56.47 L 170.594 69.606 A 0.25 0.25 0 0 0 170.88 69.814 Z M 168.221 53.024 L 181.357 50.943 A 0.25 0.25 0 0 0 181.565 50.657 L 179.484 37.521 A 0.25 0.25 0 0 0 179.198 37.313 L 166.062 39.393 A 0.25 0.25 0 0 0 165.854 39.68 L 167.935 52.816 A 0.25 0.25 0 0 0 168.221 53.024 Z M 9.672 69.814 L 22.809 67.734 A 0.25 0.25 0 0 0 23.016 67.448 L 20.936 54.311 A 0.25 0.25 0 0 0 20.65 54.104 L 7.514 56.184 A 0.25 0.25 0 0 0 7.306 56.47 L 9.386 69.606 A 0.25 0.25 0 0 0 9.672 69.814 Z M 187.276 173.173 L 200.412 171.093 A 0.25 0.25 0 0 0 200.62 170.807 L 198.539 157.67 A 0.25 0.25 0 0 0 198.253 157.463 L 185.117 159.543 A 0.25 0.25 0 0 0 184.909 159.829 L 186.99 172.965 A 0.25 0.25 0 0 0 187.276 173.173 Z M 7.013 53.024 L 20.149 50.943 A 0.25 0.25 0 0 0 20.357 50.657 L 18.276 37.521 A 0.25 0.25 0 0 0 17.99 37.313 L 4.854 39.393 A 0.25 0.25 0 0 0 4.646 39.68 L 6.727 52.816 A 0.25 0.25 0 0 0 7.013 53.024 Z M 26.068 173.173 L 39.204 171.093 A 0.25 0.25 0 0 0 39.412 170.807 L 37.331 157.67 A 0.25 0.25 0 0 0 37.045 157.463 L 23.909 159.543 A 0.25 0.25 0 0 0 23.701 159.829 L 25.782 172.965 A 0.25 0.25 0 0 0 26.068 173.173 Z M 187.276 58.267 L 200.412 56.187 A 0.25 0.25 0 0 0 200.62 55.901 L 198.539 42.764 A 0.25 0.25 0 0 0 198.253 42.557 L 185.117 44.637 A 0.25 0.25 0 0 0 184.909 44.923 L 186.99 58.059 A 0.25 0.25 0 0 0 187.276 58.267 Z M 26.068 58.267 L 39.204 56.187 A 0.25 0.25 0 0 0 39.412 55.901 L 37.331 42.764 A 0.25 0.25 0 0 0 37.045 42.557 L 23.909 44.637 A 0.25 0.25 0 0 0 23.701 44.923 L 25.782 58.059 A 0.25 0.25 0 0 0 26.068 58.267 Z M 23.408 41.477 L 36.545 39.396 A 0.25 0.25 0 0 0 36.753 39.11 L 34.672 25.974 A 0.25 0.25 0 0 0 34.386 25.766 L 21.25 27.846 A 0.25 0.25 0 0 0 21.042 28.133 L 23.122 41.269 A 0.25 0.25 0 0 0 23.408 41.477 Z M 23.408 156.383 L 36.545 154.302 A 0.25 0.25 0 0 0 36.753 154.016 L 34.672 140.88 A 0.25 0.25 0 0 0 34.386 140.672 L 21.25 142.752 A 0.25 0.25 0 0 0 21.042 143.039 L 23.122 156.175 A 0.25 0.25 0 0 0 23.408 156.383 Z M 189.935 75.058 L 203.072 72.977 A 0.25 0.25 0 0 0 203.279 72.691 L 201.199 59.555 A 0.25 0.25 0 0 0 200.913 59.347 L 187.776 61.428 A 0.25 0.25 0 0 0 187.569 61.714 L 189.649 74.85 A 0.25 0.25 0 0 0 189.935 75.058 Z M 189.935 189.964 L 203.072 187.883 A 0.25 0.25 0 0 0 203.279 187.597 L 201.199 174.461 A 0.25 0.25 0 0 0 200.913 174.253 L 187.776 176.334 A 0.25 0.25 0 0 0 187.569 176.62 L 189.649 189.756 A 0.25 0.25 0 0 0 189.935 189.964 Z M 184.616 41.477 L 197.753 39.396 A 0.25 0.25 0 0 0 197.961 39.11 L 195.88 25.974 A 0.25 0.25 0 0 0 195.594 25.766 L 182.458 27.846 A 0.25 0.25 0 0 0 182.25 28.133 L 184.33 41.269 A 0.25 0.25 0 0 0 184.616 41.477 Z M 184.616 156.383 L 197.753 154.302 A 0.25 0.25 0 0 0 197.961 154.016 L 195.88 140.88 A 0.25 0.25 0 0 0 195.594 140.672 L 182.458 142.752 A 0.25 0.25 0 0 0 182.25 143.039 L 184.33 156.175 A 0.25 0.25 0 0 0 184.616 156.383 Z M 28.727 75.058 L 41.864 72.977 A 0.25 0.25 0 0 0 42.071 72.691 L 39.991 59.555 A 0.25 0.25 0 0 0 39.705 59.347 L 26.568 61.428 A 0.25 0.25 0 0 0 26.361 61.714 L 28.441 74.85 A 0.25 0.25 0 0 0 28.727 75.058 Z M 28.727 189.964 L 41.864 187.883 A 0.25 0.25 0 0 0 42.071 187.597 L 39.991 174.461 A 0.25 0.25 0 0 0 39.705 174.253 L 26.568 176.334 A 0.25 0.25 0 0 0 26.361 176.62 L 28.441 189.756 A 0.25 0.25 0 0 0 28.727 189.964 Z M 104.167 80.745 L 115.685 87.395 A 0.25 0.25 0 0 0 116.027 87.303 L 122.677 75.785 A 0.25 0.25 0 0 0 122.585 75.444 L 111.067 68.794 A 0.25 0.25 0 0 0 110.726 68.885 L 104.076 80.403 A 0.25 0.25 0 0 0 104.167 80.745 Z M 104.167 195.651 L 115.685 202.301 A 0.25 0.25 0 0 0 116.027 202.209 L 122.677 190.691 A 0.25 0.25 0 0 0 122.585 190.35 L 111.067 183.7 A 0.25 0.25 0 0 0 110.726 183.791 L 104.076 195.309 A 0.25 0.25 0 0 0 104.167 195.651 Z M 265.375 80.745 L 276.893 87.395 A 0.25 0.25 0 0 0 277.235 87.303 L 283.885 75.785 A 0.25 0.25 0 0 0 283.793 75.444 L 272.275 68.794 A 0.25 0.25 0 0 0 271.934 68.885 L 265.284 80.403 A 0.25 0.25 0 0 0 265.375 80.745 Z M 265.375 195.651 L 276.893 202.301 A 0.25 0.25 0 0 0 277.235 202.209 L 283.885 190.691 A 0.25 0.25 0 0 0 283.793 190.35 L 272.275 183.7 A 0.25 0.25 0 0 0 271.934 183.791 L 265.284 195.309 A 0.25 0.25 0 0 0 265.375 195.651 Z M 86.774 75.398 L 99.621 78.841 A 0.25 0.25 0 0 0 99.927 78.664 L 103.37 65.817 A 0.25 0.25 0 0 0 103.193 65.511 L 90.346 62.069 A 0.25 0.25 0 0 0 90.04 62.245 L 86.598 75.092 A 0.25 0.25 0 0 0 86.774 75.398 Z M 86.774 190.304 L 99.621 193.747 A 0.25 0.25 0 0 0 99.927 193.57 L 103.37 180.723 A 0.25 0.25 0 0 0 103.193 180.417 L 90.346 176.975 A 0.25 0.25 0 0 0 90.04 177.151 L 86.598 189.998 A 0.25 0.25 0 0 0 86.774 190.304 Z M 247.982 75.398 L 260.829 78.841 A 0.25 0.25 0 0 0 261.135 78.664 L 264.578 65.817 A 0.25 0.25 0 0 0 264.401 65.511 L 251.554 62.069 A 0.25 0.25 0 0 0 251.248 62.245 L 247.806 75.092 A 0.25 0.25 0 0 0 247.982 75.398 Z M 247.982 190.304 L 260.829 193.747 A 0.25 0.25 0 0 0 261.135 193.57 L 264.578 180.723 A 0.25 0.25 0 0 0 264.401 180.417 L 251.554 176.975 A 0.25 0.25 0 0 0 251.248 177.151 L 247.806 189.998 A 0.25 0.25 0 0 0 247.982 190.304 Z M 58.96 19.386 m -1.1 0 a 1.1 1.1 0 0 1 2.2 0 a 1.1 1.1 0 0 1 -2.2 0 z M 95.41 25.336 m -1.1 0 a 1.1 1.1 0 0 1 2.2 0 a 1.1 1.1 0 0 1 -2.2 0 z M 121.787 83.527 m -1.1 0 a 1.1 1.1 0 0 1 2.2 0 a 1.1 1.1 0 0 1 -2.2 0 z M 85.24 68.336 m -1.1 0 a 1.1 1.1 0 0 1 2.2 0 a 1.1 1.1 0 0 1 -2.2 0 z M 22.375 52.21 m -1.1 0 a 1.1 1.1 0 0 1 2.2 0 a 1.1 1.1 0 0 1 -2.2 0 z M 220.168 19.386 m -1.1 0 a 1.1 1.1 0 0 1 2.2 0 a 1.1 1.1 0 0 1 -2.2 0 z M 256.618 25.336 m -1.1 0 a 1.1 1.1 0 0 1 2.2 0 a 1.1 1.1 0 0 1 -2.2 0 z M 282.995 83.527 m -1.1 0 a 1.1 1.1 0 0 1 2.2 0 a 1.1 1.1 0 0 1 -2.2 0 z M 246.448 68.336 m -1.1 0 a 1.1 1.1 0 0 1 2.2 0 a 1.1 1.1 0 0 1 -2.2 0 z M 183.583 52.21 m -1.1 0 a 1.1 1.1 0 0 1 2.2 0 a 1.1 1.1 0 0 1 -2.2 0 z M 58.96 134.292 m -1.1 0 a 1.1 1.1 0 0 1 2.2 0 a 1.1 1.1 0 0 1 -2.2 0 z M 95.41 140.242 m -1.1 0 a 1.1 1.1 0 0 1 2.2 0 a 1.1 1.1 0 0 1 -2.2 0 z M 121.787 198.433 m -1.1 0 a 1.1 1.1 0 0 1 2.2 0 a 1.1 1.1 0 0 1 -2.2 0 z M 85.24 183.242 m -1.1 0 a 1.1 1.1 0 0 1 2.2 0 a 1.1 1.1 0 0 1 -2.2 0 z M 39.709 155.421 m -1.1 0 a 1.1 1.1 0 0 1 2.2 0 a 1.1 1.1 0 0 1 -2.2 0 z M 220.168 134.292 m -1.1 0 a 1.1 1.1 0 0 1 2.2 0 a 1.1 1.1 0 0 1 -2.2 0 z M 256.618 140.242 m -1.1 0 a 1.1 1.1 0 0 1 2.2 0 a 1.1 1.1 0 0 1 -2.2 0 z M 282.995 198.433 m -1.1 0 a 1.1 1.1 0 0 1 2.2 0 a 1.1 1.1 0 0 1 -2.2 0 z M 246.448 183.242 m -1.1 0 a 1.1 1.1 0 0 1 2.2 0 a 1.1 1.1 0 0 1 -2.2 0 z M 200.917 155.421 m -1.1 0 a 1.1 1.1 0 0 1 2.2 0 a 1.1 1.1 0 0 1 -2.2 0 z M 117.78 66.166 m -1 0 a 1 1 0 0 1 2 0 a 1 1 0 0 1 -2 0 z M 131.38 74.02 m -1 0 a 1 1 0 0 1 2 0 a 1 1 0 0 1 -2 0 z M 278.988 66.166 m -1 0 a 1 1 0 0 1 2 0 a 1 1 0 0 1 -2 0 z M 292.588 74.02 m -1 0 a 1 1 0 0 1 2 0 a 1 1 0 0 1 -2 0 z M 117.78 181.072 m -1 0 a 1 1 0 0 1 2 0 a 1 1 0 0 1 -2 0 z M 131.38 188.926 m -1 0 a 1 1 0 0 1 2 0 a 1 1 0 0 1 -2 0 z M 278.988 181.072 m -1 0 a 1 1 0 0 1 2 0 a 1 1 0 0 1 -2 0 z M 292.588 188.926 m -1 0 a 1 1 0 0 1 2 0 a 1 1 0 0 1 -2 0 z" vector-effect="non-scaling-stroke"/></g></svg>