<svg width="305.134mm" height="219.642mm" viewBox="0 0 305.134 219.642" xmlns="http://www.w3.org/2000/svg"><g id="svgGroup" stroke-linecap="round" fill-rule="evenodd" font-size="9pt" stroke="#e2725b" stroke-width="0.25mm" fill="none" style="stroke:#e2725b;stroke-width:0.25mm;fill:none"><path d="M 135.833 194.265 L 135.833 137.106 A 2.95 2.95 0 0 0 132.883 134.156 L 119.334 134.156 A 2.95 2.95 0 0 1 116.384 131.206 L 116.384 123.806 A 2.95 2.95 0 0 0 113.434 120.856 L 83.334 120.856 A 2.95 2.95 0 0 1 80.384 117.906 L 80.384 117.856 A 2.95 2.95 0 0 0 77.434 114.906 L 60.583 114.906 A 2.95 2.95 0 0 0 57.633 117.856 L 57.633 119.232 A 2.95 2.95 0 0 1 54.888 122.174 L 39.462 123.253 A 2.95 2.95 0 0 0 36.725 126.402 L 37.222 133.5 A 2.95 2.95 0 0 1 34.74 136.62 L 19.122 139.094 A 2.95 2.95 0 0 0 16.67 142.469 L 17.13 145.373 A 2.95 2.95 0 0 1 14.677 148.748 L 2.726 150.641 L 2.489 150.678 A 2.95 2.95 0 0 0 0 153.592 L 0 183.399 A 5.9 5.9 0 0 0 6.823 189.226 L 15.481 187.855 L 20.739 187.022 A 2.95 2.95 0 0 1 24.115 189.474 L 24.468 191.706 A 2.95 2.95 0 0 0 27.843 194.158 L 44.487 191.522 A 2.95 2.95 0 0 0 46.939 188.147 L 45.95 181.902 A 2.95 2.95 0 0 1 48.658 178.497 L 60.957 177.637 A 2.95 2.95 0 0 1 64.113 180.58 L 64.113 190.657 A 2.95 2.95 0 0 0 67.063 193.607 L 75.453 193.607 A 65.32 65.32 0 0 1 91.429 195.591 L 93.285 196.088 A 65.32 65.32 0 0 1 107.278 201.884 L 108.942 202.845 A 65.32 65.32 0 0 1 121.641 212.739 L 127.68 218.778 A 2.95 2.95 0 0 0 131.852 218.778 L 143.062 207.569 A 2.95 2.95 0 0 0 143.064 203.398 L 137.062 197.386 A 2.95 2.95 0 0 1 136.855 197.156 A 4.6 4.6 0 0 1 135.833 194.265 Z M 135.833 79.359 L 135.833 22.2 A 2.95 2.95 0 0 0 132.883 19.25 L 119.334 19.25 A 2.95 2.95 0 0 1 116.384 16.3 L 116.384 8.9 A 2.95 2.95 0 0 0 113.434 5.95 L 83.334 5.95 A 2.95 2.95 0 0 1 80.384 3 L 80.384 2.95 A 2.95 2.95 0 0 0 77.434 0 L 60.583 0 A 2.95 2.95 0 0 0 57.633 2.95 L 57.633 4.326 A 2.95 2.95 0 0 1 54.888 7.268 L 39.462 8.347 A 2.95 2.95 0 0 0 36.725 11.496 L 37.222 18.594 A 2.95 2.95 0 0 1 34.74 21.714 L 19.122 24.188 A 2.95 2.95 0 0 0 16.67 27.563 L 17.13 30.467 A 2.95 2.95 0 0 1 14.677 33.842 L 2.726 35.735 A 2.95 2.95 0 0 0 0.274 39.11 L 5.413 71.556 A 2.95 2.95 0 0 0 8.788 74.009 L 20.739 72.116 A 2.95 2.95 0 0 1 24.115 74.568 L 24.468 76.8 A 2.95 2.95 0 0 0 27.843 79.252 L 44.487 76.616 A 2.95 2.95 0 0 0 46.939 73.241 L 45.95 66.996 A 2.95 2.95 0 0 1 48.658 63.591 L 60.957 62.731 A 2.95 2.95 0 0 1 64.113 65.674 L 64.113 75.751 A 2.95 2.95 0 0 0 67.063 78.701 L 75.453 78.701 A 65.32 65.32 0 0 1 91.429 80.685 L 93.285 81.182 A 65.32 65.32 0 0 1 107.278 86.978 L 108.942 87.939 A 65.32 65.32 0 0 1 121.641 97.833 L 127.68 103.872 A 2.95 2.95 0 0 0 131.852 103.872 L 143.062 92.663 A 2.95 2.95 0 0 0 143.064 88.492 L 137.062 82.48 A 2.95 2.95 0 0 1 136.855 82.25 A 4.6 4.6 0 0 1 135.833 79.359 Z M 134.633 79.359 L 134.633 23.501 A 3.05 3.05 0 0 0 131.583 20.451 L 118.034 20.451 A 2.85 2.85 0 0 1 115.184 17.601 L 115.184 10.2 A 3.05 3.05 0 0 0 112.134 7.15 L 82.034 7.15 A 2.85 2.85 0 0 1 79.184 4.3 L 79.184 4.25 A 3.05 3.05 0 0 0 76.134 1.2 L 61.883 1.2 A 3.05 3.05 0 0 0 58.833 4.25 L 58.833 5.538 A 2.85 2.85 0 0 1 56.182 8.381 L 40.843 9.454 A 3.05 3.05 0 0 0 38.013 12.709 L 38.502 19.699 A 2.85 2.85 0 0 1 36.105 22.713 L 20.594 25.17 A 3.05 3.05 0 0 0 18.058 28.659 L 18.518 31.563 A 2.85 2.85 0 0 1 16.149 34.824 L 4.198 36.717 A 3.05 3.05 0 0 0 1.663 40.206 L 6.395 70.085 A 3.05 3.05 0 0 0 9.885 72.62 L 21.836 70.727 A 2.85 2.85 0 0 1 25.096 73.096 L 25.45 75.328 A 3.05 3.05 0 0 0 28.94 77.864 L 43.015 75.634 A 3.05 3.05 0 0 0 45.55 72.145 L 44.543 65.782 A 2.85 2.85 0 0 1 47.159 62.493 L 62.264 61.437 A 2.85 2.85 0 0 1 65.313 64.28 L 65.313 74.451 A 3.05 3.05 0 0 0 68.363 77.501 L 75.453 77.501 A 66.52 66.52 0 0 1 91.732 79.524 L 93.604 80.025 A 66.52 66.52 0 0 1 107.87 85.934 L 109.549 86.904 A 66.52 66.52 0 0 1 122.49 96.984 L 127.61 102.104 A 3.05 3.05 0 0 0 131.923 102.104 L 141.295 92.732 A 3.05 3.05 0 0 0 141.297 88.421 L 136.171 83.286 A 2.85 2.85 0 0 1 136.02 83.122 A 5.8 5.8 0 0 1 134.633 79.359 Z M 134.633 194.265 L 134.633 138.407 A 3.05 3.05 0 0 0 131.583 135.357 L 118.034 135.357 A 2.85 2.85 0 0 1 115.184 132.507 L 115.184 125.106 A 3.05 3.05 0 0 0 112.134 122.056 L 82.034 122.056 A 2.85 2.85 0 0 1 79.184 119.206 L 79.184 119.156 A 3.05 3.05 0 0 0 76.134 116.106 L 61.883 116.106 A 3.05 3.05 0 0 0 58.833 119.156 L 58.833 120.444 A 2.85 2.85 0 0 1 56.182 123.287 L 40.843 124.36 A 3.05 3.05 0 0 0 38.013 127.615 L 38.502 134.605 A 2.85 2.85 0 0 1 36.105 137.619 L 20.594 140.076 A 3.05 3.05 0 0 0 18.058 143.565 L 18.518 146.469 A 2.85 2.85 0 0 1 16.149 149.73 L 4.198 151.623 A 3.05 3.05 0 0 0 1.663 155.112 L 6.395 184.991 A 3.05 3.05 0 0 0 9.885 187.526 L 21.836 185.633 A 2.85 2.85 0 0 1 25.096 188.002 L 25.45 190.234 A 3.05 3.05 0 0 0 28.94 192.77 L 43.015 190.54 A 3.05 3.05 0 0 0 45.55 187.051 L 44.543 180.688 A 2.85 2.85 0 0 1 47.159 177.399 L 62.264 176.343 A 2.85 2.85 0 0 1 65.313 179.186 L 65.313 189.357 A 3.05 3.05 0 0 0 68.363 192.407 L 75.453 192.407 A 66.52 66.52 0 0 1 91.732 194.43 L 93.604 194.931 A 66.52 66.52 0 0 1 107.87 200.84 L 109.549 201.81 A 66.52 66.52 0 0 1 122.49 211.89 L 127.61 217.01 A 3.05 3.05 0 0 0 131.923 217.01 L 141.295 207.638 A 3.05 3.05 0 0 0 141.297 203.327 L 136.171 198.192 A 2.85 2.85 0 0 1 136.02 198.028 A 5.8 5.8 0 0 1 134.633 194.265 Z M 9.859 72.531 L 21.81 70.638 A 2.95 2.95 0 0 1 25.185 73.091 L 25.539 75.323 A 2.95 2.95 0 0 0 28.914 77.775 L 42.989 75.546 A 2.95 2.95 0 0 0 45.442 72.17 L 44.434 65.808 A 2.95 2.95 0 0 1 47.142 62.403 L 62.247 61.347 A 2.95 2.95 0 0 1 65.403 64.29 L 65.403 74.461 A 2.95 2.95 0 0 0 68.353 77.411 L 75.443 77.411 A 66.62 66.62 0 0 1 91.747 79.437 L 93.621 79.939 A 66.62 66.62 0 0 1 107.909 85.858 L 109.59 86.828 A 66.62 66.62 0 0 1 122.551 96.924 L 127.67 102.043 A 2.95 2.95 0 0 0 131.842 102.043 L 141.214 92.672 A 2.95 2.95 0 0 0 141.216 88.502 L 136.091 83.367 A 2.95 2.95 0 0 1 135.934 83.197 A 5.9 5.9 0 0 1 134.582 80.198 A 2.95 2.95 0 0 0 133.19 78.34 L 116.549 68.732 A 2.95 2.95 0 0 1 115.074 66.177 L 115.074 10.21 A 2.95 2.95 0 0 0 112.124 7.26 L 82.024 7.26 A 2.95 2.95 0 0 1 79.074 4.31 L 79.074 4.26 A 2.95 2.95 0 0 0 76.124 1.31 L 61.873 1.31 A 2.95 2.95 0 0 0 58.923 4.26 L 58.923 5.548 A 2.95 2.95 0 0 1 56.178 8.491 L 40.84 9.563 A 2.95 2.95 0 0 0 38.103 12.712 L 38.592 19.702 A 2.95 2.95 0 0 1 36.111 22.822 L 20.599 25.278 A 2.95 2.95 0 0 0 18.147 28.653 L 18.607 31.557 A 2.95 2.95 0 0 1 16.155 34.932 L 4.204 36.825 A 2.95 2.95 0 0 0 1.752 40.2 L 6.484 70.079 A 2.95 2.95 0 0 0 9.859 72.531 Z M 9.859 187.437 L 21.81 185.544 A 2.95 2.95 0 0 1 25.185 187.997 L 25.539 190.229 A 2.95 2.95 0 0 0 28.914 192.681 L 42.989 190.452 A 2.95 2.95 0 0 0 45.442 187.076 L 44.434 180.714 A 2.95 2.95 0 0 1 47.142 177.309 L 62.247 176.253 A 2.95 2.95 0 0 1 65.403 179.196 L 65.403 189.367 A 2.95 2.95 0 0 0 68.353 192.317 L 75.443 192.317 A 66.62 66.62 0 0 1 91.747 194.343 L 93.621 194.845 A 66.62 66.62 0 0 1 107.909 200.764 L 109.59 201.734 A 66.62 66.62 0 0 1 122.551 211.83 L 127.67 216.949 A 2.95 2.95 0 0 0 131.842 216.949 L 141.214 207.578 A 2.95 2.95 0 0 0 141.216 203.408 L 136.091 198.273 A 2.95 2.95 0 0 1 135.934 198.103 A 5.9 5.9 0 0 1 134.582 195.104 A 2.95 2.95 0 0 0 133.19 193.246 L 116.549 183.638 A 2.95 2.95 0 0 1 115.074 181.083 L 115.074 125.116 A 2.95 2.95 0 0 0 112.124 122.166 L 82.024 122.166 A 2.95 2.95 0 0 1 79.074 119.216 L 79.074 119.166 A 2.95 2.95 0 0 0 76.124 116.216 L 61.873 116.216 A 2.95 2.95 0 0 0 58.923 119.166 L 58.923 120.454 A 2.95 2.95 0 0 1 56.178 123.397 L 40.84 124.469 A 2.95 2.95 0 0 0 38.103 127.618 L 38.592 134.608 A 2.95 2.95 0 0 1 36.111 137.728 L 20.599 140.184 A 2.95 2.95 0 0 0 18.147 143.559 L 18.607 146.463 A 2.95 2.95 0 0 1 16.155 149.838 L 4.204 151.731 A 2.95 2.95 0 0 0 1.752 155.106 L 6.484 184.985 A 2.95 2.95 0 0 0 9.859 187.437 Z M 297.041 194.265 L 297.041 137.106 A 2.95 2.95 0 0 0 294.091 134.156 L 280.542 134.156 A 2.95 2.95 0 0 1 277.592 131.206 L 277.592 123.806 A 2.95 2.95 0 0 0 274.642 120.856 L 244.542 120.856 A 2.95 2.95 0 0 1 241.592 117.906 L 241.592 117.856 A 2.95 2.95 0 0 0 238.642 114.906 L 221.791 114.906 A 2.95 2.95 0 0 0 218.841 117.856 L 218.841 119.232 A 2.95 2.95 0 0 1 216.096 122.174 L 200.67 123.253 A 2.95 2.95 0 0 0 197.933 126.402 L 198.43 133.5 A 2.95 2.95 0 0 1 195.948 136.62 L 180.33 139.094 L 180.092 139.131 A 2.95 2.95 0 0 0 177.604 142.045 L 177.604 189.064 A 5.9 5.9 0 0 0 184.426 194.891 L 195.744 193.098 L 205.695 191.522 A 2.95 2.95 0 0 0 208.147 188.147 L 207.158 181.902 A 2.95 2.95 0 0 1 209.866 178.497 L 222.165 177.637 A 2.95 2.95 0 0 1 225.321 180.58 L 225.321 190.657 A 2.95 2.95 0 0 0 228.271 193.607 L 236.661 193.607 A 65.32 65.32 0 0 1 252.637 195.591 L 254.493 196.088 A 65.32 65.32 0 0 1 268.486 201.884 L 270.15 202.845 A 65.32 65.32 0 0 1 282.849 212.739 L 288.888 218.778 A 2.95 2.95 0 0 0 293.06 218.778 L 304.27 207.569 A 2.95 2.95 0 0 0 304.272 203.398 L 298.27 197.386 A 2.95 2.95 0 0 1 298.063 197.156 A 4.6 4.6 0 0 1 297.041 194.265 Z M 297.041 79.359 L 297.041 22.2 A 2.95 2.95 0 0 0 294.091 19.25 L 280.542 19.25 A 2.95 2.95 0 0 1 277.592 16.3 L 277.592 8.9 A 2.95 2.95 0 0 0 274.642 5.95 L 244.542 5.95 A 2.95 2.95 0 0 1 241.592 3 L 241.592 2.95 A 2.95 2.95 0 0 0 238.642 0 L 221.791 0 A 2.95 2.95 0 0 0 218.841 2.95 L 218.841 4.326 A 2.95 2.95 0 0 1 216.096 7.268 L 200.67 8.347 A 2.95 2.95 0 0 0 197.933 11.496 L 198.43 18.594 A 2.95 2.95 0 0 1 195.948 21.714 L 180.33 24.188 A 2.95 2.95 0 0 0 177.878 27.563 L 185.676 76.8 A 2.95 2.95 0 0 0 189.051 79.252 L 205.695 76.616 A 2.95 2.95 0 0 0 208.147 73.241 L 207.158 66.996 A 2.95 2.95 0 0 1 209.866 63.591 L 222.165 62.731 A 2.95 2.95 0 0 1 225.321 65.674 L 225.321 75.751 A 2.95 2.95 0 0 0 228.271 78.701 L 236.661 78.701 A 65.32 65.32 0 0 1 252.637 80.685 L 254.493 81.182 A 65.32 65.32 0 0 1 268.486 86.978 L 270.15 87.939 A 65.32 65.32 0 0 1 282.849 97.833 L 288.888 103.872 A 2.95 2.95 0 0 0 293.06 103.872 L 304.27 92.663 A 2.95 2.95 0 0 0 304.272 88.492 L 298.27 82.48 A 2.95 2.95 0 0 1 298.063 82.25 A 4.6 4.6 0 0 1 297.041 79.359 Z M 295.841 79.359 L 295.841 23.501 A 3.05 3.05 0 0 0 292.791 20.451 L 279.242 20.451 A 2.85 2.85 0 0 1 276.392 17.601 L 276.392 10.2 A 3.05 3.05 0 0 0 273.342 7.15 L 243.242 7.15 A 2.85 2.85 0 0 1 240.392 4.3 L 240.392 4.25 A 3.05 3.05 0 0 0 237.342 1.2 L 223.091 1.2 A 3.05 3.05 0 0 0 220.041 4.25 L 220.041 5.538 A 2.85 2.85 0 0 1 217.39 8.381 L 202.051 9.454 A 3.05 3.05 0 0 0 199.221 12.709 L 199.71 19.699 A 2.85 2.85 0 0 1 197.313 22.713 L 181.802 25.17 A 3.05 3.05 0 0 0 179.266 28.659 L 186.658 75.328 A 3.05 3.05 0 0 0 190.148 77.864 L 204.223 75.634 A 3.05 3.05 0 0 0 206.758 72.145 L 205.751 65.782 A 2.85 2.85 0 0 1 208.367 62.493 L 223.472 61.437 A 2.85 2.85 0 0 1 226.521 64.28 L 226.521 74.451 A 3.05 3.05 0 0 0 229.571 77.501 L 236.661 77.501 A 66.52 66.52 0 0 1 252.94 79.524 L 254.812 80.025 A 66.52 66.52 0 0 1 269.078 85.934 L 270.757 86.904 A 66.52 66.52 0 0 1 283.698 96.984 L 288.818 102.104 A 3.05 3.05 0 0 0 293.131 102.104 L 302.503 92.732 A 3.05 3.05 0 0 0 302.505 88.421 L 297.379 83.286 A 2.85 2.85 0 0 1 297.228 83.122 A 5.8 5.8 0 0 1 295.841 79.359 Z M 295.841 194.265 L 295.841 138.407 A 3.05 3.05 0 0 0 292.791 135.357 L 279.242 135.357 A 2.85 2.85 0 0 1 276.392 132.507 L 276.392 125.106 A 3.05 3.05 0 0 0 273.342 122.056 L 243.242 122.056 A 2.85 2.85 0 0 1 240.392 119.206 L 240.392 119.156 A 3.05 3.05 0 0 0 237.342 116.106 L 223.091 116.106 A 3.05 3.05 0 0 0 220.041 119.156 L 220.041 120.444 A 2.85 2.85 0 0 1 217.39 123.287 L 202.051 124.36 A 3.05 3.05 0 0 0 199.221 127.615 L 199.71 134.605 A 2.85 2.85 0 0 1 197.313 137.619 L 181.802 140.076 A 3.05 3.05 0 0 0 179.266 143.565 L 186.658 190.234 A 3.05 3.05 0 0 0 190.148 192.77 L 204.223 190.54 A 3.05 3.05 0 0 0 206.758 187.051 L 205.751 180.688 A 2.85 2.85 0 0 1 208.367 177.399 L 223.472 176.343 A 2.85 2.85 0 0 1 226.521 179.186 L 226.521 189.357 A 3.05 3.05 0 0 0 229.571 192.407 L 236.661 192.407 A 66.52 66.52 0 0 1 252.94 194.43 L 254.812 194.931 A 66.52 66.52 0 0 1 269.078 200.84 L 270.757 201.81 A 66.52 66.52 0 0 1 283.698 211.89 L 288.818 217.01 A 3.05 3.05 0 0 0 293.131 217.01 L 302.503 207.638 A 3.05 3.05 0 0 0 302.505 203.327 L 297.379 198.192 A 2.85 2.85 0 0 1 297.228 198.028 A 5.8 5.8 0 0 1 295.841 194.265 Z M 190.122 192.681 L 204.197 190.452 A 2.95 2.95 0 0 0 206.65 187.076 L 205.642 180.714 A 2.95 2.95 0 0 1 208.35 177.309 L 223.455 176.253 A 2.95 2.95 0 0 1 226.611 179.196 L 226.611 189.367 A 2.95 2.95 0 0 0 229.561 192.317 L 236.651 192.317 A 66.62 66.62 0 0 1 252.955 194.343 L 254.829 194.845 A 66.62 66.62 0 0 1 269.117 200.764 L 270.798 201.734 A 66.62 66.62 0 0 1 283.759 211.83 L 288.878 216.949 A 2.95 2.95 0 0 0 293.05 216.949 L 302.422 207.578 A 2.95 2.95 0 0 0 302.424 203.408 L 297.299 198.273 A 2.95 2.95 0 0 1 297.142 198.103 A 5.9 5.9 0 0 1 295.79 195.104 A 2.95 2.95 0 0 0 294.398 193.246 L 277.757 183.638 A 2.95 2.95 0 0 1 276.282 181.083 L 276.282 125.116 A 2.95 2.95 0 0 0 273.332 122.166 L 243.232 122.166 A 2.95 2.95 0 0 1 240.282 119.216 L 240.282 119.166 A 2.95 2.95 0 0 0 237.332 116.216 L 223.081 116.216 A 2.95 2.95 0 0 0 220.131 119.166 L 220.131 120.454 A 2.95 2.95 0 0 1 217.386 123.397 L 202.048 124.469 A 2.95 2.95 0 0 0 199.311 127.618 L 199.8 134.608 A 2.95 2.95 0 0 1 197.319 137.728 L 181.807 140.184 A 2.95 2.95 0 0 0 179.355 143.559 L 186.747 190.229 A 2.95 2.95 0 0 0 190.122 192.681 Z M 190.122 77.775 L 204.197 75.546 A 2.95 2.95 0 0 0 206.65 72.17 L 205.642 65.808 A 2.95 2.95 0 0 1 208.35 62.403 L 223.455 61.347 A 2.95 2.95 0 0 1 226.611 64.29 L 226.611 74.461 A 2.95 2.95 0 0 0 229.561 77.411 L 236.651 77.411 A 66.62 66.62 0 0 1 252.955 79.437 L 254.829 79.939 A 66.62 66.62 0 0 1 269.117 85.858 L 270.798 86.828 A 66.62 66.62 0 0 1 283.759 96.924 L 288.878 102.043 A 2.95 2.95 0 0 0 293.05 102.043 L 302.422 92.672 A 2.95 2.95 0 0 0 302.424 88.502 L 297.299 83.367 A 2.95 2.95 0 0 1 297.142 83.197 A 5.9 5.9 0 0 1 295.79 80.198 A 2.95 2.95 0 0 0 294.398 78.34 L 277.757 68.732 A 2.95 2.95 0 0 1 276.282 66.177 L 276.282 10.21 A 2.95 2.95 0 0 0 273.332 7.26 L 243.232 7.26 A 2.95 2.95 0 0 1 240.282 4.31 L 240.282 4.26 A 2.95 2.95 0 0 0 237.332 1.31 L 223.081 1.31 A 2.95 2.95 0 0 0 220.131 4.26 L 220.131 5.548 A 2.95 2.95 0 0 1 217.386 8.491 L 202.048 9.563 A 2.95 2.95 0 0 0 199.311 12.712 L 199.8 19.702 A 2.95 2.95 0 0 1 197.319 22.822 L 181.807 25.278 A 2.95 2.95 0 0 0 179.355 28.653 L 186.747 75.323 A 2.95 2.95 0 0 0 190.122 77.775 Z M 134.543 73.98 L 134.543 23.491 A 2.95 2.95 0 0 0 131.593 20.541 L 118.044 20.541 A 2.95 2.95 0 0 0 115.094 23.491 L 115.094 66.157 A 2.95 2.95 0 0 0 116.569 68.712 L 118.422 69.782 L 130.118 76.534 A 2.95 2.95 0 0 0 134.543 73.98 Z M 134.543 188.886 L 134.543 138.397 A 2.95 2.95 0 0 0 131.593 135.447 L 118.044 135.447 A 2.95 2.95 0 0 0 115.094 138.397 L 115.094 181.063 A 2.95 2.95 0 0 0 116.569 183.618 L 118.422 184.688 L 130.118 191.44 A 2.95 2.95 0 0 0 134.543 188.886 Z M 295.751 73.98 L 295.751 23.491 A 2.95 2.95 0 0 0 292.801 20.541 L 279.252 20.541 A 2.95 2.95 0 0 0 276.302 23.491 L 276.302 66.157 A 2.95 2.95 0 0 0 277.777 68.712 L 279.63 69.782 L 291.326 76.534 A 2.95 2.95 0 0 0 295.751 73.98 Z M 295.751 188.886 L 295.751 138.397 A 2.95 2.95 0 0 0 292.801 135.447 L 279.252 135.447 A 2.95 2.95 0 0 0 276.302 138.397 L 276.302 181.063 A 2.95 2.95 0 0 0 277.777 183.618 L 279.63 184.688 L 291.326 191.44 A 2.95 2.95 0 0 0 295.751 188.886 Z M 119.558 169.722 L 130.078 169.722 A 0.39 0.39 0 0 0 130.468 169.332 L 130.468 144.312 A 0.39 0.39 0 0 0 130.078 143.922 L 119.558 143.922 A 0.39 0.39 0 0 0 119.168 144.312 L 119.168 169.332 A 0.39 0.39 0 0 0 119.558 169.722 Z M 280.766 169.722 L 291.286 169.722 A 0.39 0.39 0 0 0 291.676 169.332 L 291.676 144.312 A 0.39 0.39 0 0 0 291.286 143.922 L 280.766 143.922 A 0.39 0.39 0 0 0 280.376 144.312 L 280.376 169.332 A 0.39 0.39 0 0 0 280.766 169.722 Z M 119.558 54.816 L 130.078 54.816 A 0.39 0.39 0 0 0 130.468 54.426 L 130.468 29.406 A 0.39 0.39 0 0 0 130.078 29.016 L 119.558 29.016 A 0.39 0.39 0 0 0 119.168 29.406 L 119.168 54.426 A 0.39 0.39 0 0 0 119.558 54.816 Z M 280.766 54.816 L 291.286 54.816 A 0.39 0.39 0 0 0 291.676 54.426 L 291.676 29.406 A 0.39 0.39 0 0 0 291.286 29.016 L 280.766 29.016 A 0.39 0.39 0 0 0 280.376 29.406 L 280.376 54.426 A 0.39 0.39 0 0 0 280.766 54.816 Z M 68.778 74.786 L 71.928 74.786 L 71.928 74.961 A 0.75 0.75 0 0 0 72.678 75.711 L 78.278 75.711 A 0.75 0.75 0 0 0 79.028 74.961 L 79.028 74.786 L 82.178 74.786 A 0.25 0.25 0 0 0 82.428 74.536 L 82.428 61.136 A 0.25 0.25 0 0 0 82.178 60.886 L 68.778 60.886 A 0.25 0.25 0 0 0 68.528 61.136 L 68.528 74.536 A 0.25 0.25 0 0 0 68.778 74.786 Z M 229.986 74.786 L 233.136 74.786 L 233.136 74.961 A 0.75 0.75 0 0 0 233.886 75.711 L 239.486 75.711 A 0.75 0.75 0 0 0 240.236 74.961 L 240.236 74.786 L 243.386 74.786 A 0.25 0.25 0 0 0 243.636 74.536 L 243.636 61.136 A 0.25 0.25 0 0 0 243.386 60.886 L 229.986 60.886 A 0.25 0.25 0 0 0 229.736 61.136 L 229.736 74.536 A 0.25 0.25 0 0 0 229.986 74.786 Z M 68.778 189.692 L 71.928 189.692 L 71.928 189.867 A 0.75 0.75 0 0 0 72.678 190.617 L 78.278 190.617 A 0.75 0.75 0 0 0 79.028 189.867 L 79.028 189.692 L 82.178 189.692 A 0.25 0.25 0 0 0 82.428 189.442 L 82.428 176.042 A 0.25 0.25 0 0 0 82.178 175.792 L 68.778 175.792 A 0.25 0.25 0 0 0 68.528 176.042 L 68.528 189.442 A 0.25 0.25 0 0 0 68.778 189.692 Z M 229.986 189.692 L 233.136 189.692 L 233.136 189.867 A 0.75 0.75 0 0 0 233.886 190.617 L 239.486 190.617 A 0.75 0.75 0 0 0 240.236 189.867 L 240.236 189.692 L 243.386 189.692 A 0.25 0.25 0 0 0 243.636 189.442 L 243.636 176.042 A 0.25 0.25 0 0 0 243.386 175.792 L 229.986 175.792 A 0.25 0.25 0 0 0 229.736 176.042 L 229.736 189.442 A 0.25 0.25 0 0 0 229.986 189.692 Z M 119.751 90.411 L 129.226 99.886 A 0.25 0.25 0 0 0 129.58 99.886 L 139.055 90.411 A 0.25 0.25 0 0 0 139.055 90.057 L 129.58 80.582 A 0.25 0.25 0 0 0 129.226 80.582 L 119.751 90.057 A 0.25 0.25 0 0 0 119.751 90.411 Z M 119.751 205.317 L 129.226 214.792 A 0.25 0.25 0 0 0 129.58 214.792 L 139.055 205.317 A 0.25 0.25 0 0 0 139.055 204.963 L 129.58 195.488 A 0.25 0.25 0 0 0 129.226 195.488 L 119.751 204.963 A 0.25 0.25 0 0 0 119.751 205.317 Z M 280.959 90.411 L 290.434 99.886 A 0.25 0.25 0 0 0 290.788 99.886 L 300.263 90.411 A 0.25 0.25 0 0 0 300.263 90.057 L 290.788 80.582 A 0.25 0.25 0 0 0 290.434 80.582 L 280.959 90.057 A 0.25 0.25 0 0 0 280.959 90.411 Z M 280.959 205.317 L 290.434 214.792 A 0.25 0.25 0 0 0 290.788 214.792 L 300.263 205.317 A 0.25 0.25 0 0 0 300.263 204.963 L 290.788 195.488 A 0.25 0.25 0 0 0 290.434 195.488 L 280.959 204.963 A 0.25 0.25 0 0 0 280.959 205.317 Z M 203.625 26.019 L 216.993 25.084 A 0.25 0.25 0 0 0 217.225 24.817 L 216.29 11.45 A 0.25 0.25 0 0 0 216.023 11.218 L 202.656 12.153 A 0.25 0.25 0 0 0 202.424 12.42 L 203.358 25.787 A 0.25 0.25 0 0 0 203.625 26.019 Z M 203.625 140.925 L 216.993 139.99 A 0.25 0.25 0 0 0 217.225 139.723 L 216.29 126.356 A 0.25 0.25 0 0 0 216.023 126.124 L 202.656 127.059 A 0.25 0.25 0 0 0 202.424 127.326 L 203.358 140.693 A 0.25 0.25 0 0 0 203.625 140.925 Z M 42.417 26.019 L 55.785 25.084 A 0.25 0.25 0 0 0 56.017 24.817 L 55.082 11.45 A 0.25 0.25 0 0 0 54.815 11.218 L 41.448 12.153 A 0.25 0.25 0 0 0 41.216 12.42 L 42.15 25.787 A 0.25 0.25 0 0 0 42.417 26.019 Z M 42.417 140.925 L 55.785 139.99 A 0.25 0.25 0 0 0 56.017 139.723 L 55.082 126.356 A 0.25 0.25 0 0 0 54.815 126.124 L 41.448 127.059 A 0.25 0.25 0 0 0 41.216 127.326 L 42.15 140.693 A 0.25 0.25 0 0 0 42.417 140.925 Z M 43.603 157.883 L 56.971 156.949 A 0.25 0.25 0 0 0 57.202 156.682 L 56.268 143.314 A 0.25 0.25 0 0 0 56.001 143.083 L 42.634 144.017 A 0.25 0.25 0 0 0 42.402 144.284 L 43.336 157.651 A 0.25 0.25 0 0 0 43.603 157.883 Z M 204.811 157.883 L 218.179 156.949 A 0.25 0.25 0 0 0 218.41 156.682 L 217.476 143.314 A 0.25 0.25 0 0 0 217.209 143.083 L 203.842 144.017 A 0.25 0.25 0 0 0 203.61 144.284 L 204.544 157.651 A 0.25 0.25 0 0 0 204.811 157.883 Z M 43.603 42.977 L 56.971 42.043 A 0.25 0.25 0 0 0 57.202 41.776 L 56.268 28.408 A 0.25 0.25 0 0 0 56.001 28.177 L 42.634 29.111 A 0.25 0.25 0 0 0 42.402 29.378 L 43.336 42.745 A 0.25 0.25 0 0 0 43.603 42.977 Z M 204.811 42.977 L 218.179 42.043 A 0.25 0.25 0 0 0 218.41 41.776 L 217.476 28.408 A 0.25 0.25 0 0 0 217.209 28.177 L 203.842 29.111 A 0.25 0.25 0 0 0 203.61 29.378 L 204.544 42.745 A 0.25 0.25 0 0 0 204.811 42.977 Z M 205.997 174.842 L 219.364 173.907 A 0.25 0.25 0 0 0 219.596 173.64 L 218.662 160.273 A 0.25 0.25 0 0 0 218.395 160.041 L 205.027 160.976 A 0.25 0.25 0 0 0 204.795 161.243 L 205.73 174.61 A 0.25 0.25 0 0 0 205.997 174.842 Z M 44.789 174.842 L 58.156 173.907 A 0.25 0.25 0 0 0 58.388 173.64 L 57.454 160.273 A 0.25 0.25 0 0 0 57.187 160.041 L 43.819 160.976 A 0.25 0.25 0 0 0 43.587 161.243 L 44.522 174.61 A 0.25 0.25 0 0 0 44.789 174.842 Z M 205.997 59.936 L 219.364 59.001 A 0.25 0.25 0 0 0 219.596 58.734 L 218.662 45.367 A 0.25 0.25 0 0 0 218.395 45.135 L 205.027 46.07 A 0.25 0.25 0 0 0 204.795 46.337 L 205.73 59.704 A 0.25 0.25 0 0 0 205.997 59.936 Z M 44.789 59.936 L 58.156 59.001 A 0.25 0.25 0 0 0 58.388 58.734 L 57.454 45.367 A 0.25 0.25 0 0 0 57.187 45.135 L 43.819 46.07 A 0.25 0.25 0 0 0 43.587 46.337 L 44.522 59.704 A 0.25 0.25 0 0 0 44.789 59.936 Z M 259.506 60.336 L 272.906 60.336 A 0.25 0.25 0 0 0 273.156 60.086 L 273.156 46.686 A 0.25 0.25 0 0 0 272.906 46.436 L 259.506 46.436 A 0.25 0.25 0 0 0 259.256 46.686 L 259.256 60.086 A 0.25 0.25 0 0 0 259.506 60.336 Z M 259.506 43.336 L 272.906 43.336 A 0.25 0.25 0 0 0 273.156 43.086 L 273.156 29.686 A 0.25 0.25 0 0 0 272.906 29.436 L 259.506 29.436 A 0.25 0.25 0 0 0 259.256 29.686 L 259.256 43.086 A 0.25 0.25 0 0 0 259.506 43.336 Z M 259.506 175.242 L 272.906 175.242 A 0.25 0.25 0 0 0 273.156 174.992 L 273.156 161.592 A 0.25 0.25 0 0 0 272.906 161.342 L 259.506 161.342 A 0.25 0.25 0 0 0 259.256 161.592 L 259.256 174.992 A 0.25 0.25 0 0 0 259.506 175.242 Z M 259.506 158.242 L 272.906 158.242 A 0.25 0.25 0 0 0 273.156 157.992 L 273.156 144.592 A 0.25 0.25 0 0 0 272.906 144.342 L 259.506 144.342 A 0.25 0.25 0 0 0 259.256 144.592 L 259.256 157.992 A 0.25 0.25 0 0 0 259.506 158.242 Z M 259.506 141.242 L 272.906 141.242 A 0.25 0.25 0 0 0 273.156 140.992 L 273.156 127.592 A 0.25 0.25 0 0 0 272.906 127.342 L 259.506 127.342 A 0.25 0.25 0 0 0 259.256 127.592 L 259.256 140.992 A 0.25 0.25 0 0 0 259.506 141.242 Z M 259.506 26.336 L 272.906 26.336 A 0.25 0.25 0 0 0 273.156 26.086 L 273.156 12.686 A 0.25 0.25 0 0 0 272.906 12.436 L 259.506 12.436 A 0.25 0.25 0 0 0 259.256 12.686 L 259.256 26.086 A 0.25 0.25 0 0 0 259.506 26.336 Z M 62.298 51.836 L 75.698 51.836 A 0.25 0.25 0 0 0 75.948 51.586 L 75.948 38.186 A 0.25 0.25 0 0 0 75.698 37.936 L 62.298 37.936 A 0.25 0.25 0 0 0 62.048 38.186 L 62.048 51.586 A 0.25 0.25 0 0 0 62.298 51.836 Z M 80.298 57.786 L 93.698 57.786 A 0.25 0.25 0 0 0 93.948 57.536 L 93.948 44.136 A 0.25 0.25 0 0 0 93.698 43.886 L 80.298 43.886 A 0.25 0.25 0 0 0 80.048 44.136 L 80.048 57.536 A 0.25 0.25 0 0 0 80.298 57.786 Z M 98.298 60.336 L 111.698 60.336 A 0.25 0.25 0 0 0 111.948 60.086 L 111.948 46.686 A 0.25 0.25 0 0 0 111.698 46.436 L 98.298 46.436 A 0.25 0.25 0 0 0 98.048 46.686 L 98.048 60.086 A 0.25 0.25 0 0 0 98.298 60.336 Z M 98.298 43.336 L 111.698 43.336 A 0.25 0.25 0 0 0 111.948 43.086 L 111.948 29.686 A 0.25 0.25 0 0 0 111.698 29.436 L 98.298 29.436 A 0.25 0.25 0 0 0 98.048 29.686 L 98.048 43.086 A 0.25 0.25 0 0 0 98.298 43.336 Z M 62.298 166.742 L 75.698 166.742 A 0.25 0.25 0 0 0 75.948 166.492 L 75.948 153.092 A 0.25 0.25 0 0 0 75.698 152.842 L 62.298 152.842 A 0.25 0.25 0 0 0 62.048 153.092 L 62.048 166.492 A 0.25 0.25 0 0 0 62.298 166.742 Z M 62.298 149.742 L 75.698 149.742 A 0.25 0.25 0 0 0 75.948 149.492 L 75.948 136.092 A 0.25 0.25 0 0 0 75.698 135.842 L 62.298 135.842 A 0.25 0.25 0 0 0 62.048 136.092 L 62.048 149.492 A 0.25 0.25 0 0 0 62.298 149.742 Z M 62.298 132.742 L 75.698 132.742 A 0.25 0.25 0 0 0 75.948 132.492 L 75.948 119.092 A 0.25 0.25 0 0 0 75.698 118.842 L 62.298 118.842 A 0.25 0.25 0 0 0 62.048 119.092 L 62.048 132.492 A 0.25 0.25 0 0 0 62.298 132.742 Z M 80.298 172.692 L 93.698 172.692 A 0.25 0.25 0 0 0 93.948 172.442 L 93.948 159.042 A 0.25 0.25 0 0 0 93.698 158.792 L 80.298 158.792 A 0.25 0.25 0 0 0 80.048 159.042 L 80.048 172.442 A 0.25 0.25 0 0 0 80.298 172.692 Z M 80.298 155.692 L 93.698 155.692 A 0.25 0.25 0 0 0 93.948 155.442 L 93.948 142.042 A 0.25 0.25 0 0 0 93.698 141.792 L 80.298 141.792 A 0.25 0.25 0 0 0 80.048 142.042 L 80.048 155.442 A 0.25 0.25 0 0 0 80.298 155.692 Z M 80.298 138.692 L 93.698 138.692 A 0.25 0.25 0 0 0 93.948 138.442 L 93.948 125.042 A 0.25 0.25 0 0 0 93.698 124.792 L 80.298 124.792 A 0.25 0.25 0 0 0 80.048 125.042 L 80.048 138.442 A 0.25 0.25 0 0 0 80.298 138.692 Z M 98.298 175.242 L 111.698 175.242 A 0.25 0.25 0 0 0 111.948 174.992 L 111.948 161.592 A 0.25 0.25 0 0 0 111.698 161.342 L 98.298 161.342 A 0.25 0.25 0 0 0 98.048 161.592 L 98.048 174.992 A 0.25 0.25 0 0 0 98.298 175.242 Z M 98.298 158.242 L 111.698 158.242 A 0.25 0.25 0 0 0 111.948 157.992 L 111.948 144.592 A 0.25 0.25 0 0 0 111.698 144.342 L 98.298 144.342 A 0.25 0.25 0 0 0 98.048 144.592 L 98.048 157.992 A 0.25 0.25 0 0 0 98.298 158.242 Z M 98.298 141.242 L 111.698 141.242 A 0.25 0.25 0 0 0 111.948 140.992 L 111.948 127.592 A 0.25 0.25 0 0 0 111.698 127.342 L 98.298 127.342 A 0.25 0.25 0 0 0 98.048 127.592 L 98.048 140.992 A 0.25 0.25 0 0 0 98.298 141.242 Z M 62.298 34.836 L 75.698 34.836 A 0.25 0.25 0 0 0 75.948 34.586 L 75.948 21.186 A 0.25 0.25 0 0 0 75.698 20.936 L 62.298 20.936 A 0.25 0.25 0 0 0 62.048 21.186 L 62.048 34.586 A 0.25 0.25 0 0 0 62.298 34.836 Z M 62.298 17.836 L 75.698 17.836 A 0.25 0.25 0 0 0 75.948 17.586 L 75.948 4.186 A 0.25 0.25 0 0 0 75.698 3.936 L 62.298 3.936 A 0.25 0.25 0 0 0 62.048 4.186 L 62.048 17.586 A 0.25 0.25 0 0 0 62.298 17.836 Z M 80.298 40.786 L 93.698 40.786 A 0.25 0.25 0 0 0 93.948 40.536 L 93.948 27.136 A 0.25 0.25 0 0 0 93.698 26.886 L 80.298 26.886 A 0.25 0.25 0 0 0 80.048 27.136 L 80.048 40.536 A 0.25 0.25 0 0 0 80.298 40.786 Z M 80.298 23.786 L 93.698 23.786 A 0.25 0.25 0 0 0 93.948 23.536 L 93.948 10.136 A 0.25 0.25 0 0 0 93.698 9.886 L 80.298 9.886 A 0.25 0.25 0 0 0 80.048 10.136 L 80.048 23.536 A 0.25 0.25 0 0 0 80.298 23.786 Z M 98.298 26.336 L 111.698 26.336 A 0.25 0.25 0 0 0 111.948 26.086 L 111.948 12.686 A 0.25 0.25 0 0 0 111.698 12.436 L 98.298 12.436 A 0.25 0.25 0 0 0 98.048 12.686 L 98.048 26.086 A 0.25 0.25 0 0 0 98.298 26.336 Z M 223.506 51.836 L 236.906 51.836 A 0.25 0.25 0 0 0 237.156 51.586 L 237.156 38.186 A 0.25 0.25 0 0 0 236.906 37.936 L 223.506 37.936 A 0.25 0.25 0 0 0 223.256 38.186 L 223.256 51.586 A 0.25 0.25 0 0 0 223.506 51.836 Z M 241.506 57.786 L 254.906 57.786 A 0.25 0.25 0 0 0 255.156 57.536 L 255.156 44.136 A 0.25 0.25 0 0 0 254.906 43.886 L 241.506 43.886 A 0.25 0.25 0 0 0 241.256 44.136 L 241.256 57.536 A 0.25 0.25 0 0 0 241.506 57.786 Z M 223.506 166.742 L 236.906 166.742 A 0.25 0.25 0 0 0 237.156 166.492 L 237.156 153.092 A 0.25 0.25 0 0 0 236.906 152.842 L 223.506 152.842 A 0.25 0.25 0 0 0 223.256 153.092 L 223.256 166.492 A 0.25 0.25 0 0 0 223.506 166.742 Z M 223.506 149.742 L 236.906 149.742 A 0.25 0.25 0 0 0 237.156 149.492 L 237.156 136.092 A 0.25 0.25 0 0 0 236.906 135.842 L 223.506 135.842 A 0.25 0.25 0 0 0 223.256 136.092 L 223.256 149.492 A 0.25 0.25 0 0 0 223.506 149.742 Z M 223.506 132.742 L 236.906 132.742 A 0.25 0.25 0 0 0 237.156 132.492 L 237.156 119.092 A 0.25 0.25 0 0 0 236.906 118.842 L 223.506 118.842 A 0.25 0.25 0 0 0 223.256 119.092 L 223.256 132.492 A 0.25 0.25 0 0 0 223.506 132.742 Z M 241.506 172.692 L 254.906 172.692 A 0.25 0.25 0 0 0 255.156 172.442 L 255.156 159.042 A 0.25 0.25 0 0 0 254.906 158.792 L 241.506 158.792 A 0.25 0.25 0 0 0 241.256 159.042 L 241.256 172.442 A 0.25 0.25 0 0 0 241.506 172.692 Z M 241.506 155.692 L 254.906 155.692 A 0.25 0.25 0 0 0 255.156 155.442 L 255.156 142.042 A 0.25 0.25 0 0 0 254.906 141.792 L 241.506 141.792 A 0.25 0.25 0 0 0 241.256 142.042 L 241.256 155.442 A 0.25 0.25 0 0 0 241.506 155.692 Z M 241.506 138.692 L 254.906 138.692 A 0.25 0.25 0 0 0 255.156 138.442 L 255.156 125.042 A 0.25 0.25 0 0 0 254.906 124.792 L 241.506 124.792 A 0.25 0.25 0 0 0 241.256 125.042 L 241.256 138.442 A 0.25 0.25 0 0 0 241.506 138.692 Z M 223.506 34.836 L 236.906 34.836 A 0.25 0.25 0 0 0 237.156 34.586 L 237.156 21.186 A 0.25 0.25 0 0 0 236.906 20.936 L 223.506 20.936 A 0.25 0.25 0 0 0 223.256 21.186 L 223.256 34.586 A 0.25 0.25 0 0 0 223.506 34.836 Z M 223.506 17.836 L 236.906 17.836 A 0.25 0.25 0 0 0 237.156 17.586 L 237.156 4.186 A 0.25 0.25 0 0 0 236.906 3.936 L 223.506 3.936 A 0.25 0.25 0 0 0 223.256 4.186 L 223.256 17.586 A 0.25 0.25 0 0 0 223.506 17.836 Z M 241.506 40.786 L 254.906 40.786 A 0.25 0.25 0 0 0 255.156 40.536 L 255.156 27.136 A 0.25 0.25 0 0 0 254.906 26.886 L 241.506 26.886 A 0.25 0.25 0 0 0 241.256 27.136 L 241.256 40.536 A 0.25 0.25 0 0 0 241.506 40.786 Z M 241.506 23.786 L 254.906 23.786 A 0.25 0.25 0 0 0 255.156 23.536 L 255.156 10.136 A 0.25 0.25 0 0 0 254.906 9.886 L 241.506 9.886 A 0.25 0.25 0 0 0 241.256 10.136 L 241.256 23.536 A 0.25 0.25 0 0 0 241.506 23.786 Z M 265.545 80.763 L 277.15 87.463 A 0.25 0.25 0 0 0 277.491 87.372 L 284.191 75.767 A 0.25 0.25 0 0 0 284.1 75.425 L 272.495 68.725 A 0.25 0.25 0 0 0 272.153 68.817 L 265.453 80.422 A 0.25 0.25 0 0 0 265.545 80.763 Z M 104.337 80.763 L 115.942 87.463 A 0.25 0.25 0 0 0 116.283 87.372 L 122.983 75.767 A 0.25 0.25 0 0 0 122.892 75.425 L 111.287 68.725 A 0.25 0.25 0 0 0 110.945 68.817 L 104.245 80.422 A 0.25 0.25 0 0 0 104.337 80.763 Z M 265.545 195.669 L 277.15 202.369 A 0.25 0.25 0 0 0 277.491 202.278 L 284.191 190.673 A 0.25 0.25 0 0 0 284.1 190.331 L 272.495 183.631 A 0.25 0.25 0 0 0 272.153 183.723 L 265.453 195.328 A 0.25 0.25 0 0 0 265.545 195.669 Z M 104.337 195.669 L 115.942 202.369 A 0.25 0.25 0 0 0 116.283 202.278 L 122.983 190.673 A 0.25 0.25 0 0 0 122.892 190.331 L 111.287 183.631 A 0.25 0.25 0 0 0 110.945 183.723 L 104.245 195.328 A 0.25 0.25 0 0 0 104.337 195.669 Z M 187.472 173.23 L 200.707 171.134 A 0.25 0.25 0 0 0 200.915 170.848 L 198.819 157.613 A 0.25 0.25 0 0 0 198.533 157.405 L 185.298 159.502 A 0.25 0.25 0 0 0 185.09 159.788 L 187.186 173.023 A 0.25 0.25 0 0 0 187.472 173.23 Z M 7.209 53.081 L 20.444 50.985 A 0.25 0.25 0 0 0 20.652 50.699 L 18.556 37.463 A 0.25 0.25 0 0 0 18.27 37.256 L 5.035 39.352 A 0.25 0.25 0 0 0 4.827 39.638 L 6.923 52.873 A 0.25 0.25 0 0 0 7.209 53.081 Z M 7.209 167.987 L 20.444 165.891 A 0.25 0.25 0 0 0 20.652 165.605 L 18.556 152.369 A 0.25 0.25 0 0 0 18.27 152.162 L 5.035 154.258 A 0.25 0.25 0 0 0 4.827 154.544 L 6.923 167.779 A 0.25 0.25 0 0 0 7.209 167.987 Z M 26.264 173.23 L 39.499 171.134 A 0.25 0.25 0 0 0 39.707 170.848 L 37.611 157.613 A 0.25 0.25 0 0 0 37.325 157.405 L 24.09 159.502 A 0.25 0.25 0 0 0 23.882 159.788 L 25.978 173.023 A 0.25 0.25 0 0 0 26.264 173.23 Z M 187.472 58.324 L 200.707 56.228 A 0.25 0.25 0 0 0 200.915 55.942 L 198.819 42.707 A 0.25 0.25 0 0 0 198.533 42.499 L 185.298 44.596 A 0.25 0.25 0 0 0 185.09 44.882 L 187.186 58.117 A 0.25 0.25 0 0 0 187.472 58.324 Z M 9.869 69.871 L 23.104 67.775 A 0.25 0.25 0 0 0 23.311 67.489 L 21.215 54.254 A 0.25 0.25 0 0 0 20.929 54.046 L 7.694 56.143 A 0.25 0.25 0 0 0 7.486 56.429 L 9.583 69.664 A 0.25 0.25 0 0 0 9.869 69.871 Z M 9.869 184.777 L 23.104 182.681 A 0.25 0.25 0 0 0 23.311 182.395 L 21.215 169.16 A 0.25 0.25 0 0 0 20.929 168.952 L 7.694 171.049 A 0.25 0.25 0 0 0 7.486 171.335 L 9.583 184.57 A 0.25 0.25 0 0 0 9.869 184.777 Z M 190.131 75.115 L 203.367 73.019 A 0.25 0.25 0 0 0 203.574 72.733 L 201.478 59.498 A 0.25 0.25 0 0 0 201.192 59.29 L 187.957 61.386 A 0.25 0.25 0 0 0 187.749 61.672 L 189.845 74.907 A 0.25 0.25 0 0 0 190.131 75.115 Z M 190.131 190.021 L 203.367 187.925 A 0.25 0.25 0 0 0 203.574 187.639 L 201.478 174.404 A 0.25 0.25 0 0 0 201.192 174.196 L 187.957 176.292 A 0.25 0.25 0 0 0 187.749 176.578 L 189.845 189.813 A 0.25 0.25 0 0 0 190.131 190.021 Z M 28.923 75.115 L 42.159 73.019 A 0.25 0.25 0 0 0 42.366 72.733 L 40.27 59.498 A 0.25 0.25 0 0 0 39.984 59.29 L 26.749 61.386 A 0.25 0.25 0 0 0 26.541 61.672 L 28.637 74.907 A 0.25 0.25 0 0 0 28.923 75.115 Z M 28.923 190.021 L 42.159 187.925 A 0.25 0.25 0 0 0 42.366 187.639 L 40.27 174.404 A 0.25 0.25 0 0 0 39.984 174.196 L 26.749 176.292 A 0.25 0.25 0 0 0 26.541 176.578 L 28.637 189.813 A 0.25 0.25 0 0 0 28.923 190.021 Z M 26.264 58.324 L 39.499 56.228 A 0.25 0.25 0 0 0 39.707 55.942 L 37.611 42.707 A 0.25 0.25 0 0 0 37.325 42.499 L 24.09 44.596 A 0.25 0.25 0 0 0 23.882 44.882 L 25.978 58.117 A 0.25 0.25 0 0 0 26.264 58.324 Z M 23.605 41.534 L 36.84 39.438 A 0.25 0.25 0 0 0 37.048 39.152 L 34.951 25.917 A 0.25 0.25 0 0 0 34.665 25.709 L 21.43 27.805 A 0.25 0.25 0 0 0 21.222 28.091 L 23.319 41.326 A 0.25 0.25 0 0 0 23.605 41.534 Z M 23.605 156.44 L 36.84 154.344 A 0.25 0.25 0 0 0 37.048 154.058 L 34.951 140.823 A 0.25 0.25 0 0 0 34.665 140.615 L 21.43 142.711 A 0.25 0.25 0 0 0 21.222 142.997 L 23.319 156.232 A 0.25 0.25 0 0 0 23.605 156.44 Z M 184.813 41.534 L 198.048 39.438 A 0.25 0.25 0 0 0 198.256 39.152 L 196.159 25.917 A 0.25 0.25 0 0 0 195.873 25.709 L 182.638 27.805 A 0.25 0.25 0 0 0 182.43 28.091 L 184.527 41.326 A 0.25 0.25 0 0 0 184.813 41.534 Z M 184.813 156.44 L 198.048 154.344 A 0.25 0.25 0 0 0 198.256 154.058 L 196.159 140.823 A 0.25 0.25 0 0 0 195.873 140.615 L 182.638 142.711 A 0.25 0.25 0 0 0 182.43 142.997 L 184.527 156.232 A 0.25 0.25 0 0 0 184.813 156.44 Z M 248.159 75.434 L 261.102 78.902 A 0.25 0.25 0 0 0 261.409 78.725 L 264.877 65.782 A 0.25 0.25 0 0 0 264.7 65.476 L 251.757 62.007 A 0.25 0.25 0 0 0 251.45 62.184 L 247.982 75.128 A 0.25 0.25 0 0 0 248.159 75.434 Z M 248.159 190.34 L 261.102 193.808 A 0.25 0.25 0 0 0 261.409 193.631 L 264.877 180.688 A 0.25 0.25 0 0 0 264.7 180.382 L 251.757 176.913 A 0.25 0.25 0 0 0 251.45 177.09 L 247.982 190.034 A 0.25 0.25 0 0 0 248.159 190.34 Z M 86.951 75.434 L 99.894 78.902 A 0.25 0.25 0 0 0 100.201 78.725 L 103.669 65.782 A 0.25 0.25 0 0 0 103.492 65.476 L 90.549 62.007 A 0.25 0.25 0 0 0 90.242 62.184 L 86.774 75.128 A 0.25 0.25 0 0 0 86.951 75.434 Z M 86.951 190.34 L 99.894 193.808 A 0.25 0.25 0 0 0 100.201 193.631 L 103.669 180.688 A 0.25 0.25 0 0 0 103.492 180.382 L 90.549 176.913 A 0.25 0.25 0 0 0 90.242 177.09 L 86.774 190.034 A 0.25 0.25 0 0 0 86.951 190.34 Z M 59.198 19.386 m -1.1 0 a 1.1 1.1 0 0 1 2.2 0 a 1.1 1.1 0 0 1 -2.2 0 z M 95.648 25.336 m -1.1 0 a 1.1 1.1 0 0 1 2.2 0 a 1.1 1.1 0 0 1 -2.2 0 z M 122.024 83.527 m -1.1 0 a 1.1 1.1 0 0 1 2.2 0 a 1.1 1.1 0 0 1 -2.2 0 z M 85.478 68.336 m -1.1 0 a 1.1 1.1 0 0 1 2.2 0 a 1.1 1.1 0 0 1 -2.2 0 z M 22.613 52.21 m -1.1 0 a 1.1 1.1 0 0 1 2.2 0 a 1.1 1.1 0 0 1 -2.2 0 z M 59.198 134.292 m -1.1 0 a 1.1 1.1 0 0 1 2.2 0 a 1.1 1.1 0 0 1 -2.2 0 z M 95.648 140.242 m -1.1 0 a 1.1 1.1 0 0 1 2.2 0 a 1.1 1.1 0 0 1 -2.2 0 z M 122.024 198.433 m -1.1 0 a 1.1 1.1 0 0 1 2.2 0 a 1.1 1.1 0 0 1 -2.2 0 z M 85.478 183.242 m -1.1 0 a 1.1 1.1 0 0 1 2.2 0 a 1.1 1.1 0 0 1 -2.2 0 z M 22.613 167.116 m -1.1 0 a 1.1 1.1 0 0 1 2.2 0 a 1.1 1.1 0 0 1 -2.2 0 z M 220.406 19.386 m -1.1 0 a 1.1 1.1 0 0 1 2.2 0 a 1.1 1.1 0 0 1 -2.2 0 z M 256.856 25.336 m -1.1 0 a 1.1 1.1 0 0 1 2.2 0 a 1.1 1.1 0 0 1 -2.2 0 z M 283.232 83.527 m -1.1 0 a 1.1 1.1 0 0 1 2.2 0 a 1.1 1.1 0 0 1 -2.2 0 z M 246.686 68.336 m -1.1 0 a 1.1 1.1 0 0 1 2.2 0 a 1.1 1.1 0 0 1 -2.2 0 z M 201.155 40.515 m -1.1 0 a 1.1 1.1 0 0 1 2.2 0 a 1.1 1.1 0 0 1 -2.2 0 z M 220.406 134.292 m -1.1 0 a 1.1 1.1 0 0 1 2.2 0 a 1.1 1.1 0 0 1 -2.2 0 z M 256.856 140.242 m -1.1 0 a 1.1 1.1 0 0 1 2.2 0 a 1.1 1.1 0 0 1 -2.2 0 z M 283.232 198.433 m -1.1 0 a 1.1 1.1 0 0 1 2.2 0 a 1.1 1.1 0 0 1 -2.2 0 z M 246.686 183.242 m -1.1 0 a 1.1 1.1 0 0 1 2.2 0 a 1.1 1.1 0 0 1 -2.2 0 z M 201.155 155.421 m -1.1 0 a 1.1 1.1 0 0 1 2.2 0 a 1.1 1.1 0 0 1 -2.2 0 z M 118.018 66.166 m -1 0 a 1 1 0 0 1 2 0 a 1 1 0 0 1 -2 0 z M 131.618 74.02 m -1 0 a 1 1 0 0 1 2 0 a 1 1 0 0 1 -2 0 z M 118.018 181.072 m -1 0 a 1 1 0 0 1 2 0 a 1 1 0 0 1 -2 0 z M 131.618 188.926 m -1 0 a 1 1 0 0 1 2 0 a 1 1 0 0 1 -2 0 z M 279.226 66.166 m -1 0 a 1 1 0 0 1 2 0 a 1 1 0 0 1 -2 0 z M 292.826 74.02 m -1 0 a 1 1 0 0 1 2 0 a 1 1 0 0 1 -2 0 z M 279.226 181.072 m -1 0 a 1 1 0 0 1 2 0 a 1 1 0 0 1 -2 0 z M 292.826 188.926 m -1 0 a 1 1 0 0 1 2 0 a 1 1 0 0 1 -2 0 z" vector-effect="non-scaling-stroke"/></g></svg>