<svg width="304.896mm" height="219.642mm" viewBox="0 0 304.896 219.642" xmlns="http://www.w3.org/2000/svg"><g id="svgGroup" stroke-linecap="round" fill-rule="evenodd" font-size="9pt" stroke="#e2725b" stroke-width="0.25mm" fill="none" style="stroke:#e2725b;stroke-width:0.25mm;fill:none"><path d="M 296.803 79.359 L 296.803 22.2 A 2.95 2.95 0 0 0 293.853 19.25 L 280.304 19.25 A 2.95 2.95 0 0 1 277.354 16.3 L 277.354 8.9 A 2.95 2.95 0 0 0 274.404 5.95 L 244.304 5.95 A 2.95 2.95 0 0 1 241.354 3 L 241.354 2.95 A 2.95 2.95 0 0 0 238.404 0 L 221.553 0 A 2.95 2.95 0 0 0 218.603 2.95 L 218.603 4.326 A 2.95 2.95 0 0 1 215.859 7.268 L 200.433 8.347 A 2.95 2.95 0 0 0 197.696 11.496 L 198.192 18.594 A 2.95 2.95 0 0 1 195.711 21.714 L 180.092 24.188 A 2.95 2.95 0 0 0 177.64 27.563 L 178.1 30.467 A 2.95 2.95 0 0 1 175.648 33.842 L 163.697 35.735 L 163.459 35.772 A 2.95 2.95 0 0 0 160.97 38.686 L 160.97 71.947 A 2.95 2.95 0 0 0 164.382 74.86 L 176.451 72.949 L 181.71 72.116 A 2.95 2.95 0 0 1 185.085 74.568 L 185.438 76.8 A 2.95 2.95 0 0 0 188.813 79.252 L 205.457 76.616 A 2.95 2.95 0 0 0 207.909 73.241 L 206.92 66.996 A 2.95 2.95 0 0 1 209.628 63.591 L 221.927 62.731 A 2.95 2.95 0 0 1 225.083 65.674 L 225.083 75.751 A 2.95 2.95 0 0 0 228.033 78.701 L 236.423 78.701 A 65.32 65.32 0 0 1 252.4 80.685 L 254.256 81.182 A 65.32 65.32 0 0 1 268.248 86.978 L 269.912 87.939 A 65.32 65.32 0 0 1 282.612 97.833 L 288.651 103.872 A 2.95 2.95 0 0 0 292.823 103.872 L 304.032 92.663 A 2.95 2.95 0 0 0 304.034 88.492 L 298.032 82.48 A 2.95 2.95 0 0 1 297.826 82.25 A 4.6 4.6 0 0 1 296.803 79.359 Z M 135.595 79.359 L 135.595 22.2 A 2.95 2.95 0 0 0 132.645 19.25 L 119.096 19.25 A 2.95 2.95 0 0 1 116.146 16.3 L 116.146 8.9 A 2.95 2.95 0 0 0 113.196 5.95 L 83.096 5.95 A 2.95 2.95 0 0 1 80.146 3 L 80.146 2.95 A 2.95 2.95 0 0 0 77.196 0 L 60.345 0 A 2.95 2.95 0 0 0 57.395 2.95 L 57.395 4.326 A 2.95 2.95 0 0 1 54.651 7.268 L 39.225 8.347 A 2.95 2.95 0 0 0 36.488 11.496 L 36.984 18.594 A 2.95 2.95 0 0 1 34.503 21.714 L 18.884 24.188 A 2.95 2.95 0 0 0 16.432 27.563 L 16.892 30.467 A 2.95 2.95 0 0 1 14.44 33.842 L 2.489 35.735 A 2.95 2.95 0 0 0 0.036 39.11 L 5.175 71.556 A 2.95 2.95 0 0 0 8.551 74.009 L 20.502 72.116 A 2.95 2.95 0 0 1 23.877 74.568 L 24.23 76.8 A 2.95 2.95 0 0 0 27.605 79.252 L 44.249 76.616 A 2.95 2.95 0 0 0 46.701 73.241 L 45.712 66.996 A 2.95 2.95 0 0 1 48.42 63.591 L 60.719 62.731 A 2.95 2.95 0 0 1 63.875 65.674 L 63.875 75.751 A 2.95 2.95 0 0 0 66.825 78.701 L 75.215 78.701 A 65.32 65.32 0 0 1 91.192 80.685 L 93.048 81.182 A 65.32 65.32 0 0 1 107.04 86.978 L 108.704 87.939 A 65.32 65.32 0 0 1 121.404 97.833 L 127.443 103.872 A 2.95 2.95 0 0 0 131.615 103.872 L 142.824 92.663 A 2.95 2.95 0 0 0 142.826 88.492 L 136.824 82.48 A 2.95 2.95 0 0 1 136.618 82.25 A 4.6 4.6 0 0 1 135.595 79.359 Z M 295.603 79.359 L 295.603 23.501 A 3.05 3.05 0 0 0 292.553 20.451 L 279.004 20.451 A 2.85 2.85 0 0 1 276.154 17.601 L 276.154 10.2 A 3.05 3.05 0 0 0 273.104 7.15 L 243.004 7.15 A 2.85 2.85 0 0 1 240.154 4.3 L 240.154 4.25 A 3.05 3.05 0 0 0 237.104 1.2 L 222.853 1.2 A 3.05 3.05 0 0 0 219.803 4.25 L 219.803 5.538 A 2.85 2.85 0 0 1 217.152 8.381 L 201.813 9.454 A 3.05 3.05 0 0 0 198.984 12.709 L 199.472 19.699 A 2.85 2.85 0 0 1 197.075 22.713 L 181.564 25.17 A 3.05 3.05 0 0 0 179.029 28.659 L 179.488 31.563 A 2.85 2.85 0 0 1 177.119 34.824 L 165.168 36.717 A 3.05 3.05 0 0 0 162.633 40.206 L 167.365 70.085 A 3.05 3.05 0 0 0 170.855 72.62 L 182.806 70.727 A 2.85 2.85 0 0 1 186.067 73.096 L 186.42 75.328 A 3.05 3.05 0 0 0 189.91 77.864 L 203.985 75.634 A 3.05 3.05 0 0 0 206.521 72.145 L 205.513 65.782 A 2.85 2.85 0 0 1 208.129 62.493 L 223.234 61.437 A 2.85 2.85 0 0 1 226.283 64.28 L 226.283 74.451 A 3.05 3.05 0 0 0 229.333 77.501 L 236.423 77.501 A 66.52 66.52 0 0 1 252.702 79.524 L 254.575 80.025 A 66.52 66.52 0 0 1 268.84 85.934 L 270.519 86.904 A 66.52 66.52 0 0 1 283.46 96.984 L 288.58 102.104 A 3.05 3.05 0 0 0 292.893 102.104 L 302.265 92.732 A 3.05 3.05 0 0 0 302.267 88.421 L 297.142 83.286 A 2.85 2.85 0 0 1 296.99 83.122 A 5.8 5.8 0 0 1 295.603 79.359 Z M 134.395 79.359 L 134.395 23.501 A 3.05 3.05 0 0 0 131.345 20.451 L 117.796 20.451 A 2.85 2.85 0 0 1 114.946 17.601 L 114.946 10.2 A 3.05 3.05 0 0 0 111.896 7.15 L 81.796 7.15 A 2.85 2.85 0 0 1 78.946 4.3 L 78.946 4.25 A 3.05 3.05 0 0 0 75.896 1.2 L 61.645 1.2 A 3.05 3.05 0 0 0 58.595 4.25 L 58.595 5.538 A 2.85 2.85 0 0 1 55.944 8.381 L 40.605 9.454 A 3.05 3.05 0 0 0 37.776 12.709 L 38.264 19.699 A 2.85 2.85 0 0 1 35.867 22.713 L 20.356 25.17 A 3.05 3.05 0 0 0 17.821 28.659 L 18.28 31.563 A 2.85 2.85 0 0 1 15.911 34.824 L 3.96 36.717 A 3.05 3.05 0 0 0 1.425 40.206 L 6.157 70.085 A 3.05 3.05 0 0 0 9.647 72.62 L 21.598 70.727 A 2.85 2.85 0 0 1 24.859 73.096 L 25.212 75.328 A 3.05 3.05 0 0 0 28.702 77.864 L 42.777 75.634 A 3.05 3.05 0 0 0 45.313 72.145 L 44.305 65.782 A 2.85 2.85 0 0 1 46.921 62.493 L 62.026 61.437 A 2.85 2.85 0 0 1 65.075 64.28 L 65.075 74.451 A 3.05 3.05 0 0 0 68.125 77.501 L 75.215 77.501 A 66.52 66.52 0 0 1 91.494 79.524 L 93.367 80.025 A 66.52 66.52 0 0 1 107.632 85.934 L 109.311 86.904 A 66.52 66.52 0 0 1 122.252 96.984 L 127.372 102.104 A 3.05 3.05 0 0 0 131.685 102.104 L 141.057 92.732 A 3.05 3.05 0 0 0 141.059 88.421 L 135.934 83.286 A 2.85 2.85 0 0 1 135.782 83.122 A 5.8 5.8 0 0 1 134.395 79.359 Z M 9.621 72.531 L 21.572 70.638 A 2.95 2.95 0 0 1 24.947 73.091 L 25.301 75.323 A 2.95 2.95 0 0 0 28.676 77.775 L 42.752 75.546 A 2.95 2.95 0 0 0 45.204 72.17 L 44.196 65.808 A 2.95 2.95 0 0 1 46.904 62.403 L 62.009 61.347 A 2.95 2.95 0 0 1 65.165 64.29 L 65.165 74.461 A 2.95 2.95 0 0 0 68.115 77.411 L 75.205 77.411 A 66.62 66.62 0 0 1 91.509 79.437 L 93.383 79.939 A 66.62 66.62 0 0 1 107.672 85.858 L 109.352 86.828 A 66.62 66.62 0 0 1 122.313 96.924 L 127.433 102.043 A 2.95 2.95 0 0 0 131.605 102.043 L 140.976 92.672 A 2.95 2.95 0 0 0 140.978 88.502 L 135.853 83.367 A 2.95 2.95 0 0 1 135.696 83.197 A 5.9 5.9 0 0 1 134.344 80.198 A 2.95 2.95 0 0 0 132.952 78.34 L 116.311 68.732 A 2.95 2.95 0 0 1 114.836 66.177 L 114.836 10.21 A 2.95 2.95 0 0 0 111.886 7.26 L 81.786 7.26 A 2.95 2.95 0 0 1 78.836 4.31 L 78.836 4.26 A 2.95 2.95 0 0 0 75.886 1.31 L 61.635 1.31 A 2.95 2.95 0 0 0 58.685 4.26 L 58.685 5.548 A 2.95 2.95 0 0 1 55.941 8.491 L 40.602 9.563 A 2.95 2.95 0 0 0 37.865 12.712 L 38.354 19.702 A 2.95 2.95 0 0 1 35.873 22.822 L 20.362 25.278 A 2.95 2.95 0 0 0 17.909 28.653 L 18.369 31.557 A 2.95 2.95 0 0 1 15.917 34.932 L 3.966 36.825 A 2.95 2.95 0 0 0 1.514 40.2 L 6.246 70.079 A 2.95 2.95 0 0 0 9.621 72.531 Z M 170.829 72.531 L 182.78 70.638 A 2.95 2.95 0 0 1 186.155 73.091 L 186.509 75.323 A 2.95 2.95 0 0 0 189.884 77.775 L 203.96 75.546 A 2.95 2.95 0 0 0 206.412 72.17 L 205.404 65.808 A 2.95 2.95 0 0 1 208.112 62.403 L 223.217 61.347 A 2.95 2.95 0 0 1 226.373 64.29 L 226.373 74.461 A 2.95 2.95 0 0 0 229.323 77.411 L 236.413 77.411 A 66.62 66.62 0 0 1 252.717 79.437 L 254.591 79.939 A 66.62 66.62 0 0 1 268.88 85.858 L 270.56 86.828 A 66.62 66.62 0 0 1 283.521 96.924 L 288.641 102.043 A 2.95 2.95 0 0 0 292.813 102.043 L 302.184 92.672 A 2.95 2.95 0 0 0 302.186 88.502 L 297.061 83.367 A 2.95 2.95 0 0 1 296.904 83.197 A 5.9 5.9 0 0 1 295.552 80.198 A 2.95 2.95 0 0 0 294.16 78.34 L 277.519 68.732 A 2.95 2.95 0 0 1 276.044 66.177 L 276.044 10.21 A 2.95 2.95 0 0 0 273.094 7.26 L 242.994 7.26 A 2.95 2.95 0 0 1 240.044 4.31 L 240.044 4.26 A 2.95 2.95 0 0 0 237.094 1.31 L 222.843 1.31 A 2.95 2.95 0 0 0 219.893 4.26 L 219.893 5.548 A 2.95 2.95 0 0 1 217.149 8.491 L 201.81 9.563 A 2.95 2.95 0 0 0 199.073 12.712 L 199.562 19.702 A 2.95 2.95 0 0 1 197.081 22.822 L 181.57 25.278 A 2.95 2.95 0 0 0 179.117 28.653 L 179.577 31.557 A 2.95 2.95 0 0 1 177.125 34.932 L 165.174 36.825 A 2.95 2.95 0 0 0 162.722 40.2 L 167.454 70.079 A 2.95 2.95 0 0 0 170.829 72.531 Z M 296.803 194.265 L 296.803 137.106 A 2.95 2.95 0 0 0 293.853 134.156 L 280.304 134.156 A 2.95 2.95 0 0 1 277.354 131.206 L 277.354 123.806 A 2.95 2.95 0 0 0 274.404 120.856 L 244.304 120.856 A 2.95 2.95 0 0 1 241.354 117.906 L 241.354 117.856 A 2.95 2.95 0 0 0 238.404 114.906 L 221.553 114.906 A 2.95 2.95 0 0 0 218.603 117.856 L 218.603 119.232 A 2.95 2.95 0 0 1 215.859 122.174 L 200.433 123.253 A 2.95 2.95 0 0 0 197.696 126.402 L 198.192 133.5 A 2.95 2.95 0 0 1 195.711 136.62 L 180.092 139.094 L 179.854 139.131 A 2.95 2.95 0 0 0 177.366 142.045 L 177.366 192.518 A 2.95 2.95 0 0 0 180.777 195.431 L 195.506 193.098 L 205.457 191.522 A 2.95 2.95 0 0 0 207.909 188.147 L 206.92 181.902 A 2.95 2.95 0 0 1 209.628 178.497 L 221.927 177.637 A 2.95 2.95 0 0 1 225.083 180.58 L 225.083 190.657 A 2.95 2.95 0 0 0 228.033 193.607 L 236.423 193.607 A 65.32 65.32 0 0 1 252.4 195.591 L 254.256 196.088 A 65.32 65.32 0 0 1 268.248 201.884 L 269.912 202.845 A 65.32 65.32 0 0 1 282.612 212.739 L 288.651 218.778 A 2.95 2.95 0 0 0 292.823 218.778 L 304.032 207.569 A 2.95 2.95 0 0 0 304.034 203.398 L 298.032 197.386 A 2.95 2.95 0 0 1 297.826 197.156 A 4.6 4.6 0 0 1 296.803 194.265 Z M 135.595 194.265 L 135.595 137.106 A 2.95 2.95 0 0 0 132.645 134.156 L 119.096 134.156 A 2.95 2.95 0 0 1 116.146 131.206 L 116.146 123.806 A 2.95 2.95 0 0 0 113.196 120.856 L 83.096 120.856 A 2.95 2.95 0 0 1 80.146 117.906 L 80.146 117.856 A 2.95 2.95 0 0 0 77.196 114.906 L 60.345 114.906 A 2.95 2.95 0 0 0 57.395 117.856 L 57.395 119.232 A 2.95 2.95 0 0 1 54.651 122.174 L 39.225 123.253 A 2.95 2.95 0 0 0 36.488 126.402 L 36.984 133.5 A 2.95 2.95 0 0 1 34.503 136.62 L 18.884 139.094 A 2.95 2.95 0 0 0 16.432 142.469 L 24.23 191.706 A 2.95 2.95 0 0 0 27.605 194.158 L 44.249 191.522 A 2.95 2.95 0 0 0 46.701 188.147 L 45.712 181.902 A 2.95 2.95 0 0 1 48.42 178.497 L 60.719 177.637 A 2.95 2.95 0 0 1 63.875 180.58 L 63.875 190.657 A 2.95 2.95 0 0 0 66.825 193.607 L 75.215 193.607 A 65.32 65.32 0 0 1 91.192 195.591 L 93.048 196.088 A 65.32 65.32 0 0 1 107.04 201.884 L 108.704 202.845 A 65.32 65.32 0 0 1 121.404 212.739 L 127.443 218.778 A 2.95 2.95 0 0 0 131.615 218.778 L 142.824 207.569 A 2.95 2.95 0 0 0 142.826 203.398 L 136.824 197.386 A 2.95 2.95 0 0 1 136.618 197.156 A 4.6 4.6 0 0 1 135.595 194.265 Z M 134.395 194.265 L 134.395 138.407 A 3.05 3.05 0 0 0 131.345 135.357 L 117.796 135.357 A 2.85 2.85 0 0 1 114.946 132.507 L 114.946 125.106 A 3.05 3.05 0 0 0 111.896 122.056 L 81.796 122.056 A 2.85 2.85 0 0 1 78.946 119.206 L 78.946 119.156 A 3.05 3.05 0 0 0 75.896 116.106 L 61.645 116.106 A 3.05 3.05 0 0 0 58.595 119.156 L 58.595 120.444 A 2.85 2.85 0 0 1 55.944 123.287 L 40.605 124.36 A 3.05 3.05 0 0 0 37.776 127.615 L 38.264 134.605 A 2.85 2.85 0 0 1 35.867 137.619 L 20.356 140.076 A 3.05 3.05 0 0 0 17.821 143.565 L 25.212 190.234 A 3.05 3.05 0 0 0 28.702 192.77 L 42.777 190.54 A 3.05 3.05 0 0 0 45.313 187.051 L 44.305 180.688 A 2.85 2.85 0 0 1 46.921 177.399 L 62.026 176.343 A 2.85 2.85 0 0 1 65.075 179.186 L 65.075 189.357 A 3.05 3.05 0 0 0 68.125 192.407 L 75.215 192.407 A 66.52 66.52 0 0 1 91.494 194.43 L 93.367 194.931 A 66.52 66.52 0 0 1 107.632 200.84 L 109.311 201.81 A 66.52 66.52 0 0 1 122.252 211.89 L 127.372 217.01 A 3.05 3.05 0 0 0 131.685 217.01 L 141.057 207.638 A 3.05 3.05 0 0 0 141.059 203.327 L 135.934 198.192 A 2.85 2.85 0 0 1 135.782 198.028 A 5.8 5.8 0 0 1 134.395 194.265 Z M 295.603 194.265 L 295.603 138.407 A 3.05 3.05 0 0 0 292.553 135.357 L 279.004 135.357 A 2.85 2.85 0 0 1 276.154 132.507 L 276.154 125.106 A 3.05 3.05 0 0 0 273.104 122.056 L 243.004 122.056 A 2.85 2.85 0 0 1 240.154 119.206 L 240.154 119.156 A 3.05 3.05 0 0 0 237.104 116.106 L 222.853 116.106 A 3.05 3.05 0 0 0 219.803 119.156 L 219.803 120.444 A 2.85 2.85 0 0 1 217.152 123.287 L 201.813 124.36 A 3.05 3.05 0 0 0 198.984 127.615 L 199.472 134.605 A 2.85 2.85 0 0 1 197.075 137.619 L 181.564 140.076 A 3.05 3.05 0 0 0 179.029 143.565 L 186.42 190.234 A 3.05 3.05 0 0 0 189.91 192.77 L 203.985 190.54 A 3.05 3.05 0 0 0 206.521 187.051 L 205.513 180.688 A 2.85 2.85 0 0 1 208.129 177.399 L 223.234 176.343 A 2.85 2.85 0 0 1 226.283 179.186 L 226.283 189.357 A 3.05 3.05 0 0 0 229.333 192.407 L 236.423 192.407 A 66.52 66.52 0 0 1 252.702 194.43 L 254.575 194.931 A 66.52 66.52 0 0 1 268.84 200.84 L 270.519 201.81 A 66.52 66.52 0 0 1 283.46 211.89 L 288.58 217.01 A 3.05 3.05 0 0 0 292.893 217.01 L 302.265 207.638 A 3.05 3.05 0 0 0 302.267 203.327 L 297.142 198.192 A 2.85 2.85 0 0 1 296.99 198.028 A 5.8 5.8 0 0 1 295.603 194.265 Z M 28.676 192.681 L 42.752 190.452 A 2.95 2.95 0 0 0 45.204 187.076 L 44.196 180.714 A 2.95 2.95 0 0 1 46.904 177.309 L 62.009 176.253 A 2.95 2.95 0 0 1 65.165 179.196 L 65.165 189.367 A 2.95 2.95 0 0 0 68.115 192.317 L 75.205 192.317 A 66.62 66.62 0 0 1 91.509 194.343 L 93.383 194.845 A 66.62 66.62 0 0 1 107.672 200.764 L 109.352 201.734 A 66.62 66.62 0 0 1 122.313 211.83 L 127.433 216.949 A 2.95 2.95 0 0 0 131.605 216.949 L 140.976 207.578 A 2.95 2.95 0 0 0 140.978 203.408 L 135.853 198.273 A 2.95 2.95 0 0 1 135.696 198.103 A 5.9 5.9 0 0 1 134.344 195.104 A 2.95 2.95 0 0 0 132.952 193.246 L 116.311 183.638 A 2.95 2.95 0 0 1 114.836 181.083 L 114.836 125.116 A 2.95 2.95 0 0 0 111.886 122.166 L 81.786 122.166 A 2.95 2.95 0 0 1 78.836 119.216 L 78.836 119.166 A 2.95 2.95 0 0 0 75.886 116.216 L 61.635 116.216 A 2.95 2.95 0 0 0 58.685 119.166 L 58.685 120.454 A 2.95 2.95 0 0 1 55.941 123.397 L 40.602 124.469 A 2.95 2.95 0 0 0 37.865 127.618 L 38.354 134.608 A 2.95 2.95 0 0 1 35.873 137.728 L 20.362 140.184 A 2.95 2.95 0 0 0 17.909 143.559 L 25.301 190.229 A 2.95 2.95 0 0 0 28.676 192.681 Z M 189.884 192.681 L 203.96 190.452 A 2.95 2.95 0 0 0 206.412 187.076 L 205.404 180.714 A 2.95 2.95 0 0 1 208.112 177.309 L 223.217 176.253 A 2.95 2.95 0 0 1 226.373 179.196 L 226.373 189.367 A 2.95 2.95 0 0 0 229.323 192.317 L 236.413 192.317 A 66.62 66.62 0 0 1 252.717 194.343 L 254.591 194.845 A 66.62 66.62 0 0 1 268.88 200.764 L 270.56 201.734 A 66.62 66.62 0 0 1 283.521 211.83 L 288.641 216.949 A 2.95 2.95 0 0 0 292.813 216.949 L 302.184 207.578 A 2.95 2.95 0 0 0 302.186 203.408 L 297.061 198.273 A 2.95 2.95 0 0 1 296.904 198.103 A 5.9 5.9 0 0 1 295.552 195.104 A 2.95 2.95 0 0 0 294.16 193.246 L 277.519 183.638 A 2.95 2.95 0 0 1 276.044 181.083 L 276.044 125.116 A 2.95 2.95 0 0 0 273.094 122.166 L 242.994 122.166 A 2.95 2.95 0 0 1 240.044 119.216 L 240.044 119.166 A 2.95 2.95 0 0 0 237.094 116.216 L 222.843 116.216 A 2.95 2.95 0 0 0 219.893 119.166 L 219.893 120.454 A 2.95 2.95 0 0 1 217.149 123.397 L 201.81 124.469 A 2.95 2.95 0 0 0 199.073 127.618 L 199.562 134.608 A 2.95 2.95 0 0 1 197.081 137.728 L 181.57 140.184 A 2.95 2.95 0 0 0 179.117 143.559 L 186.509 190.229 A 2.95 2.95 0 0 0 189.884 192.681 Z M 134.305 73.98 L 134.305 23.491 A 2.95 2.95 0 0 0 131.355 20.541 L 117.806 20.541 A 2.95 2.95 0 0 0 114.856 23.491 L 114.856 66.157 A 2.95 2.95 0 0 0 116.331 68.712 L 118.184 69.782 L 129.88 76.534 A 2.95 2.95 0 0 0 134.305 73.98 Z M 295.513 73.98 L 295.513 23.491 A 2.95 2.95 0 0 0 292.563 20.541 L 279.014 20.541 A 2.95 2.95 0 0 0 276.064 23.491 L 276.064 66.157 A 2.95 2.95 0 0 0 277.539 68.712 L 279.392 69.782 L 291.088 76.534 A 2.95 2.95 0 0 0 295.513 73.98 Z M 134.305 188.886 L 134.305 138.397 A 2.95 2.95 0 0 0 131.355 135.447 L 117.806 135.447 A 2.95 2.95 0 0 0 114.856 138.397 L 114.856 181.063 A 2.95 2.95 0 0 0 116.331 183.618 L 118.184 184.688 L 129.88 191.44 A 2.95 2.95 0 0 0 134.305 188.886 Z M 295.513 188.886 L 295.513 138.397 A 2.95 2.95 0 0 0 292.563 135.447 L 279.014 135.447 A 2.95 2.95 0 0 0 276.064 138.397 L 276.064 181.063 A 2.95 2.95 0 0 0 277.539 183.618 L 279.392 184.688 L 291.088 191.44 A 2.95 2.95 0 0 0 295.513 188.886 Z M 119.32 169.722 L 129.84 169.722 A 0.39 0.39 0 0 0 130.23 169.332 L 130.23 144.312 A 0.39 0.39 0 0 0 129.84 143.922 L 119.32 143.922 A 0.39 0.39 0 0 0 118.93 144.312 L 118.93 169.332 A 0.39 0.39 0 0 0 119.32 169.722 Z M 280.528 169.722 L 291.048 169.722 A 0.39 0.39 0 0 0 291.438 169.332 L 291.438 144.312 A 0.39 0.39 0 0 0 291.048 143.922 L 280.528 143.922 A 0.39 0.39 0 0 0 280.138 144.312 L 280.138 169.332 A 0.39 0.39 0 0 0 280.528 169.722 Z M 119.32 54.816 L 129.84 54.816 A 0.39 0.39 0 0 0 130.23 54.426 L 130.23 29.406 A 0.39 0.39 0 0 0 129.84 29.016 L 119.32 29.016 A 0.39 0.39 0 0 0 118.93 29.406 L 118.93 54.426 A 0.39 0.39 0 0 0 119.32 54.816 Z M 280.528 54.816 L 291.048 54.816 A 0.39 0.39 0 0 0 291.438 54.426 L 291.438 29.406 A 0.39 0.39 0 0 0 291.048 29.016 L 280.528 29.016 A 0.39 0.39 0 0 0 280.138 29.406 L 280.138 54.426 A 0.39 0.39 0 0 0 280.528 54.816 Z M 68.54 74.786 L 72.015 74.786 L 72.015 75.336 A 0.325 0.325 0 0 0 72.34 75.661 L 78.14 75.661 A 0.325 0.325 0 0 0 78.465 75.336 L 78.465 74.786 L 81.94 74.786 A 0.25 0.25 0 0 0 82.19 74.536 L 82.19 61.136 A 0.25 0.25 0 0 0 81.94 60.886 L 68.54 60.886 A 0.25 0.25 0 0 0 68.29 61.136 L 68.29 74.536 A 0.25 0.25 0 0 0 68.54 74.786 Z M 229.748 74.786 L 233.223 74.786 L 233.223 75.336 A 0.325 0.325 0 0 0 233.548 75.661 L 239.348 75.661 A 0.325 0.325 0 0 0 239.673 75.336 L 239.673 74.786 L 243.148 74.786 A 0.25 0.25 0 0 0 243.398 74.536 L 243.398 61.136 A 0.25 0.25 0 0 0 243.148 60.886 L 229.748 60.886 A 0.25 0.25 0 0 0 229.498 61.136 L 229.498 74.536 A 0.25 0.25 0 0 0 229.748 74.786 Z M 68.54 189.692 L 72.015 189.692 L 72.015 190.242 A 0.325 0.325 0 0 0 72.34 190.567 L 78.14 190.567 A 0.325 0.325 0 0 0 78.465 190.242 L 78.465 189.692 L 81.94 189.692 A 0.25 0.25 0 0 0 82.19 189.442 L 82.19 176.042 A 0.25 0.25 0 0 0 81.94 175.792 L 68.54 175.792 A 0.25 0.25 0 0 0 68.29 176.042 L 68.29 189.442 A 0.25 0.25 0 0 0 68.54 189.692 Z M 229.748 189.692 L 233.223 189.692 L 233.223 190.242 A 0.325 0.325 0 0 0 233.548 190.567 L 239.348 190.567 A 0.325 0.325 0 0 0 239.673 190.242 L 239.673 189.692 L 243.148 189.692 A 0.25 0.25 0 0 0 243.398 189.442 L 243.398 176.042 A 0.25 0.25 0 0 0 243.148 175.792 L 229.748 175.792 A 0.25 0.25 0 0 0 229.498 176.042 L 229.498 189.442 A 0.25 0.25 0 0 0 229.748 189.692 Z M 119.513 90.411 L 128.988 99.886 A 0.25 0.25 0 0 0 129.342 99.886 L 138.817 90.411 A 0.25 0.25 0 0 0 138.817 90.057 L 129.342 80.582 A 0.25 0.25 0 0 0 128.988 80.582 L 119.513 90.057 A 0.25 0.25 0 0 0 119.513 90.411 Z M 280.721 90.411 L 290.196 99.886 A 0.25 0.25 0 0 0 290.55 99.886 L 300.025 90.411 A 0.25 0.25 0 0 0 300.025 90.057 L 290.55 80.582 A 0.25 0.25 0 0 0 290.196 80.582 L 280.721 90.057 A 0.25 0.25 0 0 0 280.721 90.411 Z M 119.513 205.317 L 128.988 214.792 A 0.25 0.25 0 0 0 129.342 214.792 L 138.817 205.317 A 0.25 0.25 0 0 0 138.817 204.963 L 129.342 195.488 A 0.25 0.25 0 0 0 128.988 195.488 L 119.513 204.963 A 0.25 0.25 0 0 0 119.513 205.317 Z M 280.721 205.317 L 290.196 214.792 A 0.25 0.25 0 0 0 290.55 214.792 L 300.025 205.317 A 0.25 0.25 0 0 0 300.025 204.963 L 290.55 195.488 A 0.25 0.25 0 0 0 290.196 195.488 L 280.721 204.963 A 0.25 0.25 0 0 0 280.721 205.317 Z M 203.388 26.019 L 216.755 25.084 A 0.25 0.25 0 0 0 216.987 24.817 L 216.052 11.45 A 0.25 0.25 0 0 0 215.785 11.218 L 202.418 12.153 A 0.25 0.25 0 0 0 202.186 12.42 L 203.121 25.787 A 0.25 0.25 0 0 0 203.388 26.019 Z M 203.388 140.925 L 216.755 139.99 A 0.25 0.25 0 0 0 216.987 139.723 L 216.052 126.356 A 0.25 0.25 0 0 0 215.785 126.124 L 202.418 127.059 A 0.25 0.25 0 0 0 202.186 127.326 L 203.121 140.693 A 0.25 0.25 0 0 0 203.388 140.925 Z M 42.18 26.019 L 55.547 25.084 A 0.25 0.25 0 0 0 55.779 24.817 L 54.844 11.45 A 0.25 0.25 0 0 0 54.577 11.218 L 41.21 12.153 A 0.25 0.25 0 0 0 40.978 12.42 L 41.913 25.787 A 0.25 0.25 0 0 0 42.18 26.019 Z M 42.18 140.925 L 55.547 139.99 A 0.25 0.25 0 0 0 55.779 139.723 L 54.844 126.356 A 0.25 0.25 0 0 0 54.577 126.124 L 41.21 127.059 A 0.25 0.25 0 0 0 40.978 127.326 L 41.913 140.693 A 0.25 0.25 0 0 0 42.18 140.925 Z M 43.365 157.883 L 56.733 156.949 A 0.25 0.25 0 0 0 56.965 156.682 L 56.03 143.314 A 0.25 0.25 0 0 0 55.763 143.083 L 42.396 144.017 A 0.25 0.25 0 0 0 42.164 144.284 L 43.099 157.651 A 0.25 0.25 0 0 0 43.365 157.883 Z M 204.573 157.883 L 217.941 156.949 A 0.25 0.25 0 0 0 218.173 156.682 L 217.238 143.314 A 0.25 0.25 0 0 0 216.971 143.083 L 203.604 144.017 A 0.25 0.25 0 0 0 203.372 144.284 L 204.307 157.651 A 0.25 0.25 0 0 0 204.573 157.883 Z M 43.365 42.977 L 56.733 42.043 A 0.25 0.25 0 0 0 56.965 41.776 L 56.03 28.408 A 0.25 0.25 0 0 0 55.763 28.177 L 42.396 29.111 A 0.25 0.25 0 0 0 42.164 29.378 L 43.099 42.745 A 0.25 0.25 0 0 0 43.365 42.977 Z M 204.573 42.977 L 217.941 42.043 A 0.25 0.25 0 0 0 218.173 41.776 L 217.238 28.408 A 0.25 0.25 0 0 0 216.971 28.177 L 203.604 29.111 A 0.25 0.25 0 0 0 203.372 29.378 L 204.307 42.745 A 0.25 0.25 0 0 0 204.573 42.977 Z M 205.759 174.842 L 219.127 173.907 A 0.25 0.25 0 0 0 219.359 173.64 L 218.424 160.273 A 0.25 0.25 0 0 0 218.157 160.041 L 204.79 160.976 A 0.25 0.25 0 0 0 204.558 161.243 L 205.492 174.61 A 0.25 0.25 0 0 0 205.759 174.842 Z M 44.551 174.842 L 57.919 173.907 A 0.25 0.25 0 0 0 58.151 173.64 L 57.216 160.273 A 0.25 0.25 0 0 0 56.949 160.041 L 43.582 160.976 A 0.25 0.25 0 0 0 43.35 161.243 L 44.284 174.61 A 0.25 0.25 0 0 0 44.551 174.842 Z M 205.759 59.936 L 219.127 59.001 A 0.25 0.25 0 0 0 219.359 58.734 L 218.424 45.367 A 0.25 0.25 0 0 0 218.157 45.135 L 204.79 46.07 A 0.25 0.25 0 0 0 204.558 46.337 L 205.492 59.704 A 0.25 0.25 0 0 0 205.759 59.936 Z M 44.551 59.936 L 57.919 59.001 A 0.25 0.25 0 0 0 58.151 58.734 L 57.216 45.367 A 0.25 0.25 0 0 0 56.949 45.135 L 43.582 46.07 A 0.25 0.25 0 0 0 43.35 46.337 L 44.284 59.704 A 0.25 0.25 0 0 0 44.551 59.936 Z M 259.268 60.336 L 272.668 60.336 A 0.25 0.25 0 0 0 272.918 60.086 L 272.918 46.686 A 0.25 0.25 0 0 0 272.668 46.436 L 259.268 46.436 A 0.25 0.25 0 0 0 259.018 46.686 L 259.018 60.086 A 0.25 0.25 0 0 0 259.268 60.336 Z M 259.268 43.336 L 272.668 43.336 A 0.25 0.25 0 0 0 272.918 43.086 L 272.918 29.686 A 0.25 0.25 0 0 0 272.668 29.436 L 259.268 29.436 A 0.25 0.25 0 0 0 259.018 29.686 L 259.018 43.086 A 0.25 0.25 0 0 0 259.268 43.336 Z M 259.268 175.242 L 272.668 175.242 A 0.25 0.25 0 0 0 272.918 174.992 L 272.918 161.592 A 0.25 0.25 0 0 0 272.668 161.342 L 259.268 161.342 A 0.25 0.25 0 0 0 259.018 161.592 L 259.018 174.992 A 0.25 0.25 0 0 0 259.268 175.242 Z M 259.268 158.242 L 272.668 158.242 A 0.25 0.25 0 0 0 272.918 157.992 L 272.918 144.592 A 0.25 0.25 0 0 0 272.668 144.342 L 259.268 144.342 A 0.25 0.25 0 0 0 259.018 144.592 L 259.018 157.992 A 0.25 0.25 0 0 0 259.268 158.242 Z M 259.268 141.242 L 272.668 141.242 A 0.25 0.25 0 0 0 272.918 140.992 L 272.918 127.592 A 0.25 0.25 0 0 0 272.668 127.342 L 259.268 127.342 A 0.25 0.25 0 0 0 259.018 127.592 L 259.018 140.992 A 0.25 0.25 0 0 0 259.268 141.242 Z M 259.268 26.336 L 272.668 26.336 A 0.25 0.25 0 0 0 272.918 26.086 L 272.918 12.686 A 0.25 0.25 0 0 0 272.668 12.436 L 259.268 12.436 A 0.25 0.25 0 0 0 259.018 12.686 L 259.018 26.086 A 0.25 0.25 0 0 0 259.268 26.336 Z M 62.06 51.836 L 75.46 51.836 A 0.25 0.25 0 0 0 75.71 51.586 L 75.71 38.186 A 0.25 0.25 0 0 0 75.46 37.936 L 62.06 37.936 A 0.25 0.25 0 0 0 61.81 38.186 L 61.81 51.586 A 0.25 0.25 0 0 0 62.06 51.836 Z M 80.06 57.786 L 93.46 57.786 A 0.25 0.25 0 0 0 93.71 57.536 L 93.71 44.136 A 0.25 0.25 0 0 0 93.46 43.886 L 80.06 43.886 A 0.25 0.25 0 0 0 79.81 44.136 L 79.81 57.536 A 0.25 0.25 0 0 0 80.06 57.786 Z M 98.06 60.336 L 111.46 60.336 A 0.25 0.25 0 0 0 111.71 60.086 L 111.71 46.686 A 0.25 0.25 0 0 0 111.46 46.436 L 98.06 46.436 A 0.25 0.25 0 0 0 97.81 46.686 L 97.81 60.086 A 0.25 0.25 0 0 0 98.06 60.336 Z M 98.06 43.336 L 111.46 43.336 A 0.25 0.25 0 0 0 111.71 43.086 L 111.71 29.686 A 0.25 0.25 0 0 0 111.46 29.436 L 98.06 29.436 A 0.25 0.25 0 0 0 97.81 29.686 L 97.81 43.086 A 0.25 0.25 0 0 0 98.06 43.336 Z M 62.06 166.742 L 75.46 166.742 A 0.25 0.25 0 0 0 75.71 166.492 L 75.71 153.092 A 0.25 0.25 0 0 0 75.46 152.842 L 62.06 152.842 A 0.25 0.25 0 0 0 61.81 153.092 L 61.81 166.492 A 0.25 0.25 0 0 0 62.06 166.742 Z M 62.06 149.742 L 75.46 149.742 A 0.25 0.25 0 0 0 75.71 149.492 L 75.71 136.092 A 0.25 0.25 0 0 0 75.46 135.842 L 62.06 135.842 A 0.25 0.25 0 0 0 61.81 136.092 L 61.81 149.492 A 0.25 0.25 0 0 0 62.06 149.742 Z M 62.06 132.742 L 75.46 132.742 A 0.25 0.25 0 0 0 75.71 132.492 L 75.71 119.092 A 0.25 0.25 0 0 0 75.46 118.842 L 62.06 118.842 A 0.25 0.25 0 0 0 61.81 119.092 L 61.81 132.492 A 0.25 0.25 0 0 0 62.06 132.742 Z M 80.06 172.692 L 93.46 172.692 A 0.25 0.25 0 0 0 93.71 172.442 L 93.71 159.042 A 0.25 0.25 0 0 0 93.46 158.792 L 80.06 158.792 A 0.25 0.25 0 0 0 79.81 159.042 L 79.81 172.442 A 0.25 0.25 0 0 0 80.06 172.692 Z M 80.06 155.692 L 93.46 155.692 A 0.25 0.25 0 0 0 93.71 155.442 L 93.71 142.042 A 0.25 0.25 0 0 0 93.46 141.792 L 80.06 141.792 A 0.25 0.25 0 0 0 79.81 142.042 L 79.81 155.442 A 0.25 0.25 0 0 0 80.06 155.692 Z M 80.06 138.692 L 93.46 138.692 A 0.25 0.25 0 0 0 93.71 138.442 L 93.71 125.042 A 0.25 0.25 0 0 0 93.46 124.792 L 80.06 124.792 A 0.25 0.25 0 0 0 79.81 125.042 L 79.81 138.442 A 0.25 0.25 0 0 0 80.06 138.692 Z M 98.06 175.242 L 111.46 175.242 A 0.25 0.25 0 0 0 111.71 174.992 L 111.71 161.592 A 0.25 0.25 0 0 0 111.46 161.342 L 98.06 161.342 A 0.25 0.25 0 0 0 97.81 161.592 L 97.81 174.992 A 0.25 0.25 0 0 0 98.06 175.242 Z M 98.06 158.242 L 111.46 158.242 A 0.25 0.25 0 0 0 111.71 157.992 L 111.71 144.592 A 0.25 0.25 0 0 0 111.46 144.342 L 98.06 144.342 A 0.25 0.25 0 0 0 97.81 144.592 L 97.81 157.992 A 0.25 0.25 0 0 0 98.06 158.242 Z M 98.06 141.242 L 111.46 141.242 A 0.25 0.25 0 0 0 111.71 140.992 L 111.71 127.592 A 0.25 0.25 0 0 0 111.46 127.342 L 98.06 127.342 A 0.25 0.25 0 0 0 97.81 127.592 L 97.81 140.992 A 0.25 0.25 0 0 0 98.06 141.242 Z M 62.06 34.836 L 75.46 34.836 A 0.25 0.25 0 0 0 75.71 34.586 L 75.71 21.186 A 0.25 0.25 0 0 0 75.46 20.936 L 62.06 20.936 A 0.25 0.25 0 0 0 61.81 21.186 L 61.81 34.586 A 0.25 0.25 0 0 0 62.06 34.836 Z M 62.06 17.836 L 75.46 17.836 A 0.25 0.25 0 0 0 75.71 17.586 L 75.71 4.186 A 0.25 0.25 0 0 0 75.46 3.936 L 62.06 3.936 A 0.25 0.25 0 0 0 61.81 4.186 L 61.81 17.586 A 0.25 0.25 0 0 0 62.06 17.836 Z M 80.06 40.786 L 93.46 40.786 A 0.25 0.25 0 0 0 93.71 40.536 L 93.71 27.136 A 0.25 0.25 0 0 0 93.46 26.886 L 80.06 26.886 A 0.25 0.25 0 0 0 79.81 27.136 L 79.81 40.536 A 0.25 0.25 0 0 0 80.06 40.786 Z M 80.06 23.786 L 93.46 23.786 A 0.25 0.25 0 0 0 93.71 23.536 L 93.71 10.136 A 0.25 0.25 0 0 0 93.46 9.886 L 80.06 9.886 A 0.25 0.25 0 0 0 79.81 10.136 L 79.81 23.536 A 0.25 0.25 0 0 0 80.06 23.786 Z M 98.06 26.336 L 111.46 26.336 A 0.25 0.25 0 0 0 111.71 26.086 L 111.71 12.686 A 0.25 0.25 0 0 0 111.46 12.436 L 98.06 12.436 A 0.25 0.25 0 0 0 97.81 12.686 L 97.81 26.086 A 0.25 0.25 0 0 0 98.06 26.336 Z M 223.268 51.836 L 236.668 51.836 A 0.25 0.25 0 0 0 236.918 51.586 L 236.918 38.186 A 0.25 0.25 0 0 0 236.668 37.936 L 223.268 37.936 A 0.25 0.25 0 0 0 223.018 38.186 L 223.018 51.586 A 0.25 0.25 0 0 0 223.268 51.836 Z M 241.268 57.786 L 254.668 57.786 A 0.25 0.25 0 0 0 254.918 57.536 L 254.918 44.136 A 0.25 0.25 0 0 0 254.668 43.886 L 241.268 43.886 A 0.25 0.25 0 0 0 241.018 44.136 L 241.018 57.536 A 0.25 0.25 0 0 0 241.268 57.786 Z M 223.268 166.742 L 236.668 166.742 A 0.25 0.25 0 0 0 236.918 166.492 L 236.918 153.092 A 0.25 0.25 0 0 0 236.668 152.842 L 223.268 152.842 A 0.25 0.25 0 0 0 223.018 153.092 L 223.018 166.492 A 0.25 0.25 0 0 0 223.268 166.742 Z M 223.268 149.742 L 236.668 149.742 A 0.25 0.25 0 0 0 236.918 149.492 L 236.918 136.092 A 0.25 0.25 0 0 0 236.668 135.842 L 223.268 135.842 A 0.25 0.25 0 0 0 223.018 136.092 L 223.018 149.492 A 0.25 0.25 0 0 0 223.268 149.742 Z M 223.268 132.742 L 236.668 132.742 A 0.25 0.25 0 0 0 236.918 132.492 L 236.918 119.092 A 0.25 0.25 0 0 0 236.668 118.842 L 223.268 118.842 A 0.25 0.25 0 0 0 223.018 119.092 L 223.018 132.492 A 0.25 0.25 0 0 0 223.268 132.742 Z M 241.268 172.692 L 254.668 172.692 A 0.25 0.25 0 0 0 254.918 172.442 L 254.918 159.042 A 0.25 0.25 0 0 0 254.668 158.792 L 241.268 158.792 A 0.25 0.25 0 0 0 241.018 159.042 L 241.018 172.442 A 0.25 0.25 0 0 0 241.268 172.692 Z M 241.268 155.692 L 254.668 155.692 A 0.25 0.25 0 0 0 254.918 155.442 L 254.918 142.042 A 0.25 0.25 0 0 0 254.668 141.792 L 241.268 141.792 A 0.25 0.25 0 0 0 241.018 142.042 L 241.018 155.442 A 0.25 0.25 0 0 0 241.268 155.692 Z M 241.268 138.692 L 254.668 138.692 A 0.25 0.25 0 0 0 254.918 138.442 L 254.918 125.042 A 0.25 0.25 0 0 0 254.668 124.792 L 241.268 124.792 A 0.25 0.25 0 0 0 241.018 125.042 L 241.018 138.442 A 0.25 0.25 0 0 0 241.268 138.692 Z M 223.268 34.836 L 236.668 34.836 A 0.25 0.25 0 0 0 236.918 34.586 L 236.918 21.186 A 0.25 0.25 0 0 0 236.668 20.936 L 223.268 20.936 A 0.25 0.25 0 0 0 223.018 21.186 L 223.018 34.586 A 0.25 0.25 0 0 0 223.268 34.836 Z M 223.268 17.836 L 236.668 17.836 A 0.25 0.25 0 0 0 236.918 17.586 L 236.918 4.186 A 0.25 0.25 0 0 0 236.668 3.936 L 223.268 3.936 A 0.25 0.25 0 0 0 223.018 4.186 L 223.018 17.586 A 0.25 0.25 0 0 0 223.268 17.836 Z M 241.268 40.786 L 254.668 40.786 A 0.25 0.25 0 0 0 254.918 40.536 L 254.918 27.136 A 0.25 0.25 0 0 0 254.668 26.886 L 241.268 26.886 A 0.25 0.25 0 0 0 241.018 27.136 L 241.018 40.536 A 0.25 0.25 0 0 0 241.268 40.786 Z M 241.268 23.786 L 254.668 23.786 A 0.25 0.25 0 0 0 254.918 23.536 L 254.918 10.136 A 0.25 0.25 0 0 0 254.668 9.886 L 241.268 9.886 A 0.25 0.25 0 0 0 241.018 10.136 L 241.018 23.536 A 0.25 0.25 0 0 0 241.268 23.786 Z M 265.307 80.763 L 276.912 87.463 A 0.25 0.25 0 0 0 277.253 87.372 L 283.953 75.767 A 0.25 0.25 0 0 0 283.862 75.425 L 272.257 68.725 A 0.25 0.25 0 0 0 271.915 68.817 L 265.215 80.422 A 0.25 0.25 0 0 0 265.307 80.763 Z M 104.099 80.763 L 115.704 87.463 A 0.25 0.25 0 0 0 116.045 87.372 L 122.745 75.767 A 0.25 0.25 0 0 0 122.654 75.425 L 111.049 68.725 A 0.25 0.25 0 0 0 110.707 68.817 L 104.007 80.422 A 0.25 0.25 0 0 0 104.099 80.763 Z M 265.307 195.669 L 276.912 202.369 A 0.25 0.25 0 0 0 277.253 202.278 L 283.953 190.673 A 0.25 0.25 0 0 0 283.862 190.331 L 272.257 183.631 A 0.25 0.25 0 0 0 271.915 183.723 L 265.215 195.328 A 0.25 0.25 0 0 0 265.307 195.669 Z M 104.099 195.669 L 115.704 202.369 A 0.25 0.25 0 0 0 116.045 202.278 L 122.745 190.673 A 0.25 0.25 0 0 0 122.654 190.331 L 111.049 183.631 A 0.25 0.25 0 0 0 110.707 183.723 L 104.007 195.328 A 0.25 0.25 0 0 0 104.099 195.669 Z M 187.234 173.23 L 200.469 171.134 A 0.25 0.25 0 0 0 200.677 170.848 L 198.581 157.613 A 0.25 0.25 0 0 0 198.295 157.405 L 185.06 159.502 A 0.25 0.25 0 0 0 184.852 159.788 L 186.948 173.023 A 0.25 0.25 0 0 0 187.234 173.23 Z M 6.971 53.081 L 20.206 50.985 A 0.25 0.25 0 0 0 20.414 50.699 L 18.318 37.463 A 0.25 0.25 0 0 0 18.032 37.256 L 4.797 39.352 A 0.25 0.25 0 0 0 4.589 39.638 L 6.685 52.873 A 0.25 0.25 0 0 0 6.971 53.081 Z M 168.179 53.081 L 181.414 50.985 A 0.25 0.25 0 0 0 181.622 50.699 L 179.526 37.463 A 0.25 0.25 0 0 0 179.24 37.256 L 166.005 39.352 A 0.25 0.25 0 0 0 165.797 39.638 L 167.893 52.873 A 0.25 0.25 0 0 0 168.179 53.081 Z M 26.026 173.23 L 39.261 171.134 A 0.25 0.25 0 0 0 39.469 170.848 L 37.373 157.613 A 0.25 0.25 0 0 0 37.087 157.405 L 23.852 159.502 A 0.25 0.25 0 0 0 23.644 159.788 L 25.74 173.023 A 0.25 0.25 0 0 0 26.026 173.23 Z M 187.234 58.324 L 200.469 56.228 A 0.25 0.25 0 0 0 200.677 55.942 L 198.581 42.707 A 0.25 0.25 0 0 0 198.295 42.499 L 185.06 44.596 A 0.25 0.25 0 0 0 184.852 44.882 L 186.948 58.117 A 0.25 0.25 0 0 0 187.234 58.324 Z M 9.631 69.871 L 22.866 67.775 A 0.25 0.25 0 0 0 23.074 67.489 L 20.977 54.254 A 0.25 0.25 0 0 0 20.691 54.046 L 7.456 56.143 A 0.25 0.25 0 0 0 7.249 56.429 L 9.345 69.664 A 0.25 0.25 0 0 0 9.631 69.871 Z M 189.894 75.115 L 203.129 73.019 A 0.25 0.25 0 0 0 203.337 72.733 L 201.24 59.498 A 0.25 0.25 0 0 0 200.954 59.29 L 187.719 61.386 A 0.25 0.25 0 0 0 187.511 61.672 L 189.608 74.907 A 0.25 0.25 0 0 0 189.894 75.115 Z M 189.894 190.021 L 203.129 187.925 A 0.25 0.25 0 0 0 203.337 187.639 L 201.24 174.404 A 0.25 0.25 0 0 0 200.954 174.196 L 187.719 176.292 A 0.25 0.25 0 0 0 187.511 176.578 L 189.608 189.813 A 0.25 0.25 0 0 0 189.894 190.021 Z M 28.686 75.115 L 41.921 73.019 A 0.25 0.25 0 0 0 42.129 72.733 L 40.032 59.498 A 0.25 0.25 0 0 0 39.746 59.29 L 26.511 61.386 A 0.25 0.25 0 0 0 26.303 61.672 L 28.4 74.907 A 0.25 0.25 0 0 0 28.686 75.115 Z M 28.686 190.021 L 41.921 187.925 A 0.25 0.25 0 0 0 42.129 187.639 L 40.032 174.404 A 0.25 0.25 0 0 0 39.746 174.196 L 26.511 176.292 A 0.25 0.25 0 0 0 26.303 176.578 L 28.4 189.813 A 0.25 0.25 0 0 0 28.686 190.021 Z M 26.026 58.324 L 39.261 56.228 A 0.25 0.25 0 0 0 39.469 55.942 L 37.373 42.707 A 0.25 0.25 0 0 0 37.087 42.499 L 23.852 44.596 A 0.25 0.25 0 0 0 23.644 44.882 L 25.74 58.117 A 0.25 0.25 0 0 0 26.026 58.324 Z M 170.839 69.871 L 184.074 67.775 A 0.25 0.25 0 0 0 184.282 67.489 L 182.185 54.254 A 0.25 0.25 0 0 0 181.899 54.046 L 168.664 56.143 A 0.25 0.25 0 0 0 168.457 56.429 L 170.553 69.664 A 0.25 0.25 0 0 0 170.839 69.871 Z M 23.367 41.534 L 36.602 39.438 A 0.25 0.25 0 0 0 36.81 39.152 L 34.714 25.917 A 0.25 0.25 0 0 0 34.428 25.709 L 21.192 27.805 A 0.25 0.25 0 0 0 20.985 28.091 L 23.081 41.326 A 0.25 0.25 0 0 0 23.367 41.534 Z M 184.575 41.534 L 197.81 39.438 A 0.25 0.25 0 0 0 198.018 39.152 L 195.922 25.917 A 0.25 0.25 0 0 0 195.636 25.709 L 182.4 27.805 A 0.25 0.25 0 0 0 182.193 28.091 L 184.289 41.326 A 0.25 0.25 0 0 0 184.575 41.534 Z M 23.367 156.44 L 36.602 154.344 A 0.25 0.25 0 0 0 36.81 154.058 L 34.714 140.823 A 0.25 0.25 0 0 0 34.428 140.615 L 21.192 142.711 A 0.25 0.25 0 0 0 20.985 142.997 L 23.081 156.232 A 0.25 0.25 0 0 0 23.367 156.44 Z M 184.575 156.44 L 197.81 154.344 A 0.25 0.25 0 0 0 198.018 154.058 L 195.922 140.823 A 0.25 0.25 0 0 0 195.636 140.615 L 182.4 142.711 A 0.25 0.25 0 0 0 182.193 142.997 L 184.289 156.232 A 0.25 0.25 0 0 0 184.575 156.44 Z M 247.921 75.434 L 260.865 78.902 A 0.25 0.25 0 0 0 261.171 78.725 L 264.639 65.782 A 0.25 0.25 0 0 0 264.462 65.476 L 251.519 62.007 A 0.25 0.25 0 0 0 251.213 62.184 L 247.744 75.128 A 0.25 0.25 0 0 0 247.921 75.434 Z M 247.921 190.34 L 260.865 193.808 A 0.25 0.25 0 0 0 261.171 193.631 L 264.639 180.688 A 0.25 0.25 0 0 0 264.462 180.382 L 251.519 176.913 A 0.25 0.25 0 0 0 251.213 177.09 L 247.744 190.034 A 0.25 0.25 0 0 0 247.921 190.34 Z M 86.713 75.434 L 99.657 78.902 A 0.25 0.25 0 0 0 99.963 78.725 L 103.431 65.782 A 0.25 0.25 0 0 0 103.254 65.476 L 90.311 62.007 A 0.25 0.25 0 0 0 90.005 62.184 L 86.536 75.128 A 0.25 0.25 0 0 0 86.713 75.434 Z M 86.713 190.34 L 99.657 193.808 A 0.25 0.25 0 0 0 99.963 193.631 L 103.431 180.688 A 0.25 0.25 0 0 0 103.254 180.382 L 90.311 176.913 A 0.25 0.25 0 0 0 90.005 177.09 L 86.536 190.034 A 0.25 0.25 0 0 0 86.713 190.34 Z M 58.96 19.386 m -1.1 0 a 1.1 1.1 0 0 1 2.2 0 a 1.1 1.1 0 0 1 -2.2 0 z M 95.41 25.336 m -1.1 0 a 1.1 1.1 0 0 1 2.2 0 a 1.1 1.1 0 0 1 -2.2 0 z M 121.787 83.527 m -1.1 0 a 1.1 1.1 0 0 1 2.2 0 a 1.1 1.1 0 0 1 -2.2 0 z M 85.24 68.336 m -1.1 0 a 1.1 1.1 0 0 1 2.2 0 a 1.1 1.1 0 0 1 -2.2 0 z M 22.375 52.21 m -1.1 0 a 1.1 1.1 0 0 1 2.2 0 a 1.1 1.1 0 0 1 -2.2 0 z M 220.168 19.386 m -1.1 0 a 1.1 1.1 0 0 1 2.2 0 a 1.1 1.1 0 0 1 -2.2 0 z M 256.618 25.336 m -1.1 0 a 1.1 1.1 0 0 1 2.2 0 a 1.1 1.1 0 0 1 -2.2 0 z M 282.995 83.527 m -1.1 0 a 1.1 1.1 0 0 1 2.2 0 a 1.1 1.1 0 0 1 -2.2 0 z M 246.448 68.336 m -1.1 0 a 1.1 1.1 0 0 1 2.2 0 a 1.1 1.1 0 0 1 -2.2 0 z M 183.583 52.21 m -1.1 0 a 1.1 1.1 0 0 1 2.2 0 a 1.1 1.1 0 0 1 -2.2 0 z M 58.96 134.292 m -1.1 0 a 1.1 1.1 0 0 1 2.2 0 a 1.1 1.1 0 0 1 -2.2 0 z M 95.41 140.242 m -1.1 0 a 1.1 1.1 0 0 1 2.2 0 a 1.1 1.1 0 0 1 -2.2 0 z M 121.787 198.433 m -1.1 0 a 1.1 1.1 0 0 1 2.2 0 a 1.1 1.1 0 0 1 -2.2 0 z M 85.24 183.242 m -1.1 0 a 1.1 1.1 0 0 1 2.2 0 a 1.1 1.1 0 0 1 -2.2 0 z M 39.709 155.421 m -1.1 0 a 1.1 1.1 0 0 1 2.2 0 a 1.1 1.1 0 0 1 -2.2 0 z M 220.168 134.292 m -1.1 0 a 1.1 1.1 0 0 1 2.2 0 a 1.1 1.1 0 0 1 -2.2 0 z M 256.618 140.242 m -1.1 0 a 1.1 1.1 0 0 1 2.2 0 a 1.1 1.1 0 0 1 -2.2 0 z M 282.995 198.433 m -1.1 0 a 1.1 1.1 0 0 1 2.2 0 a 1.1 1.1 0 0 1 -2.2 0 z M 246.448 183.242 m -1.1 0 a 1.1 1.1 0 0 1 2.2 0 a 1.1 1.1 0 0 1 -2.2 0 z M 200.917 155.421 m -1.1 0 a 1.1 1.1 0 0 1 2.2 0 a 1.1 1.1 0 0 1 -2.2 0 z M 117.78 66.166 m -1 0 a 1 1 0 0 1 2 0 a 1 1 0 0 1 -2 0 z M 131.38 74.02 m -1 0 a 1 1 0 0 1 2 0 a 1 1 0 0 1 -2 0 z M 278.988 66.166 m -1 0 a 1 1 0 0 1 2 0 a 1 1 0 0 1 -2 0 z M 292.588 74.02 m -1 0 a 1 1 0 0 1 2 0 a 1 1 0 0 1 -2 0 z M 117.78 181.072 m -1 0 a 1 1 0 0 1 2 0 a 1 1 0 0 1 -2 0 z M 131.38 188.926 m -1 0 a 1 1 0 0 1 2 0 a 1 1 0 0 1 -2 0 z M 278.988 181.072 m -1 0 a 1 1 0 0 1 2 0 a 1 1 0 0 1 -2 0 z M 292.588 188.926 m -1 0 a 1 1 0 0 1 2 0 a 1 1 0 0 1 -2 0 z" vector-effect="non-scaling-stroke"/></g></svg>