<svg width="297.077mm" height="226.103mm" viewBox="0 0 297.077 226.103" xmlns="http://www.w3.org/2000/svg"><g id="svgGroup" stroke-linecap="round" fill-rule="evenodd" font-size="9pt" stroke="#e2725b" stroke-width="0.25mm" fill="none" style="stroke:#e2725b;stroke-width:0.25mm;fill:none"><path d="M 135.869 79.786 L 135.869 24.17 A 2.5 2.5 0 0 0 133.369 21.67 L 118.919 21.67 A 2.5 2.5 0 0 1 116.419 19.17 L 116.419 11 A 2.5 2.5 0 0 0 113.919 8.5 L 82.919 8.5 A 2.5 2.5 0 0 1 80.419 6 L 80.419 2.5 A 2.5 2.5 0 0 0 77.919 0 L 60.148 0 A 2.5 2.5 0 0 0 57.648 2.5 L 57.648 7.302 A 2.5 2.5 0 0 1 55.322 9.796 L 39.206 10.923 A 2.5 2.5 0 0 0 36.887 13.591 L 37.456 21.735 A 2.5 2.5 0 0 1 35.396 24.372 L 18.258 27.394 A 2.5 2.5 0 0 0 16.23 30.29 L 16.896 34.07 A 2.5 2.5 0 0 1 14.868 36.966 L 2.066 39.223 A 2.5 2.5 0 0 0 0.038 42.12 L 5.902 75.378 A 2.5 2.5 0 0 0 8.798 77.405 L 21.601 75.148 A 2.5 2.5 0 0 1 24.497 77.176 L 25.046 80.29 A 2.5 2.5 0 0 0 27.942 82.317 L 49.384 78.537 A 2.5 2.5 0 0 1 52.28 80.565 L 53.236 85.987 A 2.5 2.5 0 0 0 56.133 88.015 L 72.214 85.179 A 13.69 13.69 0 0 1 74.591 84.971 L 88.918 84.971 A 13.69 13.69 0 0 1 92.461 85.438 L 105.614 88.962 A 13.69 13.69 0 0 1 108.916 90.33 L 120.709 97.138 A 13.69 13.69 0 0 1 123.544 99.314 L 134.695 110.465 A 2.5 2.5 0 0 0 138.23 110.465 L 150.09 98.605 A 2.5 2.5 0 0 0 150.092 95.071 L 143.932 88.901 L 143.881 88.833 L 136.601 81.553 A 2.5 2.5 0 0 1 135.869 79.786 Z M 134.659 80.328 L 134.659 25.48 A 2.6 2.6 0 0 0 132.059 22.88 L 117.609 22.88 A 2.4 2.4 0 0 1 115.209 20.481 L 115.209 12.31 A 2.6 2.6 0 0 0 112.609 9.71 L 81.609 9.71 A 2.4 2.4 0 0 1 79.209 7.31 L 79.209 3.81 A 2.6 2.6 0 0 0 76.609 1.21 L 61.458 1.21 A 2.6 2.6 0 0 0 58.858 3.81 L 58.858 8.524 A 2.4 2.4 0 0 1 56.625 10.918 L 40.597 12.039 A 2.6 2.6 0 0 0 38.185 14.814 L 38.746 22.828 A 2.4 2.4 0 0 1 36.768 25.358 L 19.758 28.358 A 2.6 2.6 0 0 0 17.649 31.37 L 18.315 35.15 A 2.4 2.4 0 0 1 16.369 37.93 L 3.566 40.188 A 2.6 2.6 0 0 0 1.457 43.2 L 6.866 73.877 A 2.6 2.6 0 0 0 9.878 75.986 L 22.681 73.729 A 2.4 2.4 0 0 1 25.461 75.676 L 26.01 78.789 A 2.6 2.6 0 0 0 29.022 80.898 L 50.464 77.118 A 2.4 2.4 0 0 1 53.244 79.064 L 54.201 84.487 A 2.6 2.6 0 0 0 57.213 86.596 L 72.003 83.988 A 14.9 14.9 0 0 1 74.591 83.761 L 88.918 83.761 A 14.9 14.9 0 0 1 92.774 84.269 L 105.928 87.793 A 14.9 14.9 0 0 1 109.521 89.282 L 121.314 96.091 A 14.9 14.9 0 0 1 124.4 98.459 L 134.624 108.683 A 2.6 2.6 0 0 0 138.301 108.683 L 148.309 98.675 A 2.6 2.6 0 0 0 148.311 94.999 L 142.989 89.668 L 142.982 89.646 L 142.965 89.629 L 135.361 82.025 A 2.4 2.4 0 0 1 134.659 80.328 Z M 9.851 75.898 L 22.654 73.64 A 2.5 2.5 0 0 1 25.55 75.668 L 26.099 78.782 A 2.5 2.5 0 0 0 28.995 80.81 L 50.437 77.029 A 2.5 2.5 0 0 1 53.333 79.057 L 54.289 84.479 A 2.5 2.5 0 0 0 57.185 86.507 L 71.976 83.899 A 15 15 0 0 1 74.581 83.671 L 88.908 83.671 A 15 15 0 0 1 92.79 84.182 L 105.944 87.707 A 15 15 0 0 1 109.561 89.205 L 121.354 96.014 A 15 15 0 0 1 124.461 98.398 L 134.685 108.622 A 2.5 2.5 0 0 0 138.22 108.622 L 148.228 98.614 A 2.5 2.5 0 0 0 148.23 95.08 L 135.122 81.948 A 2.5 2.5 0 0 0 134.602 81.549 L 116.349 71.011 A 2.5 2.5 0 0 1 115.099 68.846 L 115.099 12.32 A 2.5 2.5 0 0 0 112.599 9.82 L 81.599 9.82 A 2.5 2.5 0 0 1 79.099 7.32 L 79.099 3.82 A 2.5 2.5 0 0 0 76.599 1.32 L 61.448 1.32 A 2.5 2.5 0 0 0 58.948 3.82 L 58.948 8.534 A 2.5 2.5 0 0 1 56.622 11.028 L 40.594 12.148 A 2.5 2.5 0 0 0 38.275 14.817 L 38.835 22.831 A 2.5 2.5 0 0 1 36.776 25.467 L 19.765 28.466 A 2.5 2.5 0 0 0 17.737 31.362 L 18.404 35.142 A 2.5 2.5 0 0 1 16.376 38.039 L 3.573 40.296 A 2.5 2.5 0 0 0 1.546 43.192 L 6.955 73.87 A 2.5 2.5 0 0 0 9.851 75.898 Z M 135.869 194.692 L 135.869 139.076 A 2.5 2.5 0 0 0 133.369 136.576 L 118.919 136.576 A 2.5 2.5 0 0 1 116.419 134.076 L 116.419 125.906 A 2.5 2.5 0 0 0 113.919 123.406 L 82.919 123.406 A 2.5 2.5 0 0 1 80.419 120.906 L 80.419 117.406 A 2.5 2.5 0 0 0 77.919 114.906 L 60.148 114.906 A 2.5 2.5 0 0 0 57.648 117.406 L 57.648 122.208 A 2.5 2.5 0 0 1 55.322 124.702 L 39.206 125.829 A 2.5 2.5 0 0 0 36.887 128.497 L 37.456 136.641 A 2.5 2.5 0 0 1 35.396 139.278 L 18.258 142.3 A 2.5 2.5 0 0 0 16.23 145.196 L 25.046 195.196 A 2.5 2.5 0 0 0 27.942 197.223 L 49.384 193.443 A 2.5 2.5 0 0 1 52.28 195.471 L 53.236 200.893 A 2.5 2.5 0 0 0 56.133 202.921 L 72.214 200.085 A 13.69 13.69 0 0 1 74.591 199.877 L 88.918 199.877 A 13.69 13.69 0 0 1 92.461 200.344 L 105.614 203.868 A 13.69 13.69 0 0 1 108.916 205.236 L 120.709 212.044 A 13.69 13.69 0 0 1 123.544 214.22 L 134.695 225.371 A 2.5 2.5 0 0 0 138.23 225.371 L 150.09 213.511 A 2.5 2.5 0 0 0 150.092 209.977 L 143.932 203.807 L 143.881 203.739 L 136.601 196.459 A 2.5 2.5 0 0 1 135.869 194.692 Z M 297.077 79.515 L 297.077 24.171 A 2.5 2.5 0 0 0 294.577 21.671 L 280.127 21.671 A 2.5 2.5 0 0 1 277.627 19.171 L 277.627 11 A 2.5 2.5 0 0 0 275.127 8.5 L 244.127 8.5 A 2.5 2.5 0 0 1 241.627 6 L 241.627 2.5 A 2.5 2.5 0 0 0 239.127 0 L 221.356 0 A 2.5 2.5 0 0 0 218.856 2.5 L 218.856 7.302 A 2.5 2.5 0 0 1 216.53 9.796 L 200.414 10.923 A 2.5 2.5 0 0 0 198.095 13.591 L 198.664 21.735 A 2.5 2.5 0 0 1 196.604 24.372 L 179.466 27.394 A 2.5 2.5 0 0 0 177.438 30.29 L 178.104 34.07 A 2.5 2.5 0 0 1 176.076 36.966 L 163.274 39.223 A 2.5 2.5 0 0 0 161.246 42.12 L 167.11 75.378 A 2.5 2.5 0 0 0 170.006 77.405 L 182.809 75.148 A 2.5 2.5 0 0 1 185.705 77.176 L 186.254 80.29 A 2.5 2.5 0 0 0 189.15 82.317 L 210.592 78.537 A 2.5 2.5 0 0 1 213.488 80.565 L 214.444 85.987 A 2.5 2.5 0 0 0 217.341 88.015 L 233.422 85.179 A 13.69 13.69 0 0 1 235.799 84.971 L 250.126 84.971 A 13.69 13.69 0 0 1 253.669 85.438 L 266.822 88.962 A 13.69 13.69 0 0 1 270.124 90.33 L 276.095 93.777 L 276.105 93.783 L 283.781 98.214 A 2.5 2.5 0 0 0 287.196 97.299 L 296.742 80.765 A 2.5 2.5 0 0 0 297.077 79.515 Z M 134.659 195.234 L 134.659 140.387 A 2.6 2.6 0 0 0 132.059 137.787 L 117.609 137.787 A 2.4 2.4 0 0 1 115.209 135.387 L 115.209 127.216 A 2.6 2.6 0 0 0 112.609 124.616 L 81.609 124.616 A 2.4 2.4 0 0 1 79.209 122.216 L 79.209 118.716 A 2.6 2.6 0 0 0 76.609 116.116 L 61.458 116.116 A 2.6 2.6 0 0 0 58.858 118.716 L 58.858 123.43 A 2.4 2.4 0 0 1 56.625 125.824 L 40.597 126.945 A 2.6 2.6 0 0 0 38.185 129.72 L 38.746 137.734 A 2.4 2.4 0 0 1 36.768 140.264 L 19.758 143.264 A 2.6 2.6 0 0 0 17.649 146.276 L 26.01 193.695 A 2.6 2.6 0 0 0 29.022 195.804 L 50.464 192.024 A 2.4 2.4 0 0 1 53.244 193.97 L 54.201 199.393 A 2.6 2.6 0 0 0 57.213 201.502 L 72.003 198.894 A 14.9 14.9 0 0 1 74.591 198.667 L 88.918 198.667 A 14.9 14.9 0 0 1 92.774 199.175 L 105.928 202.699 A 14.9 14.9 0 0 1 109.521 204.188 L 121.314 210.997 A 14.9 14.9 0 0 1 124.4 213.365 L 134.624 223.589 A 2.6 2.6 0 0 0 138.301 223.589 L 148.309 213.581 A 2.6 2.6 0 0 0 148.311 209.905 L 142.989 204.574 L 142.982 204.552 L 142.965 204.535 L 135.361 196.931 A 2.4 2.4 0 0 1 134.659 195.234 Z M 295.867 79.164 L 295.867 25.48 A 2.6 2.6 0 0 0 293.267 22.88 L 278.817 22.88 A 2.4 2.4 0 0 1 276.417 20.481 L 276.417 12.31 A 2.6 2.6 0 0 0 273.817 9.71 L 242.817 9.71 A 2.4 2.4 0 0 1 240.417 7.31 L 240.417 3.81 A 2.6 2.6 0 0 0 237.817 1.21 L 222.666 1.21 A 2.6 2.6 0 0 0 220.066 3.81 L 220.066 8.524 A 2.4 2.4 0 0 1 217.833 10.918 L 201.805 12.039 A 2.6 2.6 0 0 0 199.393 14.814 L 199.954 22.828 A 2.4 2.4 0 0 1 197.976 25.358 L 180.966 28.358 A 2.6 2.6 0 0 0 178.857 31.37 L 179.523 35.15 A 2.4 2.4 0 0 1 177.577 37.93 L 164.774 40.188 A 2.6 2.6 0 0 0 162.665 43.2 L 168.074 73.877 A 2.6 2.6 0 0 0 171.086 75.986 L 183.889 73.729 A 2.4 2.4 0 0 1 186.669 75.676 L 187.218 78.789 A 2.6 2.6 0 0 0 190.23 80.898 L 211.672 77.118 A 2.4 2.4 0 0 1 214.452 79.064 L 215.409 84.487 A 2.6 2.6 0 0 0 218.421 86.596 L 233.211 83.988 A 14.9 14.9 0 0 1 235.799 83.761 L 250.126 83.761 A 14.9 14.9 0 0 1 253.982 84.269 L 267.136 87.793 A 14.9 14.9 0 0 1 270.729 89.282 L 276.691 92.724 L 276.693 92.725 L 276.696 92.727 L 283.251 96.511 A 2.6 2.6 0 0 0 286.803 95.56 L 295.518 80.464 A 2.6 2.6 0 0 0 295.867 79.164 Z M 28.995 195.716 L 50.437 191.935 A 2.5 2.5 0 0 1 53.333 193.963 L 54.289 199.385 A 2.5 2.5 0 0 0 57.185 201.413 L 71.976 198.805 A 15 15 0 0 1 74.581 198.577 L 88.908 198.577 A 15 15 0 0 1 92.79 199.088 L 105.944 202.613 A 15 15 0 0 1 109.561 204.111 L 121.354 210.92 A 15 15 0 0 1 124.461 213.304 L 134.685 223.528 A 2.5 2.5 0 0 0 138.22 223.528 L 148.228 213.52 A 2.5 2.5 0 0 0 148.23 209.986 L 135.122 196.854 A 2.5 2.5 0 0 0 134.602 196.455 L 116.349 185.917 A 2.5 2.5 0 0 1 115.099 183.752 L 115.099 127.226 A 2.5 2.5 0 0 0 112.599 124.726 L 81.599 124.726 A 2.5 2.5 0 0 1 79.099 122.226 L 79.099 118.726 A 2.5 2.5 0 0 0 76.599 116.226 L 61.448 116.226 A 2.5 2.5 0 0 0 58.948 118.726 L 58.948 123.44 A 2.5 2.5 0 0 1 56.622 125.934 L 40.594 127.054 A 2.5 2.5 0 0 0 38.275 129.723 L 38.835 137.737 A 2.5 2.5 0 0 1 36.776 140.373 L 19.765 143.372 A 2.5 2.5 0 0 0 17.737 146.268 L 26.099 193.688 A 2.5 2.5 0 0 0 28.995 195.716 Z M 171.059 75.898 L 183.862 73.64 A 2.5 2.5 0 0 1 186.758 75.668 L 187.307 78.782 A 2.5 2.5 0 0 0 190.203 80.81 L 211.645 77.029 A 2.5 2.5 0 0 1 214.541 79.057 L 215.497 84.479 A 2.5 2.5 0 0 0 218.393 86.507 L 233.184 83.899 A 15 15 0 0 1 235.789 83.671 L 250.116 83.671 A 15 15 0 0 1 253.998 84.182 L 267.152 87.707 A 15 15 0 0 1 270.769 89.205 L 276.731 92.647 L 283.291 96.435 A 2.5 2.5 0 0 0 286.706 95.52 L 293.782 83.265 A 2.5 2.5 0 0 0 292.867 79.85 L 277.557 71.011 A 2.5 2.5 0 0 1 276.307 68.846 L 276.307 12.32 A 2.5 2.5 0 0 0 273.807 9.82 L 242.807 9.82 A 2.5 2.5 0 0 1 240.307 7.32 L 240.307 3.82 A 2.5 2.5 0 0 0 237.807 1.32 L 222.656 1.32 A 2.5 2.5 0 0 0 220.156 3.82 L 220.156 8.534 A 2.5 2.5 0 0 1 217.83 11.028 L 201.802 12.148 A 2.5 2.5 0 0 0 199.483 14.817 L 200.043 22.831 A 2.5 2.5 0 0 1 197.984 25.467 L 180.973 28.466 A 2.5 2.5 0 0 0 178.945 31.362 L 179.612 35.142 A 2.5 2.5 0 0 1 177.584 38.039 L 164.781 40.296 A 2.5 2.5 0 0 0 162.754 43.192 L 168.163 73.87 A 2.5 2.5 0 0 0 171.059 75.898 Z M 297.077 194.421 L 297.077 139.077 A 2.5 2.5 0 0 0 294.577 136.577 L 280.127 136.577 A 2.5 2.5 0 0 1 277.627 134.077 L 277.627 125.906 A 2.5 2.5 0 0 0 275.127 123.406 L 244.127 123.406 A 2.5 2.5 0 0 1 241.627 120.906 L 241.627 117.406 A 2.5 2.5 0 0 0 239.127 114.906 L 221.356 114.906 A 2.5 2.5 0 0 0 218.856 117.406 L 218.856 122.208 A 2.5 2.5 0 0 1 216.53 124.702 L 200.414 125.829 A 2.5 2.5 0 0 0 198.095 128.497 L 198.664 136.641 A 2.5 2.5 0 0 1 196.604 139.278 L 179.466 142.3 A 2.5 2.5 0 0 0 177.438 145.196 L 186.254 195.196 A 2.5 2.5 0 0 0 189.15 197.223 L 210.592 193.443 A 2.5 2.5 0 0 1 213.488 195.471 L 214.444 200.893 A 2.5 2.5 0 0 0 217.341 202.921 L 233.422 200.085 A 13.69 13.69 0 0 1 235.799 199.877 L 250.126 199.877 A 13.69 13.69 0 0 1 253.669 200.344 L 266.822 203.868 A 13.69 13.69 0 0 1 270.124 205.236 L 276.095 208.683 L 276.105 208.689 L 283.781 213.12 A 2.5 2.5 0 0 0 287.196 212.205 L 296.742 195.671 A 2.5 2.5 0 0 0 297.077 194.421 Z M 295.867 194.07 L 295.867 140.386 A 2.6 2.6 0 0 0 293.267 137.787 L 278.817 137.787 A 2.4 2.4 0 0 1 276.417 135.387 L 276.417 127.216 A 2.6 2.6 0 0 0 273.817 124.616 L 242.817 124.616 A 2.4 2.4 0 0 1 240.417 122.216 L 240.417 118.716 A 2.6 2.6 0 0 0 237.817 116.116 L 222.666 116.116 A 2.6 2.6 0 0 0 220.066 118.716 L 220.066 123.43 A 2.4 2.4 0 0 1 217.833 125.824 L 201.805 126.945 A 2.6 2.6 0 0 0 199.393 129.72 L 199.954 137.734 A 2.4 2.4 0 0 1 197.976 140.264 L 180.966 143.264 A 2.6 2.6 0 0 0 178.857 146.276 L 187.218 193.695 A 2.6 2.6 0 0 0 190.23 195.804 L 211.672 192.024 A 2.4 2.4 0 0 1 214.452 193.97 L 215.409 199.393 A 2.6 2.6 0 0 0 218.421 201.502 L 233.211 198.894 A 14.9 14.9 0 0 1 235.799 198.667 L 250.126 198.667 A 14.9 14.9 0 0 1 253.982 199.175 L 267.136 202.699 A 14.9 14.9 0 0 1 270.729 204.188 L 276.691 207.63 L 276.693 207.631 L 276.696 207.633 L 283.251 211.417 A 2.6 2.6 0 0 0 286.803 210.466 L 295.518 195.37 A 2.6 2.6 0 0 0 295.867 194.07 Z M 190.203 195.716 L 211.645 191.935 A 2.5 2.5 0 0 1 214.541 193.963 L 215.497 199.385 A 2.5 2.5 0 0 0 218.393 201.413 L 233.184 198.805 A 15 15 0 0 1 235.789 198.577 L 250.116 198.577 A 15 15 0 0 1 253.998 199.088 L 267.152 202.613 A 15 15 0 0 1 270.769 204.111 L 276.731 207.553 L 283.291 211.341 A 2.5 2.5 0 0 0 286.706 210.426 L 293.782 198.171 A 2.5 2.5 0 0 0 292.867 194.756 L 277.557 185.917 A 2.5 2.5 0 0 1 276.307 183.752 L 276.307 127.226 A 2.5 2.5 0 0 0 273.807 124.726 L 242.807 124.726 A 2.5 2.5 0 0 1 240.307 122.226 L 240.307 118.726 A 2.5 2.5 0 0 0 237.807 116.226 L 222.656 116.226 A 2.5 2.5 0 0 0 220.156 118.726 L 220.156 123.44 A 2.5 2.5 0 0 1 217.83 125.934 L 201.802 127.054 A 2.5 2.5 0 0 0 199.483 129.723 L 200.043 137.737 A 2.5 2.5 0 0 1 197.984 140.373 L 180.973 143.372 A 2.5 2.5 0 0 0 178.945 146.268 L 187.307 193.688 A 2.5 2.5 0 0 0 190.203 195.716 Z M 134.569 77.168 L 134.569 25.471 A 2.5 2.5 0 0 0 132.069 22.971 L 117.619 22.971 A 2.5 2.5 0 0 0 115.119 25.471 L 115.119 68.826 A 2.5 2.5 0 0 0 116.369 70.991 L 130.819 79.333 A 2.5 2.5 0 0 0 134.569 77.168 Z M 295.777 77.168 L 295.777 25.471 A 2.5 2.5 0 0 0 293.277 22.971 L 278.827 22.971 A 2.5 2.5 0 0 0 276.327 25.471 L 276.327 68.826 A 2.5 2.5 0 0 0 277.577 70.991 L 292.027 79.333 A 2.5 2.5 0 0 0 295.777 77.168 Z M 134.569 192.074 L 134.569 140.377 A 2.5 2.5 0 0 0 132.069 137.877 L 117.619 137.877 A 2.5 2.5 0 0 0 115.119 140.377 L 115.119 183.732 A 2.5 2.5 0 0 0 116.369 185.897 L 130.819 194.239 A 2.5 2.5 0 0 0 134.569 192.074 Z M 295.777 192.074 L 295.777 140.377 A 2.5 2.5 0 0 0 293.277 137.877 L 278.827 137.877 A 2.5 2.5 0 0 0 276.327 140.377 L 276.327 183.732 A 2.5 2.5 0 0 0 277.577 185.897 L 292.027 194.239 A 2.5 2.5 0 0 0 295.777 192.074 Z M 119.584 57.095 L 130.104 57.095 A 0.24 0.24 0 0 0 130.344 56.856 L 130.344 31.836 A 0.24 0.24 0 0 0 130.104 31.596 L 119.584 31.596 A 0.24 0.24 0 0 0 119.344 31.836 L 119.344 56.856 A 0.24 0.24 0 0 0 119.584 57.096 Z M 280.792 57.095 L 291.312 57.095 A 0.24 0.24 0 0 0 291.552 56.856 L 291.552 31.836 A 0.24 0.24 0 0 0 291.312 31.596 L 280.792 31.596 A 0.24 0.24 0 0 0 280.552 31.836 L 280.552 56.856 A 0.24 0.24 0 0 0 280.792 57.096 Z M 119.584 172.002 L 130.104 172.002 A 0.24 0.24 0 0 0 130.344 171.762 L 130.344 146.742 A 0.24 0.24 0 0 0 130.104 146.502 L 119.584 146.502 A 0.24 0.24 0 0 0 119.344 146.742 L 119.344 171.762 A 0.24 0.24 0 0 0 119.584 172.002 Z M 280.792 172.002 L 291.312 172.002 A 0.24 0.24 0 0 0 291.552 171.762 L 291.552 146.742 A 0.24 0.24 0 0 0 291.312 146.502 L 280.792 146.502 A 0.24 0.24 0 0 0 280.552 146.742 L 280.552 171.762 A 0.24 0.24 0 0 0 280.792 172.002 Z M 218.84 83.712 L 222.287 83.104 L 222.391 83.695 A 0.4 0.4 0 0 0 222.854 84.019 L 228.271 83.064 A 0.4 0.4 0 0 0 228.595 82.601 L 228.491 82.01 L 231.938 81.402 A 0.25 0.25 0 0 0 232.141 81.113 L 229.831 68.015 A 0.25 0.25 0 0 0 229.542 67.812 L 216.444 70.121 A 0.25 0.25 0 0 0 216.241 70.411 L 218.55 83.509 A 0.25 0.25 0 0 0 218.84 83.712 Z M 57.632 83.712 L 61.079 83.104 L 61.183 83.695 A 0.4 0.4 0 0 0 61.646 84.019 L 67.063 83.064 A 0.4 0.4 0 0 0 67.387 82.601 L 67.283 82.01 L 70.73 81.402 A 0.25 0.25 0 0 0 70.933 81.113 L 68.623 68.015 A 0.25 0.25 0 0 0 68.334 67.812 L 55.236 70.121 A 0.25 0.25 0 0 0 55.033 70.411 L 57.342 83.509 A 0.25 0.25 0 0 0 57.632 83.712 Z M 218.84 198.618 L 222.287 198.01 L 222.391 198.601 A 0.4 0.4 0 0 0 222.854 198.925 L 228.271 197.97 A 0.4 0.4 0 0 0 228.595 197.507 L 228.491 196.916 L 231.938 196.308 A 0.25 0.25 0 0 0 232.141 196.019 L 229.831 182.921 A 0.25 0.25 0 0 0 229.542 182.718 L 216.444 185.027 A 0.25 0.25 0 0 0 216.241 185.317 L 218.55 198.415 A 0.25 0.25 0 0 0 218.84 198.618 Z M 57.632 198.618 L 61.079 198.01 L 61.183 198.601 A 0.4 0.4 0 0 0 61.646 198.925 L 67.063 197.97 A 0.4 0.4 0 0 0 67.387 197.507 L 67.283 196.916 L 70.73 196.308 A 0.25 0.25 0 0 0 70.933 196.019 L 68.623 182.921 A 0.25 0.25 0 0 0 68.334 182.718 L 55.236 185.027 A 0.25 0.25 0 0 0 55.033 185.317 L 57.342 198.415 A 0.25 0.25 0 0 0 57.632 198.618 Z M 26.49 176.179 L 39.588 173.869 A 0.25 0.25 0 0 0 39.79 173.579 L 37.481 160.481 A 0.25 0.25 0 0 0 37.191 160.279 L 24.093 162.588 A 0.25 0.25 0 0 0 23.891 162.878 L 26.2 175.976 A 0.25 0.25 0 0 0 26.49 176.179 Z M 187.698 176.179 L 200.796 173.869 A 0.25 0.25 0 0 0 200.998 173.579 L 198.689 160.481 A 0.25 0.25 0 0 0 198.399 160.279 L 185.301 162.588 A 0.25 0.25 0 0 0 185.099 162.878 L 187.408 175.976 A 0.25 0.25 0 0 0 187.698 176.179 Z M 26.49 61.273 L 39.588 58.963 A 0.25 0.25 0 0 0 39.79 58.673 L 37.481 45.575 A 0.25 0.25 0 0 0 37.191 45.373 L 24.093 47.682 A 0.25 0.25 0 0 0 23.891 47.972 L 26.2 61.07 A 0.25 0.25 0 0 0 26.49 61.273 Z M 187.698 61.273 L 200.796 58.963 A 0.25 0.25 0 0 0 200.998 58.673 L 198.689 45.575 A 0.25 0.25 0 0 0 198.399 45.373 L 185.301 47.682 A 0.25 0.25 0 0 0 185.099 47.972 L 187.408 61.07 A 0.25 0.25 0 0 0 187.698 61.273 Z M 168.554 56.361 L 181.652 54.051 A 0.25 0.25 0 0 0 181.855 53.761 L 179.545 40.663 A 0.25 0.25 0 0 0 179.255 40.461 L 166.157 42.77 A 0.25 0.25 0 0 0 165.955 43.06 L 168.264 56.158 A 0.25 0.25 0 0 0 168.554 56.361 Z M 10.298 73.102 L 23.396 70.793 A 0.25 0.25 0 0 0 23.599 70.503 L 21.289 57.405 A 0.25 0.25 0 0 0 20.999 57.202 L 7.902 59.512 A 0.25 0.25 0 0 0 7.699 59.802 L 10.008 72.899 A 0.25 0.25 0 0 0 10.298 73.102 Z M 7.346 56.361 L 20.444 54.051 A 0.25 0.25 0 0 0 20.647 53.761 L 18.337 40.663 A 0.25 0.25 0 0 0 18.047 40.461 L 4.949 42.77 A 0.25 0.25 0 0 0 4.747 43.06 L 7.056 56.158 A 0.25 0.25 0 0 0 7.346 56.361 Z M 171.506 73.102 L 184.604 70.793 A 0.25 0.25 0 0 0 184.807 70.503 L 182.497 57.405 A 0.25 0.25 0 0 0 182.207 57.202 L 169.11 59.512 A 0.25 0.25 0 0 0 168.907 59.802 L 171.216 72.899 A 0.25 0.25 0 0 0 171.506 73.102 Z M 29.442 78.014 L 42.54 75.705 A 0.25 0.25 0 0 0 42.742 75.415 L 40.433 62.317 A 0.25 0.25 0 0 0 40.143 62.114 L 27.045 64.424 A 0.25 0.25 0 0 0 26.843 64.714 L 29.152 77.812 A 0.25 0.25 0 0 0 29.442 78.014 Z M 29.442 192.92 L 42.54 190.611 A 0.25 0.25 0 0 0 42.742 190.321 L 40.433 177.223 A 0.25 0.25 0 0 0 40.143 177.02 L 27.045 179.33 A 0.25 0.25 0 0 0 26.843 179.62 L 29.152 192.718 A 0.25 0.25 0 0 0 29.442 192.92 Z M 190.65 78.014 L 203.748 75.705 A 0.25 0.25 0 0 0 203.95 75.415 L 201.641 62.317 A 0.25 0.25 0 0 0 201.351 62.114 L 188.253 64.424 A 0.25 0.25 0 0 0 188.051 64.714 L 190.36 77.812 A 0.25 0.25 0 0 0 190.65 78.014 Z M 190.65 192.92 L 203.748 190.611 A 0.25 0.25 0 0 0 203.95 190.321 L 201.641 177.223 A 0.25 0.25 0 0 0 201.351 177.02 L 188.253 179.33 A 0.25 0.25 0 0 0 188.051 179.62 L 190.36 192.718 A 0.25 0.25 0 0 0 190.65 192.92 Z M 23.538 44.531 L 36.636 42.221 A 0.25 0.25 0 0 0 36.838 41.932 L 34.529 28.834 A 0.25 0.25 0 0 0 34.239 28.631 L 21.141 30.94 A 0.25 0.25 0 0 0 20.938 31.23 L 23.248 44.328 A 0.25 0.25 0 0 0 23.538 44.531 Z M 23.538 159.437 L 36.636 157.127 A 0.25 0.25 0 0 0 36.838 156.838 L 34.529 143.74 A 0.25 0.25 0 0 0 34.239 143.537 L 21.141 145.846 A 0.25 0.25 0 0 0 20.938 146.136 L 23.248 159.234 A 0.25 0.25 0 0 0 23.538 159.437 Z M 184.746 44.531 L 197.844 42.221 A 0.25 0.25 0 0 0 198.046 41.932 L 195.737 28.834 A 0.25 0.25 0 0 0 195.447 28.631 L 182.349 30.94 A 0.25 0.25 0 0 0 182.146 31.23 L 184.456 44.328 A 0.25 0.25 0 0 0 184.746 44.531 Z M 184.746 159.437 L 197.844 157.127 A 0.25 0.25 0 0 0 198.046 156.838 L 195.737 143.74 A 0.25 0.25 0 0 0 195.447 143.537 L 182.349 145.846 A 0.25 0.25 0 0 0 182.146 146.136 L 184.456 159.234 A 0.25 0.25 0 0 0 184.746 159.437 Z M 203.875 28.519 L 217.143 27.591 A 0.25 0.25 0 0 0 217.375 27.325 L 216.447 14.057 A 0.25 0.25 0 0 0 216.18 13.825 L 202.912 14.753 A 0.25 0.25 0 0 0 202.68 15.02 L 203.608 28.287 A 0.25 0.25 0 0 0 203.875 28.519 Z M 203.875 143.425 L 217.143 142.497 A 0.25 0.25 0 0 0 217.375 142.231 L 216.447 128.963 A 0.25 0.25 0 0 0 216.18 128.731 L 202.912 129.659 A 0.25 0.25 0 0 0 202.68 129.926 L 203.608 143.193 A 0.25 0.25 0 0 0 203.875 143.425 Z M 42.667 28.519 L 55.935 27.591 A 0.25 0.25 0 0 0 56.167 27.325 L 55.239 14.057 A 0.25 0.25 0 0 0 54.972 13.825 L 41.704 14.753 A 0.25 0.25 0 0 0 41.472 15.02 L 42.4 28.287 A 0.25 0.25 0 0 0 42.667 28.519 Z M 42.667 143.425 L 55.935 142.497 A 0.25 0.25 0 0 0 56.167 142.231 L 55.239 128.963 A 0.25 0.25 0 0 0 54.972 128.731 L 41.704 129.659 A 0.25 0.25 0 0 0 41.472 129.926 L 42.4 143.193 A 0.25 0.25 0 0 0 42.667 143.425 Z M 45.039 177.342 L 58.306 176.415 A 0.25 0.25 0 0 0 58.538 176.148 L 57.611 162.88 A 0.25 0.25 0 0 0 57.344 162.648 L 44.076 163.576 A 0.25 0.25 0 0 0 43.844 163.843 L 44.772 177.11 A 0.25 0.25 0 0 0 45.039 177.342 Z M 206.247 177.342 L 219.514 176.415 A 0.25 0.25 0 0 0 219.746 176.148 L 218.819 162.88 A 0.25 0.25 0 0 0 218.552 162.648 L 205.284 163.576 A 0.25 0.25 0 0 0 205.052 163.843 L 205.98 177.11 A 0.25 0.25 0 0 0 206.247 177.342 Z M 45.039 62.436 L 58.306 61.509 A 0.25 0.25 0 0 0 58.538 61.242 L 57.611 47.974 A 0.25 0.25 0 0 0 57.344 47.742 L 44.076 48.67 A 0.25 0.25 0 0 0 43.844 48.937 L 44.772 62.204 A 0.25 0.25 0 0 0 45.039 62.436 Z M 206.247 62.436 L 219.514 61.509 A 0.25 0.25 0 0 0 219.746 61.242 L 218.819 47.974 A 0.25 0.25 0 0 0 218.552 47.742 L 205.284 48.67 A 0.25 0.25 0 0 0 205.052 48.937 L 205.98 62.204 A 0.25 0.25 0 0 0 206.247 62.436 Z M 205.061 45.478 L 218.328 44.55 A 0.25 0.25 0 0 0 218.56 44.283 L 217.633 31.016 A 0.25 0.25 0 0 0 217.366 30.784 L 204.098 31.711 A 0.25 0.25 0 0 0 203.866 31.978 L 204.794 45.246 A 0.25 0.25 0 0 0 205.061 45.478 Z M 205.061 160.384 L 218.328 159.456 A 0.25 0.25 0 0 0 218.56 159.189 L 217.633 145.922 A 0.25 0.25 0 0 0 217.366 145.69 L 204.098 146.617 A 0.25 0.25 0 0 0 203.866 146.884 L 204.794 160.152 A 0.25 0.25 0 0 0 205.061 160.384 Z M 43.853 45.478 L 57.12 44.55 A 0.25 0.25 0 0 0 57.352 44.283 L 56.425 31.016 A 0.25 0.25 0 0 0 56.158 30.784 L 42.89 31.711 A 0.25 0.25 0 0 0 42.658 31.978 L 43.586 45.246 A 0.25 0.25 0 0 0 43.853 45.478 Z M 43.853 160.384 L 57.12 159.456 A 0.25 0.25 0 0 0 57.352 159.189 L 56.425 145.922 A 0.25 0.25 0 0 0 56.158 145.69 L 42.89 146.617 A 0.25 0.25 0 0 0 42.658 146.884 L 43.586 160.152 A 0.25 0.25 0 0 0 43.853 160.384 Z M 126.518 211.577 L 135.922 220.982 A 0.25 0.25 0 0 0 136.276 220.982 L 145.68 211.577 A 0.25 0.25 0 0 0 145.68 211.224 L 136.276 201.819 A 0.25 0.25 0 0 0 135.922 201.819 L 126.518 211.224 A 0.25 0.25 0 0 0 126.518 211.577 Z M 126.518 96.671 L 135.922 106.076 A 0.25 0.25 0 0 0 136.276 106.076 L 145.68 96.671 A 0.25 0.25 0 0 0 145.68 96.318 L 136.276 86.913 A 0.25 0.25 0 0 0 135.922 86.913 L 126.518 96.318 A 0.25 0.25 0 0 0 126.518 96.671 Z M 98.374 177.922 L 111.674 177.922 A 0.25 0.25 0 0 0 111.924 177.672 L 111.924 164.372 A 0.25 0.25 0 0 0 111.674 164.122 L 98.374 164.122 A 0.25 0.25 0 0 0 98.124 164.372 L 98.124 177.672 A 0.25 0.25 0 0 0 98.374 177.922 Z M 98.374 143.922 L 111.674 143.922 A 0.25 0.25 0 0 0 111.924 143.672 L 111.924 130.372 A 0.25 0.25 0 0 0 111.674 130.122 L 98.374 130.122 A 0.25 0.25 0 0 0 98.124 130.372 L 98.124 143.672 A 0.25 0.25 0 0 0 98.374 143.922 Z M 259.582 177.922 L 272.882 177.922 A 0.25 0.25 0 0 0 273.132 177.672 L 273.132 164.372 A 0.25 0.25 0 0 0 272.882 164.122 L 259.582 164.122 A 0.25 0.25 0 0 0 259.332 164.372 L 259.332 177.672 A 0.25 0.25 0 0 0 259.582 177.922 Z M 259.582 143.922 L 272.882 143.922 A 0.25 0.25 0 0 0 273.132 143.672 L 273.132 130.372 A 0.25 0.25 0 0 0 272.882 130.122 L 259.582 130.122 A 0.25 0.25 0 0 0 259.332 130.372 L 259.332 143.672 A 0.25 0.25 0 0 0 259.582 143.922 Z M 98.374 29.015 L 111.674 29.015 A 0.25 0.25 0 0 0 111.924 28.765 L 111.924 15.465 A 0.25 0.25 0 0 0 111.674 15.215 L 98.374 15.215 A 0.25 0.25 0 0 0 98.124 15.465 L 98.124 28.765 A 0.25 0.25 0 0 0 98.374 29.015 Z M 259.582 29.015 L 272.882 29.015 A 0.25 0.25 0 0 0 273.132 28.765 L 273.132 15.465 A 0.25 0.25 0 0 0 272.882 15.215 L 259.582 15.215 A 0.25 0.25 0 0 0 259.332 15.465 L 259.332 28.765 A 0.25 0.25 0 0 0 259.582 29.015 Z M 98.374 63.016 L 111.674 63.016 A 0.25 0.25 0 0 0 111.924 62.766 L 111.924 49.466 A 0.25 0.25 0 0 0 111.674 49.216 L 98.374 49.216 A 0.25 0.25 0 0 0 98.124 49.466 L 98.124 62.766 A 0.25 0.25 0 0 0 98.374 63.016 Z M 98.374 46.016 L 111.674 46.016 A 0.25 0.25 0 0 0 111.924 45.766 L 111.924 32.466 A 0.25 0.25 0 0 0 111.674 32.216 L 98.374 32.216 A 0.25 0.25 0 0 0 98.124 32.466 L 98.124 45.766 A 0.25 0.25 0 0 0 98.374 46.016 Z M 259.582 63.016 L 272.882 63.016 A 0.25 0.25 0 0 0 273.132 62.766 L 273.132 49.466 A 0.25 0.25 0 0 0 272.882 49.216 L 259.582 49.216 A 0.25 0.25 0 0 0 259.332 49.466 L 259.332 62.766 A 0.25 0.25 0 0 0 259.582 63.016 Z M 259.582 46.016 L 272.882 46.016 A 0.25 0.25 0 0 0 273.132 45.766 L 273.132 32.466 A 0.25 0.25 0 0 0 272.882 32.216 L 259.582 32.216 A 0.25 0.25 0 0 0 259.332 32.466 L 259.332 45.766 A 0.25 0.25 0 0 0 259.582 46.016 Z M 236.732 80.996 L 250.032 80.996 A 0.25 0.25 0 0 0 250.282 80.746 L 250.282 67.446 A 0.25 0.25 0 0 0 250.032 67.196 L 236.732 67.196 A 0.25 0.25 0 0 0 236.482 67.446 L 236.482 80.746 A 0.25 0.25 0 0 0 236.732 80.996 Z M 62.374 149.702 L 75.674 149.702 A 0.25 0.25 0 0 0 75.924 149.452 L 75.924 136.152 A 0.25 0.25 0 0 0 75.674 135.902 L 62.374 135.902 A 0.25 0.25 0 0 0 62.124 136.152 L 62.124 149.452 A 0.25 0.25 0 0 0 62.374 149.702 Z M 80.374 158.202 L 93.674 158.202 A 0.25 0.25 0 0 0 93.924 157.952 L 93.924 144.652 A 0.25 0.25 0 0 0 93.674 144.402 L 80.374 144.402 A 0.25 0.25 0 0 0 80.124 144.652 L 80.124 157.952 A 0.25 0.25 0 0 0 80.374 158.202 Z M 62.374 51.796 L 75.674 51.796 A 0.25 0.25 0 0 0 75.924 51.546 L 75.924 38.246 A 0.25 0.25 0 0 0 75.674 37.996 L 62.374 37.996 A 0.25 0.25 0 0 0 62.124 38.246 L 62.124 51.546 A 0.25 0.25 0 0 0 62.374 51.796 Z M 62.374 34.796 L 75.674 34.796 A 0.25 0.25 0 0 0 75.924 34.546 L 75.924 21.245 A 0.25 0.25 0 0 0 75.674 20.995 L 62.374 20.995 A 0.25 0.25 0 0 0 62.124 21.245 L 62.124 34.546 A 0.25 0.25 0 0 0 62.374 34.796 Z M 80.374 43.296 L 93.674 43.296 A 0.25 0.25 0 0 0 93.924 43.046 L 93.924 29.745 A 0.25 0.25 0 0 0 93.674 29.495 L 80.374 29.495 A 0.25 0.25 0 0 0 80.124 29.745 L 80.124 43.046 A 0.25 0.25 0 0 0 80.374 43.296 Z M 62.374 17.795 L 75.674 17.795 A 0.25 0.25 0 0 0 75.924 17.545 L 75.924 4.246 A 0.25 0.25 0 0 0 75.674 3.996 L 62.374 3.996 A 0.25 0.25 0 0 0 62.124 4.246 L 62.124 17.545 A 0.25 0.25 0 0 0 62.374 17.795 Z M 80.374 60.296 L 93.674 60.296 A 0.25 0.25 0 0 0 93.924 60.046 L 93.924 46.746 A 0.25 0.25 0 0 0 93.674 46.496 L 80.374 46.496 A 0.25 0.25 0 0 0 80.124 46.746 L 80.124 60.046 A 0.25 0.25 0 0 0 80.374 60.296 Z M 80.374 26.295 L 93.674 26.295 A 0.25 0.25 0 0 0 93.924 26.045 L 93.924 12.746 A 0.25 0.25 0 0 0 93.674 12.496 L 80.374 12.496 A 0.25 0.25 0 0 0 80.124 12.746 L 80.124 26.045 A 0.25 0.25 0 0 0 80.374 26.295 Z M 75.524 80.996 L 88.824 80.996 A 0.25 0.25 0 0 0 89.074 80.746 L 89.074 67.446 A 0.25 0.25 0 0 0 88.824 67.196 L 75.524 67.196 A 0.25 0.25 0 0 0 75.274 67.446 L 75.274 80.746 A 0.25 0.25 0 0 0 75.524 80.996 Z M 62.374 166.702 L 75.674 166.702 A 0.25 0.25 0 0 0 75.924 166.452 L 75.924 153.152 A 0.25 0.25 0 0 0 75.674 152.902 L 62.374 152.902 A 0.25 0.25 0 0 0 62.124 153.152 L 62.124 166.452 A 0.25 0.25 0 0 0 62.374 166.702 Z M 62.374 132.702 L 75.674 132.702 A 0.25 0.25 0 0 0 75.924 132.452 L 75.924 119.152 A 0.25 0.25 0 0 0 75.674 118.902 L 62.374 118.902 A 0.25 0.25 0 0 0 62.124 119.152 L 62.124 132.452 A 0.25 0.25 0 0 0 62.374 132.702 Z M 80.374 141.202 L 93.674 141.202 A 0.25 0.25 0 0 0 93.924 140.952 L 93.924 127.652 A 0.25 0.25 0 0 0 93.674 127.402 L 80.374 127.402 A 0.25 0.25 0 0 0 80.124 127.652 L 80.124 140.952 A 0.25 0.25 0 0 0 80.374 141.202 Z M 98.374 160.922 L 111.674 160.922 A 0.25 0.25 0 0 0 111.924 160.672 L 111.924 147.372 A 0.25 0.25 0 0 0 111.674 147.122 L 98.374 147.122 A 0.25 0.25 0 0 0 98.124 147.372 L 98.124 160.672 A 0.25 0.25 0 0 0 98.374 160.922 Z M 223.582 149.702 L 236.882 149.702 A 0.25 0.25 0 0 0 237.132 149.452 L 237.132 136.152 A 0.25 0.25 0 0 0 236.882 135.902 L 223.582 135.902 A 0.25 0.25 0 0 0 223.332 136.152 L 223.332 149.452 A 0.25 0.25 0 0 0 223.582 149.702 Z M 241.582 158.202 L 254.882 158.202 A 0.25 0.25 0 0 0 255.132 157.952 L 255.132 144.652 A 0.25 0.25 0 0 0 254.882 144.402 L 241.582 144.402 A 0.25 0.25 0 0 0 241.332 144.652 L 241.332 157.952 A 0.25 0.25 0 0 0 241.582 158.202 Z M 259.582 160.922 L 272.882 160.922 A 0.25 0.25 0 0 0 273.132 160.672 L 273.132 147.372 A 0.25 0.25 0 0 0 272.882 147.122 L 259.582 147.122 A 0.25 0.25 0 0 0 259.332 147.372 L 259.332 160.672 A 0.25 0.25 0 0 0 259.582 160.922 Z M 236.732 195.902 L 250.032 195.902 A 0.25 0.25 0 0 0 250.282 195.652 L 250.282 182.352 A 0.25 0.25 0 0 0 250.032 182.102 L 236.732 182.102 A 0.25 0.25 0 0 0 236.482 182.352 L 236.482 195.652 A 0.25 0.25 0 0 0 236.732 195.902 Z M 223.582 51.796 L 236.882 51.796 A 0.25 0.25 0 0 0 237.132 51.546 L 237.132 38.246 A 0.25 0.25 0 0 0 236.882 37.996 L 223.582 37.996 A 0.25 0.25 0 0 0 223.332 38.246 L 223.332 51.546 A 0.25 0.25 0 0 0 223.582 51.796 Z M 223.582 34.796 L 236.882 34.796 A 0.25 0.25 0 0 0 237.132 34.546 L 237.132 21.245 A 0.25 0.25 0 0 0 236.882 20.995 L 223.582 20.995 A 0.25 0.25 0 0 0 223.332 21.245 L 223.332 34.546 A 0.25 0.25 0 0 0 223.582 34.796 Z M 241.582 43.296 L 254.882 43.296 A 0.25 0.25 0 0 0 255.132 43.046 L 255.132 29.745 A 0.25 0.25 0 0 0 254.882 29.495 L 241.582 29.495 A 0.25 0.25 0 0 0 241.332 29.745 L 241.332 43.046 A 0.25 0.25 0 0 0 241.582 43.296 Z M 223.582 17.795 L 236.882 17.795 A 0.25 0.25 0 0 0 237.132 17.545 L 237.132 4.246 A 0.25 0.25 0 0 0 236.882 3.996 L 223.582 3.996 A 0.25 0.25 0 0 0 223.332 4.246 L 223.332 17.545 A 0.25 0.25 0 0 0 223.582 17.795 Z M 241.582 60.296 L 254.882 60.296 A 0.25 0.25 0 0 0 255.132 60.046 L 255.132 46.746 A 0.25 0.25 0 0 0 254.882 46.496 L 241.582 46.496 A 0.25 0.25 0 0 0 241.332 46.746 L 241.332 60.046 A 0.25 0.25 0 0 0 241.582 60.296 Z M 241.582 26.295 L 254.882 26.295 A 0.25 0.25 0 0 0 255.132 26.045 L 255.132 12.746 A 0.25 0.25 0 0 0 254.882 12.496 L 241.582 12.496 A 0.25 0.25 0 0 0 241.332 12.746 L 241.332 26.045 A 0.25 0.25 0 0 0 241.582 26.295 Z M 80.374 175.202 L 93.674 175.202 A 0.25 0.25 0 0 0 93.924 174.952 L 93.924 161.652 A 0.25 0.25 0 0 0 93.674 161.402 L 80.374 161.402 A 0.25 0.25 0 0 0 80.124 161.652 L 80.124 174.952 A 0.25 0.25 0 0 0 80.374 175.202 Z M 75.524 195.902 L 88.824 195.902 A 0.25 0.25 0 0 0 89.074 195.652 L 89.074 182.352 A 0.25 0.25 0 0 0 88.824 182.102 L 75.524 182.102 A 0.25 0.25 0 0 0 75.274 182.352 L 75.274 195.652 A 0.25 0.25 0 0 0 75.524 195.902 Z M 223.582 166.702 L 236.882 166.702 A 0.25 0.25 0 0 0 237.132 166.452 L 237.132 153.152 A 0.25 0.25 0 0 0 236.882 152.902 L 223.582 152.902 A 0.25 0.25 0 0 0 223.332 153.152 L 223.332 166.452 A 0.25 0.25 0 0 0 223.582 166.702 Z M 223.582 132.702 L 236.882 132.702 A 0.25 0.25 0 0 0 237.132 132.452 L 237.132 119.152 A 0.25 0.25 0 0 0 236.882 118.902 L 223.582 118.902 A 0.25 0.25 0 0 0 223.332 119.152 L 223.332 132.452 A 0.25 0.25 0 0 0 223.582 132.702 Z M 241.582 141.202 L 254.882 141.202 A 0.25 0.25 0 0 0 255.132 140.952 L 255.132 127.652 A 0.25 0.25 0 0 0 254.882 127.402 L 241.582 127.402 A 0.25 0.25 0 0 0 241.332 127.652 L 241.332 140.952 A 0.25 0.25 0 0 0 241.582 141.202 Z M 241.582 175.202 L 254.882 175.202 A 0.25 0.25 0 0 0 255.132 174.952 L 255.132 161.652 A 0.25 0.25 0 0 0 254.882 161.402 L 241.582 161.402 A 0.25 0.25 0 0 0 241.332 161.652 L 241.332 174.952 A 0.25 0.25 0 0 0 241.582 175.202 Z M 111.101 87.005 L 122.619 93.655 A 0.25 0.25 0 0 0 122.961 93.564 L 129.611 82.046 A 0.25 0.25 0 0 0 129.519 81.704 L 118.001 75.054 A 0.25 0.25 0 0 0 117.66 75.146 L 111.01 86.664 A 0.25 0.25 0 0 0 111.101 87.005 Z M 111.101 201.911 L 122.619 208.561 A 0.25 0.25 0 0 0 122.961 208.47 L 129.611 196.952 A 0.25 0.25 0 0 0 129.519 196.61 L 118.001 189.96 A 0.25 0.25 0 0 0 117.66 190.052 L 111.01 201.57 A 0.25 0.25 0 0 0 111.101 201.911 Z M 272.309 87.005 L 283.827 93.655 A 0.25 0.25 0 0 0 284.169 93.564 L 290.819 82.046 A 0.25 0.25 0 0 0 290.727 81.704 L 279.209 75.054 A 0.25 0.25 0 0 0 278.868 75.146 L 272.218 86.664 A 0.25 0.25 0 0 0 272.309 87.005 Z M 272.309 201.911 L 283.827 208.561 A 0.25 0.25 0 0 0 284.169 208.47 L 290.819 196.952 A 0.25 0.25 0 0 0 290.727 196.61 L 279.209 189.96 A 0.25 0.25 0 0 0 278.868 190.052 L 272.218 201.57 A 0.25 0.25 0 0 0 272.309 201.911 Z M 93.708 81.659 L 106.555 85.101 A 0.25 0.25 0 0 0 106.861 84.924 L 110.304 72.077 A 0.25 0.25 0 0 0 110.127 71.771 L 97.28 68.329 A 0.25 0.25 0 0 0 96.974 68.506 L 93.532 81.352 A 0.25 0.25 0 0 0 93.708 81.659 Z M 93.708 196.565 L 106.555 200.007 A 0.25 0.25 0 0 0 106.861 199.83 L 110.304 186.983 A 0.25 0.25 0 0 0 110.127 186.677 L 97.28 183.235 A 0.25 0.25 0 0 0 96.974 183.412 L 93.532 196.258 A 0.25 0.25 0 0 0 93.708 196.565 Z M 254.916 81.659 L 267.763 85.101 A 0.25 0.25 0 0 0 268.069 84.924 L 271.512 72.077 A 0.25 0.25 0 0 0 271.335 71.771 L 258.488 68.329 A 0.25 0.25 0 0 0 258.182 68.506 L 254.74 81.352 A 0.25 0.25 0 0 0 254.916 81.659 Z M 254.916 196.565 L 267.763 200.007 A 0.25 0.25 0 0 0 268.069 199.83 L 271.512 186.983 A 0.25 0.25 0 0 0 271.335 186.677 L 258.488 183.235 A 0.25 0.25 0 0 0 258.182 183.412 L 254.74 196.258 A 0.25 0.25 0 0 0 254.916 196.565 Z M 59.024 28.896 m -1.1 0 a 1.1 1.1 0 0 1 2.2 0 a 1.1 1.1 0 0 1 -2.2 0 z M 95.674 27.896 m -1.1 0 a 1.1 1.1 0 0 1 2.2 0 a 1.1 1.1 0 0 1 -2.2 0 z M 72.548 74.583 m -1.1 0 a 1.1 1.1 0 0 1 2.2 0 a 1.1 1.1 0 0 1 -2.2 0 z M 128.721 89.788 m -1.1 0 a 1.1 1.1 0 0 1 2.2 0 a 1.1 1.1 0 0 1 -2.2 0 z M 22.691 55.279 m -1.1 0 a 1.1 1.1 0 0 1 2.2 0 a 1.1 1.1 0 0 1 -2.2 0 z M 220.232 28.896 m -1.1 0 a 1.1 1.1 0 0 1 2.2 0 a 1.1 1.1 0 0 1 -2.2 0 z M 256.882 27.896 m -1.1 0 a 1.1 1.1 0 0 1 2.2 0 a 1.1 1.1 0 0 1 -2.2 0 z M 272.656 79.786 m -1.1 0 a 1.1 1.1 0 0 1 2.2 0 a 1.1 1.1 0 0 1 -2.2 0 z M 233.756 74.583 m -1.1 0 a 1.1 1.1 0 0 1 2.2 0 a 1.1 1.1 0 0 1 -2.2 0 z M 183.899 55.279 m -1.1 0 a 1.1 1.1 0 0 1 2.2 0 a 1.1 1.1 0 0 1 -2.2 0 z M 59.024 143.802 m -1.1 0 a 1.1 1.1 0 0 1 2.2 0 a 1.1 1.1 0 0 1 -2.2 0 z M 95.674 142.802 m -1.1 0 a 1.1 1.1 0 0 1 2.2 0 a 1.1 1.1 0 0 1 -2.2 0 z M 72.548 189.489 m -1.1 0 a 1.1 1.1 0 0 1 2.2 0 a 1.1 1.1 0 0 1 -2.2 0 z M 42.098 175.067 m -1.1 0 a 1.1 1.1 0 0 1 2.2 0 a 1.1 1.1 0 0 1 -2.2 0 z M 128.721 204.694 m -1.1 0 a 1.1 1.1 0 0 1 2.2 0 a 1.1 1.1 0 0 1 -2.2 0 z M 220.232 143.802 m -1.1 0 a 1.1 1.1 0 0 1 2.2 0 a 1.1 1.1 0 0 1 -2.2 0 z M 256.882 142.802 m -1.1 0 a 1.1 1.1 0 0 1 2.2 0 a 1.1 1.1 0 0 1 -2.2 0 z M 272.656 194.692 m -1.1 0 a 1.1 1.1 0 0 1 2.2 0 a 1.1 1.1 0 0 1 -2.2 0 z M 233.756 189.489 m -1.1 0 a 1.1 1.1 0 0 1 2.2 0 a 1.1 1.1 0 0 1 -2.2 0 z M 203.306 175.067 m -1.1 0 a 1.1 1.1 0 0 1 2.2 0 a 1.1 1.1 0 0 1 -2.2 0 z M 118.044 68.595 m -1 0 a 1 1 0 0 1 2 0 a 1 1 0 0 1 -2 0 z M 131.644 76.45 m -1 0 a 1 1 0 0 1 2 0 a 1 1 0 0 1 -2 0 z M 279.252 68.595 m -1 0 a 1 1 0 0 1 2 0 a 1 1 0 0 1 -2 0 z M 292.852 76.45 m -1 0 a 1 1 0 0 1 2 0 a 1 1 0 0 1 -2 0 z M 118.044 183.502 m -1 0 a 1 1 0 0 1 2 0 a 1 1 0 0 1 -2 0 z M 131.644 191.356 m -1 0 a 1 1 0 0 1 2 0 a 1 1 0 0 1 -2 0 z M 279.252 183.502 m -1 0 a 1 1 0 0 1 2 0 a 1 1 0 0 1 -2 0 z M 292.852 191.356 m -1 0 a 1 1 0 0 1 2 0 a 1 1 0 0 1 -2 0 z" vector-effect="non-scaling-stroke"/></g></svg>