<svg width="305.134mm" height="219.642mm" viewBox="0 0 305.134 219.642" xmlns="http://www.w3.org/2000/svg"><g id="svgGroup" stroke-linecap="round" fill-rule="evenodd" font-size="9pt" stroke="#e2725b" stroke-width="0.25mm" fill="none" style="stroke:#e2725b;stroke-width:0.25mm;fill:none"><path d="M 135.833 194.265 L 135.833 137.106 A 2.95 2.95 0 0 0 132.883 134.156 L 119.334 134.156 A 2.95 2.95 0 0 1 116.384 131.206 L 116.384 123.806 A 2.95 2.95 0 0 0 113.434 120.856 L 83.334 120.856 A 2.95 2.95 0 0 1 80.384 117.906 L 80.384 117.856 A 2.95 2.95 0 0 0 77.434 114.906 L 60.583 114.906 A 2.95 2.95 0 0 0 57.633 117.856 L 57.633 119.232 A 2.95 2.95 0 0 1 54.888 122.174 L 39.462 123.253 A 2.95 2.95 0 0 0 36.725 126.402 L 37.222 133.5 A 2.95 2.95 0 0 1 34.74 136.62 L 19.122 139.094 A 2.95 2.95 0 0 0 16.67 142.469 L 17.13 145.373 A 2.95 2.95 0 0 1 14.677 148.748 L 2.726 150.641 L 2.489 150.678 A 2.95 2.95 0 0 0 0 153.592 L 0 183.399 A 5.9 5.9 0 0 0 6.823 189.226 L 15.481 187.855 L 20.739 187.022 A 2.95 2.95 0 0 1 24.115 189.474 L 24.468 191.706 A 2.95 2.95 0 0 0 27.843 194.158 L 44.487 191.522 A 2.95 2.95 0 0 0 46.939 188.147 L 45.95 181.902 A 2.95 2.95 0 0 1 48.658 178.497 L 60.957 177.637 A 2.95 2.95 0 0 1 64.113 180.58 L 64.113 190.657 A 2.95 2.95 0 0 0 67.063 193.607 L 75.453 193.607 A 65.32 65.32 0 0 1 91.429 195.591 L 93.285 196.088 A 65.32 65.32 0 0 1 107.278 201.884 L 108.942 202.845 A 65.32 65.32 0 0 1 121.641 212.739 L 127.68 218.778 A 2.95 2.95 0 0 0 131.852 218.778 L 143.062 207.569 A 2.95 2.95 0 0 0 143.064 203.398 L 137.062 197.386 A 2.95 2.95 0 0 1 136.855 197.156 A 4.6 4.6 0 0 1 135.833 194.265 Z M 135.833 79.359 L 135.833 22.2 A 2.95 2.95 0 0 0 132.883 19.25 L 119.334 19.25 A 2.95 2.95 0 0 1 116.384 16.3 L 116.384 8.9 A 2.95 2.95 0 0 0 113.434 5.95 L 83.334 5.95 A 2.95 2.95 0 0 1 80.384 3 L 80.384 2.95 A 2.95 2.95 0 0 0 77.434 0 L 60.583 0 A 2.95 2.95 0 0 0 57.633 2.95 L 57.633 4.326 A 2.95 2.95 0 0 1 54.888 7.268 L 39.462 8.347 A 2.95 2.95 0 0 0 36.725 11.496 L 37.222 18.594 A 2.95 2.95 0 0 1 34.74 21.714 L 19.122 24.188 A 2.95 2.95 0 0 0 16.67 27.563 L 17.13 30.467 A 2.95 2.95 0 0 1 14.677 33.842 L 2.726 35.735 A 2.95 2.95 0 0 0 0.274 39.11 L 5.413 71.556 A 2.95 2.95 0 0 0 8.788 74.009 L 20.739 72.116 A 2.95 2.95 0 0 1 24.115 74.568 L 24.468 76.8 A 2.95 2.95 0 0 0 27.843 79.252 L 44.487 76.616 A 2.95 2.95 0 0 0 46.939 73.241 L 45.95 66.996 A 2.95 2.95 0 0 1 48.658 63.591 L 60.957 62.731 A 2.95 2.95 0 0 1 64.113 65.674 L 64.113 75.751 A 2.95 2.95 0 0 0 67.063 78.701 L 75.453 78.701 A 65.32 65.32 0 0 1 91.429 80.685 L 93.285 81.182 A 65.32 65.32 0 0 1 107.278 86.978 L 108.942 87.939 A 65.32 65.32 0 0 1 121.641 97.833 L 127.68 103.872 A 2.95 2.95 0 0 0 131.852 103.872 L 143.062 92.663 A 2.95 2.95 0 0 0 143.064 88.492 L 137.062 82.48 A 2.95 2.95 0 0 1 136.855 82.25 A 4.6 4.6 0 0 1 135.833 79.359 Z M 134.633 79.359 L 134.633 23.501 A 3.05 3.05 0 0 0 131.583 20.451 L 118.034 20.451 A 2.85 2.85 0 0 1 115.184 17.601 L 115.184 10.2 A 3.05 3.05 0 0 0 112.134 7.15 L 82.034 7.15 A 2.85 2.85 0 0 1 79.184 4.3 L 79.184 4.25 A 3.05 3.05 0 0 0 76.134 1.2 L 61.883 1.2 A 3.05 3.05 0 0 0 58.833 4.25 L 58.833 5.538 A 2.85 2.85 0 0 1 56.182 8.381 L 40.843 9.454 A 3.05 3.05 0 0 0 38.013 12.709 L 38.502 19.699 A 2.85 2.85 0 0 1 36.105 22.713 L 20.594 25.17 A 3.05 3.05 0 0 0 18.058 28.659 L 18.518 31.563 A 2.85 2.85 0 0 1 16.149 34.824 L 4.198 36.717 A 3.05 3.05 0 0 0 1.663 40.206 L 6.395 70.085 A 3.05 3.05 0 0 0 9.885 72.62 L 21.836 70.727 A 2.85 2.85 0 0 1 25.096 73.096 L 25.45 75.328 A 3.05 3.05 0 0 0 28.94 77.864 L 43.015 75.634 A 3.05 3.05 0 0 0 45.55 72.145 L 44.543 65.782 A 2.85 2.85 0 0 1 47.159 62.493 L 62.264 61.437 A 2.85 2.85 0 0 1 65.313 64.28 L 65.313 74.451 A 3.05 3.05 0 0 0 68.363 77.501 L 75.453 77.501 A 66.52 66.52 0 0 1 91.732 79.524 L 93.604 80.025 A 66.52 66.52 0 0 1 107.87 85.934 L 109.549 86.904 A 66.52 66.52 0 0 1 122.49 96.984 L 127.61 102.104 A 3.05 3.05 0 0 0 131.923 102.104 L 141.295 92.732 A 3.05 3.05 0 0 0 141.297 88.421 L 136.171 83.286 A 2.85 2.85 0 0 1 136.02 83.122 A 5.8 5.8 0 0 1 134.633 79.359 Z M 134.633 194.265 L 134.633 138.407 A 3.05 3.05 0 0 0 131.583 135.357 L 118.034 135.357 A 2.85 2.85 0 0 1 115.184 132.507 L 115.184 125.106 A 3.05 3.05 0 0 0 112.134 122.056 L 82.034 122.056 A 2.85 2.85 0 0 1 79.184 119.206 L 79.184 119.156 A 3.05 3.05 0 0 0 76.134 116.106 L 61.883 116.106 A 3.05 3.05 0 0 0 58.833 119.156 L 58.833 120.444 A 2.85 2.85 0 0 1 56.182 123.287 L 40.843 124.36 A 3.05 3.05 0 0 0 38.013 127.615 L 38.502 134.605 A 2.85 2.85 0 0 1 36.105 137.619 L 20.594 140.076 A 3.05 3.05 0 0 0 18.058 143.565 L 18.518 146.469 A 2.85 2.85 0 0 1 16.149 149.73 L 4.198 151.623 A 3.05 3.05 0 0 0 1.663 155.112 L 6.395 184.991 A 3.05 3.05 0 0 0 9.885 187.526 L 21.836 185.633 A 2.85 2.85 0 0 1 25.096 188.002 L 25.45 190.234 A 3.05 3.05 0 0 0 28.94 192.77 L 43.015 190.54 A 3.05 3.05 0 0 0 45.55 187.051 L 44.543 180.688 A 2.85 2.85 0 0 1 47.159 177.399 L 62.264 176.343 A 2.85 2.85 0 0 1 65.313 179.186 L 65.313 189.357 A 3.05 3.05 0 0 0 68.363 192.407 L 75.453 192.407 A 66.52 66.52 0 0 1 91.732 194.43 L 93.604 194.931 A 66.52 66.52 0 0 1 107.87 200.84 L 109.549 201.81 A 66.52 66.52 0 0 1 122.49 211.89 L 127.61 217.01 A 3.05 3.05 0 0 0 131.923 217.01 L 141.295 207.638 A 3.05 3.05 0 0 0 141.297 203.327 L 136.171 198.192 A 2.85 2.85 0 0 1 136.02 198.028 A 5.8 5.8 0 0 1 134.633 194.265 Z M 9.859 72.531 L 21.81 70.638 A 2.95 2.95 0 0 1 25.185 73.091 L 25.539 75.323 A 2.95 2.95 0 0 0 28.914 77.775 L 42.989 75.546 A 2.95 2.95 0 0 0 45.442 72.17 L 44.434 65.808 A 2.95 2.95 0 0 1 47.142 62.403 L 62.247 61.347 A 2.95 2.95 0 0 1 65.403 64.29 L 65.403 74.461 A 2.95 2.95 0 0 0 68.353 77.411 L 75.443 77.411 A 66.62 66.62 0 0 1 91.747 79.437 L 93.621 79.939 A 66.62 66.62 0 0 1 107.909 85.858 L 109.59 86.828 A 66.62 66.62 0 0 1 122.551 96.924 L 127.67 102.043 A 2.95 2.95 0 0 0 131.842 102.043 L 141.214 92.672 A 2.95 2.95 0 0 0 141.216 88.502 L 136.091 83.367 A 2.95 2.95 0 0 1 135.934 83.197 A 5.9 5.9 0 0 1 134.582 80.198 A 2.95 2.95 0 0 0 133.19 78.34 L 116.549 68.732 A 2.95 2.95 0 0 1 115.074 66.177 L 115.074 10.21 A 2.95 2.95 0 0 0 112.124 7.26 L 82.024 7.26 A 2.95 2.95 0 0 1 79.074 4.31 L 79.074 4.26 A 2.95 2.95 0 0 0 76.124 1.31 L 61.873 1.31 A 2.95 2.95 0 0 0 58.923 4.26 L 58.923 5.548 A 2.95 2.95 0 0 1 56.178 8.491 L 40.84 9.563 A 2.95 2.95 0 0 0 38.103 12.712 L 38.592 19.702 A 2.95 2.95 0 0 1 36.111 22.822 L 20.599 25.278 A 2.95 2.95 0 0 0 18.147 28.653 L 18.607 31.557 A 2.95 2.95 0 0 1 16.155 34.932 L 4.204 36.825 A 2.95 2.95 0 0 0 1.752 40.2 L 6.484 70.079 A 2.95 2.95 0 0 0 9.859 72.531 Z M 9.859 187.437 L 21.81 185.544 A 2.95 2.95 0 0 1 25.185 187.997 L 25.539 190.229 A 2.95 2.95 0 0 0 28.914 192.681 L 42.989 190.452 A 2.95 2.95 0 0 0 45.442 187.076 L 44.434 180.714 A 2.95 2.95 0 0 1 47.142 177.309 L 62.247 176.253 A 2.95 2.95 0 0 1 65.403 179.196 L 65.403 189.367 A 2.95 2.95 0 0 0 68.353 192.317 L 75.443 192.317 A 66.62 66.62 0 0 1 91.747 194.343 L 93.621 194.845 A 66.62 66.62 0 0 1 107.909 200.764 L 109.59 201.734 A 66.62 66.62 0 0 1 122.551 211.83 L 127.67 216.949 A 2.95 2.95 0 0 0 131.842 216.949 L 141.214 207.578 A 2.95 2.95 0 0 0 141.216 203.408 L 136.091 198.273 A 2.95 2.95 0 0 1 135.934 198.103 A 5.9 5.9 0 0 1 134.582 195.104 A 2.95 2.95 0 0 0 133.19 193.246 L 116.549 183.638 A 2.95 2.95 0 0 1 115.074 181.083 L 115.074 125.116 A 2.95 2.95 0 0 0 112.124 122.166 L 82.024 122.166 A 2.95 2.95 0 0 1 79.074 119.216 L 79.074 119.166 A 2.95 2.95 0 0 0 76.124 116.216 L 61.873 116.216 A 2.95 2.95 0 0 0 58.923 119.166 L 58.923 120.454 A 2.95 2.95 0 0 1 56.178 123.397 L 40.84 124.469 A 2.95 2.95 0 0 0 38.103 127.618 L 38.592 134.608 A 2.95 2.95 0 0 1 36.111 137.728 L 20.599 140.184 A 2.95 2.95 0 0 0 18.147 143.559 L 18.607 146.463 A 2.95 2.95 0 0 1 16.155 149.838 L 4.204 151.731 A 2.95 2.95 0 0 0 1.752 155.106 L 6.484 184.985 A 2.95 2.95 0 0 0 9.859 187.437 Z M 297.041 194.265 L 297.041 137.106 A 2.95 2.95 0 0 0 294.091 134.156 L 280.542 134.156 A 2.95 2.95 0 0 1 277.592 131.206 L 277.592 123.806 A 2.95 2.95 0 0 0 274.642 120.856 L 244.542 120.856 A 2.95 2.95 0 0 1 241.592 117.906 L 241.592 117.856 A 2.95 2.95 0 0 0 238.642 114.906 L 221.791 114.906 A 2.95 2.95 0 0 0 218.841 117.856 L 218.841 119.232 A 2.95 2.95 0 0 1 216.096 122.174 L 200.67 123.253 A 2.95 2.95 0 0 0 197.933 126.402 L 198.43 133.5 A 2.95 2.95 0 0 1 195.948 136.62 L 180.33 139.094 L 180.092 139.131 A 2.95 2.95 0 0 0 177.604 142.045 L 177.604 189.064 A 5.9 5.9 0 0 0 184.426 194.891 L 195.744 193.098 L 205.695 191.522 A 2.95 2.95 0 0 0 208.147 188.147 L 207.158 181.902 A 2.95 2.95 0 0 1 209.866 178.497 L 222.165 177.637 A 2.95 2.95 0 0 1 225.321 180.58 L 225.321 190.657 A 2.95 2.95 0 0 0 228.271 193.607 L 236.661 193.607 A 65.32 65.32 0 0 1 252.637 195.591 L 254.493 196.088 A 65.32 65.32 0 0 1 268.486 201.884 L 270.15 202.845 A 65.32 65.32 0 0 1 282.849 212.739 L 288.888 218.778 A 2.95 2.95 0 0 0 293.06 218.778 L 304.27 207.569 A 2.95 2.95 0 0 0 304.272 203.398 L 298.27 197.386 A 2.95 2.95 0 0 1 298.063 197.156 A 4.6 4.6 0 0 1 297.041 194.265 Z M 297.041 79.359 L 297.041 22.2 A 2.95 2.95 0 0 0 294.091 19.25 L 280.542 19.25 A 2.95 2.95 0 0 1 277.592 16.3 L 277.592 8.9 A 2.95 2.95 0 0 0 274.642 5.95 L 244.542 5.95 A 2.95 2.95 0 0 1 241.592 3 L 241.592 2.95 A 2.95 2.95 0 0 0 238.642 0 L 221.791 0 A 2.95 2.95 0 0 0 218.841 2.95 L 218.841 4.326 A 2.95 2.95 0 0 1 216.096 7.268 L 200.67 8.347 A 2.95 2.95 0 0 0 197.933 11.496 L 198.43 18.594 A 2.95 2.95 0 0 1 195.948 21.714 L 180.33 24.188 A 2.95 2.95 0 0 0 177.878 27.563 L 185.676 76.8 A 2.95 2.95 0 0 0 189.051 79.252 L 205.695 76.616 A 2.95 2.95 0 0 0 208.147 73.241 L 207.158 66.996 A 2.95 2.95 0 0 1 209.866 63.591 L 222.165 62.731 A 2.95 2.95 0 0 1 225.321 65.674 L 225.321 75.751 A 2.95 2.95 0 0 0 228.271 78.701 L 236.661 78.701 A 65.32 65.32 0 0 1 252.637 80.685 L 254.493 81.182 A 65.32 65.32 0 0 1 268.486 86.978 L 270.15 87.939 A 65.32 65.32 0 0 1 282.849 97.833 L 288.888 103.872 A 2.95 2.95 0 0 0 293.06 103.872 L 304.27 92.663 A 2.95 2.95 0 0 0 304.272 88.492 L 298.27 82.48 A 2.95 2.95 0 0 1 298.063 82.25 A 4.6 4.6 0 0 1 297.041 79.359 Z M 295.841 79.359 L 295.841 23.501 A 3.05 3.05 0 0 0 292.791 20.451 L 279.242 20.451 A 2.85 2.85 0 0 1 276.392 17.601 L 276.392 10.2 A 3.05 3.05 0 0 0 273.342 7.15 L 243.242 7.15 A 2.85 2.85 0 0 1 240.392 4.3 L 240.392 4.25 A 3.05 3.05 0 0 0 237.342 1.2 L 223.091 1.2 A 3.05 3.05 0 0 0 220.041 4.25 L 220.041 5.538 A 2.85 2.85 0 0 1 217.39 8.381 L 202.051 9.454 A 3.05 3.05 0 0 0 199.221 12.709 L 199.71 19.699 A 2.85 2.85 0 0 1 197.313 22.713 L 181.802 25.17 A 3.05 3.05 0 0 0 179.266 28.659 L 186.658 75.328 A 3.05 3.05 0 0 0 190.148 77.864 L 204.223 75.634 A 3.05 3.05 0 0 0 206.758 72.145 L 205.751 65.782 A 2.85 2.85 0 0 1 208.367 62.493 L 223.472 61.437 A 2.85 2.85 0 0 1 226.521 64.28 L 226.521 74.451 A 3.05 3.05 0 0 0 229.571 77.501 L 236.661 77.501 A 66.52 66.52 0 0 1 252.94 79.524 L 254.812 80.025 A 66.52 66.52 0 0 1 269.078 85.934 L 270.757 86.904 A 66.52 66.52 0 0 1 283.698 96.984 L 288.818 102.104 A 3.05 3.05 0 0 0 293.131 102.104 L 302.503 92.732 A 3.05 3.05 0 0 0 302.505 88.421 L 297.379 83.286 A 2.85 2.85 0 0 1 297.228 83.122 A 5.8 5.8 0 0 1 295.841 79.359 Z M 295.841 194.265 L 295.841 138.407 A 3.05 3.05 0 0 0 292.791 135.357 L 279.242 135.357 A 2.85 2.85 0 0 1 276.392 132.507 L 276.392 125.106 A 3.05 3.05 0 0 0 273.342 122.056 L 243.242 122.056 A 2.85 2.85 0 0 1 240.392 119.206 L 240.392 119.156 A 3.05 3.05 0 0 0 237.342 116.106 L 223.091 116.106 A 3.05 3.05 0 0 0 220.041 119.156 L 220.041 120.444 A 2.85 2.85 0 0 1 217.39 123.287 L 202.051 124.36 A 3.05 3.05 0 0 0 199.221 127.615 L 199.71 134.605 A 2.85 2.85 0 0 1 197.313 137.619 L 181.802 140.076 A 3.05 3.05 0 0 0 179.266 143.565 L 186.658 190.234 A 3.05 3.05 0 0 0 190.148 192.77 L 204.223 190.54 A 3.05 3.05 0 0 0 206.758 187.051 L 205.751 180.688 A 2.85 2.85 0 0 1 208.367 177.399 L 223.472 176.343 A 2.85 2.85 0 0 1 226.521 179.186 L 226.521 189.357 A 3.05 3.05 0 0 0 229.571 192.407 L 236.661 192.407 A 66.52 66.52 0 0 1 252.94 194.43 L 254.812 194.931 A 66.52 66.52 0 0 1 269.078 200.84 L 270.757 201.81 A 66.52 66.52 0 0 1 283.698 211.89 L 288.818 217.01 A 3.05 3.05 0 0 0 293.131 217.01 L 302.503 207.638 A 3.05 3.05 0 0 0 302.505 203.327 L 297.379 198.192 A 2.85 2.85 0 0 1 297.228 198.028 A 5.8 5.8 0 0 1 295.841 194.265 Z M 190.122 77.775 L 204.197 75.546 A 2.95 2.95 0 0 0 206.65 72.17 L 205.642 65.808 A 2.95 2.95 0 0 1 208.35 62.403 L 223.455 61.347 A 2.95 2.95 0 0 1 226.611 64.29 L 226.611 74.461 A 2.95 2.95 0 0 0 229.561 77.411 L 236.651 77.411 A 66.62 66.62 0 0 1 252.955 79.437 L 254.829 79.939 A 66.62 66.62 0 0 1 269.117 85.858 L 270.798 86.828 A 66.62 66.62 0 0 1 283.759 96.924 L 288.878 102.043 A 2.95 2.95 0 0 0 293.05 102.043 L 302.422 92.672 A 2.95 2.95 0 0 0 302.424 88.502 L 297.299 83.367 A 2.95 2.95 0 0 1 297.142 83.197 A 5.9 5.9 0 0 1 295.79 80.198 A 2.95 2.95 0 0 0 294.398 78.34 L 277.757 68.732 A 2.95 2.95 0 0 1 276.282 66.177 L 276.282 10.21 A 2.95 2.95 0 0 0 273.332 7.26 L 243.232 7.26 A 2.95 2.95 0 0 1 240.282 4.31 L 240.282 4.26 A 2.95 2.95 0 0 0 237.332 1.31 L 223.081 1.31 A 2.95 2.95 0 0 0 220.131 4.26 L 220.131 5.548 A 2.95 2.95 0 0 1 217.386 8.491 L 202.048 9.563 A 2.95 2.95 0 0 0 199.311 12.712 L 199.8 19.702 A 2.95 2.95 0 0 1 197.319 22.822 L 181.807 25.278 A 2.95 2.95 0 0 0 179.355 28.653 L 186.747 75.323 A 2.95 2.95 0 0 0 190.122 77.775 Z M 190.122 192.681 L 204.197 190.452 A 2.95 2.95 0 0 0 206.65 187.076 L 205.642 180.714 A 2.95 2.95 0 0 1 208.35 177.309 L 223.455 176.253 A 2.95 2.95 0 0 1 226.611 179.196 L 226.611 189.367 A 2.95 2.95 0 0 0 229.561 192.317 L 236.651 192.317 A 66.62 66.62 0 0 1 252.955 194.343 L 254.829 194.845 A 66.62 66.62 0 0 1 269.117 200.764 L 270.798 201.734 A 66.62 66.62 0 0 1 283.759 211.83 L 288.878 216.949 A 2.95 2.95 0 0 0 293.05 216.949 L 302.422 207.578 A 2.95 2.95 0 0 0 302.424 203.408 L 297.299 198.273 A 2.95 2.95 0 0 1 297.142 198.103 A 5.9 5.9 0 0 1 295.79 195.104 A 2.95 2.95 0 0 0 294.398 193.246 L 277.757 183.638 A 2.95 2.95 0 0 1 276.282 181.083 L 276.282 125.116 A 2.95 2.95 0 0 0 273.332 122.166 L 243.232 122.166 A 2.95 2.95 0 0 1 240.282 119.216 L 240.282 119.166 A 2.95 2.95 0 0 0 237.332 116.216 L 223.081 116.216 A 2.95 2.95 0 0 0 220.131 119.166 L 220.131 120.454 A 2.95 2.95 0 0 1 217.386 123.397 L 202.048 124.469 A 2.95 2.95 0 0 0 199.311 127.618 L 199.8 134.608 A 2.95 2.95 0 0 1 197.319 137.728 L 181.807 140.184 A 2.95 2.95 0 0 0 179.355 143.559 L 186.747 190.229 A 2.95 2.95 0 0 0 190.122 192.681 Z M 134.543 73.98 L 134.543 23.491 A 2.95 2.95 0 0 0 131.593 20.541 L 118.044 20.541 A 2.95 2.95 0 0 0 115.094 23.491 L 115.094 66.157 A 2.95 2.95 0 0 0 116.569 68.712 L 118.422 69.782 L 130.118 76.534 A 2.95 2.95 0 0 0 134.543 73.98 Z M 134.543 188.886 L 134.543 138.397 A 2.95 2.95 0 0 0 131.593 135.447 L 118.044 135.447 A 2.95 2.95 0 0 0 115.094 138.397 L 115.094 181.063 A 2.95 2.95 0 0 0 116.569 183.618 L 118.422 184.688 L 130.118 191.44 A 2.95 2.95 0 0 0 134.543 188.886 Z M 295.751 73.98 L 295.751 23.491 A 2.95 2.95 0 0 0 292.801 20.541 L 279.252 20.541 A 2.95 2.95 0 0 0 276.302 23.491 L 276.302 66.157 A 2.95 2.95 0 0 0 277.777 68.712 L 279.63 69.782 L 291.326 76.534 A 2.95 2.95 0 0 0 295.751 73.98 Z M 295.751 188.886 L 295.751 138.397 A 2.95 2.95 0 0 0 292.801 135.447 L 279.252 135.447 A 2.95 2.95 0 0 0 276.302 138.397 L 276.302 181.063 A 2.95 2.95 0 0 0 277.777 183.618 L 279.63 184.688 L 291.326 191.44 A 2.95 2.95 0 0 0 295.751 188.886 Z M 119.468 54.816 L 130.168 54.816 A 0.3 0.3 0 0 0 130.468 54.516 L 130.468 29.316 A 0.3 0.3 0 0 0 130.168 29.016 L 119.468 29.016 A 0.3 0.3 0 0 0 119.168 29.316 L 119.168 54.516 A 0.3 0.3 0 0 0 119.468 54.816 Z M 119.468 169.722 L 130.168 169.722 A 0.3 0.3 0 0 0 130.468 169.422 L 130.468 144.222 A 0.3 0.3 0 0 0 130.168 143.922 L 119.468 143.922 A 0.3 0.3 0 0 0 119.168 144.222 L 119.168 169.422 A 0.3 0.3 0 0 0 119.468 169.722 Z M 280.676 54.816 L 291.376 54.816 A 0.3 0.3 0 0 0 291.676 54.516 L 291.676 29.316 A 0.3 0.3 0 0 0 291.376 29.016 L 280.676 29.016 A 0.3 0.3 0 0 0 280.376 29.316 L 280.376 54.516 A 0.3 0.3 0 0 0 280.676 54.816 Z M 280.676 169.722 L 291.376 169.722 A 0.3 0.3 0 0 0 291.676 169.422 L 291.676 144.222 A 0.3 0.3 0 0 0 291.376 143.922 L 280.676 143.922 A 0.3 0.3 0 0 0 280.376 144.222 L 280.376 169.422 A 0.3 0.3 0 0 0 280.676 169.722 Z M 68.828 74.786 L 71.628 74.786 A 0.3 0.3 0 0 1 71.928 75.086 L 71.928 75.411 A 0.3 0.3 0 0 0 72.228 75.711 L 78.728 75.711 A 0.3 0.3 0 0 0 79.028 75.411 L 79.028 75.086 A 0.3 0.3 0 0 1 79.328 74.786 L 82.128 74.786 A 0.3 0.3 0 0 0 82.428 74.486 L 82.428 61.186 A 0.3 0.3 0 0 0 82.128 60.886 L 68.828 60.886 A 0.3 0.3 0 0 0 68.528 61.186 L 68.528 74.486 A 0.3 0.3 0 0 0 68.828 74.786 Z M 68.828 189.692 L 71.628 189.692 A 0.3 0.3 0 0 1 71.928 189.992 L 71.928 190.317 A 0.3 0.3 0 0 0 72.228 190.617 L 78.728 190.617 A 0.3 0.3 0 0 0 79.028 190.317 L 79.028 189.992 A 0.3 0.3 0 0 1 79.328 189.692 L 82.128 189.692 A 0.3 0.3 0 0 0 82.428 189.392 L 82.428 176.092 A 0.3 0.3 0 0 0 82.128 175.792 L 68.828 175.792 A 0.3 0.3 0 0 0 68.528 176.092 L 68.528 189.392 A 0.3 0.3 0 0 0 68.828 189.692 Z M 230.036 74.786 L 232.836 74.786 A 0.3 0.3 0 0 1 233.136 75.086 L 233.136 75.411 A 0.3 0.3 0 0 0 233.436 75.711 L 239.936 75.711 A 0.3 0.3 0 0 0 240.236 75.411 L 240.236 75.086 A 0.3 0.3 0 0 1 240.536 74.786 L 243.336 74.786 A 0.3 0.3 0 0 0 243.636 74.486 L 243.636 61.186 A 0.3 0.3 0 0 0 243.336 60.886 L 230.036 60.886 A 0.3 0.3 0 0 0 229.736 61.186 L 229.736 74.486 A 0.3 0.3 0 0 0 230.036 74.786 Z M 230.036 189.692 L 232.836 189.692 A 0.3 0.3 0 0 1 233.136 189.992 L 233.136 190.317 A 0.3 0.3 0 0 0 233.436 190.617 L 239.936 190.617 A 0.3 0.3 0 0 0 240.236 190.317 L 240.236 189.992 A 0.3 0.3 0 0 1 240.536 189.692 L 243.336 189.692 A 0.3 0.3 0 0 0 243.636 189.392 L 243.636 176.092 A 0.3 0.3 0 0 0 243.336 175.792 L 230.036 175.792 A 0.3 0.3 0 0 0 229.736 176.092 L 229.736 189.392 A 0.3 0.3 0 0 0 230.036 189.692 Z M 119.786 205.352 L 129.191 214.757 A 0.3 0.3 0 0 0 129.615 214.757 L 139.019 205.352 A 0.3 0.3 0 0 0 139.019 204.928 L 129.615 195.523 A 0.3 0.3 0 0 0 129.191 195.523 L 119.786 204.928 A 0.3 0.3 0 0 0 119.786 205.352 Z M 280.994 205.352 L 290.399 214.757 A 0.3 0.3 0 0 0 290.823 214.757 L 300.227 205.352 A 0.3 0.3 0 0 0 300.227 204.928 L 290.823 195.523 A 0.3 0.3 0 0 0 290.399 195.523 L 280.994 204.928 A 0.3 0.3 0 0 0 280.994 205.352 Z M 119.786 90.446 L 129.191 99.851 A 0.3 0.3 0 0 0 129.615 99.851 L 139.019 90.446 A 0.3 0.3 0 0 0 139.019 90.022 L 129.615 80.617 A 0.3 0.3 0 0 0 129.191 80.617 L 119.786 90.022 A 0.3 0.3 0 0 0 119.786 90.446 Z M 280.994 90.446 L 290.399 99.851 A 0.3 0.3 0 0 0 290.823 99.851 L 300.227 90.446 A 0.3 0.3 0 0 0 300.227 90.022 L 290.823 80.617 A 0.3 0.3 0 0 0 290.399 80.617 L 280.994 90.022 A 0.3 0.3 0 0 0 280.994 90.446 Z M 248.207 75.447 L 261.054 78.889 A 0.3 0.3 0 0 0 261.421 78.677 L 264.864 65.83 A 0.3 0.3 0 0 0 264.652 65.463 L 251.805 62.02 A 0.3 0.3 0 0 0 251.437 62.232 L 247.995 75.079 A 0.3 0.3 0 0 0 248.207 75.447 Z M 248.207 190.353 L 261.054 193.795 A 0.3 0.3 0 0 0 261.421 193.583 L 264.864 180.736 A 0.3 0.3 0 0 0 264.652 180.369 L 251.805 176.926 A 0.3 0.3 0 0 0 251.437 177.138 L 247.995 189.985 A 0.3 0.3 0 0 0 248.207 190.353 Z M 86.999 75.447 L 99.846 78.889 A 0.3 0.3 0 0 0 100.213 78.677 L 103.656 65.83 A 0.3 0.3 0 0 0 103.444 65.463 L 90.597 62.02 A 0.3 0.3 0 0 0 90.229 62.232 L 86.787 75.079 A 0.3 0.3 0 0 0 86.999 75.447 Z M 86.999 190.353 L 99.846 193.795 A 0.3 0.3 0 0 0 100.213 193.583 L 103.656 180.736 A 0.3 0.3 0 0 0 103.444 180.369 L 90.597 176.926 A 0.3 0.3 0 0 0 90.229 177.138 L 86.787 189.985 A 0.3 0.3 0 0 0 86.999 190.353 Z M 104.38 80.788 L 115.898 87.438 A 0.3 0.3 0 0 0 116.308 87.328 L 122.958 75.81 A 0.3 0.3 0 0 0 122.848 75.4 L 111.33 68.75 A 0.3 0.3 0 0 0 110.92 68.86 L 104.27 80.378 A 0.3 0.3 0 0 0 104.38 80.788 Z M 104.38 195.694 L 115.898 202.344 A 0.3 0.3 0 0 0 116.308 202.234 L 122.958 190.716 A 0.3 0.3 0 0 0 122.848 190.306 L 111.33 183.656 A 0.3 0.3 0 0 0 110.92 183.766 L 104.27 195.284 A 0.3 0.3 0 0 0 104.38 195.694 Z M 265.588 80.788 L 277.106 87.438 A 0.3 0.3 0 0 0 277.516 87.328 L 284.166 75.81 A 0.3 0.3 0 0 0 284.056 75.4 L 272.538 68.75 A 0.3 0.3 0 0 0 272.128 68.86 L 265.478 80.378 A 0.3 0.3 0 0 0 265.588 80.788 Z M 265.588 195.694 L 277.106 202.344 A 0.3 0.3 0 0 0 277.516 202.234 L 284.166 190.716 A 0.3 0.3 0 0 0 284.056 190.306 L 272.538 183.656 A 0.3 0.3 0 0 0 272.128 183.766 L 265.478 195.284 A 0.3 0.3 0 0 0 265.588 195.694 Z M 44.839 59.933 L 58.107 59.005 A 0.3 0.3 0 0 0 58.385 58.685 L 57.457 45.417 A 0.3 0.3 0 0 0 57.137 45.139 L 43.869 46.066 A 0.3 0.3 0 0 0 43.591 46.387 L 44.519 59.654 A 0.3 0.3 0 0 0 44.839 59.933 Z M 44.839 174.839 L 58.107 173.911 A 0.3 0.3 0 0 0 58.385 173.591 L 57.457 160.323 A 0.3 0.3 0 0 0 57.137 160.045 L 43.869 160.972 A 0.3 0.3 0 0 0 43.591 161.293 L 44.519 174.56 A 0.3 0.3 0 0 0 44.839 174.839 Z M 206.047 59.933 L 219.315 59.005 A 0.3 0.3 0 0 0 219.593 58.685 L 218.665 45.417 A 0.3 0.3 0 0 0 218.345 45.139 L 205.077 46.066 A 0.3 0.3 0 0 0 204.799 46.387 L 205.727 59.654 A 0.3 0.3 0 0 0 206.047 59.933 Z M 206.047 174.839 L 219.315 173.911 A 0.3 0.3 0 0 0 219.593 173.591 L 218.665 160.323 A 0.3 0.3 0 0 0 218.345 160.045 L 205.077 160.972 A 0.3 0.3 0 0 0 204.799 161.293 L 205.727 174.56 A 0.3 0.3 0 0 0 206.047 174.839 Z M 42.467 140.921 L 55.735 139.994 A 0.3 0.3 0 0 0 56.013 139.673 L 55.085 126.406 A 0.3 0.3 0 0 0 54.765 126.127 L 41.498 127.055 A 0.3 0.3 0 0 0 41.219 127.375 L 42.147 140.643 A 0.3 0.3 0 0 0 42.467 140.921 Z M 203.675 140.921 L 216.943 139.994 A 0.3 0.3 0 0 0 217.221 139.673 L 216.293 126.406 A 0.3 0.3 0 0 0 215.973 126.127 L 202.706 127.055 A 0.3 0.3 0 0 0 202.427 127.375 L 203.355 140.643 A 0.3 0.3 0 0 0 203.675 140.921 Z M 42.467 26.015 L 55.735 25.088 A 0.3 0.3 0 0 0 56.013 24.767 L 55.085 11.5 A 0.3 0.3 0 0 0 54.765 11.221 L 41.498 12.149 A 0.3 0.3 0 0 0 41.219 12.469 L 42.147 25.737 A 0.3 0.3 0 0 0 42.467 26.015 Z M 203.675 26.015 L 216.943 25.088 A 0.3 0.3 0 0 0 217.221 24.767 L 216.293 11.5 A 0.3 0.3 0 0 0 215.973 11.221 L 202.706 12.149 A 0.3 0.3 0 0 0 202.427 12.469 L 203.355 25.737 A 0.3 0.3 0 0 0 203.675 26.015 Z M 204.861 42.974 L 218.129 42.046 A 0.3 0.3 0 0 0 218.407 41.726 L 217.479 28.458 A 0.3 0.3 0 0 0 217.159 28.18 L 203.891 29.108 A 0.3 0.3 0 0 0 203.613 29.428 L 204.541 42.696 A 0.3 0.3 0 0 0 204.861 42.974 Z M 204.861 157.88 L 218.129 156.952 A 0.3 0.3 0 0 0 218.407 156.632 L 217.479 143.364 A 0.3 0.3 0 0 0 217.159 143.086 L 203.891 144.014 A 0.3 0.3 0 0 0 203.613 144.334 L 204.541 157.602 A 0.3 0.3 0 0 0 204.861 157.88 Z M 43.653 42.974 L 56.921 42.046 A 0.3 0.3 0 0 0 57.199 41.726 L 56.271 28.458 A 0.3 0.3 0 0 0 55.951 28.18 L 42.683 29.108 A 0.3 0.3 0 0 0 42.405 29.428 L 43.333 42.696 A 0.3 0.3 0 0 0 43.653 42.974 Z M 43.653 157.88 L 56.921 156.952 A 0.3 0.3 0 0 0 57.199 156.632 L 56.271 143.364 A 0.3 0.3 0 0 0 55.951 143.086 L 42.683 144.014 A 0.3 0.3 0 0 0 42.405 144.334 L 43.333 157.602 A 0.3 0.3 0 0 0 43.653 157.88 Z M 62.348 17.836 L 75.648 17.836 A 0.3 0.3 0 0 0 75.948 17.536 L 75.948 4.236 A 0.3 0.3 0 0 0 75.648 3.936 L 62.348 3.936 A 0.3 0.3 0 0 0 62.048 4.236 L 62.048 17.536 A 0.3 0.3 0 0 0 62.348 17.836 Z M 62.348 132.742 L 75.648 132.742 A 0.3 0.3 0 0 0 75.948 132.442 L 75.948 119.142 A 0.3 0.3 0 0 0 75.648 118.842 L 62.348 118.842 A 0.3 0.3 0 0 0 62.048 119.142 L 62.048 132.442 A 0.3 0.3 0 0 0 62.348 132.742 Z M 80.348 23.786 L 93.648 23.786 A 0.3 0.3 0 0 0 93.948 23.486 L 93.948 10.186 A 0.3 0.3 0 0 0 93.648 9.886 L 80.348 9.886 A 0.3 0.3 0 0 0 80.048 10.186 L 80.048 23.486 A 0.3 0.3 0 0 0 80.348 23.786 Z M 98.348 26.336 L 111.648 26.336 A 0.3 0.3 0 0 0 111.948 26.036 L 111.948 12.736 A 0.3 0.3 0 0 0 111.648 12.436 L 98.348 12.436 A 0.3 0.3 0 0 0 98.048 12.736 L 98.048 26.036 A 0.3 0.3 0 0 0 98.348 26.336 Z M 80.348 138.692 L 93.648 138.692 A 0.3 0.3 0 0 0 93.948 138.392 L 93.948 125.092 A 0.3 0.3 0 0 0 93.648 124.792 L 80.348 124.792 A 0.3 0.3 0 0 0 80.048 125.092 L 80.048 138.392 A 0.3 0.3 0 0 0 80.348 138.692 Z M 98.348 141.242 L 111.648 141.242 A 0.3 0.3 0 0 0 111.948 140.942 L 111.948 127.642 A 0.3 0.3 0 0 0 111.648 127.342 L 98.348 127.342 A 0.3 0.3 0 0 0 98.048 127.642 L 98.048 140.942 A 0.3 0.3 0 0 0 98.348 141.242 Z M 223.556 17.836 L 236.856 17.836 A 0.3 0.3 0 0 0 237.156 17.536 L 237.156 4.236 A 0.3 0.3 0 0 0 236.856 3.936 L 223.556 3.936 A 0.3 0.3 0 0 0 223.256 4.236 L 223.256 17.536 A 0.3 0.3 0 0 0 223.556 17.836 Z M 241.556 23.786 L 254.856 23.786 A 0.3 0.3 0 0 0 255.156 23.486 L 255.156 10.186 A 0.3 0.3 0 0 0 254.856 9.886 L 241.556 9.886 A 0.3 0.3 0 0 0 241.256 10.186 L 241.256 23.486 A 0.3 0.3 0 0 0 241.556 23.786 Z M 259.556 26.336 L 272.856 26.336 A 0.3 0.3 0 0 0 273.156 26.036 L 273.156 12.736 A 0.3 0.3 0 0 0 272.856 12.436 L 259.556 12.436 A 0.3 0.3 0 0 0 259.256 12.736 L 259.256 26.036 A 0.3 0.3 0 0 0 259.556 26.336 Z M 223.556 132.742 L 236.856 132.742 A 0.3 0.3 0 0 0 237.156 132.442 L 237.156 119.142 A 0.3 0.3 0 0 0 236.856 118.842 L 223.556 118.842 A 0.3 0.3 0 0 0 223.256 119.142 L 223.256 132.442 A 0.3 0.3 0 0 0 223.556 132.742 Z M 241.556 138.692 L 254.856 138.692 A 0.3 0.3 0 0 0 255.156 138.392 L 255.156 125.092 A 0.3 0.3 0 0 0 254.856 124.792 L 241.556 124.792 A 0.3 0.3 0 0 0 241.256 125.092 L 241.256 138.392 A 0.3 0.3 0 0 0 241.556 138.692 Z M 259.556 141.242 L 272.856 141.242 A 0.3 0.3 0 0 0 273.156 140.942 L 273.156 127.642 A 0.3 0.3 0 0 0 272.856 127.342 L 259.556 127.342 A 0.3 0.3 0 0 0 259.256 127.642 L 259.256 140.942 A 0.3 0.3 0 0 0 259.556 141.242 Z M 62.348 149.742 L 75.648 149.742 A 0.3 0.3 0 0 0 75.948 149.442 L 75.948 136.142 A 0.3 0.3 0 0 0 75.648 135.842 L 62.348 135.842 A 0.3 0.3 0 0 0 62.048 136.142 L 62.048 149.442 A 0.3 0.3 0 0 0 62.348 149.742 Z M 62.348 34.836 L 75.648 34.836 A 0.3 0.3 0 0 0 75.948 34.536 L 75.948 21.236 A 0.3 0.3 0 0 0 75.648 20.936 L 62.348 20.936 A 0.3 0.3 0 0 0 62.048 21.236 L 62.048 34.536 A 0.3 0.3 0 0 0 62.348 34.836 Z M 223.556 149.742 L 236.856 149.742 A 0.3 0.3 0 0 0 237.156 149.442 L 237.156 136.142 A 0.3 0.3 0 0 0 236.856 135.842 L 223.556 135.842 A 0.3 0.3 0 0 0 223.256 136.142 L 223.256 149.442 A 0.3 0.3 0 0 0 223.556 149.742 Z M 62.348 51.836 L 75.648 51.836 A 0.3 0.3 0 0 0 75.948 51.536 L 75.948 38.236 A 0.3 0.3 0 0 0 75.648 37.936 L 62.348 37.936 A 0.3 0.3 0 0 0 62.048 38.236 L 62.048 51.536 A 0.3 0.3 0 0 0 62.348 51.836 Z M 62.348 166.742 L 75.648 166.742 A 0.3 0.3 0 0 0 75.948 166.442 L 75.948 153.142 A 0.3 0.3 0 0 0 75.648 152.842 L 62.348 152.842 A 0.3 0.3 0 0 0 62.048 153.142 L 62.048 166.442 A 0.3 0.3 0 0 0 62.348 166.742 Z M 223.556 34.836 L 236.856 34.836 A 0.3 0.3 0 0 0 237.156 34.536 L 237.156 21.236 A 0.3 0.3 0 0 0 236.856 20.936 L 223.556 20.936 A 0.3 0.3 0 0 0 223.256 21.236 L 223.256 34.536 A 0.3 0.3 0 0 0 223.556 34.836 Z M 80.348 57.786 L 93.648 57.786 A 0.3 0.3 0 0 0 93.948 57.486 L 93.948 44.186 A 0.3 0.3 0 0 0 93.648 43.886 L 80.348 43.886 A 0.3 0.3 0 0 0 80.048 44.186 L 80.048 57.486 A 0.3 0.3 0 0 0 80.348 57.786 Z M 80.348 40.786 L 93.648 40.786 A 0.3 0.3 0 0 0 93.948 40.486 L 93.948 27.186 A 0.3 0.3 0 0 0 93.648 26.886 L 80.348 26.886 A 0.3 0.3 0 0 0 80.048 27.186 L 80.048 40.486 A 0.3 0.3 0 0 0 80.348 40.786 Z M 98.348 60.336 L 111.648 60.336 A 0.3 0.3 0 0 0 111.948 60.036 L 111.948 46.736 A 0.3 0.3 0 0 0 111.648 46.436 L 98.348 46.436 A 0.3 0.3 0 0 0 98.048 46.736 L 98.048 60.036 A 0.3 0.3 0 0 0 98.348 60.336 Z M 98.348 43.336 L 111.648 43.336 A 0.3 0.3 0 0 0 111.948 43.036 L 111.948 29.736 A 0.3 0.3 0 0 0 111.648 29.436 L 98.348 29.436 A 0.3 0.3 0 0 0 98.048 29.736 L 98.048 43.036 A 0.3 0.3 0 0 0 98.348 43.336 Z M 80.348 172.692 L 93.648 172.692 A 0.3 0.3 0 0 0 93.948 172.392 L 93.948 159.092 A 0.3 0.3 0 0 0 93.648 158.792 L 80.348 158.792 A 0.3 0.3 0 0 0 80.048 159.092 L 80.048 172.392 A 0.3 0.3 0 0 0 80.348 172.692 Z M 80.348 155.692 L 93.648 155.692 A 0.3 0.3 0 0 0 93.948 155.392 L 93.948 142.092 A 0.3 0.3 0 0 0 93.648 141.792 L 80.348 141.792 A 0.3 0.3 0 0 0 80.048 142.092 L 80.048 155.392 A 0.3 0.3 0 0 0 80.348 155.692 Z M 98.348 175.242 L 111.648 175.242 A 0.3 0.3 0 0 0 111.948 174.942 L 111.948 161.642 A 0.3 0.3 0 0 0 111.648 161.342 L 98.348 161.342 A 0.3 0.3 0 0 0 98.048 161.642 L 98.048 174.942 A 0.3 0.3 0 0 0 98.348 175.242 Z M 98.348 158.242 L 111.648 158.242 A 0.3 0.3 0 0 0 111.948 157.942 L 111.948 144.642 A 0.3 0.3 0 0 0 111.648 144.342 L 98.348 144.342 A 0.3 0.3 0 0 0 98.048 144.642 L 98.048 157.942 A 0.3 0.3 0 0 0 98.348 158.242 Z M 223.556 51.836 L 236.856 51.836 A 0.3 0.3 0 0 0 237.156 51.536 L 237.156 38.236 A 0.3 0.3 0 0 0 236.856 37.936 L 223.556 37.936 A 0.3 0.3 0 0 0 223.256 38.236 L 223.256 51.536 A 0.3 0.3 0 0 0 223.556 51.836 Z M 241.556 57.786 L 254.856 57.786 A 0.3 0.3 0 0 0 255.156 57.486 L 255.156 44.186 A 0.3 0.3 0 0 0 254.856 43.886 L 241.556 43.886 A 0.3 0.3 0 0 0 241.256 44.186 L 241.256 57.486 A 0.3 0.3 0 0 0 241.556 57.786 Z M 241.556 40.786 L 254.856 40.786 A 0.3 0.3 0 0 0 255.156 40.486 L 255.156 27.186 A 0.3 0.3 0 0 0 254.856 26.886 L 241.556 26.886 A 0.3 0.3 0 0 0 241.256 27.186 L 241.256 40.486 A 0.3 0.3 0 0 0 241.556 40.786 Z M 259.556 60.336 L 272.856 60.336 A 0.3 0.3 0 0 0 273.156 60.036 L 273.156 46.736 A 0.3 0.3 0 0 0 272.856 46.436 L 259.556 46.436 A 0.3 0.3 0 0 0 259.256 46.736 L 259.256 60.036 A 0.3 0.3 0 0 0 259.556 60.336 Z M 259.556 43.336 L 272.856 43.336 A 0.3 0.3 0 0 0 273.156 43.036 L 273.156 29.736 A 0.3 0.3 0 0 0 272.856 29.436 L 259.556 29.436 A 0.3 0.3 0 0 0 259.256 29.736 L 259.256 43.036 A 0.3 0.3 0 0 0 259.556 43.336 Z M 223.556 166.742 L 236.856 166.742 A 0.3 0.3 0 0 0 237.156 166.442 L 237.156 153.142 A 0.3 0.3 0 0 0 236.856 152.842 L 223.556 152.842 A 0.3 0.3 0 0 0 223.256 153.142 L 223.256 166.442 A 0.3 0.3 0 0 0 223.556 166.742 Z M 241.556 172.692 L 254.856 172.692 A 0.3 0.3 0 0 0 255.156 172.392 L 255.156 159.092 A 0.3 0.3 0 0 0 254.856 158.792 L 241.556 158.792 A 0.3 0.3 0 0 0 241.256 159.092 L 241.256 172.392 A 0.3 0.3 0 0 0 241.556 172.692 Z M 241.556 155.692 L 254.856 155.692 A 0.3 0.3 0 0 0 255.156 155.392 L 255.156 142.092 A 0.3 0.3 0 0 0 254.856 141.792 L 241.556 141.792 A 0.3 0.3 0 0 0 241.256 142.092 L 241.256 155.392 A 0.3 0.3 0 0 0 241.556 155.692 Z M 259.556 175.242 L 272.856 175.242 A 0.3 0.3 0 0 0 273.156 174.942 L 273.156 161.642 A 0.3 0.3 0 0 0 272.856 161.342 L 259.556 161.342 A 0.3 0.3 0 0 0 259.256 161.642 L 259.256 174.942 A 0.3 0.3 0 0 0 259.556 175.242 Z M 259.556 158.242 L 272.856 158.242 A 0.3 0.3 0 0 0 273.156 157.942 L 273.156 144.642 A 0.3 0.3 0 0 0 272.856 144.342 L 259.556 144.342 A 0.3 0.3 0 0 0 259.256 144.642 L 259.256 157.942 A 0.3 0.3 0 0 0 259.556 158.242 Z M 7.259 53.073 L 20.395 50.992 A 0.3 0.3 0 0 0 20.644 50.649 L 18.564 37.513 A 0.3 0.3 0 0 0 18.22 37.264 L 5.084 39.344 A 0.3 0.3 0 0 0 4.835 39.687 L 6.915 52.824 A 0.3 0.3 0 0 0 7.259 53.073 Z M 7.259 167.979 L 20.395 165.898 A 0.3 0.3 0 0 0 20.644 165.555 L 18.564 152.419 A 0.3 0.3 0 0 0 18.22 152.17 L 5.084 154.25 A 0.3 0.3 0 0 0 4.835 154.593 L 6.915 167.73 A 0.3 0.3 0 0 0 7.259 167.979 Z M 190.181 75.107 L 203.317 73.027 A 0.3 0.3 0 0 0 203.566 72.684 L 201.486 59.547 A 0.3 0.3 0 0 0 201.143 59.298 L 188.006 61.379 A 0.3 0.3 0 0 0 187.757 61.722 L 189.838 74.858 A 0.3 0.3 0 0 0 190.181 75.107 Z M 190.181 190.013 L 203.317 187.933 A 0.3 0.3 0 0 0 203.566 187.59 L 201.486 174.453 A 0.3 0.3 0 0 0 201.143 174.204 L 188.006 176.285 A 0.3 0.3 0 0 0 187.757 176.628 L 189.838 189.764 A 0.3 0.3 0 0 0 190.181 190.013 Z M 28.973 75.107 L 42.109 73.027 A 0.3 0.3 0 0 0 42.358 72.684 L 40.278 59.547 A 0.3 0.3 0 0 0 39.935 59.298 L 26.798 61.379 A 0.3 0.3 0 0 0 26.549 61.722 L 28.63 74.858 A 0.3 0.3 0 0 0 28.973 75.107 Z M 28.973 190.013 L 42.109 187.933 A 0.3 0.3 0 0 0 42.358 187.59 L 40.278 174.453 A 0.3 0.3 0 0 0 39.935 174.204 L 26.798 176.285 A 0.3 0.3 0 0 0 26.549 176.628 L 28.63 189.764 A 0.3 0.3 0 0 0 28.973 190.013 Z M 9.918 69.864 L 23.054 67.783 A 0.3 0.3 0 0 0 23.304 67.44 L 21.223 54.304 A 0.3 0.3 0 0 0 20.88 54.054 L 7.744 56.135 A 0.3 0.3 0 0 0 7.494 56.478 L 9.575 69.614 A 0.3 0.3 0 0 0 9.918 69.864 Z M 9.918 184.77 L 23.054 182.689 A 0.3 0.3 0 0 0 23.304 182.346 L 21.223 169.21 A 0.3 0.3 0 0 0 20.88 168.96 L 7.744 171.041 A 0.3 0.3 0 0 0 7.494 171.384 L 9.575 184.52 A 0.3 0.3 0 0 0 9.918 184.77 Z M 23.654 41.526 L 36.79 39.445 A 0.3 0.3 0 0 0 37.04 39.102 L 34.959 25.966 A 0.3 0.3 0 0 0 34.616 25.717 L 21.48 27.797 A 0.3 0.3 0 0 0 21.23 28.14 L 23.311 41.277 A 0.3 0.3 0 0 0 23.654 41.526 Z M 184.862 41.526 L 197.998 39.445 A 0.3 0.3 0 0 0 198.248 39.102 L 196.167 25.966 A 0.3 0.3 0 0 0 195.824 25.717 L 182.688 27.797 A 0.3 0.3 0 0 0 182.438 28.14 L 184.519 41.277 A 0.3 0.3 0 0 0 184.862 41.526 Z M 23.654 156.432 L 36.79 154.351 A 0.3 0.3 0 0 0 37.04 154.008 L 34.959 140.872 A 0.3 0.3 0 0 0 34.616 140.623 L 21.48 142.703 A 0.3 0.3 0 0 0 21.23 143.046 L 23.311 156.183 A 0.3 0.3 0 0 0 23.654 156.432 Z M 184.862 156.432 L 197.998 154.351 A 0.3 0.3 0 0 0 198.248 154.008 L 196.167 140.872 A 0.3 0.3 0 0 0 195.824 140.623 L 182.688 142.703 A 0.3 0.3 0 0 0 182.438 143.046 L 184.519 156.183 A 0.3 0.3 0 0 0 184.862 156.432 Z M 187.521 58.317 L 200.658 56.236 A 0.3 0.3 0 0 0 200.907 55.893 L 198.827 42.757 A 0.3 0.3 0 0 0 198.483 42.507 L 185.347 44.588 A 0.3 0.3 0 0 0 185.098 44.931 L 187.178 58.067 A 0.3 0.3 0 0 0 187.521 58.317 Z M 187.521 173.223 L 200.658 171.142 A 0.3 0.3 0 0 0 200.907 170.799 L 198.827 157.663 A 0.3 0.3 0 0 0 198.483 157.413 L 185.347 159.494 A 0.3 0.3 0 0 0 185.098 159.837 L 187.178 172.973 A 0.3 0.3 0 0 0 187.521 173.223 Z M 26.313 58.317 L 39.45 56.236 A 0.3 0.3 0 0 0 39.699 55.893 L 37.619 42.757 A 0.3 0.3 0 0 0 37.275 42.507 L 24.139 44.588 A 0.3 0.3 0 0 0 23.89 44.931 L 25.97 58.067 A 0.3 0.3 0 0 0 26.313 58.317 Z M 26.313 173.223 L 39.45 171.142 A 0.3 0.3 0 0 0 39.699 170.799 L 37.619 157.663 A 0.3 0.3 0 0 0 37.275 157.413 L 24.139 159.494 A 0.3 0.3 0 0 0 23.89 159.837 L 25.97 172.973 A 0.3 0.3 0 0 0 26.313 173.223 Z M 59.198 19.386 m -1.1 0 a 1.1 1.1 0 0 1 2.2 0 a 1.1 1.1 0 0 1 -2.2 0 z M 95.648 25.336 m -1.1 0 a 1.1 1.1 0 0 1 2.2 0 a 1.1 1.1 0 0 1 -2.2 0 z M 122.024 83.527 m -1.1 0 a 1.1 1.1 0 0 1 2.2 0 a 1.1 1.1 0 0 1 -2.2 0 z M 85.478 68.336 m -1.1 0 a 1.1 1.1 0 0 1 2.2 0 a 1.1 1.1 0 0 1 -2.2 0 z M 22.613 52.21 m -1.1 0 a 1.1 1.1 0 0 1 2.2 0 a 1.1 1.1 0 0 1 -2.2 0 z M 59.198 134.292 m -1.1 0 a 1.1 1.1 0 0 1 2.2 0 a 1.1 1.1 0 0 1 -2.2 0 z M 95.648 140.242 m -1.1 0 a 1.1 1.1 0 0 1 2.2 0 a 1.1 1.1 0 0 1 -2.2 0 z M 122.024 198.433 m -1.1 0 a 1.1 1.1 0 0 1 2.2 0 a 1.1 1.1 0 0 1 -2.2 0 z M 85.478 183.242 m -1.1 0 a 1.1 1.1 0 0 1 2.2 0 a 1.1 1.1 0 0 1 -2.2 0 z M 22.613 167.116 m -1.1 0 a 1.1 1.1 0 0 1 2.2 0 a 1.1 1.1 0 0 1 -2.2 0 z M 220.406 19.386 m -1.1 0 a 1.1 1.1 0 0 1 2.2 0 a 1.1 1.1 0 0 1 -2.2 0 z M 256.856 25.336 m -1.1 0 a 1.1 1.1 0 0 1 2.2 0 a 1.1 1.1 0 0 1 -2.2 0 z M 283.232 83.527 m -1.1 0 a 1.1 1.1 0 0 1 2.2 0 a 1.1 1.1 0 0 1 -2.2 0 z M 246.686 68.336 m -1.1 0 a 1.1 1.1 0 0 1 2.2 0 a 1.1 1.1 0 0 1 -2.2 0 z M 201.155 40.515 m -1.1 0 a 1.1 1.1 0 0 1 2.2 0 a 1.1 1.1 0 0 1 -2.2 0 z M 220.406 134.292 m -1.1 0 a 1.1 1.1 0 0 1 2.2 0 a 1.1 1.1 0 0 1 -2.2 0 z M 256.856 140.242 m -1.1 0 a 1.1 1.1 0 0 1 2.2 0 a 1.1 1.1 0 0 1 -2.2 0 z M 283.232 198.433 m -1.1 0 a 1.1 1.1 0 0 1 2.2 0 a 1.1 1.1 0 0 1 -2.2 0 z M 246.686 183.242 m -1.1 0 a 1.1 1.1 0 0 1 2.2 0 a 1.1 1.1 0 0 1 -2.2 0 z M 201.155 155.421 m -1.1 0 a 1.1 1.1 0 0 1 2.2 0 a 1.1 1.1 0 0 1 -2.2 0 z M 118.018 66.166 m -1 0 a 1 1 0 0 1 2 0 a 1 1 0 0 1 -2 0 z M 131.618 74.02 m -1 0 a 1 1 0 0 1 2 0 a 1 1 0 0 1 -2 0 z M 118.018 181.072 m -1 0 a 1 1 0 0 1 2 0 a 1 1 0 0 1 -2 0 z M 131.618 188.926 m -1 0 a 1 1 0 0 1 2 0 a 1 1 0 0 1 -2 0 z M 279.226 66.166 m -1 0 a 1 1 0 0 1 2 0 a 1 1 0 0 1 -2 0 z M 292.826 74.02 m -1 0 a 1 1 0 0 1 2 0 a 1 1 0 0 1 -2 0 z M 279.226 181.072 m -1 0 a 1 1 0 0 1 2 0 a 1 1 0 0 1 -2 0 z M 292.826 188.926 m -1 0 a 1 1 0 0 1 2 0 a 1 1 0 0 1 -2 0 z" vector-effect="non-scaling-stroke"/></g></svg>