<svg width="143.939mm" height="219.829mm" viewBox="0 0 143.939 219.829" xmlns="http://www.w3.org/2000/svg"><g id="svgGroup" stroke-linecap="round" fill-rule="evenodd" font-size="9pt" stroke="#e2725b" stroke-width="0.25mm" fill="none" style="stroke:#e2725b;stroke-width:0.25mm;fill:none"><path d="M 135.66 79.732 L 135.66 21.75 A 2.5 2.5 0 0 0 133.16 19.25 L 118.711 19.25 A 2.5 2.5 0 0 1 116.211 16.75 L 116.211 8.45 A 2.5 2.5 0 0 0 113.711 5.95 L 82.711 5.95 A 2.5 2.5 0 0 1 80.211 3.45 L 80.211 2.5 A 2.5 2.5 0 0 0 77.711 0 L 59.96 0 A 2.5 2.5 0 0 0 57.46 2.5 L 57.46 4.745 A 2.5 2.5 0 0 1 55.134 7.239 L 38.841 8.378 A 2.5 2.5 0 0 0 36.521 11.047 L 37.078 19.006 A 2.5 2.5 0 0 1 34.975 21.649 L 18.504 24.258 A 2.5 2.5 0 0 0 16.426 27.118 L 17.027 30.911 A 2.5 2.5 0 0 1 14.949 33.771 L 2.109 35.805 A 2.5 2.5 0 0 0 0.031 38.665 L 5.311 72.001 A 2.5 2.5 0 0 0 8.171 74.079 L 21.011 72.045 A 2.5 2.5 0 0 1 23.871 74.124 L 24.366 77.245 A 2.5 2.5 0 0 0 27.226 79.323 L 43.179 76.796 A 2.5 2.5 0 0 1 45.985 78.618 L 46.752 81.479 A 2.5 2.5 0 0 0 49.814 83.247 L 58.395 80.947 A 65.32 65.32 0 0 1 121.489 97.854 L 127.826 104.19 A 2.5 2.5 0 0 0 131.361 104.19 L 143.207 92.345 A 2.5 2.5 0 0 0 143.208 88.811 L 136.642 82.233 A 2.5 2.5 0 0 1 136.436 81.998 A 3.7 3.7 0 0 1 135.66 79.732 Z M 134.46 79.732 L 134.46 23.051 A 2.6 2.6 0 0 0 131.86 20.451 L 117.411 20.451 A 2.4 2.4 0 0 1 115.011 18.051 L 115.011 9.75 A 2.6 2.6 0 0 0 112.411 7.15 L 81.411 7.15 A 2.4 2.4 0 0 1 79.011 4.75 L 79.011 3.8 A 2.6 2.6 0 0 0 76.411 1.2 L 61.26 1.2 A 2.6 2.6 0 0 0 58.66 3.8 L 58.66 5.958 A 2.4 2.4 0 0 1 56.427 8.352 L 40.221 9.485 A 2.6 2.6 0 0 0 37.809 12.26 L 38.358 20.11 A 2.4 2.4 0 0 1 36.339 22.648 L 19.976 25.24 A 2.6 2.6 0 0 0 17.815 28.215 L 18.416 32.007 A 2.4 2.4 0 0 1 16.421 34.753 L 3.581 36.787 A 2.6 2.6 0 0 0 1.419 39.761 L 6.293 70.529 A 2.6 2.6 0 0 0 9.267 72.69 L 22.107 70.657 A 2.4 2.4 0 0 1 24.853 72.652 L 25.347 75.773 A 2.6 2.6 0 0 0 28.322 77.934 L 44.148 75.428 A 2.4 2.4 0 0 1 46.841 77.177 L 47.574 79.913 A 2.6 2.6 0 0 0 50.759 81.751 L 58.084 79.788 A 66.52 66.52 0 0 1 122.338 97.005 L 127.755 102.422 A 2.6 2.6 0 0 0 131.432 102.422 L 141.44 92.414 A 2.6 2.6 0 0 0 141.441 88.739 L 135.746 83.033 A 2.4 2.4 0 0 1 135.605 82.88 A 4.9 4.9 0 0 1 134.46 79.732 Z M 9.242 72.602 L 22.082 70.568 A 2.5 2.5 0 0 1 24.942 72.646 L 25.436 75.767 A 2.5 2.5 0 0 0 28.297 77.845 L 44.122 75.339 A 2.5 2.5 0 0 1 46.928 77.161 L 47.661 79.897 A 2.5 2.5 0 0 0 50.723 81.665 L 58.048 79.702 A 66.62 66.62 0 0 1 122.398 96.944 L 127.816 102.362 A 2.5 2.5 0 0 0 131.351 102.362 L 141.359 92.354 A 2.5 2.5 0 0 0 141.361 88.82 L 135.665 83.114 A 2.5 2.5 0 0 1 135.519 82.954 A 5 5 0 0 1 134.466 80.813 L 134.206 79.861 A 2.5 2.5 0 0 0 133.045 78.356 L 116.151 68.602 A 2.5 2.5 0 0 1 114.901 66.437 L 114.901 9.76 A 2.5 2.5 0 0 0 112.401 7.26 L 81.401 7.26 A 2.5 2.5 0 0 1 78.901 4.76 L 78.901 3.81 A 2.5 2.5 0 0 0 76.401 1.31 L 61.25 1.31 A 2.5 2.5 0 0 0 58.75 3.81 L 58.75 5.968 A 2.5 2.5 0 0 1 56.424 8.461 L 40.218 9.595 A 2.5 2.5 0 0 0 37.899 12.263 L 38.448 20.113 A 2.5 2.5 0 0 1 36.345 22.757 L 19.982 25.349 A 2.5 2.5 0 0 0 17.904 28.209 L 18.504 32.002 A 2.5 2.5 0 0 1 16.426 34.862 L 3.586 36.896 A 2.5 2.5 0 0 0 1.508 39.756 L 6.381 70.523 A 2.5 2.5 0 0 0 9.242 72.602 Z M 135.66 194.638 L 135.66 136.656 A 2.5 2.5 0 0 0 133.16 134.156 L 118.711 134.156 A 2.5 2.5 0 0 1 116.211 131.656 L 116.211 123.356 A 2.5 2.5 0 0 0 113.711 120.856 L 82.711 120.856 A 2.5 2.5 0 0 1 80.211 118.356 L 80.211 117.406 A 2.5 2.5 0 0 0 77.711 114.906 L 59.96 114.906 A 2.5 2.5 0 0 0 57.46 117.406 L 57.46 119.651 A 2.5 2.5 0 0 1 55.134 122.145 L 38.841 123.284 A 2.5 2.5 0 0 0 36.521 125.953 L 37.078 133.912 A 2.5 2.5 0 0 1 34.975 136.555 L 18.504 139.164 A 2.5 2.5 0 0 0 16.426 142.024 L 24.366 192.151 A 2.5 2.5 0 0 0 27.226 194.229 L 43.179 191.702 A 2.5 2.5 0 0 1 45.985 193.524 L 46.752 196.385 A 2.5 2.5 0 0 0 49.814 198.153 L 58.395 195.853 A 65.32 65.32 0 0 1 121.489 212.76 L 127.826 219.096 A 2.5 2.5 0 0 0 131.361 219.096 L 143.207 207.251 A 2.5 2.5 0 0 0 143.208 203.717 L 136.642 197.139 A 2.5 2.5 0 0 1 136.436 196.904 A 3.7 3.7 0 0 1 135.66 194.638 Z M 134.46 194.638 L 134.46 137.957 A 2.6 2.6 0 0 0 131.86 135.357 L 117.411 135.357 A 2.4 2.4 0 0 1 115.011 132.957 L 115.011 124.656 A 2.6 2.6 0 0 0 112.411 122.056 L 81.411 122.056 A 2.4 2.4 0 0 1 79.011 119.656 L 79.011 118.706 A 2.6 2.6 0 0 0 76.411 116.106 L 61.26 116.106 A 2.6 2.6 0 0 0 58.66 118.706 L 58.66 120.864 A 2.4 2.4 0 0 1 56.427 123.258 L 40.221 124.391 A 2.6 2.6 0 0 0 37.809 127.166 L 38.358 135.016 A 2.4 2.4 0 0 1 36.339 137.554 L 19.976 140.146 A 2.6 2.6 0 0 0 17.815 143.121 L 25.347 190.679 A 2.6 2.6 0 0 0 28.322 192.84 L 44.148 190.334 A 2.4 2.4 0 0 1 46.841 192.083 L 47.574 194.819 A 2.6 2.6 0 0 0 50.759 196.657 L 58.084 194.694 A 66.52 66.52 0 0 1 122.338 211.911 L 127.755 217.328 A 2.6 2.6 0 0 0 131.432 217.328 L 141.44 207.32 A 2.6 2.6 0 0 0 141.441 203.645 L 135.746 197.939 A 2.4 2.4 0 0 1 135.605 197.786 A 4.9 4.9 0 0 1 134.46 194.638 Z M 28.297 192.751 L 44.122 190.245 A 2.5 2.5 0 0 1 46.928 192.067 L 47.661 194.803 A 2.5 2.5 0 0 0 50.723 196.571 L 58.048 194.608 A 66.62 66.62 0 0 1 122.398 211.85 L 127.816 217.268 A 2.5 2.5 0 0 0 131.351 217.268 L 141.359 207.26 A 2.5 2.5 0 0 0 141.361 203.726 L 135.665 198.02 A 2.5 2.5 0 0 1 135.519 197.86 A 5 5 0 0 1 134.466 195.719 L 134.206 194.767 A 2.5 2.5 0 0 0 133.045 193.262 L 116.151 183.508 A 2.5 2.5 0 0 1 114.901 181.343 L 114.901 124.666 A 2.5 2.5 0 0 0 112.401 122.166 L 81.401 122.166 A 2.5 2.5 0 0 1 78.901 119.666 L 78.901 118.716 A 2.5 2.5 0 0 0 76.401 116.216 L 61.25 116.216 A 2.5 2.5 0 0 0 58.75 118.716 L 58.75 120.874 A 2.5 2.5 0 0 1 56.424 123.367 L 40.218 124.501 A 2.5 2.5 0 0 0 37.899 127.169 L 38.448 135.019 A 2.5 2.5 0 0 1 36.345 137.663 L 19.982 140.255 A 2.5 2.5 0 0 0 17.904 143.115 L 25.436 190.673 A 2.5 2.5 0 0 0 28.297 192.751 Z M 134.37 74.759 L 134.37 23.041 A 2.5 2.5 0 0 0 131.87 20.541 L 117.421 20.541 A 2.5 2.5 0 0 0 114.921 23.041 L 114.921 66.417 A 2.5 2.5 0 0 0 116.171 68.582 L 118.249 69.782 L 130.62 76.924 A 2.5 2.5 0 0 0 134.37 74.759 Z M 134.37 189.665 L 134.37 137.947 A 2.5 2.5 0 0 0 131.87 135.447 L 117.421 135.447 A 2.5 2.5 0 0 0 114.921 137.947 L 114.921 181.323 A 2.5 2.5 0 0 0 116.171 183.488 L 118.249 184.688 L 130.62 191.83 A 2.5 2.5 0 0 0 134.37 189.665 Z M 119.235 54.816 L 130.055 54.816 A 0.24 0.24 0 0 0 130.295 54.576 L 130.295 29.256 A 0.24 0.24 0 0 0 130.055 29.016 L 119.235 29.016 A 0.24 0.24 0 0 0 118.995 29.256 L 118.995 54.576 A 0.24 0.24 0 0 0 119.235 54.816 Z M 119.235 169.722 L 130.055 169.722 A 0.24 0.24 0 0 0 130.295 169.482 L 130.295 144.162 A 0.24 0.24 0 0 0 130.055 143.922 L 119.235 143.922 A 0.24 0.24 0 0 0 118.995 144.162 L 118.995 169.482 A 0.24 0.24 0 0 0 119.235 169.722 Z M 50.924 78.841 L 54.305 77.935 L 54.46 78.514 A 0.4 0.4 0 0 0 54.95 78.797 L 60.263 77.374 A 0.4 0.4 0 0 0 60.546 76.884 L 60.39 76.304 L 63.771 75.398 A 0.25 0.25 0 0 0 63.948 75.092 L 60.506 62.245 A 0.25 0.25 0 0 0 60.199 62.069 L 47.353 65.511 A 0.25 0.25 0 0 0 47.176 65.817 L 50.618 78.664 A 0.25 0.25 0 0 0 50.924 78.841 Z M 50.924 193.747 L 54.305 192.841 L 54.46 193.42 A 0.4 0.4 0 0 0 54.95 193.703 L 60.263 192.28 A 0.4 0.4 0 0 0 60.546 191.79 L 60.39 191.21 L 63.771 190.304 A 0.25 0.25 0 0 0 63.948 189.998 L 60.506 177.151 A 0.25 0.25 0 0 0 60.199 176.975 L 47.353 180.417 A 0.25 0.25 0 0 0 47.176 180.723 L 50.618 193.57 A 0.25 0.25 0 0 0 50.924 193.747 Z M 43.477 42.924 L 56.744 41.996 A 0.25 0.25 0 0 0 56.976 41.729 L 56.048 28.462 A 0.25 0.25 0 0 0 55.782 28.23 L 42.514 29.158 A 0.25 0.25 0 0 0 42.282 29.424 L 43.21 42.692 A 0.25 0.25 0 0 0 43.477 42.924 Z M 43.477 157.83 L 56.744 156.902 A 0.25 0.25 0 0 0 56.976 156.635 L 56.048 143.368 A 0.25 0.25 0 0 0 55.782 143.136 L 42.514 144.064 A 0.25 0.25 0 0 0 42.282 144.33 L 43.21 157.598 A 0.25 0.25 0 0 0 43.477 157.83 Z M 42.291 25.965 L 55.558 25.038 A 0.25 0.25 0 0 0 55.79 24.771 L 54.863 11.503 A 0.25 0.25 0 0 0 54.596 11.271 L 41.328 12.199 A 0.25 0.25 0 0 0 41.096 12.466 L 42.024 25.734 A 0.25 0.25 0 0 0 42.291 25.965 Z M 42.291 140.871 L 55.558 139.944 A 0.25 0.25 0 0 0 55.79 139.677 L 54.863 126.409 A 0.25 0.25 0 0 0 54.596 126.177 L 41.328 127.105 A 0.25 0.25 0 0 0 41.096 127.372 L 42.024 140.64 A 0.25 0.25 0 0 0 42.291 140.871 Z M 44.662 174.789 L 57.93 173.861 A 0.25 0.25 0 0 0 58.162 173.594 L 57.234 160.326 A 0.25 0.25 0 0 0 56.967 160.094 L 43.7 161.022 A 0.25 0.25 0 0 0 43.468 161.289 L 44.396 174.557 A 0.25 0.25 0 0 0 44.662 174.789 Z M 44.662 59.883 L 57.93 58.955 A 0.25 0.25 0 0 0 58.162 58.688 L 57.234 45.42 A 0.25 0.25 0 0 0 56.967 45.188 L 43.7 46.116 A 0.25 0.25 0 0 0 43.468 46.383 L 44.396 59.651 A 0.25 0.25 0 0 0 44.662 59.883 Z M 119.649 205.317 L 129.053 214.721 A 0.25 0.25 0 0 0 129.407 214.721 L 138.811 205.317 A 0.25 0.25 0 0 0 138.811 204.963 L 129.407 195.559 A 0.25 0.25 0 0 0 129.053 195.559 L 119.649 204.963 A 0.25 0.25 0 0 0 119.649 205.317 Z M 119.649 90.411 L 129.053 99.815 A 0.25 0.25 0 0 0 129.407 99.815 L 138.811 90.411 A 0.25 0.25 0 0 0 138.811 90.057 L 129.407 80.653 A 0.25 0.25 0 0 0 129.053 80.653 L 119.649 90.057 A 0.25 0.25 0 0 0 119.649 90.411 Z M 98.175 175.192 L 111.475 175.192 A 0.25 0.25 0 0 0 111.725 174.942 L 111.725 161.642 A 0.25 0.25 0 0 0 111.475 161.392 L 98.175 161.392 A 0.25 0.25 0 0 0 97.925 161.642 L 97.925 174.942 A 0.25 0.25 0 0 0 98.175 175.192 Z M 98.175 141.192 L 111.475 141.192 A 0.25 0.25 0 0 0 111.725 140.942 L 111.725 127.642 A 0.25 0.25 0 0 0 111.475 127.392 L 98.175 127.392 A 0.25 0.25 0 0 0 97.925 127.642 L 97.925 140.942 A 0.25 0.25 0 0 0 98.175 141.192 Z M 98.175 43.286 L 111.475 43.286 A 0.25 0.25 0 0 0 111.725 43.036 L 111.725 29.736 A 0.25 0.25 0 0 0 111.475 29.486 L 98.175 29.486 A 0.25 0.25 0 0 0 97.925 29.736 L 97.925 43.036 A 0.25 0.25 0 0 0 98.175 43.286 Z M 98.175 26.286 L 111.475 26.286 A 0.25 0.25 0 0 0 111.725 26.036 L 111.725 12.736 A 0.25 0.25 0 0 0 111.475 12.486 L 98.175 12.486 A 0.25 0.25 0 0 0 97.925 12.736 L 97.925 26.036 A 0.25 0.25 0 0 0 98.175 26.286 Z M 98.175 60.286 L 111.475 60.286 A 0.25 0.25 0 0 0 111.725 60.036 L 111.725 46.736 A 0.25 0.25 0 0 0 111.475 46.486 L 98.175 46.486 A 0.25 0.25 0 0 0 97.925 46.736 L 97.925 60.036 A 0.25 0.25 0 0 0 98.175 60.286 Z M 62.175 149.692 L 75.475 149.692 A 0.25 0.25 0 0 0 75.725 149.442 L 75.725 136.142 A 0.25 0.25 0 0 0 75.475 135.892 L 62.175 135.892 A 0.25 0.25 0 0 0 61.925 136.142 L 61.925 149.442 A 0.25 0.25 0 0 0 62.175 149.692 Z M 80.175 172.642 L 93.475 172.642 A 0.25 0.25 0 0 0 93.725 172.392 L 93.725 159.092 A 0.25 0.25 0 0 0 93.475 158.842 L 80.175 158.842 A 0.25 0.25 0 0 0 79.925 159.092 L 79.925 172.392 A 0.25 0.25 0 0 0 80.175 172.642 Z M 80.175 155.642 L 93.475 155.642 A 0.25 0.25 0 0 0 93.725 155.392 L 93.725 142.092 A 0.25 0.25 0 0 0 93.475 141.842 L 80.175 141.842 A 0.25 0.25 0 0 0 79.925 142.092 L 79.925 155.392 A 0.25 0.25 0 0 0 80.175 155.642 Z M 98.175 158.192 L 111.475 158.192 A 0.25 0.25 0 0 0 111.725 157.942 L 111.725 144.642 A 0.25 0.25 0 0 0 111.475 144.392 L 98.175 144.392 A 0.25 0.25 0 0 0 97.925 144.642 L 97.925 157.942 A 0.25 0.25 0 0 0 98.175 158.192 Z M 68.655 189.642 L 81.955 189.642 A 0.25 0.25 0 0 0 82.205 189.392 L 82.205 176.092 A 0.25 0.25 0 0 0 81.955 175.842 L 68.655 175.842 A 0.25 0.25 0 0 0 68.405 176.092 L 68.405 189.392 A 0.25 0.25 0 0 0 68.655 189.642 Z M 62.175 51.786 L 75.475 51.786 A 0.25 0.25 0 0 0 75.725 51.536 L 75.725 38.236 A 0.25 0.25 0 0 0 75.475 37.986 L 62.175 37.986 A 0.25 0.25 0 0 0 61.925 38.236 L 61.925 51.536 A 0.25 0.25 0 0 0 62.175 51.786 Z M 62.175 34.786 L 75.475 34.786 A 0.25 0.25 0 0 0 75.725 34.536 L 75.725 21.236 A 0.25 0.25 0 0 0 75.475 20.986 L 62.175 20.986 A 0.25 0.25 0 0 0 61.925 21.236 L 61.925 34.536 A 0.25 0.25 0 0 0 62.175 34.786 Z M 80.175 40.736 L 93.475 40.736 A 0.25 0.25 0 0 0 93.725 40.486 L 93.725 27.186 A 0.25 0.25 0 0 0 93.475 26.936 L 80.175 26.936 A 0.25 0.25 0 0 0 79.925 27.186 L 79.925 40.486 A 0.25 0.25 0 0 0 80.175 40.736 Z M 62.175 17.786 L 75.475 17.786 A 0.25 0.25 0 0 0 75.725 17.536 L 75.725 4.236 A 0.25 0.25 0 0 0 75.475 3.986 L 62.175 3.986 A 0.25 0.25 0 0 0 61.925 4.236 L 61.925 17.536 A 0.25 0.25 0 0 0 62.175 17.786 Z M 80.175 57.736 L 93.475 57.736 A 0.25 0.25 0 0 0 93.725 57.486 L 93.725 44.186 A 0.25 0.25 0 0 0 93.475 43.936 L 80.175 43.936 A 0.25 0.25 0 0 0 79.925 44.186 L 79.925 57.486 A 0.25 0.25 0 0 0 80.175 57.736 Z M 80.175 23.736 L 93.475 23.736 A 0.25 0.25 0 0 0 93.725 23.486 L 93.725 10.186 A 0.25 0.25 0 0 0 93.475 9.936 L 80.175 9.936 A 0.25 0.25 0 0 0 79.925 10.186 L 79.925 23.486 A 0.25 0.25 0 0 0 80.175 23.736 Z M 68.655 74.736 L 81.955 74.736 A 0.25 0.25 0 0 0 82.205 74.486 L 82.205 61.186 A 0.25 0.25 0 0 0 81.955 60.936 L 68.655 60.936 A 0.25 0.25 0 0 0 68.405 61.186 L 68.405 74.486 A 0.25 0.25 0 0 0 68.655 74.736 Z M 62.175 132.692 L 75.475 132.692 A 0.25 0.25 0 0 0 75.725 132.442 L 75.725 119.142 A 0.25 0.25 0 0 0 75.475 118.892 L 62.175 118.892 A 0.25 0.25 0 0 0 61.925 119.142 L 61.925 132.442 A 0.25 0.25 0 0 0 62.175 132.692 Z M 80.175 138.642 L 93.475 138.642 A 0.25 0.25 0 0 0 93.725 138.392 L 93.725 125.092 A 0.25 0.25 0 0 0 93.475 124.842 L 80.175 124.842 A 0.25 0.25 0 0 0 79.925 125.092 L 79.925 138.392 A 0.25 0.25 0 0 0 80.175 138.642 Z M 62.175 166.692 L 75.475 166.692 A 0.25 0.25 0 0 0 75.725 166.442 L 75.725 153.142 A 0.25 0.25 0 0 0 75.475 152.892 L 62.175 152.892 A 0.25 0.25 0 0 0 61.925 153.142 L 61.925 166.442 A 0.25 0.25 0 0 0 62.175 166.692 Z M 9.737 69.814 L 22.873 67.734 A 0.25 0.25 0 0 0 23.081 67.448 L 21.001 54.311 A 0.25 0.25 0 0 0 20.715 54.104 L 7.578 56.184 A 0.25 0.25 0 0 0 7.371 56.47 L 9.451 69.606 A 0.25 0.25 0 0 0 9.737 69.814 Z M 7.078 53.024 L 20.214 50.943 A 0.25 0.25 0 0 0 20.422 50.657 L 18.341 37.521 A 0.25 0.25 0 0 0 18.055 37.313 L 4.919 39.393 A 0.25 0.25 0 0 0 4.711 39.68 L 6.792 52.816 A 0.25 0.25 0 0 0 7.078 53.024 Z M 26.133 173.173 L 39.269 171.093 A 0.25 0.25 0 0 0 39.477 170.807 L 37.396 157.67 A 0.25 0.25 0 0 0 37.11 157.463 L 23.974 159.543 A 0.25 0.25 0 0 0 23.766 159.829 L 25.847 172.965 A 0.25 0.25 0 0 0 26.133 173.173 Z M 26.133 58.267 L 39.269 56.187 A 0.25 0.25 0 0 0 39.477 55.901 L 37.396 42.764 A 0.25 0.25 0 0 0 37.11 42.557 L 23.974 44.637 A 0.25 0.25 0 0 0 23.766 44.923 L 25.847 58.059 A 0.25 0.25 0 0 0 26.133 58.267 Z M 23.473 41.477 L 36.61 39.396 A 0.25 0.25 0 0 0 36.817 39.11 L 34.737 25.974 A 0.25 0.25 0 0 0 34.451 25.766 L 21.315 27.846 A 0.25 0.25 0 0 0 21.107 28.133 L 23.187 41.269 A 0.25 0.25 0 0 0 23.473 41.477 Z M 23.473 156.383 L 36.61 154.302 A 0.25 0.25 0 0 0 36.817 154.016 L 34.737 140.88 A 0.25 0.25 0 0 0 34.451 140.672 L 21.315 142.752 A 0.25 0.25 0 0 0 21.107 143.039 L 23.187 156.175 A 0.25 0.25 0 0 0 23.473 156.383 Z M 28.792 75.058 L 41.928 72.977 A 0.25 0.25 0 0 0 42.136 72.691 L 40.056 59.555 A 0.25 0.25 0 0 0 39.77 59.347 L 26.633 61.428 A 0.25 0.25 0 0 0 26.426 61.714 L 28.506 74.85 A 0.25 0.25 0 0 0 28.792 75.058 Z M 28.792 189.964 L 41.928 187.883 A 0.25 0.25 0 0 0 42.136 187.597 L 40.056 174.461 A 0.25 0.25 0 0 0 39.77 174.253 L 26.633 176.334 A 0.25 0.25 0 0 0 26.426 176.62 L 28.506 189.756 A 0.25 0.25 0 0 0 28.792 189.964 Z M 104.232 80.745 L 115.75 87.395 A 0.25 0.25 0 0 0 116.092 87.303 L 122.742 75.785 A 0.25 0.25 0 0 0 122.65 75.444 L 111.132 68.794 A 0.25 0.25 0 0 0 110.791 68.885 L 104.141 80.403 A 0.25 0.25 0 0 0 104.232 80.745 Z M 104.232 195.651 L 115.75 202.301 A 0.25 0.25 0 0 0 116.092 202.209 L 122.742 190.691 A 0.25 0.25 0 0 0 122.65 190.35 L 111.132 183.7 A 0.25 0.25 0 0 0 110.791 183.791 L 104.141 195.309 A 0.25 0.25 0 0 0 104.232 195.651 Z M 86.839 75.398 L 99.686 78.841 A 0.25 0.25 0 0 0 99.992 78.664 L 103.435 65.817 A 0.25 0.25 0 0 0 103.258 65.511 L 90.411 62.069 A 0.25 0.25 0 0 0 90.105 62.245 L 86.662 75.092 A 0.25 0.25 0 0 0 86.839 75.398 Z M 86.839 190.304 L 99.686 193.747 A 0.25 0.25 0 0 0 99.992 193.57 L 103.435 180.723 A 0.25 0.25 0 0 0 103.258 180.417 L 90.411 176.975 A 0.25 0.25 0 0 0 90.105 177.151 L 86.662 189.998 A 0.25 0.25 0 0 0 86.839 190.304 Z M 59.025 19.386 m -1.1 0 a 1.1 1.1 0 0 1 2.2 0 a 1.1 1.1 0 0 1 -2.2 0 z M 95.475 25.336 m -1.1 0 a 1.1 1.1 0 0 1 2.2 0 a 1.1 1.1 0 0 1 -2.2 0 z M 121.851 83.527 m -1.1 0 a 1.1 1.1 0 0 1 2.2 0 a 1.1 1.1 0 0 1 -2.2 0 z M 65.351 68.349 m -1.1 0 a 1.1 1.1 0 0 1 2.2 0 a 1.1 1.1 0 0 1 -2.2 0 z M 22.44 52.21 m -1.1 0 a 1.1 1.1 0 0 1 2.2 0 a 1.1 1.1 0 0 1 -2.2 0 z M 59.025 134.292 m -1.1 0 a 1.1 1.1 0 0 1 2.2 0 a 1.1 1.1 0 0 1 -2.2 0 z M 95.475 140.242 m -1.1 0 a 1.1 1.1 0 0 1 2.2 0 a 1.1 1.1 0 0 1 -2.2 0 z M 121.851 198.433 m -1.1 0 a 1.1 1.1 0 0 1 2.2 0 a 1.1 1.1 0 0 1 -2.2 0 z M 65.351 183.255 m -1.1 0 a 1.1 1.1 0 0 1 2.2 0 a 1.1 1.1 0 0 1 -2.2 0 z M 39.774 155.421 m -1.1 0 a 1.1 1.1 0 0 1 2.2 0 a 1.1 1.1 0 0 1 -2.2 0 z M 117.845 66.166 m -1 0 a 1 1 0 0 1 2 0 a 1 1 0 0 1 -2 0 z M 131.445 74.02 m -1 0 a 1 1 0 0 1 2 0 a 1 1 0 0 1 -2 0 z M 117.845 181.072 m -1 0 a 1 1 0 0 1 2 0 a 1 1 0 0 1 -2 0 z M 131.445 188.926 m -1 0 a 1 1 0 0 1 2 0 a 1 1 0 0 1 -2 0 z" vector-effect="non-scaling-stroke"/></g></svg>