<svg width="127.531mm" height="91.856mm" viewBox="0 0 127.531 91.856" xmlns="http://www.w3.org/2000/svg"><g id="svgGroup" stroke-linecap="round" fill-rule="evenodd" font-size="9pt" stroke="#000" stroke-width="0.25mm" fill="none" style="stroke:#000;stroke-width:0.25mm;fill:none"><path d="M 8.351 68.356 L 26.176 65.851 A 1.1 1.1 0 0 0 27.112 64.609 L 26.493 60.203 A 0.9 0.9 0 0 1 27.321 59.18 L 47.715 57.754 A 0.9 0.9 0 0 1 48.678 58.652 L 48.678 74.2 A 1.1 1.1 0 0 0 49.778 75.3 L 67.62 75.3 A 0.9 0.9 0 0 1 67.761 75.311 L 85.228 78.078 A 0.9 0.9 0 0 1 85.366 78.111 L 101.331 83.298 A 0.9 0.9 0 0 1 101.455 83.349 L 118.218 91.74 A 1.1 1.1 0 0 0 119.69 91.256 L 127.411 76.102 A 1.1 1.1 0 0 0 126.93 74.623 L 118.669 70.413 A 0.9 0.9 0 0 1 118.178 69.611 L 118.178 12.55 A 1.1 1.1 0 0 0 117.078 11.45 L 98.578 11.45 A 0.9 0.9 0 0 1 97.678 10.55 L 97.678 7.05 A 1.1 1.1 0 0 0 96.578 5.95 L 80.578 5.95 A 0.9 0.9 0 0 1 79.678 5.05 L 79.678 4.5 A 1.1 1.1 0 0 0 78.578 3.4 L 62.578 3.4 A 0.9 0.9 0 0 1 61.678 2.5 L 61.678 1.1 A 1.1 1.1 0 0 0 60.578 0 L 42.578 0 A 1.1 1.1 0 0 0 41.478 1.1 L 41.478 4.021 A 0.9 0.9 0 0 1 40.64 4.919 L 21.4 6.264 A 1.1 1.1 0 0 0 20.379 7.438 L 20.702 12.052 A 0.9 0.9 0 0 1 19.929 13.006 L 0.947 15.674 A 1.1 1.1 0 0 0 0.011 16.916 L 7.109 67.42 A 1.1 1.1 0 0 0 8.351 68.356 Z M 41.578 17.6 m -1.1 0 a 1.1 1.1 0 0 1 2.2 0 a 1.1 1.1 0 0 1 -2.2 0 z M 78.218 21.5 m -1.1 0 a 1.1 1.1 0 0 1 2.2 0 a 1.1 1.1 0 0 1 -2.2 0 z M 105.718 75.155 m -1.1 0 a 1.1 1.1 0 0 1 2.2 0 a 1.1 1.1 0 0 1 -2.2 0 z M 69.078 57.2 m -1.1 0 a 1.1 1.1 0 0 1 2.2 0 a 1.1 1.1 0 0 1 -2.2 0 z M 23.264 41.52 m -1.1 0 a 1.1 1.1 0 0 1 2.2 0 a 1.1 1.1 0 0 1 -2.2 0 z" vector-effect="non-scaling-stroke"/></g></svg>