0
SECTION
2
HEADER
9
$INSUNITS
70
4
0
ENDSEC
0
SECTION
2
TABLES
0
TABLE
2
LTYPE
0
LTYPE
72
65
70
64
2
CONTINUOUS
3
______
73
0
40
0
0
ENDTAB
0
TABLE
2
LAYER
0
ENDTAB
0
ENDSEC
0
SECTION
2
ENTITIES
0
LINE
8
0
10
40.0577065
20
-93.9245742
11
55.9019956
21
-91.6978045
0
ARC
8
0
10
56.0272513
20
-92.5890458
40
0.9
50
7.9999997
51
97.9999997
0
LINE
8
0
10
56.9184926
20
-92.46379
11
57.8231177
21
-98.9005325
0
ARC
8
0
10
58.9124127
20
-98.7474421
40
1.1
50
187.9999997
51
277.9999997
0
LINE
8
0
10
59.0655031
20
-99.836737
11
76.8903282
21
-97.3316211
0
ARC
8
0
10
76.7372378
20
-96.2423262
40
1.1
50
277.9999997
51
367.9999997
0
LINE
8
0
10
77.8265327
20
-96.0892358
11
77.2073779
21
-91.6837202
0
ARC
8
0
10
78.0986192
20
-91.5584644
40
0.9
50
94.0000013
51
187.9999997
0
LINE
8
0
10
78.0359794
20
-90.6606468
11
98.4292812
21
-89.2346084
0
ARC
8
0
10
98.4922031
20
-90.1324062
40
0.9
50
0
51
94.0000013
0
LINE
8
0
10
99.3922031
20
-90.1324062
11
99.3922031
21
-105.6806663
0
ARC
8
0
10
100.4922031
20
-105.6806663
40
1.1
50
180
51
270
0
LINE
8
0
10
100.4922031
20
-106.7806663
11
118.3347998
21
-106.7806663
0
ARC
8
0
10
118.3347998
20
-107.6806663
40
0.9
50
80.9999977
51
90
0
LINE
8
0
10
118.4755909
20
-106.7917468
11
135.9430492
21
-109.5583205
0
ARC
8
0
10
135.8022582
20
-110.4472399
40
0.9
50
71.9999994
51
80.9999977
0
LINE
8
0
10
136.0803735
20
-109.5912891
11
152.0451791
21
-114.7785688
0
ARC
8
0
10
151.7670638
20
-115.6345197
40
0.9
50
63.4082261
51
71.9999994
0
LINE
8
0
10
168.9321111
20
-123.2205878
11
152.1699314
21
-114.829723
0
ARC
8
0
10
169.4245049
20
-122.2369474
40
1.1
50
243.4082261
51
332.9999994
0
LINE
8
0
10
170.4046121
20
-122.7363369
11
178.1256737
21
-107.5829002
0
ARC
8
0
10
177.1455666
20
-107.0835106
40
1.1
50
332.9999994
51
422.9999994
0
LINE
8
0
10
169.3836116
20
-101.8940381
11
177.6449562
21
-106.1034034
0
ARC
8
0
10
169.7922031
20
-101.0921323
40
0.9
50
180
51
242.9999994
0
LINE
8
0
10
168.8922031
20
-101.0921323
11
168.8922031
21
-44.0306663
0
ARC
8
0
10
167.7922031
20
-44.0306663
40
1.1
50
0
51
90
0
LINE
8
0
10
167.7922031
20
-42.9306663
11
149.2922031
21
-42.9306663
0
ARC
8
0
10
149.2922031
20
-42.0306663
40
0.9
50
180
51
270
0
LINE
8
0
10
148.3922031
20
-42.0306663
11
148.3922031
21
-38.5306663
0
ARC
8
0
10
147.2922031
20
-38.5306663
40
1.1
50
0
51
90
0
LINE
8
0
10
147.2922031
20
-37.4306663
11
131.2922032
21
-37.4306663
0
ARC
8
0
10
131.2922032
20
-36.5306663
40
0.9
50
180
51
270
0
LINE
8
0
10
130.3922032
20
-36.5306663
11
130.3922032
21
-35.9806663
0
ARC
8
0
10
129.2922032
20
-35.9806663
40
1.1
50
0
51
90
0
LINE
8
0
10
129.2922032
20
-34.8806663
11
113.2922031
21
-34.8806663
0
ARC
8
0
10
113.2922031
20
-33.9806663
40
0.9
50
180
51
270
0
LINE
8
0
10
112.3922031
20
-33.9806663
11
112.3922031
21
-32.5806663
0
ARC
8
0
10
111.2922031
20
-32.5806663
40
1.1
50
0
51
90
0
LINE
8
0
10
111.2922031
20
-31.4806663
11
93.2922031
21
-31.4806663
0
ARC
8
0
10
93.2922031
20
-32.5806663
40
1.1
50
90
51
180
0
LINE
8
0
10
92.1922031
20
-35.5015747
11
92.1922031
21
-32.5806663
0
ARC
8
0
10
91.2922031
20
-35.5015747
40
0.9
50
274.0000013
51
360
0
LINE
8
0
10
72.1142745
20
-37.7448238
11
91.3548429
21
-36.3993923
0
ARC
8
0
10
72.1910066
20
-38.8421443
40
1.1
50
94.0077266
51
183.9922764
0
LINE
8
0
10
71.0936861
20
-38.9188764
11
71.416304
21
-43.5325287
0
ARC
8
0
10
70.5185062
20
-43.5954506
40
0.9
50
277.9999997
51
364.0000013
0
LINE
8
0
10
51.6614942
20
-47.1544757
11
70.643762
21
-44.4866919
0
ARC
8
0
10
51.8145846
20
-48.2437706
40
1.1
50
97.9999997
51
187.9999997
0
LINE
8
0
10
50.7252897
20
-48.396861
11
51.6299148
21
-54.8336033
0
ARC
8
0
10
50.7386735
20
-54.9588591
40
0.9
50
277.9999997
51
367.9999997
0
LINE
8
0
10
50.8639293
20
-55.8501004
11
35.0196403
21
-58.0768701
0
ARC
8
0
10
35.1727307
20
-59.166165
40
1.1
50
97.9999997
51
187.9999997
0
LINE
8
0
10
34.0834358
20
-59.3192554
11
38.8153212
21
-92.9883697
0
ARC
8
0
10
39.9046161
20
-92.8352793
40
1.1
50
187.9999997
51
277.9999997
0
CIRCLE
8
0
10
92.2922031
20
-49.0806663
40
1.1
0
CIRCLE
8
0
10
128.9322031
20
-52.9806663
40
1.1
0
CIRCLE
8
0
10
156.4323804
20
-106.6357507
40
1.1
0
CIRCLE
8
0
10
119.7922032
20
-88.6806663
40
1.1
0
CIRCLE
8
0
10
73.9781395
20
-73.0006887
40
1.1
0
ENDSEC
0
EOF