<svg width="130.205mm" height="94.395mm" viewBox="0 0 130.205 94.395" xmlns="http://www.w3.org/2000/svg"><g id="svgGroup" stroke-linecap="round" fill-rule="evenodd" font-size="9pt" stroke="#000" stroke-width="0.25mm" fill="none" style="stroke:#000;stroke-width:0.25mm;fill:none"><path d="M 8.743 70.685 L 28.549 67.901 A 1.2 1.2 0 0 0 29.57 66.546 L 29.02 62.637 A 1.2 1.2 0 0 1 30.125 61.273 L 47.523 60.056 A 1.2 1.2 0 0 1 48.807 61.253 L 48.807 76.3 A 1.2 1.2 0 0 0 50.007 77.5 L 68.739 77.5 A 1.2 1.2 0 0 1 68.927 77.515 L 86.177 80.247 A 1.2 1.2 0 0 1 86.36 80.291 L 102.12 85.412 A 1.2 1.2 0 0 1 102.286 85.48 L 119.842 94.268 A 1.2 1.2 0 0 0 121.449 93.74 L 130.075 76.811 A 1.2 1.2 0 0 0 129.55 75.197 L 121.162 70.923 A 1.2 1.2 0 0 1 120.507 69.854 L 120.507 12.65 A 1.2 1.2 0 0 0 119.307 11.45 L 101.207 11.45 A 1.2 1.2 0 0 1 100.007 10.25 L 100.007 7.15 A 1.2 1.2 0 0 0 98.807 5.95 L 83.207 5.95 A 1.2 1.2 0 0 1 82.007 4.75 L 82.007 4.6 A 1.2 1.2 0 0 0 80.807 3.4 L 65.207 3.4 A 1.2 1.2 0 0 1 64.007 2.2 L 64.007 1.2 A 1.2 1.2 0 0 0 62.807 0 L 42.807 0 A 1.2 1.2 0 0 0 41.607 1.2 L 41.607 3.815 A 1.2 1.2 0 0 1 40.491 5.012 L 21.555 6.337 A 1.2 1.2 0 0 0 20.441 7.617 L 20.743 11.926 A 1.2 1.2 0 0 1 19.713 13.198 L 1.033 15.824 A 1.2 1.2 0 0 0 0.012 17.179 L 7.388 69.663 A 1.2 1.2 0 0 0 8.743 70.685 Z" vector-effect="non-scaling-stroke"/></g></svg>