<svg width="146.847mm" height="94.395mm" viewBox="0 0 146.847 94.395" xmlns="http://www.w3.org/2000/svg"><g id="svgGroup" stroke-linecap="round" fill-rule="evenodd" font-size="9pt" stroke="#000" stroke-width="0.25mm" fill="none" style="stroke:#000;stroke-width:0.25mm;fill:none"><path d="M 6.377 64.772 L 21.825 62.601 A 1.2 1.2 0 0 1 23.181 63.623 L 24.03 69.663 A 1.2 1.2 0 0 0 25.385 70.685 L 45.19 67.901 A 1.2 1.2 0 0 0 46.212 66.546 L 45.662 62.637 A 1.2 1.2 0 0 1 46.767 61.273 L 64.165 60.056 A 1.2 1.2 0 0 1 65.449 61.253 L 65.449 76.3 A 1.2 1.2 0 0 0 66.649 77.5 L 85.381 77.5 A 1.2 1.2 0 0 1 85.569 77.515 L 102.819 80.247 A 1.2 1.2 0 0 1 103.002 80.291 L 118.762 85.412 A 1.2 1.2 0 0 1 118.928 85.48 L 136.484 94.268 A 1.2 1.2 0 0 0 138.091 93.74 L 146.716 76.811 A 1.2 1.2 0 0 0 146.192 75.197 L 137.804 70.923 A 1.2 1.2 0 0 1 137.149 69.854 L 137.149 12.65 A 1.2 1.2 0 0 0 135.949 11.45 L 117.849 11.45 A 1.2 1.2 0 0 1 116.649 10.25 L 116.649 7.15 A 1.2 1.2 0 0 0 115.449 5.95 L 99.849 5.95 A 1.2 1.2 0 0 1 98.649 4.75 L 98.649 4.6 A 1.2 1.2 0 0 0 97.449 3.4 L 81.849 3.4 A 1.2 1.2 0 0 1 80.649 2.2 L 80.649 1.2 A 1.2 1.2 0 0 0 79.449 0 L 59.449 0 A 1.2 1.2 0 0 0 58.249 1.2 L 58.249 3.815 A 1.2 1.2 0 0 1 57.133 5.012 L 38.197 6.337 A 1.2 1.2 0 0 0 37.083 7.617 L 37.385 11.926 A 1.2 1.2 0 0 1 36.355 13.198 L 17.675 15.824 A 1.2 1.2 0 0 0 16.654 17.179 L 17.502 23.22 A 1.2 1.2 0 0 1 16.481 24.575 L 1.033 26.746 A 1.2 1.2 0 0 0 0.012 28.101 L 5.022 63.751 A 1.2 1.2 0 0 0 6.377 64.772 Z" vector-effect="non-scaling-stroke"/></g></svg>