0
SECTION
2
HEADER
9
$INSUNITS
70
4
0
ENDSEC
0
SECTION
2
TABLES
0
TABLE
2
LTYPE
0
LTYPE
72
65
70
64
2
CONTINUOUS
3
______
73
0
40
0
0
ENDTAB
0
TABLE
2
LAYER
0
ENDTAB
0
ENDSEC
0
SECTION
2
ENTITIES
0
LINE
8
0
10
39.2205288
20
-95.1530422
11
54.6687107
21
-92.9819418
0
LINE
8
0
10
56.0240401
20
-94.0032557
11
56.872996
21
-100.043891
0
ARC
8
0
10
58.0613177
20
-99.8768833
40
1.2
50
187.9999992
51
278.0000003
0
LINE
8
0
10
58.2283254
20
-101.065205
11
78.0336867
21
-98.2817429
0
ARC
8
0
10
77.866679
20
-97.0934212
40
1.2
50
278.0000003
51
367.9999989
0
LINE
8
0
10
79.0550007
20
-96.9264135
11
78.5056156
21
-93.0173353
0
LINE
8
0
10
79.6102295
20
-91.6532507
11
97.0084953
21
-90.4366455
0
LINE
8
0
10
98.2922031
20
-91.6337224
11
98.2922031
21
-106.6806663
0
ARC
8
0
10
99.4922031
20
-106.6806663
40
1.2
50
180
51
270
0
LINE
8
0
10
99.4922031
20
-107.8806663
11
118.2246172
21
-107.8806663
0
LINE
8
0
10
118.4123386
20
-107.8954403
11
135.6621457
21
-110.6275414
0
LINE
8
0
10
135.8452447
20
-110.6714995
11
151.605242
21
-115.7922331
0
LINE
8
0
10
169.3275872
20
-124.6486808
11
151.7715785
21
-115.8604386
0
ARC
8
0
10
169.8647441
20
-123.5756186
40
1.2
50
243.4082236
51
333
0
LINE
8
0
10
170.9339519
20
-124.1204072
11
179.5597714
21
-107.1912832
0
ARC
8
0
10
178.4905636
20
-106.6464946
40
1.2
50
333
51
422.9999992
0
LINE
8
0
10
170.6474145
20
-101.3034191
11
179.0353522
21
-105.5772868
0
LINE
8
0
10
169.9922031
20
-100.2342113
11
169.9922031
21
-43.0306663
0
ARC
8
0
10
168.7922031
20
-43.0306663
40
1.2
50
0
51
90
0
LINE
8
0
10
168.7922031
20
-41.8306663
11
150.6922031
21
-41.8306663
0
LINE
8
0
10
149.4922031
20
-40.6306663
11
149.4922031
21
-37.5306663
0
ARC
8
0
10
148.2922031
20
-37.5306663
40
1.2
50
0
51
90
0
LINE
8
0
10
148.2922031
20
-36.3306663
11
132.6922032
21
-36.3306663
0
LINE
8
0
10
131.4922032
20
-35.1306663
11
131.4922032
21
-34.9806663
0
ARC
8
0
10
130.2922032
20
-34.9806663
40
1.2
50
0
51
90
0
LINE
8
0
10
130.2922032
20
-33.7806663
11
114.6922031
21
-33.7806663
0
LINE
8
0
10
113.4922031
20
-32.5806663
11
113.4922031
21
-31.5806663
0
ARC
8
0
10
112.2922031
20
-31.5806663
40
1.2
50
0
51
90
0
LINE
8
0
10
112.2922031
20
-30.3806663
11
92.2922031
21
-30.3806663
0
ARC
8
0
10
92.2922031
20
-31.5806663
40
1.2
50
90
51
180
0
LINE
8
0
10
91.0922031
20
-34.1960535
11
91.0922031
21
-31.5806663
0
LINE
8
0
10
71.0399782
20
-36.7172598
11
89.9759109
21
-35.3931304
0
ARC
8
0
10
71.123686
20
-37.9143367
40
1.2
50
94.0000014
51
184
0
LINE
8
0
10
69.9266091
20
-37.9980445
11
70.2279249
21
-42.307061
0
LINE
8
0
10
50.5181357
20
-46.2043539
11
69.1978557
21
-43.5790905
0
ARC
8
0
10
50.6851434
20
-47.3926756
40
1.2
50
98.0000001
51
187.9999989
0
LINE
8
0
10
49.4968217
20
-47.5596833
11
50.3457776
21
-53.6003184
0
LINE
8
0
10
49.3244637
20
-54.9556479
11
33.8762817
21
-57.1267483
0
ARC
8
0
10
34.0432895
20
-58.31507
40
1.2
50
98.0000018
51
187.9999999
0
LINE
8
0
10
32.8549678
20
-58.4820777
11
37.8651994
21
-94.1317282
0
ARC
8
0
10
39.0535211
20
-93.9647205
40
1.2
50
187.9999989
51
278.0000003
0
ARC
8
0
10
54.8357184
20
-94.1702635
40
1.2
50
7.9999997
51
97.9999997
0
ARC
8
0
10
79.6939373
20
-92.8503276
40
1.2
50
94.0000013
51
187.9999997
0
ARC
8
0
10
97.0922031
20
-91.6337224
40
1.2
50
0
51
94.0000013
0
ARC
8
0
10
118.2246172
20
-109.0806663
40
1.2
50
80.9999977
51
90
0
ARC
8
0
10
135.4744243
20
-111.8127673
40
1.2
50
71.9999994
51
80.9999977
0
ARC
8
0
10
151.2344216
20
-116.9335009
40
1.2
50
63.4082261
51
71.9999994
0
ARC
8
0
10
171.1922031
20
-100.2342113
40
1.2
50
180
51
242.9999994
0
ARC
8
0
10
150.6922031
20
-40.6306663
40
1.2
50
180
51
270
0
ARC
8
0
10
132.6922032
20
-35.1306663
40
1.2
50
180
51
270
0
ARC
8
0
10
114.6922031
20
-32.5806663
40
1.2
50
180
51
270
0
ARC
8
0
10
89.8922031
20
-34.1960535
40
1.2
50
274.0000013
51
0
0
ARC
8
0
10
69.030848
20
-42.3907688
40
1.2
50
277.9999997
51
4.0000013
0
ARC
8
0
10
49.1574559
20
-53.7673262
40
1.2
50
277.9999997
51
7.9999997
0
ENDSEC
0
EOF