<svg width="144.173mm" height="91.856mm" viewBox="0 0 144.173 91.856" xmlns="http://www.w3.org/2000/svg"><g id="svgGroup" stroke-linecap="round" fill-rule="evenodd" font-size="9pt" stroke="#000" stroke-width="0.25mm" fill="none" style="stroke:#000;stroke-width:0.25mm;fill:none"><path d="M 5.985 62.444 L 21.133 60.315 A 1.1 1.1 0 0 0 22.06 59.433 A 2.1 2.1 0 0 0 22.077 58.745 L 21.913 57.58 A 0.4 0.4 0 0 1 22.253 57.128 L 22.551 57.086 A 0.4 0.4 0 0 1 23.002 57.427 L 23.265 59.293 A 1.9 1.9 0 0 1 23.021 60.52 A 1.1 1.1 0 0 0 22.88 61.23 L 23.75 67.42 A 1.1 1.1 0 0 0 24.993 68.356 L 42.818 65.851 A 1.1 1.1 0 0 0 43.754 64.609 L 43.135 60.203 A 0.9 0.9 0 0 1 43.963 59.18 L 64.357 57.754 A 0.9 0.9 0 0 1 65.319 58.652 L 65.319 74.2 A 1.1 1.1 0 0 0 66.419 75.3 L 84.262 75.3 A 0.9 0.9 0 0 1 84.403 75.311 L 101.87 78.078 A 0.9 0.9 0 0 1 102.008 78.111 L 117.972 83.298 A 0.9 0.9 0 0 1 118.097 83.349 L 134.859 91.74 A 1.1 1.1 0 0 0 136.332 91.256 L 144.053 76.102 A 1.1 1.1 0 0 0 143.572 74.623 L 135.311 70.413 A 0.9 0.9 0 0 1 134.819 69.611 L 134.819 12.55 A 1.1 1.1 0 0 0 133.719 11.45 L 115.219 11.45 A 0.9 0.9 0 0 1 114.319 10.55 L 114.319 7.05 A 1.1 1.1 0 0 0 113.219 5.95 L 97.219 5.95 A 0.9 0.9 0 0 1 96.319 5.05 L 96.319 4.5 A 1.1 1.1 0 0 0 95.219 3.4 L 79.219 3.4 A 0.9 0.9 0 0 1 78.319 2.5 L 78.319 1.1 A 1.1 1.1 0 0 0 77.219 0 L 59.219 0 A 1.1 1.1 0 0 0 58.119 1.1 L 58.119 4.021 A 0.9 0.9 0 0 1 57.282 4.919 L 38.042 6.264 A 1.1 1.1 0 0 0 37.021 7.438 L 37.344 12.052 A 0.9 0.9 0 0 1 36.571 13.006 L 17.589 15.674 A 1.1 1.1 0 0 0 16.653 16.916 L 17.522 23.106 A 1.1 1.1 0 0 0 17.854 23.75 A 1.9 1.9 0 0 1 18.426 24.862 L 18.758 27.224 A 0.4 0.4 0 0 1 18.417 27.675 L 18.12 27.717 A 0.4 0.4 0 0 1 17.668 27.377 L 17.435 25.716 A 2.1 2.1 0 0 0 17.229 25.06 A 1.1 1.1 0 0 0 16.094 24.467 L 0.947 26.596 A 1.1 1.1 0 0 0 0.011 27.839 L 4.743 61.508 A 1.1 1.1 0 0 0 5.985 62.444 Z M 21.217 52.628 L 20.73 49.163 A 0.4 0.4 0 0 1 21.071 48.711 L 21.368 48.669 A 0.4 0.4 0 0 1 21.819 49.009 L 22.306 52.475 A 0.4 0.4 0 0 1 21.966 52.927 L 21.669 52.969 A 0.4 0.4 0 0 1 21.217 52.628 Z M 18.851 35.794 L 18.364 32.328 A 0.4 0.4 0 0 1 18.705 31.876 L 19.002 31.834 A 0.4 0.4 0 0 1 19.453 32.175 L 19.941 35.641 A 0.4 0.4 0 0 1 19.6 36.093 L 19.303 36.134 A 0.4 0.4 0 0 1 18.851 35.794 Z M 20.034 44.211 L 19.547 40.745 A 0.4 0.4 0 0 1 19.888 40.293 L 20.185 40.252 A 0.4 0.4 0 0 1 20.636 40.592 L 21.123 44.058 A 0.4 0.4 0 0 1 20.783 44.51 L 20.486 44.552 A 0.4 0.4 0 0 1 20.034 44.211 Z" vector-effect="non-scaling-stroke"/></g></svg>