<svg width="127.531mm" height="91.856mm" viewBox="0 0 127.531 91.856" xmlns="http://www.w3.org/2000/svg"><g id="svgGroup" stroke-linecap="round" fill-rule="evenodd" font-size="9pt" stroke="#000" stroke-width="0.25mm" fill="none" style="stroke:#000;stroke-width:0.25mm;fill:none"><path d="M 8.351 68.356 L 26.176 65.851 A 1.1 1.1 0 0 0 27.112 64.609 L 26.493 60.203 A 0.9 0.9 0 0 1 27.321 59.18 L 47.715 57.754 A 0.9 0.9 0 0 1 48.678 58.652 L 48.678 74.2 A 1.1 1.1 0 0 0 49.778 75.3 L 67.62 75.3 A 0.9 0.9 0 0 1 67.761 75.311 L 85.228 78.078 A 0.9 0.9 0 0 1 85.366 78.111 L 101.331 83.298 A 0.9 0.9 0 0 1 101.455 83.349 L 118.218 91.74 A 1.1 1.1 0 0 0 119.69 91.256 L 127.411 76.102 A 1.1 1.1 0 0 0 126.93 74.623 L 98.169 59.968 A 0.9 0.9 0 0 1 97.678 59.166 L 97.678 7.05 A 1.1 1.1 0 0 0 96.578 5.95 L 80.578 5.95 A 0.9 0.9 0 0 1 79.678 5.05 L 79.678 4.5 A 1.1 1.1 0 0 0 78.578 3.4 L 62.578 3.4 A 0.9 0.9 0 0 1 61.678 2.5 L 61.678 1.1 A 1.1 1.1 0 0 0 60.578 0 L 42.578 0 A 1.1 1.1 0 0 0 41.478 1.1 L 41.478 4.021 A 0.9 0.9 0 0 1 40.64 4.919 L 21.4 6.264 A 1.1 1.1 0 0 0 20.379 7.438 L 20.702 12.052 A 0.9 0.9 0 0 1 19.929 13.006 L 0.947 15.674 A 1.1 1.1 0 0 0 0.011 16.916 L 7.109 67.42 A 1.1 1.1 0 0 0 8.351 68.356 Z M 105.273 82.106 L 117.568 88.371 L 123.833 76.075 L 111.538 69.81 L 105.273 82.106 Z M 10.055 65.39 L 23.72 63.469 L 21.8 49.804 L 8.134 51.724 L 10.055 65.39 Z M 7.689 48.556 L 21.354 46.635 L 19.434 32.969 L 5.768 34.89 L 7.689 48.556 Z M 5.323 31.721 L 18.989 29.8 L 17.068 16.135 L 3.402 18.055 L 5.323 31.721 Z M 70.102 72.948 L 83.732 75.107 L 85.891 61.477 L 72.261 59.318 L 70.102 72.948 Z M 27.017 56.495 L 40.784 55.532 L 39.821 41.766 L 26.055 42.728 L 27.017 56.495 Z M 25.831 39.536 L 39.598 38.573 L 38.635 24.807 L 24.869 25.77 L 25.831 39.536 Z M 24.646 22.577 L 38.412 21.615 L 37.449 7.848 L 23.683 8.811 L 24.646 22.577 Z M 80.678 22.45 L 94.478 22.45 L 94.478 8.65 L 80.678 8.65 L 80.678 22.45 Z M 80.678 56.45 L 94.478 56.45 L 94.478 42.65 L 80.678 42.65 L 80.678 56.45 Z M 80.678 39.45 L 94.478 39.45 L 94.478 25.65 L 80.678 25.65 L 80.678 39.45 Z M 44.678 16.5 L 58.478 16.5 L 58.478 2.7 L 44.678 2.7 L 44.678 16.5 Z M 62.678 19.9 L 76.478 19.9 L 76.478 6.1 L 62.678 6.1 L 62.678 19.9 Z M 44.678 50.5 L 58.478 50.5 L 58.478 36.7 L 44.678 36.7 L 44.678 50.5 Z M 44.678 33.5 L 58.478 33.5 L 58.478 19.7 L 44.678 19.7 L 44.678 33.5 Z M 62.678 53.9 L 76.478 53.9 L 76.478 40.1 L 62.678 40.1 L 62.678 53.9 Z M 62.678 36.9 L 76.478 36.9 L 76.478 23.1 L 62.678 23.1 L 62.678 36.9 Z M 51.878 72.6 L 65.678 72.6 L 65.678 58.8 L 51.878 58.8 L 51.878 72.6 Z M 88.048 76.143 L 101.172 80.408 L 105.437 67.283 L 92.312 63.018 L 88.048 76.143 Z M 41.578 17.6 m -1.1 0 a 1.1 1.1 0 0 1 2.2 0 a 1.1 1.1 0 0 1 -2.2 0 z M 78.218 21.5 m -1.1 0 a 1.1 1.1 0 0 1 2.2 0 a 1.1 1.1 0 0 1 -2.2 0 z M 105.718 75.155 m -1.1 0 a 1.1 1.1 0 0 1 2.2 0 a 1.1 1.1 0 0 1 -2.2 0 z M 69.078 57.2 m -1.1 0 a 1.1 1.1 0 0 1 2.2 0 a 1.1 1.1 0 0 1 -2.2 0 z M 23.264 41.52 m -1.1 0 a 1.1 1.1 0 0 1 2.2 0 a 1.1 1.1 0 0 1 -2.2 0 z" vector-effect="non-scaling-stroke"/></g></svg>