<svg width="144.173mm" height="91.856mm" viewBox="0 0 144.173 91.856" xmlns="http://www.w3.org/2000/svg"><g id="svgGroup" stroke-linecap="round" fill-rule="evenodd" font-size="9pt" stroke="#000" stroke-width="0.25mm" fill="none" style="stroke:#000;stroke-width:0.25mm;fill:none"><path d="M 5.985 62.444 L 21.829 60.217 A 0.9 0.9 0 0 1 22.846 60.983 L 23.75 67.42 A 1.1 1.1 0 0 0 24.993 68.356 L 42.818 65.851 A 1.1 1.1 0 0 0 43.754 64.609 L 43.135 60.203 A 0.9 0.9 0 0 1 43.963 59.18 L 64.357 57.754 A 0.9 0.9 0 0 1 65.319 58.652 L 65.319 74.2 A 1.1 1.1 0 0 0 66.419 75.3 L 84.262 75.3 A 0.9 0.9 0 0 1 84.403 75.311 L 101.87 78.078 A 0.9 0.9 0 0 1 102.008 78.111 L 117.972 83.298 A 0.9 0.9 0 0 1 118.097 83.349 L 134.859 91.74 A 1.1 1.1 0 0 0 136.332 91.256 L 144.053 76.102 A 1.1 1.1 0 0 0 143.572 74.623 L 114.811 59.968 A 0.9 0.9 0 0 1 114.319 59.166 L 114.319 7.05 A 1.1 1.1 0 0 0 113.219 5.95 L 97.219 5.95 A 0.9 0.9 0 0 1 96.319 5.05 L 96.319 4.5 A 1.1 1.1 0 0 0 95.219 3.4 L 79.219 3.4 A 0.9 0.9 0 0 1 78.319 2.5 L 78.319 1.1 A 1.1 1.1 0 0 0 77.219 0 L 59.219 0 A 1.1 1.1 0 0 0 58.119 1.1 L 58.119 4.021 A 0.9 0.9 0 0 1 57.282 4.919 L 38.042 6.264 A 1.1 1.1 0 0 0 37.021 7.438 L 37.344 12.052 A 0.9 0.9 0 0 1 36.571 13.006 L 17.589 15.674 A 1.1 1.1 0 0 0 16.653 16.916 L 17.557 23.353 A 0.9 0.9 0 0 1 16.791 24.369 L 0.947 26.596 A 1.1 1.1 0 0 0 0.011 27.839 L 4.743 61.508 A 1.1 1.1 0 0 0 5.985 62.444 Z M 121.914 82.106 L 134.21 88.371 L 140.475 76.075 L 128.179 69.81 L 121.914 82.106 Z M 5.323 42.643 L 18.989 40.723 L 17.068 27.057 L 3.402 28.978 L 5.323 42.643 Z M 26.697 65.39 L 40.362 63.469 L 38.442 49.804 L 24.776 51.724 L 26.697 65.39 Z M 24.331 48.556 L 37.996 46.635 L 36.076 32.969 L 22.41 34.89 L 24.331 48.556 Z M 21.965 31.721 L 35.63 29.8 L 33.71 16.135 L 20.044 18.055 L 21.965 31.721 Z M 7.689 59.478 L 21.354 57.557 L 19.434 43.892 L 5.768 45.812 L 7.689 59.478 Z M 86.744 72.948 L 100.374 75.107 L 102.533 61.477 L 88.903 59.318 L 86.744 72.948 Z M 43.659 56.495 L 57.426 55.532 L 56.463 41.766 L 42.696 42.728 L 43.659 56.495 Z M 42.473 39.536 L 56.24 38.573 L 55.277 24.807 L 41.511 25.77 L 42.473 39.536 Z M 41.287 22.577 L 55.054 21.615 L 54.091 7.848 L 40.325 8.811 L 41.287 22.577 Z M 97.319 22.45 L 111.119 22.45 L 111.119 8.65 L 97.319 8.65 L 97.319 22.45 Z M 97.319 56.45 L 111.119 56.45 L 111.119 42.65 L 97.319 42.65 L 97.319 56.45 Z M 97.319 39.45 L 111.119 39.45 L 111.119 25.65 L 97.319 25.65 L 97.319 39.45 Z M 61.319 16.5 L 75.119 16.5 L 75.119 2.7 L 61.319 2.7 L 61.319 16.5 Z M 79.319 19.9 L 93.119 19.9 L 93.119 6.1 L 79.319 6.1 L 79.319 19.9 Z M 61.319 50.5 L 75.119 50.5 L 75.119 36.7 L 61.319 36.7 L 61.319 50.5 Z M 61.319 33.5 L 75.119 33.5 L 75.119 19.7 L 61.319 19.7 L 61.319 33.5 Z M 79.319 53.9 L 93.119 53.9 L 93.119 40.1 L 79.319 40.1 L 79.319 53.9 Z M 79.319 36.9 L 93.119 36.9 L 93.119 23.1 L 79.319 23.1 L 79.319 36.9 Z M 68.519 72.6 L 82.319 72.6 L 82.319 58.8 L 68.519 58.8 L 68.519 72.6 Z M 104.69 76.143 L 117.814 80.408 L 122.079 67.283 L 108.954 63.018 L 104.69 76.143 Z M 58.219 17.6 m -1.1 0 a 1.1 1.1 0 0 1 2.2 0 a 1.1 1.1 0 0 1 -2.2 0 z M 94.859 21.5 m -1.1 0 a 1.1 1.1 0 0 1 2.2 0 a 1.1 1.1 0 0 1 -2.2 0 z M 122.36 75.155 m -1.1 0 a 1.1 1.1 0 0 1 2.2 0 a 1.1 1.1 0 0 1 -2.2 0 z M 85.719 57.2 m -1.1 0 a 1.1 1.1 0 0 1 2.2 0 a 1.1 1.1 0 0 1 -2.2 0 z M 39.905 41.52 m -1.1 0 a 1.1 1.1 0 0 1 2.2 0 a 1.1 1.1 0 0 1 -2.2 0 z" vector-effect="non-scaling-stroke"/></g></svg>