0
SECTION
2
HEADER
9
$INSUNITS
70
4
0
ENDSEC
0
SECTION
2
TABLES
0
TABLE
2
LTYPE
0
LTYPE
72
65
70
64
2
CONTINUOUS
3
______
73
0
40
0
0
ENDTAB
0
TABLE
2
LAYER
0
ENDTAB
0
ENDSEC
0
SECTION
2
ENTITIES
0
LINE
8
0
10
59.0655031
20
-99.836737
11
76.8903282
21
-97.3316211
0
ARC
8
0
10
76.7372378
20
-96.2423262
40
1.1
50
277.9999997
51
367.9999997
0
LINE
8
0
10
77.8265327
20
-96.0892358
11
77.2073779
21
-91.6837202
0
ARC
8
0
10
78.0986192
20
-91.5584644
40
0.9
50
94.0000013
51
187.9999997
0
LINE
8
0
10
78.0359794
20
-90.6606468
11
98.4292812
21
-89.2346084
0
ARC
8
0
10
98.4922031
20
-90.1324062
40
0.9
50
0
51
94.0000013
0
LINE
8
0
10
99.3922031
20
-90.1324062
11
99.3922031
21
-105.6806663
0
ARC
8
0
10
100.4922031
20
-105.6806663
40
1.1
50
180
51
270
0
LINE
8
0
10
100.4922031
20
-106.7806663
11
118.3347998
21
-106.7806663
0
ARC
8
0
10
118.3347998
20
-107.6806663
40
0.9
50
80.9999977
51
90
0
LINE
8
0
10
118.4755909
20
-106.7917468
11
135.9430492
21
-109.5583205
0
ARC
8
0
10
135.8022582
20
-110.4472399
40
0.9
50
71.9999994
51
80.9999977
0
LINE
8
0
10
136.0803735
20
-109.5912891
11
152.0451791
21
-114.7785688
0
ARC
8
0
10
151.7670638
20
-115.6345197
40
0.9
50
63.4082261
51
71.9999994
0
LINE
8
0
10
168.9321111
20
-123.2205878
11
152.1699314
21
-114.829723
0
ARC
8
0
10
169.4245049
20
-122.2369474
40
1.1
50
243.4082261
51
332.9999994
0
LINE
8
0
10
170.4046121
20
-122.7363369
11
178.1256737
21
-107.5829002
0
ARC
8
0
10
177.1455666
20
-107.0835106
40
1.1
50
332.9999994
51
422.9999994
0
LINE
8
0
10
148.8836116
20
-91.4487664
11
177.6449562
21
-106.1034034
0
ARC
8
0
10
149.2922031
20
-90.6468606
40
0.9
50
180
51
242.9999994
0
LINE
8
0
10
148.3922031
20
-90.6468606
11
148.3922031
21
-38.5306663
0
ARC
8
0
10
147.2922031
20
-38.5306663
40
1.1
50
0
51
90
0
LINE
8
0
10
147.2922031
20
-37.4306663
11
131.2922032
21
-37.4306663
0
ARC
8
0
10
131.2922032
20
-36.5306663
40
0.9
50
180
51
270
0
LINE
8
0
10
130.3922032
20
-36.5306663
11
130.3922032
21
-35.9806663
0
ARC
8
0
10
129.2922032
20
-35.9806663
40
1.1
50
0
51
90
0
LINE
8
0
10
129.2922032
20
-34.8806663
11
113.2922031
21
-34.8806663
0
ARC
8
0
10
113.2922031
20
-33.9806663
40
0.9
50
180
51
270
0
LINE
8
0
10
112.3922031
20
-33.9806663
11
112.3922031
21
-32.5806663
0
ARC
8
0
10
111.2922031
20
-32.5806663
40
1.1
50
0
51
90
0
LINE
8
0
10
111.2922031
20
-31.4806663
11
93.2922031
21
-31.4806663
0
ARC
8
0
10
93.2922031
20
-32.5806663
40
1.1
50
90
51
180
0
LINE
8
0
10
92.1922031
20
-35.5015747
11
92.1922031
21
-32.5806663
0
ARC
8
0
10
91.2922031
20
-35.5015747
40
0.9
50
274.0000013
51
360
0
LINE
8
0
10
72.1142745
20
-37.7448238
11
91.3548429
21
-36.3993923
0
ARC
8
0
10
72.1910066
20
-38.8421443
40
1.1
50
94.0077266
51
183.9922764
0
LINE
8
0
10
71.0936861
20
-38.9188764
11
71.416304
21
-43.5325287
0
ARC
8
0
10
70.5185062
20
-43.5954506
40
0.9
50
277.9999997
51
364.0000013
0
LINE
8
0
10
51.6614942
20
-47.1544757
11
70.643762
21
-44.4866919
0
ARC
8
0
10
51.8145846
20
-48.2437706
40
1.1
50
97.9999997
51
187.9999997
0
LINE
8
0
10
50.7252897
20
-48.396861
11
57.8231178
21
-98.9005325
0
ARC
8
0
10
58.9124127
20
-98.7474421
40
1.1
50
187.9999997
51
277.9999997
0
LINE
8
0
10
60.7692986
20
-96.8707497
11
74.434998
21
-94.9501609
0
LINE
8
0
10
74.434998
20
-94.9501609
11
72.5144092
21
-81.2844615
0
LINE
8
0
10
72.5144092
20
-81.2844615
11
58.8487098
21
-83.2050503
0
LINE
8
0
10
58.8487098
20
-83.2050503
11
60.7692986
21
-96.8707497
0
LINE
8
0
10
58.4033559
20
-80.0361925
11
72.0690553
21
-78.1156037
0
LINE
8
0
10
72.0690553
20
-78.1156037
11
70.1484665
21
-64.4499043
0
LINE
8
0
10
70.1484665
20
-64.4499043
11
56.4827671
21
-66.3704931
0
LINE
8
0
10
56.4827671
20
-66.3704931
11
58.4033559
21
-80.0361925
0
LINE
8
0
10
56.0374132
20
-63.2016353
11
69.7031126
21
-61.2810465
0
LINE
8
0
10
69.7031126
20
-61.2810465
11
67.7825238
21
-47.6153471
0
LINE
8
0
10
67.7825238
20
-47.6153471
11
54.1168244
21
-49.5359359
0
LINE
8
0
10
54.1168244
20
-49.5359359
11
56.0374132
21
-63.2016353
0
LINE
8
0
10
77.7318609
20
-87.9753198
11
91.4982448
21
-87.0126805
0
LINE
8
0
10
91.4982448
20
-87.0126805
11
90.5356055
21
-73.2462966
0
LINE
8
0
10
90.5356055
20
-73.2462966
11
76.7692216
21
-74.2089359
0
LINE
8
0
10
76.7692216
20
-74.2089359
11
77.7318609
21
-87.9753198
0
LINE
8
0
10
76.5460008
20
-71.0167309
11
90.3123847
21
-70.0540916
0
LINE
8
0
10
90.3123847
20
-70.0540916
11
89.3497454
21
-56.2877077
0
LINE
8
0
10
89.3497454
20
-56.2877077
11
75.5833615
21
-57.250347
0
LINE
8
0
10
75.5833615
20
-57.250347
11
76.5460008
21
-71.0167309
0
LINE
8
0
10
75.3601407
20
-54.058142
11
89.1265246
21
-53.0955027
0
LINE
8
0
10
89.1265246
20
-53.0955027
11
88.1638853
21
-39.3291188
0
LINE
8
0
10
88.1638853
20
-39.3291188
11
74.3975014
21
-40.2917581
0
LINE
8
0
10
74.3975014
20
-40.2917581
11
75.3601407
21
-54.058142
0
LINE
8
0
10
95.3922031
20
-81.9806663
11
109.1922031
21
-81.9806663
0
LINE
8
0
10
109.1922031
20
-81.9806663
11
109.1922031
21
-68.1806663
0
LINE
8
0
10
109.1922031
20
-68.1806663
11
95.3922031
21
-68.1806663
0
LINE
8
0
10
95.3922031
20
-68.1806663
11
95.3922031
21
-81.9806663
0
LINE
8
0
10
95.3922031
20
-64.9806663
11
109.1922031
21
-64.9806663
0
LINE
8
0
10
109.1922031
20
-64.9806663
11
109.1922031
21
-51.1806663
0
LINE
8
0
10
109.1922031
20
-51.1806663
11
95.3922031
21
-51.1806663
0
LINE
8
0
10
95.3922031
20
-51.1806663
11
95.3922031
21
-64.9806663
0
LINE
8
0
10
95.3922031
20
-47.9806663
11
109.1922031
21
-47.9806663
0
LINE
8
0
10
109.1922031
20
-47.9806663
11
109.1922031
21
-34.1806663
0
LINE
8
0
10
109.1922031
20
-34.1806663
11
95.3922031
21
-34.1806663
0
LINE
8
0
10
95.3922031
20
-34.1806663
11
95.3922031
21
-47.9806663
0
LINE
8
0
10
113.3922032
20
-85.3806663
11
127.1922032
21
-85.3806663
0
LINE
8
0
10
127.1922032
20
-85.3806663
11
127.1922032
21
-71.5806663
0
LINE
8
0
10
127.1922032
20
-71.5806663
11
113.3922032
21
-71.5806663
0
LINE
8
0
10
113.3922032
20
-71.5806663
11
113.3922032
21
-85.3806663
0
LINE
8
0
10
113.3922032
20
-68.3806663
11
127.1922032
21
-68.3806663
0
LINE
8
0
10
127.1922032
20
-68.3806663
11
127.1922032
21
-54.5806663
0
LINE
8
0
10
127.1922032
20
-54.5806663
11
113.3922032
21
-54.5806663
0
LINE
8
0
10
113.3922032
20
-54.5806663
11
113.3922032
21
-68.3806663
0
LINE
8
0
10
113.3922032
20
-51.3806663
11
127.1922032
21
-51.3806663
0
LINE
8
0
10
127.1922032
20
-51.3806663
11
127.1922032
21
-37.5806663
0
LINE
8
0
10
127.1922032
20
-37.5806663
11
113.3922032
21
-37.5806663
0
LINE
8
0
10
113.3922032
20
-37.5806663
11
113.3922032
21
-51.3806663
0
LINE
8
0
10
131.3922031
20
-87.9306663
11
145.1922031
21
-87.9306663
0
LINE
8
0
10
145.1922031
20
-87.9306663
11
145.1922031
21
-74.1306663
0
LINE
8
0
10
145.1922031
20
-74.1306663
11
131.3922031
21
-74.1306663
0
LINE
8
0
10
131.3922031
20
-74.1306663
11
131.3922031
21
-87.9306663
0
LINE
8
0
10
131.3922031
20
-70.9306663
11
145.1922031
21
-70.9306663
0
LINE
8
0
10
145.1922031
20
-70.9306663
11
145.1922031
21
-57.1306663
0
LINE
8
0
10
145.1922031
20
-57.1306663
11
131.3922031
21
-57.1306663
0
LINE
8
0
10
131.3922031
20
-57.1306663
11
131.3922031
21
-70.9306663
0
LINE
8
0
10
131.3922031
20
-53.9306663
11
145.1922031
21
-53.9306663
0
LINE
8
0
10
145.1922031
20
-53.9306663
11
145.1922031
21
-40.1306663
0
LINE
8
0
10
145.1922031
20
-40.1306663
11
131.3922031
21
-40.1306663
0
LINE
8
0
10
131.3922031
20
-40.1306663
11
131.3922031
21
-53.9306663
0
LINE
8
0
10
102.5922031
20
-104.0806663
11
116.3922031
21
-104.0806663
0
LINE
8
0
10
116.3922031
20
-104.0806663
11
116.3922031
21
-90.2806663
0
LINE
8
0
10
116.3922031
20
-90.2806663
11
102.5922031
21
-90.2806663
0
LINE
8
0
10
102.5922031
20
-90.2806663
11
102.5922031
21
-104.0806663
0
LINE
8
0
10
120.8166437
20
-104.4288773
11
134.4467428
21
-106.587673
0
LINE
8
0
10
134.4467428
20
-106.587673
11
136.6055385
21
-92.9575739
0
LINE
8
0
10
136.6055385
20
-92.9575739
11
122.9754394
21
-90.7987782
0
LINE
8
0
10
122.9754394
20
-90.7987782
11
120.8166437
21
-104.4288773
0
LINE
8
0
10
138.7622391
20
-107.623732
11
151.886819
21
-111.8881665
0
LINE
8
0
10
151.886819
20
-111.8881665
11
156.1512535
21
-98.7635866
0
LINE
8
0
10
156.1512535
20
-98.7635866
11
143.0266736
21
-94.4991521
0
LINE
8
0
10
143.0266736
20
-94.4991521
11
138.7622391
21
-107.623732
0
LINE
8
0
10
155.9871091
20
-113.5865622
11
168.2829992
21
-119.8516311
0
LINE
8
0
10
168.2829992
20
-119.8516311
11
174.5480681
21
-107.555741
0
LINE
8
0
10
174.5480681
20
-107.555741
11
162.252178
21
-101.2906721
0
LINE
8
0
10
162.252178
20
-101.2906721
11
155.9871091
21
-113.5865622
0
CIRCLE
8
0
10
92.2922031
20
-49.0806663
40
1.1
0
CIRCLE
8
0
10
128.9322031
20
-52.9806663
40
1.1
0
CIRCLE
8
0
10
156.4323804
20
-106.6357507
40
1.1
0
CIRCLE
8
0
10
119.7922032
20
-88.6806663
40
1.1
0
CIRCLE
8
0
10
73.9781395
20
-73.0006887
40
1.1
0
ENDSEC
0
EOF