%TF.GenerationSoftware,KiCad,Pcbnew,9.0.5*%
%TF.CreationDate,2025-10-31T09:28:17-07:00*%
%TF.ProjectId,temporal_top_plate_small,74656d70-6f72-4616-9c5f-746f705f706c,1*%
%TF.SameCoordinates,Original*%
%TF.FileFunction,Profile,NP*%
%FSLAX46Y46*%
G04 Gerber Fmt 4.6, Leading zero omitted, Abs format (unit mm)*
G04 Created by KiCad (PCBNEW 9.0.5) date 2025-10-31 09:28:17*
%MOMM*%
%LPD*%
G01*
G04 APERTURE LIST*
%TA.AperFunction,Profile*%
%ADD10C,0.150000*%
%TD*%
G04 APERTURE END LIST*
D10*
X59065503Y-99836737D02*
X76890328Y-97331621D01*
X77826533Y-96089236D02*
G75*
G02*
X76890328Y-97331624I-1089333J-153064D01*
G01*
X77826533Y-96089236D02*
X77207378Y-91683720D01*
X77207378Y-91683720D02*
G75*
G02*
X78035842Y-90660715I891222J125220D01*
G01*
X78035979Y-90660647D02*
X98429281Y-89234608D01*
X98429422Y-89234599D02*
G75*
G02*
X99392193Y-90132406I62778J-897801D01*
G01*
X99392203Y-90132406D02*
X99392203Y-105680666D01*
X100492203Y-106780666D02*
G75*
G02*
X99392234Y-105680666I-3J1099966D01*
G01*
X100492203Y-106780666D02*
X118334800Y-106780666D01*
X118334800Y-106780666D02*
G75*
G02*
X118475591Y-106791745I0J-900134D01*
G01*
X118475591Y-106791747D02*
X135943049Y-109558321D01*
X135943049Y-109558320D02*
G75*
G02*
X136080371Y-109591295I-140849J-888980D01*
G01*
X136080373Y-109591289D02*
X152045179Y-114778569D01*
X152045179Y-114778569D02*
G75*
G02*
X152169930Y-114829725I-278079J-855831D01*
G01*
X168932111Y-123220588D02*
X152169931Y-114829723D01*
X170404612Y-122736337D02*
G75*
G02*
X168932118Y-123220575I-980112J499437D01*
G01*
X170404612Y-122736337D02*
X178125674Y-107582900D01*
X177644956Y-106103403D02*
G75*
G02*
X178125674Y-107582900I-499356J-980097D01*
G01*
X148883612Y-91448766D02*
X177644956Y-106103403D01*
X148883612Y-91448767D02*
G75*
G02*
X148392236Y-90646861I408588J801867D01*
G01*
X148392203Y-90646861D02*
X148392203Y-38530666D01*
X147292203Y-37430666D02*
G75*
G02*
X148392234Y-38530666I-3J-1100034D01*
G01*
X147292203Y-37430666D02*
X131292203Y-37430666D01*
X131292203Y-37430666D02*
G75*
G02*
X130392234Y-36530666I-3J899966D01*
G01*
X130392203Y-36530666D02*
X130392203Y-35980666D01*
X129292203Y-34880666D02*
G75*
G02*
X130392234Y-35980666I-3J-1100034D01*
G01*
X129292203Y-34880666D02*
X113292203Y-34880666D01*
X113292203Y-34880666D02*
G75*
G02*
X112392234Y-33980666I-3J899966D01*
G01*
X112392203Y-33980666D02*
X112392203Y-32580666D01*
X111292203Y-31480666D02*
G75*
G02*
X112392234Y-32580666I-3J-1100034D01*
G01*
X111292203Y-31480666D02*
X93292203Y-31480666D01*
X92192203Y-32580666D02*
G75*
G02*
X93292203Y-31480703I1099997J-34D01*
G01*
X92192203Y-35501575D02*
X92192203Y-32580666D01*
X92192203Y-35501575D02*
G75*
G02*
X91354986Y-36399410I-900003J-25D01*
G01*
X72114274Y-37744824D02*
X91354843Y-36399392D01*
X71093676Y-38918729D02*
G75*
G02*
X72114123Y-37744793I1097324J76629D01*
G01*
X71093686Y-38918876D02*
X71416304Y-43532529D01*
X71416314Y-43532670D02*
G75*
G02*
X70643770Y-44486749I-897814J-62830D01*
G01*
X51661494Y-47154476D02*
X70643762Y-44486692D01*
X50725290Y-48396861D02*
G75*
G02*
X51661497Y-47154496I1089310J153061D01*
G01*
X50725290Y-48396861D02*
X57823118Y-98900532D01*
X59065503Y-99836737D02*
G75*
G02*
X57823068Y-98900539I-153103J1089337D01*
G01*
X60769299Y-96870750D02*
X74434998Y-94950161D01*
X74434998Y-94950161D02*
X72514409Y-81284462D01*
X72514409Y-81284462D02*
X58848710Y-83205050D01*
X58848710Y-83205050D02*
X60769299Y-96870750D01*
X58403356Y-80036193D02*
X72069055Y-78115604D01*
X72069055Y-78115604D02*
X70148467Y-64449904D01*
X70148467Y-64449904D02*
X56482767Y-66370493D01*
X56482767Y-66370493D02*
X58403356Y-80036193D01*
X56037413Y-63201635D02*
X69703113Y-61281046D01*
X69703113Y-61281046D02*
X67782524Y-47615347D01*
X67782524Y-47615347D02*
X54116824Y-49535936D01*
X54116824Y-49535936D02*
X56037413Y-63201635D01*
X77731861Y-87975320D02*
X91498245Y-87012681D01*
X91498245Y-87012681D02*
X90535605Y-73246297D01*
X90535605Y-73246297D02*
X76769222Y-74208936D01*
X76769222Y-74208936D02*
X77731861Y-87975320D01*
X76546001Y-71016731D02*
X90312385Y-70054092D01*
X90312385Y-70054092D02*
X89349745Y-56287708D01*
X89349745Y-56287708D02*
X75583362Y-57250347D01*
X75583362Y-57250347D02*
X76546001Y-71016731D01*
X75360141Y-54058142D02*
X89126525Y-53095503D01*
X89126525Y-53095503D02*
X88163885Y-39329119D01*
X88163885Y-39329119D02*
X74397501Y-40291758D01*
X74397501Y-40291758D02*
X75360141Y-54058142D01*
X95392203Y-81980666D02*
X109192203Y-81980666D01*
X109192203Y-81980666D02*
X109192203Y-68180666D01*
X109192203Y-68180666D02*
X95392203Y-68180666D01*
X95392203Y-68180666D02*
X95392203Y-81980666D01*
X95392203Y-64980666D02*
X109192203Y-64980666D01*
X109192203Y-64980666D02*
X109192203Y-51180666D01*
X109192203Y-51180666D02*
X95392203Y-51180666D01*
X95392203Y-51180666D02*
X95392203Y-64980666D01*
X95392203Y-47980666D02*
X109192203Y-47980666D01*
X109192203Y-47980666D02*
X109192203Y-34180666D01*
X109192203Y-34180666D02*
X95392203Y-34180666D01*
X95392203Y-34180666D02*
X95392203Y-47980666D01*
X113392203Y-85380666D02*
X127192203Y-85380666D01*
X127192203Y-85380666D02*
X127192203Y-71580666D01*
X127192203Y-71580666D02*
X113392203Y-71580666D01*
X113392203Y-71580666D02*
X113392203Y-85380666D01*
X113392203Y-68380666D02*
X127192203Y-68380666D01*
X127192203Y-68380666D02*
X127192203Y-54580666D01*
X127192203Y-54580666D02*
X113392203Y-54580666D01*
X113392203Y-54580666D02*
X113392203Y-68380666D01*
X113392203Y-51380666D02*
X127192203Y-51380666D01*
X127192203Y-51380666D02*
X127192203Y-37580666D01*
X127192203Y-37580666D02*
X113392203Y-37580666D01*
X113392203Y-37580666D02*
X113392203Y-51380666D01*
X131392203Y-87930666D02*
X145192203Y-87930666D01*
X145192203Y-87930666D02*
X145192203Y-74130666D01*
X145192203Y-74130666D02*
X131392203Y-74130666D01*
X131392203Y-74130666D02*
X131392203Y-87930666D01*
X131392203Y-70930666D02*
X145192203Y-70930666D01*
X145192203Y-70930666D02*
X145192203Y-57130666D01*
X145192203Y-57130666D02*
X131392203Y-57130666D01*
X131392203Y-57130666D02*
X131392203Y-70930666D01*
X131392203Y-53930666D02*
X145192203Y-53930666D01*
X145192203Y-53930666D02*
X145192203Y-40130666D01*
X145192203Y-40130666D02*
X131392203Y-40130666D01*
X131392203Y-40130666D02*
X131392203Y-53930666D01*
X102592203Y-104080666D02*
X116392203Y-104080666D01*
X116392203Y-104080666D02*
X116392203Y-90280666D01*
X116392203Y-90280666D02*
X102592203Y-90280666D01*
X102592203Y-90280666D02*
X102592203Y-104080666D01*
X120816644Y-104428877D02*
X134446743Y-106587673D01*
X134446743Y-106587673D02*
X136605539Y-92957574D01*
X136605539Y-92957574D02*
X122975439Y-90798778D01*
X122975439Y-90798778D02*
X120816644Y-104428877D01*
X138762239Y-107623732D02*
X151886819Y-111888167D01*
X151886819Y-111888167D02*
X156151254Y-98763587D01*
X156151254Y-98763587D02*
X143026674Y-94499152D01*
X143026674Y-94499152D02*
X138762239Y-107623732D01*
X155987109Y-113586562D02*
X168282999Y-119851631D01*
X168282999Y-119851631D02*
X174548068Y-107555741D01*
X174548068Y-107555741D02*
X162252178Y-101290672D01*
X162252178Y-101290672D02*
X155987109Y-113586562D01*
X93392203Y-49080666D02*
G75*
G02*
X91192203Y-49080666I-1100000J0D01*
G01*
X91192203Y-49080666D02*
G75*
G02*
X93392203Y-49080666I1100000J0D01*
G01*
X130032203Y-52980666D02*
G75*
G02*
X127832203Y-52980666I-1100000J0D01*
G01*
X127832203Y-52980666D02*
G75*
G02*
X130032203Y-52980666I1100000J0D01*
G01*
X157532380Y-106635751D02*
G75*
G02*
X155332380Y-106635751I-1100000J0D01*
G01*
X155332380Y-106635751D02*
G75*
G02*
X157532380Y-106635751I1100000J0D01*
G01*
X120892203Y-88680666D02*
G75*
G02*
X118692203Y-88680666I-1100000J0D01*
G01*
X118692203Y-88680666D02*
G75*
G02*
X120892203Y-88680666I1100000J0D01*
G01*
X75078139Y-73000689D02*
G75*
G02*
X72878141Y-73000689I-1099999J0D01*
G01*
X72878141Y-73000689D02*
G75*
G02*
X75078139Y-73000689I1099999J0D01*
G01*
M02*
