0
SECTION
2
HEADER
9
$INSUNITS
70
4
0
ENDSEC
0
SECTION
2
TABLES
0
TABLE
2
LTYPE
0
LTYPE
72
65
70
64
2
CONTINUOUS
3
______
73
0
40
0
0
ENDTAB
0
TABLE
2
LAYER
0
ENDTAB
0
ENDSEC
0
SECTION
2
ENTITIES
0
LINE
8
0
10
166.7316205
20
-95.8757258
11
166.7316205
21
-41.9845974
0
LINE
8
0
10
149.0571205
20
-39.4845974
11
164.2316205
21
-39.4845974
0
LINE
8
0
10
60.452887
20
-99.2489653
11
82.2905114
21
-95.3984029
0
LINE
8
0
10
49.1954138
20
-49.8015883
11
57.5567472
21
-97.2210664
0
LINE
8
0
10
51.2233128
20
-46.9054485
11
68.2336217
21
-43.906072
0
LINE
8
0
10
72.0525423
20
-30.5874391
11
88.0805117
21
-29.4666543
0
LINE
8
0
10
69.7330234
20
-33.2557405
11
70.2934114
21
-41.2696614
0
LINE
8
0
10
90.4061205
20
-26.9727442
11
90.4061205
21
-22.2590974
0
LINE
8
0
10
110.5571205
20
-25.7590974
11
110.5571205
21
-22.2590974
0
LINE
8
0
10
108.0571205
20
-19.7590974
11
92.9061205
21
-19.7590974
0
LINE
8
0
10
113.0571205
20
-28.2590974
11
144.0571205
21
-28.2590974
0
LINE
8
0
10
146.5571205
20
-36.9845974
11
146.5571205
21
-30.7590974
0
LINE
8
0
10
89.0212378
20
-104.7763963
11
103.8121403
21
-102.1683611
0
LINE
8
0
10
85.1866513
20
-97.4263018
11
86.125098
21
-102.7484974
0
LINE
8
0
10
106.416863
20
-101.9404774
11
120.7440586
21
-101.9404774
0
LINE
8
0
10
124.6263437
20
-102.4515899
11
137.7795889
21
-105.9759912
0
LINE
8
0
10
141.3973033
20
-107.4744976
11
153.1901801
21
-114.2831181
0
LINE
8
0
10
156.2967818
20
-116.6668975
11
166.5209234
21
-126.8910391
0
LINE
8
0
10
170.0564574
20
-126.8910391
11
180.06433
21
-116.8831665
0
LINE
8
0
10
169.3252275
20
-102.5890059
11
180.0659345
21
-113.3492385
0
ARC
8
0
10
106.416863
20
-116.9404774
40
15
50
90
51
100.0000004
0
ARC
8
0
10
120.7440586
20
-116.9404774
40
15
50
75.0000021
51
90
0
ARC
8
0
10
133.8973033
20
-120.4648787
40
15
50
60.0000001
51
75.0000002
0
ARC
8
0
10
145.6901801
20
-127.2734992
40
15
50
45
51
59.9999999
0
ARC
8
0
10
176.7316205
20
-95.8757258
40
10
50
180
51
221.2705848
0
ARC
8
0
10
164.2316205
20
-41.9845974
40
2.5
50
0
51
90
0
ARC
8
0
10
149.0571205
20
-36.9845974
40
2.5
50
180
51
270
0
ARC
8
0
10
144.0571205
20
-30.7590974
40
2.5
50
0
51
90
0
ARC
8
0
10
113.0571205
20
-25.7590974
40
2.5
50
180
51
270
0
ARC
8
0
10
108.0571205
20
-22.2590974
40
2.5
50
0
51
90
0
ARC
8
0
10
92.9061205
20
-22.2590974
40
2.5
50
90
51
180
0
ARC
8
0
10
87.9061205
20
-26.9727442
40
2.5
50
274.0000013
51
0
0
ARC
8
0
10
72.2269335
20
-33.0813492
40
2.5
50
94.0000013
51
184.0000013
0
ARC
8
0
10
67.7995013
20
-41.4440526
40
2.5
50
280.0000008
51
4.0000013
0
ARC
8
0
10
51.6574332
20
-49.3674678
40
2.5
50
100.0000008
51
190.0000008
0
ARC
8
0
10
60.0187665
20
-96.786946
40
2.5
50
190.0000008
51
280.0000008
0
ARC
8
0
10
82.7246319
20
-97.8604223
40
2.5
50
10.0000008
51
100.0000008
0
ARC
8
0
10
88.5871173
20
-102.3143769
40
2.5
50
190.0000008
51
280.0000008
0
ARC
8
0
10
104.2462607
20
-104.6303805
40
2.5
50
100.0000004
51
100.0000008
0
ARC
8
0
10
137.1325413
20
-108.3908059
40
2.5
50
75.0000002
51
75.0000021
0
ARC
8
0
10
140.1473033
20
-109.6395611
40
2.5
50
59.9999999
51
60.0000001
0
ARC
8
0
10
168.2886904
20
-125.1232721
40
2.5
50
225
51
315
0
ARC
8
0
10
178.296563
20
-115.1153995
40
2.5
50
315
51
44.9479716
0
ARC
8
0
10
171.0945989
20
-100.822845
40
2.5
50
221.2705848
51
224.9479716
0
CIRCLE
8
0
10
90.4816205
20
-47.3345974
40
1.1
0
CIRCLE
8
0
10
127.1216205
20
-46.3345974
40
1.1
0
CIRCLE
8
0
10
160.5566974
20
-108.0566941
40
1.1
0
CIRCLE
8
0
10
124.0104389
20
-92.8649774
40
1.1
0
CIRCLE
8
0
10
73.5558933
20
-78.6000269
40
1.1
0
ENDSEC
0
EOF