0
SECTION
2
HEADER
9
$INSUNITS
70
4
0
ENDSEC
0
SECTION
2
TABLES
0
TABLE
2
LTYPE
0
LTYPE
72
65
70
64
2
CONTINUOUS
3
______
73
0
40
0
0
ENDTAB
0
TABLE
2
LAYER
0
ENDTAB
0
ENDSEC
0
SECTION
2
ENTITIES
0
LINE
8
0
10
166.7316205
20
-95.7857258
11
166.7316205
21
-43.4845974
0
LINE
8
0
10
150.5571205
20
-39.4845974
11
162.7316205
21
-39.4845974
0
LINE
8
0
10
42.7275497
20
-93.7432944
11
52.575627
21
-92.0068126
0
LINE
8
0
10
33.2053561
20
-62.775333
11
38.0937259
21
-90.4986561
0
LINE
8
0
10
46.2980719
20
-56.4050275
11
36.4499943
21
-58.1415093
0
LINE
8
0
10
61.9300987
20
-98.9884931
11
80.900586
21
-95.6434843
0
LINE
8
0
10
57.2094508
20
-95.2514508
11
57.2962749
21
-95.7438548
0
LINE
8
0
10
52.7005243
20
-46.6449762
11
66.9035344
21
-44.1406023
0
LINE
8
0
10
49.4558861
20
-51.2788
11
49.5427102
21
-51.7712037
0
LINE
8
0
10
73.5488883
20
-30.4828044
11
86.6851465
21
-29.5642278
0
LINE
8
0
10
69.8376581
20
-34.7520866
11
70.1991978
21
-39.9223453
0
LINE
8
0
10
90.4061205
20
-25.5739716
11
90.4061205
21
-23.7590974
0
LINE
8
0
10
110.5571205
20
-24.2590974
11
110.5571205
21
-23.7590974
0
LINE
8
0
10
106.5571205
20
-19.7590974
11
94.4061205
21
-19.7590974
0
LINE
8
0
10
114.5571205
20
-28.2590974
11
142.5571205
21
-28.2590974
0
LINE
8
0
10
146.5571205
20
-35.4845974
11
146.5571205
21
-32.2590974
0
LINE
8
0
10
90.5884495
20
-104.5159241
11
103.9021402
21
-102.1683611
0
LINE
8
0
10
85.5344097
20
-98.8881225
11
85.9546257
21
-101.2712858
0
LINE
8
0
10
106.506863
20
-101.9404774
11
120.8340586
21
-101.9404774
0
LINE
8
0
10
124.7163437
20
-102.4515899
11
137.8695885
21
-105.9759911
0
LINE
8
0
10
141.4873034
20
-107.4744976
11
153.2801801
21
-114.2831181
0
LINE
8
0
10
156.3867818
20
-116.6668975
11
165.5502633
21
-125.830379
0
LINE
8
0
10
171.2071175
20
-125.830379
11
179.0946327
21
-117.9428638
0
LINE
8
0
10
169.360092
20
-102.5337703
11
179.0971999
21
-112.2885792
0
ARC
8
0
10
106.506863
20
-116.9404774
40
15
50
90
51
100.0000008
0
ARC
8
0
10
120.8340586
20
-116.9404774
40
15
50
75.0000021
51
90
0
ARC
8
0
10
133.9873033
20
-120.4648787
40
15
50
59.9999999
51
75.0000021
0
ARC
8
0
10
145.7801801
20
-127.2734992
40
15
50
45
51
59.9999999
0
ARC
8
0
10
176.7316205
20
-95.7857258
40
10
50
180
51
220.8209851
0
ARC
8
0
10
162.7316205
20
-43.4845974
40
4
50
0
51
90
0
ARC
8
0
10
150.5571205
20
-35.4845974
40
4
50
180
51
270
0
ARC
8
0
10
142.5571205
20
-32.2590974
40
4
50
0
51
90
0
ARC
8
0
10
114.5571205
20
-24.2590974
40
4
50
180
51
270
0
ARC
8
0
10
106.5571205
20
-23.7590974
40
4
50
0
51
90
0
ARC
8
0
10
94.4061205
20
-23.7590974
40
4
50
90
51
180
0
ARC
8
0
10
86.4061205
20
-25.5739716
40
4
50
274.0000013
51
0
0
ARC
8
0
10
73.8279143
20
-34.4730606
40
4
50
94.0000013
51
184.0000013
0
ARC
8
0
10
66.2089416
20
-40.2013713
40
4
50
280.0000008
51
4.0000013
0
ARC
8
0
10
53.3951171
20
-50.5842072
40
4
50
100.0000008
51
190.0000008
0
ARC
8
0
10
45.6034792
20
-52.4657965
40
4
50
280.0000008
51
10.0000008
0
ARC
8
0
10
37.1445871
20
-62.0807403
40
4
50
100.0000008
51
190.0000008
0
ARC
8
0
10
42.0329569
20
-89.8040634
40
4
50
190.0000008
51
280.0000008
0
ARC
8
0
10
53.2702198
20
-95.9460436
40
4
50
10.0000008
51
100.0000008
0
ARC
8
0
10
61.2355059
20
-95.0492621
40
4
50
190.0000008
51
280.0000008
0
ARC
8
0
10
81.5951787
20
-99.5827153
40
4
50
10.0000008
51
100.0000008
0
ARC
8
0
10
89.8938567
20
-100.5766931
40
4
50
190.0000008
51
280.0000008
0
ARC
8
0
10
168.3786904
20
-123.0019519
40
4
50
225
51
315
0
ARC
8
0
10
176.2662056
20
-115.1144367
40
4
50
315
51
44.9479716
0
ARC
8
0
10
172.1910864
20
-99.7079127
40
4
50
220.8209851
51
224.9479716
0
CIRCLE
8
0
10
90.4816205
20
-47.3345974
40
1.1
0
CIRCLE
8
0
10
127.1216205
20
-46.3345974
40
1.1
0
CIRCLE
8
0
10
143.3735818
20
-98.0551328
40
1.1
0
CIRCLE
8
0
10
104.4990997
20
-92.8475969
40
1.1
0
CIRCLE
8
0
10
73.5558933
20
-78.6000269
40
1.1
0
ENDSEC
0
EOF