0
SECTION
2
HEADER
9
$INSUNITS
70
4
0
ENDSEC
0
SECTION
2
TABLES
0
TABLE
2
LTYPE
0
LTYPE
72
65
70
64
2
CONTINUOUS
3
______
73
0
40
0
0
ENDTAB
0
TABLE
2
LAYER
0
ENDTAB
0
ENDSEC
0
SECTION
2
ENTITIES
0
LINE
8
0
10
168.0316205
20
-95.8757258
11
168.0316205
21
-40.6845974
0
LINE
8
0
10
150.3571205
20
-38.1845974
11
165.5316205
21
-38.1845974
0
LINE
8
0
10
147.8571205
20
-35.6845974
11
147.8571205
21
-29.4590974
0
LINE
8
0
10
114.3571205
20
-26.9590974
11
145.3571205
21
-26.9590974
0
LINE
8
0
10
111.8571205
20
-24.4590974
11
111.8571205
21
-20.9590974
0
LINE
8
0
10
91.6061205
20
-18.4590974
11
109.3571205
21
-18.4590974
0
LINE
8
0
10
89.1061205
20
-25.7604746
11
89.1061205
21
-20.9590974
0
LINE
8
0
10
70.6650255
20
-29.3812892
11
86.7805117
21
-28.2543847
0
LINE
8
0
10
68.3455067
20
-32.0495906
11
68.9149263
21
-40.1926709
0
LINE
8
0
10
49.7173201
20
-45.850941
11
66.8551367
21
-42.8290816
0
LINE
8
0
10
47.6894211
20
-48.7470808
11
56.5022397
21
-98.7270591
0
LINE
8
0
10
59.3983795
20
-100.754958
11
81.236004
21
-96.9043957
0
LINE
8
0
10
84.1321439
20
-98.9322946
11
85.2788799
21
-105.4357573
0
LINE
8
0
10
85.2789684
20
-105.4362594
11
85.5042087
21
-106.7165981
0
LINE
8
0
10
85.5042087
20
-106.7165981
11
104.0378828
21
-103.4486112
0
ARC
8
0
10
106.416863
20
-116.9404774
40
13.7
50
90
51
100.0000008
0
LINE
8
0
10
106.416863
20
-103.2404774
11
120.7440586
21
-103.2404774
0
ARC
8
0
10
120.7440586
20
-116.9404774
40
13.7
50
75.0000021
51
90
0
LINE
8
0
10
124.2898789
20
-103.7072935
11
137.4426311
21
-107.2315627
0
ARC
8
0
10
133.8973033
20
-120.4648787
40
13.7
50
59.9999999
51
74.9979642
0
LINE
8
0
10
140.7477449
20
-108.6005856
11
152.5397386
21
-115.4086962
0
ARC
8
0
10
145.6901801
20
-127.2734992
40
13.7
50
45
51
59.9999999
0
LINE
8
0
10
155.377543
20
-117.5861363
11
166.5209235
21
-128.7295168
0
LINE
8
0
10
170.0564574
20
-128.7295167
11
181.9019733
21
-116.8840009
0
LINE
8
0
10
170.2761861
20
-101.7015438
11
181.9035779
21
-113.3500729
0
ARC
8
0
10
176.7316205
20
-95.8757258
40
8.7
50
180
51
220.903227
0
ARC
8
0
10
165.5316205
20
-40.6845974
40
2.5
50
0
51
90
0
ARC
8
0
10
150.3571205
20
-35.6845974
40
2.5
50
180
51
270
0
ARC
8
0
10
145.3571205
20
-29.4590974
40
2.5
50
0
51
90
0
ARC
8
0
10
114.3571205
20
-24.4590974
40
2.5
50
180
51
270
0
ARC
8
0
10
109.3571205
20
-20.9590974
40
2.5
50
0
51
90
0
ARC
8
0
10
91.6061205
20
-20.9590974
40
2.5
50
90
51
180
0
ARC
8
0
10
86.6061205
20
-25.7604746
40
2.5
50
274.0000013
51
0
0
ARC
8
0
10
70.8394168
20
-31.8751993
40
2.5
50
94.0000013
51
184.0000013
0
ARC
8
0
10
66.4210163
20
-40.3670622
40
2.5
50
280.0000008
51
4.0000013
0
ARC
8
0
10
50.1514405
20
-48.3129604
40
2.5
50
100.0000008
51
190.0000008
0
ARC
8
0
10
58.9642591
20
-98.2929387
40
2.5
50
190.0000008
51
280.0000008
0
ARC
8
0
10
81.6701245
20
-99.3664151
40
2.5
50
10.0000008
51
100.0000008
0
ARC
8
0
10
168.2886905
20
-126.9617498
40
2.5
50
225
51
315
0
ARC
8
0
10
180.1342064
20
-115.1162339
40
2.5
50
315
51
44.9479716
0
ARC
8
0
10
172.0455576
20
-99.9353828
40
2.5
50
220.903227
51
224.9479716
0
ENDSEC
0
EOF