0
SECTION
2
HEADER
9
$INSUNITS
70
4
0
ENDSEC
0
SECTION
2
TABLES
0
TABLE
2
LTYPE
0
LTYPE
72
65
70
64
2
CONTINUOUS
3
______
73
0
40
0
0
ENDTAB
0
TABLE
2
LAYER
0
ENDTAB
0
ENDSEC
0
SECTION
2
ENTITIES
0
LINE
8
0
10
168.0316205
20
-95.7857258
11
168.0316205
21
-43.4845974
0
ARC
8
0
10
162.7316205
20
-43.4845974
40
5.3
50
0
51
90
0
LINE
8
0
10
150.5571205
20
-38.1845974
11
162.7316205
21
-38.1845974
0
ARC
8
0
10
150.5571205
20
-35.4845974
40
2.7
50
180
51
270
0
LINE
8
0
10
147.8571205
20
-35.4845974
11
147.8571205
21
-32.2590974
0
ARC
8
0
10
142.5571205
20
-32.2590974
40
5.3
50
0
51
90
0
LINE
8
0
10
114.5571205
20
-26.9590974
11
142.5571205
21
-26.9590974
0
ARC
8
0
10
114.5571205
20
-24.2590974
40
2.7
50
180
51
270
0
LINE
8
0
10
111.8571205
20
-24.2590974
11
111.8571205
21
-23.7590974
0
ARC
8
0
10
106.5571205
20
-23.7590974
40
5.3
50
0
51
90
0
LINE
8
0
10
106.5571205
20
-18.4590974
11
94.4061205
21
-18.4590974
0
ARC
8
0
10
94.4061205
20
-23.7590974
40
5.3
50
90
51
180
0
LINE
8
0
10
89.1061205
20
-25.5739716
11
89.1061205
21
-23.7590974
0
ARC
8
0
10
86.4061205
20
-25.5739716
40
2.7
50
274.0000013
51
360
0
LINE
8
0
10
73.4582049
20
-29.1859711
11
86.594463
21
-28.2673945
0
ARC
8
0
10
73.8279143
20
-34.4730606
40
5.3
50
94.0000013
51
184.0000013
0
LINE
8
0
10
68.5408248
20
-34.84277
11
68.9023645
21
-40.0130288
0
ARC
8
0
10
66.2089416
20
-40.2013713
40
2.7
50
280.0000008
51
364.0000013
0
LINE
8
0
10
52.4747817
20
-45.3647261
11
66.6777918
21
-42.8603522
0
ARC
8
0
10
53.3951171
20
-50.5842072
40
5.3
50
100.0000008
51
190.0000008
0
LINE
8
0
10
48.175636
20
-51.5045427
11
48.2624601
21
-51.9969465
0
ARC
8
0
10
45.6034792
20
-52.4657965
40
2.7
50
280.0000008
51
370.0000008
0
LINE
8
0
10
46.0723293
20
-55.1247774
11
36.2247341
21
-56.8611742
0
ARC
8
0
10
37.1445871
20
-62.0807403
40
5.3
50
100.0000008
51
190.0000008
0
LINE
8
0
10
31.925106
20
-63.0010756
11
36.8134758
21
-90.7243987
0
ARC
8
0
10
42.0329569
20
-89.8040634
40
5.3
50
190.0000008
51
280.0000008
0
LINE
8
0
10
42.9532923
20
-95.0235445
11
52.8013697
21
-93.2870627
0
ARC
8
0
10
53.2702198
20
-95.9460436
40
2.7
50
10.0000008
51
100.0000008
0
LINE
8
0
10
55.9292007
20
-95.4771933
11
56.0160248
21
-95.9695974
0
ARC
8
0
10
61.2355059
20
-95.0492621
40
5.3
50
190.0000008
51
280.0000008
0
LINE
8
0
10
62.1558413
20
-100.2687432
11
81.1263286
21
-96.9237344
0
ARC
8
0
10
81.5951787
20
-99.5827153
40
2.7
50
10.0000008
51
100.0000008
0
LINE
8
0
10
84.2541596
20
-99.1138651
11
84.6743756
21
-101.4970284
0
ARC
8
0
10
89.8938567
20
-100.5766931
40
5.3
50
190.0000008
51
280.0000008
0
LINE
8
0
10
90.8141921
20
-105.7961742
11
104.1278828
21
-103.4486112
0
ARC
8
0
10
106.506863
20
-116.9404774
40
13.7
50
90
51
100.0000008
0
LINE
8
0
10
106.506863
20
-103.2404774
11
120.8340586
21
-103.2404774
0
ARC
8
0
10
120.8340586
20
-116.9404774
40
13.7
50
75.0000021
51
90
0
LINE
8
0
10
124.379879
20
-103.7072935
11
137.5329871
21
-107.2316581
0
ARC
8
0
10
133.9873033
20
-120.4648787
40
13.7
50
59.9999999
51
74.9994601
0
LINE
8
0
10
140.8374258
20
-108.6004014
11
152.6295802
21
-115.4086046
0
ARC
8
0
10
145.7801801
20
-127.2734992
40
13.7
50
45.0019648
51
59.9999999
0
LINE
8
0
10
155.4678894
20
-117.5864827
11
164.6306781
21
-126.7492714
0
ARC
8
0
10
168.3786904
20
-123.0019519
40
5.3
50
225
51
315
0
LINE
8
0
10
172.1267027
20
-126.7492714
11
180.0135251
21
-118.862449
0
ARC
8
0
10
176.2662056
20
-115.1144367
40
5.3
50
315
51
404.9479716
0
LINE
8
0
10
170.2801653
20
-101.6153667
11
180.0171732
21
-111.3700754
0
ARC
8
0
10
172.1910864
20
-99.7079127
40
2.7
50
220.8209851
51
224.9479716
0
ARC
8
0
10
176.7316205
20
-95.7857258
40
8.7
50
180
51
220.8209851
0
ENDSEC
0
EOF