0
SECTION
2
HEADER
9
$INSUNITS
70
4
0
ENDSEC
0
SECTION
2
TABLES
0
TABLE
2
LTYPE
0
LTYPE
72
65
70
64
2
CONTINUOUS
3
______
73
0
40
0
0
ENDTAB
0
TABLE
2
LAYER
0
ENDTAB
0
ENDSEC
0
SECTION
2
ENTITIES
0
LINE
8
0
10
166.8316205
20
-95.8757258
11
166.8316205
21
-41.9845974
0
ARC
8
0
10
164.2316205
20
-41.9845974
40
2.6
50
0
51
90
0
LINE
8
0
10
149.0571205
20
-39.3845974
11
164.2316205
21
-39.3845974
0
ARC
8
0
10
149.0571205
20
-36.9845974
40
2.4
50
180
51
270
0
LINE
8
0
10
146.6571205
20
-36.9845974
11
146.6571205
21
-30.7590974
0
ARC
8
0
10
144.0571205
20
-30.7590974
40
2.6
50
0
51
90
0
LINE
8
0
10
113.0571205
20
-28.1590974
11
144.0571205
21
-28.1590974
0
ARC
8
0
10
113.0571205
20
-25.7590974
40
2.4
50
180
51
270
0
LINE
8
0
10
110.6571205
20
-25.7590974
11
110.6571205
21
-22.2590974
0
ARC
8
0
10
108.0571205
20
-22.2590974
40
2.6
50
0
51
90
0
LINE
8
0
10
108.0571205
20
-19.6590974
11
92.9061205
21
-19.6590974
0
ARC
8
0
10
92.9061205
20
-22.2590974
40
2.6
50
90
51
180
0
LINE
8
0
10
90.3061205
20
-26.9727442
11
90.3061205
21
-22.2590974
0
ARC
8
0
10
87.9061205
20
-26.9727442
40
2.4
50
274.0000013
51
360
0
LINE
8
0
10
72.0455667
20
-30.4876827
11
88.0735361
21
-29.3668979
0
ARC
8
0
10
72.2269335
20
-33.0813492
40
2.6
50
94.0000013
51
184.0000013
0
LINE
8
0
10
69.633267
20
-33.2627161
11
70.193655
21
-41.2766371
0
ARC
8
0
10
67.7995013
20
-41.4440526
40
2.4
50
280.0000008
51
364.0000013
0
LINE
8
0
10
51.205948
20
-46.8069677
11
68.216257
21
-43.8075913
0
ARC
8
0
10
51.6574332
20
-49.3674678
40
2.6
50
100.0000008
51
190.0000008
0
LINE
8
0
10
49.096933
20
-49.8189531
11
49.7047016
21
-53.2657801
0
ARC
8
0
10
47.341163
20
-53.6825358
40
2.4
50
280.0000008
51
370.0000008
0
LINE
8
0
10
47.7579187
20
-56.0460744
11
34.9554179
21
-58.3035008
0
ARC
8
0
10
35.4069032
20
-60.864001
40
2.6
50
100.0000008
51
190.0000008
0
LINE
8
0
10
32.846403
20
-61.3154862
11
38.2557173
21
-91.9932325
0
ARC
8
0
10
40.8162175
20
-91.5417472
40
2.6
50
190.0000008
51
280.0000008
0
LINE
8
0
10
41.2677028
20
-94.1022474
11
54.0702035
21
-91.844821
0
ARC
8
0
10
54.4869592
20
-94.2083597
40
2.4
50
10.0000008
51
100.0000008
0
LINE
8
0
10
56.8504977
20
-93.791604
11
57.4582663
21
-97.2384312
0
ARC
8
0
10
60.0187666
20
-96.786946
40
2.6
50
190.0000008
51
280.0000008
0
LINE
8
0
10
60.4702518
20
-99.3474461
11
82.3078762
21
-95.4968837
0
ARC
8
0
10
82.7246319
20
-97.8604223
40
2.4
50
10.0000008
51
100.0000008
0
LINE
8
0
10
85.0881705
20
-97.4436666
11
86.0266172
21
-102.7658622
0
ARC
8
0
10
88.5871173
20
-102.3143769
40
2.6
50
190.0000008
51
280.0000008
0
LINE
8
0
10
89.0386026
20
-104.8748771
11
103.829505
21
-102.2668419
0
ARC
8
0
10
106.416863
20
-116.9404774
40
14.9
50
90
51
100.0000004
0
LINE
8
0
10
106.416863
20
-102.0404774
11
120.7440586
21
-102.0404774
0
ARC
8
0
10
120.7440586
20
-116.9404774
40
14.9
50
75.0000021
51
90
0
LINE
8
0
10
124.6004618
20
-102.5481825
11
137.7537069
21
-106.0725838
0
ARC
8
0
10
133.8973033
20
-120.4648787
40
14.9
50
60.0000001
51
74.9994585
0
LINE
8
0
10
141.3473033
20
-107.5611001
11
153.1400577
21
-114.3696499
0
ARC
8
0
10
145.6901801
20
-127.2734992
40
14.9
50
45
51
59.9999999
0
LINE
8
0
10
156.2260711
20
-116.7376082
11
166.4502127
21
-126.9617498
0
ARC
8
0
10
168.2886904
20
-125.1232721
40
2.6
50
225.0031773
51
314.9968212
0
LINE
8
0
10
170.1271681
20
-126.9617498
11
180.1350407
21
-116.9538771
0
ARC
8
0
10
178.296563
20
-115.1153995
40
2.6
50
315.0031773
51
404.9447931
0
LINE
8
0
10
169.3960024
20
-102.5183595
11
180.1367094
21
-113.278592
0
ARC
8
0
10
171.0945989
20
-100.822845
40
2.4
50
221.2738932
51
224.9446643
0
ARC
8
0
10
176.7316205
20
-95.8757258
40
9.9
50
180
51
221.2705848
0
ENDSEC
0
EOF