0
SECTION
2
HEADER
9
$INSUNITS
70
4
0
ENDSEC
0
SECTION
2
TABLES
0
TABLE
2
LTYPE
0
LTYPE
72
65
70
64
2
CONTINUOUS
3
______
73
0
40
0
0
ENDTAB
0
TABLE
2
LAYER
0
ENDTAB
0
ENDSEC
0
SECTION
2
ENTITIES
0
LINE
8
0
10
167.9316205
20
-95.7857258
11
167.9316205
21
-43.4845974
0
ARC
8
0
10
162.7316205
20
-43.4845974
40
5.2
50
0
51
90
0
LINE
8
0
10
150.5571205
20
-38.2845974
11
162.7316205
21
-38.2845974
0
ARC
8
0
10
150.5571205
20
-35.4845974
40
2.8
50
180
51
270
0
LINE
8
0
10
147.7571205
20
-35.4845974
11
147.7571205
21
-32.2590974
0
ARC
8
0
10
142.5571205
20
-32.2590974
40
5.2
50
0
51
90
0
LINE
8
0
10
114.5571205
20
-27.0590974
11
142.5571205
21
-27.0590974
0
ARC
8
0
10
114.5571205
20
-24.2590974
40
2.8
50
180
51
270
0
LINE
8
0
10
111.7571205
20
-24.2590974
11
111.7571205
21
-23.7590974
0
ARC
8
0
10
106.5571205
20
-23.7590974
40
5.2
50
0
51
90
0
LINE
8
0
10
106.5571205
20
-18.5590974
11
94.4061205
21
-18.5590974
0
ARC
8
0
10
94.4061205
20
-23.7590974
40
5.2
50
90
51
180
0
LINE
8
0
10
89.2061205
20
-25.5739716
11
89.2061205
21
-23.7590974
0
ARC
8
0
10
86.4061205
20
-25.5739716
40
2.8
50
274.0000013
51
360
0
LINE
8
0
10
73.4651805
20
-29.2857275
11
86.6014387
21
-28.3671509
0
ARC
8
0
10
73.8279143
20
-34.4730606
40
5.2
50
94.0000013
51
184.0000013
0
LINE
8
0
10
68.6405812
20
-34.8357944
11
69.002121
21
-40.0060531
0
ARC
8
0
10
66.2089416
20
-40.2013713
40
2.8
50
280.0000008
51
364.0000013
0
LINE
8
0
10
52.4921465
20
-45.4632069
11
66.6951566
21
-42.958833
0
ARC
8
0
10
53.3951171
20
-50.5842072
40
5.2
50
100.0000008
51
190.0000008
0
LINE
8
0
10
48.2741168
20
-51.4871778
11
56.1145056
21
-95.9522327
0
ARC
8
0
10
61.2355059
20
-95.0492621
40
5.2
50
190.0000008
51
280.0000008
0
LINE
8
0
10
62.1384765
20
-100.1702624
11
81.1089638
21
-96.8252536
0
ARC
8
0
10
81.5951787
20
-99.5827153
40
2.8
50
10.0000008
51
100.0000008
0
LINE
8
0
10
84.3526404
20
-99.0965003
11
84.7728564
21
-101.4796636
0
ARC
8
0
10
89.8938567
20
-100.5766931
40
5.2
50
190.0000008
51
280.0000008
0
LINE
8
0
10
90.7968273
20
-105.6976934
11
104.110518
21
-103.3501305
0
ARC
8
0
10
106.506863
20
-116.9404774
40
13.8
50
90
51
100.0000008
0
LINE
8
0
10
106.506863
20
-103.1404774
11
120.8340586
21
-103.1404774
0
ARC
8
0
10
120.8340586
20
-116.9404774
40
13.8
50
75.0000021
51
90
0
LINE
8
0
10
124.4057608
20
-103.6107009
11
137.5585324
21
-107.1349753
0
ARC
8
0
10
133.9873033
20
-120.4648787
40
13.8
50
59.9999999
51
74.9980512
0
LINE
8
0
10
140.8877276
20
-108.5139731
11
152.6797559
21
-115.3221037
0
ARC
8
0
10
145.7801801
20
-127.2734992
40
13.8
50
45
51
59.9999999
0
LINE
8
0
10
155.5386001
20
-117.515772
11
164.7013888
21
-126.6785607
0
ARC
8
0
10
168.3786904
20
-123.0019519
40
5.2
50
225
51
315
0
LINE
8
0
10
172.055992
20
-126.6785607
11
179.9431608
21
-118.791392
0
ARC
8
0
10
176.2662056
20
-115.1144367
40
5.2
50
315
51
404.9479716
0
LINE
8
0
10
170.2093904
20
-101.6860131
11
179.9461522
21
-111.4404752
0
ARC
8
0
10
172.1910864
20
-99.7079127
40
2.8
50
220.8209851
51
224.9479716
0
ARC
8
0
10
176.7316205
20
-95.7857258
40
8.8
50
180
51
220.8209851
0
ENDSEC
0
EOF