0
SECTION
2
HEADER
9
$INSUNITS
70
4
0
ENDSEC
0
SECTION
2
TABLES
0
TABLE
2
LTYPE
0
LTYPE
72
65
70
64
2
CONTINUOUS
3
______
73
0
40
0
0
ENDTAB
0
TABLE
2
LAYER
0
ENDTAB
0
ENDSEC
0
SECTION
2
ENTITIES
0
LINE
8
0
10
168.0416205
20
-95.8757258
11
168.0416205
21
-40.6745974
0
LINE
8
0
10
150.3671205
20
-38.1745974
11
165.5416205
21
-38.1745974
0
LINE
8
0
10
147.8671205
20
-35.6745974
11
147.8671205
21
-29.4490974
0
LINE
8
0
10
114.3671205
20
-26.9490974
11
145.3671205
21
-26.9490974
0
LINE
8
0
10
111.8671205
20
-24.4490974
11
111.8671205
21
-20.9490974
0
LINE
8
0
10
91.5961205
20
-18.4490974
11
109.3671205
21
-18.4490974
0
LINE
8
0
10
89.0961205
20
-25.7511495
11
89.0961205
21
-20.9490974
0
LINE
8
0
10
70.6543524
20
-29.3720112
11
86.7705117
21
-28.2450596
0
LINE
8
0
10
68.3348335
20
-32.0403126
11
68.9043227
21
-40.1843864
0
LINE
8
0
10
49.7057355
20
-45.8428294
11
66.844533
21
-42.820797
0
LINE
8
0
10
47.6778365
20
-48.7389692
11
56.4941281
21
-98.7386437
0
LINE
8
0
10
59.3902679
20
-100.7665426
11
81.2278923
21
-96.9159802
0
LINE
8
0
10
84.1240322
20
-98.9438791
11
85.0624789
21
-104.2660747
0
LINE
8
0
10
87.9586187
20
-106.2939736
11
104.0396193
21
-103.4584593
0
ARC
8
0
10
106.416863
20
-116.9404774
40
13.69
50
90
51
100.0000008
0
LINE
8
0
10
106.416863
20
-103.2504774
11
120.7440586
21
-103.2504774
0
ARC
8
0
10
120.7440586
20
-116.9404774
40
13.69
50
75.0000021
51
90
0
LINE
8
0
10
124.2877852
20
-103.7170851
11
137.4405355
21
-107.241354
0
ARC
8
0
10
133.8973033
20
-120.4648787
40
13.69
50
59.9999999
51
74.9979554
0
LINE
8
0
10
140.7427466
20
-108.6092468
11
152.5347369
21
-115.4173555
0
ARC
8
0
10
145.6901801
20
-127.2734992
40
13.69
50
45
51
59.9999999
0
LINE
8
0
10
155.3704719
20
-117.5932074
11
166.5209234
21
-128.7436589
0
LINE
8
0
10
170.0564574
20
-128.7436589
11
181.9161089
21
-116.8840073
0
LINE
8
0
10
170.2835141
20
-101.6947302
11
181.9177135
21
-113.3500793
0
ARC
8
0
10
176.7316205
20
-95.8757258
40
8.69
50
180
51
220.8999727
0
ARC
8
0
10
165.5416205
20
-40.6745974
40
2.5
50
0
51
90
0
ARC
8
0
10
150.3671205
20
-35.6745974
40
2.5
50
180
51
270
0
ARC
8
0
10
145.3671205
20
-29.4490974
40
2.5
50
0
51
90
0
ARC
8
0
10
114.3671205
20
-24.4490974
40
2.5
50
180
51
270
0
ARC
8
0
10
109.3671205
20
-20.9490974
40
2.5
50
0
51
90
0
ARC
8
0
10
91.5961205
20
-20.9490974
40
2.5
50
90
51
180
0
ARC
8
0
10
86.5961205
20
-25.7511495
40
2.5
50
274.0000013
51
0
0
ARC
8
0
10
70.8287436
20
-31.8659213
40
2.5
50
94.0000013
51
184.0000017
0
ARC
8
0
10
66.4104126
20
-40.3587776
40
2.5
50
280.0000008
51
4.0000017
0
ARC
8
0
10
50.1398559
20
-48.3048488
40
2.5
50
100.0000008
51
190.0000008
0
ARC
8
0
10
58.9561474
20
-98.3045232
40
2.5
50
190.0000008
51
280.0000008
0
ARC
8
0
10
81.6620128
20
-99.3779996
40
2.5
50
10.0000008
51
100.0000008
0
ARC
8
0
10
87.5244983
20
-103.8319542
40
2.5
50
190.0000008
51
280.0000008
0
ARC
8
0
10
168.2886904
20
-126.9758919
40
2.5
50
225
51
315
0
ARC
8
0
10
180.148342
20
-115.1162403
40
2.5
50
315
51
44.9479716
0
ARC
8
0
10
172.0528856
20
-99.9285692
40
2.5
50
220.8999727
51
224.9479716
0
ENDSEC
0
EOF