0
SECTION
2
HEADER
9
$INSUNITS
70
4
0
ENDSEC
0
SECTION
2
TABLES
0
TABLE
2
LTYPE
0
LTYPE
72
65
70
64
2
CONTINUOUS
3
______
73
0
40
0
0
ENDTAB
0
TABLE
2
LAYER
0
ENDTAB
0
ENDSEC
0
SECTION
2
ENTITIES
0
LINE
8
0
10
39.2344461
20
-95.252069
11
54.7816548
21
-93.0670512
0
LINE
8
0
10
55.911096
20
-93.9181462
11
56.7739692
21
-100.0578083
0
ARC
8
0
10
58.0613177
20
-99.8768833
40
1.3
50
187.9999988
51
278.0000003
0
LINE
8
0
10
58.2422427
20
-101.1642318
11
78.047604
21
-98.3807697
0
ARC
8
0
10
77.866679
20
-97.0934212
40
1.3
50
277.9999948
51
367.9999986
0
LINE
8
0
10
79.1540275
20
-96.9124962
11
78.5897179
21
-92.8972248
0
LINE
8
0
10
79.5102295
20
-91.7604876
11
97.1224466
21
-90.5289214
0
LINE
8
0
10
98.1922031
20
-91.5264855
11
98.1922031
21
-106.6806663
0
ARC
8
0
10
99.4922031
20
-106.6806663
40
1.3
50
180
51
270
0
LINE
8
0
10
99.4922031
20
-107.9806663
11
118.2324878
21
-107.9806663
0
LINE
8
0
10
118.3889223
20
-107.992978
11
135.6542749
21
-110.7275412
0
LINE
8
0
10
135.8068574
20
-110.764173
11
151.5814846
21
-115.88966
0
LINE
8
0
10
169.2828242
20
-124.7381027
11
151.7200983
21
-115.946498
0
ARC
8
0
10
169.8647441
20
-123.5756186
40
1.3
50
243.4082275
51
333.0000122
0
LINE
8
0
10
171.0230526
20
-124.1658062
11
179.6488721
21
-107.2366822
0
ARC
8
0
10
178.4905636
20
-106.6464946
40
1.3
50
333
51
63.0000122
0
LINE
8
0
10
170.6382126
20
-101.1864978
11
179.0807512
21
-105.4881861
0
LINE
8
0
10
170.0922031
20
-100.2954913
11
170.0922031
21
-43.0306663
0
ARC
8
0
10
168.7922031
20
-43.0306663
40
1.3
50
0
51
90
0
LINE
8
0
10
168.7922031
20
-41.7306663
11
150.5922031
21
-41.7306663
0
LINE
8
0
10
149.5922031
20
-40.7306663
11
149.5922031
21
-37.5306663
0
ARC
8
0
10
148.2922031
20
-37.5306663
40
1.3
50
0
51
90
0
LINE
8
0
10
148.2922031
20
-36.2306663
11
132.5922032
21
-36.2306663
0
LINE
8
0
10
131.5922032
20
-35.2306663
11
131.5922032
21
-34.9806663
0
ARC
8
0
10
130.2922032
20
-34.9806663
40
1.3
50
0
51
90
0
LINE
8
0
10
130.2922032
20
-33.6806663
11
114.5922031
21
-33.6806663
0
LINE
8
0
10
113.5922031
20
-32.6806663
11
113.5922031
21
-31.5806663
0
ARC
8
0
10
112.2922031
20
-31.5806663
40
1.3
50
0
51
90
0
LINE
8
0
10
112.2922031
20
-30.2806663
11
92.2922031
21
-30.2806663
0
ARC
8
0
10
92.2922031
20
-31.5806663
40
1.3
50
90
51
180
0
LINE
8
0
10
90.9922031
20
-34.289305
11
90.9922031
21
-31.5806663
0
LINE
8
0
10
71.0330026
20
-36.6175034
11
90.0619596
21
-35.2868691
0
ARC
8
0
10
71.123686
20
-37.9143367
40
1.3
50
93.9999922
51
183.9999922
0
LINE
8
0
10
69.8268527
20
-38.0050201
11
70.1346734
21
-42.407061
0
LINE
8
0
10
50.5042184
20
-46.1053271
11
69.2762824
21
-43.4670856
0
ARC
8
0
10
50.6851434
20
-47.3926756
40
1.3
50
98.0000001
51
187.9999986
0
LINE
8
0
10
49.3977949
20
-47.5736006
11
50.2606681
21
-53.7132626
0
LINE
8
0
10
49.4095731
20
-54.8427038
11
33.8623644
21
-57.0277215
0
ARC
8
0
10
34.0432895
20
-58.31507
40
1.3
50
98.0000013
51
187.9999948
0
LINE
8
0
10
32.755941
20
-58.495995
11
37.7661726
21
-94.1456455
0
ARC
8
0
10
39.0535211
20
-93.9647205
40
1.3
50
187.9999948
51
277.9999948
0
ARC
8
0
10
54.9208279
20
-94.0573193
40
1
50
7.9999997
51
97.9999997
0
ARC
8
0
10
77.9084309
20
-97.3905016
40
1
50
277.9999948
51
277.9999997
0
ARC
8
0
10
79.579986
20
-92.7580517
40
1
50
94.0000013
51
187.9999997
0
ARC
8
0
10
97.1922031
20
-91.5264855
40
1
50
0
51
94.0000013
0
ARC
8
0
10
118.2324878
20
-108.9806663
40
1
50
80.9999977
51
90
0
ARC
8
0
10
135.4978404
20
-111.7152295
40
1
50
71.9999994
51
80.9999977
0
ARC
8
0
10
151.2724676
20
-116.8407165
40
1
50
63.4082261
51
71.9999994
0
ARC
8
0
10
170.1320461
20
-123.7118157
40
1
50
332.9999994
51
333.0000122
0
ARC
8
0
10
178.6267607
20
-106.3791926
40
1
50
62.9999994
51
63.0000122
0
ARC
8
0
10
171.0922031
20
-100.2954913
40
1
50
180
51
242.9999994
0
ARC
8
0
10
150.5922031
20
-40.7306663
40
1
50
180
51
270
0
ARC
8
0
10
132.5922032
20
-35.2306663
40
1
50
180
51
270
0
ARC
8
0
10
114.5922031
20
-32.6806663
40
1
50
180
51
270
0
ARC
8
0
10
89.9922031
20
-34.289305
40
1
50
274.0000013
51
0
0
ARC
8
0
10
71.1027591
20
-37.6150675
40
1
50
93.9999922
51
94.0000013
0
ARC
8
0
10
70.8244168
20
-37.9352636
40
1
50
183.9999922
51
184.0000013
0
ARC
8
0
10
69.1371093
20
-42.4768175
40
1
50
277.9999997
51
4.0000013
0
ARC
8
0
10
49.2704
20
-53.8524357
40
1
50
277.9999997
51
7.9999997
0
ARC
8
0
10
33.7462091
20
-58.3568219
40
1
50
187.9999948
51
187.9999997
0
ARC
8
0
10
38.7564407
20
-94.0064724
40
1
50
187.9999948
51
187.9999997
0
ARC
8
0
10
39.095273
20
-94.2618009
40
1
50
277.9999948
51
277.9999997
0
ENDSEC
0
EOF