0
SECTION
2
HEADER
9
$INSUNITS
70
4
0
ENDSEC
0
SECTION
2
TABLES
0
TABLE
2
LTYPE
0
LTYPE
72
65
70
64
2
CONTINUOUS
3
______
73
0
40
0
0
ENDTAB
0
TABLE
2
LAYER
0
ENDTAB
0
ENDSEC
0
SECTION
2
ENTITIES
0
LINE
8
0
10
166.8316205
20
-95.7857258
11
166.8316205
21
-43.4845974
0
ARC
8
0
10
162.7316205
20
-43.4845974
40
4.1
50
0
51
90
0
LINE
8
0
10
150.5571205
20
-39.3845974
11
162.7316205
21
-39.3845974
0
ARC
8
0
10
150.5571205
20
-35.4845974
40
3.9
50
180
51
270
0
LINE
8
0
10
146.6571205
20
-35.4845974
11
146.6571205
21
-32.2590974
0
ARC
8
0
10
142.5571205
20
-32.2590974
40
4.1
50
0
51
90
0
LINE
8
0
10
114.5571205
20
-28.1590974
11
142.5571205
21
-28.1590974
0
ARC
8
0
10
114.5571205
20
-24.2590974
40
3.9
50
180
51
270
0
LINE
8
0
10
110.6571205
20
-24.2590974
11
110.6571205
21
-23.7590974
0
ARC
8
0
10
106.5571205
20
-23.7590974
40
4.1
50
0
51
90
0
LINE
8
0
10
106.5571205
20
-19.6590974
11
94.4061205
21
-19.6590974
0
ARC
8
0
10
94.4061205
20
-23.7590974
40
4.1
50
90
51
180
0
LINE
8
0
10
90.3061205
20
-25.5739716
11
90.3061205
21
-23.7590974
0
ARC
8
0
10
86.4061205
20
-25.5739716
40
3.9
50
274.0000013
51
360
0
LINE
8
0
10
73.5419127
20
-30.383048
11
86.6781708
21
-29.4644714
0
ARC
8
0
10
73.8279143
20
-34.4730606
40
4.1
50
94.0000013
51
184.0000013
0
LINE
8
0
10
69.7379017
20
-34.7590622
11
70.0994414
21
-39.929321
0
ARC
8
0
10
66.2089416
20
-40.2013713
40
3.9
50
280.0000008
51
364.0000013
0
LINE
8
0
10
52.6831595
20
-46.5464954
11
66.8861696
21
-44.0421215
0
ARC
8
0
10
53.3951171
20
-50.5842072
40
4.1
50
100.0000008
51
190.0000008
0
LINE
8
0
10
49.3574053
20
-51.2961648
11
49.4442294
21
-51.7885686
0
ARC
8
0
10
45.6034792
20
-52.4657965
40
3.9
50
280.0000008
51
370.0000008
0
LINE
8
0
10
46.2807071
20
-56.3065467
11
36.4327688
21
-58.0430041
0
ARC
8
0
10
37.1445871
20
-62.0807403
40
4.1
50
100.0000008
51
190.0000008
0
LINE
8
0
10
33.1068753
20
-62.7926978
11
37.9952451
21
-90.5160209
0
ARC
8
0
10
42.0329569
20
-89.8040634
40
4.1
50
190.0000008
51
280.0000008
0
LINE
8
0
10
42.7449145
20
-93.8417752
11
52.5929919
21
-92.1052934
0
ARC
8
0
10
53.2702198
20
-95.9460436
40
3.9
50
10.0000008
51
100.0000008
0
LINE
8
0
10
57.11097
20
-95.2688156
11
57.1977941
21
-95.7612197
0
ARC
8
0
10
61.2355059
20
-95.0492621
40
4.1
50
190.0000008
51
280.0000008
0
LINE
8
0
10
61.9474635
20
-99.0869739
11
80.9179508
21
-95.7419651
0
ARC
8
0
10
81.5951787
20
-99.5827153
40
3.9
50
10.0000008
51
100.0000008
0
LINE
8
0
10
85.4359289
20
-98.9054873
11
85.8561449
21
-101.2886506
0
ARC
8
0
10
89.8938567
20
-100.5766931
40
4.1
50
190.0000008
51
280.0000008
0
LINE
8
0
10
90.6058143
20
-104.6144049
11
103.919505
21
-102.2668419
0
ARC
8
0
10
106.506863
20
-116.9404774
40
14.9
50
90
51
100.0000008
0
LINE
8
0
10
106.506863
20
-102.0404774
11
120.8340586
21
-102.0404774
0
ARC
8
0
10
120.8340586
20
-116.9404774
40
14.9
50
75.0000021
51
90
0
LINE
8
0
10
124.6904618
20
-102.5481825
11
137.8435699
21
-106.0725471
0
ARC
8
0
10
133.9873033
20
-120.4648787
40
14.9
50
59.9999999
51
74.9994601
0
LINE
8
0
10
141.4374258
20
-107.5611709
11
153.2300577
21
-114.3696499
0
ARC
8
0
10
145.7801801
20
-127.2734992
40
14.9
50
45
51
59.9999999
0
LINE
8
0
10
156.3160711
20
-116.7376082
11
165.4795526
21
-125.9010897
0
ARC
8
0
10
168.3786904
20
-123.0019519
40
4.1
50
225
51
315
0
LINE
8
0
10
171.2778282
20
-125.9010897
11
179.1653433
21
-118.0135745
0
ARC
8
0
10
176.2662056
20
-115.1144367
40
4.1
50
315
51
404.9479716
0
LINE
8
0
10
169.4308669
20
-102.4631239
11
179.1678749
21
-112.2178326
0
ARC
8
0
10
172.1910864
20
-99.7079127
40
3.9
50
220.8209851
51
224.9479716
0
ARC
8
0
10
176.7316205
20
-95.7857258
40
9.9
50
180
51
220.8209851
0
ENDSEC
0
EOF