0
SECTION
2
HEADER
9
$INSUNITS
70
4
0
ENDSEC
0
SECTION
2
TABLES
0
TABLE
2
LTYPE
0
LTYPE
72
65
70
64
2
CONTINUOUS
3
______
73
0
40
0
0
ENDTAB
0
TABLE
2
LAYER
0
ENDTAB
0
ENDSEC
0
SECTION
2
ENTITIES
0
LINE
8
0
10
166.7316205
20
-95.7857258
11
166.7316205
21
-43.4845974
0
LINE
8
0
10
150.5571205
20
-39.4845974
11
162.7316205
21
-39.4845974
0
LINE
8
0
10
42.7275497
20
-93.7432944
11
52.575627
21
-92.0068126
0
LINE
8
0
10
33.2053561
20
-62.775333
11
38.0937259
21
-90.4986561
0
LINE
8
0
10
46.2980719
20
-56.4050275
11
36.4499943
21
-58.1415093
0
LINE
8
0
10
61.9300986
20
-98.9884931
11
80.9005861
21
-95.6434843
0
LINE
8
0
10
57.2094508
20
-95.2514508
11
57.2375471
21
-95.4107928
0
LINE
8
0
10
57.2375471
20
-95.4107928
11
57.2962749
21
-95.7438548
0
LINE
8
0
10
52.7005243
20
-46.6449762
11
66.9035344
21
-44.1406023
0
LINE
8
0
10
49.4558861
20
-51.2788
11
49.514614
21
-51.6118618
0
LINE
8
0
10
49.514614
20
-51.6118618
11
49.5427102
21
-51.7712037
0
LINE
8
0
10
73.5488883
20
-30.4828044
11
86.6851465
21
-29.5642278
0
LINE
8
0
10
69.8376581
20
-34.7520865
11
70.1991978
21
-39.9223454
0
LINE
8
0
10
90.4061205
20
-25.5739716
11
90.4061205
21
-23.7590974
0
LINE
8
0
10
110.5571205
20
-24.2590974
11
110.5571205
21
-23.7590974
0
LINE
8
0
10
106.5571205
20
-19.7590974
11
94.4061205
21
-19.7590974
0
LINE
8
0
10
114.5571205
20
-28.2590974
11
142.5571205
21
-28.2590974
0
LINE
8
0
10
146.5571205
20
-35.4845974
11
146.5571205
21
-32.2590974
0
LINE
8
0
10
90.5884495
20
-104.5159241
11
103.9021404
21
-102.1683611
0
LINE
8
0
10
85.5344097
20
-98.8881225
11
85.9546257
21
-101.2712858
0
LINE
8
0
10
106.506863
20
-101.9404774
11
120.8340586
21
-101.9404774
0
LINE
8
0
10
124.7163437
20
-102.4515899
11
137.8695889
21
-105.9759913
0
LINE
8
0
10
141.4873033
20
-107.4744976
11
153.2801801
21
-114.2831181
0
LINE
8
0
10
156.3867818
20
-116.6668975
11
165.5502633
21
-125.830379
0
LINE
8
0
10
171.2071175
20
-125.830379
11
179.0946327
21
-117.9428638
0
LINE
8
0
10
169.360092
20
-102.5337703
11
179.0972001
21
-112.2885793
0
ARC
8
0
10
106.506863
20
-116.9404774
40
15
50
90
51
100
0
ARC
8
0
10
120.8340586
20
-116.9404774
40
15
50
75.0000021
51
90
0
ARC
8
0
10
133.9873033
20
-120.4648787
40
15
50
60
51
75.0000003
0
ARC
8
0
10
145.7801801
20
-127.2734992
40
15
50
45
51
59.9999999
0
ARC
8
0
10
176.7316205
20
-95.7857258
40
10
50
180
51
220.8209851
0
ARC
8
0
10
162.7316205
20
-43.4845974
40
4
50
0
51
90
0
ARC
8
0
10
150.5571205
20
-35.4845974
40
4
50
180
51
270
0
ARC
8
0
10
142.5571205
20
-32.2590974
40
4
50
0
51
90
0
ARC
8
0
10
114.5571205
20
-24.2590974
40
4
50
180
51
270
0
ARC
8
0
10
106.5571205
20
-23.7590974
40
4
50
0
51
90
0
ARC
8
0
10
94.4061205
20
-23.7590974
40
4
50
90
51
180
0
ARC
8
0
10
86.4061205
20
-25.5739716
40
4
50
274.0000013
51
0
0
ARC
8
0
10
73.8279143
20
-34.4730606
40
4
50
94.0000013
51
183.9999999
0
ARC
8
0
10
66.2089416
20
-40.2013713
40
4
50
280.0000008
51
3.9999999
0
ARC
8
0
10
53.3951171
20
-50.5842072
40
4
50
100.0000008
51
190.0000008
0
ARC
8
0
10
45.6034792
20
-52.4657965
40
4
50
280.0000008
51
324.7928334
0
ARC
8
0
10
37.1445871
20
-62.0807403
40
4
50
100.0000008
51
189.9999994
0
ARC
8
0
10
42.0329569
20
-89.8040634
40
4
50
190.0000008
51
280.000001
0
ARC
8
0
10
53.2702198
20
-95.9460436
40
4
50
55.2071662
51
100.000001
0
ARC
8
0
10
61.2355059
20
-95.0492621
40
4
50
190.0000008
51
279.9999994
0
ARC
8
0
10
81.5951787
20
-99.5827153
40
4
50
10.0000008
51
99.9999994
0
ARC
8
0
10
89.8938567
20
-100.5766931
40
4
50
190.0000008
51
280.000001
0
ARC
8
0
10
168.3786904
20
-123.0019519
40
4
50
225
51
315
0
ARC
8
0
10
176.2662056
20
-115.1144367
40
4
50
315
51
44.9479685
0
ARC
8
0
10
172.1910864
20
-99.7079127
40
4
50
220.8209851
51
224.9479716
0
LINE
8
0
10
56.1748307
20
-92.2632137
11
55.5431853
21
-88.6809745
0
LINE
8
0
10
50.3544041
20
-59.253934
11
49.5925226
21
-54.9330891
0
LINE
8
0
10
51.8132224
20
-67.5273039
11
51.132348
21
-63.6658729
0
LINE
8
0
10
53.3064231
20
-75.9956658
11
52.5911663
21
-71.9392428
0
LINE
8
0
10
54.7652415
20
-84.2690357
11
54.084367
21
-80.4076047
0
LINE
8
0
10
49.5427102
20
-51.7712037
11
50.846808
21
-59.1671099
0
LINE
8
0
10
51.6247519
20
-63.5790488
11
52.3056264
21
-67.4404798
0
LINE
8
0
10
53.0835702
20
-71.8524186
11
53.798827
21
-75.9088417
0
LINE
8
0
10
54.5767709
20
-80.3207806
11
55.2576453
21
-84.1822116
0
LINE
8
0
10
56.0355892
20
-88.5941505
11
57.2094508
21
-95.2514508
0
LINE
8
0
10
51.3270263
20
-63.3878434
11
51.3467224
21
-63.3843704
0
LINE
8
0
10
50.6521297
20
-59.4451394
11
50.6324336
21
-59.4486124
0
LINE
8
0
10
52.7858446
20
-71.6612133
11
52.8055407
21
-71.6577403
0
LINE
8
0
10
52.110948
20
-67.7185093
11
52.0912519
21
-67.7219823
0
LINE
8
0
10
54.2790453
20
-80.1295752
11
54.2987414
21
-80.1261022
0
LINE
8
0
10
53.6041487
20
-76.1868712
11
53.5844526
21
-76.1903442
0
LINE
8
0
10
55.7378636
20
-88.4029451
11
55.7575597
21
-88.3994721
0
LINE
8
0
10
55.062967
20
-84.4602411
11
55.0432709
21
-84.4637141
0
ARC
8
0
10
50.6104541
20
-59.2087855
40
0.24
50
280.0000018
51
10.0000008
0
ARC
8
0
10
50.590758
20
-59.2122585
40
0.24
50
190.0000008
51
280.0000018
0
ARC
8
0
10
55.7795392
20
-88.639299
40
0.24
50
100.0000018
51
190.0000008
0
ARC
8
0
10
55.7992353
20
-88.635826
40
0.24
50
10.0000008
51
100.0000018
0
ARC
8
0
10
52.8275202
20
-71.8975672
40
0.24
50
100.0000018
51
190.0000008
0
ARC
8
0
10
52.8472163
20
-71.8940942
40
0.24
50
10.0000008
51
100.0000018
0
ARC
8
0
10
53.5624731
20
-75.9505173
40
0.24
50
280.0000018
51
10.0000008
0
ARC
8
0
10
53.542777
20
-75.9539903
40
0.24
50
190.0000008
51
280.0000018
0
ARC
8
0
10
51.3687019
20
-63.6241973
40
0.24
50
100.0000018
51
190.0000008
0
ARC
8
0
10
51.388398
20
-63.6207243
40
0.24
50
10.0000008
51
100.0000018
0
ARC
8
0
10
52.0692725
20
-67.4821554
40
0.24
50
280.0000018
51
10.0000008
0
ARC
8
0
10
52.0495763
20
-67.4856284
40
0.24
50
190.0000008
51
280.0000018
0
ARC
8
0
10
54.3207209
20
-80.3659291
40
0.24
50
100.0000018
51
190.0000008
0
ARC
8
0
10
54.340417
20
-80.3624561
40
0.24
50
10.0000008
51
100.0000018
0
ARC
8
0
10
55.0212914
20
-84.2238872
40
0.24
50
280.0000018
51
10.0000008
0
ARC
8
0
10
55.0015954
20
-84.2273602
40
0.24
50
190.0000008
51
280.0000018
0
ARC
8
0
10
70.2366837
20
-34.7241839
40
0.4
50
183.9999999
51
184.0000013
0
ARC
8
0
10
69.8001722
20
-39.950248
40
0.4
50
3.9999999
51
4.0000013
0
ARC
8
0
10
49.1985995
20
-55.0025484
40
0.4
50
10.0000008
51
144.7928334
0
ARC
8
0
10
33.5992792
20
-62.7058737
40
0.4
50
189.9999994
51
190.0000008
0
ARC
8
0
10
42.6580904
20
-93.3493713
40
0.4
50
280.0000008
51
280.000001
0
ARC
8
0
10
52.6450863
20
-92.4007357
40
0.4
50
100.0000008
51
100.000001
0
ARC
8
0
10
55.7809076
20
-92.332673
40
0.4
50
235.2071662
51
10.0000008
0
ARC
8
0
10
61.8606393
20
-98.59457
40
0.4
50
279.9999994
51
280.0000008
0
ARC
8
0
10
80.9700453
20
-96.0374074
40
0.4
50
99.9999994
51
100.0000008
0
ARC
8
0
10
90.5189902
20
-104.122001
40
0.4
50
280.0000008
51
280.000001
0
ARC
8
0
10
103.9715996
20
-102.5622842
40
0.4
50
100
51
100.0000008
0
ARC
8
0
10
137.7660613
20
-106.3623616
40
0.4
50
75.0000003
51
75.0000021
0
ARC
8
0
10
141.2873033
20
-107.8209078
40
0.4
50
59.9999999
51
60
0
ARC
8
0
10
178.8141007
20
-112.571165
40
0.4
50
44.9479685
51
44.9479716
0
ENDSEC
0
EOF