0
SECTION
2
HEADER
9
$INSUNITS
70
4
0
ENDSEC
0
SECTION
2
TABLES
0
TABLE
2
LTYPE
0
LTYPE
72
65
70
64
2
CONTINUOUS
3
______
73
0
40
0
0
ENDTAB
0
TABLE
2
LAYER
0
ENDTAB
0
ENDSEC
0
SECTION
2
ENTITIES
0
LINE
8
0
10
166.7316205
20
-96.8425407
11
166.7316205
21
-41.9845974
0
LINE
8
0
10
149.0571205
20
-39.4845974
11
164.2316205
21
-39.4845974
0
LINE
8
0
10
41.250338
20
-94.0037666
11
54.0528387
21
-91.7463403
0
LINE
8
0
10
32.9448838
20
-61.2981214
11
38.3541982
21
-91.9758677
0
LINE
8
0
10
47.7752835
20
-56.1445552
11
34.9727828
21
-58.4019816
0
LINE
8
0
10
60.452887
20
-99.2489653
11
82.2905114
21
-95.3984029
0
LINE
8
0
10
56.0355892
20
-88.5941506
11
57.5567472
21
-97.2210664
0
LINE
8
0
10
51.2233128
20
-46.9054485
11
68.2336217
21
-43.906072
0
LINE
8
0
10
49.1954138
20
-49.8015883
11
50.846808
21
-59.16711
0
LINE
8
0
10
72.0525423
20
-30.5874391
11
88.0805117
21
-29.4666543
0
LINE
8
0
10
69.7330234
20
-33.2557405
11
70.2934114
21
-41.2696614
0
LINE
8
0
10
90.4061205
20
-26.9727442
11
90.4061205
21
-22.2590974
0
LINE
8
0
10
110.5571205
20
-25.7590974
11
110.5571205
21
-22.2590974
0
LINE
8
0
10
108.0571205
20
-19.7590974
11
92.9061205
21
-19.7590974
0
LINE
8
0
10
113.0571205
20
-28.2590974
11
144.0571205
21
-28.2590974
0
LINE
8
0
10
146.5571205
20
-36.9845974
11
146.5571205
21
-30.7590974
0
LINE
8
0
10
89.0212378
20
-104.7763963
11
103.8121403
21
-102.1683611
0
LINE
8
0
10
85.1866513
20
-97.4263018
11
86.125098
21
-102.7484974
0
LINE
8
0
10
106.416863
20
-101.9404774
11
120.7440586
21
-101.9404774
0
LINE
8
0
10
124.6263437
20
-102.4515899
11
137.779589
21
-105.9759913
0
LINE
8
0
10
141.3973033
20
-107.4744976
11
153.9192691
21
-114.7040578
0
LINE
8
0
10
156.2967818
20
-116.6668975
11
166.5209234
21
-126.8910391
0
LINE
8
0
10
170.0564574
20
-126.8910391
11
180.06433
21
-116.8831665
0
LINE
8
0
10
169.3252275
20
-102.5890059
11
180.0659346
21
-113.3492386
0
ARC
8
0
10
106.416863
20
-116.9404774
40
15
50
90
51
100.0000004
0
ARC
8
0
10
120.7440586
20
-116.9404774
40
15
50
75.0000021
51
90
0
ARC
8
0
10
133.8973033
20
-120.4648787
40
15
50
60.0000001
51
75
0
ARC
8
0
10
145.6901801
20
-127.2734992
40
15
50
45
51
49.1682097
0
ARC
8
0
10
176.7316205
20
-95.8757258
40
10
50
196.0885425
51
221.2705848
0
ARC
8
0
10
164.2316205
20
-41.9845974
40
2.5
50
0
51
90
0
ARC
8
0
10
149.0571205
20
-36.9845974
40
2.5
50
180
51
270
0
ARC
8
0
10
144.0571205
20
-30.7590974
40
2.5
50
0
51
90
0
ARC
8
0
10
113.0571205
20
-25.7590974
40
2.5
50
180
51
270
0
ARC
8
0
10
108.0571205
20
-22.2590974
40
2.5
50
0
51
90
0
ARC
8
0
10
92.9061205
20
-22.2590974
40
2.5
50
90
51
180
0
ARC
8
0
10
87.9061205
20
-26.9727442
40
2.5
50
274.0000013
51
0
0
ARC
8
0
10
72.2269335
20
-33.0813492
40
2.5
50
94.0000013
51
184.0000013
0
ARC
8
0
10
67.7995013
20
-41.4440526
40
2.5
50
280.0000008
51
4.0000013
0
ARC
8
0
10
51.6574332
20
-49.3674678
40
2.5
50
100.0000008
51
190.0000006
0
ARC
8
0
10
47.341163
20
-53.6825358
40
2.5
50
280.0000008
51
319.9662126
0
ARC
8
0
10
35.4069032
20
-60.864001
40
2.5
50
100.0000008
51
190.0000006
0
ARC
8
0
10
40.8162175
20
-91.5417472
40
2.5
50
190.0000008
51
280.0000006
0
ARC
8
0
10
54.4869592
20
-94.2083597
40
2.5
50
60.0337885
51
100.0000006
0
ARC
8
0
10
60.0187666
20
-96.786946
40
2.5
50
190.0000008
51
280.0000006
0
ARC
8
0
10
82.7246319
20
-97.8604223
40
2.5
50
10.0000008
51
100.0000006
0
ARC
8
0
10
88.5871173
20
-102.3143769
40
2.5
50
190.0000008
51
280.0000006
0
ARC
8
0
10
104.2462607
20
-104.6303805
40
2.5
50
100.0000004
51
100.0000008
0
ARC
8
0
10
137.1325413
20
-108.3908059
40
2.5
50
75.0000002
51
75.0000021
0
ARC
8
0
10
168.2886904
20
-125.1232721
40
2.5
50
225
51
315
0
ARC
8
0
10
178.296563
20
-115.1153995
40
2.5
50
315
51
44.9479679
0
ARC
8
0
10
171.0945989
20
-100.822845
40
2.5
50
221.2705848
51
224.9479716
0
LINE
8
0
10
49.6754397
20
-55.4033357
11
50.3544041
21
-59.2539341
0
LINE
8
0
10
54.0843669
20
-80.4076047
11
54.7652414
21
-84.2690359
0
LINE
8
0
10
55.5431852
20
-88.6809747
11
56.0919134
21
-91.792967
0
LINE
8
0
10
51.1323479
20
-63.6658729
11
51.8132224
21
-67.5273041
0
LINE
8
0
10
52.5911663
20
-71.9392429
11
53.3064231
21
-75.9956659
0
ARC
8
0
10
155.1692689
20
-112.5389941
40
3
50
278.616923
51
329.9999999
0
LINE
8
0
10
157.7673451
20
-114.0389941
11
157.8973451
21
-113.8138275
0
LINE
8
0
10
164.3378451
20
-102.6585543
11
166.6848282
21
-98.5934604
0
LINE
8
0
10
160.1373451
20
-109.9340337
11
162.0978451
21
-106.5383481
0
LINE
8
0
10
54.5767708
20
-80.3207806
11
55.2576453
21
-84.1822118
0
LINE
8
0
10
51.6247518
20
-63.5790488
11
52.3056263
21
-67.44048
0
LINE
8
0
10
53.0835702
20
-71.8524188
11
53.798827
21
-75.9088418
0
LINE
8
0
10
157.3343324
20
-113.7889941
11
157.4643324
21
-113.5638275
0
LINE
8
0
10
163.9048324
20
-102.4085543
11
166.396684
21
-98.0925407
0
LINE
8
0
10
159.7043324
20
-109.6840337
11
161.6648324
21
-106.2883481
0
ARC
8
0
10
155.1692689
20
-112.5389941
40
2.5
50
240.0000055
51
329.9999999
0
ARC
8
0
10
164.2316205
20
-96.8425407
40
2.5
50
330.0162055
51
0
0
LINE
8
0
10
54.2790453
20
-80.1295752
11
54.2987414
21
-80.1261023
0
LINE
8
0
10
53.6041486
20
-76.1868712
11
53.5844525
21
-76.1903442
0
LINE
8
0
10
55.7378636
20
-88.4029452
11
55.7575597
21
-88.3994722
0
LINE
8
0
10
55.062967
20
-84.4602412
11
55.0432709
21
-84.4637142
0
LINE
8
0
10
51.3270263
20
-63.3878434
11
51.3467224
21
-63.3843705
0
LINE
8
0
10
50.6521297
20
-59.4451394
11
50.6324336
21
-59.4486124
0
LINE
8
0
10
52.7858446
20
-71.6612134
11
52.8055407
21
-71.6577404
0
LINE
8
0
10
52.110948
20
-67.7185094
11
52.0912519
21
-67.7219824
0
LINE
8
0
10
161.9926785
20
-106.200502
11
162.009999
21
-106.210502
0
LINE
8
0
10
164.009999
20
-102.7464004
11
163.9926785
21
-102.7364004
0
LINE
8
0
10
157.7921785
20
-113.4759814
11
157.809499
21
-113.4859814
0
LINE
8
0
10
159.809499
20
-110.0218798
11
159.7921785
21
-110.0118798
0
ARC
8
0
10
49.4317677
20
-49.7599127
40
0.24
50
190.0000006
51
190.0000008
0
ARC
8
0
10
50.6104541
20
-59.2087855
40
0.24
50
280.0000018
51
10.0000008
0
ARC
8
0
10
50.590758
20
-59.2122585
40
0.24
50
190.0000008
51
280.0000018
0
ARC
8
0
10
49.4390858
20
-55.4450113
40
0.24
50
10.0000008
51
139.9662126
0
ARC
8
0
10
33.1812377
20
-61.2564459
40
0.24
50
190.0000006
51
190.0000008
0
ARC
8
0
10
41.2086624
20
-93.7674127
40
0.24
50
280.0000006
51
280.0000008
0
ARC
8
0
10
54.0945143
20
-91.9826942
40
0.24
50
100.0000006
51
100.0000008
0
ARC
8
0
10
55.8555596
20
-91.8346426
40
0.24
50
240.0337885
51
10.0000008
0
ARC
8
0
10
55.7795391
20
-88.6392991
40
0.24
50
100.0000008
51
190.0000008
0
ARC
8
0
10
55.7992352
20
-88.6358261
40
0.24
50
10.0000008
51
100.0000008
0
ARC
8
0
10
60.4112115
20
-99.0126115
40
0.24
50
280.0000006
51
280.0000008
0
ARC
8
0
10
82.332187
20
-95.6347568
40
0.24
50
100.0000006
51
100.0000008
0
ARC
8
0
10
88.9795622
20
-104.5400424
40
0.24
50
280.0000006
51
280.0000008
0
ARC
8
0
10
103.8538158
20
-102.404715
40
0.24
50
100.0000004
51
100.0000008
0
ARC
8
0
10
137.7174724
20
-106.2078135
40
0.24
50
75
51
75.0000021
0
ARC
8
0
10
154.0392691
20
-114.4962116
40
0.24
50
240.0000049
51
240.0000055
0
ARC
8
0
10
157.6721785
20
-113.6838275
40
0.24
50
59.9999999
51
149.9999999
0
ARC
8
0
10
157.689499
20
-113.6938275
40
0.24
50
329.9999999
51
59.9999999
0
ARC
8
0
10
155.6547096
20
-115.7424215
40
0.24
50
98.616923
51
229.1682097
0
ARC
8
0
10
179.8960749
20
-113.5187901
40
0.24
50
44.9479679
51
44.9479716
0
ARC
8
0
10
166.8926743
20
-98.7134604
40
0.24
50
16.0885425
51
149.9999999
0
ARC
8
0
10
164.129999
20
-102.5385543
40
0.24
50
239.9999999
51
329.9999999
0
ARC
8
0
10
164.1126785
20
-102.5285543
40
0.24
50
149.9999999
51
239.9999999
0
ARC
8
0
10
53.542777
20
-75.9539903
40
0.24
50
190.0000008
51
280.0000018
0
ARC
8
0
10
53.5624731
20
-75.9505173
40
0.24
50
280.0000018
51
10.0000008
0
ARC
8
0
10
52.8472163
20
-71.8940943
40
0.24
50
10.0000008
51
100.0000008
0
ARC
8
0
10
52.8275202
20
-71.8975673
40
0.24
50
100.0000008
51
190.0000008
0
ARC
8
0
10
55.0015953
20
-84.2273603
40
0.24
50
190.0000008
51
280.0000008
0
ARC
8
0
10
55.0212914
20
-84.2238873
40
0.24
50
280.0000008
51
10.0000008
0
ARC
8
0
10
54.3404169
20
-80.3624562
40
0.24
50
10.0000008
51
99.9999952
0
ARC
8
0
10
54.3207208
20
-80.3659291
40
0.24
50
99.9999952
51
190.0000008
0
ARC
8
0
10
52.0495763
20
-67.4856285
40
0.24
50
190.0000008
51
280.0000008
0
ARC
8
0
10
52.0692724
20
-67.4821555
40
0.24
50
280.0000008
51
10.0000008
0
ARC
8
0
10
51.3883979
20
-63.6207244
40
0.24
50
10.0000008
51
99.9999952
0
ARC
8
0
10
51.3687018
20
-63.6241973
40
0.24
50
99.9999952
51
190.0000008
0
ARC
8
0
10
161.889999
20
-106.4183481
40
0.24
50
329.9999999
51
59.9999999
0
ARC
8
0
10
161.8726785
20
-106.4083481
40
0.24
50
59.9999999
51
149.9999999
0
ARC
8
0
10
159.9121785
20
-109.8040337
40
0.24
50
149.9999999
51
239.9999999
0
ARC
8
0
10
159.929499
20
-109.8140337
40
0.24
50
239.9999999
51
329.9999999
0
ENDSEC
0
EOF