0
SECTION
2
HEADER
9
$INSUNITS
70
4
0
ENDSEC
0
SECTION
2
TABLES
0
TABLE
2
LTYPE
0
LTYPE
72
65
70
64
2
CONTINUOUS
3
______
73
0
40
0
0
ENDTAB
0
TABLE
2
LAYER
0
ENDTAB
0
ENDSEC
0
SECTION
2
ENTITIES
0
LINE
8
0
10
40.0577065
20
-93.9245742
11
55.2052676
21
-91.7957233
0
ARC
8
0
10
55.0521772
20
-90.7064283
40
1.1
50
278.0077213
51
349.1601425
0
ARC
8
0
10
54.0700205
20
-90.5183637
40
2.1
50
349.1640965
51
367.9999997
0
LINE
8
0
10
56.1495834
20
-90.2261002
11
55.9857661
21
-89.0604796
0
ARC
8
0
10
56.3818733
20
-89.0048104
40
0.4
50
97.9999997
51
187.9999997
0
LINE
8
0
10
56.3262041
20
-88.6087032
11
56.6232846
21
-88.5669513
0
ARC
8
0
10
56.6789538
20
-88.9630585
40
0.4
50
7.9999997
51
97.9818849
0
LINE
8
0
10
57.075061
20
-88.9073892
11
57.3373585
21
-90.7737329
0
ARC
8
0
10
55.4558492
20
-91.0381618
40
1.9
50
329.5667954
51
367.9999997
0
ARC
8
0
10
58.04251
20
-92.5577624
40
1.1
50
149.5667954
51
187.9999997
0
LINE
8
0
10
56.9532151
20
-92.7108528
11
57.8231178
21
-98.9005325
0
ARC
8
0
10
58.9124127
20
-98.7474421
40
1.1
50
187.9999997
51
277.9999997
0
LINE
8
0
10
59.0655031
20
-99.836737
11
76.8903282
21
-97.3316211
0
ARC
8
0
10
76.7372378
20
-96.2423262
40
1.1
50
277.9999997
51
367.9999997
0
LINE
8
0
10
77.8265327
20
-96.0892358
11
77.2073779
21
-91.6837202
0
ARC
8
0
10
78.0986192
20
-91.5584644
40
0.9
50
94.0000013
51
187.9999997
0
LINE
8
0
10
78.0359794
20
-90.6606468
11
98.4292812
21
-89.2346084
0
ARC
8
0
10
98.4922031
20
-90.1324062
40
0.9
50
0
51
94.0000013
0
LINE
8
0
10
99.3922031
20
-90.1324062
11
99.3922031
21
-105.6806663
0
ARC
8
0
10
100.4922031
20
-105.6806663
40
1.1
50
180
51
270
0
LINE
8
0
10
100.4922031
20
-106.7806663
11
118.3347998
21
-106.7806663
0
ARC
8
0
10
118.3347998
20
-107.6806663
40
0.9
50
80.9999977
51
90
0
LINE
8
0
10
118.4755909
20
-106.7917468
11
135.9430492
21
-109.5583205
0
ARC
8
0
10
135.8022582
20
-110.4472399
40
0.9
50
71.9999994
51
80.9999977
0
LINE
8
0
10
136.0803735
20
-109.5912891
11
152.0451791
21
-114.7785688
0
ARC
8
0
10
151.7670638
20
-115.6345197
40
0.9
50
63.4082261
51
71.9999994
0
LINE
8
0
10
168.9321111
20
-123.2205878
11
152.1699314
21
-114.829723
0
ARC
8
0
10
169.4245049
20
-122.2369474
40
1.1
50
243.4082261
51
332.9999994
0
LINE
8
0
10
170.4046121
20
-122.7363369
11
178.1256737
21
-107.5829002
0
ARC
8
0
10
177.1455666
20
-107.0835106
40
1.1
50
332.9999994
51
422.9999994
0
LINE
8
0
10
169.3836116
20
-101.8940381
11
177.6449562
21
-106.1034034
0
ARC
8
0
10
169.7922031
20
-101.0921323
40
0.9
50
180
51
242.9999994
0
LINE
8
0
10
168.8922031
20
-101.0921323
11
168.8922031
21
-44.0306663
0
ARC
8
0
10
167.7922031
20
-44.0306663
40
1.1
50
0
51
90
0
LINE
8
0
10
167.7922031
20
-42.9306663
11
149.2922031
21
-42.9306663
0
ARC
8
0
10
149.2922031
20
-42.0306663
40
0.9
50
180
51
270
0
LINE
8
0
10
148.3922031
20
-42.0306663
11
148.3922031
21
-38.5306663
0
ARC
8
0
10
147.2922031
20
-38.5306663
40
1.1
50
0
51
90
0
LINE
8
0
10
147.2922031
20
-37.4306663
11
131.2922032
21
-37.4306663
0
ARC
8
0
10
131.2922032
20
-36.5306663
40
0.9
50
180
51
270
0
LINE
8
0
10
130.3922032
20
-36.5306663
11
130.3922032
21
-35.9806663
0
ARC
8
0
10
129.2922032
20
-35.9806663
40
1.1
50
0
51
90
0
LINE
8
0
10
129.2922032
20
-34.8806663
11
113.2922031
21
-34.8806663
0
ARC
8
0
10
113.2922031
20
-33.9806663
40
0.9
50
180
51
270
0
LINE
8
0
10
112.3922031
20
-33.9806663
11
112.3922031
21
-32.5806663
0
ARC
8
0
10
111.2922031
20
-32.5806663
40
1.1
50
0
51
90
0
LINE
8
0
10
111.2922031
20
-31.4806663
11
93.2922031
21
-31.4806663
0
ARC
8
0
10
93.2922031
20
-32.5806663
40
1.1
50
90
51
180
0
LINE
8
0
10
92.1922031
20
-35.5015747
11
92.1922031
21
-32.5806663
0
ARC
8
0
10
91.2922031
20
-35.5015747
40
0.9
50
274.0000013
51
360
0
LINE
8
0
10
72.1142745
20
-37.7448238
11
91.3548429
21
-36.3993923
0
ARC
8
0
10
72.1910066
20
-38.8421443
40
1.1
50
94.0077266
51
183.9922764
0
LINE
8
0
10
71.0936861
20
-38.9188764
11
71.416304
21
-43.5325287
0
ARC
8
0
10
70.5185062
20
-43.5954506
40
0.9
50
277.9999997
51
364.0000013
0
LINE
8
0
10
51.6614942
20
-47.1544757
11
70.643762
21
-44.4866919
0
ARC
8
0
10
51.8145846
20
-48.2437706
40
1.1
50
97.9999997
51
187.9999997
0
LINE
8
0
10
50.7252897
20
-48.396861
11
51.5951924
21
-54.5865407
0
ARC
8
0
10
52.6844873
20
-54.4334502
40
1.1
50
187.9999997
51
226.4332055
0
ARC
8
0
10
50.6168881
20
-56.6071644
40
1.9
50
8.0000019
51
46.4332055
0
LINE
8
0
10
52.4983974
20
-56.3427355
11
52.8302814
21
-58.7042131
0
ARC
8
0
10
52.4341742
20
-58.7598824
40
0.4
50
277.9999997
51
367.9818849
0
LINE
8
0
10
52.4898435
20
-59.1559896
11
52.192763
21
-59.1977415
0
ARC
8
0
10
52.1370937
20
-58.8016343
40
0.4
50
187.9999997
51
277.9818849
0
LINE
8
0
10
51.7409865
20
-58.8573036
11
51.5075827
21
-57.196549
0
ARC
8
0
10
49.4280198
20
-57.4888126
40
2.1
50
8.0000019
51
26.8398663
0
ARC
8
0
10
50.3202917
20
-57.0373141
40
1.1
50
26.8398663
51
97.9999997
0
LINE
8
0
10
50.1672013
20
-55.9480192
11
35.0196403
21
-58.0768701
0
ARC
8
0
10
35.1727307
20
-59.166165
40
1.1
50
98.0077264
51
187.9999997
0
LINE
8
0
10
34.0834358
20
-59.3192554
11
38.8153212
21
-92.9883697
0
ARC
8
0
10
39.9046161
20
-92.8352793
40
1.1
50
187.9999997
51
277.9999997
0
LINE
8
0
10
55.2899006
20
-84.1091394
11
54.8028144
21
-80.643341
0
ARC
8
0
10
55.198902
20
-80.5875318
40
0.4
50
97.9999997
51
187.9999997
0
LINE
8
0
10
55.1432327
20
-80.1914246
11
55.4403132
21
-80.1496727
0
ARC
8
0
10
55.4959824
20
-80.5457799
40
0.4
50
7.9999997
51
97.9818849
0
LINE
8
0
10
55.8920897
20
-80.4901106
11
56.3791759
21
-83.955909
0
ARC
8
0
10
55.9830883
20
-84.0117182
40
0.4
50
277.9999997
51
367.9999997
0
LINE
8
0
10
56.0387576
20
-84.4078254
11
55.7416771
21
-84.4495773
0
ARC
8
0
10
55.6860078
20
-84.0534701
40
0.4
50
187.9999997
51
277.9818849
0
LINE
8
0
10
52.9239579
20
-67.2745822
11
52.4368716
21
-63.8087838
0
ARC
8
0
10
52.8329592
20
-63.7529746
40
0.4
50
97.9999997
51
187.9999997
0
LINE
8
0
10
52.77729
20
-63.3568674
11
53.0743705
21
-63.3151155
0
ARC
8
0
10
53.1300397
20
-63.7112227
40
0.4
50
7.9999997
51
97.9818849
0
LINE
8
0
10
53.5261469
20
-63.6555534
11
54.0132332
21
-67.1213518
0
ARC
8
0
10
53.6171456
20
-67.177161
40
0.4
50
277.9999997
51
367.9999997
0
LINE
8
0
10
53.6728148
20
-67.5732682
11
53.3757343
21
-67.6150201
0
ARC
8
0
10
53.3200651
20
-67.2189129
40
0.4
50
187.9999997
51
277.9818849
0
LINE
8
0
10
54.1069293
20
-75.6918608
11
53.619843
21
-72.2260624
0
ARC
8
0
10
54.0159306
20
-72.1702532
40
0.4
50
97.9999997
51
187.9999997
0
LINE
8
0
10
53.9602613
20
-71.774146
11
54.2573418
21
-71.7323941
0
ARC
8
0
10
54.3130111
20
-72.1285013
40
0.4
50
7.9999997
51
97.9818849
0
LINE
8
0
10
54.7091183
20
-72.072832
11
55.1962045
21
-75.5386304
0
ARC
8
0
10
54.8001169
20
-75.5944396
40
0.4
50
277.9999997
51
367.9999997
0
LINE
8
0
10
54.8557862
20
-75.9905468
11
54.5587057
21
-76.0322987
0
ARC
8
0
10
54.5030365
20
-75.6361915
40
0.4
50
187.9999997
51
277.9818849
0
ENDSEC
0
EOF