0
SECTION
2
HEADER
9
$INSUNITS
70
4
0
ENDSEC
0
SECTION
2
TABLES
0
TABLE
2
LTYPE
0
LTYPE
72
65
70
64
2
CONTINUOUS
3
______
73
0
40
0
0
ENDTAB
0
TABLE
2
LAYER
0
ENDTAB
0
ENDSEC
0
SECTION
2
ENTITIES
0
LINE
8
0
10
41.250338
20
-94.0037666
11
54.0528387
21
-91.7463403
0
LINE
8
0
10
32.9448838
20
-61.2981214
11
38.3541982
21
-91.9758677
0
LINE
8
0
10
47.7752835
20
-56.1445552
11
34.9727828
21
-58.4019816
0
LINE
8
0
10
60.452887
20
-99.2489653
11
82.2905114
21
-95.3984029
0
LINE
8
0
10
56.9489785
20
-93.7742392
11
57.5567472
21
-97.2210664
0
LINE
8
0
10
51.2233128
20
-46.9054485
11
68.2336217
21
-43.906072
0
LINE
8
0
10
49.1954138
20
-49.8015883
11
49.8031824
21
-53.2484153
0
LINE
8
0
10
72.0525423
20
-30.5874391
11
88.0805117
21
-29.4666543
0
LINE
8
0
10
69.7330234
20
-33.2557405
11
70.2934114
21
-41.2696614
0
LINE
8
0
10
90.4061205
20
-26.9727442
11
90.4061205
21
-22.2590974
0
LINE
8
0
10
110.5571205
20
-25.7590974
11
110.5571205
21
-22.2590974
0
LINE
8
0
10
108.0571205
20
-19.7590974
11
92.9061205
21
-19.7590974
0
LINE
8
0
10
113.0571205
20
-28.2590974
11
144.0571205
21
-28.2590974
0
LINE
8
0
10
146.5571205
20
-86.8964736
11
146.5571205
21
-30.7590974
0
LINE
8
0
10
89.0212378
20
-104.7763963
11
103.8121403
21
-102.1683611
0
LINE
8
0
10
85.1866513
20
-97.4263018
11
86.125098
21
-102.7484974
0
LINE
8
0
10
106.416863
20
-101.9404774
11
120.7440586
21
-101.9404774
0
LINE
8
0
10
124.6263437
20
-102.4515899
11
137.7795889
21
-105.9759912
0
LINE
8
0
10
141.3973033
20
-107.4744976
11
153.1901801
21
-114.2831181
0
LINE
8
0
10
147.8071205
20
-89.0615371
11
166.438324
21
-99.8182674
0
LINE
8
0
10
156.2967818
20
-116.6668975
11
166.5209234
21
-126.8910391
0
LINE
8
0
10
170.0564574
20
-126.8910391
11
180.06433
21
-116.8831665
0
LINE
8
0
10
166.9576956
20
-100.2171701
11
180.0659347
21
-113.3492386
0
ARC
8
0
10
106.416863
20
-116.9404774
40
15
50
90
51
100.0000004
0
ARC
8
0
10
120.7440586
20
-116.9404774
40
15
50
75.0000021
51
90
0
ARC
8
0
10
133.8973033
20
-120.4648787
40
15
50
60.0000001
51
75.0000002
0
ARC
8
0
10
145.6901801
20
-127.2734992
40
15
50
45
51
59.9999999
0
ARC
8
0
10
54.4869592
20
-94.2083597
40
2.5
50
10.0000008
51
100.0000008
0
ARC
8
0
10
60.0187666
20
-96.786946
40
2.5
50
190.0000008
51
280.0000008
0
ARC
8
0
10
82.7246319
20
-97.8604223
40
2.5
50
10.0000008
51
100.0000008
0
ARC
8
0
10
88.5871173
20
-102.3143769
40
2.5
50
190.0000008
51
280.0000008
0
ARC
8
0
10
104.2462607
20
-104.6303805
40
2.5
50
100.0000004
51
100.0000008
0
ARC
8
0
10
137.1325413
20
-108.3908059
40
2.5
50
75.0000002
51
75.0000021
0
ARC
8
0
10
140.1473033
20
-109.6395611
40
2.5
50
59.9999999
51
60.0000001
0
ARC
8
0
10
168.2886904
20
-125.1232721
40
2.5
50
225
51
315
0
ARC
8
0
10
178.296563
20
-115.1153995
40
2.5
50
315
51
44.9479676
0
ARC
8
0
10
165.188324
20
-101.9833309
40
2.5
50
44.9479676
51
59.9999999
0
ARC
8
0
10
149.0571205
20
-86.8964736
40
2.5
50
180
51
239.9999999
0
ARC
8
0
10
144.0571205
20
-30.7590974
40
2.5
50
0
51
90
0
ARC
8
0
10
113.0571205
20
-25.7590974
40
2.5
50
180
51
270
0
ARC
8
0
10
108.0571205
20
-22.2590974
40
2.5
50
0
51
90
0
ARC
8
0
10
92.9061205
20
-22.2590974
40
2.5
50
90
51
180
0
ARC
8
0
10
87.9061205
20
-26.9727442
40
2.5
50
274.0000013
51
0
0
ARC
8
0
10
72.2269335
20
-33.0813492
40
2.5
50
94.0000013
51
184.0000013
0
ARC
8
0
10
67.7995013
20
-41.4440526
40
2.5
50
280.0000008
51
4.0000013
0
ARC
8
0
10
51.6574332
20
-49.3674678
40
2.5
50
100.0000008
51
190.0000008
0
ARC
8
0
10
47.341163
20
-53.6825358
40
2.5
50
280.0000008
51
10.0000008
0
ARC
8
0
10
35.4069032
20
-60.864001
40
2.5
50
100.0000008
51
190.0000008
0
ARC
8
0
10
40.8162175
20
-91.5417472
40
2.5
50
190.0000008
51
280.0000008
0
LINE
8
0
10
41.6971818
20
-91.2082021
11
54.795125
21
-88.8986813
0
LINE
8
0
10
54.9979149
20
-88.6090674
11
52.6883941
21
-75.5111242
0
LINE
8
0
10
52.3987802
20
-75.3083343
11
39.300837
21
-77.6178551
0
LINE
8
0
10
39.0980471
20
-77.907469
11
41.4075679
21
-91.0054122
0
LINE
8
0
10
38.7451628
20
-74.4664703
11
51.843106
21
-72.1569495
0
LINE
8
0
10
52.0458959
20
-71.8673356
11
49.7363751
21
-58.7693924
0
LINE
8
0
10
49.4467612
20
-58.5666025
11
36.348818
21
-60.8761233
0
LINE
8
0
10
36.1460281
20
-61.1657372
11
38.4555489
21
-74.2636804
0
LINE
8
0
10
60.8997308
20
-96.4534008
11
73.997674
21
-94.14388
0
LINE
8
0
10
74.2004639
20
-93.8542661
11
71.8909431
21
-80.7563229
0
LINE
8
0
10
71.6013292
20
-80.553533
11
58.503386
21
-82.8630538
0
LINE
8
0
10
58.3005961
20
-83.1526677
11
60.6101169
21
-96.2506109
0
LINE
8
0
10
57.9477118
20
-79.711669
11
71.045655
21
-77.4021482
0
LINE
8
0
10
71.2484449
20
-77.1125343
11
68.9389241
21
-64.0145911
0
LINE
8
0
10
68.6493102
20
-63.8118012
11
55.551367
21
-66.121322
0
LINE
8
0
10
55.3485771
20
-66.4109359
11
57.6580979
21
-79.5088791
0
LINE
8
0
10
54.9956928
20
-62.9699372
11
68.093636
21
-60.6604164
0
LINE
8
0
10
68.2964259
20
-60.3708025
11
65.9869051
21
-47.2728593
0
LINE
8
0
10
65.6972912
20
-47.0700694
11
52.599348
21
-49.3795902
0
LINE
8
0
10
52.3965581
20
-49.6692041
11
54.7060789
21
-62.7671473
0
LINE
8
0
10
76.4967808
20
-80.8754238
11
89.7643827
21
-79.9476627
0
LINE
8
0
10
89.9963346
20
-79.6808326
11
89.0685735
21
-66.4132307
0
LINE
8
0
10
88.8017434
20
-66.1812788
11
75.5341415
21
-67.1090399
0
LINE
8
0
10
75.3021896
20
-67.37587
11
76.2299507
21
-80.6434719
0
LINE
8
0
10
75.3109207
20
-63.9168349
11
88.5785226
21
-62.9890738
0
LINE
8
0
10
88.8104745
20
-62.7222437
11
87.8827134
21
-49.4546418
0
LINE
8
0
10
87.6158833
20
-49.2226899
11
74.3482814
21
-50.150451
0
LINE
8
0
10
74.1163295
20
-50.4172811
11
75.0440906
21
-63.684883
0
LINE
8
0
10
74.1250606
20
-46.958246
11
87.3926625
21
-46.0304849
0
LINE
8
0
10
87.6246144
20
-45.7636548
11
86.6968533
21
-32.4960529
0
LINE
8
0
10
86.4300232
20
-32.264101
11
73.1624213
21
-33.1918621
0
LINE
8
0
10
72.9304694
20
-33.4586922
11
73.8582305
21
-46.7262941
0
LINE
8
0
10
93.8316205
20
-70.2345974
11
107.1316205
21
-70.2345974
0
LINE
8
0
10
107.3816205
20
-69.9845974
11
107.3816205
21
-56.6845974
0
LINE
8
0
10
107.1316205
20
-56.4345974
11
93.8316205
21
-56.4345974
0
LINE
8
0
10
93.5816205
20
-56.6845974
11
93.5816205
21
-69.9845974
0
LINE
8
0
10
93.8316205
20
-53.2345974
11
107.1316205
21
-53.2345974
0
LINE
8
0
10
107.3816205
20
-52.9845974
11
107.3816205
21
-39.6845974
0
LINE
8
0
10
107.1316205
20
-39.4345974
11
93.8316205
21
-39.4345974
0
LINE
8
0
10
93.5816205
20
-39.6845974
11
93.5816205
21
-52.9845974
0
LINE
8
0
10
93.8316205
20
-36.2345974
11
107.1316205
21
-36.2345974
0
LINE
8
0
10
107.3816205
20
-35.9845974
11
107.3816205
21
-22.6845974
0
LINE
8
0
10
107.1316205
20
-22.4345974
11
93.8316205
21
-22.4345974
0
LINE
8
0
10
93.5816205
20
-22.6845974
11
93.5816205
21
-35.9845974
0
LINE
8
0
10
111.8316205
20
-78.7345974
11
125.1316205
21
-78.7345974
0
LINE
8
0
10
125.3816205
20
-78.4845974
11
125.3816205
21
-65.1845974
0
LINE
8
0
10
125.1316205
20
-64.9345974
11
111.8316205
21
-64.9345974
0
LINE
8
0
10
111.5816205
20
-65.1845974
11
111.5816205
21
-78.4845974
0
LINE
8
0
10
111.8316205
20
-61.7345974
11
125.1316205
21
-61.7345974
0
LINE
8
0
10
125.3816205
20
-61.4845974
11
125.3816205
21
-48.1845974
0
LINE
8
0
10
125.1316205
20
-47.9345974
11
111.8316205
21
-47.9345974
0
LINE
8
0
10
111.5816205
20
-48.1845974
11
111.5816205
21
-61.4845974
0
LINE
8
0
10
111.8316205
20
-44.7345974
11
125.1316205
21
-44.7345974
0
LINE
8
0
10
125.3816205
20
-44.4845974
11
125.3816205
21
-31.1845974
0
LINE
8
0
10
125.1316205
20
-30.9345974
11
111.8316205
21
-30.9345974
0
LINE
8
0
10
111.5816205
20
-31.1845974
11
111.5816205
21
-44.4845974
0
LINE
8
0
10
129.8316205
20
-81.2845974
11
143.1316205
21
-81.2845974
0
LINE
8
0
10
143.3816205
20
-81.0345974
11
143.3816205
21
-67.7345974
0
LINE
8
0
10
143.1316205
20
-67.4845974
11
129.8316205
21
-67.4845974
0
LINE
8
0
10
129.5816205
20
-67.7345974
11
129.5816205
21
-81.0345974
0
LINE
8
0
10
129.8316205
20
-64.2845974
11
143.1316205
21
-64.2845974
0
LINE
8
0
10
143.3816205
20
-64.0345974
11
143.3816205
21
-50.7345974
0
LINE
8
0
10
143.1316205
20
-50.4845974
11
129.8316205
21
-50.4845974
0
LINE
8
0
10
129.5816205
20
-50.7345974
11
129.5816205
21
-64.0345974
0
LINE
8
0
10
129.8316205
20
-47.2845974
11
143.1316205
21
-47.2845974
0
LINE
8
0
10
143.3816205
20
-47.0345974
11
143.3816205
21
-33.7345974
0
LINE
8
0
10
143.1316205
20
-33.4845974
11
129.8316205
21
-33.4845974
0
LINE
8
0
10
129.5816205
20
-33.7345974
11
129.5816205
21
-47.0345974
0
LINE
8
0
10
89.4680816
20
-101.9808318
11
102.5660248
21
-99.671311
0
LINE
8
0
10
102.7688147
20
-99.3816971
11
100.4592939
21
-86.2837539
0
LINE
8
0
10
100.16968
20
-86.080964
11
87.0717368
21
-88.3904848
0
LINE
8
0
10
86.8689469
20
-88.6800987
11
89.1784677
21
-101.7780419
0
LINE
8
0
10
107.3604389
20
-99.2649774
11
120.6604389
21
-99.2649774
0
LINE
8
0
10
120.9104389
20
-99.0149774
11
120.9104389
21
-85.7149774
0
LINE
8
0
10
120.6604389
20
-85.4649774
11
107.3604389
21
-85.4649774
0
LINE
8
0
10
107.1104389
20
-85.7149774
11
107.1104389
21
-99.0149774
0
LINE
8
0
10
125.544475
20
-99.927721
11
138.3912884
21
-103.3700142
0
LINE
8
0
10
138.6974747
20
-103.1932375
11
142.1397679
21
-90.3464241
0
LINE
8
0
10
141.9629912
20
-90.0402378
11
129.1161778
21
-86.5979446
0
LINE
8
0
10
128.8099915
20
-86.7747213
11
125.3676983
21
-99.6215347
0
LINE
8
0
10
142.9373745
20
-105.2742567
11
154.4555123
21
-111.9242567
0
LINE
8
0
10
154.7970187
20
-111.8327503
11
161.4470187
21
-100.3146125
0
LINE
8
0
10
161.3555123
20
-99.9731061
11
149.8373745
21
-93.3231061
0
LINE
8
0
10
149.4958681
20
-93.4146125
11
142.8458681
21
-104.9327503
0
LINE
8
0
10
158.3538401
20
-114.9402274
11
167.7583603
21
-124.3447476
0
LINE
8
0
10
168.1119137
20
-124.3447476
11
177.5164339
21
-114.9402274
0
LINE
8
0
10
177.5164339
20
-114.586674
11
168.1119137
21
-105.1821538
0
LINE
8
0
10
167.7583603
20
-105.1821538
11
158.3538401
21
-114.586674
0
ARC
8
0
10
167.935137
20
-124.1679709
40
0.25
50
225
51
315
0
ARC
8
0
10
177.3396572
20
-114.7634507
40
0.25
50
315
51
45
0
ARC
8
0
10
167.935137
20
-105.3589305
40
0.25
50
45
51
135
0
ARC
8
0
10
158.5306168
20
-114.7634507
40
0.25
50
135
51
225
0
ARC
8
0
10
154.5805123
20
-111.7077503
40
0.25
50
239.9999999
51
329.9999999
0
ARC
8
0
10
161.2305123
20
-100.1896125
40
0.25
50
329.9999999
51
59.9999999
0
ARC
8
0
10
149.7123745
20
-93.5396125
40
0.25
50
59.9999999
51
149.9999999
0
ARC
8
0
10
143.0623745
20
-105.0577503
40
0.25
50
149.9999999
51
239.9999999
0
ARC
8
0
10
89.7469436
20
-79.6982717
40
0.25
50
274.0000013
51
4.0000013
0
ARC
8
0
10
88.8191825
20
-66.4306698
40
0.25
50
4.0000013
51
94.0000013
0
ARC
8
0
10
75.5515806
20
-67.3584309
40
0.25
50
94.0000013
51
184.0000013
0
ARC
8
0
10
76.4793417
20
-80.6260328
40
0.25
50
184.0000013
51
274.0000013
0
ARC
8
0
10
88.5610835
20
-62.7396828
40
0.25
50
274.0000013
51
4.0000013
0
ARC
8
0
10
87.6333224
20
-49.4720809
40
0.25
50
4.0000013
51
94.0000013
0
ARC
8
0
10
74.3657205
20
-50.399842
40
0.25
50
94.0000013
51
184.0000013
0
ARC
8
0
10
75.2934816
20
-63.6674439
40
0.25
50
184.0000013
51
274.0000013
0
ARC
8
0
10
87.3752234
20
-45.7810939
40
0.25
50
274.0000013
51
4.0000013
0
ARC
8
0
10
86.4474623
20
-32.513492
40
0.25
50
4.0000013
51
94.0000013
0
ARC
8
0
10
73.1798604
20
-33.4412531
40
0.25
50
94.0000013
51
184.0000013
0
ARC
8
0
10
74.1076215
20
-46.708855
40
0.25
50
184.0000013
51
274.0000013
0
ARC
8
0
10
143.1316205
20
-47.0345974
40
0.25
50
270
51
0
0
ARC
8
0
10
143.1316205
20
-33.7345974
40
0.25
50
0
51
90
0
ARC
8
0
10
129.8316205
20
-33.7345974
40
0.25
50
90
51
180
0
ARC
8
0
10
129.8316205
20
-47.0345974
40
0.25
50
180
51
270
0
ARC
8
0
10
143.1316205
20
-81.0345974
40
0.25
50
270
51
0
0
ARC
8
0
10
143.1316205
20
-67.7345974
40
0.25
50
0
51
90
0
ARC
8
0
10
129.8316205
20
-67.7345974
40
0.25
50
90
51
180
0
ARC
8
0
10
129.8316205
20
-81.0345974
40
0.25
50
180
51
270
0
ARC
8
0
10
143.1316205
20
-64.0345974
40
0.25
50
270
51
0
0
ARC
8
0
10
143.1316205
20
-50.7345974
40
0.25
50
0
51
90
0
ARC
8
0
10
129.8316205
20
-50.7345974
40
0.25
50
90
51
180
0
ARC
8
0
10
129.8316205
20
-64.0345974
40
0.25
50
180
51
270
0
ARC
8
0
10
107.1316205
20
-52.9845974
40
0.25
50
270
51
0
0
ARC
8
0
10
107.1316205
20
-39.6845974
40
0.25
50
0
51
90
0
ARC
8
0
10
93.8316205
20
-39.6845974
40
0.25
50
90
51
180
0
ARC
8
0
10
93.8316205
20
-52.9845974
40
0.25
50
180
51
270
0
ARC
8
0
10
125.1316205
20
-61.4845974
40
0.25
50
270
51
0
0
ARC
8
0
10
125.1316205
20
-48.1845974
40
0.25
50
0
51
90
0
ARC
8
0
10
111.8316205
20
-48.1845974
40
0.25
50
90
51
180
0
ARC
8
0
10
111.8316205
20
-61.4845974
40
0.25
50
180
51
270
0
ARC
8
0
10
107.1316205
20
-69.9845974
40
0.25
50
270
51
0
0
ARC
8
0
10
107.1316205
20
-56.6845974
40
0.25
50
0
51
90
0
ARC
8
0
10
93.8316205
20
-56.6845974
40
0.25
50
90
51
180
0
ARC
8
0
10
93.8316205
20
-69.9845974
40
0.25
50
180
51
270
0
ARC
8
0
10
107.1316205
20
-35.9845974
40
0.25
50
270
51
0
0
ARC
8
0
10
107.1316205
20
-22.6845974
40
0.25
50
0
51
90
0
ARC
8
0
10
93.8316205
20
-22.6845974
40
0.25
50
90
51
180
0
ARC
8
0
10
93.8316205
20
-35.9845974
40
0.25
50
180
51
270
0
ARC
8
0
10
125.1316205
20
-78.4845974
40
0.25
50
270
51
0
0
ARC
8
0
10
125.1316205
20
-65.1845974
40
0.25
50
0
51
90
0
ARC
8
0
10
111.8316205
20
-65.1845974
40
0.25
50
90
51
180
0
ARC
8
0
10
111.8316205
20
-78.4845974
40
0.25
50
180
51
270
0
ARC
8
0
10
125.1316205
20
-44.4845974
40
0.25
50
270
51
0
0
ARC
8
0
10
125.1316205
20
-31.1845974
40
0.25
50
0
51
90
0
ARC
8
0
10
111.8316205
20
-31.1845974
40
0.25
50
90
51
180
0
ARC
8
0
10
111.8316205
20
-44.4845974
40
0.25
50
180
51
270
0
ARC
8
0
10
120.6604389
20
-99.0149774
40
0.25
50
270
51
0
0
ARC
8
0
10
120.6604389
20
-85.7149774
40
0.25
50
0
51
90
0
ARC
8
0
10
107.3604389
20
-85.7149774
40
0.25
50
90
51
180
0
ARC
8
0
10
107.3604389
20
-99.0149774
40
0.25
50
180
51
270
0
ARC
8
0
10
71.002243
20
-77.1559463
40
0.25
50
280.0000008
51
10.0000008
0
ARC
8
0
10
68.6927222
20
-64.0580031
40
0.25
50
10.0000008
51
100.0000008
0
ARC
8
0
10
55.594779
20
-66.3675239
40
0.25
50
100.0000008
51
190.0000008
0
ARC
8
0
10
57.9042998
20
-79.4654671
40
0.25
50
190.0000008
51
280.0000008
0
ARC
8
0
10
54.751713
20
-88.6524794
40
0.25
50
280.0000008
51
10.0000008
0
ARC
8
0
10
52.4421922
20
-75.5545362
40
0.25
50
10.0000008
51
100.0000008
0
ARC
8
0
10
39.344249
20
-77.864057
40
0.25
50
100.0000008
51
190.0000008
0
ARC
8
0
10
41.6537698
20
-90.9620002
40
0.25
50
190.0000008
51
280.0000008
0
ARC
8
0
10
73.954262
20
-93.8976781
40
0.25
50
280.0000008
51
10.0000008
0
ARC
8
0
10
71.6447412
20
-80.7997349
40
0.25
50
10.0000008
51
100.0000008
0
ARC
8
0
10
58.546798
20
-83.1092557
40
0.25
50
100.0000008
51
190.0000008
0
ARC
8
0
10
60.8563188
20
-96.2071989
40
0.25
50
190.0000008
51
280.0000008
0
ARC
8
0
10
102.5226128
20
-99.4251091
40
0.25
50
280.0000008
51
10.0000008
0
ARC
8
0
10
100.213092
20
-86.3271659
40
0.25
50
10.0000008
51
100.0000008
0
ARC
8
0
10
87.1151488
20
-88.6366867
40
0.25
50
100.0000008
51
190.0000008
0
ARC
8
0
10
89.4246696
20
-101.7346299
40
0.25
50
190.0000008
51
280.0000008
0
ARC
8
0
10
51.799694
20
-71.9107476
40
0.25
50
280.0000008
51
10.0000008
0
ARC
8
0
10
49.4901732
20
-58.8128044
40
0.25
50
10.0000008
51
100.0000008
0
ARC
8
0
10
36.39223
20
-61.1223252
40
0.25
50
100.0000008
51
190.0000008
0
ARC
8
0
10
38.7017508
20
-74.2202684
40
0.25
50
190.0000008
51
280.0000008
0
ARC
8
0
10
68.050224
20
-60.4142145
40
0.25
50
280.0000008
51
10.0000008
0
ARC
8
0
10
65.7407032
20
-47.3162713
40
0.25
50
10.0000008
51
100.0000008
0
ARC
8
0
10
52.64276
20
-49.6257921
40
0.25
50
100.0000008
51
190.0000008
0
ARC
8
0
10
54.9522808
20
-62.7237353
40
0.25
50
190.0000008
51
280.0000008
0
ARC
8
0
10
138.4559932
20
-103.1285327
40
0.25
50
255.0000021
51
345.0000021
0
ARC
8
0
10
141.8982864
20
-90.2817193
40
0.25
50
345.0000021
51
75.0000021
0
ARC
8
0
10
129.051473
20
-86.8394261
40
0.25
50
75.0000021
51
165.0000021
0
ARC
8
0
10
125.6091798
20
-99.6862395
40
0.25
50
165.0000021
51
255.0000021
0
CIRCLE
8
0
10
90.4816205
20
-47.3345974
40
1.1
0
CIRCLE
8
0
10
127.1216205
20
-46.3345974
40
1.1
0
CIRCLE
8
0
10
160.5566974
20
-108.0566941
40
1.1
0
CIRCLE
8
0
10
124.0104389
20
-92.8649774
40
1.1
0
CIRCLE
8
0
10
73.5558933
20
-78.6000269
40
1.1
0
ENDSEC
0
EOF