0
SECTION
2
HEADER
9
$INSUNITS
70
4
0
ENDSEC
0
SECTION
2
TABLES
0
TABLE
2
LTYPE
0
LTYPE
72
65
70
64
2
CONTINUOUS
3
______
73
0
40
0
0
ENDTAB
0
TABLE
2
LAYER
0
ENDTAB
0
ENDSEC
0
SECTION
2
ENTITIES
0
LINE
8
0
10
61.9300987
20
-98.9884931
11
80.900586
21
-95.6434843
0
LINE
8
0
10
49.4558861
20
-51.2788
11
57.2962749
21
-95.7438548
0
LINE
8
0
10
52.7005243
20
-46.6449762
11
66.9035344
21
-44.1406023
0
LINE
8
0
10
73.5488883
20
-30.4828044
11
86.6851465
21
-29.5642278
0
LINE
8
0
10
69.8376581
20
-34.7520866
11
70.1991978
21
-39.9223453
0
LINE
8
0
10
90.4061205
20
-25.5739716
11
90.4061205
21
-23.7590974
0
LINE
8
0
10
110.5571205
20
-24.2590974
11
110.5571205
21
-23.7590974
0
LINE
8
0
10
106.5571205
20
-19.7590974
11
94.4061205
21
-19.7590974
0
LINE
8
0
10
114.5571205
20
-28.2590974
11
142.5571205
21
-28.2590974
0
LINE
8
0
10
146.5571205
20
-85.9784867
11
146.5571205
21
-32.2590974
0
LINE
8
0
10
90.5884495
20
-104.5159241
11
103.9021402
21
-102.1683611
0
LINE
8
0
10
85.5344097
20
-98.8881225
11
85.9546257
21
-101.2712858
0
LINE
8
0
10
106.506863
20
-101.9404774
11
120.8340586
21
-101.9404774
0
LINE
8
0
10
124.7163437
20
-102.4515899
11
137.8695885
21
-105.9759911
0
LINE
8
0
10
141.4873034
20
-107.4744976
11
153.2801801
21
-114.2831181
0
LINE
8
0
10
148.5571205
20
-89.4425883
11
166.3567024
21
-99.7191817
0
LINE
8
0
10
156.3867818
20
-116.6668975
11
165.5502633
21
-125.830379
0
LINE
8
0
10
171.2071175
20
-125.830379
11
179.0946327
21
-117.9428638
0
LINE
8
0
10
167.187697
20
-100.3574259
11
179.0972001
21
-112.2885794
0
ARC
8
0
10
106.506863
20
-116.9404774
40
15
50
90
51
100.0000008
0
ARC
8
0
10
120.8340586
20
-116.9404774
40
15
50
75.0000021
51
90
0
ARC
8
0
10
133.9873033
20
-120.4648787
40
15
50
59.9999999
51
75.0000021
0
ARC
8
0
10
145.7801801
20
-127.2734992
40
15
50
45
51
59.9999999
0
ARC
8
0
10
81.5951787
20
-99.5827153
40
4
50
10.0000008
51
100.0000008
0
ARC
8
0
10
89.8938567
20
-100.5766931
40
4
50
190.0000008
51
280.0000008
0
ARC
8
0
10
168.3786904
20
-123.0019519
40
4
50
225
51
315
0
ARC
8
0
10
176.2662056
20
-115.1144367
40
4
50
315
51
44.9479676
0
ARC
8
0
10
164.3567024
20
-103.1832833
40
4
50
44.9479676
51
59.9999999
0
ARC
8
0
10
150.5571205
20
-85.9784867
40
4
50
180
51
239.9999999
0
ARC
8
0
10
142.5571205
20
-32.2590974
40
4
50
0
51
90
0
ARC
8
0
10
114.5571205
20
-24.2590974
40
4
50
180
51
270
0
ARC
8
0
10
106.5571205
20
-23.7590974
40
4
50
0
51
90
0
ARC
8
0
10
94.4061205
20
-23.7590974
40
4
50
90
51
180
0
ARC
8
0
10
86.4061205
20
-25.5739716
40
4
50
274.0000013
51
0
0
ARC
8
0
10
73.8279143
20
-34.4730606
40
4
50
94.0000013
51
184.0000013
0
ARC
8
0
10
66.2089416
20
-40.2013713
40
4
50
280.0000008
51
4.0000013
0
ARC
8
0
10
53.3951171
20
-50.5842072
40
4
50
100.0000008
51
190.0000008
0
ARC
8
0
10
61.2355059
20
-95.0492621
40
4
50
190.0000008
51
280.0000008
0
LINE
8
0
10
60.6535289
20
-96.4968128
11
74.2438759
21
-94.100468
0
LINE
8
0
10
74.2438759
20
-94.100468
11
71.8475311
21
-80.510121
0
LINE
8
0
10
71.8475311
20
-80.510121
11
58.2571841
21
-82.9064658
0
LINE
8
0
10
58.2571841
20
-82.9064658
11
60.6535289
21
-96.4968128
0
LINE
8
0
10
57.7015099
20
-79.755081
11
71.2918569
21
-77.3587362
0
LINE
8
0
10
71.2918569
20
-77.3587362
11
68.8955121
21
-63.7683892
0
LINE
8
0
10
68.8955121
20
-63.7683892
11
55.3051651
21
-66.164734
0
LINE
8
0
10
55.3051651
20
-66.164734
11
57.7015099
21
-79.755081
0
LINE
8
0
10
54.7494909
20
-63.0133492
11
68.3398379
21
-60.6170044
0
LINE
8
0
10
68.3398379
20
-60.6170044
11
65.9434931
21
-47.0266574
0
LINE
8
0
10
65.9434931
20
-47.0266574
11
52.3531461
21
-49.4230022
0
LINE
8
0
10
52.3531461
20
-49.4230022
11
54.7494909
21
-63.0133492
0
LINE
8
0
10
76.2473898
20
-80.8928629
11
90.0137737
21
-79.9302236
0
LINE
8
0
10
90.0137737
20
-79.9302236
11
89.0511344
21
-66.1638397
0
LINE
8
0
10
89.0511344
20
-66.1638397
11
75.2847505
21
-67.126479
0
LINE
8
0
10
75.2847505
20
-67.126479
11
76.2473898
21
-80.8928629
0
LINE
8
0
10
75.0615297
20
-63.934274
11
88.8279136
21
-62.9716347
0
LINE
8
0
10
88.8279136
20
-62.9716347
11
87.8652743
21
-49.2052508
0
LINE
8
0
10
87.8652743
20
-49.2052508
11
74.0988904
21
-50.1678901
0
LINE
8
0
10
74.0988904
20
-50.1678901
11
75.0615297
21
-63.934274
0
LINE
8
0
10
73.8756696
20
-46.9756851
11
87.6420535
21
-46.0130458
0
LINE
8
0
10
87.6420535
20
-46.0130458
11
86.6794142
21
-32.2466619
0
LINE
8
0
10
86.6794142
20
-32.2466619
11
72.9130303
21
-33.2093012
0
LINE
8
0
10
72.9130303
20
-33.2093012
11
73.8756696
21
-46.9756851
0
LINE
8
0
10
93.5816205
20
-70.2345974
11
107.3816205
21
-70.2345974
0
LINE
8
0
10
107.3816205
20
-70.2345974
11
107.3816205
21
-56.4345974
0
LINE
8
0
10
107.3816205
20
-56.4345974
11
93.5816205
21
-56.4345974
0
LINE
8
0
10
93.5816205
20
-56.4345974
11
93.5816205
21
-70.2345974
0
LINE
8
0
10
93.5816205
20
-53.2345974
11
107.3816205
21
-53.2345974
0
LINE
8
0
10
107.3816205
20
-53.2345974
11
107.3816205
21
-39.4345974
0
LINE
8
0
10
107.3816205
20
-39.4345974
11
93.5816205
21
-39.4345974
0
LINE
8
0
10
93.5816205
20
-39.4345974
11
93.5816205
21
-53.2345974
0
LINE
8
0
10
93.5816205
20
-36.2345974
11
107.3816205
21
-36.2345974
0
LINE
8
0
10
107.3816205
20
-36.2345974
11
107.3816205
21
-22.4345974
0
LINE
8
0
10
107.3816205
20
-22.4345974
11
93.5816205
21
-22.4345974
0
LINE
8
0
10
93.5816205
20
-22.4345974
11
93.5816205
21
-36.2345974
0
LINE
8
0
10
111.5816205
20
-78.7345974
11
125.3816205
21
-78.7345974
0
LINE
8
0
10
125.3816205
20
-78.7345974
11
125.3816205
21
-64.9345974
0
LINE
8
0
10
125.3816205
20
-64.9345974
11
111.5816205
21
-64.9345974
0
LINE
8
0
10
111.5816205
20
-64.9345974
11
111.5816205
21
-78.7345974
0
LINE
8
0
10
111.5816205
20
-61.7345974
11
125.3816205
21
-61.7345974
0
LINE
8
0
10
125.3816205
20
-61.7345974
11
125.3816205
21
-47.9345974
0
LINE
8
0
10
125.3816205
20
-47.9345974
11
111.5816205
21
-47.9345974
0
LINE
8
0
10
111.5816205
20
-47.9345974
11
111.5816205
21
-61.7345974
0
LINE
8
0
10
111.5816205
20
-44.7345974
11
125.3816205
21
-44.7345974
0
LINE
8
0
10
125.3816205
20
-44.7345974
11
125.3816205
21
-30.9345974
0
LINE
8
0
10
125.3816205
20
-30.9345974
11
111.5816205
21
-30.9345974
0
LINE
8
0
10
111.5816205
20
-30.9345974
11
111.5816205
21
-44.7345974
0
LINE
8
0
10
129.5816205
20
-81.2845974
11
143.3816205
21
-81.2845974
0
LINE
8
0
10
143.3816205
20
-81.2845974
11
143.3816205
21
-67.4845974
0
LINE
8
0
10
143.3816205
20
-67.4845974
11
129.5816205
21
-67.4845974
0
LINE
8
0
10
129.5816205
20
-67.4845974
11
129.5816205
21
-81.2845974
0
LINE
8
0
10
129.5816205
20
-64.2845974
11
143.3816205
21
-64.2845974
0
LINE
8
0
10
143.3816205
20
-64.2845974
11
143.3816205
21
-50.4845974
0
LINE
8
0
10
143.3816205
20
-50.4845974
11
129.5816205
21
-50.4845974
0
LINE
8
0
10
129.5816205
20
-50.4845974
11
129.5816205
21
-64.2845974
0
LINE
8
0
10
129.5816205
20
-47.2845974
11
143.3816205
21
-47.2845974
0
LINE
8
0
10
143.3816205
20
-47.2845974
11
143.3816205
21
-33.4845974
0
LINE
8
0
10
143.3816205
20
-33.4845974
11
129.5816205
21
-33.4845974
0
LINE
8
0
10
129.5816205
20
-33.4845974
11
129.5816205
21
-47.2845974
0
LINE
8
0
10
89.3118797
20
-102.0242438
11
102.9022267
21
-99.627899
0
LINE
8
0
10
102.9022267
20
-99.627899
11
100.5058819
21
-86.037552
0
LINE
8
0
10
100.5058819
20
-86.037552
11
86.9155349
21
-88.4338968
0
LINE
8
0
10
86.9155349
20
-88.4338968
11
89.3118797
21
-102.0242438
0
LINE
8
0
10
107.2004389
20
-99.2649774
11
121.0004389
21
-99.2649774
0
LINE
8
0
10
121.0004389
20
-99.2649774
11
121.0004389
21
-85.4649774
0
LINE
8
0
10
121.0004389
20
-85.4649774
11
107.2004389
21
-85.4649774
0
LINE
8
0
10
107.2004389
20
-85.4649774
11
107.2004389
21
-99.2649774
0
LINE
8
0
10
125.3929935
20
-99.8630162
11
138.7227699
21
-103.434719
0
LINE
8
0
10
138.7227699
20
-103.434719
11
142.2944727
21
-90.1049426
0
LINE
8
0
10
142.2944727
20
-90.1049426
11
128.9646963
21
-86.5332398
0
LINE
8
0
10
128.9646963
20
-86.5332398
11
125.3929935
21
-99.8630162
0
LINE
8
0
10
142.8108681
20
-105.1492567
11
154.7620187
21
-112.0492567
0
LINE
8
0
10
154.7620187
20
-112.0492567
11
161.6620187
21
-100.0981061
0
LINE
8
0
10
161.6620187
20
-100.0981061
11
149.7108681
21
-93.1981061
0
LINE
8
0
10
149.7108681
20
-93.1981061
11
142.8108681
21
-105.1492567
0
LINE
8
0
10
158.2670634
20
-114.7634507
11
168.025137
21
-124.5215243
0
LINE
8
0
10
168.025137
20
-124.5215243
11
177.7832106
21
-114.7634507
0
LINE
8
0
10
177.7832106
20
-114.7634507
11
168.025137
21
-105.0053771
0
LINE
8
0
10
168.025137
20
-105.0053771
11
158.2670634
21
-114.7634507
0
CIRCLE
8
0
10
90.4816205
20
-47.3345974
40
1.1
0
CIRCLE
8
0
10
127.1216205
20
-46.3345974
40
1.1
0
CIRCLE
8
0
10
143.3735818
20
-98.0551328
40
1.1
0
CIRCLE
8
0
10
104.4990997
20
-92.8475969
40
1.1
0
CIRCLE
8
0
10
73.5558933
20
-78.6000269
40
1.1
0
ENDSEC
0
EOF