%TF.GenerationSoftware,KiCad,Pcbnew,9.0.5*%
%TF.CreationDate,2025-10-26T23:57:31-07:00*%
%TF.ProjectId,temporal_topplate,74656d70-6f72-4616-9c5f-746f70706c61,1*%
%TF.SameCoordinates,Original*%
%TF.FileFunction,Profile,NP*%
%FSLAX46Y46*%
G04 Gerber Fmt 4.6, Leading zero omitted, Abs format (unit mm)*
G04 Created by KiCad (PCBNEW 9.0.5) date 2025-10-26 23:57:31*
%MOMM*%
%LPD*%
G01*
G04 APERTURE LIST*
%TA.AperFunction,Profile*%
%ADD10C,0.150000*%
%TD*%
G04 APERTURE END LIST*
D10*
X40043789Y-93825547D02*
X55888078Y-91598778D01*
X34182463Y-59305338D02*
X38914348Y-92974452D01*
X50877847Y-55949127D02*
X35033558Y-58175897D01*
X59051586Y-99737710D02*
X76876411Y-97232594D01*
X77727506Y-96103153D02*
X77108351Y-91697638D01*
X57017519Y-92449873D02*
X57922145Y-98886615D01*
X51675412Y-47253502D02*
X70657679Y-44585719D01*
X50824317Y-48382944D02*
X51728942Y-54819686D01*
X78028863Y-90560900D02*
X98422447Y-89134842D01*
X71193442Y-38911901D02*
X71516070Y-43525694D01*
X72121250Y-37844580D02*
X91361960Y-36499139D01*
X92292203Y-35501575D02*
X92292203Y-32580666D01*
X112292203Y-33980666D02*
X112292203Y-32580666D01*
X111292203Y-31580666D02*
X93292203Y-31580666D01*
X130292203Y-36530666D02*
X130292203Y-35980666D01*
X129292203Y-34980666D02*
X113292203Y-34980666D01*
X148292203Y-89948824D02*
X148292203Y-38530666D01*
X147292203Y-37530666D02*
X131292203Y-37530666D01*
X100492203Y-106680666D02*
X118334800Y-106680666D01*
X99492203Y-90132406D02*
X99492203Y-105680666D01*
X118491234Y-106692978D02*
X135958693Y-109459552D01*
X136111275Y-109496183D02*
X152076081Y-114683463D01*
X170315511Y-122690938D02*
X178036573Y-107537501D01*
X177599557Y-106192504D02*
X160690768Y-97577046D01*
X148798038Y-90818192D02*
X160650594Y-97555407D01*
X168976874Y-123131166D02*
X152214694Y-114740301D01*
X42751770Y-90819414D02*
X54436933Y-89177171D01*
X55288028Y-88047730D02*
X53645786Y-76362567D01*
X52516345Y-75511472D02*
X40831181Y-77153714D01*
X39980086Y-78283156D02*
X41622329Y-89968319D01*
X40385827Y-73984857D02*
X52070991Y-72342614D01*
X52922086Y-71213173D02*
X51279843Y-59528010D01*
X50150402Y-58676915D02*
X38465239Y-60319157D01*
X37614144Y-61448598D02*
X39256386Y-73133762D01*
X61759567Y-96731577D02*
X73444730Y-95089334D01*
X74295825Y-93959893D02*
X72653582Y-82274730D01*
X71524141Y-81423635D02*
X59838978Y-83065877D01*
X58987883Y-84195318D02*
X60630125Y-95880482D01*
X59393624Y-79897019D02*
X71078787Y-78254777D01*
X71929882Y-77125336D02*
X70287640Y-65440172D01*
X69158198Y-64589077D02*
X57473035Y-66231320D01*
X56621940Y-67360761D02*
X58264183Y-79045924D01*
X57027681Y-63062462D02*
X68712844Y-61420220D01*
X69563939Y-60290778D02*
X67921697Y-48605615D01*
X66792256Y-47754520D02*
X55107093Y-49396763D01*
X54255998Y-50526204D02*
X55898240Y-62211367D01*
X78729425Y-87905563D02*
X90500681Y-87082437D01*
X91428488Y-86015116D02*
X90605362Y-74243861D01*
X89538041Y-73316053D02*
X77766786Y-74139179D01*
X76838978Y-75206500D02*
X77662104Y-86977756D01*
X77543565Y-70946974D02*
X89314821Y-70123848D01*
X90242628Y-69056527D02*
X89419502Y-57285272D01*
X88352181Y-56357464D02*
X76580926Y-57180591D01*
X75653118Y-58247911D02*
X76476244Y-70019167D01*
X76357705Y-53988386D02*
X88128961Y-53165259D01*
X89056768Y-52097939D02*
X88233642Y-40326683D01*
X87166321Y-39398875D02*
X75395065Y-40222002D01*
X74467258Y-41289322D02*
X75290384Y-53060578D01*
X96392203Y-81980666D02*
X108192203Y-81980666D01*
X109192203Y-80980666D02*
X109192203Y-69180666D01*
X108192203Y-68180666D02*
X96392203Y-68180666D01*
X95392203Y-69180666D02*
X95392203Y-80980666D01*
X96392203Y-64980666D02*
X108192203Y-64980666D01*
X109192203Y-63980666D02*
X109192203Y-52180666D01*
X108192203Y-51180666D02*
X96392203Y-51180666D01*
X95392203Y-52180666D02*
X95392203Y-63980666D01*
X96392203Y-47980666D02*
X108192203Y-47980666D01*
X109192203Y-46980666D02*
X109192203Y-35180666D01*
X108192203Y-34180666D02*
X96392203Y-34180666D01*
X95392203Y-35180666D02*
X95392203Y-46980666D01*
X114392203Y-85380666D02*
X126192203Y-85380666D01*
X127192203Y-84380666D02*
X127192203Y-72580666D01*
X126192203Y-71580666D02*
X114392203Y-71580666D01*
X113392203Y-72580666D02*
X113392203Y-84380666D01*
X114392203Y-68380666D02*
X126192203Y-68380666D01*
X127192203Y-67380666D02*
X127192203Y-55580666D01*
X126192203Y-54580666D02*
X114392203Y-54580666D01*
X113392203Y-55580666D02*
X113392203Y-67380666D01*
X114392203Y-51380666D02*
X126192203Y-51380666D01*
X127192203Y-50380666D02*
X127192203Y-38580666D01*
X126192203Y-37580666D02*
X114392203Y-37580666D01*
X113392203Y-38580666D02*
X113392203Y-50380666D01*
X132392203Y-87930666D02*
X144192203Y-87930666D01*
X145192203Y-86930666D02*
X145192203Y-75130666D01*
X144192203Y-74130666D02*
X132392203Y-74130666D01*
X131392203Y-75130666D02*
X131392203Y-86930666D01*
X132392203Y-70930666D02*
X144192203Y-70930666D01*
X145192203Y-69930666D02*
X145192203Y-58130666D01*
X144192203Y-57130666D02*
X132392203Y-57130666D01*
X131392203Y-58130666D02*
X131392203Y-69930666D01*
X132392203Y-53930666D02*
X144192203Y-53930666D01*
X145192203Y-52930666D02*
X145192203Y-41130666D01*
X144192203Y-40130666D02*
X132392203Y-40130666D01*
X131392203Y-41130666D02*
X131392203Y-52930666D01*
X103592203Y-104080666D02*
X115392203Y-104080666D01*
X116392203Y-103080666D02*
X116392203Y-91280666D01*
X115392203Y-90280666D02*
X103592203Y-90280666D01*
X102592203Y-91280666D02*
X102592203Y-103080666D01*
X121804332Y-104585312D02*
X133459054Y-106431239D01*
X134603177Y-105599985D02*
X136449104Y-93945262D01*
X135617850Y-92801139D02*
X123963128Y-90955213D01*
X122819005Y-91786466D02*
X120973078Y-103441189D01*
X139713296Y-107932749D02*
X150935762Y-111579150D01*
X152195836Y-110937110D02*
X155842237Y-99714643D01*
X155200197Y-98454570D02*
X143977730Y-94808169D01*
X142717657Y-95450209D02*
X139071256Y-106672675D01*
X156878116Y-114040553D02*
X167391993Y-119397641D01*
X168736990Y-118960625D02*
X174094078Y-108446748D01*
X173657062Y-107101751D02*
X163143185Y-101744663D01*
X161798188Y-102181679D02*
X156441100Y-112695556D01*
X55888078Y-91598778D02*
G75*
G02*
X57017535Y-92449871I139222J-990222D01*
G01*
X59051586Y-99737710D02*
G75*
G02*
X57922095Y-98886622I-139186J990310D01*
G01*
X77727506Y-96103153D02*
G75*
G02*
X76876411Y-97232597I-990306J-139147D01*
G01*
X77108351Y-91697638D02*
G75*
G02*
X78028867Y-90560958I990249J139138D01*
G01*
X98422447Y-89134842D02*
G75*
G02*
X99492194Y-90132406I69753J-997558D01*
G01*
X100492203Y-106680666D02*
G75*
G02*
X99492234Y-105680666I-3J999966D01*
G01*
X118334800Y-106680666D02*
G75*
G02*
X118491234Y-106692977I0J-1000034D01*
G01*
X135958693Y-109459552D02*
G75*
G02*
X136111276Y-109496179I-156393J-987648D01*
G01*
X152076081Y-114683463D02*
G75*
G02*
X152214695Y-114740299I-309081J-951237D01*
G01*
X170315511Y-122690938D02*
G75*
G02*
X168976881Y-123131153I-891011J454038D01*
G01*
X177599557Y-106192504D02*
G75*
G02*
X178036573Y-107537501I-453957J-890996D01*
G01*
X160690768Y-97577046D02*
G75*
G02*
X160650594Y-97555406I453032J889146D01*
G01*
X148798038Y-90818192D02*
G75*
G02*
X148292181Y-89948824I494162J869392D01*
G01*
X147292203Y-37530666D02*
G75*
G02*
X148292234Y-38530666I-3J-1000034D01*
G01*
X131292203Y-37530666D02*
G75*
G02*
X130292234Y-36530666I-3J999966D01*
G01*
X129292203Y-34980666D02*
G75*
G02*
X130292234Y-35980666I-3J-1000034D01*
G01*
X113292203Y-34980666D02*
G75*
G02*
X112292234Y-33980666I-3J999966D01*
G01*
X111292203Y-31580666D02*
G75*
G02*
X112292234Y-32580666I-3J-1000034D01*
G01*
X92292203Y-32580666D02*
G75*
G02*
X93292203Y-31580703I999997J-34D01*
G01*
X92292203Y-35501575D02*
G75*
G02*
X91361962Y-36499167I-1000003J-25D01*
G01*
X71193443Y-38911901D02*
G75*
G02*
X72121247Y-37844540I997557J69801D01*
G01*
X71516070Y-43525694D02*
G75*
G02*
X70657687Y-44585776I-997570J-69806D01*
G01*
X50824317Y-48382944D02*
G75*
G02*
X51675415Y-47253523I990283J139144D01*
G01*
X51728942Y-54819686D02*
G75*
G02*
X50877850Y-55949151I-990242J-139214D01*
G01*
X34182463Y-59305338D02*
G75*
G02*
X35033567Y-58175962I990237J139138D01*
G01*
X40043789Y-93825547D02*
G75*
G02*
X38914348Y-92974452I-139189J990247D01*
G01*
X168736990Y-118960625D02*
G75*
G02*
X167392010Y-119397608I-890990J454025D01*
G01*
X173657062Y-107101751D02*
G75*
G02*
X174094140Y-108446780I-453962J-891049D01*
G01*
X161798188Y-102181679D02*
G75*
G02*
X163143182Y-101744668I891012J-454021D01*
G01*
X156878116Y-114040553D02*
G75*
G02*
X156441042Y-112695526I453984J891053D01*
G01*
X52922086Y-71213173D02*
G75*
G02*
X52070986Y-72342578I-990286J-139127D01*
G01*
X50150402Y-58676915D02*
G75*
G02*
X51279885Y-59528004I139198J-990285D01*
G01*
X37614144Y-61448598D02*
G75*
G02*
X38465236Y-60319139I990256J139198D01*
G01*
X40385827Y-73984857D02*
G75*
G02*
X39256447Y-73133753I-139127J990257D01*
G01*
X74295825Y-93959893D02*
G75*
G02*
X73444730Y-95089336I-990225J-139207D01*
G01*
X71524141Y-81423635D02*
G75*
G02*
X72653564Y-82274733I139159J-990265D01*
G01*
X58987883Y-84195318D02*
G75*
G02*
X59838965Y-83065785I990317J139218D01*
G01*
X61759567Y-96731577D02*
G75*
G02*
X60630125Y-95880482I-139167J990277D01*
G01*
X71929882Y-77125336D02*
G75*
G02*
X71078787Y-78254779I-990282J-139164D01*
G01*
X69158198Y-64589077D02*
G75*
G02*
X70287634Y-65440173I139202J-990223D01*
G01*
X56621940Y-67360761D02*
G75*
G02*
X57473038Y-66231340I990260J139161D01*
G01*
X59393624Y-79897019D02*
G75*
G02*
X58264279Y-79045910I-139124J990219D01*
G01*
X69563939Y-60290778D02*
G75*
G02*
X68712848Y-61420249I-990239J-139222D01*
G01*
X66792256Y-47754520D02*
G75*
G02*
X67921675Y-48605618I139144J-990280D01*
G01*
X54255998Y-50526204D02*
G75*
G02*
X55107084Y-49396700I990302J139204D01*
G01*
X57027681Y-63062462D02*
G75*
G02*
X55898236Y-62211368I-139181J990262D01*
G01*
X55288028Y-88047730D02*
G75*
G02*
X54436928Y-89177134I-990228J-139170D01*
G01*
X52516345Y-75511472D02*
G75*
G02*
X53645732Y-76362575I139155J-990228D01*
G01*
X39980086Y-78283156D02*
G75*
G02*
X40831178Y-77153695I990314J139156D01*
G01*
X42751770Y-90819414D02*
G75*
G02*
X41622294Y-89968324I-139170J990314D01*
G01*
X134603177Y-105599985D02*
G75*
G02*
X133459063Y-106431185I-987677J156485D01*
G01*
X135617850Y-92801139D02*
G75*
G02*
X136449060Y-93945255I-156450J-987661D01*
G01*
X122819005Y-91786466D02*
G75*
G02*
X123963129Y-90955204I987695J-156434D01*
G01*
X121804332Y-104585312D02*
G75*
G02*
X120973079Y-103441189I156468J987712D01*
G01*
X91428488Y-86015116D02*
G75*
G02*
X90500685Y-87082488I-997588J-69784D01*
G01*
X89538041Y-73316053D02*
G75*
G02*
X90605348Y-74243862I69759J-997547D01*
G01*
X76838978Y-75206500D02*
G75*
G02*
X77766785Y-74139172I997522J69800D01*
G01*
X78729425Y-87905563D02*
G75*
G02*
X77662139Y-86977754I-69725J997563D01*
G01*
X90242628Y-69056527D02*
G75*
G02*
X89314820Y-70123832I-997528J-69773D01*
G01*
X88352181Y-56357464D02*
G75*
G02*
X89419436Y-57285277I69719J-997536D01*
G01*
X75653118Y-58247911D02*
G75*
G02*
X76580928Y-57180622I997582J69711D01*
G01*
X77543565Y-70946974D02*
G75*
G02*
X76476226Y-70019168I-69765J997574D01*
G01*
X89056768Y-52097939D02*
G75*
G02*
X88128962Y-53165268I-997568J-69761D01*
G01*
X87166321Y-39398875D02*
G75*
G02*
X88233629Y-40326684I69779J-997525D01*
G01*
X74467258Y-41289322D02*
G75*
G02*
X75395069Y-40222059I997542J69722D01*
G01*
X76357705Y-53988385D02*
G75*
G02*
X75290313Y-53060583I-69805J997585D01*
G01*
X145192203Y-52930666D02*
G75*
G02*
X144192203Y-53930703I-1000003J-34D01*
G01*
X144192203Y-40130666D02*
G75*
G02*
X145192234Y-41130666I-3J-1000034D01*
G01*
X131392203Y-41130666D02*
G75*
G02*
X132392203Y-40130703I999997J-34D01*
G01*
X132392203Y-53930666D02*
G75*
G02*
X131392234Y-52930666I-3J999966D01*
G01*
X145192203Y-86930666D02*
G75*
G02*
X144192203Y-87930703I-1000003J-34D01*
G01*
X144192203Y-74130666D02*
G75*
G02*
X145192234Y-75130666I-3J-1000034D01*
G01*
X131392203Y-75130666D02*
G75*
G02*
X132392203Y-74130703I999997J-34D01*
G01*
X132392203Y-87930666D02*
G75*
G02*
X131392234Y-86930666I-3J999966D01*
G01*
X145192203Y-69930666D02*
G75*
G02*
X144192203Y-70930703I-1000003J-34D01*
G01*
X144192203Y-57130666D02*
G75*
G02*
X145192234Y-58130666I-3J-1000034D01*
G01*
X131392203Y-58130666D02*
G75*
G02*
X132392203Y-57130703I999997J-34D01*
G01*
X132392203Y-70930666D02*
G75*
G02*
X131392234Y-69930666I-3J999966D01*
G01*
X109192203Y-46980666D02*
G75*
G02*
X108192203Y-47980703I-1000003J-34D01*
G01*
X108192203Y-34180666D02*
G75*
G02*
X109192234Y-35180666I-3J-1000034D01*
G01*
X95392203Y-35180666D02*
G75*
G02*
X96392203Y-34180703I999997J-34D01*
G01*
X96392203Y-47980666D02*
G75*
G02*
X95392234Y-46980666I-3J999966D01*
G01*
X127192203Y-50380666D02*
G75*
G02*
X126192203Y-51380703I-1000003J-34D01*
G01*
X126192203Y-37580666D02*
G75*
G02*
X127192234Y-38580666I-3J-1000034D01*
G01*
X113392203Y-38580666D02*
G75*
G02*
X114392203Y-37580703I999997J-34D01*
G01*
X114392203Y-51380666D02*
G75*
G02*
X113392234Y-50380666I-3J999966D01*
G01*
X109192203Y-80980666D02*
G75*
G02*
X108192203Y-81980703I-1000003J-34D01*
G01*
X108192203Y-68180666D02*
G75*
G02*
X109192234Y-69180666I-3J-1000034D01*
G01*
X95392203Y-69180666D02*
G75*
G02*
X96392203Y-68180703I999997J-34D01*
G01*
X96392203Y-81980666D02*
G75*
G02*
X95392234Y-80980666I-3J999966D01*
G01*
X109192203Y-63980666D02*
G75*
G02*
X108192203Y-64980703I-1000003J-34D01*
G01*
X108192203Y-51180666D02*
G75*
G02*
X109192234Y-52180666I-3J-1000034D01*
G01*
X95392203Y-52180666D02*
G75*
G02*
X96392203Y-51180703I999997J-34D01*
G01*
X96392203Y-64980666D02*
G75*
G02*
X95392234Y-63980666I-3J999966D01*
G01*
X127192203Y-84380666D02*
G75*
G02*
X126192203Y-85380703I-1000003J-34D01*
G01*
X126192203Y-71580666D02*
G75*
G02*
X127192234Y-72580666I-3J-1000034D01*
G01*
X113392203Y-72580666D02*
G75*
G02*
X114392203Y-71580703I999997J-34D01*
G01*
X114392203Y-85380666D02*
G75*
G02*
X113392234Y-84380666I-3J999966D01*
G01*
X127192203Y-67380666D02*
G75*
G02*
X126192203Y-68380703I-1000003J-34D01*
G01*
X126192203Y-54580666D02*
G75*
G02*
X127192234Y-55580666I-3J-1000034D01*
G01*
X113392203Y-55580666D02*
G75*
G02*
X114392203Y-54580703I999997J-34D01*
G01*
X114392203Y-68380666D02*
G75*
G02*
X113392234Y-67380666I-3J999966D01*
G01*
X116392203Y-103080666D02*
G75*
G02*
X115392203Y-104080703I-1000003J-34D01*
G01*
X115392203Y-90280666D02*
G75*
G02*
X116392234Y-91280666I-3J-1000034D01*
G01*
X102592203Y-91280666D02*
G75*
G02*
X103592203Y-90280703I999997J-34D01*
G01*
X103592203Y-104080666D02*
G75*
G02*
X102592234Y-103080666I-3J999966D01*
G01*
X152195836Y-110937110D02*
G75*
G02*
X150935769Y-111579129I-951036J309010D01*
G01*
X155200197Y-98454570D02*
G75*
G02*
X155842217Y-99714637I-308997J-951030D01*
G01*
X142717657Y-95450209D02*
G75*
G02*
X143977730Y-94808170I951043J-308991D01*
G01*
X139713296Y-107932749D02*
G75*
G02*
X139071258Y-106672676I309004J951049D01*
G01*
M02*
