%TF.GenerationSoftware,KiCad,Pcbnew,9.0.5*%
%TF.CreationDate,2025-10-26T23:57:45-07:00*%
%TF.ProjectId,temporal_topplate,74656d70-6f72-4616-9c5f-746f70706c61,1*%
%TF.SameCoordinates,Original*%
%TF.FileFunction,Drillmap*%
%TF.FilePolarity,Positive*%
%FSLAX45Y45*%
G04 Gerber Fmt 4.5, Leading zero omitted, Abs format (unit mm)*
G04 Created by KiCad (PCBNEW 9.0.5) date 2025-10-26 23:57:45*
%MOMM*%
%LPD*%
G01*
G04 APERTURE LIST*
%ADD10C,0.150000*%
%ADD11C,0.200000*%
%ADD12C,0.220000*%
G04 APERTURE END LIST*
D10*
X4004379Y-9382555D02*
X5588808Y-9159878D01*
X3418246Y-5930534D02*
X3891435Y-9297445D01*
X5087785Y-5594913D02*
X3503356Y-5817590D01*
X5905159Y-9973771D02*
X7687641Y-9723259D01*
X7772751Y-9610315D02*
X7710835Y-9169764D01*
X5701752Y-9244987D02*
X5792214Y-9888662D01*
X5167541Y-4725350D02*
X7065768Y-4458572D01*
X5082432Y-4838294D02*
X5172894Y-5481969D01*
X7802886Y-9056090D02*
X9842245Y-8913484D01*
X7119344Y-3891190D02*
X7151607Y-4352569D01*
X7212125Y-3784458D02*
X9136196Y-3649914D01*
X9229220Y-3550157D02*
X9229220Y-3258067D01*
X11229220Y-3398067D02*
X11229220Y-3258067D01*
X11129220Y-3158067D02*
X9329220Y-3158067D01*
X13029220Y-3653067D02*
X13029220Y-3598067D01*
X12929220Y-3498067D02*
X11329220Y-3498067D01*
X14829220Y-8994882D02*
X14829220Y-3853067D01*
X14729220Y-3753067D02*
X13129220Y-3753067D01*
X10049220Y-10668067D02*
X11833480Y-10668067D01*
X9949220Y-9013241D02*
X9949220Y-10568067D01*
X11849123Y-10669298D02*
X13595869Y-10945955D01*
X13611127Y-10949618D02*
X15207608Y-11468346D01*
X17031551Y-12269094D02*
X17803657Y-10753750D01*
X17759956Y-10619250D02*
X16069077Y-9757705D01*
X14879804Y-9081819D02*
X16065059Y-9755541D01*
X16897687Y-12313117D02*
X15221469Y-11474030D01*
X4275177Y-9081941D02*
X5443693Y-8917717D01*
X5528803Y-8804773D02*
X5364579Y-7636257D01*
X5251635Y-7551147D02*
X4083118Y-7715371D01*
X3998009Y-7828316D02*
X4162233Y-8996832D01*
X4038583Y-7398486D02*
X5207099Y-7234261D01*
X5292209Y-7121317D02*
X5127984Y-5952801D01*
X5015040Y-5867691D02*
X3846524Y-6031916D01*
X3761414Y-6144860D02*
X3925639Y-7313376D01*
X6175957Y-9673158D02*
X7344473Y-9508933D01*
X7429582Y-9395989D02*
X7265358Y-8227473D01*
X7152414Y-8142363D02*
X5983898Y-8306588D01*
X5898788Y-8419532D02*
X6063012Y-9588048D01*
X5939362Y-7989702D02*
X7107879Y-7825478D01*
X7192988Y-7712534D02*
X7028764Y-6544017D01*
X6915820Y-6458908D02*
X5747303Y-6623132D01*
X5662194Y-6736076D02*
X5826418Y-7904592D01*
X5702768Y-6306246D02*
X6871284Y-6142022D01*
X6956394Y-6029078D02*
X6792170Y-4860562D01*
X6679226Y-4775452D02*
X5510709Y-4939676D01*
X5425600Y-5052620D02*
X5589824Y-6221137D01*
X7872942Y-8790556D02*
X9050068Y-8708244D01*
X9142849Y-8601512D02*
X9060536Y-7424386D01*
X8953804Y-7331605D02*
X7776679Y-7413918D01*
X7683898Y-7520650D02*
X7766210Y-8697776D01*
X7754356Y-7094697D02*
X8931482Y-7012385D01*
X9024263Y-6905653D02*
X8941950Y-5728527D01*
X8835218Y-5635746D02*
X7658093Y-5718059D01*
X7565312Y-5824791D02*
X7647624Y-7001917D01*
X7635770Y-5398839D02*
X8812896Y-5316526D01*
X8905677Y-5209794D02*
X8823364Y-4032668D01*
X8716632Y-3939887D02*
X7539506Y-4022200D01*
X7446726Y-4128932D02*
X7529038Y-5306058D01*
X9639220Y-8198067D02*
X10819220Y-8198067D01*
X10919220Y-8098067D02*
X10919220Y-6918067D01*
X10819220Y-6818067D02*
X9639220Y-6818067D01*
X9539220Y-6918067D02*
X9539220Y-8098067D01*
X9639220Y-6498067D02*
X10819220Y-6498067D01*
X10919220Y-6398067D02*
X10919220Y-5218067D01*
X10819220Y-5118067D02*
X9639220Y-5118067D01*
X9539220Y-5218067D02*
X9539220Y-6398067D01*
X9639220Y-4798067D02*
X10819220Y-4798067D01*
X10919220Y-4698067D02*
X10919220Y-3518067D01*
X10819220Y-3418067D02*
X9639220Y-3418067D01*
X9539220Y-3518067D02*
X9539220Y-4698067D01*
X11439220Y-8538067D02*
X12619220Y-8538067D01*
X12719220Y-8438067D02*
X12719220Y-7258067D01*
X12619220Y-7158067D02*
X11439220Y-7158067D01*
X11339220Y-7258067D02*
X11339220Y-8438067D01*
X11439220Y-6838067D02*
X12619220Y-6838067D01*
X12719220Y-6738067D02*
X12719220Y-5558067D01*
X12619220Y-5458067D02*
X11439220Y-5458067D01*
X11339220Y-5558067D02*
X11339220Y-6738067D01*
X11439220Y-5138067D02*
X12619220Y-5138067D01*
X12719220Y-5038067D02*
X12719220Y-3858067D01*
X12619220Y-3758067D02*
X11439220Y-3758067D01*
X11339220Y-3858067D02*
X11339220Y-5038067D01*
X13239220Y-8793067D02*
X14419220Y-8793067D01*
X14519220Y-8693067D02*
X14519220Y-7513067D01*
X14419220Y-7413067D02*
X13239220Y-7413067D01*
X13139220Y-7513067D02*
X13139220Y-8693067D01*
X13239220Y-7093067D02*
X14419220Y-7093067D01*
X14519220Y-6993067D02*
X14519220Y-5813067D01*
X14419220Y-5713067D02*
X13239220Y-5713067D01*
X13139220Y-5813067D02*
X13139220Y-6993067D01*
X13239220Y-5393067D02*
X14419220Y-5393067D01*
X14519220Y-5293067D02*
X14519220Y-4113067D01*
X14419220Y-4013067D02*
X13239220Y-4013067D01*
X13139220Y-4113067D02*
X13139220Y-5293067D01*
X10359220Y-10408067D02*
X11539220Y-10408067D01*
X11639220Y-10308067D02*
X11639220Y-9128067D01*
X11539220Y-9028067D02*
X10359220Y-9028067D01*
X10259220Y-9128067D02*
X10259220Y-10308067D01*
X12180433Y-10458531D02*
X13345905Y-10643124D01*
X13460318Y-10559999D02*
X13644910Y-9394526D01*
X13561785Y-9280114D02*
X12396313Y-9095521D01*
X12281900Y-9178647D02*
X12097308Y-10344119D01*
X13971330Y-10793275D02*
X15093576Y-11157915D01*
X15219584Y-11093711D02*
X15584224Y-9971464D01*
X15520020Y-9845457D02*
X14397773Y-9480817D01*
X14271766Y-9545021D02*
X13907126Y-10667268D01*
X15687812Y-11404055D02*
X16739199Y-11939764D01*
X16873699Y-11896062D02*
X17409408Y-10844675D01*
X17365706Y-10710175D02*
X16314318Y-10174466D01*
X16179819Y-10218168D02*
X15644110Y-11269556D01*
X5588808Y-9159878D02*
G75*
G02*
X5701753Y-9244987I13922J-99022D01*
G01*
X5905159Y-9973771D02*
G75*
G02*
X5792209Y-9888662I-13919J99031D01*
G01*
X7772751Y-9610315D02*
G75*
G02*
X7687641Y-9723260I-99031J-13915D01*
G01*
X7710835Y-9169764D02*
G75*
G02*
X7802887Y-9056096I99025J13914D01*
G01*
X9842245Y-8913484D02*
G75*
G02*
X9949219Y-9013241I6975J-99756D01*
G01*
X10049220Y-10668067D02*
G75*
G02*
X9949223Y-10568067I0J99997D01*
G01*
X11833480Y-10668067D02*
G75*
G02*
X11849123Y-10669298I0J-100003D01*
G01*
X13595869Y-10945955D02*
G75*
G02*
X13611128Y-10949618I-15639J-98765D01*
G01*
X15207608Y-11468346D02*
G75*
G02*
X15221469Y-11474030I-30908J-95124D01*
G01*
X17031551Y-12269094D02*
G75*
G02*
X16897688Y-12313115I-89101J45404D01*
G01*
X17759956Y-10619250D02*
G75*
G02*
X17803657Y-10753750I-45396J-89100D01*
G01*
X16069077Y-9757705D02*
G75*
G02*
X16065059Y-9755541I45303J88915D01*
G01*
X14879804Y-9081819D02*
G75*
G02*
X14829218Y-8994882I49416J86939D01*
G01*
X14729220Y-3753067D02*
G75*
G02*
X14829223Y-3853067I0J-100003D01*
G01*
X13129220Y-3753067D02*
G75*
G02*
X13029223Y-3653067I0J99997D01*
G01*
X12929220Y-3498067D02*
G75*
G02*
X13029223Y-3598067I0J-100003D01*
G01*
X11329220Y-3498067D02*
G75*
G02*
X11229223Y-3398067I0J99997D01*
G01*
X11129220Y-3158067D02*
G75*
G02*
X11229223Y-3258067I0J-100003D01*
G01*
X9229220Y-3258067D02*
G75*
G02*
X9329220Y-3158070I100000J-3D01*
G01*
X9229220Y-3550157D02*
G75*
G02*
X9136196Y-3649917I-100000J-3D01*
G01*
X7119344Y-3891190D02*
G75*
G02*
X7212125Y-3784454I99756J6980D01*
G01*
X7151607Y-4352569D02*
G75*
G02*
X7065769Y-4458578I-99757J-6981D01*
G01*
X5082432Y-4838294D02*
G75*
G02*
X5167542Y-4725352I99028J13914D01*
G01*
X5172894Y-5481969D02*
G75*
G02*
X5087785Y-5594915I-99024J-13921D01*
G01*
X3418246Y-5930534D02*
G75*
G02*
X3503357Y-5817596I99024J13914D01*
G01*
X4004379Y-9382555D02*
G75*
G02*
X3891435Y-9297445I-13919J99025D01*
G01*
X16873699Y-11896062D02*
G75*
G02*
X16739201Y-11939761I-89099J45403D01*
G01*
X17365706Y-10710175D02*
G75*
G02*
X17409414Y-10844678I-45396J-89105D01*
G01*
X16179819Y-10218168D02*
G75*
G02*
X16314318Y-10174467I89101J-45402D01*
G01*
X15687812Y-11404055D02*
G75*
G02*
X15644104Y-11269553I45398J89105D01*
G01*
X5292209Y-7121317D02*
G75*
G02*
X5207099Y-7234258I-99029J-13913D01*
G01*
X5015040Y-5867691D02*
G75*
G02*
X5127989Y-5952800I13920J-99029D01*
G01*
X3761414Y-6144860D02*
G75*
G02*
X3846524Y-6031914I99026J13920D01*
G01*
X4038583Y-7398486D02*
G75*
G02*
X3925645Y-7313375I-13913J99026D01*
G01*
X7429582Y-9395989D02*
G75*
G02*
X7344473Y-9508934I-99023J-13921D01*
G01*
X7152414Y-8142363D02*
G75*
G02*
X7265356Y-8227473I13916J-99027D01*
G01*
X5898788Y-8419532D02*
G75*
G02*
X5983896Y-8306578I99032J13922D01*
G01*
X6175957Y-9673158D02*
G75*
G02*
X6063012Y-9588048I-13917J99028D01*
G01*
X7192988Y-7712534D02*
G75*
G02*
X7107879Y-7825478I-99028J-13916D01*
G01*
X6915820Y-6458908D02*
G75*
G02*
X7028763Y-6544017I13920J-99022D01*
G01*
X5662194Y-6736076D02*
G75*
G02*
X5747304Y-6623134I99026J13916D01*
G01*
X5939362Y-7989702D02*
G75*
G02*
X5826428Y-7904591I-13912J99022D01*
G01*
X6956394Y-6029078D02*
G75*
G02*
X6871285Y-6142025I-99024J-13922D01*
G01*
X6679226Y-4775452D02*
G75*
G02*
X6792167Y-4860562I13914J-99028D01*
G01*
X5425600Y-5052620D02*
G75*
G02*
X5510708Y-4939670I99030J13920D01*
G01*
X5702768Y-6306246D02*
G75*
G02*
X5589824Y-6221137I-13918J99026D01*
G01*
X5528803Y-8804773D02*
G75*
G02*
X5443693Y-8917713I-99023J-13917D01*
G01*
X5251635Y-7551147D02*
G75*
G02*
X5364573Y-7636257I13916J-99023D01*
G01*
X3998009Y-7828316D02*
G75*
G02*
X4083118Y-7715369I99031J13916D01*
G01*
X4275177Y-9081941D02*
G75*
G02*
X4162229Y-8996832I-13917J99031D01*
G01*
X13460318Y-10559999D02*
G75*
G02*
X13345906Y-10643119I-98768J15649D01*
G01*
X13561785Y-9280114D02*
G75*
G02*
X13644906Y-9394526I-15645J-98766D01*
G01*
X12281900Y-9178647D02*
G75*
G02*
X12396313Y-9095520I98770J-15643D01*
G01*
X12180433Y-10458531D02*
G75*
G02*
X12097308Y-10344119I15647J98771D01*
G01*
X9142849Y-8601512D02*
G75*
G02*
X9050069Y-8708249I-99759J-6978D01*
G01*
X8953804Y-7331605D02*
G75*
G02*
X9060535Y-7424386I6976J-99755D01*
G01*
X7683898Y-7520650D02*
G75*
G02*
X7776678Y-7413917I99752J6980D01*
G01*
X7872942Y-8790556D02*
G75*
G02*
X7766214Y-8697775I-6973J99756D01*
G01*
X9024263Y-6905653D02*
G75*
G02*
X8931482Y-7012383I-99753J-6977D01*
G01*
X8835218Y-5635746D02*
G75*
G02*
X8941944Y-5728528I6972J-99754D01*
G01*
X7565312Y-5824791D02*
G75*
G02*
X7658093Y-5718062I99758J6971D01*
G01*
X7754356Y-7094697D02*
G75*
G02*
X7647623Y-7001917I-6977J99757D01*
G01*
X8905677Y-5209794D02*
G75*
G02*
X8812896Y-5316527I-99757J-6976D01*
G01*
X8716632Y-3939887D02*
G75*
G02*
X8823363Y-4032668I6978J-99753D01*
G01*
X7446726Y-4128932D02*
G75*
G02*
X7539507Y-4022206I99754J6972D01*
G01*
X7635770Y-5398839D02*
G75*
G02*
X7529031Y-5306058I-6981J99759D01*
G01*
X14519220Y-5293067D02*
G75*
G02*
X14419220Y-5393070I-100000J-3D01*
G01*
X14419220Y-4013067D02*
G75*
G02*
X14519223Y-4113067I0J-100003D01*
G01*
X13139220Y-4113067D02*
G75*
G02*
X13239220Y-4013070I100000J-3D01*
G01*
X13239220Y-5393067D02*
G75*
G02*
X13139223Y-5293067I0J99997D01*
G01*
X14519220Y-8693067D02*
G75*
G02*
X14419220Y-8793070I-100000J-3D01*
G01*
X14419220Y-7413067D02*
G75*
G02*
X14519223Y-7513067I0J-100003D01*
G01*
X13139220Y-7513067D02*
G75*
G02*
X13239220Y-7413070I100000J-3D01*
G01*
X13239220Y-8793067D02*
G75*
G02*
X13139223Y-8693067I0J99997D01*
G01*
X14519220Y-6993067D02*
G75*
G02*
X14419220Y-7093070I-100000J-3D01*
G01*
X14419220Y-5713067D02*
G75*
G02*
X14519223Y-5813067I0J-100003D01*
G01*
X13139220Y-5813067D02*
G75*
G02*
X13239220Y-5713070I100000J-3D01*
G01*
X13239220Y-7093067D02*
G75*
G02*
X13139223Y-6993067I0J99997D01*
G01*
X10919220Y-4698067D02*
G75*
G02*
X10819220Y-4798070I-100000J-3D01*
G01*
X10819220Y-3418067D02*
G75*
G02*
X10919223Y-3518067I0J-100003D01*
G01*
X9539220Y-3518067D02*
G75*
G02*
X9639220Y-3418070I100000J-3D01*
G01*
X9639220Y-4798067D02*
G75*
G02*
X9539223Y-4698067I0J99997D01*
G01*
X12719220Y-5038067D02*
G75*
G02*
X12619220Y-5138070I-100000J-3D01*
G01*
X12619220Y-3758067D02*
G75*
G02*
X12719223Y-3858067I0J-100003D01*
G01*
X11339220Y-3858067D02*
G75*
G02*
X11439220Y-3758070I100000J-3D01*
G01*
X11439220Y-5138067D02*
G75*
G02*
X11339223Y-5038067I0J99997D01*
G01*
X10919220Y-8098067D02*
G75*
G02*
X10819220Y-8198070I-100000J-3D01*
G01*
X10819220Y-6818067D02*
G75*
G02*
X10919223Y-6918067I0J-100003D01*
G01*
X9539220Y-6918067D02*
G75*
G02*
X9639220Y-6818070I100000J-3D01*
G01*
X9639220Y-8198067D02*
G75*
G02*
X9539223Y-8098067I0J99997D01*
G01*
X10919220Y-6398067D02*
G75*
G02*
X10819220Y-6498070I-100000J-3D01*
G01*
X10819220Y-5118067D02*
G75*
G02*
X10919223Y-5218067I0J-100003D01*
G01*
X9539220Y-5218067D02*
G75*
G02*
X9639220Y-5118070I100000J-3D01*
G01*
X9639220Y-6498067D02*
G75*
G02*
X9539223Y-6398067I0J99997D01*
G01*
X12719220Y-8438067D02*
G75*
G02*
X12619220Y-8538070I-100000J-3D01*
G01*
X12619220Y-7158067D02*
G75*
G02*
X12719223Y-7258067I0J-100003D01*
G01*
X11339220Y-7258067D02*
G75*
G02*
X11439220Y-7158070I100000J-3D01*
G01*
X11439220Y-8538067D02*
G75*
G02*
X11339223Y-8438067I0J99997D01*
G01*
X12719220Y-6738067D02*
G75*
G02*
X12619220Y-6838070I-100000J-3D01*
G01*
X12619220Y-5458067D02*
G75*
G02*
X12719223Y-5558067I0J-100003D01*
G01*
X11339220Y-5558067D02*
G75*
G02*
X11439220Y-5458070I100000J-3D01*
G01*
X11439220Y-6838067D02*
G75*
G02*
X11339223Y-6738067I0J99997D01*
G01*
X11639220Y-10308067D02*
G75*
G02*
X11539220Y-10408070I-100000J-3D01*
G01*
X11539220Y-9028067D02*
G75*
G02*
X11639223Y-9128067I0J-100003D01*
G01*
X10259220Y-9128067D02*
G75*
G02*
X10359220Y-9028070I100000J-3D01*
G01*
X10359220Y-10408067D02*
G75*
G02*
X10259223Y-10308067I0J99997D01*
G01*
X15219584Y-11093711D02*
G75*
G02*
X15093577Y-11157913I-95104J30901D01*
G01*
X15520020Y-9845457D02*
G75*
G02*
X15584222Y-9971464I-30900J-95103D01*
G01*
X14271766Y-9545021D02*
G75*
G02*
X14397773Y-9480817I95104J-30899D01*
G01*
X13971330Y-10793275D02*
G75*
G02*
X13907126Y-10667268I30900J95105D01*
G01*
D11*
D12*
X7287814Y-7190069D02*
X7507814Y-7410069D01*
X7507814Y-7190069D02*
X7287814Y-7410069D01*
X9119220Y-4798067D02*
X9339220Y-5018067D01*
X9339220Y-4798067D02*
X9119220Y-5018067D01*
X11869220Y-8758067D02*
X12089220Y-8978067D01*
X12089220Y-8758067D02*
X11869220Y-8978067D01*
X12783220Y-5188067D02*
X13003220Y-5408067D01*
X13003220Y-5188067D02*
X12783220Y-5408067D01*
X15533238Y-10553575D02*
X15753238Y-10773575D01*
X15753238Y-10553575D02*
X15533238Y-10773575D01*
D11*
X3670550Y-12642676D02*
X3670550Y-12442676D01*
X3670550Y-12442676D02*
X3718169Y-12442676D01*
X3718169Y-12442676D02*
X3746741Y-12452200D01*
X3746741Y-12452200D02*
X3765788Y-12471248D01*
X3765788Y-12471248D02*
X3775312Y-12490295D01*
X3775312Y-12490295D02*
X3784836Y-12528391D01*
X3784836Y-12528391D02*
X3784836Y-12556962D01*
X3784836Y-12556962D02*
X3775312Y-12595057D01*
X3775312Y-12595057D02*
X3765788Y-12614105D01*
X3765788Y-12614105D02*
X3746741Y-12633153D01*
X3746741Y-12633153D02*
X3718169Y-12642676D01*
X3718169Y-12642676D02*
X3670550Y-12642676D01*
X3870550Y-12642676D02*
X3870550Y-12509343D01*
X3870550Y-12547438D02*
X3880074Y-12528391D01*
X3880074Y-12528391D02*
X3889598Y-12518867D01*
X3889598Y-12518867D02*
X3908646Y-12509343D01*
X3908646Y-12509343D02*
X3927693Y-12509343D01*
X3994360Y-12642676D02*
X3994360Y-12509343D01*
X3994360Y-12442676D02*
X3984836Y-12452200D01*
X3984836Y-12452200D02*
X3994360Y-12461724D01*
X3994360Y-12461724D02*
X4003884Y-12452200D01*
X4003884Y-12452200D02*
X3994360Y-12442676D01*
X3994360Y-12442676D02*
X3994360Y-12461724D01*
X4118169Y-12642676D02*
X4099122Y-12633153D01*
X4099122Y-12633153D02*
X4089598Y-12614105D01*
X4089598Y-12614105D02*
X4089598Y-12442676D01*
X4222931Y-12642676D02*
X4203884Y-12633153D01*
X4203884Y-12633153D02*
X4194360Y-12614105D01*
X4194360Y-12614105D02*
X4194360Y-12442676D01*
X4451503Y-12642676D02*
X4451503Y-12442676D01*
X4451503Y-12442676D02*
X4518170Y-12585533D01*
X4518170Y-12585533D02*
X4584836Y-12442676D01*
X4584836Y-12442676D02*
X4584836Y-12642676D01*
X4765789Y-12642676D02*
X4765789Y-12537914D01*
X4765789Y-12537914D02*
X4756265Y-12518867D01*
X4756265Y-12518867D02*
X4737217Y-12509343D01*
X4737217Y-12509343D02*
X4699122Y-12509343D01*
X4699122Y-12509343D02*
X4680074Y-12518867D01*
X4765789Y-12633153D02*
X4746741Y-12642676D01*
X4746741Y-12642676D02*
X4699122Y-12642676D01*
X4699122Y-12642676D02*
X4680074Y-12633153D01*
X4680074Y-12633153D02*
X4670550Y-12614105D01*
X4670550Y-12614105D02*
X4670550Y-12595057D01*
X4670550Y-12595057D02*
X4680074Y-12576010D01*
X4680074Y-12576010D02*
X4699122Y-12566486D01*
X4699122Y-12566486D02*
X4746741Y-12566486D01*
X4746741Y-12566486D02*
X4765789Y-12556962D01*
X4861027Y-12509343D02*
X4861027Y-12709343D01*
X4861027Y-12518867D02*
X4880074Y-12509343D01*
X4880074Y-12509343D02*
X4918170Y-12509343D01*
X4918170Y-12509343D02*
X4937217Y-12518867D01*
X4937217Y-12518867D02*
X4946741Y-12528391D01*
X4946741Y-12528391D02*
X4956265Y-12547438D01*
X4956265Y-12547438D02*
X4956265Y-12604581D01*
X4956265Y-12604581D02*
X4946741Y-12623629D01*
X4946741Y-12623629D02*
X4937217Y-12633153D01*
X4937217Y-12633153D02*
X4918170Y-12642676D01*
X4918170Y-12642676D02*
X4880074Y-12642676D01*
X4880074Y-12642676D02*
X4861027Y-12633153D01*
X5041979Y-12623629D02*
X5051503Y-12633153D01*
X5051503Y-12633153D02*
X5041979Y-12642676D01*
X5041979Y-12642676D02*
X5032455Y-12633153D01*
X5032455Y-12633153D02*
X5041979Y-12623629D01*
X5041979Y-12623629D02*
X5041979Y-12642676D01*
X5041979Y-12518867D02*
X5051503Y-12528391D01*
X5051503Y-12528391D02*
X5041979Y-12537914D01*
X5041979Y-12537914D02*
X5032455Y-12528391D01*
X5032455Y-12528391D02*
X5041979Y-12518867D01*
X5041979Y-12518867D02*
X5041979Y-12537914D01*
X3209774Y-12871193D02*
X3409774Y-13071193D01*
X3409774Y-12871193D02*
X3209774Y-13071193D01*
X3661027Y-12881724D02*
X3670550Y-12872200D01*
X3670550Y-12872200D02*
X3689598Y-12862676D01*
X3689598Y-12862676D02*
X3737217Y-12862676D01*
X3737217Y-12862676D02*
X3756265Y-12872200D01*
X3756265Y-12872200D02*
X3765788Y-12881724D01*
X3765788Y-12881724D02*
X3775312Y-12900772D01*
X3775312Y-12900772D02*
X3775312Y-12919819D01*
X3775312Y-12919819D02*
X3765788Y-12948391D01*
X3765788Y-12948391D02*
X3651503Y-13062676D01*
X3651503Y-13062676D02*
X3775312Y-13062676D01*
X3861027Y-13043629D02*
X3870550Y-13053153D01*
X3870550Y-13053153D02*
X3861027Y-13062676D01*
X3861027Y-13062676D02*
X3851503Y-13053153D01*
X3851503Y-13053153D02*
X3861027Y-13043629D01*
X3861027Y-13043629D02*
X3861027Y-13062676D01*
X3946741Y-12881724D02*
X3956265Y-12872200D01*
X3956265Y-12872200D02*
X3975312Y-12862676D01*
X3975312Y-12862676D02*
X4022931Y-12862676D01*
X4022931Y-12862676D02*
X4041979Y-12872200D01*
X4041979Y-12872200D02*
X4051503Y-12881724D01*
X4051503Y-12881724D02*
X4061027Y-12900772D01*
X4061027Y-12900772D02*
X4061027Y-12919819D01*
X4061027Y-12919819D02*
X4051503Y-12948391D01*
X4051503Y-12948391D02*
X3937217Y-13062676D01*
X3937217Y-13062676D02*
X4061027Y-13062676D01*
X4184836Y-12862676D02*
X4203884Y-12862676D01*
X4203884Y-12862676D02*
X4222931Y-12872200D01*
X4222931Y-12872200D02*
X4232455Y-12881724D01*
X4232455Y-12881724D02*
X4241979Y-12900772D01*
X4241979Y-12900772D02*
X4251503Y-12938867D01*
X4251503Y-12938867D02*
X4251503Y-12986486D01*
X4251503Y-12986486D02*
X4241979Y-13024581D01*
X4241979Y-13024581D02*
X4232455Y-13043629D01*
X4232455Y-13043629D02*
X4222931Y-13053153D01*
X4222931Y-13053153D02*
X4203884Y-13062676D01*
X4203884Y-13062676D02*
X4184836Y-13062676D01*
X4184836Y-13062676D02*
X4165788Y-13053153D01*
X4165788Y-13053153D02*
X4156265Y-13043629D01*
X4156265Y-13043629D02*
X4146741Y-13024581D01*
X4146741Y-13024581D02*
X4137217Y-12986486D01*
X4137217Y-12986486D02*
X4137217Y-12938867D01*
X4137217Y-12938867D02*
X4146741Y-12900772D01*
X4146741Y-12900772D02*
X4156265Y-12881724D01*
X4156265Y-12881724D02*
X4165788Y-12872200D01*
X4165788Y-12872200D02*
X4184836Y-12862676D01*
X4375312Y-12862676D02*
X4394360Y-12862676D01*
X4394360Y-12862676D02*
X4413408Y-12872200D01*
X4413408Y-12872200D02*
X4422931Y-12881724D01*
X4422931Y-12881724D02*
X4432455Y-12900772D01*
X4432455Y-12900772D02*
X4441979Y-12938867D01*
X4441979Y-12938867D02*
X4441979Y-12986486D01*
X4441979Y-12986486D02*
X4432455Y-13024581D01*
X4432455Y-13024581D02*
X4422931Y-13043629D01*
X4422931Y-13043629D02*
X4413408Y-13053153D01*
X4413408Y-13053153D02*
X4394360Y-13062676D01*
X4394360Y-13062676D02*
X4375312Y-13062676D01*
X4375312Y-13062676D02*
X4356265Y-13053153D01*
X4356265Y-13053153D02*
X4346741Y-13043629D01*
X4346741Y-13043629D02*
X4337217Y-13024581D01*
X4337217Y-13024581D02*
X4327693Y-12986486D01*
X4327693Y-12986486D02*
X4327693Y-12938867D01*
X4327693Y-12938867D02*
X4337217Y-12900772D01*
X4337217Y-12900772D02*
X4346741Y-12881724D01*
X4346741Y-12881724D02*
X4356265Y-12872200D01*
X4356265Y-12872200D02*
X4375312Y-12862676D01*
X4527693Y-13062676D02*
X4527693Y-12929343D01*
X4527693Y-12948391D02*
X4537217Y-12938867D01*
X4537217Y-12938867D02*
X4556265Y-12929343D01*
X4556265Y-12929343D02*
X4584836Y-12929343D01*
X4584836Y-12929343D02*
X4603884Y-12938867D01*
X4603884Y-12938867D02*
X4613408Y-12957914D01*
X4613408Y-12957914D02*
X4613408Y-13062676D01*
X4613408Y-12957914D02*
X4622931Y-12938867D01*
X4622931Y-12938867D02*
X4641979Y-12929343D01*
X4641979Y-12929343D02*
X4670550Y-12929343D01*
X4670550Y-12929343D02*
X4689598Y-12938867D01*
X4689598Y-12938867D02*
X4699122Y-12957914D01*
X4699122Y-12957914D02*
X4699122Y-13062676D01*
X4794360Y-13062676D02*
X4794360Y-12929343D01*
X4794360Y-12948391D02*
X4803884Y-12938867D01*
X4803884Y-12938867D02*
X4822931Y-12929343D01*
X4822931Y-12929343D02*
X4851503Y-12929343D01*
X4851503Y-12929343D02*
X4870551Y-12938867D01*
X4870551Y-12938867D02*
X4880074Y-12957914D01*
X4880074Y-12957914D02*
X4880074Y-13062676D01*
X4880074Y-12957914D02*
X4889598Y-12938867D01*
X4889598Y-12938867D02*
X4908646Y-12929343D01*
X4908646Y-12929343D02*
X4937217Y-12929343D01*
X4937217Y-12929343D02*
X4956265Y-12938867D01*
X4956265Y-12938867D02*
X4965789Y-12957914D01*
X4965789Y-12957914D02*
X4965789Y-13062676D01*
X5356265Y-12853153D02*
X5184836Y-13110295D01*
X5613408Y-12862676D02*
X5632455Y-12862676D01*
X5632455Y-12862676D02*
X5651503Y-12872200D01*
X5651503Y-12872200D02*
X5661027Y-12881724D01*
X5661027Y-12881724D02*
X5670551Y-12900772D01*
X5670551Y-12900772D02*
X5680074Y-12938867D01*
X5680074Y-12938867D02*
X5680074Y-12986486D01*
X5680074Y-12986486D02*
X5670551Y-13024581D01*
X5670551Y-13024581D02*
X5661027Y-13043629D01*
X5661027Y-13043629D02*
X5651503Y-13053153D01*
X5651503Y-13053153D02*
X5632455Y-13062676D01*
X5632455Y-13062676D02*
X5613408Y-13062676D01*
X5613408Y-13062676D02*
X5594360Y-13053153D01*
X5594360Y-13053153D02*
X5584836Y-13043629D01*
X5584836Y-13043629D02*
X5575313Y-13024581D01*
X5575313Y-13024581D02*
X5565789Y-12986486D01*
X5565789Y-12986486D02*
X5565789Y-12938867D01*
X5565789Y-12938867D02*
X5575313Y-12900772D01*
X5575313Y-12900772D02*
X5584836Y-12881724D01*
X5584836Y-12881724D02*
X5594360Y-12872200D01*
X5594360Y-12872200D02*
X5613408Y-12862676D01*
X5765789Y-13043629D02*
X5775312Y-13053153D01*
X5775312Y-13053153D02*
X5765789Y-13062676D01*
X5765789Y-13062676D02*
X5756265Y-13053153D01*
X5756265Y-13053153D02*
X5765789Y-13043629D01*
X5765789Y-13043629D02*
X5765789Y-13062676D01*
X5899122Y-12862676D02*
X5918170Y-12862676D01*
X5918170Y-12862676D02*
X5937217Y-12872200D01*
X5937217Y-12872200D02*
X5946741Y-12881724D01*
X5946741Y-12881724D02*
X5956265Y-12900772D01*
X5956265Y-12900772D02*
X5965789Y-12938867D01*
X5965789Y-12938867D02*
X5965789Y-12986486D01*
X5965789Y-12986486D02*
X5956265Y-13024581D01*
X5956265Y-13024581D02*
X5946741Y-13043629D01*
X5946741Y-13043629D02*
X5937217Y-13053153D01*
X5937217Y-13053153D02*
X5918170Y-13062676D01*
X5918170Y-13062676D02*
X5899122Y-13062676D01*
X5899122Y-13062676D02*
X5880074Y-13053153D01*
X5880074Y-13053153D02*
X5870551Y-13043629D01*
X5870551Y-13043629D02*
X5861027Y-13024581D01*
X5861027Y-13024581D02*
X5851503Y-12986486D01*
X5851503Y-12986486D02*
X5851503Y-12938867D01*
X5851503Y-12938867D02*
X5861027Y-12900772D01*
X5861027Y-12900772D02*
X5870551Y-12881724D01*
X5870551Y-12881724D02*
X5880074Y-12872200D01*
X5880074Y-12872200D02*
X5899122Y-12862676D01*
X6080074Y-12948391D02*
X6061027Y-12938867D01*
X6061027Y-12938867D02*
X6051503Y-12929343D01*
X6051503Y-12929343D02*
X6041979Y-12910295D01*
X6041979Y-12910295D02*
X6041979Y-12900772D01*
X6041979Y-12900772D02*
X6051503Y-12881724D01*
X6051503Y-12881724D02*
X6061027Y-12872200D01*
X6061027Y-12872200D02*
X6080074Y-12862676D01*
X6080074Y-12862676D02*
X6118170Y-12862676D01*
X6118170Y-12862676D02*
X6137217Y-12872200D01*
X6137217Y-12872200D02*
X6146741Y-12881724D01*
X6146741Y-12881724D02*
X6156265Y-12900772D01*
X6156265Y-12900772D02*
X6156265Y-12910295D01*
X6156265Y-12910295D02*
X6146741Y-12929343D01*
X6146741Y-12929343D02*
X6137217Y-12938867D01*
X6137217Y-12938867D02*
X6118170Y-12948391D01*
X6118170Y-12948391D02*
X6080074Y-12948391D01*
X6080074Y-12948391D02*
X6061027Y-12957914D01*
X6061027Y-12957914D02*
X6051503Y-12967438D01*
X6051503Y-12967438D02*
X6041979Y-12986486D01*
X6041979Y-12986486D02*
X6041979Y-13024581D01*
X6041979Y-13024581D02*
X6051503Y-13043629D01*
X6051503Y-13043629D02*
X6061027Y-13053153D01*
X6061027Y-13053153D02*
X6080074Y-13062676D01*
X6080074Y-13062676D02*
X6118170Y-13062676D01*
X6118170Y-13062676D02*
X6137217Y-13053153D01*
X6137217Y-13053153D02*
X6146741Y-13043629D01*
X6146741Y-13043629D02*
X6156265Y-13024581D01*
X6156265Y-13024581D02*
X6156265Y-12986486D01*
X6156265Y-12986486D02*
X6146741Y-12967438D01*
X6146741Y-12967438D02*
X6137217Y-12957914D01*
X6137217Y-12957914D02*
X6118170Y-12948391D01*
X6327693Y-12862676D02*
X6289598Y-12862676D01*
X6289598Y-12862676D02*
X6270551Y-12872200D01*
X6270551Y-12872200D02*
X6261027Y-12881724D01*
X6261027Y-12881724D02*
X6241979Y-12910295D01*
X6241979Y-12910295D02*
X6232455Y-12948391D01*
X6232455Y-12948391D02*
X6232455Y-13024581D01*
X6232455Y-13024581D02*
X6241979Y-13043629D01*
X6241979Y-13043629D02*
X6251503Y-13053153D01*
X6251503Y-13053153D02*
X6270551Y-13062676D01*
X6270551Y-13062676D02*
X6308646Y-13062676D01*
X6308646Y-13062676D02*
X6327693Y-13053153D01*
X6327693Y-13053153D02*
X6337217Y-13043629D01*
X6337217Y-13043629D02*
X6346741Y-13024581D01*
X6346741Y-13024581D02*
X6346741Y-12976962D01*
X6346741Y-12976962D02*
X6337217Y-12957914D01*
X6337217Y-12957914D02*
X6327693Y-12948391D01*
X6327693Y-12948391D02*
X6308646Y-12938867D01*
X6308646Y-12938867D02*
X6270551Y-12938867D01*
X6270551Y-12938867D02*
X6251503Y-12948391D01*
X6251503Y-12948391D02*
X6241979Y-12957914D01*
X6241979Y-12957914D02*
X6232455Y-12976962D01*
X6518170Y-12862676D02*
X6480074Y-12862676D01*
X6480074Y-12862676D02*
X6461027Y-12872200D01*
X6461027Y-12872200D02*
X6451503Y-12881724D01*
X6451503Y-12881724D02*
X6432455Y-12910295D01*
X6432455Y-12910295D02*
X6422932Y-12948391D01*
X6422932Y-12948391D02*
X6422932Y-13024581D01*
X6422932Y-13024581D02*
X6432455Y-13043629D01*
X6432455Y-13043629D02*
X6441979Y-13053153D01*
X6441979Y-13053153D02*
X6461027Y-13062676D01*
X6461027Y-13062676D02*
X6499122Y-13062676D01*
X6499122Y-13062676D02*
X6518170Y-13053153D01*
X6518170Y-13053153D02*
X6527693Y-13043629D01*
X6527693Y-13043629D02*
X6537217Y-13024581D01*
X6537217Y-13024581D02*
X6537217Y-12976962D01*
X6537217Y-12976962D02*
X6527693Y-12957914D01*
X6527693Y-12957914D02*
X6518170Y-12948391D01*
X6518170Y-12948391D02*
X6499122Y-12938867D01*
X6499122Y-12938867D02*
X6461027Y-12938867D01*
X6461027Y-12938867D02*
X6441979Y-12948391D01*
X6441979Y-12948391D02*
X6432455Y-12957914D01*
X6432455Y-12957914D02*
X6422932Y-12976962D01*
X6613408Y-12862676D02*
X6613408Y-12900772D01*
X6689598Y-12862676D02*
X6689598Y-12900772D01*
X6984836Y-13138867D02*
X6975313Y-13129343D01*
X6975313Y-13129343D02*
X6956265Y-13100772D01*
X6956265Y-13100772D02*
X6946741Y-13081724D01*
X6946741Y-13081724D02*
X6937217Y-13053153D01*
X6937217Y-13053153D02*
X6927694Y-13005533D01*
X6927694Y-13005533D02*
X6927694Y-12967438D01*
X6927694Y-12967438D02*
X6937217Y-12919819D01*
X6937217Y-12919819D02*
X6946741Y-12891248D01*
X6946741Y-12891248D02*
X6956265Y-12872200D01*
X6956265Y-12872200D02*
X6975313Y-12843629D01*
X6975313Y-12843629D02*
X6984836Y-12834105D01*
X7156265Y-12862676D02*
X7061027Y-12862676D01*
X7061027Y-12862676D02*
X7051503Y-12957914D01*
X7051503Y-12957914D02*
X7061027Y-12948391D01*
X7061027Y-12948391D02*
X7080074Y-12938867D01*
X7080074Y-12938867D02*
X7127694Y-12938867D01*
X7127694Y-12938867D02*
X7146741Y-12948391D01*
X7146741Y-12948391D02*
X7156265Y-12957914D01*
X7156265Y-12957914D02*
X7165789Y-12976962D01*
X7165789Y-12976962D02*
X7165789Y-13024581D01*
X7165789Y-13024581D02*
X7156265Y-13043629D01*
X7156265Y-13043629D02*
X7146741Y-13053153D01*
X7146741Y-13053153D02*
X7127694Y-13062676D01*
X7127694Y-13062676D02*
X7080074Y-13062676D01*
X7080074Y-13062676D02*
X7061027Y-13053153D01*
X7061027Y-13053153D02*
X7051503Y-13043629D01*
X7403884Y-13062676D02*
X7403884Y-12862676D01*
X7489598Y-13062676D02*
X7489598Y-12957914D01*
X7489598Y-12957914D02*
X7480075Y-12938867D01*
X7480075Y-12938867D02*
X7461027Y-12929343D01*
X7461027Y-12929343D02*
X7432455Y-12929343D01*
X7432455Y-12929343D02*
X7413408Y-12938867D01*
X7413408Y-12938867D02*
X7403884Y-12948391D01*
X7613408Y-13062676D02*
X7594360Y-13053153D01*
X7594360Y-13053153D02*
X7584836Y-13043629D01*
X7584836Y-13043629D02*
X7575313Y-13024581D01*
X7575313Y-13024581D02*
X7575313Y-12967438D01*
X7575313Y-12967438D02*
X7584836Y-12948391D01*
X7584836Y-12948391D02*
X7594360Y-12938867D01*
X7594360Y-12938867D02*
X7613408Y-12929343D01*
X7613408Y-12929343D02*
X7641979Y-12929343D01*
X7641979Y-12929343D02*
X7661027Y-12938867D01*
X7661027Y-12938867D02*
X7670551Y-12948391D01*
X7670551Y-12948391D02*
X7680075Y-12967438D01*
X7680075Y-12967438D02*
X7680075Y-13024581D01*
X7680075Y-13024581D02*
X7670551Y-13043629D01*
X7670551Y-13043629D02*
X7661027Y-13053153D01*
X7661027Y-13053153D02*
X7641979Y-13062676D01*
X7641979Y-13062676D02*
X7613408Y-13062676D01*
X7794360Y-13062676D02*
X7775313Y-13053153D01*
X7775313Y-13053153D02*
X7765789Y-13034105D01*
X7765789Y-13034105D02*
X7765789Y-12862676D01*
X7946741Y-13053153D02*
X7927694Y-13062676D01*
X7927694Y-13062676D02*
X7889598Y-13062676D01*
X7889598Y-13062676D02*
X7870551Y-13053153D01*
X7870551Y-13053153D02*
X7861027Y-13034105D01*
X7861027Y-13034105D02*
X7861027Y-12957914D01*
X7861027Y-12957914D02*
X7870551Y-12938867D01*
X7870551Y-12938867D02*
X7889598Y-12929343D01*
X7889598Y-12929343D02*
X7927694Y-12929343D01*
X7927694Y-12929343D02*
X7946741Y-12938867D01*
X7946741Y-12938867D02*
X7956265Y-12957914D01*
X7956265Y-12957914D02*
X7956265Y-12976962D01*
X7956265Y-12976962D02*
X7861027Y-12996010D01*
X8032456Y-13053153D02*
X8051503Y-13062676D01*
X8051503Y-13062676D02*
X8089598Y-13062676D01*
X8089598Y-13062676D02*
X8108646Y-13053153D01*
X8108646Y-13053153D02*
X8118170Y-13034105D01*
X8118170Y-13034105D02*
X8118170Y-13024581D01*
X8118170Y-13024581D02*
X8108646Y-13005533D01*
X8108646Y-13005533D02*
X8089598Y-12996010D01*
X8089598Y-12996010D02*
X8061027Y-12996010D01*
X8061027Y-12996010D02*
X8041979Y-12986486D01*
X8041979Y-12986486D02*
X8032456Y-12967438D01*
X8032456Y-12967438D02*
X8032456Y-12957914D01*
X8032456Y-12957914D02*
X8041979Y-12938867D01*
X8041979Y-12938867D02*
X8061027Y-12929343D01*
X8061027Y-12929343D02*
X8089598Y-12929343D01*
X8089598Y-12929343D02*
X8108646Y-12938867D01*
X8184837Y-13138867D02*
X8194360Y-13129343D01*
X8194360Y-13129343D02*
X8213408Y-13100772D01*
X8213408Y-13100772D02*
X8222932Y-13081724D01*
X8222932Y-13081724D02*
X8232456Y-13053153D01*
X8232456Y-13053153D02*
X8241979Y-13005533D01*
X8241979Y-13005533D02*
X8241979Y-12967438D01*
X8241979Y-12967438D02*
X8232456Y-12919819D01*
X8232456Y-12919819D02*
X8222932Y-12891248D01*
X8222932Y-12891248D02*
X8213408Y-12872200D01*
X8213408Y-12872200D02*
X8194360Y-12843629D01*
X8194360Y-12843629D02*
X8184837Y-12834105D01*
X8546741Y-13138867D02*
X8537218Y-13129343D01*
X8537218Y-13129343D02*
X8518170Y-13100772D01*
X8518170Y-13100772D02*
X8508646Y-13081724D01*
X8508646Y-13081724D02*
X8499122Y-13053153D01*
X8499122Y-13053153D02*
X8489599Y-13005533D01*
X8489599Y-13005533D02*
X8489599Y-12967438D01*
X8489599Y-12967438D02*
X8499122Y-12919819D01*
X8499122Y-12919819D02*
X8508646Y-12891248D01*
X8508646Y-12891248D02*
X8518170Y-12872200D01*
X8518170Y-12872200D02*
X8537218Y-12843629D01*
X8537218Y-12843629D02*
X8546741Y-12834105D01*
X8622932Y-12929343D02*
X8622932Y-13062676D01*
X8622932Y-12948391D02*
X8632456Y-12938867D01*
X8632456Y-12938867D02*
X8651503Y-12929343D01*
X8651503Y-12929343D02*
X8680075Y-12929343D01*
X8680075Y-12929343D02*
X8699122Y-12938867D01*
X8699122Y-12938867D02*
X8708646Y-12957914D01*
X8708646Y-12957914D02*
X8708646Y-13062676D01*
X8832456Y-13062676D02*
X8813408Y-13053153D01*
X8813408Y-13053153D02*
X8803884Y-13043629D01*
X8803884Y-13043629D02*
X8794360Y-13024581D01*
X8794360Y-13024581D02*
X8794360Y-12967438D01*
X8794360Y-12967438D02*
X8803884Y-12948391D01*
X8803884Y-12948391D02*
X8813408Y-12938867D01*
X8813408Y-12938867D02*
X8832456Y-12929343D01*
X8832456Y-12929343D02*
X8861027Y-12929343D01*
X8861027Y-12929343D02*
X8880075Y-12938867D01*
X8880075Y-12938867D02*
X8889599Y-12948391D01*
X8889599Y-12948391D02*
X8899122Y-12967438D01*
X8899122Y-12967438D02*
X8899122Y-13024581D01*
X8899122Y-13024581D02*
X8889599Y-13043629D01*
X8889599Y-13043629D02*
X8880075Y-13053153D01*
X8880075Y-13053153D02*
X8861027Y-13062676D01*
X8861027Y-13062676D02*
X8832456Y-13062676D01*
X8956265Y-12929343D02*
X9032456Y-12929343D01*
X8984837Y-12862676D02*
X8984837Y-13034105D01*
X8984837Y-13034105D02*
X8994360Y-13053153D01*
X8994360Y-13053153D02*
X9013408Y-13062676D01*
X9013408Y-13062676D02*
X9032456Y-13062676D01*
X9251503Y-12929343D02*
X9251503Y-13129343D01*
X9251503Y-12938867D02*
X9270551Y-12929343D01*
X9270551Y-12929343D02*
X9308646Y-12929343D01*
X9308646Y-12929343D02*
X9327694Y-12938867D01*
X9327694Y-12938867D02*
X9337218Y-12948391D01*
X9337218Y-12948391D02*
X9346741Y-12967438D01*
X9346741Y-12967438D02*
X9346741Y-13024581D01*
X9346741Y-13024581D02*
X9337218Y-13043629D01*
X9337218Y-13043629D02*
X9327694Y-13053153D01*
X9327694Y-13053153D02*
X9308646Y-13062676D01*
X9308646Y-13062676D02*
X9270551Y-13062676D01*
X9270551Y-13062676D02*
X9251503Y-13053153D01*
X9461027Y-13062676D02*
X9441980Y-13053153D01*
X9441980Y-13053153D02*
X9432456Y-13034105D01*
X9432456Y-13034105D02*
X9432456Y-12862676D01*
X9622932Y-13062676D02*
X9622932Y-12957914D01*
X9622932Y-12957914D02*
X9613408Y-12938867D01*
X9613408Y-12938867D02*
X9594361Y-12929343D01*
X9594361Y-12929343D02*
X9556265Y-12929343D01*
X9556265Y-12929343D02*
X9537218Y-12938867D01*
X9622932Y-13053153D02*
X9603884Y-13062676D01*
X9603884Y-13062676D02*
X9556265Y-13062676D01*
X9556265Y-13062676D02*
X9537218Y-13053153D01*
X9537218Y-13053153D02*
X9527694Y-13034105D01*
X9527694Y-13034105D02*
X9527694Y-13015057D01*
X9527694Y-13015057D02*
X9537218Y-12996010D01*
X9537218Y-12996010D02*
X9556265Y-12986486D01*
X9556265Y-12986486D02*
X9603884Y-12986486D01*
X9603884Y-12986486D02*
X9622932Y-12976962D01*
X9689599Y-12929343D02*
X9765789Y-12929343D01*
X9718170Y-12862676D02*
X9718170Y-13034105D01*
X9718170Y-13034105D02*
X9727694Y-13053153D01*
X9727694Y-13053153D02*
X9746741Y-13062676D01*
X9746741Y-13062676D02*
X9765789Y-13062676D01*
X9908646Y-13053153D02*
X9889599Y-13062676D01*
X9889599Y-13062676D02*
X9851503Y-13062676D01*
X9851503Y-13062676D02*
X9832456Y-13053153D01*
X9832456Y-13053153D02*
X9822932Y-13034105D01*
X9822932Y-13034105D02*
X9822932Y-12957914D01*
X9822932Y-12957914D02*
X9832456Y-12938867D01*
X9832456Y-12938867D02*
X9851503Y-12929343D01*
X9851503Y-12929343D02*
X9889599Y-12929343D01*
X9889599Y-12929343D02*
X9908646Y-12938867D01*
X9908646Y-12938867D02*
X9918170Y-12957914D01*
X9918170Y-12957914D02*
X9918170Y-12976962D01*
X9918170Y-12976962D02*
X9822932Y-12996010D01*
X10089599Y-13062676D02*
X10089599Y-12862676D01*
X10089599Y-13053153D02*
X10070551Y-13062676D01*
X10070551Y-13062676D02*
X10032456Y-13062676D01*
X10032456Y-13062676D02*
X10013408Y-13053153D01*
X10013408Y-13053153D02*
X10003884Y-13043629D01*
X10003884Y-13043629D02*
X9994361Y-13024581D01*
X9994361Y-13024581D02*
X9994361Y-12967438D01*
X9994361Y-12967438D02*
X10003884Y-12948391D01*
X10003884Y-12948391D02*
X10013408Y-12938867D01*
X10013408Y-12938867D02*
X10032456Y-12929343D01*
X10032456Y-12929343D02*
X10070551Y-12929343D01*
X10070551Y-12929343D02*
X10089599Y-12938867D01*
X10165789Y-13138867D02*
X10175313Y-13129343D01*
X10175313Y-13129343D02*
X10194361Y-13100772D01*
X10194361Y-13100772D02*
X10203884Y-13081724D01*
X10203884Y-13081724D02*
X10213408Y-13053153D01*
X10213408Y-13053153D02*
X10222932Y-13005533D01*
X10222932Y-13005533D02*
X10222932Y-12967438D01*
X10222932Y-12967438D02*
X10213408Y-12919819D01*
X10213408Y-12919819D02*
X10203884Y-12891248D01*
X10203884Y-12891248D02*
X10194361Y-12872200D01*
X10194361Y-12872200D02*
X10175313Y-12843629D01*
X10175313Y-12843629D02*
X10165789Y-12834105D01*
M02*
