%TF.GenerationSoftware,KiCad,Pcbnew,9.0.5*%
%TF.CreationDate,2025-10-31T09:25:48-07:00*%
%TF.ProjectId,temporal_mcu_cover,74656d70-6f72-4616-9c5f-6d63755f636f,1*%
%TF.SameCoordinates,Original*%
%TF.FileFunction,Profile,NP*%
%FSLAX46Y46*%
G04 Gerber Fmt 4.6, Leading zero omitted, Abs format (unit mm)*
G04 Created by KiCad (PCBNEW 9.0.5) date 2025-10-31 09:25:48*
%MOMM*%
%LPD*%
G01*
G04 APERTURE LIST*
%TA.AperFunction,Profile*%
%ADD10C,0.150000*%
%TD*%
G04 APERTURE END LIST*
D10*
X168792203Y-100073081D02*
X168792203Y-44030666D01*
X167792203Y-43030666D02*
X149292203Y-43030666D01*
X148292203Y-90646861D02*
X148292203Y-44030666D01*
X148838213Y-91537867D02*
X167338213Y-100964088D01*
X153192203Y-76930666D02*
X162992203Y-76930666D01*
X163492203Y-76430666D02*
X163492203Y-52130666D01*
X162992203Y-51630666D02*
X153192203Y-51630666D01*
X152692203Y-52130666D02*
X152692203Y-76430666D01*
X163492203Y-76430666D02*
G75*
G02*
X162992203Y-76930703I-500003J-34D01*
G01*
X162992203Y-51630666D02*
G75*
G02*
X163492234Y-52130666I-3J-500034D01*
G01*
X152692203Y-52130666D02*
G75*
G02*
X153192203Y-51630703I499997J-34D01*
G01*
X153192203Y-76930666D02*
G75*
G02*
X152692234Y-76430666I-3J499966D01*
G01*
X167792203Y-43030666D02*
G75*
G02*
X168792234Y-44030666I-3J-1000034D01*
G01*
X148292203Y-44030666D02*
G75*
G02*
X149292203Y-43030703I999997J-34D01*
G01*
X148838213Y-91537867D02*
G75*
G02*
X148292237Y-90646861I453987J890967D01*
G01*
X168792203Y-100073081D02*
G75*
G02*
X167338203Y-100964107I-1000003J-19D01*
G01*
X152292203Y-89530666D02*
G75*
G02*
X150292203Y-89530666I-1000000J0D01*
G01*
X150292203Y-89530666D02*
G75*
G02*
X152292203Y-89530666I1000000J0D01*
G01*
X166292203Y-96030666D02*
G75*
G02*
X164292203Y-96030666I-1000000J0D01*
G01*
X164292203Y-96030666D02*
G75*
G02*
X166292203Y-96030666I1000000J0D01*
G01*
M02*
